<?xml version="1.0" encoding="UTF-8"?><svg id="_レイヤー_2" xmlns="http://www.w3.org/2000/svg" xmlns:xlink="http://www.w3.org/1999/xlink" viewBox="0 0 730 48.67"><defs><style>.cls-1{fill:#675952;}.cls-2{fill:url(#_名称未設定グラデーション_25);}</style><linearGradient id="_名称未設定グラデーション_25" x1="0" y1="46.33" x2="730" y2="46.33" gradientUnits="userSpaceOnUse"><stop offset="0" stop-color="#675952" stop-opacity="0"/><stop offset=".49" stop-color="#675952"/><stop offset="1" stop-color="#675952" stop-opacity="0"/></linearGradient></defs><g id="_レイヤー_1-2"><rect class="cls-2" y="43.99" width="730" height="4.68"/><path class="cls-1" d="M78.07,30.15c-3.57,0-5.83-1.11-6.63-1.57-.51-.94-1.06-3.96-1.15-5.95.21-.3.85-.38,1.02-.13.64,2.17,2.38,6.34,7.31,6.34,3.57,0,5.32-2.34,5.32-4.89,0-1.87-.38-3.96-3.49-5.95l-4.04-2.64c-2.13-1.4-4.59-3.83-4.59-7.31,0-4.04,3.15-7.31,8.68-7.31,1.32,0,2.85.26,3.96.55.55.17,1.15.26,1.49.26.38,1.02.77,3.4.77,5.19-.17.26-.85.38-1.06.13-.55-2.04-1.7-4.81-5.78-4.81s-5.06,2.76-5.06,4.72c0,2.47,2.04,4.25,3.61,5.23l3.4,2.13c2.68,1.66,5.32,4.12,5.32,8.17,0,4.68-3.53,7.87-9.06,7.87Z"/><path class="cls-1" d="M113.49,23.09c0,4.46.08,5.1,2.55,5.32l1.36.13c.26.17.17.94-.08,1.06-2.42-.08-3.87-.13-5.57-.13s-3.19.04-5.91.13c-.26-.13-.34-.85,0-1.06l1.53-.13c2.42-.21,2.64-.85,2.64-5.32V4.08c0-1.32,0-1.36-1.28-1.36h-2.34c-1.83,0-4.17.08-5.23,1.06-1.02.94-1.45,1.87-1.91,2.93-.34.26-.94.04-1.11-.3.68-1.91,1.32-4.64,1.62-6.34.13-.08.68-.13.81,0,.26,1.36,1.66,1.32,3.61,1.32h17.22c2.3,0,2.68-.08,3.32-1.19.21-.08.68-.04.77.13-.47,1.74-.77,5.19-.64,6.46-.17.34-.89.34-1.11.08-.13-1.06-.43-2.64-1.06-3.1-.98-.72-2.59-1.06-4.93-1.06h-3.02c-1.28,0-1.23.04-1.23,1.45v18.92Z"/><path class="cls-1" d="M139.85,7.82c0-4.04-.13-4.76-1.87-4.98l-1.36-.17c-.3-.21-.3-.89.04-1.06,2.38-.21,5.32-.34,9.48-.34,2.64,0,5.15.21,7.1,1.28,2.04,1.06,3.53,2.98,3.53,5.95,0,4.04-3.19,6.25-5.32,7.1-.21.25,0,.68.21,1.02,3.4,5.49,5.66,8.89,8.55,11.31.72.64,1.79,1.11,2.93,1.19.21.08.26.42.04.59-.38.13-1.06.21-1.87.21-3.61,0-5.78-1.06-8.8-5.36-1.11-1.57-2.85-4.51-4.17-6.42-.64-.94-1.32-1.36-3.02-1.36-1.91,0-2,.04-2,.94v5.36c0,4.46.08,4.98,2.55,5.32l.89.13c.26.21.17.94-.08,1.06-1.91-.08-3.36-.13-5.06-.13-1.79,0-3.32.04-5.32.13-.25-.13-.34-.77-.08-1.06l1.06-.13c2.47-.3,2.55-.85,2.55-5.32V7.82ZM143.33,13.9c0,.77,0,1.23.13,1.4.13.13.77.21,2.93.21,1.53,0,3.15-.17,4.38-1.11,1.15-.89,2.13-2.38,2.13-5.27,0-3.36-2.08-6.55-6.8-6.55-2.64,0-2.76.17-2.76,1.36v9.95Z"/><path class="cls-1" d="M175.77,7.78c0-4.42-.08-5.06-2.59-5.36l-.68-.08c-.26-.17-.17-.94.08-1.06,1.83.09,3.27.13,5.02.13h8c2.72,0,5.23,0,5.74-.13.26.72.51,3.79.68,5.66-.17.25-.85.34-1.06.08-.64-2-1.02-3.49-3.23-4.04-.89-.21-2.25-.25-4.12-.25h-3.06c-1.28,0-1.28.08-1.28,1.7v8.5c0,1.19.13,1.19,1.4,1.19h2.47c1.79,0,3.1-.09,3.61-.26s.81-.42,1.02-1.49l.34-1.74c.21-.26.94-.26,1.11.04,0,1.02-.17,2.68-.17,4.3,0,1.53.17,3.15.17,4.08-.17.3-.89.3-1.11.04l-.38-1.66c-.17-.77-.47-1.4-1.32-1.62-.6-.17-1.62-.21-3.27-.21h-2.47c-1.28,0-1.4.04-1.4,1.15v6c0,2.25.13,3.7.81,4.42.51.51,1.4.98,5.15.98,3.27,0,4.51-.17,5.44-.64.77-.43,1.91-1.91,3.02-4.12.3-.21.89-.08,1.06.3-.3,1.49-1.36,4.76-1.91,5.91-3.83-.08-7.61-.13-11.4-.13h-3.83c-1.83,0-3.27.04-5.78.13-.25-.13-.34-.81-.08-1.06l1.4-.13c2.42-.21,2.64-.85,2.64-5.32V7.78Z"/><path class="cls-1" d="M209.11,7.78c0-4.42-.08-5.06-2.59-5.36l-.68-.08c-.26-.17-.17-.94.08-1.06,1.83.09,3.27.13,5.02.13h8c2.72,0,5.23,0,5.74-.13.26.72.51,3.79.68,5.66-.17.25-.85.34-1.06.08-.64-2-1.02-3.49-3.23-4.04-.89-.21-2.25-.25-4.12-.25h-3.06c-1.28,0-1.28.08-1.28,1.7v8.5c0,1.19.13,1.19,1.4,1.19h2.47c1.79,0,3.1-.09,3.61-.26s.81-.42,1.02-1.49l.34-1.74c.21-.26.94-.26,1.11.04,0,1.02-.17,2.68-.17,4.3,0,1.53.17,3.15.17,4.08-.17.3-.89.3-1.11.04l-.38-1.66c-.17-.77-.47-1.4-1.32-1.62-.6-.17-1.62-.21-3.27-.21h-2.47c-1.28,0-1.4.04-1.4,1.15v6c0,2.25.13,3.7.81,4.42.51.51,1.4.98,5.15.98,3.27,0,4.51-.17,5.44-.64.77-.43,1.91-1.91,3.02-4.12.3-.21.89-.08,1.06.3-.3,1.49-1.36,4.76-1.91,5.91-3.83-.08-7.61-.13-11.4-.13h-3.83c-1.83,0-3.27.04-5.78.13-.25-.13-.34-.81-.08-1.06l1.4-.13c2.42-.21,2.64-.85,2.64-5.32V7.78Z"/><path class="cls-1" d="M252.65,23.09c0,4.46.08,5.1,2.55,5.32l1.36.13c.26.17.17.94-.08,1.06-2.42-.08-3.87-.13-5.57-.13s-3.19.04-5.91.13c-.26-.13-.34-.85,0-1.06l1.53-.13c2.42-.21,2.64-.85,2.64-5.32V4.08c0-1.32,0-1.36-1.28-1.36h-2.34c-1.83,0-4.17.08-5.23,1.06-1.02.94-1.45,1.87-1.91,2.93-.34.26-.94.04-1.11-.3.68-1.91,1.32-4.64,1.62-6.34.13-.08.68-.13.81,0,.26,1.36,1.66,1.32,3.61,1.32h17.22c2.3,0,2.68-.08,3.32-1.19.21-.08.68-.04.77.13-.47,1.74-.77,5.19-.64,6.46-.17.34-.89.34-1.11.08-.13-1.06-.43-2.64-1.06-3.1-.98-.72-2.59-1.06-4.93-1.06h-3.02c-1.28,0-1.23.04-1.23,1.45v18.92Z"/><path class="cls-1" d="M296.32,5.91c-.98-2.38-1.62-3.27-3.44-3.49l-.77-.08c-.3-.25-.25-.85.08-1.06,1.23.09,2.59.13,4.42.13s3.36-.04,5.15-.13c.3.17.38.81.09,1.06l-.64.08c-1.62.21-1.96.47-2,.81.08.42.81,2.72,2.13,5.95,1.96,4.93,3.91,9.82,6.04,14.67,1.32-2.81,3.1-7.19,4.08-9.44,1.23-2.89,3.23-7.7,3.95-9.53.34-.89.38-1.36.38-1.66s-.43-.64-1.91-.81l-.77-.08c-.3-.25-.21-.89.09-1.06,1.19.09,2.81.13,4.42.13,1.4,0,2.72-.04,4.12-.13.3.17.3.85.09,1.06l-1.28.08c-1.02.08-1.66.6-2.21,1.49-1.19,2-2.85,5.44-4.76,9.78l-2.3,5.23c-1.7,3.91-3.7,8.85-4.42,11.1-.13.08-.3.13-.47.13-.21,0-.43-.04-.64-.13-.47-1.79-1.23-3.87-1.96-5.66l-7.48-18.46Z"/><path class="cls-1" d="M334.76,7.86c0-4.51-.08-5.23-2.59-5.44l-1.06-.08c-.26-.17-.17-.94.08-1.06,2.13.09,3.57.13,5.36.13s3.15-.04,5.27-.13c.25.13.34.89.08,1.06l-1.06.08c-2.51.21-2.59.94-2.59,5.44v15.14c0,4.51.08,5.1,2.59,5.4l1.06.13c.25.17.17.94-.08,1.06-2.13-.08-3.57-.13-5.27-.13-1.79,0-3.23.04-5.36.13-.25-.13-.34-.81-.08-1.06l1.06-.13c2.51-.3,2.59-.89,2.59-5.4V7.86Z"/><path class="cls-1" d="M357.63,7.78c0-4.42-.08-5.06-2.59-5.36l-.68-.08c-.26-.17-.17-.94.08-1.06,1.83.09,3.27.13,5.02.13h8c2.72,0,5.23,0,5.74-.13.26.72.51,3.79.68,5.66-.17.25-.85.34-1.06.08-.64-2-1.02-3.49-3.23-4.04-.89-.21-2.25-.25-4.12-.25h-3.06c-1.28,0-1.28.08-1.28,1.7v8.5c0,1.19.13,1.19,1.4,1.19h2.47c1.79,0,3.1-.09,3.62-.26.51-.17.81-.42,1.02-1.49l.34-1.74c.21-.26.94-.26,1.11.04,0,1.02-.17,2.68-.17,4.3,0,1.53.17,3.15.17,4.08-.17.3-.89.3-1.11.04l-.38-1.66c-.17-.77-.47-1.4-1.32-1.62-.59-.17-1.62-.21-3.27-.21h-2.47c-1.28,0-1.4.04-1.4,1.15v6c0,2.25.13,3.7.81,4.42.51.51,1.4.98,5.15.98,3.27,0,4.51-.17,5.44-.64.77-.43,1.91-1.91,3.02-4.12.3-.21.89-.08,1.06.3-.3,1.49-1.36,4.76-1.91,5.91-3.83-.08-7.61-.13-11.4-.13h-3.83c-1.83,0-3.27.04-5.78.13-.25-.13-.34-.81-.08-1.06l1.4-.13c2.42-.21,2.64-.85,2.64-5.32V7.78Z"/><path class="cls-1" d="M384.89,2.29c-.25-.26-.21-.85.13-1.02,1.15.09,3.06.13,4.38.13,1.19,0,3.36-.04,4.85-.13.38.13.34.72.08,1.02l-.98.08c-.89.08-1.4.34-1.4.72,0,.51.89,2.68,2.21,5.7,2.38,5.32,4.89,10.63,7.36,15.86,1.02-2.13,2.17-4.51,3.27-6.89.38-.81.68-1.53.68-1.74s-.13-.59-.34-1.11c-1.49-3.4-3.06-6.8-4.68-10.21-.64-1.32-1.28-2.21-2.72-2.34l-1.02-.08c-.3-.34-.25-.85.08-1.02,1.23.09,2.85.13,4.55.13,2.13,0,3.7-.04,4.68-.13.3.13.34.68.08,1.02l-1.11.08c-1.66.13-1.7.42-.89,2.34.89,2.08,2.08,4.76,3.27,7.4.81-1.66,1.57-3.27,2.51-5.57,1.53-3.61,1.32-4.08-.04-4.17l-1.28-.08c-.3-.43-.21-.89.09-1.02,1.15.09,2.42.13,4,.13,1.4,0,3.1-.04,4.08-.13.3.13.34.68.08,1.02l-1.23.08c-1.79.13-2.55,2.04-3.49,3.78-.89,1.57-2.68,5.27-3.32,6.76-.21.43-.38.85-.38,1.02s.09.51.3,1.02c1.45,3.27,2.93,6.46,4.34,9.7,1.32-2.98,2.59-5.95,3.83-8.97.85-2.04,3.1-7.7,3.4-8.46.55-1.53,1.28-3.36,1.28-3.87,0-.59-.51-.94-1.4-.98l-1.23-.08c-.34-.38-.3-.85.04-1.02,1.62.09,2.76.13,4.08.13,1.62,0,2.85-.04,3.96-.13.34.13.38.68.09,1.02l-.81.08c-2.13.21-2.51,1.49-5.06,7.4l-3.1,7.19c-1.87,4.34-3.57,8.51-5.32,13.06-.13.08-.3.13-.51.13s-.42-.04-.59-.13c-1.36-3.79-3.83-9.1-5.15-12.08-1.53,3.1-4.08,8.55-5.32,12.08-.13.08-.3.13-.51.13s-.42-.04-.64-.13c-.72-1.79-2.38-5.61-2.93-6.85-2.72-5.91-5.36-11.82-8.12-17.73-.81-1.74-1.32-2.89-3.1-3.06l-1.02-.08Z"/><path class="cls-1" d="M458.91,6.93c0-2.98-.21-3.87-2-4.12l-.94-.13c-.34-.21-.38-.89.04-1.06,3.61-.21,7.06-.34,10.67-.34s6.59.26,9.36,1.28c5.74,2.08,8.63,6.93,8.63,12.54s-2.59,10.04-7.44,12.67c-2.76,1.49-6.25,2.04-9.53,2.04-2.72,0-5.44-.34-6.93-.34-1.79,0-3.32.04-5.32.13-.25-.13-.34-.81-.08-1.06l.98-.13c2.47-.34,2.55-.85,2.55-5.32V6.93ZM462.4,22.11c0,2.25.13,3.62.85,4.64.94,1.32,2.55,1.74,5.23,1.74,8.25,0,11.95-5.4,11.95-13.31,0-4.68-2.25-12.59-13.4-12.59-2.51,0-3.87.34-4.21.6-.34.25-.42,1.32-.42,3.23v15.69Z"/><path class="cls-1" d="M500.58,7.78c0-4.42-.08-5.06-2.59-5.36l-.68-.08c-.26-.17-.17-.94.08-1.06,1.83.09,3.28.13,5.02.13h8c2.72,0,5.23,0,5.74-.13.26.72.51,3.79.68,5.66-.17.25-.85.34-1.06.08-.64-2-1.02-3.49-3.23-4.04-.89-.21-2.25-.25-4.12-.25h-3.06c-1.28,0-1.28.08-1.28,1.7v8.5c0,1.19.13,1.19,1.4,1.19h2.47c1.79,0,3.1-.09,3.62-.26.51-.17.81-.42,1.02-1.49l.34-1.74c.21-.26.94-.26,1.11.04,0,1.02-.17,2.68-.17,4.3,0,1.53.17,3.15.17,4.08-.17.3-.89.3-1.11.04l-.38-1.66c-.17-.77-.47-1.4-1.32-1.62-.59-.17-1.62-.21-3.27-.21h-2.47c-1.28,0-1.4.04-1.4,1.15v6c0,2.25.13,3.7.81,4.42.51.51,1.4.98,5.15.98,3.27,0,4.51-.17,5.44-.64.77-.43,1.91-1.91,3.02-4.12.3-.21.89-.08,1.06.3-.3,1.49-1.36,4.76-1.91,5.91-3.83-.08-7.61-.13-11.4-.13h-3.83c-1.83,0-3.27.04-5.78.13-.25-.13-.34-.81-.08-1.06l1.4-.13c2.42-.21,2.64-.85,2.64-5.32V7.78Z"/><path class="cls-1" d="M538,30.15c-3.57,0-5.83-1.11-6.63-1.57-.51-.94-1.06-3.96-1.15-5.95.21-.3.85-.38,1.02-.13.64,2.17,2.38,6.34,7.31,6.34,3.57,0,5.32-2.34,5.32-4.89,0-1.87-.38-3.96-3.49-5.95l-4.04-2.64c-2.13-1.4-4.59-3.83-4.59-7.31,0-4.04,3.15-7.31,8.68-7.31,1.32,0,2.85.26,3.96.55.55.17,1.15.26,1.49.26.38,1.02.77,3.4.77,5.19-.17.26-.85.38-1.06.13-.55-2.04-1.7-4.81-5.78-4.81s-5.06,2.76-5.06,4.72c0,2.47,2.04,4.25,3.61,5.23l3.4,2.13c2.68,1.66,5.32,4.12,5.32,8.17,0,4.68-3.53,7.87-9.06,7.87Z"/><path class="cls-1" d="M563.21,7.86c0-4.51-.08-5.23-2.59-5.44l-1.06-.08c-.26-.17-.17-.94.08-1.06,2.13.09,3.57.13,5.36.13s3.15-.04,5.27-.13c.25.13.34.89.08,1.06l-1.06.08c-2.51.21-2.59.94-2.59,5.44v15.14c0,4.51.08,5.1,2.59,5.4l1.06.13c.26.17.17.94-.08,1.06-2.13-.08-3.57-.13-5.27-.13-1.79,0-3.23.04-5.36.13-.25-.13-.34-.81-.08-1.06l1.06-.13c2.51-.3,2.59-.89,2.59-5.4V7.86Z"/><path class="cls-1" d="M608.2,25.13c0,1.7.25,2.72,1.02,3.02.13.13.13.38-.04.51-.51,0-1.28.17-2.08.38-2.25.59-5.32,1.11-7.61,1.11-5.06,0-9.7-1.4-12.97-4.72-2.55-2.55-3.91-5.91-3.91-9.65s1.19-7.27,3.83-10.08c2.85-2.98,7.06-4.98,13.48-4.98,2.42,0,4.68.47,5.4.64.81.17,2.13.47,2.64.38,0,1.4.26,3.62.64,6.17-.13.34-.89.38-1.15.13-1.19-4.59-4.38-6.04-8.72-6.04-8.25,0-11.86,5.87-11.86,12.25,0,8.17,4.21,14.59,12.76,14.59,2.64,0,4.21-.55,4.68-1.28.21-.3.42-1.06.42-2.42v-1.7c0-3.57-.13-3.83-2.76-4.12l-1.87-.21c-.34-.17-.3-.94,0-1.06,1.23.08,3.57.13,6.08.13,1.66,0,3.1-.04,4.51-.13.3.17.34.81.04,1.06l-.68.08c-1.79.21-1.83,1.4-1.83,3.57v2.38Z"/><path class="cls-1" d="M649.23,22.24c0,1.28,0,6.34.13,7.44-.08.25-.34.47-.81.47-.51-.72-1.74-2.21-5.44-6.42l-9.87-11.23c-1.15-1.32-4.04-4.81-4.93-5.74h-.08c-.17.51-.21,1.49-.21,2.76v9.27c0,2,.04,7.53.77,8.8.25.47,1.11.72,2.17.81l1.32.13c.25.34.21.85-.09,1.06-1.91-.08-3.4-.13-4.98-.13-1.79,0-2.93.04-4.42.13-.3-.21-.34-.81-.09-1.06l1.15-.13c.98-.13,1.66-.38,1.87-.85.6-1.53.55-6.72.55-8.76V6.5c0-1.19-.04-2.08-.94-3.06-.6-.59-1.62-.89-2.64-1.02l-.72-.08c-.25-.25-.25-.89.09-1.06,1.79.13,4.04.13,4.8.13.68,0,1.4-.04,1.96-.13.85,2.17,5.87,7.78,7.27,9.36l4.12,4.63c2.93,3.27,5.02,5.66,7.02,7.7h.08c.17-.21.17-.89.17-1.79v-9.1c0-2-.04-7.53-.85-8.8-.25-.38-.94-.64-2.64-.85l-.72-.08c-.3-.25-.25-.94.08-1.06,1.96.09,3.4.13,5.02.13,1.83,0,2.93-.04,4.38-.13.34.21.34.81.08,1.06l-.59.08c-1.36.21-2.21.55-2.38.89-.72,1.53-.64,6.8-.64,8.76v10.16Z"/></g></svg>