<?xml version="1.0" encoding="UTF-8"?><svg id="_レイヤー_2" xmlns="http://www.w3.org/2000/svg" xmlns:xlink="http://www.w3.org/1999/xlink" viewBox="0 0 730 47.95"><defs><style>.cls-1{fill:#675952;}.cls-2{fill:url(#_名称未設定グラデーション_25);}</style><linearGradient id="_名称未設定グラデーション_25" x1="0" y1="45.61" x2="730" y2="45.61" gradientUnits="userSpaceOnUse"><stop offset="0" stop-color="#675952" stop-opacity="0"/><stop offset=".49" stop-color="#675952"/><stop offset="1" stop-color="#675952" stop-opacity="0"/></linearGradient></defs><g id="_レイヤー_1-2"><rect class="cls-2" y="43.27" width="730" height="4.68"/><path class="cls-1" d="M187.34,7.06c0-4.46-.08-5.15-2.76-5.36l-1.06-.08c-.26-.17-.17-.94.08-1.06,2.38.09,3.83.13,5.53.13s3.1-.04,5.23-.13c.26.13.34.89.09,1.06l-1.02.08c-2.51.21-2.59.89-2.59,5.36v14.8c0,2.68.13,3.79.89,4.59.47.47,1.28.98,4.64.98,3.61,0,4.51-.17,5.19-.55.85-.51,1.96-2.04,2.81-4.21.26-.21,1.06-.04,1.06.25,0,.47-1.19,4.81-1.79,5.95-2.17-.08-6.21-.13-10.59-.13h-3.91c-1.79,0-3.15.04-5.53.13-.26-.13-.34-.81-.08-1.06l1.28-.13c2.47-.25,2.55-.85,2.55-5.32V7.06Z"/><path class="cls-1" d="M235.99,18.88c-.3-.94-.47-1.06-1.74-1.06h-6.42c-1.06,0-1.32.13-1.62,1.02l-1.49,4.46c-.64,1.91-.94,3.06-.94,3.53,0,.51.21.77,1.23.85l1.4.13c.3.21.3.89-.08,1.06-1.11-.08-2.42-.08-4.42-.13-1.4,0-2.93.08-4.08.13-.25-.17-.34-.85-.08-1.06l1.4-.13c1.02-.08,1.96-.55,2.55-2.08.77-1.96,1.96-4.72,3.74-9.48l4.34-11.48c.6-1.53.85-2.34.72-3.02,1.02-.3,1.74-1.06,2.21-1.62.26,0,.55.08.64.38.55,1.87,1.23,3.83,1.87,5.7l5.83,17.09c1.23,3.66,1.79,4.3,3.61,4.51l1.15.13c.3.21.21.89,0,1.06-1.74-.08-3.23-.13-5.15-.13-2.04,0-3.66.08-4.89.13-.34-.17-.38-.85-.08-1.06l1.23-.13c.89-.08,1.49-.34,1.49-.77,0-.47-.21-1.23-.55-2.25l-1.87-5.78ZM227.57,15.1c-.34.98-.3,1.02.89,1.02h5.23c1.23,0,1.32-.17.94-1.32l-2.3-6.93c-.34-1.02-.72-2.17-.98-2.68h-.08c-.13.21-.55,1.23-1.02,2.51l-2.68,7.4Z"/><path class="cls-1" d="M286.25,21.52c0,1.28,0,6.34.13,7.44-.08.25-.34.47-.81.47-.51-.72-1.74-2.21-5.44-6.42l-9.87-11.23c-1.15-1.32-4.04-4.81-4.93-5.74h-.08c-.17.51-.21,1.49-.21,2.76v9.27c0,2,.04,7.53.77,8.8.26.47,1.11.72,2.17.81l1.32.13c.26.34.21.85-.08,1.06-1.91-.08-3.4-.13-4.98-.13-1.79,0-2.93.04-4.42.13-.3-.21-.34-.81-.08-1.06l1.15-.13c.98-.13,1.66-.38,1.87-.85.6-1.53.55-6.72.55-8.76V5.78c0-1.19-.04-2.08-.94-3.06-.6-.59-1.62-.89-2.64-1.02l-.72-.08c-.25-.25-.25-.89.09-1.06,1.79.13,4.04.13,4.81.13.68,0,1.4-.04,1.96-.13.85,2.17,5.87,7.78,7.27,9.36l4.13,4.63c2.93,3.27,5.02,5.66,7.02,7.7h.08c.17-.21.17-.89.17-1.79v-9.1c0-2-.04-7.53-.85-8.8-.26-.38-.94-.64-2.64-.85l-.72-.08c-.3-.25-.25-.94.09-1.06,1.96.09,3.4.13,5.02.13,1.83,0,2.93-.04,4.38-.13.34.21.34.81.08,1.06l-.6.08c-1.36.21-2.21.55-2.38.89-.72,1.53-.64,6.8-.64,8.76v10.16Z"/><path class="cls-1" d="M309.42,6.21c0-2.98-.21-3.87-2-4.12l-.94-.13c-.34-.21-.38-.89.04-1.06,3.61-.21,7.06-.34,10.67-.34s6.59.26,9.36,1.28c5.74,2.08,8.63,6.93,8.63,12.54s-2.59,10.04-7.44,12.67c-2.76,1.49-6.25,2.04-9.53,2.04-2.72,0-5.44-.34-6.93-.34-1.79,0-3.32.04-5.32.13-.25-.13-.34-.81-.08-1.06l.98-.13c2.47-.34,2.55-.85,2.55-5.32V6.21ZM312.9,21.39c0,2.25.13,3.62.85,4.64.94,1.32,2.55,1.74,5.23,1.74,8.25,0,11.95-5.4,11.95-13.31,0-4.68-2.25-12.59-13.4-12.59-2.51,0-3.87.34-4.21.6-.34.25-.43,1.32-.43,3.23v15.69Z"/><path class="cls-1" d="M382.81,29.43c-3.57,0-5.83-1.11-6.63-1.57-.51-.94-1.06-3.96-1.15-5.95.21-.3.85-.38,1.02-.13.64,2.17,2.38,6.34,7.31,6.34,3.57,0,5.32-2.34,5.32-4.89,0-1.87-.38-3.96-3.49-5.95l-4.04-2.64c-2.13-1.4-4.59-3.83-4.59-7.31,0-4.04,3.15-7.31,8.68-7.31,1.32,0,2.85.26,3.96.55.55.17,1.15.26,1.49.26.38,1.02.77,3.4.77,5.19-.17.26-.85.38-1.06.13-.55-2.04-1.7-4.81-5.78-4.81s-5.06,2.76-5.06,4.72c0,2.47,2.04,4.25,3.62,5.23l3.4,2.13c2.68,1.66,5.32,4.12,5.32,8.17,0,4.68-3.53,7.87-9.06,7.87Z"/><path class="cls-1" d="M414.06,3.62c3.1-2.42,7.06-3.62,11.48-3.62,2.3,0,5.53.47,7.53,1.02.51.13.81.21,1.19.17.04.98.26,3.66.6,6.25-.21.3-.85.34-1.15.08-.64-2.89-2.55-6.21-8.72-6.21-6.51,0-12.04,4.12-12.04,12.93s5.66,13.86,12.63,13.86c5.49,0,7.91-3.57,8.89-6.08.3-.21.94-.13,1.11.17-.3,2.21-1.4,5.02-2.04,5.83-.51.08-1.02.25-1.49.42-.94.34-4,.98-6.72.98-3.83,0-7.49-.77-10.59-2.85-3.4-2.34-6.04-6.21-6.04-11.69,0-4.72,2.13-8.76,5.36-11.27Z"/><path class="cls-1" d="M466.49,18.88c-.3-.94-.47-1.06-1.74-1.06h-6.42c-1.06,0-1.32.13-1.62,1.02l-1.49,4.46c-.64,1.91-.94,3.06-.94,3.53,0,.51.21.77,1.23.85l1.4.13c.3.21.3.89-.08,1.06-1.11-.08-2.42-.08-4.42-.13-1.4,0-2.93.08-4.08.13-.26-.17-.34-.85-.09-1.06l1.4-.13c1.02-.08,1.96-.55,2.55-2.08.77-1.96,1.96-4.72,3.74-9.48l4.34-11.48c.6-1.53.85-2.34.72-3.02,1.02-.3,1.74-1.06,2.21-1.62.25,0,.55.08.64.38.55,1.87,1.23,3.83,1.87,5.7l5.83,17.09c1.23,3.66,1.79,4.3,3.62,4.51l1.15.13c.3.21.21.89,0,1.06-1.74-.08-3.23-.13-5.15-.13-2.04,0-3.66.08-4.89.13-.34-.17-.38-.85-.08-1.06l1.23-.13c.89-.08,1.49-.34,1.49-.77,0-.47-.21-1.23-.55-2.25l-1.87-5.78ZM458.07,15.1c-.34.98-.3,1.02.89,1.02h5.23c1.23,0,1.32-.17.94-1.32l-2.3-6.93c-.34-1.02-.72-2.17-.98-2.68h-.09c-.13.21-.55,1.23-1.02,2.51l-2.68,7.4Z"/><path class="cls-1" d="M497.35,22.37c0,4.46.09,5.02,2.81,5.32l1.15.13c.26.21.17.94-.08,1.06-2.42-.08-3.83-.13-5.53-.13-1.79,0-3.32.04-5.19.13-.26-.13-.34-.81-.09-1.06l.89-.13c2.47-.34,2.55-.85,2.55-5.32V6.68c0-3.61-.09-4.34-2-4.55l-1.53-.17c-.3-.25-.25-.89.08-1.06,2.25-.3,4.89-.34,8.42-.34s6.17.47,8.17,1.7c1.96,1.23,3.4,3.45,3.4,6.38,0,3.91-2.42,5.87-4.25,6.76-1.87.89-4.12,1.28-5.87,1.28-.3-.13-.3-.77-.04-.85,4.59-.85,6.25-3.45,6.25-7.14,0-4.12-2.42-6.8-6.85-6.8-2.25,0-2.3.17-2.3,1.53v18.97Z"/><path class="cls-1" d="M529.46,7.06c0-4.42-.08-5.06-2.59-5.36l-.68-.08c-.26-.17-.17-.94.08-1.06,1.83.09,3.27.13,5.02.13h7.99c2.72,0,5.23,0,5.74-.13.25.72.51,3.79.68,5.66-.17.25-.85.34-1.06.08-.64-2-1.02-3.49-3.23-4.04-.89-.21-2.25-.25-4.12-.25h-3.06c-1.28,0-1.28.08-1.28,1.7v8.5c0,1.19.13,1.19,1.4,1.19h2.47c1.79,0,3.11-.09,3.62-.26.51-.17.81-.42,1.02-1.49l.34-1.74c.21-.26.94-.26,1.11.04,0,1.02-.17,2.68-.17,4.3,0,1.53.17,3.15.17,4.08-.17.3-.89.3-1.11.04l-.38-1.66c-.17-.77-.47-1.4-1.32-1.62-.6-.17-1.62-.21-3.28-.21h-2.47c-1.28,0-1.4.04-1.4,1.15v6c0,2.25.13,3.7.81,4.42.51.51,1.4.98,5.15.98,3.28,0,4.51-.17,5.44-.64.77-.43,1.91-1.91,3.02-4.12.3-.21.89-.08,1.06.3-.3,1.49-1.36,4.76-1.91,5.91-3.83-.08-7.61-.13-11.4-.13h-3.83c-1.83,0-3.28.04-5.78.13-.25-.13-.34-.81-.08-1.06l1.4-.13c2.42-.21,2.64-.85,2.64-5.32V7.06Z"/></g></svg>