<?xml version="1.0" encoding="UTF-8"?>
<svg id="_レイヤー_2" data-name="レイヤー 2" xmlns="http://www.w3.org/2000/svg" viewBox="0 0 488.91 126">
  <defs>
    <style>
      .cls-1, .cls-2, .cls-3 {
        stroke-width: 0px;
      }

      .cls-2 {
        fill: #231815;
      }

      .cls-3 {
        fill: #fff;
      }
    </style>
  </defs>
  <g id="_レイヤー_1-2" data-name="レイヤー 1">
    <g>
      <rect class="cls-2" width="200" height="126"/>
      <g>
        <path class="cls-3" d="M29.04,26.36v33.79h-1.64V24.68h12.94v1.68h-11.3Z"/>
        <path class="cls-3" d="M50.48,46.46c-.62,0-2.69,0-4.56.35l-.78-1.56c2.84.23,5.3.27,6,.27h1.52c0-2.3-.04-4.01-.35-5.61l3.55.97c.31.08.55.27.55.55s-.19.54-1.21,1.05c-.08.86-.12,1.52-.16,3.04h3.2l1.33-1.4c.31-.31.51-.51.66-.51.23,0,.55.23.74.39l1.75,1.44c.2.16.39.35.39.58,0,.35-.35.43-.62.43h-7.44c-.04.35-.04.66-.04,1.91,2.03.27,5.42,1.33,5.42,3.74,0,1.09-.78,1.6-1.44,1.6-.94,0-1.33-.9-1.6-1.56-.35-.86-.97-2.3-2.38-3.31,0,1.52.27,8.11.27,9.43,0,1.21-.66,1.68-1.83,1.68-.86,0-1.21-.39-1.21-1.09,0-.51.47-6.74.47-7.79,0-.31-.04-1.87-.04-2.14-1.48,2.26-4.79,5.92-8.88,7.79l-.16-.23c3.9-3.51,6.62-7.91,7.75-10.02h-.9ZM59.13,38.91l1.17-1.36c.27-.31.43-.51.58-.51.27,0,.51.27.7.43l1.6,1.36c.19.16.39.39.39.62,0,.35-.31.39-.58.39h-12.9c-.66,0-2.69,0-4.6.35l-.74-1.52c2.84.2,5.34.23,5.96.23h4.29c.39-.82,2.26-4.99,2.1-8.03l3.51,1.95c.27.16.39.35.39.62,0,.66-.82.7-1.4.74-.39.55-2.38,3.04-4.01,4.72h3.55ZM58.27,29.63l1.36-1.48c.2-.23.47-.47.62-.47.23,0,.47.19.7.39l1.71,1.48c.23.2.39.35.39.62,0,.35-.31.39-.58.39h-11.11c-.66,0-2.69,0-4.6.35l-.74-1.56c1.99.19,3.98.27,5.96.27h1.25c.04-1.71-.08-3.47-.62-5.34l3.94,1.05c.35.08.58.23.58.55,0,.39-.54.78-1.32,1.21,0,.39-.08,1.99-.08,2.53h2.53ZM49.04,31.54c1.44.78,4.33,2.49,4.33,4.75,0,1.05-.62,1.71-1.44,1.71-1.05,0-1.52-.66-1.71-2.22-.16-1.29-.35-2.38-1.44-4.05l.27-.2ZM77.41,26.94c.16.16.23.31.23.55s-.19.47-.62.47c-.27,0-.58-.08-1.52-.31-2.46.66-7.21,1.09-8.26,1.13-.04,2.38-.08,6.24-.12,8.85h7.99l1.44-1.83c.16-.23.39-.51.66-.51.12,0,.47.2.7.43l2.03,1.79c.19.16.39.39.39.62,0,.39-.35.43-.58.43h-5.88c0,2.46.2,12.7.2,12.94,0,1.05.19,5.65.19,6.7,0,1.25-1.17,1.79-2.1,1.79s-1.05-.51-1.05-1.01c0-.23,0-.66.04-1.13.16-3.12.27-9.12.27-15.39,0-1.17-.04-2.57-.08-3.9h-4.21c-.08,9.12-1.36,15.98-8.96,20.42l-.23-.23c4.91-5.07,6.66-9.28,6.66-23.3,0-2.38-.04-7.13-.62-9.16l3.47,1.68c1.29-.35,5.38-1.56,7.05-3.66l2.92,2.65Z"/>
        <path class="cls-3" d="M96.27,33.92h-4.36v1.36c.82.12,4.44,1.09,4.44,3.31,0,.9-.7,1.44-1.29,1.44-.74,0-.86-.23-1.87-2.26-.43-.9-.74-1.36-1.29-1.87v5.88c0,2.61.12,14.11.12,16.45,0,.43,0,1.05-.66,1.52-.43.35-1.09.43-1.44.43-.31,0-.93-.04-.93-.86,0-.16.27-3.04.27-3.62.16-4.29.27-7.91.35-13.72.04-1.44,0-1.56.04-2.49-1.91,5.18-5.5,9.35-7.37,10.6l-.2-.2c3.74-4.95,6.82-13.8,7.25-15.98-1.05,0-3.04,0-4.91.35l-.78-1.52c2.26.16,2.61.16,6.08.23.08-2.96-.12-6.86-.86-8.42l3.94.9c.27.08.74.2.74.51,0,.19-.35.51-.55.66-.16.16-.66.58-.94.82-.08,1.56-.12,3.12-.16,5.53h1.01l.97-1.05c.23-.23.47-.51.66-.51.23,0,.51.27.7.43l1.21,1.05c.23.23.39.35.39.62,0,.35-.31.39-.58.39ZM116.81,41.01c-2.53-.94-7.25-4.87-8.89-8.5h-3.74c-.97,1.79-1.91,3.04-2.57,3.94l1.52.93h5.57l.51-.58c.16-.2.55-.35.66-.35.16,0,.51.19.62.31l1.25,1.21c.16.16.27.31.27.47,0,.23-.35.58-.74.86-.04.62.04,3.55,0,4.05-.08.74-1.01,1.17-1.56,1.17-.9,0-.9-.35-.86-1.17h-5.85c-.16,1.29-1.52,1.33-1.71,1.33-.55,0-.74-.27-.74-.94,0-.82.19-4.29.19-5.03,0-.47-.04-.74-.04-1.17-2.38,2.84-4.75,4.21-6.2,5.03l-.12-.23c1.32-1.29,4.01-3.86,7.25-9.82-1.33,0-2.96.12-4.29.39l-.78-1.56c2.03.16,3.12.19,5.53.23.39-.86.62-1.29,1.13-2.84-1.36.12-2.77.23-4.17.23-.51,0-1.36,0-2.69-.16v-.31c3.58-.27,12.08-2.34,14.5-4.21l2.65,2.42c.16.12.23.23.23.43,0,.39-.39.39-.58.39-.39,0-.74-.08-1.29-.23-1.01.23-2.69.66-5.84,1.13-.62,1.68-1.05,2.49-1.4,3.16h8.89l1.36-1.48c.2-.23.43-.51.62-.51.27,0,.51.23.7.43l1.75,1.48c.19.2.35.43.35.62,0,.35-.31.39-.58.39h-9.27c2.22,2.92,7.91,5.5,11.54,5.34v.31c-1.44.47-2.57,1.64-3.2,2.85ZM115.96,47.71c-.04,1.29.12,7.56.12,9,0,.82-.08,1.48-.86,2.1-1.36,1.09-2.07,1.21-2.77,1.33-.78-2.26-2.81-3.2-3.23-3.39v-.23c.74.04,2.73.16,3.08.16.51,0,.97-.04,1.13-.55.08-.27.08-2.26.08-3.39,0-1.36-.04-4.48-.08-5.92h-15.04c-.08,1.52.08,9.08.08,10.79,0,1.4-.94,1.95-1.64,1.95-.94,0-1.21-.47-1.21-1.05,0-.66.27-2.96.27-10.02,0-.94,0-2.49-.23-4.4l3.12,1.79h14.3l1.09-1.25c.12-.12.27-.27.43-.27.19,0,.31.12.62.35l1.6,1.33c.16.12.35.27.35.51,0,.2-.9.9-1.21,1.17ZM110.07,50.71c-.04.47.04,2.88.04,3.43,0,1.01-.39,1.48-1.68,1.48-.55,0-.86-.16-.74-1.32h-4.52c.23,1.6-.66,2.1-1.48,2.1-.94,0-.94-.62-.94-1.29,0-.55.08-3.24.08-3.82,0-1.01-.12-2.92-.23-3.51l2.73,1.29h4.21l.66-.82c.12-.16.27-.31.47-.31s.47.16.7.31l1.4,1.01c.16.12.27.23.27.43,0,.23-.39.54-.97,1.01ZM108.9,38.32h-5.88v4.09h5.88v-4.09ZM107.77,50.01h-4.6v3.35h4.6v-3.35Z"/>
        <path class="cls-3" d="M123.13,59.83v-1.68h11.3V24.37h1.64v35.46h-12.94Z"/>
        <path class="cls-3" d="M143.4,56.87c-.82,0-1.29-.58-1.29-1.44,0-.74,1.33-3.82,1.48-4.48.16-.66.12-1.21.08-1.68l.35-.04c.66,1.09,1.44,2.57,1.44,4.64,0,1.05-.31,3-2.07,3ZM157.78,45.53c-.55,6.08-1.75,9.35-2.38,10.76-.9,1.95-2.3,2.73-4.21,3.23-.51-2.42-2.38-3.47-3.2-3.86l.08-.27c2.18.43,3.66.43,3.78.43.78,0,1.09-.08,1.52-1.01,1.13-2.53,1.71-7.6,1.71-10.17h-8.69c.04.62-.04,1.91-1.68,1.91-.78,0-.97-.39-.97-1.05,0-.23.08-1.17.08-1.36.16-2.46.2-9.24.2-11.92,0-1.36,0-4.17-.39-6.47l2.92,1.44h7.25l.94-1.13c.27-.31.47-.51.66-.51.23,0,.43.19.78.43l1.52,1.13c.27.2.43.47.43.62,0,.27-.35.39-.62.39h-5.38v4.52h1.68l.74-.94c.31-.39.43-.55.62-.55s.43.2.78.43l1.25.94c.2.16.43.35.43.62,0,.35-.35.43-.62.43h-4.87v4.48h1.71l.94-1.09c.27-.31.43-.47.62-.47.23,0,.39.12.7.39l1.17,1.09c.23.19.35.47.35.62,0,.23-.23.39-.58.39h-4.91v4.72h2.61l1.01-1.13c.23-.27.43-.47.62-.47s.43.16.78.51l1.52,1.4c.16.16.27.31.27.51,0,.47-.9.9-1.17,1.01ZM147.92,55.2c-1.29,0-1.29-1.64-1.29-2.46,0-2.42,0-3.23-.43-4.29l.23-.12c.27.31,1.68,1.71,1.87,2.07.94,1.44,1.09,2.46,1.09,3,0,1.13-.86,1.79-1.48,1.79ZM149.79,28.11h-3.43v4.52h3.43v-4.52ZM149.79,33.57h-3.43v4.48h3.43v-4.48ZM149.79,38.98h-3.43v4.72h3.43v-4.72ZM151.15,52.66c-1.01,0-1.13-.66-1.44-2.88-.12-.86-.31-1.87-.74-2.85l.16-.12c2.07,1.79,3.23,2.84,3.23,4.36,0,.66-.39,1.48-1.21,1.48ZM153.34,49.78c-.78,0-.93-.62-1.36-2.18-.31-1.01-.62-1.44-.9-1.79l.23-.23c1.83.86,3,1.68,3,2.96,0,.62-.35,1.25-.97,1.25ZM179.14,56.95c-1.87.12-3.23,1.75-3.7,2.3-4.36-3.55-7.6-10.25-7.6-19.45h-4.17c-.39,9.59-2.3,15.47-7.99,19.56l-.2-.16c5.46-5.92,5.65-16.8,5.65-24.9,0-4.83-.27-6.12-.66-8.26l3.7,1.64h8.03l1.13-1.09c.23-.23.43-.35.62-.35s.35.08.66.35l1.56,1.33c.23.2.35.39.35.62,0,.27-.74.82-1.21,1.13-.04.66-.08,1.4-.08,2.46,0,1.25.23,6.7.23,7.91s-1.21,1.56-1.83,1.56c-1.25,0-1.17-.86-1.13-1.79h-3.97c.9,8.5,6.51,15.24,10.64,16.91l-.04.23ZM172.55,28.62h-8.65c-.04,1.48-.2,8.65-.2,10.25h8.85v-10.25Z"/>
        <path class="cls-3" d="M51.2,104.3c-5.06-4.06-7.69-9.89-7.69-15.7s2.63-11.65,7.69-15.7l.29.45c-6.03,6.39-6.16,12.88-6.16,15.25s.13,8.86,6.16,15.25l-.29.45Z"/>
        <path class="cls-3" d="M56.36,102.32c-.71,0-1.23-.58-1.23-1.43,0-.65.16-.84,1.04-1.75.49-.49,1.49-1.59,1.82-4.05h.29c.23.58.52,1.39.52,2.92,0,2.37-.91,4.31-2.43,4.31ZM83.84,88.82h-21.44v3.67h17.13l.94-1.04c.19-.23.32-.36.49-.36s.32.13.55.32l1.43,1.23c.13.13.32.32.32.52,0,.32-.75.71-1.17.91-.75,5.29-1.3,9.12-6.84,9.38-.07-.62-.23-2.04-2.47-3.28v-.26c2.4.52,3.6.52,3.73.52,1.07,0,1.98-.23,2.6-2.43.36-1.36.84-3.34.81-4.74h-17.52c.03,1.07-.88,1.59-1.49,1.59-.78,0-1.07-.45-1.07-.97,0-.2.13-1.27.13-1.43.13-2.4.19-7.23.19-9.83,0-4.15-.06-4.48-.49-6.85l3.28,1.82h3.73c.32-.91.58-2.17.58-3.21,0-.49-.06-.91-.13-1.2l3.41,1.33c.29.1.49.26.49.52,0,.36-.32.52-1.36.75-.32.26-.49.42-2.17,1.82h8.14l.78-.84c.19-.23.32-.32.45-.32.16,0,.29.1.58.29l1.3.88c.26.19.42.36.42.58,0,.26-.13.42-1.07,1.04,0,.52.16,3.92.16,4.67,0,.36,0,.75-.36,1.17-.29.32-.75.52-1.2.52-.94,0-.91-.62-.84-1.59h-13.46v4.05h17.29l1.3-1.52c.26-.32.39-.42.52-.42.16,0,.36.1.62.32l1.88,1.52c.16.13.32.33.32.52,0,.29-.26.36-.49.36ZM64.31,101.02c-1.2,0-1.36-1.36-1.36-1.85-.07-1.56-.1-2.46-.75-3.83l.19-.16c1.17.75,3.21,2.63,3.21,4.48,0,.68-.49,1.36-1.3,1.36ZM75.89,78.38h-13.5v4.83h13.5v-4.83ZM69.63,99.88c-.91,0-1.04-.55-1.39-2.21-.36-1.69-.81-2.3-1.2-2.89l.2-.16c1.78.62,3.67,1.95,3.67,3.79,0,.78-.42,1.46-1.26,1.46ZM75.11,98.46c-.84,0-.97-.39-1.49-1.78-.49-1.26-.94-1.82-1.33-2.3l.16-.16c2.3.65,3.73,1.59,3.73,3.11,0,.94-.68,1.13-1.07,1.13Z"/>
        <path class="cls-3" d="M100.74,91.38h-4.31l-.03,1.1c.84.23,4.02,1.17,4.02,3.11,0,.68-.58,1.14-1.14,1.14-.78,0-1.33-1.01-1.65-1.72-.71-1.56-.78-1.75-1.23-2.11-.03,2.5.03,6.52.03,9.02,0,.42,0,1.52-1.49,1.52-.91,0-.91-.52-.91-.81,0-1.27.29-6.85.32-8.01-1.75,2.21-4.9,4.74-7.01,5.64l-.1-.16c3.11-2.73,5.87-6.46,6.97-8.73h-2.4c-.81,0-2.37.03-3.83.29l-.65-1.27c2.24.16,4.54.19,5,.19h2.04c0-3.05-.32-4.02-.52-4.67l2.76.75c.55.16.75.26.75.49,0,.39-.32.58-.91.97,0,1.17-.03,1.78-.03,2.46h1.36l.88-.97c.26-.26.36-.42.52-.42s.29.13.58.36l1.14.97c.16.16.32.29.32.52,0,.29-.26.32-.49.32ZM112.29,86.45c-3.73-1.17-8.82-5.51-9.7-8.17h-.03c0,.97.03,1.91.07,3.15.06,1.43.19,3.67.19,5.09,0,1.3-.94,1.62-1.69,1.62-.84,0-.88-.58-.88-.97,0-.81.19-4.64.23-5.51.03-1.01.03-1.59.03-2.01-2.43,2.79-7.07,5.97-11.35,6.91v-.19c2.27-1.1,6.49-4.38,9.7-8.08h-4.7c-.23,0-2.3,0-3.8.29l-.65-1.3c2.53.23,4.93.23,4.96.23h5.77c-.1-1.62-.16-2.43-.65-3.99l3.05.81c.55.16.68.32.68.58s-.1.32-.91.91c-.03.49-.07.78-.07,1.69h7.4l1.17-1.59c.19-.26.32-.42.49-.42.2,0,.32.13.58.36l1.75,1.59c.16.16.32.29.32.49,0,.36-.32.36-.52.36h-10.71c2.6,2.69,7.1,5.35,12.33,5.35v.16c-1.85.88-2.56,1.82-3.08,2.66ZM114.72,100.5c-3.15-1.88-5.55-6.2-6.2-8.47.03,1.49.26,9.15.26,9.67,0,.75-.26,1.69-1.52,1.69-.55,0-.94-.33-.94-.84,0-.19.1-1.14.1-1.33.13-3.63.2-6.84.2-7.46-2.24,2.98-6.03,5.64-8.56,6.55l-.1-.19c3.21-2.37,6.29-6.13,7.75-8.56-1.75.06-2.37.16-2.98.29l-.65-1.3c.75.06,2.01.19,4.54.23-.03-2.01-.1-2.89-.78-5.03l2.82.71c.42.1.78.2.78.55,0,.16-.13.32-.23.39-.23.16-.62.45-.65.49-.03.62-.07,1.23-.07,2.89h4.35l1.07-1.46c.23-.32.36-.42.52-.42s.36.13.58.36l1.43,1.46c.23.26.32.32.32.49,0,.33-.26.36-.49.36h-7.43c1.23,2.53,4.09,5.61,8.76,6.78v.13c-.78.36-2.21.94-2.89,2.04Z"/>
        <path class="cls-3" d="M145.15,80.39c.03,1.65-.03,9.12.03,10.41.03,1.07.29,6.42.29,7.92,0,.78,0,2.17-1.75,2.17-.29,0-.97-.07-.97-.81,0-.19.06-1.39.06-1.65h-18.26c.03,1.46.03,1.98-.1,2.24-.26.62-1.13.88-1.75.88-.88,0-.91-.52-.91-.88,0-.32.1-1.75.1-2.04.16-4.25.29-9.99.29-14.99,0-4.25-.13-5.19-.52-7.14l3.47,1.95h17.23l1.01-1.04c.29-.29.39-.45.55-.45s.39.16.58.33l1.78,1.39c.2.16.39.36.39.55,0,.29-.71.71-1.52,1.17ZM142.82,79.22h-18.26v18.43h18.26v-18.43Z"/>
        <path class="cls-3" d="M151.25,104.3l-.29-.45c6.03-6.39,6.16-12.88,6.16-15.25s-.13-8.86-6.16-15.25l.29-.45c5.06,4.05,7.69,9.89,7.69,15.7s-2.63,11.65-7.69,15.7Z"/>
      </g>
    </g>
    <g>
      <path class="cls-1" d="M248.06,70.01c0,5.9-4.79,10.7-10.7,10.7s-10.7-4.77-10.7-10.7,4.84-10.7,10.7-10.7,10.7,4.75,10.7,10.7ZM227.53,70.01c0,5.45,4.43,9.83,9.83,9.83s9.83-4.41,9.83-9.83-4.43-9.83-9.83-9.83-9.83,4.34-9.83,9.83ZM244.78,70.01c0,4.1-3.33,7.42-7.42,7.42s-7.42-3.33-7.42-7.42,3.35-7.42,7.42-7.42,7.42,3.28,7.42,7.42ZM230.81,70.01c0,3.61,2.94,6.55,6.55,6.55s6.55-2.94,6.55-6.55-2.96-6.55-6.55-6.55-6.55,2.89-6.55,6.55Z"/>
      <path class="cls-1" d="M264.66,62.97c-.05,1.35-.05,2.14-.05,3.52,0,4.24.12,10.07.22,11.52,0,.14.05.77.05.92,0,.89-.94,1.16-1.37,1.16-.48,0-.63-.27-.63-.72,0-.02,0-.36.05-.96h-8.92c.02.7.05,1.76-1.32,1.76-.51,0-.65-.29-.65-.65,0-.17.07-1.4.12-2.1.1-1.86.17-8.63.17-10.31,0-5.13-.12-5.71-.39-6.77l2.43,1.25h8.22l.75-.72c.19-.19.31-.29.48-.29.14,0,.29.12.46.27l1.04.94c.17.17.29.31.29.46,0,.29-.31.46-.94.75ZM262.95,62.15h-8.96v7.3h8.96v-7.3ZM262.95,70.03h-8.96v7.78h8.96v-7.78Z"/>
      <path class="cls-1" d="M287.87,65.72c-.05,2.1.07,4.94.07,5.2s.1,1.45.1,1.69c0,.65-.63,1.06-1.3,1.06-.63,0-.63-.41-.6-1.54h-6.36c0,.51,0,4.14.14,6.92,0,.24.05.67.05.7,0,.29-.02.53-.22.72-.29.31-.72.46-1.08.46-.77,0-.77-.63-.77-.89,0-.1.02-.51.02-.63.22-3.64.22-4.75.22-7.28h-6.22c0,.19.05.96.05,1.13,0,1.23-1.16,1.23-1.25,1.23-.7,0-.7-.51-.7-.8,0-.41.07-.92.07-1.18.05-1.37.1-3.47.1-5.13,0-1.08,0-2.99-.24-4.05l2.29,1.13h5.9c-.07-3.78-.14-4.12-.51-5.08l2.6.72c.19.05.39.17.39.34,0,.22-.19.41-.77.79-.05.51-.05,2.77-.07,3.23h6.1l.72-.77c.07-.07.22-.19.34-.19.17,0,.31.07.43.17l1.04.77c.14.1.31.24.31.41,0,.19-.31.46-.84.87ZM278.13,65.04h-6.24v6.51h6.24c0-.58.02-4.34.02-4.65,0-.41,0-1.28-.02-1.86ZM286.13,65.04h-6.36c0,.43-.02,1.45-.02,2.07s.02,3.73.02,4.43h6.36v-6.51Z"/>
      <path class="cls-1" d="M295.24,67.84c-.22,0-1.71,0-2.82.22l-.48-.96c1.66.14,3.49.17,3.71.17h1.28c.02-1.37,0-2.89-.02-4.29-.02-2.53-.12-3.04-.41-3.98l2.19.65c.22.07.41.19.41.39,0,.1-.02.19-.1.26-.1.1-.39.31-.53.43-.12,3.35-.12,5.08-.12,6.53h1.04l.92-.92c.14-.14.26-.29.39-.29.14,0,.31.12.46.26l1.01.89c.12.1.24.22.24.38,0,.19-.19.24-.36.24h-3.69v1.3c3.04.67,3.3,2.1,3.3,2.38,0,.55-.31.96-.89.96s-.87-.46-1.13-1.04c-.48-1.08-.75-1.49-1.28-1.98,0,4.24.05,6.72.14,8.53.03.22.1,1.52.1,1.64,0,1.13-.87,1.33-1.28,1.33-.34,0-.67-.05-.67-.72,0-.63.22-5.37.26-6.38.02-.96.02-1.35.02-3.18-.99,1.66-3.33,4.53-5.59,6.02l-.14-.19c1.88-1.9,4.43-6.12,5.47-8.67h-1.42ZM292.85,61.69c.84.36,3.11,1.42,3.11,2.79,0,.26-.1,1.13-.96,1.13-.63,0-.77-.46-.96-1.16-.48-1.88-.89-2.24-1.28-2.65l.1-.12ZM302.56,61.69c.14.07.29.24.29.41,0,.34-.6.46-.82.51-1.37,1.66-1.49,1.81-2.94,3.37l-.17-.05c.72-1.45,1.64-3.71,1.64-5.23l2,.99ZM311.07,71.72l.72-1.37c.07-.14.17-.36.34-.36.14,0,.31.07.43.17l1.3.89c.14.1.31.22.31.38s-.12.22-.31.27l-4.41.92c.02.84.1,4.99.12,5.28.02.6.07,1.64.07,1.83,0,1.16-.96,1.28-1.23,1.28-.68,0-.7-.46-.7-.82,0-.26.1-2.1.1-2.51,0-.75.02-4.05.05-4.72l-5.13,1.08c-.7.14-1.78.39-2.72.77l-.67-.82c1.47-.19,2.99-.46,3.66-.6l4.87-.99c.05-11.35-.12-11.88-.51-13.18l2.51.7c.17.05.38.17.38.36,0,.17-.1.24-.24.36-.14.12-.39.29-.55.41-.05.65-.07,1.28-.07,3.83,0,2.05.02,4.55.07,7.18l1.62-.34ZM303.17,66.9c1.64.39,3.06,1.49,3.06,2.6,0,.67-.46.99-.89.99-.75,0-.94-.65-1.04-1.06-.24-.92-.58-1.78-1.2-2.46l.07-.07ZM303.31,61.33c.96.26,3.16,1.13,3.16,2.53,0,.7-.53.99-.96.99-.63,0-.75-.46-.89-.94-.05-.14-.53-1.59-1.37-2.51l.07-.07Z"/>
      <path class="cls-1" d="M336.06,68.83c-5.11-1.95-7.95-5.98-9.13-8.29-2.77,4.26-6.36,8.05-11.13,9.83l-.1-.19c3.06-2.12,5.69-4.82,7.85-7.83.72-1.01,1.81-2.63,1.93-3.64l2.02.94c.17.07.34.22.34.41,0,.34-.29.39-.46.43,2.53,3.4,6.87,5.93,11.01,6.17l.02.22c-1.4.55-1.93,1.13-2.36,1.95ZM336.68,79.59h-16.99c-.6,0-1.76.02-2.84.22l-.48-.96c1.66.14,3.37.17,3.71.17h5.59v-6.67h-4.34c-.24,0-1.74,0-2.84.22l-.48-.96c1.69.14,3.52.17,3.71.17h3.95v-3.47h-.87c-.6,0-1.76.02-2.84.22l-.48-.94c1.66.12,3.35.14,3.71.14h3.18l.94-.92c.19-.17.31-.31.41-.31s.29.17.43.26l1.23.92c.12.1.24.22.24.38,0,.22-.19.24-.36.24h-3.9v3.47h4.5l1.04-1.08c.17-.17.31-.31.41-.31.12,0,.29.14.43.26l1.35,1.08c.14.12.24.22.24.36,0,.24-.19.27-.36.27h-7.61v6.67h5.9l1.18-1.25c.19-.19.29-.29.39-.29.14,0,.31.12.46.24l1.52,1.25c.14.12.24.24.24.38,0,.22-.22.24-.36.24ZM322.68,78.08c-.75,0-.96-.67-1.11-1.28-.29-1.35-.46-2.02-1.23-3.23l.12-.14c1.06.58,3.18,1.76,3.18,3.54,0,.63-.36,1.11-.96,1.11ZM332.08,75.28c-1.86,2.26-3.04,3.16-3.57,3.54l-.19-.12c.77-1.28,1.54-2.96,1.93-3.93.31-.72.34-1.01.36-1.64l2.14,1.3c.22.12.26.22.26.31,0,.36-.41.43-.94.53Z"/>
      <path class="cls-1" d="M346.08,65.26c0,.77-.65,1.4-1.4,1.4s-1.4-.63-1.4-1.4.6-1.4,1.4-1.4,1.4.6,1.4,1.4ZM346.08,74.75c0,.79-.65,1.4-1.4,1.4s-1.4-.6-1.4-1.4c0-.75.6-1.4,1.4-1.4s1.4.63,1.4,1.4Z"/>
      <path class="cls-1" d="M361.5,63.6c.19.1.31.24.31.43,0,.22-.26.36-1.01.51-.31.39-.99,1.18-2.02,2.46-.92,1.11-1.71,2-2.36,2.67.12,0,2.14-.1,3.42-.26-.1-.17-.38-.72-.99-1.37l.12-.14c1.88.72,3.32,1.81,3.32,2.92,0,.46-.26.99-.92.99-.58,0-.82-.29-1.04-1.11-.02-.07-.12-.41-.26-.77l-2.19.48c0,1.04.07,5.98.07,6.43.02.48.1,2.65.1,3.08,0,.63-.55,1.04-1.16,1.04-.51,0-.65-.31-.65-.72,0-.39.1-1.98.1-2.31.03-.77.05-3.13.07-7.2-1.52.34-2.72.6-3.04.67-.14.24-.38.7-.6.7-.24,0-.39-.29-.43-.43l-.53-2.05c.41.1,1.11.17,1.71.17.75,0,1.86-.02,2.24-.05,1.64-2.22,3.11-5.28,3.45-6.24.1-.24.14-.67.14-.96l2.14,1.08ZM351.98,79.45c1.04-2.34,1.74-5.4,1.69-7.04l1.98.72c.17.07.34.22.34.34,0,.17-.14.29-.77.53-.77,2.24-1.47,3.59-3.11,5.52l-.12-.07ZM352.9,63.62c.68.17,1.47.38,2.07.67.67-1.35,1.74-3.97,1.59-5.4l2.29,1.13c.19.1.29.24.29.36,0,.36-.36.43-.92.53-1.13,1.45-1.3,1.66-2.94,3.54.7.43,1.42,1.08,1.42,1.9,0,.55-.36,1.16-.99,1.16-.55,0-.7-.29-1.23-1.47-.55-1.25-1.11-1.78-1.61-2.29l.02-.14ZM358.58,72.8c.99.43,3.4,1.52,3.4,3.16,0,.77-.55,1.18-1.06,1.18-.65,0-.77-.48-1.08-1.59-.34-1.25-.79-1.95-1.33-2.65l.07-.1ZM370.1,65.02l.72-.67c.12-.12.27-.27.34-.27.1,0,.27.14.34.22l1.16.99c.12.1.22.24.22.36,0,.17-.46.51-.89.82-.15,6.67-.19,9.66-1.47,12.12-.89,1.71-2.41,2.34-3.73,2.36-.19-1.13-.94-1.88-2.19-2.72l.02-.14c1.11.22,2.58.48,3.2.48,2.43,0,2.55-7.95,2.55-10.43,0-.41-.02-2.12-.02-2.53h-6.5c-1.18,2.24-2,3.06-2.36,3.45l-.14-.1c1.78-3.54,2.6-7.61,2.6-8.87,0-.24-.07-.7-.12-.92l2.6,1.11c.12.05.26.17.26.34,0,.24-.36.41-.94.67-.26.77-.7,1.98-1.59,3.74h5.95ZM363.52,69.62c2.29.94,3.42,1.71,3.42,3.01,0,.58-.29,1.13-.96,1.13-.63,0-.82-.26-1.35-1.93-.19-.63-.65-1.45-1.21-2.07l.1-.14Z"/>
      <path class="cls-1" d="M378.37,77.8h2.34c2.21,0,2.98-.85,2.98-2.59v-23.01c0-1.32-1.23-1.53-2.04-1.53h-3.23v-1.32h.77c3.27,0,6.42-1.49,6.93-1.79.3-.17.43-.26.6-.26.38,0,.47.26.47.6v27.3c0,1.83.89,2.59,2.98,2.59h2.34v1.36h-14.12v-1.36Z"/>
      <path class="cls-1" d="M397.76,83.46c1.15-.85,2-1.96,2-2.81,0-.17-.04-.6-.38-.72-1.11-.51-1.83-1.11-1.83-2.42s1.11-2.47,2.42-2.47c1.4,0,2.51,1.11,2.51,2.42,0,3.15-2.98,5.74-4.04,6.63l-.68-.64Z"/>
      <path class="cls-1" d="M420.85,64.7c1.96,1.66,2.89,3.79,2.89,6.29,0,5.23-4.29,8.97-9.91,8.97-4.59,0-8.46-2.59-8.46-6,0-1.87,1.23-2.72,2.42-2.72,1.45,0,2.08,1.23,2.08,2.13,0,.64-.13,1.02-.25,1.36-.08.25-.13.55-.13.98,0,1.62,1.83,2.81,3.83,2.81,3.27,0,6.59-3.23,6.59-7.53s-3.23-7.78-6.63-7.78c-.26,0-1.45.17-1.7.17-.64,0-.94-.38-.94-.89,0-.55.43-.98.98-.98.25,0,1.53.25,1.83.25,3.57,0,5.83-3.19,5.83-6.63s-2-6.38-5.36-6.38c-2.25,0-3.44,1.62-3.44,2.85,0,.21.08.42.13.64.09.3.13.72.13,1.02,0,1.32-.98,2.34-2.17,2.34-1.4,0-2.13-1.23-2.13-2.34,0-2.34,2.72-5.95,8.17-5.95s8.5,3.4,8.5,7.14c0,1.49-.55,2.93-1.57,4.34-1.74,2.3-3.66,3.02-5.4,3.62,1.96.59,3.23,1.02,4.72,2.3Z"/>
      <path class="cls-1" d="M435.82,79.97c-2.93,0-5.4-2.04-6.97-4.59-1.79-2.93-2.59-8.17-2.59-12.12,0-9.06,3.87-15.95,9.57-15.95,4.38,0,9.57,4.72,9.57,16.33,0,10.42-4.38,16.33-9.57,16.33ZM431.06,54.41c-.59,2.13-.98,5.7-.98,9.23,0,9.48,2.25,14.88,5.74,14.88,2.93,0,4.25-3.91,4.72-5.53.6-2.17,1.02-5.78,1.02-9.36,0-9.7-2.34-14.88-5.74-14.88-3.02,0-4.34,4.17-4.76,5.66Z"/>
      <path class="cls-1" d="M457.08,79.97c-2.93,0-5.4-2.04-6.97-4.59-1.79-2.93-2.59-8.17-2.59-12.12,0-9.06,3.87-15.95,9.57-15.95,4.38,0,9.57,4.72,9.57,16.33,0,10.42-4.38,16.33-9.57,16.33ZM452.31,54.41c-.59,2.13-.98,5.7-.98,9.23,0,9.48,2.25,14.88,5.74,14.88,2.93,0,4.25-3.91,4.72-5.53.6-2.17,1.02-5.78,1.02-9.36,0-9.7-2.34-14.88-5.74-14.88-3.02,0-4.34,4.17-4.76,5.66Z"/>
      <path class="cls-1" d="M487.99,62.34c-.03.84-.05,2.41-.05,4.34,0,2.99.19,7.76.19,10.72,0,1.33,0,3.01-3.11,3.33-.07-.8-.22-1.37-2.24-2.58l.02-.17c1.25.22,2.36.22,2.58.22.72,0,.87-.22.87-1.16v-6.12h-14.12c.05,5.01.05,5.57.12,7.52,0,.05.02.63.02.82,0,.55,0,1.47-1.33,1.47-.75,0-.75-.46-.75-.77,0-.43.1-2.36.1-2.75.12-4.31.14-8.6.14-12.89,0-2.48-.05-3.76-.22-4.87l2.6,1.49h13.04l.82-.87c.17-.17.29-.24.41-.24s.22.05.43.24l1.11,1.01c.14.14.26.31.26.46,0,.22-.39.55-.92.79ZM478.33,61.52h-6.19v8.82h6.19v-8.82ZM486.26,61.52h-6.22v8.82h6.22v-8.82Z"/>
      <path class="cls-1" d="M248.06,110.48c0,5.9-4.79,10.7-10.7,10.7s-10.7-4.77-10.7-10.7,4.84-10.7,10.7-10.7,10.7,4.75,10.7,10.7ZM227.53,110.48c0,5.45,4.43,9.83,9.83,9.83s9.83-4.41,9.83-9.83-4.43-9.83-9.83-9.83-9.83,4.34-9.83,9.83ZM244.78,110.48c0,4.1-3.33,7.42-7.42,7.42s-7.42-3.33-7.42-7.42,3.35-7.42,7.42-7.42,7.42,3.28,7.42,7.42ZM230.81,110.48c0,3.61,2.94,6.55,6.55,6.55s6.55-2.94,6.55-6.55-2.96-6.55-6.55-6.55-6.55,2.89-6.55,6.55Z"/>
      <path class="cls-1" d="M250.23,105.71c2.19-.19,3.78.84,3.78,2.19,0,.72-.51,1.08-1.01,1.08-.58,0-.77-.39-1.08-1.04-.19-.41-.96-1.73-1.71-2.12l.02-.12ZM256.37,106.05c-.17.63-.92,3.57-1.04,3.98-.12.48-1.47,4.63-1.59,5.18-.05.29-.07.6-.07.84,0,.39.1.67.31,1.4.34,1.11.41,1.54.41,1.98,0,1.08-.43,1.59-1.16,1.59-.87,0-1.06-.89-1.06-1.57,0-.34.19-1.81.19-2.19,0-1.18-.05-2.1-1.47-2.72v-.1c.67-.02,1.4-.1,2.19-1.71,1.04-2.1,2.87-5.95,3.16-6.75l.12.07ZM252.3,100.05c3.37.31,3.76,1.93,3.76,2.43,0,.55-.34,1.08-.96,1.08s-.89-.51-1.23-1.25c-.34-.79-.92-1.64-1.54-2.17l-.03-.1ZM259.07,112.75c-.89,0-1.98.07-2.84.24l-.48-.96c1.23.1,2.48.14,3.71.14h2.89c-.05-1.95-.12-2.51-.39-3.45l2.17.6c.19.05.46.19.46.39s-.17.34-.75.63v1.83h4.79l.82-1.35c.1-.14.24-.31.39-.31.19,0,.43.27.46.27l1.28,1.37c.19.19.24.24.24.36,0,.22-.22.24-.36.24h-7.16c1.52,2.02,4.58,4.36,8.38,4.92v.1c-.92.31-1.88.96-2.34,1.85-1.42-.79-4.63-2.7-6.41-6.87h-.1c0,1.01.02,2.05.05,2.99.02.77.19,4.14.19,4.84,0,.77-.72.99-1.25.99-.6,0-.63-.43-.63-.72,0-1.11.14-5.95.14-6.94-1.57,2.63-4.75,5.4-7.04,6.12v-.1c2.67-2.22,5.16-5.52,5.93-7.18h-2.17ZM267.7,101.88l.89-.55c.19-.12.31-.19.39-.19.14,0,.36.14.46.24l1.11.92c.22.17.34.39.34.55,0,.38-.14.46-1.16.51-.41.02-.48.07-1.25.41-.22.1-1.16.51-1.35.6l-.07-.1c.14-.34.65-1.61.7-1.81h-2.17c-.02,1.06-.02,3.57,0,4,.02.51.39.58,1.78.58,1.21,0,1.69-.07,1.88-.34.24-.31.77-1.66,1.04-2.38h.14c.07.94.17,1.93.53,2.19.46.31.55.43.55.65,0,1.35-2.89,1.4-4.46,1.4-2.92,0-3.04-.46-3.04-3.28,0-.46.02-2.31,0-2.82h-2.75l1.3.67c.19.1.43.24.43.41,0,.14-.22.27-.46.36-.34,1.54-1.08,4.65-5.32,5.83v-.12c2.99-2.19,3.78-4.63,3.88-7.16h-2c.12,1.13-.12,3.2-1.49,3.2-.7,0-.96-.58-.96-.92,0-.43.24-.7,1.04-1.69.34-.43.77-1.25.87-2.22h.12c.17.34.27.6.36,1.04h8.67Z"/>
      <path class="cls-1" d="M280.9,109.09c.07.02.38.12.38.36,0,.17-.07.24-.19.31-.17.12-.26.22-.36.29-.07.75-.07,1.37-.07,2.7,0,1.18.12,6.41.12,7.47,0,.99-.84,1.18-1.18,1.18-.72,0-.77-.53-.77-.79,0-.48.14-2.53.17-2.94.05-1.42.07-2.02.1-7.42-1.4,1.86-3.08,3.47-5.13,4.6l-.05-.17c2.12-2.27,4.84-6.02,6.31-9.2.36-.75.36-1.21.36-1.64l2.12,1.13c.14.07.26.19.26.36,0,.24-.1.26-.94.53-1.04,1.71-1.54,2.43-1.95,3.01l.82.22ZM293.02,103.06l.94-1.13c.14-.19.26-.31.38-.31s.27.12.43.24l1.49,1.18c.14.12.22.24.22.36,0,.22-.19.24-.36.24h-17.85c-.43,0-1.66,0-2.84.22l-.48-.94c1.49.1,2.99.14,3.71.14h6.14c0-2.34-.24-3.06-.65-3.86l2.7.58c.19.05.39.07.39.31,0,.1-.07.24-.17.34-.1.1-.48.36-.58.43,0,.34.02,1.88.02,2.19h6.5ZM281.17,120.58c1.45-.82,3.42-1.93,5.76-4.75-1.2-1.54-2.12-3.3-2.46-5.2-1.35,1.54-2.53,2.41-3.37,3.04l-.07-.1c1.86-2.17,5.3-7.52,5.21-9.66l2.02,1.11c.14.07.29.22.29.34,0,.29-.22.36-.96.65-.41.7-.65,1.11-.99,1.64h4.46l.92-.84c.19-.17.29-.26.43-.26.12,0,.24.05.46.22l1.33.99c.14.1.24.26.24.36s-.05.24-.24.39c-.17.12-1.13.39-1.35.46-.41,1.06-1.71,4.22-4.14,7.13,2.29,1.83,5.13,2.72,8.07,2.94v.17c-.75.22-1.49.84-1.95,2.07-1.45-.46-4.24-1.47-6.94-4.31-1.28,1.28-3.59,3.2-6.63,3.76l-.07-.12ZM286.2,108.22c-.65,1.01-1.2,1.73-1.47,2.05.92,2.75,2.31,4.24,2.82,4.77,2.53-3.28,3.16-5.37,3.57-6.82h-4.92ZM286.18,109.13c1.35.22,2.75.92,2.75,2.07,0,.65-.48,1.16-.99,1.16-.63,0-.72-.46-1.04-1.57-.24-.92-.53-1.2-.79-1.47l.07-.19Z"/>
      <path class="cls-1" d="M302.37,108.32c-.22,0-1.71,0-2.82.22l-.48-.96c1.66.14,3.49.17,3.71.17h1.28c.02-1.37,0-2.89-.02-4.29-.03-2.53-.12-3.04-.41-3.98l2.19.65c.22.07.41.19.41.39,0,.1-.02.19-.1.26-.1.1-.39.31-.53.43-.12,3.35-.12,5.08-.12,6.53h1.04l.92-.92c.14-.14.27-.29.39-.29.14,0,.31.12.46.26l1.01.89c.12.1.24.22.24.38,0,.19-.19.24-.36.24h-3.69v1.3c3.04.67,3.3,2.1,3.3,2.38,0,.55-.31.96-.89.96s-.87-.46-1.13-1.04c-.48-1.08-.75-1.49-1.28-1.98,0,4.24.05,6.72.14,8.53.02.22.1,1.52.1,1.64,0,1.13-.87,1.33-1.28,1.33-.34,0-.67-.05-.67-.72,0-.63.22-5.37.27-6.38.02-.96.02-1.35.02-3.18-.99,1.66-3.32,4.53-5.59,6.02l-.14-.19c1.88-1.9,4.43-6.12,5.47-8.67h-1.42ZM299.99,102.17c.84.36,3.11,1.42,3.11,2.79,0,.26-.1,1.13-.96,1.13-.63,0-.77-.46-.96-1.16-.48-1.88-.89-2.24-1.28-2.65l.1-.12ZM309.7,102.17c.14.07.29.24.29.41,0,.34-.6.46-.82.51-1.37,1.66-1.49,1.81-2.94,3.37l-.17-.05c.72-1.45,1.64-3.71,1.64-5.23l2,.99ZM318.2,112.19l.72-1.37c.07-.14.17-.36.34-.36.14,0,.31.07.43.17l1.3.89c.14.1.31.22.31.38s-.12.22-.31.27l-4.41.92c.02.84.1,4.99.12,5.28.02.6.07,1.64.07,1.83,0,1.16-.96,1.28-1.23,1.28-.67,0-.7-.46-.7-.82,0-.26.1-2.1.1-2.51,0-.75.02-4.05.05-4.72l-5.13,1.08c-.7.14-1.78.39-2.72.77l-.67-.82c1.47-.19,2.99-.46,3.66-.6l4.87-.99c.05-11.35-.12-11.88-.51-13.18l2.51.7c.17.05.39.17.39.36,0,.17-.1.24-.24.36-.14.12-.39.29-.55.41-.05.65-.07,1.28-.07,3.83,0,2.05.02,4.55.07,7.18l1.61-.34ZM310.3,107.38c1.64.39,3.06,1.49,3.06,2.6,0,.67-.46.99-.89.99-.75,0-.94-.65-1.04-1.06-.24-.92-.58-1.78-1.21-2.46l.07-.07ZM310.44,101.81c.96.26,3.16,1.13,3.16,2.53,0,.7-.53.99-.96.99-.63,0-.75-.46-.89-.94-.05-.14-.53-1.59-1.37-2.51l.07-.07Z"/>
      <path class="cls-1" d="M343.19,109.3c-5.11-1.95-7.95-5.98-9.13-8.29-2.77,4.26-6.36,8.05-11.13,9.83l-.1-.19c3.06-2.12,5.69-4.82,7.86-7.83.72-1.01,1.81-2.63,1.93-3.64l2.02.94c.17.07.34.22.34.41,0,.34-.29.39-.46.43,2.53,3.4,6.87,5.93,11.01,6.17l.02.22c-1.4.55-1.93,1.13-2.36,1.95ZM343.81,120.07h-16.99c-.6,0-1.76.02-2.84.22l-.48-.96c1.66.14,3.37.17,3.71.17h5.59v-6.67h-4.34c-.24,0-1.73,0-2.84.22l-.48-.96c1.69.14,3.52.17,3.71.17h3.95v-3.47h-.87c-.6,0-1.76.02-2.84.22l-.48-.94c1.66.12,3.35.14,3.71.14h3.18l.94-.92c.19-.17.31-.31.41-.31s.29.17.43.26l1.23.92c.12.1.24.22.24.38,0,.22-.19.24-.36.24h-3.9v3.47h4.51l1.04-1.08c.17-.17.31-.31.41-.31.12,0,.29.14.43.26l1.35,1.08c.14.12.24.22.24.36,0,.24-.19.27-.36.27h-7.61v6.67h5.9l1.18-1.25c.19-.19.29-.29.38-.29.14,0,.31.12.46.24l1.52,1.25c.14.12.24.24.24.38,0,.22-.22.24-.36.24ZM329.82,118.56c-.75,0-.96-.67-1.11-1.28-.29-1.35-.46-2.02-1.23-3.23l.12-.14c1.06.58,3.18,1.76,3.18,3.54,0,.63-.36,1.11-.96,1.11ZM339.21,115.76c-1.86,2.26-3.04,3.16-3.57,3.54l-.19-.12c.77-1.28,1.54-2.96,1.93-3.93.31-.72.34-1.01.36-1.64l2.14,1.3c.22.12.27.22.27.31,0,.36-.41.43-.94.53Z"/>
      <path class="cls-1" d="M353.21,105.74c0,.77-.65,1.4-1.4,1.4s-1.4-.63-1.4-1.4.6-1.4,1.4-1.4,1.4.6,1.4,1.4ZM353.21,115.23c0,.79-.65,1.4-1.4,1.4s-1.4-.6-1.4-1.4c0-.75.6-1.4,1.4-1.4s1.4.63,1.4,1.4Z"/>
      <path class="cls-1" d="M368.63,104.08c.19.1.31.24.31.43,0,.22-.26.36-1.01.51-.31.39-.99,1.18-2.02,2.46-.92,1.11-1.71,2-2.36,2.67.12,0,2.14-.1,3.42-.26-.1-.17-.39-.72-.99-1.37l.12-.14c1.88.72,3.33,1.81,3.33,2.92,0,.46-.27.99-.92.99-.58,0-.82-.29-1.04-1.11-.02-.07-.12-.41-.26-.77l-2.19.48c0,1.04.07,5.98.07,6.43.03.48.1,2.65.1,3.08,0,.63-.55,1.04-1.16,1.04-.51,0-.65-.31-.65-.72,0-.39.1-1.98.1-2.31.02-.77.05-3.13.07-7.2-1.52.34-2.72.6-3.04.67-.14.24-.39.7-.6.7-.24,0-.38-.29-.43-.43l-.53-2.05c.41.1,1.11.17,1.71.17.75,0,1.86-.02,2.24-.05,1.64-2.22,3.11-5.28,3.45-6.24.1-.24.14-.67.14-.96l2.14,1.08ZM359.11,119.93c1.04-2.34,1.73-5.4,1.69-7.04l1.98.72c.17.07.34.22.34.34,0,.17-.14.29-.77.53-.77,2.24-1.47,3.59-3.11,5.52l-.12-.07ZM360.03,104.1c.67.17,1.47.38,2.07.67.67-1.35,1.73-3.97,1.59-5.4l2.29,1.13c.19.1.29.24.29.36,0,.36-.36.43-.92.53-1.13,1.45-1.3,1.66-2.94,3.54.7.43,1.42,1.08,1.42,1.9,0,.55-.36,1.16-.99,1.16-.55,0-.7-.29-1.23-1.47-.55-1.25-1.11-1.78-1.61-2.29l.02-.14ZM365.72,113.28c.99.43,3.4,1.52,3.4,3.16,0,.77-.55,1.18-1.06,1.18-.65,0-.77-.48-1.08-1.59-.34-1.25-.79-1.95-1.33-2.65l.07-.1ZM377.23,105.5l.72-.67c.12-.12.26-.27.34-.27.1,0,.26.14.34.22l1.16.99c.12.1.22.24.22.36,0,.17-.46.51-.89.82-.14,6.67-.19,9.66-1.47,12.12-.89,1.71-2.41,2.34-3.74,2.36-.19-1.13-.94-1.88-2.19-2.72l.02-.14c1.11.22,2.58.48,3.21.48,2.43,0,2.55-7.95,2.55-10.43,0-.41-.02-2.12-.02-2.53h-6.51c-1.18,2.24-2,3.06-2.36,3.45l-.14-.1c1.78-3.54,2.6-7.61,2.6-8.87,0-.24-.07-.7-.12-.92l2.6,1.11c.12.05.27.17.27.34,0,.24-.36.41-.94.67-.27.77-.7,1.98-1.59,3.74h5.95ZM370.66,110.1c2.29.94,3.42,1.71,3.42,3.01,0,.58-.29,1.13-.96,1.13-.63,0-.82-.26-1.35-1.93-.19-.63-.65-1.45-1.21-2.07l.1-.14Z"/>
      <path class="cls-1" d="M383.96,118.87h1.33c1.25,0,1.69-.48,1.69-1.47v-13.04c0-.75-.7-.87-1.16-.87h-1.83v-.75h.43c1.86,0,3.64-.84,3.93-1.01.17-.1.24-.14.34-.14.22,0,.26.14.26.34v15.47c0,1.04.51,1.47,1.69,1.47h1.33v.77h-8v-.77Z"/>
      <path class="cls-1" d="M394.94,122.07c.65-.48,1.13-1.11,1.13-1.59,0-.1-.02-.34-.22-.41-.63-.29-1.04-.63-1.04-1.37s.63-1.4,1.37-1.4c.79,0,1.42.63,1.42,1.37,0,1.78-1.69,3.25-2.29,3.76l-.39-.36Z"/>
      <path class="cls-1" d="M401.06,103.96l-.22,6.07c1.04-.92,1.95-1.66,3.73-1.66,3.47,0,5.13,2.87,5.13,5.52,0,3.49-2.77,6.22-5.95,6.22-2.75,0-4.55-2.05-4.55-3.54,0-.92.58-1.49,1.4-1.49.72,0,1.25.48,1.25,1.25,0,.24-.02.34-.12.72-.05.19-.07.53-.07.67,0,1.04,1.08,1.57,2.05,1.57,1.95,0,3.78-1.86,3.78-5.08,0-3.06-1.61-4.75-3.37-4.75-.96,0-2.43.53-3.76,2.1l-.36-.19.36-9.3h8.38l-.48,1.9h-7.2Z"/>
      <path class="cls-1" d="M416.51,120.1c-1.66,0-3.06-1.16-3.95-2.6-1.01-1.66-1.47-4.63-1.47-6.87,0-5.13,2.19-9.04,5.42-9.04,2.48,0,5.42,2.67,5.42,9.25,0,5.9-2.48,9.25-5.42,9.25ZM413.81,105.62c-.34,1.21-.55,3.23-.55,5.23,0,5.37,1.28,8.43,3.25,8.43,1.66,0,2.41-2.22,2.67-3.13.34-1.23.58-3.28.58-5.3,0-5.49-1.33-8.43-3.25-8.43-1.71,0-2.46,2.36-2.7,3.2Z"/>
      <path class="cls-1" d="M428.56,120.1c-1.66,0-3.06-1.16-3.95-2.6-1.01-1.66-1.47-4.63-1.47-6.87,0-5.13,2.19-9.04,5.42-9.04,2.48,0,5.42,2.67,5.42,9.25,0,5.9-2.48,9.25-5.42,9.25ZM425.86,105.62c-.34,1.21-.55,3.23-.55,5.23,0,5.37,1.28,8.43,3.25,8.43,1.66,0,2.41-2.22,2.67-3.13.34-1.23.58-3.28.58-5.3,0-5.49-1.33-8.43-3.25-8.43-1.71,0-2.46,2.36-2.7,3.2Z"/>
      <path class="cls-1" d="M454.87,102.82c-.02.84-.05,2.41-.05,4.34,0,2.99.19,7.76.19,10.72,0,1.33,0,3.01-3.11,3.33-.07-.8-.22-1.37-2.24-2.58l.03-.17c1.25.22,2.36.22,2.58.22.72,0,.87-.22.87-1.16v-6.12h-14.12c.05,5.01.05,5.57.12,7.52,0,.05.02.63.02.82,0,.55,0,1.47-1.33,1.47-.75,0-.75-.46-.75-.77,0-.43.1-2.36.1-2.75.12-4.31.14-8.6.14-12.89,0-2.48-.05-3.76-.22-4.87l2.6,1.49h13.03l.82-.87c.17-.17.29-.24.41-.24s.22.05.43.24l1.11,1.01c.14.14.27.31.27.46,0,.22-.39.55-.92.79ZM445.2,102h-6.19v8.82h6.19v-8.82ZM453.13,102h-6.22v8.82h6.22v-8.82Z"/>
    </g>
  </g>
</svg>