<?xml version="1.0" encoding="UTF-8"?>
<svg id="_レイヤー_2" data-name="レイヤー 2" xmlns="http://www.w3.org/2000/svg" viewBox="0 0 492.91 126">
  <defs>
    <style>
      .cls-1, .cls-2, .cls-3 {
        stroke-width: 0px;
      }

      .cls-2 {
        fill: #231815;
      }

      .cls-3 {
        fill: #fff;
      }
    </style>
  </defs>
  <g id="_レイヤー_1-2" data-name="レイヤー 1">
    <g>
      <rect class="cls-2" width="210" height="126"/>
      <g>
        <path class="cls-3" d="M34.39,25.36v33.79h-1.64V23.68h12.94v1.68h-11.3Z"/>
        <path class="cls-3" d="M64.64,44.88c.04,1.71.2,9.35.2,10.91,0,.62,0,1.71-1.79,1.71-.9,0-1.21-.39-1.05-2.14h-6.78c.04,1.25.04,2.81-1.79,2.81-1.09,0-1.09-.94-1.09-1.36,0-.39.08-2.07.08-2.42.08-1.83.12-4.25.12-6.98,0-4.56-.12-5.07-.35-6.31l3.43,1.95h5.96l.93-1.05c.23-.23.43-.43.62-.43s.47.19.78.43l1.52,1.13c.27.2.43.35.43.62,0,.23-.47.62-1.21,1.13ZM62.03,43.98h-6.82v10.44h6.82v-10.44ZM76.83,27.34c-.04.55-.08,1.13-.08,2.03,0,1.13.23,6.27.23,7.33,0,1.75-1.79,1.75-1.91,1.75-.94,0-1.05-.62-.97-1.79h-12.55c0,.7,0,1.99-1.79,1.99-1.13,0-1.13-.74-1.13-1.17,0-.74.08-1.91.12-2.65.04-.9.16-3.51.16-5.77,0-1.91-.04-3.08-.43-5.38l3.51,1.79h11.73l.9-1.01c.27-.31.51-.47.74-.47s.43.12.86.43l1.48,1.05c.23.16.43.39.43.62,0,.35-.51.74-1.29,1.25ZM74.14,26.41h-12.59v9.31h12.59v-9.31ZM82.6,44.8l.04,5.57c0,.23.19,5.92.19,6.12,0,1.68-1.25,1.75-1.79,1.75-1.17,0-1.21-.74-1.17-2.81h-7.29c0,1.36,0,2.03-.19,2.3-.35.51-.9.74-1.56.74-1.21,0-1.21-.74-1.21-1.17,0-1.64.31-8.89.31-10.37,0-3.9-.23-4.72-.54-5.81l3.58,1.91h6.43l.97-1.05c.31-.31.47-.47.7-.47s.54.2.82.43l1.44,1.09c.23.16.43.39.43.62,0,.31-.54.74-1.17,1.13ZM79.87,43.98h-7.29v10.52h7.29v-10.52Z"/>
        <path class="cls-3" d="M97.1,28.08c.08,3.04.12,5.61.12,7.09,0,8.18-.12,18.71-8.15,22.76l-.16-.19c3.9-4.09,5.53-8.81,5.53-20.85,0-3.43-.08-8.53-.58-11.77l4.01,1.05c.51.12.78.39.78.7s-.27.7-1.56,1.21ZM107.51,28.67c-.04,1.13-.08,3.31-.08,6.7,0,4.91.31,12.74.31,17.65,0,1.91-1.75,1.91-2.07,1.91-1.09,0-1.13-.74-1.13-1.25,0-.39.2-3.98.2-4.56.08-2.73.16-5.03.16-12.35,0-3.16,0-8.11-.58-10.83l3.78.97c.35.08.66.31.66.55,0,.35-.23.66-1.25,1.21ZM119.43,27.77c-.12,5.3-.12,8.77-.12,11.03,0,2.69.27,14.69.27,17.15,0,.62,0,2.22-2.1,2.22-1.21,0-1.21-.9-1.21-1.25,0-.78.16-4.13.19-4.83.12-4.56.16-9.12.16-13.64,0-6.66-.04-9.08-.23-10.99-.12-1.4-.27-1.95-.47-2.69l4.17,1.29c.43.12.66.35.66.58,0,.47-.39.74-1.33,1.13Z"/>
        <path class="cls-3" d="M127.78,58.83v-1.68h11.3V23.37h1.64v35.46h-12.94Z"/>
        <path class="cls-3" d="M148.05,55.87c-.82,0-1.29-.58-1.29-1.44,0-.74,1.33-3.82,1.48-4.48.16-.66.12-1.21.08-1.68l.35-.04c.66,1.09,1.44,2.57,1.44,4.64,0,1.05-.31,3-2.07,3ZM162.43,44.53c-.55,6.08-1.75,9.35-2.38,10.76-.9,1.95-2.3,2.73-4.21,3.23-.51-2.42-2.38-3.47-3.2-3.86l.08-.27c2.18.43,3.66.43,3.78.43.78,0,1.09-.08,1.52-1.01,1.13-2.53,1.71-7.6,1.71-10.17h-8.69c.04.62-.04,1.91-1.68,1.91-.78,0-.97-.39-.97-1.05,0-.23.08-1.17.08-1.36.16-2.46.2-9.24.2-11.92,0-1.36,0-4.17-.39-6.47l2.92,1.44h7.25l.94-1.13c.27-.31.47-.51.66-.51.23,0,.43.19.78.43l1.52,1.13c.27.2.43.47.43.62,0,.27-.35.39-.62.39h-5.38v4.52h1.68l.74-.94c.31-.39.43-.55.62-.55s.43.2.78.43l1.25.94c.2.16.43.35.43.62,0,.35-.35.43-.62.43h-4.87v4.48h1.71l.94-1.09c.27-.31.43-.47.62-.47.23,0,.39.12.7.39l1.17,1.09c.23.19.35.47.35.62,0,.23-.23.39-.58.39h-4.91v4.72h2.61l1.01-1.13c.23-.27.43-.47.62-.47s.43.16.78.51l1.52,1.4c.16.16.27.31.27.51,0,.47-.9.9-1.17,1.01ZM152.57,54.2c-1.29,0-1.29-1.64-1.29-2.46,0-2.42,0-3.23-.43-4.29l.23-.12c.27.31,1.68,1.71,1.87,2.07.93,1.44,1.09,2.46,1.09,3,0,1.13-.86,1.79-1.48,1.79ZM154.44,27.11h-3.43v4.52h3.43v-4.52ZM154.44,32.57h-3.43v4.48h3.43v-4.48ZM154.44,37.98h-3.43v4.72h3.43v-4.72ZM155.8,51.66c-1.01,0-1.13-.66-1.44-2.88-.12-.86-.31-1.87-.74-2.85l.16-.12c2.07,1.79,3.23,2.84,3.23,4.36,0,.66-.39,1.48-1.21,1.48ZM157.99,48.78c-.78,0-.93-.62-1.36-2.18-.31-1.01-.62-1.44-.9-1.79l.23-.23c1.83.86,3,1.68,3,2.96,0,.62-.35,1.25-.97,1.25ZM183.78,55.95c-1.87.12-3.23,1.75-3.7,2.3-4.36-3.55-7.6-10.25-7.6-19.45h-4.17c-.39,9.59-2.3,15.47-7.99,19.56l-.2-.16c5.46-5.92,5.65-16.8,5.65-24.9,0-4.83-.27-6.12-.66-8.26l3.7,1.64h8.03l1.13-1.09c.23-.23.43-.35.62-.35s.35.08.66.35l1.56,1.33c.23.2.35.39.35.62,0,.27-.74.82-1.21,1.13-.04.66-.08,1.4-.08,2.46,0,1.25.23,6.7.23,7.91s-1.21,1.56-1.83,1.56c-1.25,0-1.17-.86-1.13-1.79h-3.97c.9,8.5,6.51,15.24,10.64,16.91l-.04.23ZM177.2,27.62h-8.65c-.04,1.48-.2,8.65-.2,10.25h8.85v-10.25Z"/>
        <path class="cls-3" d="M56.2,103.3c-5.06-4.06-7.69-9.89-7.69-15.7s2.63-11.65,7.69-15.7l.29.45c-6.03,6.39-6.16,12.88-6.16,15.25s.13,8.86,6.16,15.25l-.29.45Z"/>
        <path class="cls-3" d="M63.27,85.71c-.78,0-.97-.32-2.01-2.34-.39-.71-1.01-1.56-1.62-2.11l.03-.19c1.17.16,4.8,1.04,4.8,3.24,0,.55-.29,1.39-1.2,1.39ZM64.83,91.13c-.55,2.21-.58,2.46-.58,3.08,0,.88.19,2.04.42,2.89.49,2.01.58,2.37.58,2.89,0,.91-.42,1.82-1.43,1.82-1.52,0-1.52-1.62-1.52-2.34,0-.42.1-2.21.1-2.56,0-1.17-.1-2.66-2.17-3.57v-.2c.52-.06,1.56-.19,2.14-.97.71-.94,4.38-11.35,4.64-12.29l.26.1c-.32,2.69-.55,3.57-2.43,11.16ZM65.71,78.06c-.97,0-1.27-.75-1.98-2.3-.36-.81-.84-1.62-1.39-2.34l.06-.16c.62.13,4.64,1.27,4.64,3.34,0,.84-.55,1.46-1.33,1.46ZM88.61,91.36c-.71.58-1.04,1.2-1.33,1.75-3.47-1.36-6.94-5.48-8.11-8.4h-4.15c-.49.88-1.43,2.47-3.41,4.67,2.3.19,4.51.23,4.9.23h1.62l.58-.58c.23-.23.39-.45.62-.45.19,0,.45.23.58.33l1.07.84c.19.16.39.33.39.55,0,.36-.16.49-.75,1.01.03.49.13,2.63.13,3.05,0,.65,0,1.04-.32,1.3-.29.23-.91.42-1.23.42-.65,0-.68-.45-.68-.75h-4.28c-.19,4.35.03,4.35,1.78,4.35,5.45,0,6.68,0,7.4-.68.75-.71,1.07-2.04,1.69-4.31h.16c.16.97.55,3.24,1,3.83.13.2.16.2.52.49.16.13.26.23.26.42,0,.13,0,.94-1.4,1.62-1.62.78-4.83.78-6.55.78-6.16,0-7.04-.2-7.07-2.56,0-2.01-.03-5.16-.19-6.1l2.98,1.4h3.73v-4.15h-2.56c-.81,0-2.37,0-3.79.29l-.62-1.27c-1.59,1.85-3.96,4.02-5.9,5.06l-.1-.19c2.98-2.92,5.68-7.17,6.75-9.57-.68,0-2.63,0-4.12.29l-.65-1.3c1.69.13,2.01.16,4.9.23v-5.51c-1.13.03-2.24.06-3.34.29l-.65-1.3c.71.07,1.88.16,3.99.2,0-2.63-.06-2.95-.55-5l2.98.88c.39.13.62.26.62.49,0,.36-.29.58-.94,1.04.03.68.03.88,0,2.63h4.15c-.03-2.66-.03-2.95-.58-4.87l3.08.81c.36.1.62.29.62.45,0,.39-.52.78-.94,1.04-.03.42-.03,2.21-.03,2.56h1.85l1.04-1.4c.13-.16.29-.42.49-.42s.45.26.62.39l1.43,1.36c.2.16.33.29.33.49,0,.32-.26.36-.49.36h-5.25v5.51h3.6l1.1-1.46c.16-.23.29-.42.49-.42.23,0,.45.2.62.36l1.56,1.46c.19.19.32.36.32.49,0,.32-.29.36-.49.36h-8.27c1.26,1.98,4.8,5.16,10.06,5.68v.19c-.2.13-1.07.65-1.23.78ZM78.71,78.41h-4.15v5.51h4.15c0-.78.03-4.64,0-5.51Z"/>
        <path class="cls-3" d="M121.02,78.67h-13.11v3.92h7.53l1.01-.94c.23-.23.36-.32.55-.32.16,0,.32.1.62.32l1.3,1.01c.26.19.42.42.42.62,0,.32-.65.75-1.2,1.04-.1,2.14.1,11.58.1,13.5,0,1.1,0,3.24-3.73,4.12-.13-.62-.26-1.07-.84-1.62-.16-.16-1.04-.97-2.43-1.49l.03-.23c.78.1,1.78.19,3.24.19,1.17,0,1.39-.23,1.39-1.39v-14.01h-5.45l1.85,1.04c.23.13.39.29.39.49,0,.29-.49.45-1.27.58-.65.75-2.43,2.66-3.02,3.21h2.27l.88-.91c.23-.23.42-.39.58-.39s.39.13.62.32l1.17.91c.16.13.32.32.32.52,0,.26-.19.33-.49.33h-5.9v3.67h2.95l1.01-1.2c.23-.26.36-.39.55-.39.16,0,.32.13.62.36l1.49,1.17c.16.13.32.32.32.52s-.16.33-.49.33h-6.46c0,.88.16,4.7.16,5.51,0,.58,0,1.52-1.69,1.52-.71,0-.84-.39-.84-.88,0-.97.13-5.29.16-6.16h-2.01c-.81,0-2.37.03-3.83.29l-.62-1.3c2.21.19,4.51.23,4.96.23h1.49v-3.67h-1.26c-.29,0-2.3,0-3.8.29l-.65-1.3c2.17.19,4.44.23,5,.23h2.63c.88-1.69,1.53-3.44,1.88-5.32h-11.52c0,.58-.03,4.19,0,8.56,0,1.36.13,7.36.13,8.56,0,1.39-1.39,1.43-1.75,1.43-.65,0-.88-.42-.88-1.07,0-.71.16-3.92.2-4.57.16-3.86.19-9.6.19-9.8,0-2.79-.1-3.96-.39-5.55l3.08,1.65h7.17c0-.1-.03-2.4-.07-3.92h-8.82c-.33,0-2.3,0-3.83.29l-.65-1.3c2.27.19,4.7.23,5,.23h8.3c-.06-3.15-.13-3.99-.78-5.42l3.54,1.01c.52.16.71.32.71.55,0,.39-.65.81-1.1,1.1,0,.71-.03,1.82-.06,2.76h8.63l1.46-1.62c.26-.26.39-.42.58-.42s.39.16.65.36l1.95,1.62c.19.16.32.39.32.52,0,.23-.19.32-.49.32ZM104.57,88.21c-.84,0-1.07-.62-1.33-1.59-.49-1.69-.97-2.4-1.26-2.79l.13-.16c1.49.55,3.67,1.62,3.67,3.28,0,.78-.55,1.27-1.2,1.27Z"/>
        <path class="cls-3" d="M150.15,79.39c.03,1.65-.03,9.12.03,10.41.03,1.07.29,6.42.29,7.92,0,.78,0,2.17-1.75,2.17-.29,0-.97-.07-.97-.81,0-.19.06-1.39.06-1.65h-18.26c.03,1.46.03,1.98-.1,2.24-.26.62-1.13.88-1.75.88-.88,0-.91-.52-.91-.88,0-.32.1-1.75.1-2.04.16-4.25.29-9.99.29-14.99,0-4.25-.13-5.19-.52-7.14l3.47,1.95h17.23l1.01-1.04c.29-.29.39-.45.55-.45s.39.16.58.33l1.78,1.39c.2.16.39.36.39.55,0,.29-.71.71-1.52,1.17ZM147.82,78.22h-18.26v18.43h18.26v-18.43Z"/>
        <path class="cls-3" d="M156.25,103.3l-.29-.45c6.03-6.39,6.16-12.88,6.16-15.25s-.13-8.86-6.16-15.25l.29-.45c5.06,4.05,7.69,9.89,7.69,15.7s-2.63,11.65-7.69,15.7Z"/>
      </g>
    </g>
    <g>
      <path class="cls-1" d="M252.06,70.01c0,5.9-4.79,10.7-10.7,10.7s-10.7-4.77-10.7-10.7,4.84-10.7,10.7-10.7,10.7,4.75,10.7,10.7ZM231.53,70.01c0,5.45,4.43,9.83,9.83,9.83s9.83-4.41,9.83-9.83-4.43-9.83-9.83-9.83-9.83,4.34-9.83,9.83ZM248.78,70.01c0,4.1-3.33,7.42-7.42,7.42s-7.42-3.33-7.42-7.42,3.35-7.42,7.42-7.42,7.42,3.28,7.42,7.42ZM234.81,70.01c0,3.61,2.94,6.55,6.55,6.55s6.55-2.94,6.55-6.55-2.96-6.55-6.55-6.55-6.55,2.89-6.55,6.55Z"/>
      <path class="cls-1" d="M268.66,62.97c-.05,1.35-.05,2.14-.05,3.52,0,4.24.12,10.07.22,11.52,0,.14.05.77.05.92,0,.89-.94,1.16-1.37,1.16-.48,0-.63-.27-.63-.72,0-.02,0-.36.05-.96h-8.91c.02.7.05,1.76-1.33,1.76-.51,0-.65-.29-.65-.65,0-.17.07-1.4.12-2.1.1-1.86.17-8.63.17-10.31,0-5.13-.12-5.71-.39-6.77l2.43,1.25h8.22l.75-.72c.19-.19.31-.29.48-.29.14,0,.29.12.46.27l1.04.94c.17.17.29.31.29.46,0,.29-.31.46-.94.75ZM266.95,62.15h-8.96v7.3h8.96v-7.3ZM266.95,70.03h-8.96v7.78h8.96v-7.78Z"/>
      <path class="cls-1" d="M291.87,65.72c-.05,2.1.07,4.94.07,5.2s.1,1.45.1,1.69c0,.65-.63,1.06-1.3,1.06-.63,0-.63-.41-.6-1.54h-6.36c0,.51,0,4.14.14,6.92,0,.24.05.67.05.7,0,.29-.02.53-.22.72-.29.31-.72.46-1.08.46-.77,0-.77-.63-.77-.89,0-.1.02-.51.02-.63.22-3.64.22-4.75.22-7.28h-6.22c0,.19.05.96.05,1.13,0,1.23-1.16,1.23-1.25,1.23-.7,0-.7-.51-.7-.8,0-.41.07-.92.07-1.18.05-1.37.1-3.47.1-5.13,0-1.08,0-2.99-.24-4.05l2.29,1.13h5.9c-.07-3.78-.14-4.12-.51-5.08l2.6.72c.19.05.39.17.39.34,0,.22-.19.41-.77.79-.05.51-.05,2.77-.07,3.23h6.1l.72-.77c.07-.07.22-.19.34-.19.17,0,.31.07.43.17l1.04.77c.14.1.31.24.31.41,0,.19-.31.46-.84.87ZM282.13,65.04h-6.24v6.51h6.24c0-.58.02-4.34.02-4.65,0-.41,0-1.28-.02-1.86ZM290.13,65.04h-6.36c0,.43-.02,1.45-.02,2.07s.02,3.73.02,4.43h6.36v-6.51Z"/>
      <path class="cls-1" d="M299.24,67.84c-.22,0-1.71,0-2.82.22l-.48-.96c1.66.14,3.49.17,3.71.17h1.28c.02-1.37,0-2.89-.02-4.29-.02-2.53-.12-3.04-.41-3.98l2.19.65c.22.07.41.19.41.39,0,.1-.02.19-.1.26-.1.1-.39.31-.53.43-.12,3.35-.12,5.08-.12,6.53h1.04l.92-.92c.14-.14.27-.29.39-.29.14,0,.31.12.46.26l1.01.89c.12.1.24.22.24.38,0,.19-.19.24-.36.24h-3.69v1.3c3.04.67,3.3,2.1,3.3,2.38,0,.55-.31.96-.89.96s-.87-.46-1.13-1.04c-.48-1.08-.75-1.49-1.28-1.98,0,4.24.05,6.72.14,8.53.02.22.1,1.52.1,1.64,0,1.13-.87,1.33-1.28,1.33-.34,0-.67-.05-.67-.72,0-.63.22-5.37.27-6.38.02-.96.02-1.35.02-3.18-.99,1.66-3.32,4.53-5.59,6.02l-.14-.19c1.88-1.9,4.43-6.12,5.47-8.67h-1.42ZM296.85,61.69c.84.36,3.11,1.42,3.11,2.79,0,.26-.1,1.13-.96,1.13-.63,0-.77-.46-.96-1.16-.48-1.88-.89-2.24-1.28-2.65l.1-.12ZM306.56,61.69c.14.07.29.24.29.41,0,.34-.6.46-.82.51-1.37,1.66-1.49,1.81-2.94,3.37l-.17-.05c.72-1.45,1.64-3.71,1.64-5.23l2,.99ZM315.07,71.72l.72-1.37c.07-.14.17-.36.34-.36.14,0,.31.07.43.17l1.3.89c.14.1.31.22.31.38s-.12.22-.31.27l-4.41.92c.02.84.1,4.99.12,5.28.02.6.07,1.64.07,1.83,0,1.16-.96,1.28-1.23,1.28-.67,0-.7-.46-.7-.82,0-.26.1-2.1.1-2.51,0-.75.02-4.05.05-4.72l-5.13,1.08c-.7.14-1.78.39-2.72.77l-.67-.82c1.47-.19,2.99-.46,3.66-.6l4.87-.99c.05-11.35-.12-11.88-.51-13.18l2.51.7c.17.05.39.17.39.36,0,.17-.1.24-.24.36-.14.12-.39.29-.55.41-.05.65-.07,1.28-.07,3.83,0,2.05.02,4.55.07,7.18l1.61-.34ZM307.17,66.9c1.64.39,3.06,1.49,3.06,2.6,0,.67-.46.99-.89.99-.75,0-.94-.65-1.04-1.06-.24-.92-.58-1.78-1.2-2.46l.07-.07ZM307.31,61.33c.96.26,3.16,1.13,3.16,2.53,0,.7-.53.99-.96.99-.63,0-.75-.46-.89-.94-.05-.14-.53-1.59-1.37-2.51l.07-.07Z"/>
      <path class="cls-1" d="M340.06,68.83c-5.11-1.95-7.95-5.98-9.13-8.29-2.77,4.26-6.36,8.05-11.13,9.83l-.1-.19c3.06-2.12,5.69-4.82,7.85-7.83.72-1.01,1.81-2.63,1.93-3.64l2.02.94c.17.07.34.22.34.41,0,.34-.29.39-.46.43,2.53,3.4,6.87,5.93,11.01,6.17l.02.22c-1.4.55-1.93,1.13-2.36,1.95ZM340.68,79.59h-16.99c-.6,0-1.76.02-2.84.22l-.48-.96c1.66.14,3.37.17,3.71.17h5.59v-6.67h-4.34c-.24,0-1.73,0-2.84.22l-.48-.96c1.69.14,3.52.17,3.71.17h3.95v-3.47h-.87c-.6,0-1.76.02-2.84.22l-.48-.94c1.66.12,3.35.14,3.71.14h3.18l.94-.92c.19-.17.31-.31.41-.31s.29.17.43.26l1.23.92c.12.1.24.22.24.38,0,.22-.19.24-.36.24h-3.9v3.47h4.51l1.04-1.08c.17-.17.31-.31.41-.31.12,0,.29.14.43.26l1.35,1.08c.14.12.24.22.24.36,0,.24-.19.27-.36.27h-7.61v6.67h5.9l1.18-1.25c.19-.19.29-.29.39-.29.14,0,.31.12.46.24l1.52,1.25c.14.12.24.24.24.38,0,.22-.22.24-.36.24ZM326.68,78.08c-.75,0-.96-.67-1.11-1.28-.29-1.35-.46-2.02-1.23-3.23l.12-.14c1.06.58,3.18,1.76,3.18,3.54,0,.63-.36,1.11-.96,1.11ZM336.08,75.28c-1.86,2.26-3.04,3.16-3.57,3.54l-.19-.12c.77-1.28,1.54-2.96,1.93-3.93.31-.72.34-1.01.36-1.64l2.14,1.3c.22.12.26.22.26.31,0,.36-.41.43-.94.53Z"/>
      <path class="cls-1" d="M350.08,65.26c0,.77-.65,1.4-1.4,1.4s-1.4-.63-1.4-1.4.6-1.4,1.4-1.4,1.4.6,1.4,1.4ZM350.08,74.75c0,.79-.65,1.4-1.4,1.4s-1.4-.6-1.4-1.4c0-.75.6-1.4,1.4-1.4s1.4.63,1.4,1.4Z"/>
      <path class="cls-1" d="M365.5,63.6c.19.1.31.24.31.43,0,.22-.26.36-1.01.51-.31.39-.99,1.18-2.02,2.46-.92,1.11-1.71,2-2.36,2.67.12,0,2.14-.1,3.42-.26-.1-.17-.39-.72-.99-1.37l.12-.14c1.88.72,3.32,1.81,3.32,2.92,0,.46-.26.99-.92.99-.58,0-.82-.29-1.04-1.11-.02-.07-.12-.41-.26-.77l-2.19.48c0,1.04.07,5.98.07,6.43.02.48.1,2.65.1,3.08,0,.63-.55,1.04-1.16,1.04-.51,0-.65-.31-.65-.72,0-.39.1-1.98.1-2.31.02-.77.05-3.13.07-7.2-1.52.34-2.72.6-3.04.67-.14.24-.39.7-.6.7-.24,0-.39-.29-.43-.43l-.53-2.05c.41.1,1.11.17,1.71.17.75,0,1.86-.02,2.24-.05,1.64-2.22,3.11-5.28,3.45-6.24.1-.24.14-.67.14-.96l2.14,1.08ZM355.98,79.45c1.04-2.34,1.73-5.4,1.69-7.04l1.98.72c.17.07.34.22.34.34,0,.17-.14.29-.77.53-.77,2.24-1.47,3.59-3.11,5.52l-.12-.07ZM356.9,63.62c.67.17,1.47.38,2.07.67.67-1.35,1.73-3.97,1.59-5.4l2.29,1.13c.19.1.29.24.29.36,0,.36-.36.43-.92.53-1.13,1.45-1.3,1.66-2.94,3.54.7.43,1.42,1.08,1.42,1.9,0,.55-.36,1.16-.99,1.16-.55,0-.7-.29-1.23-1.47-.55-1.25-1.11-1.78-1.61-2.29l.02-.14ZM362.58,72.8c.99.43,3.4,1.52,3.4,3.16,0,.77-.55,1.18-1.06,1.18-.65,0-.77-.48-1.08-1.59-.34-1.25-.79-1.95-1.33-2.65l.07-.1ZM374.1,65.02l.72-.67c.12-.12.27-.27.34-.27.1,0,.27.14.34.22l1.16.99c.12.1.22.24.22.36,0,.17-.46.51-.89.82-.15,6.67-.19,9.66-1.47,12.12-.89,1.71-2.41,2.34-3.73,2.36-.19-1.13-.94-1.88-2.19-2.72l.02-.14c1.11.22,2.58.48,3.2.48,2.43,0,2.55-7.95,2.55-10.43,0-.41-.02-2.12-.02-2.53h-6.51c-1.18,2.24-2,3.06-2.36,3.45l-.14-.1c1.78-3.54,2.6-7.61,2.6-8.87,0-.24-.07-.7-.12-.92l2.6,1.11c.12.05.27.17.27.34,0,.24-.36.41-.94.67-.27.77-.7,1.98-1.59,3.74h5.95ZM367.52,69.62c2.29.94,3.42,1.71,3.42,3.01,0,.58-.29,1.13-.96,1.13-.63,0-.82-.26-1.35-1.93-.19-.63-.65-1.45-1.21-2.07l.1-.14Z"/>
      <path class="cls-1" d="M382.37,77.8h2.34c2.21,0,2.98-.85,2.98-2.59v-23.01c0-1.32-1.23-1.53-2.04-1.53h-3.23v-1.32h.77c3.27,0,6.42-1.49,6.93-1.79.3-.17.43-.26.6-.26.38,0,.47.26.47.6v27.3c0,1.83.89,2.59,2.98,2.59h2.34v1.36h-14.12v-1.36Z"/>
      <path class="cls-1" d="M401.76,83.46c1.15-.85,2-1.96,2-2.81,0-.17-.04-.6-.38-.72-1.11-.51-1.83-1.11-1.83-2.42s1.11-2.47,2.42-2.47c1.4,0,2.51,1.11,2.51,2.42,0,3.15-2.98,5.74-4.04,6.63l-.68-.64Z"/>
      <path class="cls-1" d="M425.75,79.16h-16.71v-1.15c.85-2.68,2.85-5.66,6.25-9.53,6.25-7.23,8.38-9.65,8.38-13.91,0-3.19-2.04-5.83-5.66-5.83-2.98,0-4.76,1.79-4.76,3.32,0,.13,0,.68.43,1.32.55.85.89,1.32.89,2.13,0,1.28-1.02,2.38-2.3,2.38-1.49,0-2.42-1.4-2.42-2.98,0-3.1,3.02-7.61,9.14-7.61,5.27,0,8.51,3.32,8.51,7.91,0,4.29-2.47,6.63-6.29,9.91-1.45,1.19-7.06,6-9.19,10.67h5.87c5.95,0,7.36-2.3,8.63-5.83l1.28.47-2.04,8.72Z"/>
      <path class="cls-1" d="M439.82,79.97c-2.93,0-5.4-2.04-6.97-4.59-1.79-2.93-2.59-8.17-2.59-12.12,0-9.06,3.87-15.95,9.57-15.95,4.38,0,9.57,4.72,9.57,16.33,0,10.42-4.38,16.33-9.57,16.33ZM435.06,54.41c-.6,2.13-.98,5.7-.98,9.23,0,9.48,2.25,14.88,5.74,14.88,2.93,0,4.25-3.91,4.72-5.53.6-2.17,1.02-5.78,1.02-9.36,0-9.7-2.34-14.88-5.74-14.88-3.02,0-4.34,4.17-4.76,5.66Z"/>
      <path class="cls-1" d="M461.08,79.97c-2.93,0-5.4-2.04-6.97-4.59-1.79-2.93-2.59-8.17-2.59-12.12,0-9.06,3.87-15.95,9.57-15.95,4.38,0,9.57,4.72,9.57,16.33,0,10.42-4.38,16.33-9.57,16.33ZM456.31,54.41c-.6,2.13-.98,5.7-.98,9.23,0,9.48,2.25,14.88,5.74,14.88,2.93,0,4.25-3.91,4.72-5.53.6-2.17,1.02-5.78,1.02-9.36,0-9.7-2.34-14.88-5.74-14.88-3.02,0-4.34,4.17-4.76,5.66Z"/>
      <path class="cls-1" d="M491.99,62.34c-.02.84-.05,2.41-.05,4.34,0,2.99.19,7.76.19,10.72,0,1.33,0,3.01-3.11,3.33-.07-.8-.22-1.37-2.24-2.58l.02-.17c1.25.22,2.36.22,2.58.22.72,0,.87-.22.87-1.16v-6.12h-14.12c.05,5.01.05,5.57.12,7.52,0,.05.02.63.02.82,0,.55,0,1.47-1.32,1.47-.75,0-.75-.46-.75-.77,0-.43.1-2.36.1-2.75.12-4.31.14-8.6.14-12.89,0-2.48-.05-3.76-.22-4.87l2.6,1.49h13.03l.82-.87c.17-.17.29-.24.41-.24s.22.05.43.24l1.11,1.01c.14.14.27.31.27.46,0,.22-.39.55-.92.79ZM482.33,61.52h-6.19v8.82h6.19v-8.82ZM490.26,61.52h-6.22v8.82h6.22v-8.82Z"/>
      <path class="cls-1" d="M252.06,110.48c0,5.9-4.79,10.7-10.7,10.7s-10.7-4.77-10.7-10.7,4.84-10.7,10.7-10.7,10.7,4.75,10.7,10.7ZM231.53,110.48c0,5.45,4.43,9.83,9.83,9.83s9.83-4.41,9.83-9.83-4.43-9.83-9.83-9.83-9.83,4.34-9.83,9.83ZM248.78,110.48c0,4.1-3.33,7.42-7.42,7.42s-7.42-3.33-7.42-7.42,3.35-7.42,7.42-7.42,7.42,3.28,7.42,7.42ZM234.81,110.48c0,3.61,2.94,6.55,6.55,6.55s6.55-2.94,6.55-6.55-2.96-6.55-6.55-6.55-6.55,2.89-6.55,6.55Z"/>
      <path class="cls-1" d="M254.23,105.71c2.19-.19,3.78.84,3.78,2.19,0,.72-.51,1.08-1.01,1.08-.58,0-.77-.39-1.08-1.04-.19-.41-.96-1.73-1.71-2.12l.02-.12ZM260.37,106.05c-.17.63-.92,3.57-1.04,3.98-.12.48-1.47,4.63-1.59,5.18-.05.29-.07.6-.07.84,0,.39.1.67.31,1.4.34,1.11.41,1.54.41,1.98,0,1.08-.43,1.59-1.16,1.59-.87,0-1.06-.89-1.06-1.57,0-.34.19-1.81.19-2.19,0-1.18-.05-2.1-1.47-2.72v-.1c.67-.02,1.4-.1,2.19-1.71,1.04-2.1,2.87-5.95,3.16-6.75l.12.07ZM256.3,100.05c3.37.31,3.76,1.93,3.76,2.43,0,.55-.34,1.08-.96,1.08s-.89-.51-1.23-1.25c-.34-.79-.92-1.64-1.54-2.17l-.02-.1ZM263.07,112.75c-.89,0-1.98.07-2.84.24l-.48-.96c1.23.1,2.48.14,3.71.14h2.89c-.05-1.95-.12-2.51-.39-3.45l2.17.6c.19.05.46.19.46.39s-.17.34-.75.63v1.83h4.79l.82-1.35c.1-.14.24-.31.39-.31.19,0,.43.27.46.27l1.28,1.37c.19.19.24.24.24.36,0,.22-.22.24-.36.24h-7.16c1.52,2.02,4.58,4.36,8.38,4.92v.1c-.92.31-1.88.96-2.34,1.85-1.42-.79-4.63-2.7-6.41-6.87h-.1c0,1.01.02,2.05.05,2.99.02.77.19,4.14.19,4.84,0,.77-.72.99-1.25.99-.6,0-.63-.43-.63-.72,0-1.11.14-5.95.14-6.94-1.57,2.63-4.75,5.4-7.04,6.12v-.1c2.67-2.22,5.16-5.52,5.93-7.18h-2.17ZM271.7,101.88l.89-.55c.19-.12.31-.19.39-.19.14,0,.36.14.46.24l1.11.92c.22.17.34.39.34.55,0,.38-.14.46-1.16.51-.41.02-.48.07-1.25.41-.22.1-1.16.51-1.35.6l-.07-.1c.14-.34.65-1.61.7-1.81h-2.17c-.02,1.06-.02,3.57,0,4,.02.51.39.58,1.78.58,1.2,0,1.69-.07,1.88-.34.24-.31.77-1.66,1.04-2.38h.14c.07.94.17,1.93.53,2.19.46.31.55.43.55.65,0,1.35-2.89,1.4-4.46,1.4-2.92,0-3.04-.46-3.04-3.28,0-.46.02-2.31,0-2.82h-2.75l1.3.67c.19.1.43.24.43.41,0,.14-.22.27-.46.36-.34,1.54-1.08,4.65-5.32,5.83v-.12c2.99-2.19,3.78-4.63,3.88-7.16h-2c.12,1.13-.12,3.2-1.49,3.2-.7,0-.96-.58-.96-.92,0-.43.24-.7,1.04-1.69.34-.43.77-1.25.87-2.22h.12c.17.34.27.6.36,1.04h8.67Z"/>
      <path class="cls-1" d="M284.9,109.09c.07.02.39.12.39.36,0,.17-.07.24-.19.31-.17.12-.27.22-.36.29-.07.75-.07,1.37-.07,2.7,0,1.18.12,6.41.12,7.47,0,.99-.84,1.18-1.18,1.18-.72,0-.77-.53-.77-.79,0-.48.14-2.53.17-2.94.05-1.42.07-2.02.1-7.42-1.4,1.86-3.08,3.47-5.13,4.6l-.05-.17c2.12-2.27,4.84-6.02,6.31-9.2.36-.75.36-1.21.36-1.64l2.12,1.13c.14.07.27.19.27.36,0,.24-.1.26-.94.53-1.04,1.71-1.54,2.43-1.95,3.01l.82.22ZM297.02,103.06l.94-1.13c.14-.19.27-.31.39-.31s.27.12.43.24l1.49,1.18c.14.12.22.24.22.36,0,.22-.19.24-.36.24h-17.85c-.43,0-1.66,0-2.84.22l-.48-.94c1.49.1,2.99.14,3.71.14h6.14c0-2.34-.24-3.06-.65-3.86l2.7.58c.19.05.39.07.39.31,0,.1-.07.24-.17.34-.1.1-.48.36-.58.43,0,.34.02,1.88.02,2.19h6.5ZM285.17,120.58c1.45-.82,3.42-1.93,5.76-4.75-1.2-1.54-2.12-3.3-2.46-5.2-1.35,1.54-2.53,2.41-3.37,3.04l-.07-.1c1.86-2.17,5.3-7.52,5.2-9.66l2.02,1.11c.14.07.29.22.29.34,0,.29-.22.36-.96.65-.41.7-.65,1.11-.99,1.64h4.46l.92-.84c.19-.17.29-.26.43-.26.12,0,.24.05.46.22l1.33.99c.14.1.24.26.24.36s-.05.24-.24.39c-.17.12-1.13.39-1.35.46-.41,1.06-1.71,4.22-4.14,7.13,2.29,1.83,5.13,2.72,8.07,2.94v.17c-.75.22-1.49.84-1.95,2.07-1.45-.46-4.24-1.47-6.94-4.31-1.28,1.28-3.59,3.2-6.63,3.76l-.07-.12ZM290.2,108.22c-.65,1.01-1.2,1.73-1.47,2.05.92,2.75,2.31,4.24,2.82,4.77,2.53-3.28,3.16-5.37,3.57-6.82h-4.92ZM290.18,109.13c1.35.22,2.75.92,2.75,2.07,0,.65-.48,1.16-.99,1.16-.63,0-.72-.46-1.04-1.57-.24-.92-.53-1.2-.79-1.47l.07-.19Z"/>
      <path class="cls-1" d="M306.37,108.32c-.22,0-1.71,0-2.82.22l-.48-.96c1.66.14,3.49.17,3.71.17h1.28c.02-1.37,0-2.89-.02-4.29-.02-2.53-.12-3.04-.41-3.98l2.19.65c.22.07.41.19.41.39,0,.1-.02.19-.1.26-.1.1-.39.31-.53.43-.12,3.35-.12,5.08-.12,6.53h1.04l.92-.92c.14-.14.27-.29.39-.29.14,0,.31.12.46.26l1.01.89c.12.1.24.22.24.38,0,.19-.19.24-.36.24h-3.69v1.3c3.04.67,3.3,2.1,3.3,2.38,0,.55-.31.96-.89.96s-.87-.46-1.13-1.04c-.48-1.08-.75-1.49-1.28-1.98,0,4.24.05,6.72.14,8.53.02.22.1,1.52.1,1.64,0,1.13-.87,1.33-1.28,1.33-.34,0-.67-.05-.67-.72,0-.63.22-5.37.27-6.38.02-.96.02-1.35.02-3.18-.99,1.66-3.32,4.53-5.59,6.02l-.14-.19c1.88-1.9,4.43-6.12,5.47-8.67h-1.42ZM303.99,102.17c.84.36,3.11,1.42,3.11,2.79,0,.26-.1,1.13-.96,1.13-.63,0-.77-.46-.96-1.16-.48-1.88-.89-2.24-1.28-2.65l.1-.12ZM313.7,102.17c.14.07.29.24.29.41,0,.34-.6.46-.82.51-1.37,1.66-1.49,1.81-2.94,3.37l-.17-.05c.72-1.45,1.64-3.71,1.64-5.23l2,.99ZM322.2,112.19l.72-1.37c.07-.14.17-.36.34-.36.14,0,.31.07.43.17l1.3.89c.14.1.31.22.31.38s-.12.22-.31.27l-4.41.92c.02.84.1,4.99.12,5.28.02.6.07,1.64.07,1.83,0,1.16-.96,1.28-1.23,1.28-.67,0-.7-.46-.7-.82,0-.26.1-2.1.1-2.51,0-.75.02-4.05.05-4.72l-5.13,1.08c-.7.14-1.78.39-2.72.77l-.67-.82c1.47-.19,2.99-.46,3.66-.6l4.87-.99c.05-11.35-.12-11.88-.51-13.18l2.51.7c.17.05.39.17.39.36,0,.17-.1.24-.24.36-.14.12-.39.29-.55.41-.05.65-.07,1.28-.07,3.83,0,2.05.02,4.55.07,7.18l1.61-.34ZM314.3,107.38c1.64.39,3.06,1.49,3.06,2.6,0,.67-.46.99-.89.99-.75,0-.94-.65-1.04-1.06-.24-.92-.58-1.78-1.2-2.46l.07-.07ZM314.44,101.81c.96.26,3.16,1.13,3.16,2.53,0,.7-.53.99-.96.99-.63,0-.75-.46-.89-.94-.05-.14-.53-1.59-1.37-2.51l.07-.07Z"/>
      <path class="cls-1" d="M347.19,109.3c-5.11-1.95-7.95-5.98-9.13-8.29-2.77,4.26-6.36,8.05-11.13,9.83l-.1-.19c3.06-2.12,5.69-4.82,7.85-7.83.72-1.01,1.81-2.63,1.93-3.64l2.02.94c.17.07.34.22.34.41,0,.34-.29.39-.46.43,2.53,3.4,6.87,5.93,11.01,6.17l.02.22c-1.4.55-1.93,1.13-2.36,1.95ZM347.81,120.07h-16.99c-.6,0-1.76.02-2.84.22l-.48-.96c1.66.14,3.37.17,3.71.17h5.59v-6.67h-4.34c-.24,0-1.73,0-2.84.22l-.48-.96c1.69.14,3.52.17,3.71.17h3.95v-3.47h-.87c-.6,0-1.76.02-2.84.22l-.48-.94c1.66.12,3.35.14,3.71.14h3.18l.94-.92c.19-.17.31-.31.41-.31s.29.17.43.26l1.23.92c.12.1.24.22.24.38,0,.22-.19.24-.36.24h-3.9v3.47h4.51l1.04-1.08c.17-.17.31-.31.41-.31.12,0,.29.14.43.26l1.35,1.08c.14.12.24.22.24.36,0,.24-.19.27-.36.27h-7.61v6.67h5.9l1.18-1.25c.19-.19.29-.29.39-.29.14,0,.31.12.46.24l1.52,1.25c.14.12.24.24.24.38,0,.22-.22.24-.36.24ZM333.82,118.56c-.75,0-.96-.67-1.11-1.28-.29-1.35-.46-2.02-1.23-3.23l.12-.14c1.06.58,3.18,1.76,3.18,3.54,0,.63-.36,1.11-.96,1.11ZM343.21,115.76c-1.86,2.26-3.04,3.16-3.57,3.54l-.19-.12c.77-1.28,1.54-2.96,1.93-3.93.31-.72.34-1.01.36-1.64l2.14,1.3c.22.12.26.22.26.31,0,.36-.41.43-.94.53Z"/>
      <path class="cls-1" d="M357.21,105.74c0,.77-.65,1.4-1.4,1.4s-1.4-.63-1.4-1.4.6-1.4,1.4-1.4,1.4.6,1.4,1.4ZM357.21,115.23c0,.79-.65,1.4-1.4,1.4s-1.4-.6-1.4-1.4c0-.75.6-1.4,1.4-1.4s1.4.63,1.4,1.4Z"/>
      <path class="cls-1" d="M372.63,104.08c.19.1.31.24.31.43,0,.22-.26.36-1.01.51-.31.39-.99,1.18-2.02,2.46-.92,1.11-1.71,2-2.36,2.67.12,0,2.14-.1,3.42-.26-.1-.17-.39-.72-.99-1.37l.12-.14c1.88.72,3.32,1.81,3.32,2.92,0,.46-.26.99-.92.99-.58,0-.82-.29-1.04-1.11-.02-.07-.12-.41-.26-.77l-2.19.48c0,1.04.07,5.98.07,6.43.02.48.1,2.65.1,3.08,0,.63-.55,1.04-1.16,1.04-.51,0-.65-.31-.65-.72,0-.39.1-1.98.1-2.31.02-.77.05-3.13.07-7.2-1.52.34-2.72.6-3.04.67-.14.24-.39.7-.6.7-.24,0-.39-.29-.43-.43l-.53-2.05c.41.1,1.11.17,1.71.17.75,0,1.86-.02,2.24-.05,1.64-2.22,3.11-5.28,3.45-6.24.1-.24.14-.67.14-.96l2.14,1.08ZM363.11,119.93c1.04-2.34,1.73-5.4,1.69-7.04l1.98.72c.17.07.34.22.34.34,0,.17-.14.29-.77.53-.77,2.24-1.47,3.59-3.11,5.52l-.12-.07ZM364.03,104.1c.67.17,1.47.38,2.07.67.67-1.35,1.73-3.97,1.59-5.4l2.29,1.13c.19.1.29.24.29.36,0,.36-.36.43-.92.53-1.13,1.45-1.3,1.66-2.94,3.54.7.43,1.42,1.08,1.42,1.9,0,.55-.36,1.16-.99,1.16-.55,0-.7-.29-1.23-1.47-.55-1.25-1.11-1.78-1.61-2.29l.02-.14ZM369.72,113.28c.99.43,3.4,1.52,3.4,3.16,0,.77-.55,1.18-1.06,1.18-.65,0-.77-.48-1.08-1.59-.34-1.25-.79-1.95-1.33-2.65l.07-.1ZM381.23,105.5l.72-.67c.12-.12.27-.27.34-.27.1,0,.27.14.34.22l1.16.99c.12.1.22.24.22.36,0,.17-.46.51-.89.82-.15,6.67-.19,9.66-1.47,12.12-.89,1.71-2.41,2.34-3.73,2.36-.19-1.13-.94-1.88-2.19-2.72l.02-.14c1.11.22,2.58.48,3.2.48,2.43,0,2.55-7.95,2.55-10.43,0-.41-.02-2.12-.02-2.53h-6.51c-1.18,2.24-2,3.06-2.36,3.45l-.14-.1c1.78-3.54,2.6-7.61,2.6-8.87,0-.24-.07-.7-.12-.92l2.6,1.11c.12.05.27.17.27.34,0,.24-.36.41-.94.67-.27.77-.7,1.98-1.59,3.74h5.95ZM374.66,110.1c2.29.94,3.42,1.71,3.42,3.01,0,.58-.29,1.13-.96,1.13-.63,0-.82-.26-1.35-1.93-.19-.63-.65-1.45-1.21-2.07l.1-.14Z"/>
      <path class="cls-1" d="M387.96,118.87h1.33c1.25,0,1.69-.48,1.69-1.47v-13.04c0-.75-.7-.87-1.16-.87h-1.83v-.75h.43c1.86,0,3.64-.84,3.93-1.01.17-.1.24-.14.34-.14.22,0,.27.14.27.34v15.47c0,1.04.51,1.47,1.69,1.47h1.33v.77h-8v-.77Z"/>
      <path class="cls-1" d="M398.94,122.07c.65-.48,1.13-1.11,1.13-1.59,0-.1-.02-.34-.22-.41-.63-.29-1.04-.63-1.04-1.37s.63-1.4,1.37-1.4c.79,0,1.42.63,1.42,1.37,0,1.78-1.69,3.25-2.29,3.76l-.39-.36Z"/>
      <path class="cls-1" d="M405.06,103.96l-.22,6.07c1.04-.92,1.95-1.66,3.73-1.66,3.47,0,5.13,2.87,5.13,5.52,0,3.49-2.77,6.22-5.95,6.22-2.75,0-4.55-2.05-4.55-3.54,0-.92.58-1.49,1.4-1.49.72,0,1.25.48,1.25,1.25,0,.24-.02.34-.12.72-.05.19-.07.53-.07.67,0,1.04,1.08,1.57,2.05,1.57,1.95,0,3.78-1.86,3.78-5.08,0-3.06-1.61-4.75-3.37-4.75-.96,0-2.43.53-3.76,2.1l-.36-.19.36-9.3h8.38l-.48,1.9h-7.2Z"/>
      <path class="cls-1" d="M420.51,120.1c-1.66,0-3.06-1.16-3.95-2.6-1.01-1.66-1.47-4.63-1.47-6.87,0-5.13,2.19-9.04,5.42-9.04,2.48,0,5.42,2.67,5.42,9.25,0,5.9-2.48,9.25-5.42,9.25ZM417.81,105.62c-.34,1.21-.55,3.23-.55,5.23,0,5.37,1.28,8.43,3.25,8.43,1.66,0,2.41-2.22,2.67-3.13.34-1.23.58-3.28.58-5.3,0-5.49-1.33-8.43-3.25-8.43-1.71,0-2.46,2.36-2.7,3.2Z"/>
      <path class="cls-1" d="M432.56,120.1c-1.66,0-3.06-1.16-3.95-2.6-1.01-1.66-1.47-4.63-1.47-6.87,0-5.13,2.19-9.04,5.42-9.04,2.48,0,5.42,2.67,5.42,9.25,0,5.9-2.48,9.25-5.42,9.25ZM429.86,105.62c-.34,1.21-.55,3.23-.55,5.23,0,5.37,1.28,8.43,3.25,8.43,1.66,0,2.41-2.22,2.67-3.13.34-1.23.58-3.28.58-5.3,0-5.49-1.33-8.43-3.25-8.43-1.71,0-2.46,2.36-2.7,3.2Z"/>
      <path class="cls-1" d="M458.87,102.82c-.02.84-.05,2.41-.05,4.34,0,2.99.19,7.76.19,10.72,0,1.33,0,3.01-3.11,3.33-.07-.8-.22-1.37-2.24-2.58l.02-.17c1.25.22,2.36.22,2.58.22.72,0,.87-.22.87-1.16v-6.12h-14.12c.05,5.01.05,5.57.12,7.52,0,.05.02.63.02.82,0,.55,0,1.47-1.33,1.47-.75,0-.75-.46-.75-.77,0-.43.1-2.36.1-2.75.12-4.31.14-8.6.14-12.89,0-2.48-.05-3.76-.22-4.87l2.6,1.49h13.03l.82-.87c.17-.17.29-.24.41-.24s.22.05.43.24l1.11,1.01c.14.14.27.31.27.46,0,.22-.39.55-.92.79ZM449.21,102h-6.19v8.82h6.19v-8.82ZM457.13,102h-6.22v8.82h6.22v-8.82Z"/>
    </g>
  </g>
</svg>