<svg id="taxi-txt05-sp" xmlns="http://www.w3.org/2000/svg" width="335" height="134.972" viewBox="0 0 335 134.972">
  <g id="グループ_111" data-name="グループ 111">
    <rect id="長方形_61" data-name="長方形 61" width="335" height="74" fill="#231815"/>
    <g id="グループ_110" data-name="グループ 110" transform="translate(17.755 15.596)">
      <g id="グループ_115" data-name="グループ 115">
        <path id="パス_270" data-name="パス 270" d="M29.588,26.722V47.685H28.62v-22h7.624v1.042H29.582Z" transform="translate(-28.62 -25.345)" fill="#fff"/>
        <path id="パス_271" data-name="パス 271" d="M52.17,37.923A39.151,39.151,0,0,1,47.505,43.2c-.068.534-.136.893-.5.893-.161,0-.3-.168-.366-.267L45.03,41.769c.757.025,1.427.05,7.029-3.964ZM48.585,29a15.012,15.012,0,0,0-2.711.217l-.434-.968c1.172.1,2.345.167,3.517.167h3.629l.732-.651c.186-.167.273-.217.391-.217s.323.167.416.242l.893.751a.565.565,0,0,1,.23.409c0,.242-.068.292-.738.825-.025.676,0,12.86,0,14.337,0,.968,0,3.1-3.009,3.53a4.484,4.484,0,0,0-2.159-2.419l.025-.192a9.674,9.674,0,0,0,1.811.118c1.47,0,1.563-.05,1.607-.751.025-.267.093-11.191.093-11.291,0-1.718-.025-3.455-.043-4.107h-4.25Zm-1.929,3.071c2.345.434,3.561,1.96,3.561,2.928a1.037,1.037,0,0,1-.986,1.11c-.664,0-.85-.459-1.334-1.644a7.148,7.148,0,0,0-1.309-2.3l.068-.1ZM62,37.848c-1.148,1.476-3.356,3.8-4.436,4.957-.068.292-.118.751-.416.751-.136,0-.254-.143-.347-.267l-1.5-2.078c.918-.05,1.861-.118,6.57-3.48l.118.118Zm-2.941-8.772a14.744,14.744,0,0,0-2.686.217l-.459-.968c1.173.1,2.345.167,3.536.167h2.941l.577-.676a.477.477,0,0,1,.366-.167.632.632,0,0,1,.347.167l.986.8a.377.377,0,0,1,.186.341c0,.217-.136.341-.713.844v3.58c0,1.743.093,9.38.093,10.95,0,1.259,0,2.711-3.034,3.555-.112-.459-.323-1.185-2.115-2.513l.025-.118c.5.025,1.7.1,2.481.1s.943-.217.943-1.042c0-2.419.025-13.2,0-15.23H59.069ZM56.7,31.756c1.607.36,3.747,1.3,3.747,2.854a1.042,1.042,0,0,1-.986,1.11c-.577,0-.713-.242-1.309-1.545a12.22,12.22,0,0,0-1.47-2.3l.025-.124Z" transform="translate(-34.85 -26.055)" fill="#fff"/>
        <path id="パス_272" data-name="パス 272" d="M99.258,28.9l.645-.627c.136-.124.2-.267.347-.267s.23.1.347.167l1.241.968c.136.124.254.217.254.409,0,.341-.757.7-.968.8-.068,2.37-.025,9.306.093,13.251,0,.36.136,2.078.136,2.419a1.221,1.221,0,0,1-1.309,1.259c-.738,0-.689-.434-.645-1.4h-13c0,.143,0,.869-.025.968a1.285,1.285,0,0,1-1.241.751.621.621,0,0,1-.689-.676c0-.292.068-1.526.068-1.787.093-3.505.161-7.01.161-10.49a39.776,39.776,0,0,0-.323-6.985l2.184,1.259h12.73Zm-12.866.577v7.494h5.627V29.478H86.391Zm0,8.077v7.736h5.627V37.555Zm13-.583V29.478H93.606v7.494Zm0,8.319V37.555H93.606v7.736Z" transform="translate(-49.777 -26.097)" fill="#fff"/>
        <path id="パス_273" data-name="パス 273" d="M138.163,46.319H121.32a15.8,15.8,0,0,0-2.711.217l-.459-.968a33.729,33.729,0,0,0,3.536.168h5.788V40.028H123.5a15.2,15.2,0,0,0-2.711.217l-.459-.968c1.811.143,3.127.168,3.536.168h8.89l.986-1.16c.186-.192.273-.316.366-.316.136,0,.323.167.434.267L135.9,39.4a.538.538,0,0,1,.23.36c0,.242-.23.267-.366.267H129.1V45.73h5.925l1.011-1.284c.118-.143.2-.292.347-.292.093,0,.2.025.434.242l1.445,1.284c.093.074.254.192.254.36,0,.242-.23.267-.366.267Zm-.806-10.155a49.034,49.034,0,0,1-5.745.217c-2.345,0-2.345-.6-2.345-3,0-.534-.025-3.238-.025-3.846h-7.488c-.3,2.7-2.066,2.7-2.134,2.7a.893.893,0,0,1-.918-.869c0-.6.434-.893,1.216-1.427a3.009,3.009,0,0,0,1.539-2.177h.186a2.337,2.337,0,0,1,.161,1.185h5.788a11.062,11.062,0,0,0-.416-3.555l2.184.577c.186.05.5.124.5.434a.418.418,0,0,1-.161.335c-.093.074-.459.316-.527.385v1.811H134.6l.893-.775c.186-.143.273-.242.484-.242a.5.5,0,0,1,.391.217l1.4,1.3a.694.694,0,0,1,.186.459c0,.434-.323.484-1.241.558-.366.242-2,1.377-2.345,1.594l-.118-.124a22.933,22.933,0,0,0,.509-2.419h-3.908a43.076,43.076,0,0,0,.136,5.05,7.1,7.1,0,0,0,2.252.217c.806,0,2.55,0,2.965-.434a6.379,6.379,0,0,0,1.011-2.562h.186c.366,1.57.5,2.177.806,2.395a.877.877,0,0,1,.459.775c0,.7-.825,1.086-1.309,1.185ZM126.63,31.591a10.008,10.008,0,0,1-7.649,6.042l-.093-.192c5.056-2.661,6.179-6.26,6.365-7.81l1.9,1.042c.23.124.3.217.3.36,0,.292-.068.316-.825.558Z" transform="translate(-62.608 -25.239)" fill="#fff"/>
        <path id="パス_274" data-name="パス 274" d="M156.865,35.021c-.552,0-.689-.242-1.427-1.743a6.233,6.233,0,0,0-1.148-1.57l.025-.143c.825.124,3.4.775,3.4,2.419,0,.409-.2,1.042-.85,1.042Zm1.1,4.032a8.852,8.852,0,0,0-.416,2.3,9.679,9.679,0,0,0,.3,2.153,10.384,10.384,0,0,1,.416,2.153c0,.676-.3,1.352-1.011,1.352-1.079,0-1.079-1.21-1.079-1.743,0-.316.068-1.644.068-1.911a2.522,2.522,0,0,0-1.539-2.661v-.143a2.092,2.092,0,0,0,1.514-.726c.509-.7,3.1-8.462,3.288-9.163l.186.074C159.464,32.738,159.3,33.4,157.969,39.053Zm.62-9.74c-.689,0-.893-.558-1.4-1.718a8.8,8.8,0,0,0-.986-1.743l.043-.124c.434.1,3.288.943,3.288,2.488a.986.986,0,0,1-.943,1.086Zm16.216,9.914a3.9,3.9,0,0,0-.943,1.3c-2.457-1.017-4.913-4.088-5.745-6.26h-2.941a18.672,18.672,0,0,1-2.413,3.48c1.632.143,3.195.167,3.468.167h1.148l.416-.434c.161-.167.273-.335.434-.335.136,0,.323.167.416.242l.757.627c.136.124.273.242.273.409,0,.267-.118.36-.527.751.025.36.093,1.96.093,2.271,0,.484,0,.775-.23.968a1.768,1.768,0,0,1-.875.316c-.459,0-.484-.341-.484-.558h-3.034c-.136,3.238.025,3.238,1.266,3.238,3.859,0,4.733,0,5.236-.509.527-.534.757-1.526,1.2-3.214h.112a10.722,10.722,0,0,0,.713,2.854c.093.143.112.143.366.36.112.1.186.168.186.316,0,.1,0,.7-.986,1.21-1.148.583-3.424.583-4.64.583-4.367,0-4.988-.143-5.006-1.911,0-1.5-.025-3.846-.136-4.547l2.115,1.042h2.643V38.5h-1.811a13.169,13.169,0,0,0-2.686.217l-.434-.943a17.228,17.228,0,0,1-4.181,3.772L158.5,41.4a26.8,26.8,0,0,0,4.777-7.134,16.029,16.029,0,0,0-2.916.217l-.459-.968c1.2.1,1.427.118,3.468.167V29.58a12.985,12.985,0,0,0-2.364.217l-.459-.968c.5.05,1.334.124,2.823.143a11.923,11.923,0,0,0-.391-3.722l2.115.651c.273.1.434.192.434.36,0,.267-.2.434-.664.775.025.509.025.651,0,1.96h2.941a10.378,10.378,0,0,0-.416-3.629l2.184.6c.254.074.434.217.434.341,0,.292-.366.583-.664.775-.025.316-.025,1.644-.025,1.911h1.309l.738-1.042c.093-.118.2-.316.347-.316s.323.192.434.292l1.011,1.017c.136.118.23.217.23.36,0,.242-.186.267-.347.267h-3.722v4.107h2.55l.782-1.086c.112-.167.2-.316.341-.316a.681.681,0,0,1,.434.267l1.1,1.086a.677.677,0,0,1,.23.36c0,.242-.2.267-.341.267h-5.856a9.792,9.792,0,0,0,7.122,4.231v.143c-.136.1-.757.484-.875.583Zm-7-9.647h-2.941v4.107H167.8C167.8,33.1,167.826,30.232,167.8,29.58Z" transform="translate(-76.328 -25.182)" fill="#fff"/>
        <path id="パス_275" data-name="パス 275" d="M202.365,29.321h-4c1.266.844,1.886,1.259,1.886,2.153a.964.964,0,0,1-.875,1.061c-.645,0-.689-.36-.85-1.427a6.222,6.222,0,0,0-.5-1.787h-1.011a13.658,13.658,0,0,1-4.045,4.181l-.093-.124a30.5,30.5,0,0,0,4-6.936,3.645,3.645,0,0,0,.136-1.3l2.115,1.16a.341.341,0,0,1,.2.316c0,.242-.347.36-.918.558-.3.459-.893,1.377-1.011,1.57h2.575l.689-.893c.118-.143.254-.316.347-.316.118,0,.254.118.434.267l1.036.893a.572.572,0,0,1,.23.36c0,.217-.2.267-.347.267ZM211.578,40.2c-.645,3.17-.968,4.857-4.156,5.248a3.925,3.925,0,0,0-1.743-2.562l.025-.143a15.6,15.6,0,0,0,2.593.409c.713,0,1.359-.217,1.725-3.53h-6.688c.025.844.068,4.982.093,5.925,0,.124.043.825.043.993a1.041,1.041,0,0,1-1.129,1.017c-.3,0-.62-.1-.62-.726,0-1.185.112-5.2.136-6.458a19.548,19.548,0,0,1-8.592,6.309l-.043-.192a30.044,30.044,0,0,0,7.283-6.868h-4.547c-.273,1.11-.391,1.545-1.173,1.545-.527,0-.806-.192-.806-.583,0-.074.254-.819.416-1.259a13.208,13.208,0,0,0,.962-4.572l1.861,1.11H201.9c0-.217-.025-2.01-.025-2.395h-3.468a14.354,14.354,0,0,0-2.711.242l-.459-.968c1.123.1,2.413.143,3.536.143h9.306l.62-.627a.382.382,0,0,1,.254-.143.586.586,0,0,1,.323.143l1.079.869c.068.074.186.143.186.292,0,.217-.254.409-.738.751,0,.36.093,2.029.093,2.271,0,.825-.918.918-1.079.918-.6,0-.577-.534-.552-.918h-4.938v2.587h6.526l.806-.869c.093-.1.2-.242.3-.242s.254.143.347.242l1.055,1.017a.413.413,0,0,1,.161.292c0,.316-.366.434-.943.726Zm-9.672-3.747h-5.149c-.23.751-.254.943-.645,2.587H201.9V36.449Zm10.546-6.886h-6.688c1.725.7,2.388.993,2.388,2a.83.83,0,0,1-.825.893c-.577,0-.664-.36-1.036-1.427a4.847,4.847,0,0,0-.893-1.476h-.875a12.441,12.441,0,0,1-2.686,3l-.112-.1c1.445-2.562,2.779-5.124,2.711-7.227l2.227,1.061a.326.326,0,0,1,.2.292c0,.242-.323.409-.986.627a18.837,18.837,0,0,1-.986,1.762h4.845l.757-1.135c.093-.143.2-.292.347-.292a.764.764,0,0,1,.434.242l1.284,1.135a.538.538,0,0,1,.23.36c0,.217-.186.267-.347.267Zm-4.163,3.915h-4.963v2.395h4.963Z" transform="translate(-90.978 -25.14)" fill="#fff"/>
        <path id="パス_276" data-name="パス 276" d="M230.12,46.213h1.266c1.2,0,1.607-.484,1.607-1.476V31.659c0-.751-.664-.869-1.1-.869h-1.743V30.04h.416a8.479,8.479,0,0,0,3.747-1.017c.161-.1.23-.143.323-.143.2,0,.254.143.254.341V44.743c0,1.042.484,1.476,1.607,1.476h1.266v.775h-7.624v-.775Z" transform="translate(-105.115 -26.56)" fill="#fff"/>
        <path id="パス_277" data-name="パス 277" d="M253.666,44a1.938,1.938,0,0,1,0-3.871,1.938,1.938,0,0,1,0,3.871Z" transform="translate(-113.357 -30.831)" fill="#fff"/>
        <path id="パス_278" data-name="パス 278" d="M276.412,29.321h-4c1.266.844,1.886,1.259,1.886,2.153a.964.964,0,0,1-.875,1.061c-.645,0-.689-.36-.85-1.427a5.927,5.927,0,0,0-.509-1.787h-1.011a13.657,13.657,0,0,1-4.045,4.181l-.093-.124a30.506,30.506,0,0,0,4-6.936,3.645,3.645,0,0,0,.136-1.3l2.115,1.16a.341.341,0,0,1,.2.316c0,.242-.347.36-.918.558-.3.459-.893,1.377-1.011,1.57h2.575l.689-.893c.118-.143.254-.316.347-.316.118,0,.254.118.434.267l1.036.893a.572.572,0,0,1,.23.36c0,.217-.2.267-.341.267ZM285.624,40.2c-.645,3.17-.962,4.857-4.156,5.248a3.926,3.926,0,0,0-1.743-2.562l.025-.143a15.6,15.6,0,0,0,2.593.409c.713,0,1.359-.217,1.725-3.53h-6.688c.025.844.068,4.982.093,5.925,0,.124.043.825.043.993a1.039,1.039,0,0,1-1.123,1.017c-.3,0-.62-.1-.62-.726,0-1.185.112-5.2.136-6.458a19.548,19.548,0,0,1-8.592,6.309l-.043-.192a30.156,30.156,0,0,0,7.283-6.868h-4.547c-.273,1.11-.391,1.545-1.173,1.545-.527,0-.806-.192-.806-.583,0-.074.254-.819.416-1.259a13.207,13.207,0,0,0,.962-4.572l1.861,1.11h4.684c0-.217-.025-2.01-.025-2.395H272.46a14.353,14.353,0,0,0-2.711.242l-.459-.968c1.123.1,2.413.143,3.536.143h9.306l.62-.627a.382.382,0,0,1,.254-.143.586.586,0,0,1,.323.143l1.079.869c.068.074.186.143.186.292,0,.217-.254.409-.738.751,0,.36.093,2.029.093,2.271,0,.825-.918.918-1.079.918-.6,0-.577-.534-.552-.918h-4.938v2.587h6.526l.806-.869c.093-.1.2-.242.3-.242s.254.143.347.242l1.055,1.017a.413.413,0,0,1,.161.292c0,.316-.366.434-.943.726Zm-9.672-3.747H270.81c-.23.751-.254.943-.645,2.587h5.788V36.449ZM286.5,29.563h-6.688c1.725.7,2.388.993,2.388,2a.83.83,0,0,1-.825.893c-.577,0-.664-.36-1.036-1.427a4.847,4.847,0,0,0-.893-1.476h-.875a12.441,12.441,0,0,1-2.686,3l-.112-.1c1.445-2.562,2.779-5.124,2.711-7.227l2.227,1.061a.326.326,0,0,1,.2.292c0,.242-.323.409-.986.627a18.84,18.84,0,0,1-.986,1.762h4.845l.757-1.135c.093-.143.2-.292.347-.292a.764.764,0,0,1,.434.242l1.284,1.135a.517.517,0,0,1,.23.36c0,.217-.186.267-.347.267Zm-4.156,3.915h-4.963v2.395h4.963Z" transform="translate(-119.086 -25.14)" fill="#fff"/>
        <path id="パス_279" data-name="パス 279" d="M311.056,46.989H302.03v-.651a16.5,16.5,0,0,1,3.375-5.416c3.375-4.113,4.529-5.49,4.529-7.9a3.043,3.043,0,0,0-3.058-3.313c-1.607,0-2.575,1.017-2.575,1.886a1.394,1.394,0,0,0,.23.751,2.155,2.155,0,0,1,.484,1.21,1.311,1.311,0,0,1-1.241,1.352c-.806,0-1.309-.8-1.309-1.694a4.692,4.692,0,0,1,4.938-4.33,4.3,4.3,0,0,1,4.6,4.5c0,2.444-1.334,3.772-3.4,5.633-.782.676-3.815,3.412-4.963,6.067h3.17c3.214,0,3.977-1.3,4.665-3.313l.689.267-1.1,4.957Z" transform="translate(-132.415 -26.56)" fill="#fff"/>
        <path id="パス_280" data-name="パス 280" d="M335.219,33.094c-.459.192-.62.341-1.377,1.911-3.536,7.227-7.1,10.54-12.153,12.041l-.068-.167a25.594,25.594,0,0,0,7.9-7.277c-.23-.025-.484-.242-.893-.726-1.588-1.911-1.818-2.177-3.058-2.9a12.971,12.971,0,0,1-3.834,3.145l-.068-.143c2.9-2.947,5.652-7.928,5.652-8.871,0-.8-.893-1.16-1.352-1.352a2.4,2.4,0,0,1,1.148-.292,2.845,2.845,0,0,1,2.55,1.694c0,.267-.043.316-.577.8a8.105,8.105,0,0,0-.62.893c.161,0,.391.025.825.025a16.266,16.266,0,0,0,3.766-.558,5.17,5.17,0,0,1,.962-.583,5.293,5.293,0,0,1,1.793,1.886c0,.242-.093.267-.6.484ZM329.2,33.02c-.186,0-.434,0-1.2-.459a38.019,38.019,0,0,1-2.209,3.12c1.284.167,4.225.775,4.367,2.947a27.985,27.985,0,0,0,2.916-6.166c-.62.074-3.356.558-3.884.558Z" transform="translate(-139.851 -26.4)" fill="#fff"/>
        <path id="パス_281" data-name="パス 281" d="M365.836,42.549c-.2,0-.757-.05-.806-.05a21.168,21.168,0,0,0-2.593-.1c-7,0-9.076.143-10.106.434-.068.025-.806.217-.875.217-.6,0-1.836-1.545-1.836-2.661a2.927,2.927,0,0,1,.279-1.16c.782,1.836,1.5,1.836,3.884,1.836,1.588,0,9.051-.025,10.106-.292.137-.025.806-.217.943-.217s2.432.267,2.432,1.21c0,.751-1.148.775-1.427.775Z" transform="translate(-150.481 -30.489)" fill="#fff"/>
        <path id="パス_282" data-name="パス 282" d="M392.655,46.967c-.347,0-.552-.124-1.359-.918a14.739,14.739,0,0,0-5.788-3.673c-1.309-.534-2.227-.844-3.238-1.185,5.515-.192,11.117,2.562,11.117,4.907A.8.8,0,0,1,392.655,46.967Zm-.713-13.443c-.273,0-.391-.074-1.309-.726a21.737,21.737,0,0,0-7.351-3.263,15.047,15.047,0,0,1,1.607-.074c2.575,0,7.7.993,7.7,3.288A.732.732,0,0,1,391.942,33.523Zm-.571,5.559c-.323,0-.416-.1-1.309-.775a22.412,22.412,0,0,0-6.154-2.9,7.558,7.558,0,0,1,1.1-.05c.323,0,6.985.074,6.985,2.972,0,.025,0,.751-.62.751Z" transform="translate(-162.876 -26.78)" fill="#fff"/>
        <path id="パス_283" data-name="パス 283" d="M421.281,35.861c-.186,0-2.022-.316-2.3-.36a11.612,11.612,0,0,0-2.115-.143c-1.216,0-1.954.05-2.506.1a29.679,29.679,0,0,1-.757,5.658,9.706,9.706,0,0,1-6.3,6.843l-.043-.192c4.02-2.854,5.286-7.035,5.583-12.184-1.377.143-4.5.6-5.422,1.185-.459.292-.509.335-.782.335a3.054,3.054,0,0,1-2.277-2.854,3.968,3.968,0,0,1,.068-.751,2.624,2.624,0,0,0,2.345,1.545,11.677,11.677,0,0,0,1.582-.118c.713-.074,3.859-.385,4.5-.459a24.809,24.809,0,0,0-.161-4.4c-.161-.627-.738-.893-1.818-1.21a2.4,2.4,0,0,1,1.539-.627c.943,0,2.55.651,2.55,1.452a5.233,5.233,0,0,1-.391,1.042,23.538,23.538,0,0,0-.161,2.512c0,.627-.025.825-.025,1.11.416-.025,3.977-.217,4.02-.242.254-.05,1.266-.36,1.427-.36.093,0,2.3.316,2.3,1.377,0,.751-.577.751-.875.751Z" transform="translate(-171.266 -26.313)" fill="#fff"/>
        <path id="パス_284" data-name="パス 284" d="M442.386,34.147c-.043.558-.23,3.046-.273,3.555-.6,5.2-3.561,7.953-5.515,8.8l-.118-.143c4.25-4.206,4.25-9.43,4.25-11.458s-.025-2.01-1.768-2.488a2.6,2.6,0,0,1,1.514-.627c.6,0,2.159.534,2.159,1.21,0,.192-.23.993-.254,1.16Zm5.583,9.988a6.725,6.725,0,0,0-1.445,1.352c-.112.118-.323.36-.459.36-.434,0-1.47-1.985-1.47-2.3,0-.167.273-.893.3-1.061a40.748,40.748,0,0,0,.2-4.808c0-.893-.025-5.366-.137-5.949-.093-.434-.552-.751-1.656-1.135a2.45,2.45,0,0,1,1.284-.509c.689,0,2.481.726,2.481,1.452a12.367,12.367,0,0,1-.323,1.377c-.229,1.235-.341,8-.341,9.479,0,.1,0,.409.161.409.552,0,4.709-2.779,8.319-7.618l.186.143a21.966,21.966,0,0,1-7.1,8.8Z" transform="translate(-183.456 -27.019)" fill="#fff"/>
        <path id="パス_285" data-name="パス 285" d="M469.25,47.368V46.326h6.663V25.37h.962v22Z" transform="translate(-195.896 -25.227)" fill="#fff"/>
        <path id="パス_286" data-name="パス 286" d="M488.037,45.98c-.484,0-.757-.36-.757-.893a27.319,27.319,0,0,1,.875-2.779,3.211,3.211,0,0,0,.043-1.042l.2-.025a5.518,5.518,0,0,1,.85,2.879C489.253,44.77,489.067,45.98,488.037,45.98Zm8.48-7.035a22.1,22.1,0,0,1-1.4,6.675,3.357,3.357,0,0,1-2.481,2,3.381,3.381,0,0,0-1.886-2.395l.043-.167a11.584,11.584,0,0,0,2.227.267c.459,0,.645-.05.893-.627a20.762,20.762,0,0,0,1.011-6.309H489.8c.025.385-.025,1.185-.986,1.185-.459,0-.577-.242-.577-.651,0-.143.043-.726.043-.844.093-1.526.112-5.732.112-7.395a27.207,27.207,0,0,0-.23-4.014l1.725.893h4.274l.552-.7c.161-.192.273-.316.391-.316.136,0,.254.118.459.267l.893.7a.606.606,0,0,1,.254.385c0,.167-.2.242-.366.242h-3.17v2.8h.986l.434-.583c.186-.242.254-.341.366-.341s.254.124.459.267l.738.583a.547.547,0,0,1,.254.385c0,.217-.2.267-.366.267h-2.872V34.3h1.011l.552-.676c.161-.192.254-.292.366-.292.136,0,.23.074.416.242l.689.676a.59.59,0,0,1,.2.385c0,.143-.136.242-.347.242h-2.9V37.81h1.539l.6-.7c.137-.167.254-.292.366-.292s.254.1.459.316l.893.869a.463.463,0,0,1,.161.316c0,.292-.527.558-.689.627Zm-5.813,6c-.757,0-.757-1.017-.757-1.526a6.84,6.84,0,0,0-.254-2.661l.136-.074c.161.192.986,1.061,1.1,1.284a3.613,3.613,0,0,1,.645,1.861,1.039,1.039,0,0,1-.875,1.11Zm1.1-16.806h-2.022v2.8h2.022Zm0,3.387h-2.022V34.3h2.022Zm0,3.356h-2.022V37.81h2.022Zm.8,8.487c-.6,0-.664-.409-.85-1.787a7.052,7.052,0,0,0-.434-1.768l.093-.074c1.216,1.11,1.9,1.762,1.9,2.7,0,.409-.23.918-.713.918Zm1.29-1.787c-.459,0-.552-.385-.806-1.352a3.142,3.142,0,0,0-.527-1.11l.136-.143c1.079.534,1.768,1.042,1.768,1.836,0,.385-.2.775-.577.775ZM509.1,46.03a3.412,3.412,0,0,0-2.184,1.427c-2.575-2.2-4.479-6.359-4.479-12.066h-2.457c-.23,5.949-1.352,9.6-4.709,12.134l-.118-.1c3.214-3.673,3.331-10.422,3.331-15.447a23.391,23.391,0,0,0-.391-5.124l2.184,1.017h4.733l.664-.676a.555.555,0,0,1,.366-.217c.112,0,.2.05.391.217l.918.825a.511.511,0,0,1,.2.385c0,.167-.434.509-.713.7-.025.409-.043.869-.043,1.526,0,.775.136,4.156.136,4.907a1.014,1.014,0,0,1-1.079.968c-.738,0-.689-.534-.664-1.11h-2.345c.527,5.273,3.834,9.454,6.272,10.49l-.025.143Zm-3.884-17.575h-5.1c-.025.918-.118,5.366-.118,6.359h5.217Z" transform="translate(-202.741 -25.675)" fill="#fff"/>
      </g>
      <g id="グループ_114" data-name="グループ 114" transform="translate(171.818 30.038)">
        <path id="パス_287" data-name="パス 287" d="M532.979,47.04a12.738,12.738,0,0,1,0-19.48l.174.279a13.645,13.645,0,0,0-3.635,9.461,13.613,13.613,0,0,0,3.635,9.461Z" transform="translate(-528.45 -27.56)" fill="#fff"/>
        <path id="パス_288" data-name="パス 288" d="M548.211,31.654h-3.325c1.055.707,1.57,1.048,1.57,1.793a.807.807,0,0,1-.726.887c-.534,0-.571-.3-.707-1.185a4.908,4.908,0,0,0-.422-1.489h-.844a11.388,11.388,0,0,1-3.362,3.48l-.074-.1a25.5,25.5,0,0,0,3.325-5.776,2.987,2.987,0,0,0,.112-1.086l1.762.968a.283.283,0,0,1,.174.261c0,.2-.285.3-.763.465-.248.385-.744,1.148-.844,1.309h2.14l.571-.744c.093-.124.211-.261.285-.261.093,0,.211.1.366.223l.862.744a.5.5,0,0,1,.192.3c0,.18-.174.223-.285.223Zm7.668,9.057c-.534,2.637-.8,4.045-3.462,4.367a3.281,3.281,0,0,0-1.452-2.134l.019-.124a12.822,12.822,0,0,0,2.159.341c.6,0,1.129-.18,1.433-2.941h-5.565c.019.707.056,4.144.074,4.932,0,.1.037.682.037.825a.863.863,0,0,1-.937.844c-.248,0-.515-.081-.515-.6,0-.986.093-4.324.118-5.372a16.284,16.284,0,0,1-7.153,5.255l-.037-.161a25.092,25.092,0,0,0,6.061-5.714h-3.784c-.23.924-.323,1.29-.974,1.29-.44,0-.67-.161-.67-.484,0-.062.211-.682.341-1.048a10.974,10.974,0,0,0,.8-3.8l1.551.924h3.9c0-.18-.019-1.669-.019-1.991h-2.885a12.135,12.135,0,0,0-2.258.2l-.385-.806c.937.081,2.01.118,2.947.118h7.742l.515-.521a.328.328,0,0,1,.211-.124.462.462,0,0,1,.267.124l.9.726c.056.062.155.118.155.242,0,.18-.211.341-.614.627,0,.3.074,1.687.074,1.892,0,.682-.763.763-.9.763-.5,0-.478-.44-.459-.763h-4.113v2.153h5.428l.67-.726c.074-.081.174-.2.248-.2s.211.118.285.2l.881.844a.361.361,0,0,1,.136.242c0,.261-.3.36-.782.6Zm-8.052-3.12h-4.281c-.192.62-.211.782-.534,2.153h4.82V37.591Zm8.778-5.732H551.04c1.433.583,1.991.825,1.991,1.669a.69.69,0,0,1-.689.744c-.478,0-.552-.3-.862-1.185a3.975,3.975,0,0,0-.744-1.228h-.726a10.425,10.425,0,0,1-2.24,2.494l-.093-.081c1.2-2.134,2.314-4.268,2.258-6.018l1.855.887a.272.272,0,0,1,.174.242c0,.2-.267.341-.825.521a14.694,14.694,0,0,1-.825,1.47h4.032l.633-.943c.074-.124.174-.242.285-.242a.632.632,0,0,1,.36.2l1.073.949a.442.442,0,0,1,.192.3c0,.18-.155.223-.285.223Zm-3.462,3.257h-4.132v1.991h4.132Z" transform="translate(-532.956 -27.795)" fill="#fff"/>
        <path id="パス_289" data-name="パス 289" d="M571.31,45.714h1.055c.993,0,1.34-.4,1.34-1.228V33.6c0-.62-.552-.726-.918-.726h-1.452v-.62h.341a7.151,7.151,0,0,0,3.114-.844c.136-.081.192-.118.267-.118.174,0,.211.118.211.279V44.491c0,.862.4,1.228,1.34,1.228h1.055v.645h-6.346V45.72Z" transform="translate(-544.721 -28.976)" fill="#fff"/>
        <path id="パス_290" data-name="パス 290" d="M597.156,34.8c-.385.161-.515.279-1.148,1.588C593.061,42.4,590.1,45.159,585.9,46.412l-.056-.143a21.289,21.289,0,0,0,6.576-6.055c-.192-.019-.4-.2-.744-.6a7.774,7.774,0,0,0-2.544-2.413,10.849,10.849,0,0,1-3.195,2.618l-.056-.118c2.407-2.457,4.7-6.6,4.7-7.389,0-.664-.744-.968-1.129-1.129a2.007,2.007,0,0,1,.955-.242,2.366,2.366,0,0,1,2.122,1.408c0,.223-.037.261-.478.664a6.579,6.579,0,0,0-.515.744c.136,0,.323.019.689.019a13.683,13.683,0,0,0,3.133-.465,1.3,1.3,0,0,1,2.289,1.086c0,.2-.074.223-.5.4Zm-5.013-.062c-.155,0-.366,0-.993-.385a28.582,28.582,0,0,1-1.836,2.593c1.073.143,3.518.645,3.635,2.457a23.428,23.428,0,0,0,2.432-5.13c-.515.062-2.792.465-3.232.465Z" transform="translate(-550.237 -28.843)" fill="#fff"/>
        <path id="パス_291" data-name="パス 291" d="M622.629,42.671c-.174,0-.633-.037-.67-.037a17.77,17.77,0,0,0-2.159-.081c-5.831,0-7.55.118-8.412.36-.056.019-.67.18-.726.18-.5,0-1.532-1.29-1.532-2.215a2.44,2.44,0,0,1,.23-.968c.651,1.532,1.241,1.532,3.232,1.532,1.321,0,7.531-.019,8.412-.242.112-.019.67-.18.782-.18s2.029.223,2.029,1.005c0,.627-.955.645-1.185.645Z" transform="translate(-559.079 -32.248)" fill="#fff"/>
        <path id="パス_292" data-name="パス 292" d="M644.958,46.342c-.285,0-.459-.1-1.129-.763a12.275,12.275,0,0,0-4.82-3.058c-1.092-.44-1.855-.7-2.7-.986,4.591-.161,9.256,2.134,9.256,4.082a.671.671,0,0,1-.614.726Zm-.6-11.191c-.23,0-.323-.062-1.092-.6a18.149,18.149,0,0,0-6.117-2.717c.4-.037.8-.062,1.34-.062,2.14,0,6.408.825,6.408,2.736,0,.279-.192.645-.533.645Zm-.478,4.628c-.267,0-.341-.081-1.092-.645a18.64,18.64,0,0,0-5.124-2.413,6.983,6.983,0,0,1,.918-.037c.267,0,5.813.062,5.813,2.475,0,.019,0,.62-.515.62Z" transform="translate(-569.397 -29.158)" fill="#fff"/>
        <path id="パス_293" data-name="パス 293" d="M668.79,37.089c-.155,0-1.681-.261-1.911-.3a9.7,9.7,0,0,0-1.756-.118c-1.011,0-1.625.037-2.084.081a23.959,23.959,0,0,1-.633,4.709,8.079,8.079,0,0,1-5.242,5.695l-.037-.161c3.344-2.376,4.4-5.856,4.647-10.143a16.2,16.2,0,0,0-4.51.986c-.385.242-.422.279-.651.279a2.54,2.54,0,0,1-1.892-2.376,3.268,3.268,0,0,1,.056-.627,2.191,2.191,0,0,0,1.948,1.29,9.7,9.7,0,0,0,1.321-.1c.6-.062,3.214-.323,3.747-.385a20.718,20.718,0,0,0-.136-3.66c-.136-.521-.614-.744-1.514-1.005a2,2,0,0,1,1.284-.521c.782,0,2.122.546,2.122,1.21a4.2,4.2,0,0,1-.323.862,19.009,19.009,0,0,0-.136,2.091c0,.521-.019.682-.019.924.347-.019,3.307-.18,3.344-.2.211-.043,1.055-.3,1.185-.3.074,0,1.911.261,1.911,1.148,0,.627-.478.627-.726.627Z" transform="translate(-576.386 -28.763)" fill="#fff"/>
        <path id="パス_294" data-name="パス 294" d="M686.353,35.675c-.037.465-.192,2.537-.229,2.959-.5,4.324-2.965,6.619-4.591,7.327l-.093-.118a12.794,12.794,0,0,0,3.536-9.541c0-1.694-.019-1.669-1.47-2.072a2.151,2.151,0,0,1,1.259-.521c.5,0,1.8.44,1.8,1.005,0,.161-.192.825-.211.968ZM691,43.988a5.531,5.531,0,0,0-1.2,1.129c-.093.1-.267.3-.385.3-.366,0-1.222-1.65-1.222-1.911,0-.143.23-.744.248-.887a33.3,33.3,0,0,0,.174-4.008c0-.744-.019-4.467-.112-4.951-.074-.36-.459-.627-1.377-.943A2.04,2.04,0,0,1,688.2,32.3c.571,0,2.066.6,2.066,1.21a11.44,11.44,0,0,1-.267,1.148c-.192,1.024-.285,6.663-.285,7.891,0,.081,0,.341.136.341.459,0,3.921-2.314,6.923-6.34l.155.118a18.282,18.282,0,0,1-5.906,7.327Z" transform="translate(-586.53 -29.359)" fill="#fff"/>
        <path id="パス_295" data-name="パス 295" d="M723.794,33.573c.019,1.024-.019,5.658.019,6.458.019.664.174,3.983.174,4.913,0,.484,0,1.346-1.03,1.346a.5.5,0,0,1-.571-.5c0-.118.037-.862.037-1.024H711.66a4.443,4.443,0,0,1-.056,1.39,1.124,1.124,0,0,1-1.036.546c-.515,0-.533-.323-.533-.546,0-.2.056-1.086.056-1.266.093-2.637.174-6.2.174-9.3a19.044,19.044,0,0,0-.3-4.429l2.047,1.21h10.155l.6-.645c.174-.18.23-.279.323-.279a.656.656,0,0,1,.341.2l1.055.862c.112.1.229.223.229.341,0,.18-.422.44-.9.726Zm-1.377-.726H711.654V44.281h10.763Z" transform="translate(-597.357 -28.927)" fill="#fff"/>
        <path id="パス_296" data-name="パス 296" d="M737.944,47.04l-.174-.279a13.645,13.645,0,0,0,3.635-9.461,13.613,13.613,0,0,0-3.635-9.461l.174-.279a12.727,12.727,0,0,1,0,19.48Z" transform="translate(-607.914 -27.56)" fill="#fff"/>
      </g>
    </g>
  </g>
  <g id="グループ_112" data-name="グループ 112" transform="translate(156 84)">
    <path id="パス_297" data-name="パス 297" d="M807.558,57.614a7.3,7.3,0,1,1-7.3-7.3A7.308,7.308,0,0,1,807.558,57.614Zm-14.014,0a6.71,6.71,0,1,0,6.71-6.71A6.714,6.714,0,0,0,793.544,57.614Zm11.775,0a5.065,5.065,0,1,1-5.065-5.065,5.068,5.068,0,0,1,5.065,5.065Zm-9.536,0a4.471,4.471,0,1,0,4.471-4.471A4.478,4.478,0,0,0,795.783,57.614Z" transform="translate(-792.95 -42.118)"/>
    <path id="パス_298" data-name="パス 298" d="M826.913,53.135c-.034.922-.034,1.461-.034,2.4,0,2.894.082,6.874.15,7.864,0,.1.034.526.034.628,0,.608-.642.792-.935.792-.328,0-.43-.184-.43-.491,0-.014,0-.246.034-.655h-6.089c.014.478.034,1.2-.9,1.2a.39.39,0,0,1-.444-.444c0-.116.048-.956.082-1.434.068-1.27.116-5.891.116-7.038,0-3.5-.082-3.9-.266-4.621l1.659.853H825.5l.512-.491c.13-.13.212-.2.328-.2a.571.571,0,0,1,.314.184l.71.642c.116.116.2.212.2.314,0,.2-.212.314-.642.512Zm-1.167-.56h-6.116v4.983h6.116Zm0,5.379h-6.116v5.311h6.116Z" transform="translate(-800.973 -42.445)"/>
    <path id="パス_299" data-name="パス 299" d="M848.463,54.708c-.034,1.434.048,3.372.048,3.55s.068.99.068,1.154a.808.808,0,0,1-.888.724c-.43,0-.43-.28-.41-1.051H842.94c0,.348,0,2.826.1,4.724,0,.164.034.457.034.478a.612.612,0,0,1-.15.492,1.042,1.042,0,0,1-.737.314c-.526,0-.526-.43-.526-.608,0-.068.014-.348.014-.43.15-2.485.15-3.243.15-4.97h-4.246c0,.13.034.655.034.771a.8.8,0,0,1-.853.84c-.478,0-.478-.348-.478-.546,0-.28.048-.628.048-.806.034-.935.068-2.369.068-3.5a15.577,15.577,0,0,0-.164-2.765l1.563.771h4.028c-.048-2.58-.1-2.812-.348-3.468l1.775.491c.13.034.266.116.266.232,0,.15-.13.28-.526.539-.034.348-.034,1.891-.048,2.2H847.1l.491-.526a.414.414,0,0,1,.232-.13.451.451,0,0,1,.294.116l.71.526c.1.068.212.164.212.28s-.212.314-.573.594Zm-6.642-.464h-4.26v4.444h4.26c0-.4.014-2.963.014-3.174C841.834,55.234,841.834,54.64,841.821,54.244Zm5.461,0H842.94c0,.294-.014.99-.014,1.413s.014,2.546.014,3.024h4.342V54.237Z" transform="translate(-806.686 -42.141)"/>
    <path id="パス_300" data-name="パス 300" d="M860.248,56.034a11.451,11.451,0,0,0-1.925.15L858,55.529c1.133.1,2.383.116,2.533.116h.874c.014-.935,0-1.973-.014-2.928a7.794,7.794,0,0,0-.28-2.717l1.495.444c.15.048.28.13.28.266a.218.218,0,0,1-.068.177c-.068.068-.266.212-.362.294-.082,2.287-.082,3.468-.082,4.458h.71l.628-.628c.1-.1.177-.2.266-.2a.552.552,0,0,1,.314.177l.69.608a.361.361,0,0,1,.164.259c0,.13-.13.164-.246.164h-2.519v.887c2.075.457,2.253,1.434,2.253,1.625a.59.59,0,0,1-.607.655c-.4,0-.594-.314-.771-.71a3.462,3.462,0,0,0-.874-1.352c0,2.894.034,4.587.1,5.823.02.15.068,1.038.068,1.12a.834.834,0,0,1-.874.908c-.232,0-.457-.034-.457-.492,0-.43.15-3.666.177-4.355.014-.655.014-.922.014-2.171a14.745,14.745,0,0,1-3.816,4.109l-.1-.13a22.749,22.749,0,0,0,3.734-5.918h-.969Zm-1.632-4.2c.573.246,2.123.969,2.123,1.9,0,.177-.068.771-.655.771-.43,0-.526-.314-.655-.792a3.2,3.2,0,0,0-.874-1.809l.068-.082Zm6.628,0a.356.356,0,0,1,.2.28c0,.232-.41.314-.56.348-.935,1.133-1.017,1.236-2.007,2.3l-.116-.034a9.743,9.743,0,0,0,1.119-3.57Zm5.809,6.847.491-.935c.048-.1.116-.246.232-.246a.5.5,0,0,1,.294.116l.887.608c.1.068.212.15.212.259s-.082.15-.212.184l-3.01.628c.014.573.068,3.406.082,3.6.014.41.048,1.12.048,1.249a.809.809,0,0,1-.84.874c-.464,0-.478-.314-.478-.56,0-.177.068-1.434.068-1.713,0-.512.014-2.765.034-3.222l-3.5.737a10.937,10.937,0,0,0-1.857.526l-.457-.56c1-.13,2.041-.314,2.5-.41l3.325-.676c.034-7.748-.082-8.11-.348-9l1.713.478c.116.034.259.116.259.246s-.068.164-.164.246-.266.2-.375.28c-.034.444-.048.874-.048,2.614,0,1.4.014,3.106.048,4.9l1.106-.232Zm-5.4-3.29c1.12.266,2.089,1.017,2.089,1.775a.618.618,0,0,1-.608.676c-.512,0-.642-.444-.71-.724a3.872,3.872,0,0,0-.819-1.679Zm.1-3.8c.655.177,2.157.771,2.157,1.727a.641.641,0,0,1-.655.676c-.43,0-.512-.314-.608-.642a5.411,5.411,0,0,0-.935-1.713l.048-.048Z" transform="translate(-813.433 -42.02)"/>
    <path id="パス_301" data-name="パス 301" d="M895.878,56.618a11.977,11.977,0,0,1-6.232-5.659,16.171,16.171,0,0,1-7.6,6.71l-.068-.13a22.262,22.262,0,0,0,5.359-5.345,7.336,7.336,0,0,0,1.317-2.485l1.379.642a.338.338,0,0,1,.232.28c0,.232-.2.266-.314.294a10.681,10.681,0,0,0,7.516,4.212l.014.15a2.64,2.64,0,0,0-1.611,1.331Zm.43,7.345h-11.6a11.2,11.2,0,0,0-1.939.15l-.328-.655c1.133.1,2.3.116,2.533.116h3.816V59.021H885.83a11.456,11.456,0,0,0-1.939.15l-.328-.655c1.154.1,2.4.116,2.533.116h2.7V56.263H888.2a11.2,11.2,0,0,0-1.939.15l-.328-.642c1.133.082,2.287.1,2.533.1h2.171l.642-.628c.13-.116.212-.212.28-.212s.2.116.294.177l.84.628a.361.361,0,0,1,.164.259c0,.15-.13.164-.246.164h-2.662v2.369h3.072l.71-.737c.116-.116.212-.212.28-.212s.2.1.294.177l.922.737c.1.082.164.15.164.246,0,.164-.13.184-.246.184h-5.195v4.553h4.028l.805-.853c.13-.13.2-.2.266-.2a.61.61,0,0,1,.314.164l1.038.853a.369.369,0,0,1,.164.259c0,.15-.15.164-.246.164Zm-9.557-1.031c-.512,0-.655-.457-.758-.874a5.518,5.518,0,0,0-.84-2.2l.082-.1c.724.4,2.171,1.2,2.171,2.417A.676.676,0,0,1,886.752,62.933Zm6.417-1.911a12.844,12.844,0,0,1-2.437,2.417l-.13-.082a21.231,21.231,0,0,0,1.318-2.683,2.454,2.454,0,0,0,.246-1.12l1.461.887c.15.082.177.15.177.212,0,.246-.28.294-.642.362Z" transform="translate(-821.205 -41.928)"/>
    <path id="パス_302" data-name="パス 302" d="M911.481,55.816a.956.956,0,0,1-1.911,0,.946.946,0,0,1,.956-.956A.933.933,0,0,1,911.481,55.816Zm0,6.478a.956.956,0,1,1-.956-.956A.946.946,0,0,1,911.481,62.294Z" transform="translate(-829.961 -43.562)"/>
    <path id="パス_303" data-name="パス 303" d="M924.715,53.105a.335.335,0,0,1,.212.294c0,.15-.177.246-.689.348-.212.266-.676.806-1.379,1.679-.628.758-1.167,1.365-1.611,1.823.082,0,1.461-.068,2.335-.177a4.478,4.478,0,0,0-.676-.935l.082-.1c1.283.491,2.266,1.236,2.266,1.993a.622.622,0,0,1-.628.676c-.4,0-.56-.2-.71-.758-.014-.048-.082-.28-.177-.526l-1.495.328c0,.71.048,4.082.048,4.389.014.328.068,1.809.068,2.1a.742.742,0,0,1-.792.71c-.348,0-.444-.212-.444-.492s.068-1.352.068-1.577c.02-.526.034-2.137.048-4.915-1.038.232-1.857.41-2.075.457-.1.164-.259.478-.41.478s-.266-.2-.294-.294l-.362-1.4a5.66,5.66,0,0,0,1.167.116c.512,0,1.27-.014,1.529-.034a21.256,21.256,0,0,0,2.355-4.26,2.03,2.03,0,0,0,.1-.655l1.461.737Zm-6.5,10.82a13.3,13.3,0,0,0,1.154-4.806l1.352.491c.116.048.232.15.232.232,0,.116-.1.2-.526.362a10.148,10.148,0,0,1-2.123,3.768l-.082-.048Zm.621-10.806a7.775,7.775,0,0,1,1.413.457,9.011,9.011,0,0,0,1.085-3.686l1.563.771a.316.316,0,0,1,.2.246c0,.246-.246.294-.628.362-.771.99-.887,1.133-2.007,2.417a1.712,1.712,0,0,1,.969,1.3.74.74,0,0,1-.676.792c-.375,0-.478-.2-.84-1a4.553,4.553,0,0,0-1.1-1.563l.014-.1Zm3.884,6.267c.676.294,2.321,1.038,2.321,2.157a.75.75,0,0,1-.724.806c-.444,0-.526-.328-.737-1.085a4.71,4.71,0,0,0-.908-1.809l.048-.068Zm7.864-5.311.492-.457c.082-.082.184-.184.232-.184a.457.457,0,0,1,.232.15l.792.676a.371.371,0,0,1,.15.246c0,.116-.314.348-.608.56-.1,4.553-.13,6.594-1,8.273a2.867,2.867,0,0,1-2.546,1.611,2.861,2.861,0,0,0-1.495-1.857l.014-.1a16.229,16.229,0,0,0,2.184.328c1.659,0,1.741-5.427,1.741-7.12,0-.28-.014-1.447-.014-1.727h-4.437a9.493,9.493,0,0,1-1.611,2.355l-.1-.068a17.507,17.507,0,0,0,1.775-6.055,3.769,3.769,0,0,0-.082-.628l1.775.758a.269.269,0,0,1,.177.232c0,.164-.246.28-.642.457a18.667,18.667,0,0,1-1.085,2.553h4.062Zm-4.492,3.14c1.563.642,2.335,1.167,2.335,2.055,0,.4-.2.771-.655.771-.43,0-.56-.177-.921-1.317a4.061,4.061,0,0,0-.826-1.413l.068-.1Z" transform="translate(-832.668 -41.985)"/>
    <path id="パス_304" data-name="パス 304" d="M944.682,41.414l-.259,7.318a6.11,6.11,0,0,1,4.5-2c4.178,0,6.185,3.454,6.185,6.649a7.368,7.368,0,0,1-7.168,7.488c-3.311,0-5.488-2.464-5.488-4.266a1.649,1.649,0,0,1,1.686-1.8,1.429,1.429,0,0,1,1.509,1.509,3.013,3.013,0,0,1-.143.874,4.664,4.664,0,0,0-.089.812c0,1.249,1.3,1.884,2.471,1.884,2.348,0,4.56-2.232,4.56-6.123,0-3.686-1.945-5.72-4.062-5.72a6.318,6.318,0,0,0-4.526,2.526l-.437-.232.437-11.209h10.1l-.58,2.294H944.7Z" transform="translate(-840.396 -38.567)"/>
    <path id="パス_305" data-name="パス 305" d="M963.983,71.788a2.953,2.953,0,0,0,1.365-1.918c0-.116-.027-.41-.259-.491-.758-.348-1.249-.758-1.249-1.652a1.683,1.683,0,0,1,3.365-.034c0,2.15-2.034,3.918-2.758,4.526l-.464-.437Z" transform="translate(-847.185 -47.111)"/>
    <path id="パス_306" data-name="パス 306" d="M984.357,54.218c0,3.365-2.642,6.389-6.854,6.389-3.311,0-6.273-1.918-6.273-5.222,0-3.133,2.5-4.615,5.167-6.185-1.536-.9-4.328-2.526-4.328-5.686,0-2.874,2.266-5.195,5.8-5.195,3.98,0,5.311,2.963,5.311,4.587,0,2.464-2.382,4.266-3.632,5.195,2.731,1.686,4.792,3.133,4.792,6.123ZM973.667,55.3a4.183,4.183,0,0,0,4.178,4.328,4.514,4.514,0,0,0,4.41-4.382c0-2.758-2.874-4.382-4.99-5.577C975.961,50.655,973.667,52.423,973.667,55.3Zm7.407-12.076a3.663,3.663,0,0,0-3.6-3.918,3.319,3.319,0,0,0-3.427,3.454c0,2.034,1.652,3.045,4.676,4.847A5.522,5.522,0,0,0,981.074,43.221Z" transform="translate(-849.53 -38.313)"/>
    <path id="パス_307" data-name="パス 307" d="M999.066,60.6a5.873,5.873,0,0,1-4.758-3.133c-1.222-2-1.768-5.577-1.768-8.273,0-6.185,2.642-10.888,6.533-10.888,2.99,0,6.533,3.222,6.533,11.147,0,7.113-2.99,11.147-6.533,11.147Zm-3.249-17.448a26.476,26.476,0,0,0-.669,6.3c0,6.471,1.536,10.158,3.918,10.158,2,0,2.9-2.669,3.222-3.775a26.715,26.715,0,0,0,.7-6.389c0-6.622-1.6-10.158-3.918-10.158C997,39.293,996.1,42.14,995.817,43.157Z" transform="translate(-856.293 -38.31)"/>
    <path id="パス_308" data-name="パス 308" d="M1020.326,60.6a5.873,5.873,0,0,1-4.758-3.133c-1.222-2-1.768-5.577-1.768-8.273,0-6.185,2.642-10.888,6.533-10.888,2.99,0,6.533,3.222,6.533,11.147,0,7.113-2.99,11.147-6.533,11.147Zm-3.249-17.448a26.473,26.473,0,0,0-.669,6.3c0,6.471,1.536,10.158,3.918,10.158,2,0,2.9-2.669,3.222-3.775a26.712,26.712,0,0,0,.7-6.389c0-6.622-1.6-10.158-3.918-10.158C1018.264,39.293,1017.363,42.14,1017.077,43.157Z" transform="translate(-863.04 -38.31)"/>
    <path id="パス_309" data-name="パス 309" d="M1048.631,52.423c-.021.573-.034,1.645-.034,2.963,0,2.041.13,5.3.13,7.318,0,.908,0,2.055-2.123,2.273-.048-.546-.15-.935-1.529-1.761l.014-.116a10.542,10.542,0,0,0,1.761.15c.491,0,.594-.15.594-.792V58.28H1037.8c.034,3.42.034,3.8.082,5.133,0,.034.014.43.014.56,0,.375,0,1-.908,1-.512,0-.512-.314-.512-.526,0-.294.068-1.611.068-1.877.082-2.942.1-5.871.1-8.8a22.348,22.348,0,0,0-.15-3.324l1.775,1.017h8.9l.56-.594c.116-.116.2-.164.28-.164s.15.034.294.164l.758.689a.514.514,0,0,1,.177.314c0,.15-.266.375-.628.539Zm-6.594-.56h-4.225v6.021h4.225Zm5.406,0H1043.2v6.021h4.246Z" transform="translate(-870.238 -42.163)"/>
  </g>
  <g id="グループ_113" data-name="グループ 113" transform="translate(156 119.107)">
    <path id="パス_310" data-name="パス 310" d="M1081.2,57.614a7.3,7.3,0,1,1-7.3-7.3A7.308,7.308,0,0,1,1081.2,57.614Zm-14.015,0a6.71,6.71,0,1,0,6.71-6.71A6.714,6.714,0,0,0,1067.184,57.614Zm11.776,0a5.065,5.065,0,1,1-5.065-5.065,5.068,5.068,0,0,1,5.065,5.065Zm-9.536,0a4.471,4.471,0,1,0,4.471-4.471A4.478,4.478,0,0,0,1069.423,57.614Z" transform="translate(-1066.59 -49.9)"/>
    <path id="パス_311" data-name="パス 311" d="M1090.154,54.437c1.495-.13,2.58.573,2.58,1.495a.687.687,0,0,1-.689.737c-.4,0-.526-.266-.737-.71a3.79,3.79,0,0,0-1.167-1.447l.014-.082Zm4.191.225c-.116.43-.628,2.437-.71,2.717-.082.328-1,3.161-1.085,3.536a3.546,3.546,0,0,0-.048.573,3.431,3.431,0,0,0,.212.956,4.41,4.41,0,0,1,.28,1.352c0,.737-.294,1.085-.792,1.085-.594,0-.724-.608-.724-1.072,0-.232.13-1.236.13-1.495,0-.806-.034-1.434-1-1.857V60.39c.457-.014.956-.068,1.495-1.167.71-1.434,1.959-4.062,2.157-4.608l.082.048Zm-2.778-4.1c2.3.212,2.567,1.317,2.567,1.659a.679.679,0,0,1-.655.737c-.423,0-.607-.348-.84-.853a4.3,4.3,0,0,0-1.051-1.481l-.014-.068Zm4.622,8.669a10.774,10.774,0,0,0-1.939.164l-.328-.655c.84.068,1.693.1,2.532.1h1.973a8.244,8.244,0,0,0-.26-2.355l1.481.41c.13.034.314.13.314.266s-.116.232-.512.43V58.84h3.27l.56-.922c.068-.1.164-.212.266-.212.13,0,.294.184.314.184l.874.935c.13.13.164.164.164.246,0,.15-.15.164-.246.164h-4.888a9.138,9.138,0,0,0,5.72,3.359v.068a2.829,2.829,0,0,0-1.6,1.263,9.659,9.659,0,0,1-4.376-4.69h-.068c0,.689.014,1.4.034,2.041.014.526.13,2.826.13,3.3,0,.526-.492.676-.853.676-.409,0-.43-.294-.43-.492,0-.758.1-4.062.1-4.737a10.557,10.557,0,0,1-4.806,4.178v-.068a17.639,17.639,0,0,0,4.048-4.9h-1.481Zm5.884-7.42.608-.375a.676.676,0,0,1,.266-.13.585.585,0,0,1,.314.164l.758.628a.536.536,0,0,1,.232.375c0,.259-.1.314-.792.348a1.95,1.95,0,0,0-.853.28c-.15.068-.792.348-.922.41l-.048-.068c.1-.232.444-1.1.478-1.236h-1.481c-.014.724-.014,2.437,0,2.731.014.348.266.4,1.215.4.826,0,1.154-.048,1.283-.232a11.136,11.136,0,0,0,.71-1.625h.1c.048.642.116,1.317.362,1.495.314.212.375.294.375.444,0,.922-1.973.956-3.045.956-1.993,0-2.075-.314-2.075-2.239,0-.314.021-1.577,0-1.925h-1.877l.887.457c.13.068.294.164.294.28,0,.1-.15.184-.314.246a4.747,4.747,0,0,1-3.638,3.98v-.082a5.881,5.881,0,0,0,2.649-4.888h-1.365c.082.771-.082,2.184-1.017,2.184a.636.636,0,0,1-.655-.628c0-.294.164-.478.71-1.154a3.08,3.08,0,0,0,.594-1.515h.082a2.8,2.8,0,0,1,.246.71h5.918Z" transform="translate(-1074.064 -49.98)"/>
    <path id="パス_312" data-name="パス 312" d="M1118.618,56.471c.048.014.266.082.266.246a.214.214,0,0,1-.13.212c-.116.082-.177.15-.246.2-.048.512-.048.935-.048,1.843,0,.806.082,4.376.082,5.1a.774.774,0,0,1-.806.806.475.475,0,0,1-.526-.539c0-.328.1-1.727.116-2.007.034-.969.048-1.379.068-5.065a11.177,11.177,0,0,1-3.5,3.14l-.034-.116a27.072,27.072,0,0,0,4.307-6.28,2.237,2.237,0,0,0,.246-1.12l1.447.771a.283.283,0,0,1,.177.246c0,.164-.068.177-.642.362-.71,1.167-1.051,1.659-1.331,2.055l.56.15Zm8.274-4.116.642-.771c.1-.13.177-.212.266-.212s.177.082.294.164l1.017.806a.349.349,0,0,1,.15.246c0,.15-.13.164-.246.164h-12.185a11,11,0,0,0-1.939.15l-.328-.642c1.017.068,2.041.1,2.532.1h4.191a4.972,4.972,0,0,0-.444-2.635l1.843.4c.13.034.266.048.266.212a.377.377,0,0,1-.116.232,4.9,4.9,0,0,1-.4.294c0,.232.021,1.283.021,1.495h4.437Zm-8.1,11.96a12.617,12.617,0,0,0,3.932-3.243,8.205,8.205,0,0,1-1.679-3.55,13.7,13.7,0,0,1-2.3,2.075l-.048-.068c1.27-1.481,3.618-5.133,3.55-6.594l1.379.758c.1.048.2.15.2.232,0,.2-.15.246-.655.444-.28.478-.444.758-.676,1.12h3.045l.628-.573c.13-.116.2-.177.294-.177a.521.521,0,0,1,.314.15l.908.676a.374.374,0,0,1,.164.246.353.353,0,0,1-.164.266,7.306,7.306,0,0,1-.922.314,17.958,17.958,0,0,1-2.826,4.867,9.9,9.9,0,0,0,5.509,2.007v.116a2.116,2.116,0,0,0-1.331,1.413,10.833,10.833,0,0,1-4.737-2.942,8.923,8.923,0,0,1-4.526,2.567l-.048-.082Zm3.44-8.437a14.654,14.654,0,0,1-1,1.4,8.372,8.372,0,0,0,1.925,3.256,12.4,12.4,0,0,0,2.437-4.656h-3.359Zm-.014.628c.922.15,1.877.628,1.877,1.413a.754.754,0,0,1-.676.792c-.43,0-.491-.314-.71-1.072a1.871,1.871,0,0,0-.539-1Z" transform="translate(-1081.592 -49.713)"/>
    <path id="パス_313" data-name="パス 313" d="M1141.015,56.034a11.451,11.451,0,0,0-1.925.15l-.328-.655c1.133.1,2.382.116,2.532.116h.874c.014-.935,0-1.973-.014-2.928a7.791,7.791,0,0,0-.28-2.717l1.495.444c.15.048.28.13.28.266a.218.218,0,0,1-.068.177c-.068.068-.266.212-.362.294-.082,2.287-.082,3.468-.082,4.458h.71l.628-.628c.1-.1.177-.2.259-.2a.552.552,0,0,1,.314.177l.689.608a.361.361,0,0,1,.164.259c0,.13-.13.164-.246.164h-2.519v.887c2.075.457,2.253,1.434,2.253,1.625a.59.59,0,0,1-.608.655c-.4,0-.594-.314-.771-.71a3.462,3.462,0,0,0-.874-1.352c0,2.894.034,4.587.1,5.823.014.15.068,1.038.068,1.12a.834.834,0,0,1-.874.908c-.232,0-.458-.034-.458-.492,0-.43.15-3.666.177-4.355.014-.655.014-.922.014-2.171a14.743,14.743,0,0,1-3.816,4.109l-.1-.13a22.749,22.749,0,0,0,3.734-5.918h-.969Zm-1.631-4.2c.573.246,2.123.969,2.123,1.9,0,.177-.068.771-.655.771-.43,0-.526-.314-.655-.792a3.194,3.194,0,0,0-.874-1.809l.068-.082Zm6.628,0a.356.356,0,0,1,.2.28c0,.232-.409.314-.56.348-.935,1.133-1.017,1.236-2.007,2.3l-.116-.034a9.741,9.741,0,0,0,1.12-3.57Zm5.809,6.847.491-.935c.048-.1.116-.246.232-.246a.5.5,0,0,1,.293.116l.887.608c.1.068.212.15.212.259s-.082.15-.212.184l-3.01.628c.014.573.068,3.406.082,3.6.014.41.048,1.12.048,1.249a.809.809,0,0,1-.84.874c-.457,0-.478-.314-.478-.56,0-.177.068-1.434.068-1.713,0-.512.014-2.765.034-3.222l-3.5.737a10.933,10.933,0,0,0-1.857.526l-.458-.56c1-.13,2.041-.314,2.5-.41l3.324-.676c.034-7.748-.082-8.11-.348-9l1.713.478c.116.034.266.116.266.246s-.068.164-.164.246-.259.2-.375.28c-.034.444-.048.874-.048,2.614,0,1.4.014,3.106.048,4.9l1.1-.232Zm-5.4-3.29c1.12.266,2.089,1.017,2.089,1.775a.618.618,0,0,1-.608.676c-.512,0-.642-.444-.71-.724a3.872,3.872,0,0,0-.819-1.679Zm.1-3.8c.655.177,2.157.771,2.157,1.727a.641.641,0,0,1-.655.676c-.43,0-.512-.314-.608-.642a5.416,5.416,0,0,0-.935-1.713l.048-.048Z" transform="translate(-1089.333 -49.802)"/>
    <path id="パス_314" data-name="パス 314" d="M1176.648,56.618a11.977,11.977,0,0,1-6.232-5.659,16.172,16.172,0,0,1-7.6,6.71l-.068-.13a22.262,22.262,0,0,0,5.359-5.345,7.336,7.336,0,0,0,1.318-2.485l1.379.642a.338.338,0,0,1,.232.28c0,.232-.2.266-.314.294a10.681,10.681,0,0,0,7.516,4.212l.014.15a2.641,2.641,0,0,0-1.611,1.331Zm.43,7.345h-11.6a11.2,11.2,0,0,0-1.939.15l-.328-.655c1.133.1,2.3.116,2.532.116h3.816V59.021H1166.6a11.454,11.454,0,0,0-1.939.15l-.328-.655c1.154.1,2.4.116,2.533.116h2.7V56.263h-.594a11.2,11.2,0,0,0-1.939.15l-.328-.642c1.133.082,2.287.1,2.533.1h2.171l.642-.628c.13-.116.212-.212.28-.212s.2.116.294.177l.84.628a.361.361,0,0,1,.164.259c0,.15-.13.164-.246.164h-2.662v2.369h3.072l.71-.737c.116-.116.212-.212.28-.212s.2.1.294.177l.922.737c.1.082.164.15.164.246,0,.164-.13.184-.246.184h-5.195v4.553h4.028l.805-.853c.13-.13.2-.2.266-.2a.609.609,0,0,1,.314.164l1.038.853a.369.369,0,0,1,.164.259c0,.15-.15.164-.246.164Zm-9.557-1.031c-.512,0-.655-.457-.758-.874a5.514,5.514,0,0,0-.84-2.2l.082-.1c.724.4,2.171,1.2,2.171,2.417a.676.676,0,0,1-.655.758Zm6.417-1.911a12.847,12.847,0,0,1-2.437,2.417l-.13-.082a21.219,21.219,0,0,0,1.317-2.683,2.45,2.45,0,0,0,.246-1.12l1.461.887c.15.082.177.15.177.212,0,.246-.28.294-.642.362Z" transform="translate(-1097.108 -49.71)"/>
    <path id="パス_315" data-name="パス 315" d="M1192.251,55.816a.956.956,0,1,1-1.911,0,.945.945,0,0,1,.956-.956A.933.933,0,0,1,1192.251,55.816Zm0,6.478a.956.956,0,1,1-.956-.956A.945.945,0,0,1,1192.251,62.294Z" transform="translate(-1105.864 -51.344)"/>
    <path id="パス_316" data-name="パス 316" d="M1205.488,53.105a.335.335,0,0,1,.212.294c0,.15-.177.246-.689.348-.212.266-.676.806-1.379,1.679-.628.758-1.167,1.365-1.611,1.823.082,0,1.461-.068,2.334-.177a4.771,4.771,0,0,0-.676-.935l.082-.1c1.283.491,2.273,1.236,2.273,1.993a.626.626,0,0,1-.628.676c-.4,0-.56-.2-.71-.758-.014-.048-.082-.28-.177-.526l-1.495.328c0,.71.048,4.082.048,4.389.021.328.068,1.809.068,2.1a.742.742,0,0,1-.792.71c-.348,0-.444-.212-.444-.492s.068-1.352.068-1.577c.014-.526.034-2.137.048-4.915-1.038.232-1.857.41-2.075.457-.1.164-.266.478-.41.478-.164,0-.259-.2-.293-.294l-.362-1.4a5.66,5.66,0,0,0,1.167.116c.512,0,1.27-.014,1.529-.034a21.244,21.244,0,0,0,2.355-4.26,2.03,2.03,0,0,0,.1-.655l1.461.737Zm-6.5,10.82a13.439,13.439,0,0,0,1.154-4.806l1.352.491c.116.048.232.15.232.232,0,.116-.1.2-.526.362a10.151,10.151,0,0,1-2.123,3.768l-.082-.048Zm.628-10.806a7.947,7.947,0,0,1,1.413.457,9.116,9.116,0,0,0,1.085-3.686l1.563.771a.316.316,0,0,1,.2.246c0,.246-.246.294-.628.362-.771.99-.887,1.133-2.007,2.417a1.712,1.712,0,0,1,.969,1.3.74.74,0,0,1-.676.792c-.375,0-.478-.2-.84-1a4.552,4.552,0,0,0-1.1-1.563l.014-.1Zm3.877,6.267c.676.294,2.321,1.038,2.321,2.157a.75.75,0,0,1-.724.806c-.444,0-.526-.328-.737-1.085a4.708,4.708,0,0,0-.908-1.809l.048-.068Zm7.864-5.311.492-.457c.082-.082.177-.184.232-.184s.177.1.232.15l.792.676a.371.371,0,0,1,.15.246c0,.116-.314.348-.608.56-.1,4.553-.13,6.594-1,8.273a2.869,2.869,0,0,1-2.553,1.611,2.861,2.861,0,0,0-1.495-1.857l.014-.1a16.142,16.142,0,0,0,2.191.328c1.659,0,1.741-5.427,1.741-7.12,0-.28-.014-1.447-.014-1.727h-4.444a9.5,9.5,0,0,1-1.611,2.355l-.1-.068a17.507,17.507,0,0,0,1.775-6.055,3.756,3.756,0,0,0-.082-.628l1.775.758a.276.276,0,0,1,.184.232c0,.164-.246.28-.642.457a19.645,19.645,0,0,1-1.085,2.553h4.062Zm-4.492,3.14c1.563.642,2.335,1.167,2.335,2.055,0,.4-.2.771-.655.771-.43,0-.56-.177-.922-1.317a4.059,4.059,0,0,0-.826-1.413l.068-.1Z" transform="translate(-1108.574 -49.767)"/>
    <path id="パス_317" data-name="パス 317" d="M1225.458,57.209a2.8,2.8,0,0,1,1.433-.43c1.632,0,2.942,1.645,2.942,3.632,0,2.287-1.625,4.328-3.522,4.328s-3.782-2.123-3.782-5.673c0-3.8,2.137-6.956,4.656-6.956,1.106,0,1.877.655,1.877,1.447a.818.818,0,0,1-.84.853c-.328,0-.874-.212-.908-1.154-.014-.362-.048-.594-.491-.594a1.689,1.689,0,0,0-1.2.594c-1.461,1.611-1.543,4.028-1.611,5.509a4.072,4.072,0,0,1,1.447-1.563Zm-.539,6.089a1.632,1.632,0,0,0,1.331.887c.874,0,2.1-.908,2.1-3.618,0-.737-.178-3.045-1.877-3.045-.628,0-1.679.457-2.451,2.239a7.886,7.886,0,0,0,.888,3.536Z" transform="translate(-1116.08 -50.472)"/>
    <path id="パス_318" data-name="パス 318" d="M1234.829,71.076a1.671,1.671,0,0,0,.771-1.085c0-.068-.014-.232-.15-.28-.43-.2-.71-.43-.71-.935a.968.968,0,0,1,.935-.956.958.958,0,0,1,.969.935,3.849,3.849,0,0,1-1.563,2.567l-.266-.246Z" transform="translate(-1119.955 -55.458)"/>
    <path id="パス_319" data-name="パス 319" d="M1243.416,59.66a2.8,2.8,0,0,1-1.433.43c-1.632,0-2.942-1.645-2.942-3.652,0-2.266,1.625-4.328,3.522-4.328s3.782,2.137,3.782,5.673c0,3.8-2.136,6.956-4.655,6.956-1.106,0-1.877-.655-1.877-1.434a.818.818,0,0,1,.84-.853c.328,0,.874.212.908,1.133.014.362.048.594.491.594a1.616,1.616,0,0,0,1.2-.573c1.461-1.611,1.543-4.048,1.611-5.509a4.167,4.167,0,0,1-1.447,1.563Zm.539-6.1a1.632,1.632,0,0,0-1.331-.887c-.874,0-2.1.922-2.1,3.618,0,.758.177,3.058,1.877,3.058.628,0,1.679-.457,2.451-2.239a7.982,7.982,0,0,0-.887-3.55Z" transform="translate(-1121.32 -50.472)"/>
    <path id="パス_320" data-name="パス 320" d="M1254.71,64.746a3.335,3.335,0,0,1-2.7-1.775,10.255,10.255,0,0,1-1-4.69c0-3.5,1.495-6.171,3.7-6.171,1.693,0,3.7,1.823,3.7,6.314,0,4.028-1.693,6.314-3.7,6.314Zm-1.836-9.885a14.835,14.835,0,0,0-.376,3.57c0,3.666.874,5.755,2.219,5.755,1.133,0,1.645-1.515,1.823-2.137a15.147,15.147,0,0,0,.4-3.618c0-3.748-.908-5.755-2.219-5.755-1.167,0-1.679,1.611-1.843,2.184Z" transform="translate(-1125.119 -50.472)"/>
    <path id="パス_321" data-name="パス 321" d="M1266.76,64.746a3.336,3.336,0,0,1-2.7-1.775,10.253,10.253,0,0,1-1-4.69c0-3.5,1.495-6.171,3.7-6.171,1.693,0,3.7,1.823,3.7,6.314,0,4.028-1.693,6.314-3.7,6.314Zm-1.843-9.885a14.842,14.842,0,0,0-.375,3.57c0,3.666.874,5.755,2.219,5.755,1.133,0,1.645-1.515,1.823-2.137a15.147,15.147,0,0,0,.4-3.618c0-3.748-.908-5.755-2.219-5.755-1.167,0-1.679,1.611-1.843,2.184Z" transform="translate(-1128.943 -50.472)"/>
    <path id="パス_322" data-name="パス 322" d="M1289.144,52.423c-.014.573-.034,1.645-.034,2.963,0,2.041.13,5.3.13,7.318,0,.908,0,2.055-2.123,2.273-.048-.546-.15-.935-1.529-1.761l.021-.116a10.543,10.543,0,0,0,1.761.15c.491,0,.594-.15.594-.792V58.28h-9.639c.034,3.42.034,3.8.082,5.133,0,.034.014.43.014.56,0,.375,0,1-.908,1-.512,0-.512-.314-.512-.526,0-.294.068-1.611.068-1.877.082-2.942.1-5.871.1-8.8a22.365,22.365,0,0,0-.15-3.324l1.775,1.017h8.895l.56-.594c.116-.116.2-.164.28-.164s.15.034.294.164l.758.689a.527.527,0,0,1,.184.314c0,.15-.266.375-.628.539Zm-6.594-.56h-4.225v6.021h4.225Zm5.413,0h-4.246v6.021h4.246Z" transform="translate(-1133.367 -49.945)"/>
  </g>
</svg>
