<?xml version="1.0" encoding="UTF-8"?>
<svg id="_レイヤー_2" data-name="レイヤー 2" xmlns="http://www.w3.org/2000/svg" viewBox="0 0 406.17 75.35">
  <defs>
    <style>
      .cls-1 {
        fill: none;
        stroke: #fff;
        stroke-miterlimit: 10;
        stroke-width: .85px;
      }

      .cls-2 {
        fill: #fff;
        stroke-width: 0px;
      }
    </style>
  </defs>
  <g id="_レイヤー_1-2" data-name="レイヤー 1">
    <g>
      <path class="cls-2" d="M0,1.76h13.86v1.68H1.68v36.55H0V1.76Z"/>
      <path class="cls-2" d="M30.24,14.54h-4.83c0,3.7.17,19.91.17,23.19,0,2.14-1.72,2.14-1.81,2.14-1.09,0-1.09-.84-1.09-1.13,0-.21.17-5.17.21-6.18.25-8.32.21-16.17.21-18.02-.97.04-3.32.17-5,.5l-.97-1.81c1.89.13,5.25.29,5.92.34,0-3.11-.04-7.69-.21-9.33-.08-.92-.29-1.55-.46-2.18l3.36,1.13c.42.13.71.25.71.67s-.46.8-1.09,1.18v8.49h1.89l.88-1.13c.25-.34.42-.55.67-.55.21,0,.25.08.67.55l1.01,1.05c.38.42.38.5.38.67,0,.38-.34.42-.63.42ZM56.41,30.25h-8.86c0,.59.13,5.29.13,5.67,0,2.94-.84,3.44-3.74,4.37-.55-1.81-2.14-2.86-3.91-3.28l.17-.34c1.34.25,2.48.29,2.98.29,1.85,0,2.18-.55,2.23-1.18.04-.17.04-5,.04-5.54h-10.59c-1.51,0-3.82.17-5.42.5l-1.01-1.81c2.27.17,4.75.29,7.02.29h10c-.08-2.39-.08-2.69-.46-3.99l2.94.92c.38.13.71.21.71.63,0,.34-.13.38-1.09.92v1.51h4.96l1.09-1.43c.38-.5.46-.59.63-.59s.17,0,.76.5l1.68,1.47c.34.42.38.46.38.59,0,.46-.42.46-.63.46ZM55.48,9.33h-12.77v3.4h6.34l.63-.59c.17-.21.55-.59.63-.59s.25.17.55.34l1.3.97c.29.17.5.34.5.63,0,.55-1.05.97-1.26,1.05,0,1.55.29,8.4.29,9.79,0,.38,0,1.72-1.51,1.72-.21,0-1.01-.13-1.01-.84,0-.17.04-.88.04-1.01h-14.79c0,.71,0,2.1-1.43,2.1-.59,0-1.01-.38-1.01-.71,0-.76.25-7.39.25-8.82,0-.21-.04-4.03-.38-5.5l3.07,1.47h5.5v-3.4h-3.86c-1.47,0-3.82.21-5.42.5l-.97-1.81c3.15.25,6.17.29,6.97.29h3.28c-.04-4.75-.04-5.29-.59-6.93l3.4.97c.21.08.67.21.67.63,0,.38-.76.84-1.18.97v4.37h8.86l1.34-1.39c.34-.38.46-.5.67-.5.25,0,.59.34.67.42l1.39,1.39c.25.25.42.42.42.67,0,.38-.38.42-.63.42ZM40.45,13.74h-6.01v4.24h6.01v-4.24ZM40.45,18.99h-6.01v4.2h6.01v-4.2ZM38.81,36.59c-1.01,0-1.13-.55-1.55-2.23-.21-.88-.71-2.02-1.64-3.07l.17-.21c1.43.59,4.5,2.39,4.5,4.07,0,.63-.63,1.43-1.47,1.43ZM49.23,13.74h-6.51v4.24h6.51v-4.24ZM49.23,18.99h-6.51v4.2h6.51v-4.2ZM48.68,6.81c-.71,0-.88-.29-1.6-1.64-.55-1.05-1.22-1.55-2.23-2.14l.08-.25c1.09.17,4.87.76,4.87,2.77,0,.71-.46,1.26-1.13,1.26Z"/>
      <path class="cls-2" d="M89.17,6.81c-3.53,4.33-9.41,9.66-13.02,11.97-4.49,2.86-12.43,6.18-15.33,6.39l-.17-.38c4.2-1.47,11.17-5.33,14.11-7.44,3.32-2.35,8.23-6.93,11.89-11.93h-10.42c-1.26,1.55-1.85,2.27-3.44,3.95.21.08.38.13,1.76.63.59.21,3.65,1.34,3.65,3.57,0,1.01-.76,1.47-1.39,1.47-.84,0-1.26-.59-1.85-1.85-.97-2.02-1.05-2.27-2.48-3.53-3.78,3.91-7.9,6.09-9.91,7.18l-.17-.34c1.51-1.09,6.43-5.12,10.17-10.08,2.9-3.87,3.07-4.92,3.32-6.43l3.07,1.72c.34.21.46.29.46.59,0,.59-.55.71-1.55.92-.38.59-.55.76-.84,1.18h9.79l1.81-1.22c.42-.29.46-.29.55-.29q.12,0,.42.21l2.48,1.64c.25.17.42.34.42.63,0,.71-.25.84-3.32,1.43ZM95.05,22.56c-4.41,5.04-9.37,9.83-13.82,12.6-2.77,1.72-9.24,5.08-17.85,5.63l-.04-.38c4.83-1.13,12.06-2.98,19.66-9.33,5.5-4.58,8.19-8.4,9.16-10.21h-9.83c-2.44,2.23-3.99,3.49-5.46,4.54,1.39.38,5.75,2.27,5.75,4.83,0,1.01-.84,1.55-1.51,1.55-.8,0-.97-.5-1.39-1.55-.25-.59-1.09-2.44-3.24-4.58-1.01.71-2.14,1.43-3.23,2.06-3.36,1.93-6.55,3.32-9.66,3.95l-.08-.34c1.18-.5,3.53-1.55,5.88-2.94,5.33-3.19,10.21-8.07,11.8-9.79,2.39-2.56,2.56-3.19,3.03-4.83l3.15,1.81c.08.04.42.29.42.59,0,.59-.42.63-1.72.8-.5.63-1.18,1.47-2.69,2.9h9.07l1.43-1.05c.38-.29.42-.29.55-.29.17,0,.25.08.59.34l2.35,1.81c.38.29.5.42.5.63,0,.71-.63.84-2.81,1.26Z"/>
      <path class="cls-2" d="M117.09,39.66h-13.86v-1.68h12.18V1.43h1.68v38.23Z"/>
      <path class="cls-2" d="M123.4,36.53c-.46,0-.65-.31-.65-.72,0-.39.12-.67.48-1.54.12-.29.53-1.3.41-2.17h.24c.02.1.07.22.43,1.25.1.27.22.67.22,1.28,0,.22,0,1.9-1.13,1.9ZM132.29,29.35c-.22,2.12-.79,5.28-1.4,6.75-.34.84-.84,1.45-2.41,2.07-.48-1.18-1.4-1.78-1.85-1.98v-.17c.67.12,2,.19,2.1.19.51,0,.84-.02,1.18-.94.67-1.83,1.08-4.77,1.06-6.34h-5.83c.1.89-.55,1.06-.79,1.06-.55,0-.55-.41-.51-1.04.19-1.93.1-9.88.07-10.12-.1-1.13-.12-1.18-.19-1.49l1.64.79h4.89l.53-.55c.27-.29.31-.29.41-.29s.12.02.43.24l.79.55c.07.07.24.19.24.36,0,.24-.22.26-.36.26h-3.57v2.82h1.52l.43-.43c.26-.26.29-.31.41-.31.1,0,.14.02.41.27l.58.43c.1.1.24.22.24.36,0,.24-.22.26-.36.26h-3.23v2.87h1.61l.46-.51c.24-.26.26-.29.39-.29.14,0,.34.17.41.24l.51.51c.22.22.22.31.22.36,0,.22-.19.26-.36.26h-3.23v2.79h1.93l.53-.55c.24-.27.26-.29.38-.29s.12,0,.43.29l.72.67c.07.05.19.19.19.34,0,.29-.34.41-.63.53ZM127.54,18.72h-2.43v2.82h2.43v-2.82ZM127.54,22.12h-2.43v2.87h2.43v-2.87ZM127.54,25.57h-2.43v2.79h2.43v-2.79ZM126.27,35.47c-.63,0-.63-.41-.67-2.02-.02-.7-.05-1.42-.34-1.9l.12-.07c.14.19.89.99,1.04,1.18.43.63.7,1.42.7,1.78,0,.58-.38,1.04-.84,1.04ZM128.31,33.83c-.51,0-.58-.36-.67-1.13-.07-.46-.19-1.25-.63-2.12l.1-.07c.19.22,1.13.99,1.28,1.18.48.53.63,1.04.63,1.33,0,.24-.15.82-.7.82ZM129.74,32c-.46,0-.55-.27-.79-1.16-.1-.36-.29-.72-.53-1.06l.19-.1c1.16.65,1.71.96,1.71,1.66,0,.22-.12.65-.58.65ZM143.52,37.9c-.89-.87-2.58-2.63-3.64-5.52-.77-2.14-1.16-4.41-1.16-6.67h-2.77c-.14,3.54-.22,5.49-1.4,8.19-1.18,2.75-2.55,3.81-3.16,4.26l-.19-.12c.92-.96,1.59-2.24,2.17-3.85.84-2.41,1.3-4.1,1.3-12.6,0-1.11-.07-2.24-.14-2.67,0-.22-.22-1.18-.24-1.4l1.93.92h5.37l.72-.72s.22-.22.34-.22c.1,0,.12.02.31.22l.87.82c.14.12.19.22.19.31,0,.12-.07.17-.24.29-.1.05-.53.36-.6.41,0,1.28-.02,3.35.05,5.16,0,.24.07,1.28.07,1.52,0,.67-.58.87-.84.87-.7,0-.65-.63-.6-1.37h-2.75c.41,6.89,5.04,10.31,6.5,10.94v.17c-1.04.19-1.57.6-2.1,1.08ZM141.86,19.01h-5.9c.1,1.3.05,4.65.02,6.12h5.88v-6.12Z"/>
    </g>
    <line class="cls-1" x1="152.83" y1="29.2" x2="253.33" y2="29.2"/>
    <g>
      <path class="cls-2" d="M281.84,19.66h-9.56v2.79h3.64l.53-.53c.12-.12.26-.29.39-.29.1,0,.19.07.34.17l.89.63c.24.17.41.29.41.46,0,.22-.24.41-.84.82,0,1.64.02,4.12.05,4.92.02.67.17,4.31.17,4.38,0,.65-.67.92-.99.92-.58,0-.55-.36-.53-.89h-7.35c0,.22.05.63-.12.89-.22.43-.82.46-.84.46-.51,0-.51-.53-.51-.65,0-.36.05-.92.05-1.28.02-.51.05-4,.05-5.59,0-.26,0-2.55-.05-3.66-.02-.24-.12-1.06-.19-1.52l1.71.77h1.93c0-1.06,0-1.23-.05-2.79h-6.1c-.77,0-2.12.07-3.11.27l-.55-1.04c1.33.12,2.65.19,4,.19h5.76c-.12-2.34-.14-2.7-.41-3.47l2.14.67c.24.07.36.17.36.31,0,.24-.29.43-.77.82v1.66h6.72l.92-1.11c.14-.19.24-.31.38-.31s.29.14.43.27l1.23,1.11c.14.14.24.22.24.36,0,.22-.19.26-.36.26ZM282.17,36.5h-17.71c0,.75.02.84-.14,1.01-.22.24-.65.36-.92.36-.43,0-.53-.24-.53-.55,0-.39.1-2.12.1-2.48.05-2.55.07-4.5.07-6.22,0-.77,0-3.52-.1-4.48-.02-.29-.05-.39-.24-1.33l1.95.65c.36.12.46.14.46.31,0,.26-.39.46-.77.67,0,1.57.07,6.89.12,11.47h15.01l.82-1.21c.1-.14.19-.29.36-.29.12,0,.26.1.41.24l1.25,1.18c.14.12.24.24.24.38,0,.22-.22.27-.39.27ZM276.32,23.04h-7.37v2.72h7.37v-2.72ZM276.32,26.34h-7.37v2.72h7.37v-2.72ZM276.32,29.64h-7.37v2.82h7.37v-2.82Z"/>
      <path class="cls-2" d="M305.47,37.11c-.55-.05-1.18-.05-1.57-.05-6.07,0-6.29.02-8.34-.29-3.3-.48-4.41-1.28-5.61-2.87-.41.39-2.14,2.12-2.51,2.48,0,.41,0,.96-.39.96-.07,0-.22-.02-.31-.14l-1.42-1.78c1.42-.1,3.28-1.04,3.71-1.33v-7.28c-1.06,0-2.34.1-3.23.26l-.58-1.04c.92.07,2.72.14,3.45.17l.63-.53c.19-.17.29-.24.41-.24.1,0,.22.12.29.17l.8.75c.14.12.22.22.22.31,0,.22-.36.46-.75.72,0,.26,0,.58-.02,3.33-.02,3.2-.02,5.04,6.75,5.04,1.42,0,4.6-.14,6.99-.39,1.69-.17,2.29-.34,3.08-.53l.02.07c-.58.22-1.42,1.06-1.61,2.19ZM289.98,20.31c-.53,0-.6-.29-.87-1.18-.31-1.06-.89-2.12-1.76-2.7l.1-.14c1.71.58,3.4,1.73,3.4,3.08,0,.55-.41.94-.87.94ZM303.64,18.27c-.51.02-.75.02-2.05.84-.07.05-1.62.99-1.88,1.13.22.19.53.46.53,1.06,0,.46-.22.77-.67.77s-.63-.29-.92-.79c-.51-.92-1.23-1.69-2.1-2.29v-.17c1.45.36,2.41.92,2.82,1.18.51-.46,1.2-1.18,2.22-2.31h-5.33c-.72,0-2.1.07-3.08.29l-.58-1.06c1.28.12,2.75.19,4,.19h5.16l.7-.53c.12-.1.26-.19.41-.19s.34.12.39.17l1.16.89c.14.12.22.22.22.36,0,.39-.46.41-.99.46ZM305.74,22.72c-.1.1-.41.29-.67.43,0,1.18.07,6.91.07,8.22,0,.82-.02,1.28-.36,1.71-.07.12-.6.77-1.71,1.04-.34-.92-1.11-1.64-1.81-1.85l.02-.14c.7.05,1.08.05,1.4.05,1.04,0,1.13-.19,1.13-1.08v-1.49h-4.02c0,.55.1,3.4.1,3.71,0,.94-.75.94-.92.94-.48,0-.48-.34-.48-.55,0-.96.02-3.08.02-4.1h-4.14c0,.43.05,2.6.05,3.08,0,1.16-.87,1.18-.92,1.18-.53,0-.53-.34-.53-.53,0-.53.07-1.37.07-1.88.02-.92.05-2.82.05-4.05,0-1.52,0-4.94-.26-6.19l1.98.89h8.7l.6-.55c.07-.07.17-.14.27-.14.07,0,.19.05.26.1l1.06.63c.1.07.24.14.24.29,0,.19-.12.24-.19.31ZM298.54,22.67h-4.22v2.89h4.22v-2.89ZM294.32,26.14c0,.96,0,1.9.02,2.87h4.17c.02-.46.02-2.46.02-2.87h-4.22ZM303.81,22.67h-4.07v2.89h4.07v-2.89ZM303.81,26.14h-4.07c0,2.02,0,2.26.02,2.87h4.05v-2.87Z"/>
      <path class="cls-2" d="M328.67,37.32h-19.5v-1.34c.99-3.12,3.32-6.6,7.29-11.11,7.29-8.43,9.77-11.26,9.77-16.22,0-3.72-2.38-6.8-6.6-6.8-3.47,0-5.56,2.08-5.56,3.87,0,.15,0,.79.5,1.54.64.99,1.04,1.54,1.04,2.48,0,1.49-1.19,2.78-2.68,2.78-1.74,0-2.83-1.64-2.83-3.47,0-3.62,3.52-8.88,10.67-8.88,6.15,0,9.92,3.87,9.92,9.23,0,5.01-2.88,7.74-7.34,11.56-1.69,1.39-8.24,6.99-10.72,12.45h6.85c6.95,0,8.58-2.68,10.07-6.8l1.49.55-2.38,10.17Z"/>
      <path class="cls-2" d="M356.3,27.35c0,5.75-4.51,10.91-11.71,10.91-5.66,0-10.71-3.27-10.71-8.93,0-5.36,4.27-7.89,8.83-10.57-2.63-1.54-7.39-4.32-7.39-9.72,0-4.91,3.87-8.88,9.92-8.88,6.8,0,9.08,5.06,9.08,7.84,0,4.22-4.07,7.29-6.2,8.88,4.66,2.88,8.18,5.36,8.18,10.47ZM338.04,29.18c0,4.37,3.27,7.39,7.14,7.39,4.32,0,7.54-3.82,7.54-7.49,0-4.71-4.91-7.49-8.53-9.52-2.23,1.69-6.15,4.71-6.15,9.62ZM350.69,8.55c0-3.77-2.53-6.7-6.15-6.7s-5.85,2.68-5.85,5.9c0,3.47,2.83,5.21,7.99,8.28,1.44-1.24,4.02-3.37,4.02-7.49Z"/>
      <path class="cls-2" d="M367.71,15.54c1.04-.64,2.58-1.29,4.32-1.29,4.91,0,8.88,4.96,8.88,10.96,0,6.89-4.91,13.05-10.62,13.05s-11.41-6.4-11.41-17.11c0-11.46,6.45-20.98,14.04-20.98,3.32,0,5.66,1.98,5.66,4.37,0,1.79-1.39,2.58-2.53,2.58-.99,0-2.63-.65-2.73-3.47-.05-1.09-.15-1.79-1.49-1.79s-2.68.74-3.62,1.79c-4.42,4.86-4.66,12.15-4.86,16.62.94-1.54,1.98-3.27,4.37-4.71ZM366.07,33.9c.84,1.34,2.13,2.68,4.02,2.68,2.63,0,6.35-2.73,6.35-10.91,0-2.23-.54-9.18-5.65-9.18-1.89,0-5.06,1.39-7.39,6.75.2,2.73.59,7.49,2.68,10.67Z"/>
      <path class="cls-2" d="M390.58,19.18c-1.78,3.42-4.51,6.6-7.28,8.38l-.1-.17c1.4-1.57,3.69-4.63,5.16-7.3.89-1.64.99-2.26,1.01-2.99l1.83,1.21c.24.14.34.22.34.34,0,.31-.6.46-.96.53ZM400.1,26.39s-.24.19-.53.41c-.05.87-.19,4.72-.27,5.49-.31,2.82-.67,5.11-4.43,5.37-.07-1.13-.84-1.81-1.83-2.14v-.22c.36.05.53.07,1.93.22.34.05.63.05.8.05.41,0,1.37,0,1.66-.8.6-1.59.82-6.26.82-8.02,0-.39,0-.43-.05-.84h-5.4c-.07,1.49-.31,2.96-.7,4.38-1.11,4.1-4.07,6.51-8.29,7.57l-.05-.19c6.14-2.84,7.42-7.25,7.61-11.76h-.41c-.84,0-2.19.12-3.11.29l-.55-1.04c1.81.14,3.54.17,4,.17h6.75l.55-.51c.17-.14.24-.22.36-.22s.19.07.31.19l.87.92c.07.07.19.22.19.34,0,.14-.07.22-.24.34ZM403.88,26.55c-3.54-1.59-5.98-4.92-7.32-8.89h-2.58c-.39,0-.94.05-1.33.14l-.24-.79c.43.02,1.35.07,1.71.07h2.29l.55-.6c.24-.26.34-.26.43-.26.17,0,.34.14.41.24l.84.79c.1.1.19.19.19.36,0,.46-.67.55-1.61.65,1.42,3.88,6.1,6.46,8.94,6.55v.19c-1.23.29-1.78.96-2.29,1.54Z"/>
      <path class="cls-2" d="M324.35,73.84c-1.21-.96-5.61-5.08-5.61-11.66s4.41-10.7,5.61-11.66l.24.34c-3.93,4.07-4.79,8.53-4.79,11.32s.87,7.25,4.79,11.32l-.24.34Z"/>
      <path class="cls-2" d="M336.3,71.33h-9.57v-.65c1.4-2.99,3.28-4.99,5.45-7.2,1.52-1.54,3.28-3.47,3.28-6.12,0-1.25-.43-3.32-3.18-3.32-2.1,0-3.11,1.13-3.11,1.9,0,.24.12.55.22.72.29.65.29.92.29,1.11,0,.84-.53,1.23-1.18,1.23-.84,0-1.11-.6-1.11-1.35,0-2.19,2.05-4.34,5.23-4.34,2.87,0,4.7,1.74,4.7,4.46,0,1.61-.58,2.58-1.78,3.95-.58.67-3.54,3.25-4.12,3.81-.31.31-2.1,2.12-3.23,4.19h4.82c2.84,0,3.59-2.07,4.02-3.25l.46.12-1.18,4.75Z"/>
      <path class="cls-2" d="M342.66,71.79c-1.76,0-2.87-.94-2.87-2.1,0-.84.48-1.16,1.11-1.16,1.11,0,1.25.96,1.25,1.25,0,.58.05,1.25.99,1.25.79,0,1.54-.43,1.98-.92,2.1-2.26,2.29-5.69,2.38-8.31-1.13,1.61-2.17,3.13-4.36,3.13-2.6,0-4.31-2.43-4.31-5.45,0-3.59,2.39-6.19,5.08-6.19s5.57,3.01,5.57,8.36c0,4.53-2.34,10.12-6.82,10.12ZM346.39,55.72c-.82-1.4-1.49-1.61-2.46-1.61-2.63,0-3.25,3.37-3.25,5.42,0,1.3.24,4.34,2.87,4.34,2.48,0,3.59-2.84,3.95-3.81-.22-2.07-.46-3.21-1.11-4.34Z"/>
      <path class="cls-2" d="M356.2,71.79c-3.4,0-5.42-4.34-5.42-9.25s1.98-9.23,5.42-9.23,5.42,4.34,5.42,9.23-2.02,9.25-5.42,9.25ZM356.2,53.99c-1.83,0-3.64,2.29-3.64,8.55s1.85,8.58,3.64,8.58c1.69,0,3.64-1.98,3.64-8.58s-1.95-8.55-3.64-8.55Z"/>
      <path class="cls-2" d="M370.51,54.61c-1.78,3.42-4.51,6.6-7.28,8.38l-.1-.17c1.4-1.57,3.69-4.63,5.16-7.3.89-1.64.99-2.26,1.01-2.99l1.83,1.21c.24.14.34.22.34.34,0,.31-.6.46-.96.53ZM380.03,61.82s-.24.19-.53.41c-.05.87-.19,4.72-.27,5.49-.31,2.82-.67,5.11-4.43,5.37-.07-1.13-.84-1.81-1.83-2.14v-.22c.36.05.53.07,1.93.22.34.05.63.05.8.05.41,0,1.37,0,1.66-.8.6-1.59.82-6.26.82-8.02,0-.39,0-.43-.05-.84h-5.4c-.07,1.49-.31,2.96-.7,4.38-1.11,4.1-4.07,6.51-8.29,7.57l-.05-.19c6.14-2.84,7.42-7.25,7.61-11.76h-.41c-.84,0-2.19.12-3.11.29l-.55-1.04c1.81.14,3.54.17,4,.17h6.75l.55-.51c.17-.14.24-.22.36-.22s.19.07.31.19l.87.92c.07.07.19.22.19.34,0,.14-.07.22-.24.34ZM383.81,61.99c-3.54-1.59-5.98-4.92-7.32-8.89h-2.58c-.39,0-.94.05-1.33.14l-.24-.79c.43.02,1.35.07,1.71.07h2.29l.55-.6c.24-.26.34-.26.43-.26.17,0,.34.14.41.24l.84.79c.1.1.19.19.19.36,0,.46-.67.55-1.61.65,1.42,3.88,6.1,6.46,8.94,6.55v.19c-1.23.29-1.78.96-2.29,1.54Z"/>
      <path class="cls-2" d="M387.81,73.5c3.93-4.07,4.79-8.53,4.79-11.32s-.87-7.25-4.79-11.32l.24-.34c1.21.96,5.61,5.11,5.61,11.66s-4.41,10.7-5.61,11.66l-.24-.34Z"/>
    </g>
    <g>
      <path class="cls-2" d="M8.13,62.45h-.46c-.6,0-1.06.31-1.06,1.03v8.62c0,1.92-1.23,3.24-2.92,3.24-.78,0-1.44-.35-1.44-1.08,0-.35.21-.87.86-.87.45,0,.66.13.87.79.09.29.27.39.56.39.67,0,.9-.57.9-1.47v-9.63c0-.67-.42-1.03-1.06-1.03h-.62v-.5h4.39v.5Z"/>
      <path class="cls-2" d="M13.8,61.96c1.85,0,4.14.52,4.14,2.61,0,.69-.26,1.4-.99,2.01-.62.51-1.17.68-1.79.84l1.71,3.75c.34.75.94,1.26,1.8,1.26h.25v.48h-2.57l-2.43-5.35h-1.74v3.84c0,.66.42,1.04,1.07,1.04h.48v.48h-4.27v-.48h.46c.66,0,1.08-.38,1.08-1.04v-7.91c0-.64-.39-1.03-1.08-1.03h-.46v-.5h4.33ZM12.2,67.07h1.6c1.39,0,2.71-.75,2.71-2.37,0-1.03-.55-2.25-2.52-2.25h-.73c-.65,0-1.07.36-1.07,1.03v3.58Z"/>
      <path class="cls-2" d="M27.5,68.57c1.35,1.58,3.75,3.03,6.45,3.15v.12c-.88.23-1.35.83-1.6,1.37-.47-.15-3.81-1.88-5.12-4.56.01.67.03,3.63.06,4.23,0,.08.02.44.02.51,0,.53-.48.74-.84.74-.31,0-.39-.22-.39-.42,0-.04,0-.17.02-.33.07-1.04.17-2.33.17-4.08-1.38,1.65-4.11,3.44-6.33,3.96l-.04-.12c2.26-.92,5.38-4.06,5.68-4.56h-2.01c0,.51-.11.88-.78.88-.32,0-.38-.15-.38-.33,0-.17.07-.9.07-1.05.03-.5.04-1.3.04-2.11,0-1.37-.04-1.85-.2-2.45l1.4.62h2.55c0-.35-.01-1.17-.03-1.54h-4.08c-.27,0-1.05,0-1.77.13l-.3-.6c1.11.09,2.08.1,2.31.1h3.82c-.04-.92-.09-1.46-.3-1.95l1.56.41c.13.03.26.09.26.21,0,.17-.36.41-.5.5v.84h4.08l.65-.75c.1-.12.17-.2.24-.2s.17.08.27.17l.92.75c.11.09.15.15.15.23,0,.13-.13.17-.23.17h-6.09v1.54h2.57l.49-.44s.12-.1.18-.1c.08,0,.17.06.21.1l.67.54c.09.08.15.15.15.24,0,.13-.09.2-.48.43-.01.33-.01.77.03,1.88.01.21.09,1.82.09,1.95,0,.48-.44.63-.77.63-.4,0-.39-.31-.36-.79h-2.52ZM23.54,64.49v1.62h2.71v-1.62s-2.71,0-2.71,0ZM26.25,68.21v-1.74h-2.71v1.74h2.71ZM30.02,68.21v-1.74h-2.79c0,.24-.01,1.47-.01,1.74h2.8ZM30.02,66.11v-1.62h-2.79v1.62h2.79Z"/>
      <path class="cls-2" d="M36.8,66.59c-.33,0-.43-.23-.7-.79-.32-.65-.47-.79-.92-1.26l.06-.09c1.29.32,2.16.53,2.16,1.5,0,.44-.35.65-.6.65ZM38,67.81c-.21.71-.62,1.8-.75,2.54-.03.13-.06.27-.06.39,0,.24.11.64.29,1.25.2.61.22.76.22,1,0,.48-.24.88-.72.88-.72,0-.74-.78-.74-1.04,0-.22.12-1.2.12-1.39,0-.36-.11-.71-.24-1.02-.13-.3-.24-.38-.67-.71v-.09c.42,0,.84,0,1.09-.42.72-1.2,1.59-3.5,2.28-5.31l.17.03c-.17.61-.84,3.34-.99,3.88ZM38.02,63.02c-.47,0-.59-.31-.93-1.2-.17-.45-.39-.75-.66-1.11l.04-.09c.62.19,2.13.66,2.13,1.8,0,.41-.31.6-.58.6ZM48.62,67.97h-2.38c-.01.52-.04,1.54-.24,3.17h.68l.54-.68c.11-.12.17-.18.24-.18s.15.06.27.17l.76.66c.09.09.13.15.13.22,0,.13-.12.17-.22.17h-2.45c-.13.86-.42,2.55-2.25,2.61-.09-.78-.63-1.32-1.09-1.54v-.09c.54.13,1.2.19,1.42.19.39,0,.71,0,.93-1.17h-4.14c-.08.62-.12,1.05-.83,1.05-.24,0-.4-.13-.4-.39,0-.17.03-.32.08-.55.24-1.21.33-1.71.64-3.63-.08,0-.76.01-1.39.13l-.3-.6c.48.04.76.06,1.74.09.16-1,.27-1.95.27-2.78,0-.39-.02-.57-.04-.75l1.11.63h3.54l.41-.4c.11-.11.18-.17.27-.17.08,0,.15.06.29.18l.45.42c.09.09.17.2.17.25,0,.13-.3.3-.5.39,0,.09-.06,1.81-.06,2.23h.73l.44-.62c.09-.13.15-.18.21-.18s.15.04.29.15l.79.61c.06.04.13.17.13.23,0,.12-.1.17-.22.17ZM47.67,62.93h-6.42c-.69,1.16-1.75,2.07-2.33,2.55l-.07-.08c.58-.76,2.14-3.39,2.19-5.02l1.3.67c.08.03.15.12.15.2,0,.13-.08.19-.48.3-.31.6-.42.78-.55,1.02h4.5l.51-.67c.09-.12.17-.18.24-.18.09,0,.15.04.27.15l.78.68c.08.07.13.15.13.22,0,.12-.08.17-.23.17ZM41.27,67.97l-.4,3.17h1.51c.15-1.17.19-1.56.21-1.68.03-.18.15-1.24.18-1.48h-1.5ZM41.62,65.06c-.09.64-.23,1.84-.3,2.55h1.49c.09-.85.1-1.02.18-2.55h-1.36ZM43.7,67.97c-.15,1.47-.16,1.63-.38,3.17h1.68c.09-.75.18-1.67.24-3.17h-1.54ZM43.97,65.06c-.04.55-.06.74-.23,2.55h1.52c.01-.45.07-1.96.04-2.55h-1.33Z"/>
      <path class="cls-2" d="M62.79,73.51c-.24.03-.3.04-.53.04-1.12,0-4.74,0-5.7-.1-2.43-.24-3.03-1.21-3.45-2.08-.38.48-1.04,1.39-1.56,2.1-.04.24-.08.41-.2.41-.09,0-.18-.11-.24-.18l-.93-1.17c.21-.02.49-.03.9-.23.13-.06.84-.4,1.38-.83v-4.23c-.4,0-1.27,0-1.98.13l-.3-.6c.72.06,1.14.08,1.99.09l.57-.54c.12-.1.2-.13.27-.13s.14.03.27.13l.6.48c.07.06.12.13.12.21,0,.06-.03.13-.12.21-.06.06-.3.24-.41.33-.01.04-.03.27-.03.3v2.97s.02,1.25,1.72,1.53c.68.12,1.34.18,2.67.18,1.94,0,3.88-.08,5.75-.64l.03.06c-.68.87-.75,1.12-.84,1.56ZM52.85,63.65c-.48,0-.58-.3-.85-1.08-.27-.81-.54-1.2-.96-1.68l.04-.03c1.06.24,2.4,1.08,2.4,2.07,0,.39-.24.72-.63.72ZM63.14,63.04h-4.33c-.35.57-.62.97-1.09,1.63h2.62l.41-.45c.12-.12.16-.17.24-.17s.18.06.29.15l.58.46c.11.08.18.18.18.27,0,.13-.11.23-.42.53-.04.52-.04.83-.04,1.09,0,.97.04,2.26.08,3.66.01.09.03.57.03.67,0,.31-.12.71-.69.71-.01,0-.39,0-.39-.33,0-.04.01-.25.01-.3h-4.35c.01.33.03.42-.12.61-.2.24-.46.27-.55.27-.22,0-.41-.15-.41-.44,0-.17.06-.94.06-1.12.03-.79.04-1.71.04-2.82s0-2.47-.18-3.34l1.29.54h.96c.11-1.28.11-1.42.12-1.63h-1.5c-.33,0-1.11.01-1.77.15l-.3-.6c.76.06,1.53.09,2.31.09h2.33c.27-.62.81-1.89.73-2.47l1.38.6c.15.06.2.12.2.22s-.08.18-.58.3c-.45.45-.62.6-1.44,1.35h2.4l.57-.67c.12-.14.2-.2.27-.2s.17.04.3.17l.86.69c.06.04.15.13.15.22,0,.12-.09.15-.22.15ZM57.12,62.53c-.35,0-.41-.15-.71-.84-.27-.58-.54-.87-.83-1.12l.03-.08c.81.12,2.03.6,2.03,1.44,0,.3-.17.6-.53.6ZM60.62,65.03h-4.36v1.58h4.36v-1.58ZM60.62,66.97h-4.36v1.62h4.36v-1.62ZM60.62,68.95h-4.36v1.67h4.36v-1.67Z"/>
      <path class="cls-2" d="M68.06,68.41c-.66,0-1.2-.54-1.2-1.2s.54-1.2,1.2-1.2,1.2.51,1.2,1.2-.55,1.2-1.2,1.2Z"/>
      <path class="cls-2" d="M84.74,64.45c-.03.53-.04.98-.04,2.17,0,.98.1,5.33.1,6.21,0,.74-.71.74-.76.74-.42,0-.42-.36-.42-.6,0-.13.03-.72.03-.84h-8.7c.01.98.01,1.46-.72,1.46-.45,0-.45-.38-.45-.54,0-.43.12-2.61.12-3.1,0-.53.02-2.13.02-3.2,0-2.26-.11-2.8-.24-3.49l1.47.39c.15.04.31.09.31.24,0,.17-.06.19-.53.45-.01.3-.01.56-.01.92,0,1.04.03,5.59.03,6.53h3.73s-.01-6.69-.01-6.71c.04-2.98-.1-3.51-.33-4.33l1.68.42c.12.03.24.08.24.21,0,.18-.1.24-.52.51-.04.74-.02,9.17-.02,9.9h3.95c0-.71.01-3.81.01-4.44,0-2.71-.13-3.31-.29-4l1.54.42c.18.04.29.09.29.24,0,.17-.06.2-.48.46Z"/>
      <path class="cls-2" d="M91.04,61.28l.36-.31c.09-.09.16-.15.25-.15.08,0,.14.03.27.15l.58.55c.15.13.21.21.21.27,0,.19-.25.31-.74.48-.18.3-1.42,2.28-1.95,2.97.64.48,2.05,1.7,2.05,3.2s-1.29,1.95-1.72,2.08c-.12-.6-.44-1.09-.92-1.41v-.1c.23.03.53.09.86.09.55,0,.77-.14.77-.79,0-1.04-.51-2.33-1.35-3.02.81-1.95.93-2.2,1.26-3.64h-1.83c-.03.69-.03,6.21-.03,7.35,0,.48.08,2.82.08,3.66,0,.43,0,.95-.69.95-.41,0-.42-.23-.42-.36,0-1.18.06-3.09.06-4.29,0-.45.02-3.83.02-4.08,0-1.06,0-3.27-.09-4.17l1.23.58h1.74ZM94.21,68.6c-.33.43-1.76,2.17-3.41,2.92l-.03-.09c.69-.57,2.21-1.92,3.33-4.62h-.25c-.39,0-1.11.01-1.77.13l-.28-.6c.76.06,1.53.1,2.29.1h4.84l.53-.63c.09-.1.16-.18.24-.18.1,0,.21.11.27.15l.64.61c.08.08.15.15.15.24,0,.15-.13.17-.22.17h-5.18c-.34.66-.6,1.04-.88,1.42h3.97l.35-.39c.09-.09.18-.2.24-.2.12,0,.22.09.28.13l.67.53s.12.11.12.2c0,.21-.3.38-.52.5-.04.43-.2,2.1-.27,2.5-.3,1.44-.85,2.01-2.35,2.26-.15-.71-.44-1.08-.93-1.54l.06-.09c.74.22,1.18.24,1.35.24.27,0,.6,0,.76-.61.17-.63.2-.89.39-3.17h-.79c-.44,1.75-1.89,4.26-4.79,5.28l-.04-.07c2.04-1.31,3.18-3.33,3.72-5.21h-.78c-1.03,2.49-2.58,3.79-4.66,4.72l-.03-.09c2.06-1.44,3.21-3.48,3.6-4.63h-.62ZM97.19,61.18l.27-.29c.09-.1.17-.17.23-.17.08,0,.17.04.23.09l.57.42c.15.12.18.18.18.21,0,.15-.06.2-.44.47.02.85.08,2.23.08,3.1,0,.64-.58.66-.69.66-.34,0-.36-.21-.34-.58h-2.75c0,.29-.11.64-.63.64-.39,0-.39-.24-.39-.39,0-.42.03-2.28.03-2.67,0-.66,0-1.17-.1-2.1l1.18.6h2.58ZM94.52,61.54v1.39h2.75v-1.39h-2.75ZM94.52,63.29v1.44h2.75v-1.44h-2.75Z"/>
      <path class="cls-2" d="M104.51,68.83c-.24,0-1.04,0-1.75.13l-.3-.6c1.09.09,2.04.11,2.31.11h.58c0-.89-.01-1.54-.13-2.16l1.37.38c.12.03.21.1.21.21s-.08.21-.47.41c-.03.33-.04.58-.06,1.17h1.23l.51-.54c.12-.12.19-.2.25-.2.09,0,.21.09.29.15l.67.55c.08.06.15.13.15.22,0,.14-.13.17-.24.17h-2.87c-.01.13-.01.25-.01.74.78.1,2.08.51,2.08,1.44,0,.42-.3.62-.56.62-.36,0-.51-.34-.61-.6-.14-.33-.38-.88-.92-1.28,0,.58.11,3.12.11,3.63,0,.46-.26.65-.71.65-.33,0-.46-.15-.46-.42,0-.2.18-2.6.18-3,0-.12-.02-.72-.02-.83-.57.87-1.84,2.28-3.42,3l-.06-.09c1.5-1.35,2.55-3.04,2.99-3.86h-.35ZM107.84,65.92l.45-.53c.11-.12.17-.2.23-.2.1,0,.2.11.27.17l.62.53c.07.06.15.15.15.24,0,.13-.12.15-.23.15h-4.96c-.25,0-1.03,0-1.77.13l-.29-.58c1.1.08,2.05.09,2.29.09h1.65c.15-.32.87-1.92.81-3.09l1.35.75c.1.06.15.14.15.24,0,.25-.32.27-.54.29-.15.21-.91,1.17-1.54,1.82h1.37ZM107.51,62.35l.53-.57c.07-.09.18-.18.24-.18.09,0,.18.08.27.15l.66.57c.09.08.15.14.15.24,0,.13-.12.15-.22.15h-4.27c-.26,0-1.04,0-1.77.13l-.29-.6c.76.08,1.53.11,2.29.11h.48c.02-.66-.03-1.33-.24-2.05l1.51.4c.13.03.22.09.22.21,0,.15-.21.3-.51.46,0,.15-.03.76-.03.97h.97ZM103.96,63.08c.55.3,1.67.96,1.67,1.83,0,.41-.24.66-.56.66-.4,0-.58-.25-.66-.85-.06-.5-.13-.92-.55-1.56l.11-.07ZM114.88,61.31c.06.06.09.12.09.21s-.08.18-.24.18c-.11,0-.22-.03-.58-.12-.95.25-2.77.42-3.18.43-.01.92-.03,2.4-.04,3.41h3.08l.55-.71c.06-.09.15-.2.25-.2.05,0,.18.08.27.17l.78.69c.07.06.15.15.15.24,0,.15-.14.17-.23.17h-2.26c0,.95.07,4.89.07,4.98,0,.4.08,2.17.08,2.58,0,.48-.45.69-.81.69s-.4-.2-.4-.39c0-.09,0-.26.01-.44.06-1.2.11-3.51.11-5.92,0-.45-.01-.99-.03-1.5h-1.62c-.03,3.51-.52,6.15-3.45,7.86l-.09-.09c1.89-1.95,2.56-3.57,2.56-8.97,0-.92-.01-2.75-.24-3.53l1.34.65c.49-.14,2.07-.6,2.71-1.41l1.12,1.02Z"/>
      <path class="cls-2" d="M123.95,62.65h-2.92c0,.83,0,1.19.01,1.65h1.03l.29-.35c.08-.1.15-.18.23-.18s.17.06.22.11l.62.39c.1.06.17.13.17.22,0,.11-.04.2-.45.51.01.61.03,2.14.06,2.67,0,.1.04.57.04.66,0,.5-.34.68-.73.68-.34,0-.34-.27-.33-.54h-1.15c-.02.43-.02,1.45-.02,1.93h1.25l.43-.58c.04-.08.15-.2.22-.2.09,0,.2.09.29.17l.75.58c.09.08.15.14.15.23,0,.15-.12.17-.22.17h-2.85c0,.22.06,2.1.06,2.31,0,.33,0,.92-.75.92-.33,0-.39-.18-.39-.41,0-.45.06-2.42.06-2.82h-.67c-.2,0-1.04,0-1.77.13l-.3-.6c.99.09,2.03.11,2.31.11h.43c.01-1.46.01-1.6.01-1.93h-1.14c.01.3.01.69-.63.69-.42,0-.42-.29-.42-.43,0-.51.07-2.79.07-3.24,0-1.08-.04-1.33-.1-1.77l1.16.58h1.09v-1.65h-.52c-.38,0-1.1.02-1.77.13l-.28-.6c1.02.09,2.08.11,2.29.11h.28c-.03-1.19-.03-1.32-.28-1.98l1.42.34c.12.03.27.06.27.21,0,.09-.06.17-.42.39-.01.17-.01.81-.01,1.04h1.41l.45-.6c.09-.12.13-.19.22-.19s.21.1.27.16l.66.6c.08.08.14.15.14.22,0,.15-.12.17-.23.17ZM122.18,64.66h-3.3v1.49h3.3v-1.49ZM122.18,66.5h-3.3v1.6h3.3v-1.6ZM130.11,65.72c-1.87-1.19-2.71-3.22-3.03-4.23-.61,1.62-2.37,3.76-3.84,4.95l-.06-.09c1.26-1.74,2.9-4.63,3.03-6.17l1.29.75c.11.06.18.12.18.21,0,.13-.1.18-.41.27.65,1.29,2.1,2.73,4.01,3.1v.11c-.53.28-.66.38-1.17,1.09ZM130.77,69.34h-3.43c.01.62.12,3.84.12,3.9,0,.24,0,.84-.71.84-.48,0-.48-.33-.48-.6,0-.14.08-3.23.08-3.46v-.68h-.64c-.38,0-1.1.02-1.76.14l-.3-.6c1.02.09,2.08.11,2.29.11h.4v-2.22c-.39,0-1.14,0-1.88.13l-.3-.6c1.03.09,2.1.1,2.31.1h1.53l.45-.62c.07-.1.15-.18.22-.18.11,0,.21.09.29.17l.72.6c.08.06.14.12.14.23,0,.13-.12.17-.23.17h-2.26c0,.52-.02,1.46,0,2.22h1.7l.55-.74c.09-.12.15-.19.24-.19s.19.1.27.18l.76.72c.08.08.14.13.14.23,0,.15-.12.16-.23.16Z"/>
      <path class="cls-2" d="M132.2,73.28c.84-2.05,1.09-4.41,1.09-4.6,0-.17-.02-.35-.04-.51l1.32.5c.06.03.16.08.16.2,0,.13-.04.17-.39.41-.32.96-.97,2.86-2.04,4.06l-.1-.04ZM138.17,62.92c.06.04.11.1.11.21,0,.18-.15.22-.63.33-.51.69-1.3,1.74-2.64,3.24.08-.01,1.09-.04,1.88-.12-.1-.25-.29-.63-.54-1.06l.08-.11c.81.35,1.83,1,1.83,1.79,0,.34-.21.67-.6.67s-.4-.12-.69-1.08c-.22.08-.48.15-1.07.32.01,2.07,0,3.13.03,4.41,0,.27.04,1.42.04,1.66,0,.23,0,.83-.67.83-.42,0-.42-.34-.42-.46,0-.69.12-5.22.13-6.21-.38.09-.85.21-1.92.42-.21.23-.23.25-.34.25-.11,0-.18-.1-.21-.21l-.31-1.27c.33.09.72.22,1.39.22.09,0,.9-.03,1.02-.04.99-1.47,2.26-3.71,2.25-4.62l1.29.84ZM132.79,62.77c.31.03.9.09,1.56.48,0-.02.75-1.98.65-2.94l1.44.75c.09.04.15.12.15.2,0,.15-.13.21-.66.42-.54.73-.73.96-1.37,1.71.2.15.66.5.66,1.06,0,.41-.27.69-.57.69-.38,0-.51-.32-.62-.54-.16-.39-.57-1.12-1.29-1.72l.04-.11ZM136.25,68.56c1,.36,1.77,1.06,1.77,1.68,0,.34-.2.64-.57.64-.42,0-.49-.24-.72-1.05-.12-.42-.3-.88-.57-1.18l.09-.09ZM138.57,68.81c-.38,0-.63.03-.75.06l-.21-.48c.55.04,1,.06,1.14.06h.46l.29-.34s.1-.12.19-.12c.06,0,.17.08.23.13l.6.57c.06.06.16.15.16.25,0,.12-.04.18-.49.34-.72,1.58-1.83,3.02-3.51,3.84l-.03-.09c1.74-1.67,2.31-3.36,2.6-4.23h-.68ZM141.7,66.85l.27.09c.11.03.33.12.33.27,0,.18-.27.33-.39.39,0,.55.59,1.63.87,2.05.85-.78,1.38-1.42,1.62-2.04l1.04,1.04s.07.12.07.2c0,.03-.01.19-.24.19-.04,0-.24-.01-.39-.03-.72.33-1.28.54-2.01.79.87,1.23,2.16,2.1,3.63,2.44v.12c-1.05.25-1.26.58-1.51.96-1.51-1.16-2.52-2.62-3.04-4.46,0,.56.09,3,.09,3.5,0,.36,0,1.39-1.5,1.67-.17-.48-.33-.95-1.55-1.46v-.12c.25.03,1.26.09,1.46.09.6,0,.62-.12.62-.57v-4.05c0-.51,0-.83-.04-1.08h-1.2c.02.41-.24.62-.6.62-.33,0-.48-.12-.48-.39,0-.21.08-2.17.08-2.58,0-.79-.01-2.29-.14-2.98l1.22.64h.9c.06-.25.13-.71.13-1.24,0-.27-.01-.39-.07-.74l1.41.45c.12.04.25.1.25.25,0,.19-.15.24-.54.31-.3.41-.51.63-.81.96h2.04l.41-.46c.04-.06.18-.17.25-.17s.17.06.23.11l.71.52c.09.06.19.17.19.25,0,.14-.06.17-.56.53,0,.62.14,3.51.14,3.84,0,.45-.3.66-.71.66s-.41-.24-.39-.58h-1.77ZM139.79,62.51v1.8h3.68v-1.8h-3.68ZM143.46,66.49v-1.81h-3.68v1.81h3.68Z"/>
      <path class="cls-2" d="M153.62,72.58v-.12c3.19-1.14,4.69-3.25,4.69-5.53,0-2.54-2.04-4.04-4.65-4.04-.38,0-.45.01-.61.09.81.44,1.03.99,1.03,1.2,0,.17-.04.27-.51,1.25-.96,2.05-2.37,5.07-3.39,5.91-.11.08-.29.17-.48.17-.34,0-.48-.19-.93-.83-.11-.15-.71-.7-.81-.84-.16-.24-.42-.78-.42-1.53,0-3.23,2.73-5.88,6.39-5.88,2.91,0,5.55,1.69,5.55,4.71s-2.43,5.14-5.86,5.44ZM152.44,63.07c-1.65.27-3.95,2.4-3.95,5.16,0,1.02.58,2.14,1.17,2.14.41,0,.99-1.06,1.25-1.57,1.5-3.02,2-3.99,2-4.77,0-.38-.18-.69-.46-.96Z"/>
      <path class="cls-2" d="M172.91,66.35c-.24,0-1.3-.06-1.51-.06-3.46,0-5.42,1.98-5.42,3.55,0,1.75,2.1,2.23,3.5,2.43.46.06.79.33.79.79,0,.22-.09.46-.65.46-.81,0-4.3-.79-4.3-3.34,0-1.86,1.61-2.97,2.93-3.78-1.34.04-3.88.96-5.43,1.86-.09.04-.51.29-.83.29-.55,0-.75-.41-.75-.66,0-.38.15-.43,1.02-.72,1.47-.5,2.9-1.67,4.6-3.24.42-.38,1.89-1.79,1.89-2.13,0-.1-.09-.15-.18-.15-.51,0-1.7.6-2.22.98-.58.41-.64.45-.86.45-.46,0-1.06-.65-1.06-1.35,0-.3.09-.43.18-.58.35.5.53.66.88.66.41,0,3.04-.79,3.51-.79.54,0,1.17.71,1.17,1.16,0,.25-.08.3-.75.72-.47.29-2.35,1.8-2.76,2.07-.4.28-2.52,1.68-2.59,1.75-.02.01-.04.04-.04.07s.03.06.1.06c.06,0,.36-.08.45-.11,1.72-.48,2.83-.71,6.73-1.59.35-.08.53-.1.64-.1.54,0,1.38.51,1.38.93,0,.38-.41.38-.44.38ZM172.79,64.52c-.21,0-.26-.04-.74-.71-.07-.1-.58-.79-1.39-1.3,1.16.09,2.52.75,2.52,1.56,0,.23-.15.45-.39.45ZM174.32,63.55c-.18,0-.24-.06-.77-.72-.19-.26-.61-.74-1.35-1.2,1.02.08,2.49.6,2.49,1.46,0,.25-.13.46-.38.46Z"/>
      <path class="cls-2" d="M187.5,71.15c-.19,0-.39-.11-.81-.46-.88-.78-1.5-1.14-1.79-1.32-.97,1.96-2.25,3.39-3.75,4.04l-.04-.06c1.28-1.26,2.26-2.77,2.94-4.44-1.08-.53-2.19-.96-3.72-1.11-.5.96-2.08,4.12-3.45,4.12-.72,0-1.24-1.2-1.24-1.81,0-1.83,2.14-2.78,4.08-2.92,1.08-2.45,1.69-4.53,1.69-4.59,0-.11-.09-.15-.17-.15-.39,0-1.21.55-1.51.75-.27.18-.42.25-.54.25-.35,0-.97-.57-.97-1.25,0-.33.13-.49.22-.63.17.46.57.65.86.65.25,0,1.38-.29,2.07-.56.15-.06.6-.24.67-.24.27,0,.95.54.95.88,0,.17-.03.2-.38.66-.46.6-1.53,3.09-1.98,4.17,1.44.12,3,.58,3.75.88.09-.27.35-1.16.35-1.71,0-.46-.18-.78-.57-1.26.12-.04.24-.08.38-.08.62,0,1.35.83,1.35,1.29,0,.27-.33,1.51-.58,2.16,1.23.6,2.71,1.35,2.71,2.16,0,.45-.32.57-.51.57ZM176.27,69.83c0,.66.43,1.12.76,1.12.58,0,1.95-2.1,2.38-3.13-.88-.09-3.15.63-3.15,2.01Z"/>
      <path class="cls-2" d="M195.37,64.93l.51-.69c.08-.1.17-.19.24-.19.09,0,.21.1.29.17l.76.67c.09.08.15.15.15.24,0,.15-.13.17-.22.17h-2.96c0,.3.02.65.02.95.64.27,2.45,1.28,2.45,2.34,0,.3-.17.76-.65.76-.25,0-.41-.09-.66-.81-.21-.58-.66-1.46-1.14-1.95.01.93.04,5.03.06,5.85,0,.15.04.81.04.94,0,.46-.53.66-.86.66-.24,0-.38-.18-.38-.42s.09-1.32.11-1.53c.03-.9.06-2.62.07-5.02-.82,1.5-2.29,3.13-3.78,3.97l-.06-.08c1.49-1.57,2.98-4.12,3.62-5.67h-1.21c-.27,0-1.02,0-1.76.14l-.3-.6c1.11.09,2.08.11,2.31.11h1.18v-2.37c-1.66.34-2.78.39-3.31.41v-.09c1.89-.47,3.54-1.08,4.75-1.7.38-.2.63-.39.75-.62l1.08,1c.06.04.12.12.12.2,0,.1-.09.18-.23.18-.09,0-.48-.04-.72-.08-.5.2-.92.33-1.52.48v2.58h1.23ZM199.33,62.33c.06.01.25.1.25.22,0,.11-.04.13-.46.53-.02.28-.02.58-.02,1.09,0,1.39.08,4.3.09,5.31,0,.2.02.45.02.57,0,.6-.58.76-.78.76-.27,0-.38-.13-.38-.38,0-.09.01-.22.01-.3.11-1.04.09-4,.09-5.21,0-1.98-.01-2.31-.24-3.09l1.41.48ZM202.56,61.3c.11.03.23.08.23.22,0,.12-.06.17-.51.5-.03,1.02,0,5.08.03,6.25.03,1.14.07,3.24.07,3.43,0,.79,0,1.77-2.14,2.07-.06-.39-.13-.93-1.35-1.49v-.08c.34.03,1.33.09,1.69.09.74,0,.74-.21.74-.87,0-1.71-.06-7.72-.09-9.1-.02-.84-.12-1.2-.23-1.54l1.56.51Z"/>
      <path class="cls-2" d="M215.2,61.43l.53-.45c.12-.1.18-.13.22-.13.08,0,.18.06.24.11l.75.54c.09.06.15.16.15.22,0,.17-.2.31-.63.57-.03.57-.03.63-.03,2.23,0,1.14.04,6.15.04,7.17,0,.9,0,1.75-1.76,2.12-.29-1.01-1.05-1.37-1.41-1.53l.03-.12c.48.06.96.11,1.44.11.6,0,.6-.12.6-1.19,0-.3,0-1.88.02-2.1h-3.57c0,.87.02,2.19.06,3.42.01.21.01.42.01.5,0,.31,0,.92-.84.92-.45,0-.47-.32-.47-.51,0-.12.02-.5.03-.63.12-1.81.13-3.17.13-3.69h-3.32c-.19,1.25-.67,3.13-3.06,4.78l-.12-.12c2.25-2.07,2.35-5.69,2.35-9.72,0-1.52,0-1.56-.24-3.2l1.49.71h7.33ZM207.68,65.29c0,.87-.08,2.55-.18,3.33h3.27l.03-3.33h-3.12ZM207.68,61.79v3.13h3.12v-3.13h-3.12ZM215.39,68.62v-3.33s-3.54,0-3.54,0l-.03,3.33h3.57ZM215.41,64.93v-3.13s-3.55,0-3.55,0v3.13h3.55Z"/>
      <path class="cls-2" d="M221.72,73.6c-1.21,0-2.16-1.01-2.16-2.22s.97-2.2,2.16-2.2,2.17.97,2.17,2.2-.94,2.22-2.17,2.22ZM221.72,69.61c-.96,0-1.72.81-1.72,1.77s.75,1.79,1.72,1.79,1.74-.81,1.74-1.77-.78-1.79-1.74-1.79Z"/>
    </g>
  </g>
</svg>