<?xml version="1.0" encoding="UTF-8"?>
<svg id="_レイヤー_2" data-name="レイヤー 2" xmlns="http://www.w3.org/2000/svg" viewBox="0 0 404 74.24">
  <defs>
    <style>
      .cls-1 {
        fill: none;
        stroke: #fff;
        stroke-miterlimit: 10;
        stroke-width: .85px;
      }

      .cls-2 {
        fill: #fff;
        stroke-width: 0px;
      }
    </style>
  </defs>
  <g id="_レイヤー_1-2" data-name="レイヤー 1">
    <g>
      <path class="cls-2" d="M0,.46h13.86v1.68H1.68v36.55H0V.46Z"/>
      <path class="cls-2" d="M38.09,23.9h-8.49v2.23c2.56.46,5.92,1.68,5.92,3.91,0,1.26-.88,1.47-1.3,1.47-.8,0-.92-.25-1.76-1.81-.34-.67-1.43-2.48-2.86-3.02.04,1.34.29,8.82.29,9.66,0,.97-.13,1.34-.38,1.55-.34.29-.88.5-1.39.5-.92,0-.92-.63-.92-.97,0-.25.21-2.73.25-3.28.13-1.85.25-5.17.25-8.23-1.89,2.98-6.64,7.77-9.7,8.86l-.13-.21c4.12-3.66,6.89-7.77,8.57-10.67h-.71c-1.34,0-3.7.17-5.42.5l-.97-1.81c2.31.17,4.62.29,6.97.29h1.39c-.17-3.91-.21-4.33-.38-5.75l3.07.88c.17.04.59.21.59.59,0,.34-.55.67-1.18,1.05-.08.84-.17,1.43-.21,3.23h4.83l.88-1.18c.34-.42.46-.59.67-.59.25,0,.63.29.8.42l1.51,1.26c.21.17.42.34.42.67,0,.38-.34.42-.63.42ZM38.81,16.8h-13.61c-1.3,0-3.65.13-5.38.46l-1.01-1.81c2.31.21,4.66.34,6.97.34h4.28c.63-1.43,1.43-3.61,1.68-4.41.55-1.6.76-2.65.63-3.99l3.44,1.89c.21.13.25.34.25.5,0,.76-.84.76-1.43.76-1.39,1.72-2.77,3.53-4.07,5.25h4.54l.97-1.22c.13-.17.42-.5.63-.5.25,0,.59.29.76.42l1.55,1.22c.21.17.42.34.42.63,0,.38-.34.46-.63.46ZM38.09,6.68h-11.51c-1.3,0-3.7.13-5.38.46l-1.01-1.81c2.31.21,4.66.34,6.97.34h1.01c.04-1.09.08-3.23-.59-5.67l3.61,1.01c.29.08.55.25.55.59,0,.38-.8,1.01-1.34,1.47-.04.34-.13,1.72-.17,2.6h3.99l1.22-1.22c.42-.42.5-.5.67-.5.25,0,.55.25.76.42l1.43,1.22c.25.21.42.34.42.63,0,.38-.34.46-.63.46ZM26.33,14.58c-1.13,0-1.26-.88-1.6-2.73-.34-1.76-.5-2.44-1.43-3.65l.25-.17c2.1,1.22,4.07,2.65,4.07,4.92,0,.25,0,1.64-1.3,1.64ZM56.87,15.16h-6.72c0,.34.17,11.22.17,12.56,0,.29.29,8.49.29,8.86,0,1.47-1.55,1.85-2.02,1.85-.92,0-.97-.76-.97-1.05,0-.71.21-4.29.25-5.08.17-6.34.17-11.13.17-12.1,0-1.64-.04-3.4-.13-5.04h-5.08c0,11.34-2.31,18.57-9.12,22.14l-.17-.17c5.25-5.38,7.1-9.79,7.1-24.15,0-3.36-.08-6.72-.17-8.02-.08-1.01-.25-1.85-.42-2.52l3.36,1.64c1.68-.46,3.32-1.09,4.87-1.76,1.26-.55,2.35-1.43,3.07-2.18l2.86,2.52c.21.21.25.29.25.46,0,.25-.17.46-.63.46-.25,0-.34,0-1.68-.29-1.81.55-6.93,1.22-9.24,1.51-.17,2.6-.04,6.76-.08,9.37h10l1.05-1.6c.13-.17.42-.59.71-.59.17,0,.34.08.8.5l1.68,1.51c.08.08.42.46.42.71,0,.46-.42.46-.63.46Z"/>
      <path class="cls-2" d="M95.01,37.72c-2.6-1.72-5.54-4.37-7.81-6.72-3.78-3.99-6.6-9.41-7.6-17.68h-.34c-1.34,11.38-5,16.34-8.28,19.62-3.99,4.03-7.94,5.38-9.33,5.84l-.21-.29c5.59-3.28,10.04-8.28,12.6-14.24,1.51-3.49,2.35-7.18,2.81-10.92h-10.12c-1.51,0-3.82.17-5.42.46l-1.01-1.81c3.15.25,6.22.34,7.02.34h9.62c.08-.67.25-2.39.25-4.62,0-2.48-.25-4.37-.46-5.71-.17-1.13-.34-1.47-.59-1.97l4.41,1.13c.5.13.8.25.8.67,0,.55-.59.88-1.55,1.51,0,1.34-.04,3.99-.42,8.99h13.19l1.39-1.89c.25-.34.42-.5.63-.5s.34.08.8.42l2.65,1.89c.21.13.42.34.42.63,0,.38-.34.46-.63.46h-17.56c1.51,7.44,5.42,14.62,12.14,18.61,3.23,1.89,6.01,2.6,7.14,2.9v.34c-2.18.25-3.61,1.64-4.54,2.56Z"/>
      <path class="cls-2" d="M114.95,4.12c-.5,1.26-1.26,2.69-2.73,5.17-2.27,3.78-2.56,4.2-2.86,4.75,2.77,1.51,5.8,4.75,5.8,9.2,0,2.27-.8,3.87-2.31,4.83-.88.59-1.64.71-2.27.8-.55-1.64-1.05-2.02-2.6-3.15l.13-.34c1.18.17,2.1.25,3.11.25.76,0,1.68,0,1.68-2.98,0-4.83-2.52-7.1-4.16-8.44,1.72-3.32,3.49-8.99,3.78-11.01h-5.29c0,5.96-.04,14.75-.04,21.47,0,1.05.08,11.26.08,11.51-.04.5-.08,1.13-.63,1.64-.38.38-.92.46-1.22.46-.8,0-.92-.55-.92-1.05,0-.21.08-1.13.13-1.34.42-5.96.46-15.33.46-21.55,0-1.72-.04-11.17-.25-12.27,0-.13-.21-1.01-.29-1.43l3.02,1.55h4.58l1.13-1.05s.34-.29.5-.29.21.04.5.29l1.81,1.64c.17.13.29.38.29.59,0,.63-.84.71-1.43.76ZM137.51,37.09c-.97-.38-5.59-2.52-9.24-7.23-3.78,4.62-6.97,6.51-14.79,8.49l-.13-.29c6.55-2.81,10.38-5.46,13.65-10.12-1.18-1.93-3.61-6.17-4.58-14.28h-1.81c.17,14.58-4.87,19.53-10.33,23.06l-.29-.25c6.89-7.35,8.44-10.59,8.44-24.78,0-6.47-.25-7.48-.92-10.25l3.49,1.72h13.11l1.6-1.64c.42-.46.46-.5.63-.5.25,0,.63.25.8.42l2.18,1.64c.21.17.42.38.42.67,0,.38-.34.42-.63.42h-18.44c0,.84-.04,4.41-.04,5.17v3.32h11.85l1.3-1.22c.13-.13.34-.34.59-.34s.42.17.67.38l1.85,1.43c.08.08.38.34.38.71,0,.67-.88.92-1.93,1.22-1.51,5.42-3.02,9.2-5.59,13.06,4.96,5.21,10.04,6.09,11.64,6.34v.29c-.8.21-2.06.5-3.86,2.56ZM123.02,13.65c1.43,6.93,4.12,10.84,5.25,12.39,3.28-5.67,4.12-9.83,4.66-12.39h-9.91Z"/>
      <path class="cls-2" d="M159.09,38.35h-13.86v-1.68h12.18V.13h1.68v38.23Z"/>
      <path class="cls-2" d="M165.4,35.23c-.46,0-.65-.31-.65-.72,0-.39.12-.67.48-1.54.12-.29.53-1.3.41-2.17h.24c.02.1.07.22.43,1.25.1.27.22.67.22,1.28,0,.22,0,1.9-1.13,1.9ZM174.29,28.05c-.22,2.12-.79,5.28-1.4,6.75-.34.84-.84,1.45-2.41,2.07-.48-1.18-1.4-1.78-1.85-1.98v-.17c.67.12,2,.19,2.1.19.51,0,.84-.02,1.18-.94.67-1.83,1.08-4.77,1.06-6.34h-5.83c.1.89-.55,1.06-.79,1.06-.55,0-.55-.41-.51-1.04.19-1.93.1-9.88.07-10.12-.1-1.13-.12-1.18-.19-1.49l1.64.79h4.89l.53-.55c.26-.29.31-.29.41-.29s.12.02.43.24l.79.55c.07.07.24.19.24.36,0,.24-.22.26-.36.26h-3.57v2.82h1.52l.43-.43c.27-.26.29-.31.41-.31.1,0,.14.02.41.27l.58.43c.1.1.24.22.24.36,0,.24-.22.26-.36.26h-3.23v2.87h1.61l.46-.51c.24-.26.27-.29.39-.29.14,0,.34.17.41.24l.51.51c.22.22.22.31.22.36,0,.22-.19.26-.36.26h-3.23v2.79h1.93l.53-.55c.24-.27.26-.29.39-.29s.12,0,.43.29l.72.67c.07.05.19.19.19.34,0,.29-.34.41-.63.53ZM169.54,17.42h-2.43v2.82h2.43v-2.82ZM169.54,20.82h-2.43v2.87h2.43v-2.87ZM169.54,24.26h-2.43v2.79h2.43v-2.79ZM168.27,34.17c-.63,0-.63-.41-.67-2.02-.02-.7-.05-1.42-.34-1.9l.12-.07c.14.19.89.99,1.04,1.18.43.63.7,1.42.7,1.78,0,.58-.39,1.04-.84,1.04ZM170.31,32.53c-.51,0-.58-.36-.67-1.13-.07-.46-.19-1.25-.63-2.12l.1-.07c.19.22,1.13.99,1.28,1.18.48.53.63,1.04.63,1.33,0,.24-.15.82-.7.82ZM171.74,30.7c-.46,0-.55-.27-.79-1.16-.1-.36-.29-.72-.53-1.06l.19-.1c1.16.65,1.71.96,1.71,1.66,0,.22-.12.65-.58.65ZM185.52,36.6c-.89-.87-2.58-2.63-3.64-5.52-.77-2.14-1.16-4.41-1.16-6.67h-2.77c-.14,3.54-.22,5.49-1.4,8.19-1.18,2.75-2.55,3.81-3.16,4.26l-.19-.12c.92-.96,1.59-2.24,2.17-3.85.84-2.41,1.3-4.1,1.3-12.6,0-1.11-.07-2.24-.14-2.67,0-.22-.22-1.18-.24-1.4l1.93.92h5.37l.72-.72s.22-.22.34-.22c.1,0,.12.02.31.22l.87.82c.14.12.19.22.19.31,0,.12-.07.17-.24.29-.1.05-.53.36-.6.41,0,1.28-.02,3.35.05,5.16,0,.24.07,1.28.07,1.52,0,.67-.58.87-.84.87-.7,0-.65-.63-.6-1.37h-2.75c.41,6.89,5.04,10.31,6.5,10.94v.17c-1.04.19-1.57.6-2.1,1.08ZM183.85,17.71h-5.9c.1,1.3.05,4.65.02,6.12h5.88v-6.12Z"/>
    </g>
    <g>
      <path class="cls-2" d="M279.66,20.21h-9.57v2.79h3.64l.53-.53c.12-.12.26-.29.39-.29.1,0,.19.07.34.17l.89.63c.24.17.41.29.41.46,0,.22-.24.41-.84.82,0,1.64.02,4.12.05,4.92.02.67.17,4.31.17,4.38,0,.65-.67.92-.99.92-.58,0-.55-.36-.53-.89h-7.35c0,.22.05.63-.12.89-.22.43-.82.46-.84.46-.51,0-.51-.53-.51-.65,0-.36.05-.92.05-1.28.02-.51.05-4,.05-5.59,0-.26,0-2.55-.05-3.66-.02-.24-.12-1.06-.19-1.52l1.71.77h1.93c0-1.06,0-1.23-.05-2.79h-6.1c-.77,0-2.12.07-3.11.27l-.55-1.04c1.32.12,2.65.19,4,.19h5.76c-.12-2.34-.14-2.7-.41-3.47l2.14.67c.24.07.36.17.36.31,0,.24-.29.43-.77.82v1.66h6.72l.92-1.11c.14-.19.24-.31.38-.31s.29.14.43.27l1.23,1.11c.14.14.24.22.24.36,0,.22-.19.26-.36.26ZM280,37.05h-17.71c0,.75.02.84-.14,1.01-.22.24-.65.36-.92.36-.43,0-.53-.24-.53-.55,0-.39.1-2.12.1-2.48.05-2.55.07-4.5.07-6.22,0-.77,0-3.52-.1-4.48-.02-.29-.05-.39-.24-1.33l1.95.65c.36.12.46.14.46.31,0,.26-.39.46-.77.67,0,1.57.07,6.89.12,11.47h15.01l.82-1.21c.1-.14.19-.29.36-.29.12,0,.27.1.41.24l1.25,1.18c.14.12.24.24.24.38,0,.22-.22.27-.39.27ZM274.14,23.58h-7.37v2.72h7.37v-2.72ZM274.14,26.88h-7.37v2.72h7.37v-2.72ZM274.14,30.18h-7.37v2.82h7.37v-2.82Z"/>
      <path class="cls-2" d="M303.3,37.65c-.55-.05-1.18-.05-1.57-.05-6.07,0-6.29.02-8.34-.29-3.3-.48-4.41-1.28-5.61-2.87-.41.39-2.14,2.12-2.51,2.48,0,.41,0,.96-.39.96-.07,0-.22-.02-.31-.14l-1.42-1.78c1.42-.1,3.28-1.04,3.71-1.33v-7.28c-1.06,0-2.34.1-3.23.26l-.58-1.04c.92.07,2.72.14,3.45.17l.63-.53c.19-.17.29-.24.41-.24.1,0,.22.12.29.17l.79.75c.14.12.22.22.22.31,0,.22-.36.46-.75.72,0,.26,0,.58-.02,3.33-.02,3.2-.02,5.04,6.75,5.04,1.42,0,4.6-.14,6.99-.39,1.69-.17,2.29-.34,3.08-.53l.02.07c-.58.22-1.42,1.06-1.61,2.19ZM287.81,20.86c-.53,0-.6-.29-.87-1.18-.31-1.06-.89-2.12-1.76-2.7l.1-.14c1.71.58,3.4,1.73,3.4,3.08,0,.55-.41.94-.87.94ZM301.47,18.81c-.51.02-.75.02-2.05.84-.07.05-1.62.99-1.88,1.13.22.19.53.46.53,1.06,0,.46-.22.77-.67.77s-.63-.29-.92-.79c-.51-.92-1.23-1.69-2.1-2.29v-.17c1.45.36,2.41.92,2.82,1.18.51-.46,1.21-1.18,2.22-2.31h-5.33c-.72,0-2.1.07-3.08.29l-.58-1.06c1.28.12,2.75.19,4,.19h5.16l.7-.53c.12-.1.26-.19.41-.19s.34.12.39.17l1.16.89c.14.12.22.22.22.36,0,.39-.46.41-.99.46ZM303.56,23.27c-.1.1-.41.29-.67.43,0,1.18.07,6.91.07,8.22,0,.82-.02,1.28-.36,1.71-.07.12-.6.77-1.71,1.04-.34-.92-1.11-1.64-1.81-1.85l.02-.14c.7.05,1.08.05,1.4.05,1.04,0,1.13-.19,1.13-1.08v-1.49h-4.02c0,.55.1,3.4.1,3.71,0,.94-.75.94-.92.94-.48,0-.48-.34-.48-.55,0-.96.02-3.08.02-4.1h-4.14c0,.43.05,2.6.05,3.08,0,1.16-.87,1.18-.92,1.18-.53,0-.53-.34-.53-.53,0-.53.07-1.37.07-1.88.02-.92.05-2.82.05-4.05,0-1.52,0-4.94-.26-6.19l1.98.89h8.7l.6-.55c.07-.07.17-.14.26-.14.07,0,.19.05.26.1l1.06.63c.1.07.24.14.24.29,0,.19-.12.24-.19.31ZM296.36,23.22h-4.22v2.89h4.22v-2.89ZM292.14,26.69c0,.96,0,1.9.03,2.87h4.17c.02-.46.02-2.46.02-2.87h-4.22ZM301.64,23.22h-4.07v2.89h4.07v-2.89ZM301.64,26.69h-4.07c0,2.02,0,2.26.02,2.87h4.05v-2.87Z"/>
      <path class="cls-2" d="M309.88,36.28h2.73c2.58,0,3.47-.99,3.47-3.03V6.41c0-1.54-1.44-1.79-2.38-1.79h-3.77v-1.54h.89c3.82,0,7.49-1.74,8.09-2.08.35-.2.5-.3.69-.3.45,0,.55.3.55.69v31.85c0,2.13,1.04,3.03,3.47,3.03h2.73v1.59h-16.47v-1.59Z"/>
      <path class="cls-2" d="M350.26,21c2.28,1.93,3.37,4.42,3.37,7.34,0,6.1-5.01,10.47-11.56,10.47-5.36,0-9.87-3.03-9.87-6.99,0-2.18,1.44-3.17,2.83-3.17,1.69,0,2.43,1.44,2.43,2.48,0,.74-.15,1.19-.3,1.59-.1.3-.15.64-.15,1.14,0,1.89,2.13,3.27,4.46,3.27,3.82,0,7.69-3.77,7.69-8.78s-3.77-9.08-7.74-9.08c-.3,0-1.69.2-1.98.2-.74,0-1.09-.45-1.09-1.04,0-.65.5-1.14,1.14-1.14.3,0,1.79.3,2.13.3,4.17,0,6.8-3.72,6.8-7.74s-2.33-7.44-6.25-7.44c-2.63,0-4.02,1.89-4.02,3.32,0,.25.1.5.15.74.1.35.15.84.15,1.19,0,1.54-1.14,2.73-2.53,2.73-1.64,0-2.48-1.44-2.48-2.73,0-2.73,3.17-6.95,9.52-6.95s9.92,3.97,9.92,8.33c0,1.74-.64,3.42-1.84,5.06-2.03,2.68-4.27,3.52-6.3,4.22,2.28.69,3.77,1.19,5.51,2.68Z"/>
      <path class="cls-2" d="M378.78,1.65v2.63c-7.89,12.15-10.67,19.05-11.31,30.11-.1,1.29-.25,4.42-2.78,4.42-1.24,0-2.53-1.04-2.53-2.73,0-3.52,3.47-13.94,13.94-30.51h-8.48c-7.19,0-8.28,3.32-9.38,6.5l-1.49-.35,2.03-10.07h19.99Z"/>
      <path class="cls-2" d="M388.41,19.72c-1.78,3.42-4.5,6.6-7.28,8.38l-.1-.17c1.4-1.57,3.69-4.63,5.16-7.3.89-1.64.99-2.26,1.01-2.99l1.83,1.21c.24.14.34.22.34.34,0,.31-.6.46-.96.53ZM397.92,26.93s-.24.19-.53.41c-.05.87-.19,4.72-.26,5.49-.31,2.82-.67,5.11-4.43,5.37-.07-1.13-.84-1.81-1.83-2.14v-.22c.36.05.53.07,1.93.22.34.05.63.05.79.05.41,0,1.37,0,1.66-.8.6-1.59.82-6.26.82-8.02,0-.39,0-.43-.05-.84h-5.4c-.07,1.49-.31,2.96-.7,4.38-1.11,4.1-4.07,6.51-8.29,7.57l-.05-.19c6.14-2.84,7.42-7.25,7.61-11.76h-.41c-.84,0-2.19.12-3.11.29l-.55-1.04c1.81.14,3.54.17,4,.17h6.75l.55-.51c.17-.14.24-.22.36-.22s.19.07.31.19l.87.92c.07.07.19.22.19.34,0,.14-.07.22-.24.34ZM401.71,27.1c-3.54-1.59-5.98-4.92-7.33-8.89h-2.58c-.39,0-.94.05-1.33.14l-.24-.79c.43.02,1.35.07,1.71.07h2.29l.55-.6c.24-.26.34-.26.43-.26.17,0,.34.14.41.24l.84.79c.1.1.19.19.19.36,0,.46-.67.55-1.61.65,1.42,3.88,6.1,6.46,8.94,6.55v.19c-1.23.29-1.78.96-2.29,1.54Z"/>
      <path class="cls-2" d="M326.09,74.24c-1.13-.91-5.28-4.78-5.28-10.97s4.15-10.07,5.28-10.97l.23.32c-3.7,3.83-4.51,8.03-4.51,10.66s.82,6.83,4.51,10.66l-.23.32Z"/>
      <path class="cls-2" d="M329.74,71.88v-.73h.79c1.5,0,2.22-.68,2.22-2.22v-10.2c0-1.47-.52-2.13-2.24-2.13h-.77v-.61h.36c1.38,0,3.04-.61,3.47-.86.16-.09.34-.2.48-.2.11,0,.16.11.16.23v13.79c0,1.29.52,2.22,2,2.22h1.02v.73h-7.48Z"/>
      <path class="cls-2" d="M347.27,67.16v2.38c0,1.04.7,1.61,1.59,1.61h.36v.73h-5.33v-.73c.48,0,1.95,0,1.95-1.66v-2.33h-6.35v-.79l7.14-11.45h.63v11.52h2.7v.73h-2.7ZM345.84,57.62l-5.49,8.82h5.49v-8.82Z"/>
      <path class="cls-2" d="M356.07,72.31c-3.2,0-5.1-4.08-5.1-8.71s1.86-8.68,5.1-8.68,5.1,4.08,5.1,8.68-1.9,8.71-5.1,8.71ZM356.07,55.55c-1.72,0-3.42,2.15-3.42,8.05s1.75,8.07,3.42,8.07c1.59,0,3.42-1.86,3.42-8.07s-1.84-8.05-3.42-8.05Z"/>
      <path class="cls-2" d="M369.54,56.14c-1.68,3.22-4.24,6.21-6.85,7.89l-.09-.16c1.31-1.47,3.47-4.35,4.85-6.87.84-1.54.93-2.13.95-2.81l1.72,1.13c.23.14.32.2.32.32,0,.29-.57.43-.91.5ZM378.49,62.92s-.23.18-.5.38c-.05.82-.18,4.44-.25,5.17-.29,2.65-.63,4.81-4.17,5.06-.07-1.07-.79-1.7-1.72-2.02v-.2c.34.04.5.07,1.81.2.32.04.59.04.75.04.39,0,1.29,0,1.56-.75.57-1.5.77-5.9.77-7.55,0-.36,0-.41-.04-.79h-5.08c-.07,1.41-.29,2.79-.66,4.13-1.04,3.85-3.83,6.12-7.8,7.12l-.04-.18c5.78-2.68,6.98-6.83,7.17-11.07h-.39c-.79,0-2.06.11-2.92.27l-.52-.98c1.7.14,3.33.16,3.76.16h6.35l.52-.48c.16-.14.23-.2.34-.2s.18.07.29.18l.82.86c.07.07.18.2.18.32,0,.14-.07.2-.23.32ZM382.05,63.08c-3.33-1.5-5.62-4.62-6.89-8.37h-2.43c-.36,0-.88.05-1.25.14l-.23-.75c.41.02,1.27.07,1.61.07h2.15l.52-.57c.23-.25.32-.25.41-.25.16,0,.32.14.38.23l.79.75c.09.09.18.18.18.34,0,.43-.64.52-1.52.61,1.34,3.65,5.74,6.08,8.41,6.17v.18c-1.16.27-1.68.91-2.15,1.45Z"/>
      <path class="cls-2" d="M385.82,73.92c3.7-3.83,4.51-8.03,4.51-10.66s-.82-6.83-4.51-10.66l.23-.32c1.13.91,5.28,4.81,5.28,10.97s-4.15,10.07-5.28,10.97l-.23-.32Z"/>
    </g>
    <line class="cls-1" x1="192.33" y1="27.4" x2="251.33" y2="27.4"/>
    <g>
      <path class="cls-2" d="M7.13,61.15h-.46c-.6,0-1.06.31-1.06,1.03v8.62c0,1.92-1.23,3.24-2.92,3.24-.78,0-1.44-.35-1.44-1.08,0-.35.21-.87.85-.87.45,0,.66.13.87.79.09.29.27.39.56.39.67,0,.9-.57.9-1.47v-9.63c0-.67-.42-1.03-1.06-1.03h-.62v-.5h4.4v.5Z"/>
      <path class="cls-2" d="M12.8,60.66c1.84,0,4.14.52,4.14,2.61,0,.69-.25,1.4-.99,2.01-.62.51-1.17.68-1.79.84l1.71,3.75c.34.75.94,1.26,1.8,1.26h.25v.48h-2.56l-2.43-5.35h-1.74v3.84c0,.66.42,1.04,1.06,1.04h.48v.48h-4.27v-.48h.46c.66,0,1.08-.38,1.08-1.04v-7.91c0-.64-.39-1.03-1.08-1.03h-.46v-.5h4.33ZM11.2,65.77h1.6c1.39,0,2.71-.75,2.71-2.37,0-1.03-.56-2.25-2.52-2.25h-.73c-.65,0-1.06.36-1.06,1.03v3.58Z"/>
      <path class="cls-2" d="M26.5,67.27c1.35,1.58,3.75,3.03,6.45,3.15v.12c-.88.23-1.35.83-1.6,1.37-.47-.15-3.81-1.88-5.12-4.56.02.67.03,3.63.06,4.23,0,.08.02.44.02.51,0,.53-.48.74-.84.74-.31,0-.39-.22-.39-.42,0-.04,0-.17.02-.33.07-1.04.17-2.33.17-4.08-1.38,1.65-4.11,3.44-6.33,3.96l-.04-.12c2.27-.92,5.38-4.06,5.69-4.56h-2.01c0,.51-.1.88-.78.88-.31,0-.38-.15-.38-.33,0-.17.08-.9.08-1.05.03-.5.04-1.3.04-2.11,0-1.37-.04-1.85-.2-2.45l1.4.62h2.55c0-.35-.01-1.17-.03-1.54h-4.08c-.27,0-1.05,0-1.77.13l-.3-.6c1.11.09,2.08.1,2.31.1h3.82c-.04-.92-.09-1.46-.3-1.95l1.56.41c.13.03.25.09.25.21,0,.17-.36.41-.5.5v.84h4.08l.65-.75c.1-.12.17-.2.24-.2s.17.08.27.17l.92.75c.1.09.15.15.15.23,0,.13-.13.17-.23.17h-6.09v1.54h2.56l.5-.44s.12-.1.18-.1c.07,0,.17.06.21.1l.67.54c.09.08.15.15.15.24,0,.13-.09.2-.48.43-.01.33-.01.77.03,1.88.01.21.09,1.82.09,1.95,0,.48-.44.63-.77.63-.4,0-.39-.31-.36-.79h-2.52ZM22.54,63.19v1.62h2.71v-1.62s-2.71,0-2.71,0ZM25.25,66.91v-1.74h-2.71v1.74h2.71ZM29.02,66.91v-1.74h-2.79c0,.24-.01,1.47-.01,1.74h2.8ZM29.02,64.81v-1.62h-2.79v1.62h2.79Z"/>
      <path class="cls-2" d="M35.8,65.29c-.33,0-.44-.23-.7-.79-.32-.65-.47-.79-.92-1.26l.06-.09c1.29.32,2.16.53,2.16,1.5,0,.44-.34.65-.6.65ZM37,66.5c-.21.71-.62,1.8-.75,2.54-.03.13-.06.27-.06.39,0,.24.1.64.29,1.25.19.61.22.76.22,1,0,.48-.24.88-.72.88-.72,0-.73-.78-.73-1.04,0-.22.12-1.2.12-1.39,0-.36-.1-.71-.24-1.02-.13-.3-.24-.38-.67-.71v-.09c.42,0,.84,0,1.09-.42.72-1.2,1.59-3.5,2.28-5.31l.17.03c-.17.61-.84,3.34-.99,3.88ZM37.01,61.72c-.47,0-.59-.31-.93-1.2-.17-.45-.39-.75-.66-1.11l.04-.09c.62.19,2.13.66,2.13,1.8,0,.41-.32.6-.58.6ZM47.62,66.67h-2.39c-.01.52-.04,1.54-.24,3.17h.67l.54-.68c.1-.12.17-.18.24-.18s.15.06.27.17l.76.66c.09.09.14.15.14.22,0,.13-.12.17-.23.17h-2.44c-.14.86-.42,2.55-2.25,2.61-.09-.78-.63-1.32-1.1-1.54l.02-.09c.52.13,1.19.19,1.41.19.39,0,.71,0,.93-1.17h-4.14c-.08.62-.12,1.05-.83,1.05-.24,0-.4-.13-.4-.39,0-.17.03-.32.08-.55.24-1.21.33-1.71.64-3.63-.07,0-.76.01-1.39.13l-.3-.6c.48.04.77.06,1.74.09.17-1,.27-1.95.27-2.78,0-.39-.02-.57-.05-.75l1.11.63h3.54l.41-.4c.1-.11.18-.17.27-.17.07,0,.15.06.28.18l.45.42c.09.09.17.2.17.25,0,.13-.3.3-.5.39,0,.09-.06,1.81-.06,2.23h.73l.44-.62c.09-.13.15-.18.21-.18s.15.04.29.15l.79.61c.06.04.13.17.13.23,0,.12-.1.17-.22.17ZM46.67,61.63h-6.42c-.69,1.16-1.75,2.07-2.33,2.55l-.07-.08c.58-.76,2.15-3.39,2.19-5.02l1.3.67c.08.03.15.12.15.2,0,.13-.07.19-.48.3-.31.6-.42.78-.55,1.02h4.5l.51-.67c.09-.12.17-.18.24-.18.09,0,.15.04.27.15l.78.68c.07.07.13.15.13.22,0,.12-.07.17-.23.17ZM40.27,66.67l-.4,3.17h1.52c.15-1.17.19-1.56.21-1.68.03-.18.15-1.24.18-1.48h-1.5ZM40.61,63.76c-.09.64-.23,1.84-.3,2.55h1.48c.09-.85.1-1.02.18-2.55h-1.36ZM42.7,66.67c-.15,1.47-.17,1.63-.38,3.17h1.68c.09-.75.18-1.67.24-3.17h-1.54ZM42.97,63.76c-.04.55-.06.74-.23,2.55h1.52c.01-.45.07-1.96.04-2.55h-1.33Z"/>
      <path class="cls-2" d="M61.79,72.2c-.24.03-.3.04-.52.04-1.12,0-4.74,0-5.7-.1-2.43-.24-3.03-1.21-3.45-2.08-.38.48-1.04,1.39-1.56,2.1-.04.24-.08.41-.2.41-.09,0-.18-.11-.24-.18l-.93-1.17c.21-.02.5-.03.9-.23.13-.06.84-.4,1.38-.83v-4.23c-.41,0-1.27,0-1.98.13l-.3-.6c.72.06,1.14.08,2,.09l.57-.54c.12-.1.2-.13.27-.13s.14.03.27.13l.6.48c.08.06.12.13.12.21,0,.06-.03.13-.12.21-.06.06-.3.24-.4.33-.02.04-.03.27-.03.3v2.97s.02,1.25,1.73,1.53c.67.12,1.33.18,2.67.18,1.93,0,3.88-.08,5.74-.64l.03.06c-.67.87-.75,1.12-.84,1.56ZM51.85,62.35c-.48,0-.58-.3-.85-1.08-.27-.81-.54-1.2-.96-1.68l.04-.03c1.06.24,2.4,1.08,2.4,2.07,0,.39-.24.72-.63.72ZM62.14,61.74h-4.33c-.35.57-.62.97-1.09,1.63h2.62l.41-.45c.12-.12.17-.17.24-.17s.18.06.29.15l.58.46c.1.08.18.18.18.27,0,.13-.1.23-.42.53-.04.52-.04.83-.04,1.09,0,.97.04,2.26.08,3.66.02.09.03.57.03.67,0,.31-.12.71-.69.71-.02,0-.39,0-.39-.33,0-.04.01-.25.01-.3h-4.35c.01.33.03.42-.12.61-.19.24-.46.27-.56.27-.22,0-.4-.15-.4-.44,0-.17.06-.94.06-1.12.03-.79.04-1.71.04-2.82s0-2.47-.18-3.34l1.29.54h.96c.1-1.28.1-1.42.12-1.63h-1.5c-.33,0-1.11.01-1.77.15l-.3-.6c.77.06,1.53.09,2.31.09h2.32c.27-.62.81-1.89.73-2.47l1.38.6c.15.06.2.12.2.22s-.08.18-.58.3c-.45.45-.62.6-1.44,1.35h2.4l.57-.67c.12-.14.19-.2.27-.2s.17.04.3.17l.85.69c.06.04.15.13.15.22,0,.12-.09.15-.22.15ZM56.12,61.22c-.34,0-.4-.15-.7-.84-.27-.58-.54-.87-.83-1.12l.03-.08c.81.12,2.02.6,2.02,1.44,0,.3-.17.6-.53.6ZM59.62,63.73h-4.36v1.58h4.36v-1.58ZM59.62,65.67h-4.36v1.62h4.36v-1.62ZM59.62,67.64h-4.36v1.67h4.36v-1.67Z"/>
      <path class="cls-2" d="M66.28,67.52c-.24,0-1.03,0-1.75.13l-.3-.6c1.09.09,2.04.11,2.31.11h.58c0-.89-.02-1.54-.14-2.16l1.36.38c.12.03.21.1.21.21s-.08.21-.47.41c-.03.33-.04.58-.06,1.17h1.23l.51-.54c.12-.12.19-.2.25-.2.09,0,.21.09.29.15l.67.55c.08.06.15.13.15.22,0,.14-.13.17-.24.17h-2.87c-.01.13-.01.25-.01.74.78.1,2.08.51,2.08,1.44,0,.42-.3.62-.56.62-.36,0-.51-.34-.61-.6-.14-.33-.38-.88-.92-1.28,0,.58.1,3.12.1,3.63,0,.46-.25.65-.71.65-.33,0-.46-.15-.46-.42,0-.2.18-2.6.18-3,0-.12-.01-.72-.01-.83-.57.87-1.85,2.28-3.42,3l-.06-.09c1.5-1.35,2.55-3.04,2.98-3.86h-.35ZM69.61,64.62l.45-.53c.1-.12.17-.2.23-.2.1,0,.2.11.27.17l.62.53c.07.06.15.15.15.24,0,.13-.12.15-.23.15h-4.96c-.25,0-1.03,0-1.77.13l-.28-.58c1.09.08,2.05.09,2.29.09h1.65c.15-.32.87-1.92.81-3.09l1.35.75c.1.06.15.14.15.24,0,.25-.31.27-.54.29-.15.21-.92,1.17-1.55,1.82h1.37ZM69.28,61.04l.52-.57c.08-.09.18-.18.24-.18.09,0,.18.08.27.15l.66.57c.09.08.15.14.15.24,0,.13-.12.15-.22.15h-4.27c-.25,0-1.04,0-1.77.13l-.29-.6c.77.08,1.53.11,2.29.11h.48c.02-.66-.03-1.33-.24-2.05l1.51.4c.14.03.23.09.23.21,0,.15-.21.3-.51.46,0,.15-.03.76-.03.97h.98ZM65.72,61.78c.55.3,1.66.96,1.66,1.83,0,.41-.24.66-.55.66-.41,0-.58-.25-.66-.85-.06-.5-.13-.92-.55-1.56l.1-.07ZM76.64,60.01c.06.06.09.12.09.21s-.07.18-.24.18c-.1,0-.23-.03-.58-.12-.95.25-2.77.42-3.18.43-.01.92-.03,2.4-.04,3.41h3.08l.55-.71c.06-.09.15-.2.25-.2.05,0,.18.08.27.17l.78.69c.07.06.15.15.15.24,0,.15-.14.17-.23.17h-2.26c0,.95.07,4.89.07,4.98,0,.4.08,2.17.08,2.58,0,.48-.45.69-.81.69s-.4-.2-.4-.39c0-.09,0-.26.01-.44.06-1.2.1-3.51.1-5.92,0-.45-.01-.99-.03-1.5h-1.62c-.03,3.51-.52,6.15-3.45,7.86l-.09-.09c1.89-1.95,2.56-3.57,2.56-8.97,0-.92-.02-2.75-.24-3.53l1.33.65c.5-.14,2.07-.6,2.71-1.41l1.12,1.02Z"/>
      <path class="cls-2" d="M85.72,61.34h-2.92c0,.83,0,1.19.02,1.65h1.03l.29-.35c.07-.1.15-.18.23-.18s.17.06.22.11l.62.39c.1.06.17.13.17.22,0,.11-.04.2-.45.51.02.61.03,2.14.06,2.67,0,.1.04.57.04.66,0,.5-.34.68-.73.68-.34,0-.34-.27-.33-.54h-1.15c-.02.43-.02,1.45-.02,1.93h1.25l.44-.58c.04-.08.15-.2.22-.2.09,0,.2.09.29.17l.75.58c.09.08.15.14.15.23,0,.15-.12.17-.23.17h-2.85c0,.22.06,2.1.06,2.31,0,.33,0,.92-.75.92-.33,0-.39-.18-.39-.41,0-.45.06-2.42.06-2.82h-.67c-.2,0-1.04,0-1.77.13l-.3-.6c.99.09,2.02.11,2.31.11h.44c.02-1.46.02-1.6.02-1.93h-1.14c.02.3.02.69-.63.69-.42,0-.42-.29-.42-.43,0-.51.07-2.79.07-3.24,0-1.08-.04-1.33-.1-1.77l1.16.58h1.09v-1.65h-.52c-.38,0-1.09.02-1.77.13l-.28-.6c1.02.09,2.08.11,2.29.11h.28c-.03-1.19-.03-1.32-.28-1.98l1.42.34c.12.03.27.06.27.21,0,.09-.06.17-.42.39-.02.17-.02.81-.02,1.04h1.41l.45-.6c.09-.12.14-.19.23-.19s.21.1.27.16l.66.6c.08.08.14.15.14.22,0,.15-.12.17-.23.17ZM83.95,63.35h-3.3v1.49h3.3v-1.49ZM83.95,65.2h-3.3v1.6h3.3v-1.6ZM91.88,64.42c-1.87-1.19-2.71-3.22-3.03-4.23-.61,1.62-2.37,3.76-3.84,4.95l-.06-.09c1.26-1.74,2.9-4.63,3.03-6.17l1.29.75c.1.06.18.12.18.21,0,.13-.1.18-.4.27.65,1.29,2.1,2.73,4,3.1v.11c-.53.28-.66.38-1.17,1.09ZM92.54,68.03h-3.44c.02.62.12,3.84.12,3.9,0,.24,0,.84-.71.84-.48,0-.48-.33-.48-.6,0-.14.08-3.23.08-3.46v-.68h-.65c-.38,0-1.09.02-1.75.14l-.3-.6c1.02.09,2.08.11,2.29.11h.4v-2.22c-.39,0-1.14,0-1.88.13l-.3-.6c1.03.09,2.1.1,2.31.1h1.53l.45-.62c.08-.1.15-.18.23-.18.1,0,.21.09.29.17l.72.6c.08.06.14.12.14.23,0,.13-.12.17-.23.17h-2.27c0,.52-.01,1.46,0,2.22h1.7l.55-.74c.09-.12.15-.19.24-.19s.19.1.27.18l.76.72c.08.08.14.13.14.23,0,.15-.12.16-.23.16Z"/>
      <path class="cls-2" d="M93.97,71.98c.84-2.05,1.09-4.41,1.09-4.6,0-.17-.02-.35-.04-.51l1.32.5c.06.03.17.08.17.2,0,.13-.04.17-.39.41-.31.96-.97,2.86-2.04,4.06l-.1-.04ZM99.94,61.62c.06.04.1.1.1.21,0,.18-.15.22-.63.33-.51.69-1.31,1.74-2.64,3.24.08-.01,1.1-.04,1.88-.12-.1-.25-.29-.63-.54-1.06l.08-.11c.81.35,1.83,1,1.83,1.79,0,.34-.21.67-.6.67s-.41-.12-.69-1.08c-.22.08-.48.15-1.06.32.02,2.07,0,3.13.03,4.41,0,.27.04,1.42.04,1.66,0,.23,0,.83-.67.83-.42,0-.42-.34-.42-.46,0-.69.12-5.22.13-6.21-.38.09-.85.21-1.92.42-.21.23-.23.25-.35.25-.1,0-.18-.1-.21-.21l-.31-1.27c.33.09.72.22,1.4.22.09,0,.9-.03,1.02-.04.99-1.47,2.27-3.71,2.25-4.62l1.29.84ZM94.55,61.46c.31.03.9.09,1.56.48,0-.02.75-1.98.65-2.94l1.44.75c.09.04.15.12.15.2,0,.15-.13.21-.66.42-.54.73-.73.96-1.37,1.71.2.15.66.5.66,1.06,0,.41-.27.69-.57.69-.38,0-.51-.32-.62-.54-.17-.39-.57-1.12-1.29-1.72l.05-.11ZM98.02,67.25c1,.36,1.77,1.06,1.77,1.68,0,.34-.2.64-.57.64-.42,0-.5-.24-.72-1.05-.12-.42-.3-.88-.57-1.18l.09-.09ZM100.34,67.51c-.38,0-.63.03-.75.06l-.21-.48c.56.04,1,.06,1.14.06h.46l.29-.34s.1-.12.19-.12c.06,0,.17.08.23.13l.6.57c.06.06.16.15.16.25,0,.12-.04.18-.49.34-.72,1.58-1.83,3.02-3.51,3.84l-.03-.09c1.74-1.67,2.31-3.36,2.59-4.23h-.67ZM103.46,65.54l.27.09c.1.03.33.12.33.27,0,.18-.27.33-.39.39,0,.55.58,1.63.87,2.05.85-.78,1.38-1.42,1.62-2.04l1.04,1.04s.07.12.07.2c0,.03-.02.19-.24.19-.05,0-.24-.01-.39-.03-.72.33-1.27.54-2.01.79.87,1.23,2.16,2.1,3.63,2.44v.12c-1.05.25-1.26.58-1.52.96-1.52-1.16-2.52-2.62-3.04-4.46,0,.56.09,3,.09,3.5,0,.36,0,1.39-1.5,1.67-.17-.48-.33-.95-1.54-1.46v-.12c.25.03,1.26.09,1.45.09.6,0,.62-.12.62-.57v-4.05c0-.51,0-.83-.04-1.08h-1.2c.02.41-.24.62-.6.62-.33,0-.48-.12-.48-.39,0-.21.08-2.17.08-2.58,0-.79-.02-2.29-.14-2.98l1.22.64h.9c.06-.25.13-.71.13-1.24,0-.27-.01-.39-.07-.74l1.41.45c.12.04.25.1.25.25,0,.19-.15.24-.54.31-.3.41-.51.63-.81.96h2.04l.41-.46c.04-.06.18-.17.25-.17s.17.06.23.11l.71.52c.09.06.19.17.19.25,0,.14-.06.17-.56.53,0,.62.14,3.51.14,3.84,0,.45-.3.66-.71.66s-.4-.24-.39-.58h-1.77ZM101.56,61.21v1.8h3.67v-1.8h-3.67ZM105.23,65.18v-1.81h-3.67v1.81h3.67Z"/>
      <path class="cls-2" d="M115.39,71.27l-.02-.12c3.21-1.14,4.71-3.25,4.71-5.53,0-2.54-2.04-4.04-4.65-4.04-.38,0-.45.01-.61.09.81.44,1.03.99,1.03,1.2,0,.17-.04.27-.51,1.25-.96,2.05-2.37,5.07-3.39,5.91-.1.08-.28.17-.48.17-.34,0-.48-.19-.93-.83-.1-.15-.71-.7-.81-.84-.17-.24-.42-.78-.42-1.53,0-3.23,2.73-5.88,6.39-5.88,2.91,0,5.55,1.69,5.55,4.71s-2.43,5.14-5.86,5.44ZM114.2,61.76c-1.65.27-3.94,2.4-3.94,5.16,0,1.02.58,2.14,1.17,2.14.4,0,.99-1.06,1.25-1.57,1.5-3.02,1.99-3.99,1.99-4.77,0-.38-.18-.69-.46-.96Z"/>
      <path class="cls-2" d="M134.68,65.05c-.24,0-1.3-.06-1.51-.06-3.46,0-5.42,1.98-5.42,3.55,0,1.75,2.1,2.23,3.5,2.43.46.06.79.33.79.79,0,.22-.09.46-.65.46-.81,0-4.3-.79-4.3-3.34,0-1.86,1.6-2.97,2.92-3.78-1.33.04-3.88.96-5.43,1.86-.09.04-.51.29-.83.29-.56,0-.75-.41-.75-.66,0-.38.15-.43,1.02-.72,1.47-.5,2.9-1.67,4.6-3.24.42-.38,1.89-1.79,1.89-2.13,0-.1-.09-.15-.18-.15-.51,0-1.7.6-2.22.98-.58.41-.65.45-.85.45-.46,0-1.06-.65-1.06-1.35,0-.3.09-.43.18-.58.34.5.52.66.88.66.41,0,3.04-.79,3.51-.79.54,0,1.17.71,1.17,1.16,0,.25-.08.3-.75.72-.47.29-2.35,1.8-2.76,2.07-.4.28-2.52,1.68-2.59,1.75-.02.01-.04.04-.04.07s.03.06.1.06c.06,0,.36-.08.45-.11,1.73-.48,2.83-.71,6.73-1.59.35-.08.52-.1.65-.1.54,0,1.38.51,1.38.93,0,.38-.4.38-.44.38ZM134.56,63.22c-.21,0-.26-.04-.74-.71-.07-.1-.58-.79-1.4-1.3,1.16.09,2.52.75,2.52,1.56,0,.23-.15.45-.39.45ZM136.09,62.25c-.18,0-.24-.06-.77-.72-.19-.26-.61-.74-1.35-1.2,1.02.08,2.49.6,2.49,1.46,0,.25-.14.46-.38.46Z"/>
      <path class="cls-2" d="M149.27,69.85c-.19,0-.39-.11-.81-.46-.88-.78-1.5-1.14-1.78-1.32-.98,1.96-2.25,3.39-3.75,4.04l-.04-.06c1.27-1.26,2.26-2.77,2.94-4.44-1.08-.53-2.19-.96-3.72-1.11-.49.96-2.08,4.12-3.45,4.12-.72,0-1.25-1.2-1.25-1.81,0-1.83,2.15-2.78,4.08-2.92,1.08-2.45,1.69-4.53,1.69-4.59,0-.11-.09-.15-.17-.15-.39,0-1.21.55-1.51.75-.27.18-.42.25-.54.25-.35,0-.98-.57-.98-1.25,0-.33.13-.49.23-.63.17.46.57.65.85.65.25,0,1.38-.29,2.07-.56.15-.06.6-.24.67-.24.27,0,.95.54.95.88,0,.17-.03.2-.38.66-.47.6-1.53,3.09-1.98,4.17,1.44.12,3,.58,3.75.88.09-.27.35-1.16.35-1.71,0-.46-.18-.78-.57-1.26.12-.04.24-.08.38-.08.61,0,1.35.83,1.35,1.29,0,.27-.33,1.51-.58,2.16,1.23.6,2.71,1.35,2.71,2.16,0,.45-.31.57-.51.57ZM138.04,68.53c0,.66.43,1.12.76,1.12.58,0,1.95-2.1,2.39-3.13-.89-.09-3.15.63-3.15,2.01Z"/>
      <path class="cls-2" d="M157.13,63.62l.51-.69c.08-.1.17-.19.24-.19.09,0,.21.1.29.17l.76.67c.09.08.15.15.15.24,0,.15-.13.17-.22.17h-2.96c0,.3.02.65.02.95.65.27,2.44,1.28,2.44,2.34,0,.3-.17.76-.65.76-.25,0-.4-.09-.66-.81-.21-.58-.66-1.46-1.14-1.95.01.93.04,5.03.06,5.85,0,.15.04.81.04.94,0,.46-.52.66-.85.66-.24,0-.38-.18-.38-.42s.09-1.32.1-1.53c.03-.9.06-2.62.07-5.02-.82,1.5-2.29,3.13-3.78,3.97l-.06-.08c1.49-1.57,2.98-4.12,3.62-5.67h-1.22c-.27,0-1.02,0-1.75.14l-.3-.6c1.11.09,2.08.11,2.31.11h1.18v-2.37c-1.66.34-2.77.39-3.31.41v-.09c1.89-.47,3.54-1.08,4.75-1.7.38-.2.63-.39.75-.62l1.08,1c.06.04.12.12.12.2,0,.1-.09.18-.23.18-.09,0-.48-.04-.72-.08-.5.2-.92.33-1.52.48v2.58h1.23ZM161.09,61.03c.06.01.25.1.25.22,0,.11-.04.13-.46.53-.02.28-.02.58-.02,1.09,0,1.39.07,4.3.09,5.31,0,.2.02.45.02.57,0,.6-.58.76-.78.76-.27,0-.38-.13-.38-.38,0-.09.01-.22.01-.3.1-1.04.09-4,.09-5.21,0-1.98-.02-2.31-.24-3.09l1.41.48ZM164.33,60c.1.03.23.08.23.22,0,.12-.06.17-.51.5-.03,1.02,0,5.08.03,6.25.03,1.14.07,3.24.07,3.43,0,.79,0,1.77-2.14,2.07-.06-.39-.14-.93-1.35-1.49l.02-.08c.33.03,1.32.09,1.68.09.73,0,.73-.21.73-.87,0-1.71-.06-7.72-.09-9.1-.02-.84-.12-1.2-.23-1.54l1.56.51Z"/>
      <path class="cls-2" d="M176.96,60.13l.52-.45c.12-.1.18-.13.23-.13.08,0,.18.06.24.11l.75.54c.09.06.15.16.15.22,0,.17-.2.31-.63.57-.03.57-.03.63-.03,2.23,0,1.14.04,6.15.04,7.17,0,.9,0,1.75-1.75,2.12-.29-1.01-1.05-1.37-1.41-1.53l.03-.12c.48.06.96.11,1.44.11.6,0,.6-.12.6-1.19,0-.3,0-1.88.01-2.1h-3.57c0,.87.02,2.19.06,3.42.02.21.02.42.02.5,0,.31,0,.92-.84.92-.45,0-.47-.32-.47-.51,0-.12.02-.5.03-.63.12-1.81.13-3.17.13-3.69h-3.31c-.19,1.25-.67,3.13-3.06,4.78l-.12-.12c2.25-2.07,2.35-5.69,2.35-9.72,0-1.52,0-1.56-.24-3.2l1.48.71h7.33ZM169.45,63.98c0,.87-.08,2.55-.18,3.33h3.27l.03-3.33h-3.12ZM169.45,60.49v3.13h3.12v-3.13h-3.12ZM177.16,67.31l.02-3.33h-3.55l-.03,3.33h3.57ZM177.17,63.62l.02-3.13h-3.57v3.13h3.55Z"/>
      <path class="cls-2" d="M183.49,72.29c-1.21,0-2.16-1.01-2.16-2.22s.97-2.2,2.16-2.2,2.17.97,2.17,2.2-.94,2.22-2.17,2.22ZM183.49,68.3c-.96,0-1.72.81-1.72,1.77s.75,1.79,1.72,1.79,1.74-.81,1.74-1.77-.78-1.79-1.74-1.79Z"/>
    </g>
  </g>
</svg>