<?xml version="1.0" encoding="UTF-8"?>
<svg id="_レイヤー_2" data-name="レイヤー 2" xmlns="http://www.w3.org/2000/svg" xmlns:xlink="http://www.w3.org/1999/xlink" viewBox="0 0 500 47.86">
  <defs>
    <style>
      .cls-1 {
        fill: url(#_名称未設定グラデーション_25);
      }

      .cls-1, .cls-2 {
        stroke-width: 0px;
      }

      .cls-2 {
        fill: #675952;
      }
    </style>
    <linearGradient id="_名称未設定グラデーション_25" data-name="名称未設定グラデーション 25" x1="0" y1="45.61" x2="500" y2="45.61" gradientUnits="userSpaceOnUse">
      <stop offset="0" stop-color="#675952" stop-opacity="0"/>
      <stop offset=".49" stop-color="#675952"/>
      <stop offset="1" stop-color="#675952" stop-opacity="0"/>
    </linearGradient>
  </defs>
  <g id="_レイヤー_1-2" data-name="レイヤー 1">
    <rect class="cls-1" y="43.36" width="500" height="4.5"/>
    <g>
      <path class="cls-2" d="M163,18.88c-.3-.94-.47-1.06-1.74-1.06h-6.42c-1.06,0-1.32.13-1.62,1.02l-1.49,4.46c-.64,1.91-.94,3.06-.94,3.53,0,.51.21.77,1.23.85l1.4.13c.3.21.3.89-.08,1.06-1.11-.08-2.42-.08-4.42-.13-1.4,0-2.93.08-4.08.13-.25-.17-.34-.85-.08-1.06l1.4-.13c1.02-.08,1.96-.55,2.55-2.08.77-1.96,1.96-4.72,3.74-9.48l4.34-11.48c.6-1.53.85-2.34.72-3.02,1.02-.3,1.74-1.06,2.21-1.62.26,0,.55.08.64.38.55,1.87,1.23,3.83,1.87,5.7l5.83,17.09c1.23,3.66,1.79,4.3,3.61,4.51l1.15.13c.3.21.21.89,0,1.06-1.74-.08-3.23-.13-5.15-.13-2.04,0-3.66.08-4.89.13-.34-.17-.38-.85-.08-1.06l1.23-.13c.89-.08,1.49-.34,1.49-.77,0-.47-.21-1.23-.55-2.25l-1.87-5.78ZM154.58,15.1c-.34.98-.3,1.02.89,1.02h5.23c1.23,0,1.32-.17.94-1.32l-2.3-6.93c-.34-1.02-.72-2.17-.98-2.68h-.08c-.13.21-.55,1.23-1.02,2.51l-2.68,7.4Z"/>
      <path class="cls-2" d="M191.66,3.62c3.1-2.42,7.06-3.62,11.48-3.62,2.3,0,5.53.47,7.53,1.02.51.13.81.21,1.19.17.04.98.26,3.66.6,6.25-.21.3-.85.34-1.15.08-.64-2.89-2.55-6.21-8.72-6.21-6.51,0-12.03,4.12-12.03,12.93s5.66,13.86,12.63,13.86c5.49,0,7.91-3.57,8.89-6.08.3-.21.94-.13,1.11.17-.3,2.21-1.4,5.02-2.04,5.83-.51.08-1.02.25-1.49.42-.94.34-4,.98-6.72.98-3.83,0-7.48-.77-10.59-2.85-3.4-2.34-6.04-6.21-6.04-11.69,0-4.72,2.13-8.76,5.36-11.27Z"/>
      <path class="cls-2" d="M234.01,3.62c3.1-2.42,7.06-3.62,11.48-3.62,2.3,0,5.53.47,7.53,1.02.51.13.81.21,1.19.17.04.98.25,3.66.6,6.25-.21.3-.85.34-1.15.08-.64-2.89-2.55-6.21-8.72-6.21-6.51,0-12.03,4.12-12.03,12.93s5.66,13.86,12.63,13.86c5.49,0,7.91-3.57,8.89-6.08.3-.21.94-.13,1.11.17-.3,2.21-1.4,5.02-2.04,5.83-.51.08-1.02.25-1.49.42-.94.34-4,.98-6.72.98-3.83,0-7.48-.77-10.59-2.85-3.4-2.34-6.04-6.21-6.04-11.69,0-4.72,2.13-8.76,5.36-11.27Z"/>
      <path class="cls-2" d="M274.57,7.06c0-4.42-.08-5.06-2.59-5.36l-.68-.08c-.25-.17-.17-.94.08-1.06,1.83.09,3.27.13,5.02.13h8c2.72,0,5.23,0,5.74-.13.26.72.51,3.79.68,5.66-.17.25-.85.34-1.06.08-.64-2-1.02-3.49-3.23-4.04-.89-.21-2.25-.25-4.12-.25h-3.06c-1.28,0-1.28.08-1.28,1.7v8.5c0,1.19.13,1.19,1.4,1.19h2.47c1.79,0,3.1-.09,3.61-.26.51-.17.81-.42,1.02-1.49l.34-1.74c.21-.26.94-.26,1.11.04,0,1.02-.17,2.68-.17,4.3,0,1.53.17,3.15.17,4.08-.17.3-.89.3-1.11.04l-.38-1.66c-.17-.77-.47-1.4-1.32-1.62-.6-.17-1.62-.21-3.27-.21h-2.47c-1.28,0-1.4.04-1.4,1.15v6c0,2.25.13,3.7.81,4.42.51.51,1.4.98,5.15.98,3.27,0,4.51-.17,5.44-.64.76-.43,1.91-1.91,3.02-4.12.3-.21.89-.08,1.06.3-.3,1.49-1.36,4.76-1.91,5.91-3.83-.08-7.61-.13-11.4-.13h-3.83c-1.83,0-3.27.04-5.78.13-.25-.13-.34-.81-.08-1.06l1.4-.13c2.42-.21,2.64-.85,2.64-5.32V7.06Z"/>
      <path class="cls-2" d="M316.24,29.43c-3.57,0-5.83-1.11-6.63-1.57-.51-.94-1.06-3.96-1.15-5.95.21-.3.85-.38,1.02-.13.64,2.17,2.38,6.34,7.31,6.34,3.57,0,5.32-2.34,5.32-4.89,0-1.87-.38-3.96-3.49-5.95l-4.04-2.64c-2.13-1.4-4.59-3.83-4.59-7.31,0-4.04,3.15-7.31,8.67-7.31,1.32,0,2.85.26,3.96.55.55.17,1.15.26,1.49.26.38,1.02.77,3.4.77,5.19-.17.26-.85.38-1.06.13-.55-2.04-1.7-4.81-5.78-4.81s-5.06,2.76-5.06,4.72c0,2.47,2.04,4.25,3.62,5.23l3.4,2.13c2.68,1.66,5.32,4.12,5.32,8.17,0,4.68-3.53,7.87-9.06,7.87Z"/>
      <path class="cls-2" d="M349.79,29.43c-3.57,0-5.83-1.11-6.63-1.57-.51-.94-1.06-3.96-1.15-5.95.21-.3.85-.38,1.02-.13.64,2.17,2.38,6.34,7.31,6.34,3.57,0,5.32-2.34,5.32-4.89,0-1.87-.38-3.96-3.49-5.95l-4.04-2.64c-2.13-1.4-4.59-3.83-4.59-7.31,0-4.04,3.15-7.31,8.67-7.31,1.32,0,2.85.26,3.96.55.55.17,1.15.26,1.49.26.38,1.02.77,3.4.77,5.19-.17.26-.85.38-1.06.13-.55-2.04-1.7-4.81-5.78-4.81s-5.06,2.76-5.06,4.72c0,2.47,2.04,4.25,3.62,5.23l3.4,2.13c2.68,1.66,5.32,4.12,5.32,8.17,0,4.68-3.53,7.87-9.06,7.87Z"/>
    </g>
  </g>
</svg>