<?xml version="1.0" encoding="UTF-8"?>
<svg id="_レイヤー_2" data-name="レイヤー 2" xmlns="http://www.w3.org/2000/svg" viewBox="0 0 1295.71 80">
  <defs>
    <style>
      .cls-1, .cls-2, .cls-3 {
        stroke-width: 0px;
      }

      .cls-2 {
        fill: #231815;
      }

      .cls-3 {
        fill: #fff;
      }
    </style>
  </defs>
  <g id="_レイヤー_1-2" data-name="レイヤー 1">
    <g>
      <rect class="cls-2" width="776" height="80"/>
      <g>
        <path class="cls-3" d="M30.18,27.36v33.79h-1.56V25.68h12.29v1.68h-10.74Z"/>
        <path class="cls-3" d="M56.54,44.27c-2.55,3.66-6.11,7.13-7.52,8.5-.11.86-.22,1.44-.81,1.44-.26,0-.48-.27-.59-.43l-2.59-3.31c1.22.04,2.3.08,11.33-6.39l.18.19ZM50.76,29.89c-.63,0-2.55,0-4.37.35l-.7-1.56c1.89.16,3.78.27,5.67.27h5.85l1.18-1.05c.3-.27.44-.35.63-.35s.52.27.67.39l1.44,1.21c.19.16.37.39.37.66,0,.39-.11.47-1.19,1.33-.04,1.09,0,20.73,0,23.11,0,1.56,0,4.99-4.85,5.69-.44-1.09-1.15-2.57-3.48-3.9l.04-.31c.7.12,1.37.19,2.92.19,2.37,0,2.52-.08,2.59-1.21.04-.43.15-18.04.15-18.2,0-2.77-.04-5.57-.07-6.62h-6.85ZM47.65,34.84c3.78.7,5.74,3.16,5.74,4.72,0,1.17-.85,1.79-1.59,1.79-1.07,0-1.37-.74-2.15-2.65-.74-1.87-1.26-2.69-2.11-3.7l.11-.16ZM72.39,44.15c-1.85,2.38-5.41,6.12-7.15,7.99-.11.47-.19,1.21-.67,1.21-.22,0-.41-.23-.56-.43l-2.41-3.35c1.48-.08,3-.19,10.59-5.61l.19.19ZM67.65,30.01c-.59,0-2.56,0-4.33.35l-.74-1.56c1.89.16,3.78.27,5.7.27h4.74l.93-1.09c.11-.16.37-.27.59-.27s.41.16.56.27l1.59,1.29c.22.16.3.31.3.55,0,.35-.22.55-1.15,1.36v5.77c0,2.81.15,15.12.15,17.65,0,2.03,0,4.37-4.89,5.73-.18-.74-.52-1.91-3.41-4.05l.04-.19c.81.04,2.74.16,4,.16s1.52-.35,1.52-1.68c0-3.9.04-21.28,0-24.55h-5.59ZM63.84,34.33c2.59.58,6.04,2.1,6.04,4.6,0,1.09-.78,1.79-1.59,1.79-.93,0-1.15-.39-2.11-2.49-.33-.66-1.19-2.3-2.37-3.7l.04-.2Z"/>
        <path class="cls-3" d="M108.38,29.66l1.04-1.01c.22-.2.33-.43.56-.43s.37.16.56.27l2,1.56c.22.2.41.35.41.66,0,.55-1.22,1.13-1.56,1.29-.11,3.82-.04,15,.15,21.36,0,.58.22,3.35.22,3.9,0,1.6-1.3,2.03-2.11,2.03-1.19,0-1.11-.7-1.04-2.26h-20.96c0,.23,0,1.4-.04,1.56-.26.9-1.37,1.21-2,1.21-.52,0-1.11-.23-1.11-1.09,0-.47.11-2.46.11-2.88.15-5.65.26-11.3.26-16.91,0-7.64-.19-9-.52-11.26l3.52,2.03h20.52ZM87.64,30.59v12.08h9.07v-12.08h-9.07ZM87.64,43.61v12.47h9.07v-12.47h-9.07ZM108.6,42.67v-12.08h-9.33v12.08h9.33ZM108.6,56.08v-12.47h-9.33v12.47h9.33Z"/>
        <path class="cls-3" d="M150.41,59.12h-27.15c-.3,0-2.67,0-4.37.35l-.74-1.56c1.89.2,3.81.27,5.7.27h9.33v-9.2h-6.41c-1,0-2.74.04-4.37.35l-.74-1.56c2.92.23,5.04.27,5.7.27h14.33l1.59-1.87c.3-.31.44-.51.59-.51.22,0,.52.27.7.43l2.19,1.87c.18.16.37.35.37.58,0,.39-.37.43-.59.43h-10.74v9.2h9.55l1.63-2.07c.19-.23.33-.47.56-.47.15,0,.33.04.7.39l2.33,2.07c.15.12.41.31.41.58,0,.39-.37.43-.59.43ZM149.11,42.75c-1.67.35-7.26.35-9.26.35-3.78,0-3.78-.97-3.78-4.83,0-.86-.04-5.22-.04-6.2h-12.07c-.48,4.36-3.33,4.36-3.44,4.36-.74,0-1.48-.55-1.48-1.4,0-.97.7-1.44,1.96-2.3,2.18-1.48,2.41-2.96,2.48-3.51h.3c.22.55.26.66.26,1.91h9.33c0-2.61-.11-3.7-.67-5.73l3.52.93c.3.08.81.2.81.7,0,.23-.11.43-.26.54-.15.12-.74.51-.85.62v2.92h8.74l1.44-1.25c.3-.23.44-.39.78-.39.3,0,.45.16.63.35l2.26,2.1c.15.12.3.47.3.74,0,.7-.52.78-2,.9-.59.39-3.22,2.22-3.78,2.57l-.19-.2c.33-1.29.41-1.56.82-3.9h-6.3c0,1.36-.07,7.75.22,8.14.26.35,2.96.35,3.63.35,1.3,0,4.11,0,4.78-.7.81-.82,1.3-2.77,1.63-4.13h.3c.59,2.53.81,3.51,1.3,3.86.48.35.74.66.74,1.25,0,1.13-1.33,1.75-2.11,1.91ZM131.82,35.38c-2.22,4.52-5.15,8.18-12.33,9.74l-.15-.31c8.15-4.29,9.96-10.09,10.26-12.59l3.07,1.68c.37.2.48.35.48.58,0,.47-.11.51-1.33.9Z"/>
        <path class="cls-3" d="M158.44,41c-.89,0-1.11-.39-2.3-2.81-.44-.86-1.15-1.87-1.85-2.53l.04-.23c1.33.2,5.48,1.25,5.48,3.9,0,.66-.33,1.68-1.37,1.68ZM160.22,47.5c-.63,2.65-.67,2.96-.67,3.7,0,1.05.22,2.46.48,3.47.56,2.42.67,2.84.67,3.47,0,1.09-.48,2.18-1.63,2.18-1.74,0-1.74-1.95-1.74-2.81,0-.51.11-2.65.11-3.08,0-1.4-.11-3.2-2.48-4.29v-.23c.59-.08,1.78-.23,2.44-1.17.82-1.13,5-13.64,5.3-14.77l.3.12c-.37,3.23-.63,4.29-2.78,13.41ZM161.22,31.8c-1.11,0-1.44-.9-2.26-2.77-.41-.97-.96-1.95-1.59-2.81l.07-.2c.7.16,5.3,1.52,5.3,4.01,0,1.01-.63,1.75-1.52,1.75ZM187.36,47.78c-.81.7-1.18,1.44-1.52,2.1-3.96-1.64-7.92-6.59-9.26-10.09h-4.74c-.56,1.05-1.63,2.96-3.89,5.61,2.63.23,5.15.27,5.59.27h1.85l.67-.7c.26-.27.44-.54.7-.54.22,0,.52.27.67.39l1.22,1.01c.22.2.44.39.44.66,0,.43-.19.58-.85,1.21.04.58.15,3.16.15,3.66,0,.78,0,1.25-.37,1.56-.33.27-1.04.51-1.41.51-.74,0-.78-.55-.78-.9h-4.89c-.22,5.22.04,5.22,2.04,5.22,6.22,0,7.63,0,8.44-.82.85-.86,1.22-2.46,1.93-5.18h.18c.19,1.17.63,3.9,1.15,4.6.15.23.18.23.59.58.18.16.3.27.3.51,0,.16,0,1.13-1.59,1.95-1.85.94-5.52.94-7.48.94-7.04,0-8.04-.23-8.07-3.08,0-2.42-.04-6.2-.22-7.33l3.41,1.68h4.26v-4.99h-2.92c-.93,0-2.7,0-4.33.35l-.7-1.52c-1.81,2.22-4.52,4.83-6.74,6.08l-.11-.23c3.41-3.51,6.48-8.61,7.7-11.5-.78,0-3,0-4.7.35l-.74-1.56c1.93.16,2.3.19,5.59.27v-6.62c-1.3.04-2.56.08-3.81.35l-.74-1.56c.81.08,2.15.2,4.55.23,0-3.16-.07-3.55-.63-6l3.41,1.05c.44.16.7.31.7.58,0,.43-.33.7-1.07,1.25.04.82.04,1.05,0,3.16h4.74c-.04-3.2-.04-3.55-.67-5.85l3.52.97c.41.12.7.35.7.55,0,.47-.59.94-1.07,1.25-.04.51-.04,2.65-.04,3.08h2.11l1.19-1.68c.15-.19.33-.51.56-.51s.52.31.7.47l1.63,1.64c.22.19.37.35.37.58,0,.39-.3.43-.56.43h-6v6.62h4.11l1.26-1.75c.18-.27.33-.51.55-.51.26,0,.52.23.7.43l1.78,1.75c.22.23.37.43.37.58,0,.39-.33.43-.55.43h-9.44c1.44,2.38,5.48,6.2,11.48,6.82v.23c-.22.16-1.22.78-1.41.94ZM176.07,32.23h-4.74v6.62h4.74c0-.94.04-5.57,0-6.62Z"/>
        <path class="cls-3" d="M208.17,31.88h-6.44c2.04,1.36,3.04,2.03,3.04,3.47,0,.82-.48,1.71-1.41,1.71-1.04,0-1.11-.58-1.37-2.3-.26-1.71-.67-2.57-.81-2.88h-1.63c-1.7,2.53-3.33,4.6-6.52,6.74l-.15-.2c2.3-2.81,5.52-8.5,6.44-11.18.11-.31.26-.97.22-2.1l3.41,1.87c.26.16.33.31.33.51,0,.39-.56.58-1.48.9-.48.74-1.44,2.22-1.63,2.53h4.15l1.11-1.44c.19-.23.41-.51.56-.51.19,0,.41.19.7.43l1.67,1.44c.19.16.37.39.37.58,0,.35-.33.43-.56.43ZM223.02,49.41c-1.04,5.11-1.56,7.83-6.7,8.46-.07-1.48-1.33-3-2.81-4.13l.04-.23c1.48.31,3.15.66,4.18.66,1.15,0,2.19-.35,2.78-5.69h-10.78c.04,1.36.11,8.03.15,9.55,0,.2.07,1.33.07,1.6,0,1.13-.96,1.64-1.82,1.64-.48,0-1-.16-1-1.17,0-1.91.18-8.38.22-10.41-3.67,4.64-8.41,8.18-13.85,10.17l-.07-.31c2.48-1.4,7.93-6,11.74-11.07h-7.33c-.44,1.79-.63,2.49-1.89,2.49-.85,0-1.3-.31-1.3-.94,0-.12.41-1.32.67-2.03,1.37-4.05,1.44-5.14,1.55-7.37l3,1.79h7.55c0-.35-.04-3.24-.04-3.86h-5.59c-.3,0-2.63,0-4.37.39l-.74-1.56c1.81.16,3.89.23,5.7.23h15l1-1.01c.11-.12.26-.23.41-.23.19,0,.37.12.52.23l1.74,1.4c.11.12.3.23.3.47,0,.35-.41.66-1.19,1.21,0,.58.15,3.27.15,3.66,0,1.33-1.48,1.48-1.74,1.48-.96,0-.93-.86-.89-1.48h-7.96v4.17h10.52l1.3-1.4c.15-.16.33-.39.48-.39s.41.23.56.39l1.7,1.64c.15.12.26.31.26.47,0,.51-.59.7-1.52,1.17ZM207.43,43.37h-8.3c-.37,1.21-.41,1.52-1.04,4.17h9.33v-4.17ZM224.43,32.27h-10.78c2.78,1.13,3.85,1.6,3.85,3.23,0,1.05-.78,1.44-1.33,1.44-.93,0-1.07-.58-1.67-2.3-.22-.7-.85-1.71-1.44-2.38h-1.41c-1.18,1.75-2.59,3.51-4.33,4.83l-.18-.16c2.33-4.13,4.48-8.26,4.37-11.65l3.59,1.71c.22.12.33.27.33.47,0,.39-.52.66-1.59,1.01-.37.74-.7,1.4-1.59,2.84h7.81l1.22-1.83c.15-.23.33-.47.56-.47.26,0,.52.23.7.39l2.07,1.83c.18.16.37.35.37.58,0,.35-.3.43-.56.43ZM217.72,38.58h-8v3.86h8v-3.86Z"/>
        <path class="cls-3" d="M230.12,56.82h2.04c1.93,0,2.59-.78,2.59-2.38v-21.08c0-1.21-1.07-1.4-1.78-1.4h-2.81v-1.21h.67c2.85,0,5.59-1.36,6.04-1.64.26-.16.37-.23.52-.23.33,0,.41.23.41.55v25.02c0,1.68.78,2.38,2.59,2.38h2.04v1.25h-12.29v-1.25Z"/>
        <path class="cls-3" d="M254.79,46.37c-1.63,0-2.96-1.4-2.96-3.12s1.33-3.12,2.96-3.12,2.96,1.33,2.96,3.12-1.37,3.12-2.96,3.12Z"/>
        <path class="cls-3" d="M282.22,31.88h-6.44c2.04,1.36,3.04,2.03,3.04,3.47,0,.82-.48,1.71-1.41,1.71-1.04,0-1.11-.58-1.37-2.3-.26-1.71-.67-2.57-.82-2.88h-1.63c-1.7,2.53-3.33,4.6-6.52,6.74l-.15-.2c2.3-2.81,5.52-8.5,6.44-11.18.11-.31.26-.97.22-2.1l3.41,1.87c.26.16.33.31.33.51,0,.39-.56.58-1.48.9-.48.74-1.44,2.22-1.63,2.53h4.15l1.11-1.44c.19-.23.41-.51.56-.51.19,0,.41.19.7.43l1.67,1.44c.19.16.37.39.37.58,0,.35-.33.43-.55.43ZM297.07,49.41c-1.04,5.11-1.55,7.83-6.7,8.46-.07-1.48-1.33-3-2.81-4.13l.04-.23c1.48.31,3.15.66,4.18.66,1.15,0,2.19-.35,2.78-5.69h-10.78c.04,1.36.11,8.03.15,9.55,0,.2.07,1.33.07,1.6,0,1.13-.96,1.64-1.81,1.64-.48,0-1-.16-1-1.17,0-1.91.18-8.38.22-10.41-3.67,4.64-8.41,8.18-13.85,10.17l-.07-.31c2.48-1.4,7.92-6,11.74-11.07h-7.33c-.44,1.79-.63,2.49-1.89,2.49-.85,0-1.3-.31-1.3-.94,0-.12.41-1.32.67-2.03,1.37-4.05,1.44-5.14,1.55-7.37l3,1.79h7.55c0-.35-.04-3.24-.04-3.86h-5.59c-.3,0-2.63,0-4.37.39l-.74-1.56c1.81.16,3.89.23,5.7.23h15l1-1.01c.11-.12.26-.23.41-.23.19,0,.37.12.52.23l1.74,1.4c.11.12.3.23.3.47,0,.35-.41.66-1.19,1.21,0,.58.15,3.27.15,3.66,0,1.33-1.48,1.48-1.74,1.48-.96,0-.93-.86-.89-1.48h-7.96v4.17h10.52l1.3-1.4c.15-.16.33-.39.48-.39s.41.23.56.39l1.7,1.64c.15.12.26.31.26.47,0,.51-.59.7-1.52,1.17ZM281.48,43.37h-8.29c-.37,1.21-.41,1.52-1.04,4.17h9.33v-4.17ZM298.48,32.27h-10.78c2.78,1.13,3.85,1.6,3.85,3.23,0,1.05-.78,1.44-1.33,1.44-.93,0-1.07-.58-1.67-2.3-.22-.7-.85-1.71-1.44-2.38h-1.41c-1.18,1.75-2.59,3.51-4.33,4.83l-.18-.16c2.33-4.13,4.48-8.26,4.37-11.65l3.59,1.71c.22.12.33.27.33.47,0,.39-.52.66-1.59,1.01-.37.74-.7,1.4-1.59,2.84h7.81l1.22-1.83c.15-.23.33-.47.56-.47.26,0,.52.23.7.39l2.07,1.83c.19.16.37.35.37.58,0,.35-.3.43-.56.43ZM291.78,38.58h-8v3.86h8v-3.86Z"/>
        <path class="cls-3" d="M316.58,58.07h-14.55v-1.05c.74-2.46,2.48-5.18,5.44-8.73,5.44-6.63,7.3-8.85,7.3-12.74,0-2.92-1.78-5.34-4.93-5.34-2.59,0-4.15,1.64-4.15,3.04,0,.12,0,.62.37,1.21.48.78.78,1.21.78,1.95,0,1.17-.89,2.18-2,2.18-1.3,0-2.11-1.29-2.11-2.73,0-2.84,2.63-6.98,7.96-6.98,4.59,0,7.41,3.04,7.41,7.25,0,3.94-2.15,6.08-5.48,9.08-1.26,1.09-6.15,5.5-8,9.78h5.11c5.18,0,6.41-2.1,7.52-5.34l1.11.43-1.78,7.99Z"/>
        <path class="cls-3" d="M343.54,35.93c-.74.31-1,.55-2.22,3.08-5.7,11.65-11.44,16.99-19.59,19.41l-.11-.27c4.96-3,9.41-6.9,12.74-11.73-.37-.04-.78-.39-1.44-1.17-2.56-3.08-2.93-3.51-4.93-4.68-2,2.3-4.04,3.98-6.18,5.07l-.11-.23c4.67-4.75,9.11-12.78,9.11-14.3,0-1.29-1.44-1.87-2.18-2.18.48-.23,1-.47,1.85-.47,2.11,0,4.11,1.91,4.11,2.73,0,.43-.07.51-.93,1.29-.3.31-.74,1.05-1,1.44.26,0,.63.04,1.33.04,1.82,0,5.56-.62,6.07-.9.26-.16,1.3-.94,1.55-.94.44,0,2.89,2.49,2.89,3.04,0,.39-.15.43-.96.78ZM333.84,35.81c-.3,0-.7,0-1.93-.74-1.93,3-3.37,4.79-3.56,5.03,2.07.27,6.81,1.25,7.04,4.75.96-1.52,2.74-4.37,4.7-9.94-1,.12-5.41.9-6.26.9Z"/>
        <path class="cls-3" d="M375.76,44.58c-.33,0-1.22-.08-1.3-.08-1.33-.12-1.7-.16-4.18-.16-11.29,0-14.63.23-16.29.7-.11.04-1.3.35-1.41.35-.96,0-2.96-2.49-2.96-4.29,0-.23.04-.97.45-1.87,1.26,2.96,2.41,2.96,6.26,2.96,2.56,0,14.59-.04,16.29-.47.22-.04,1.3-.35,1.52-.35s3.92.43,3.92,1.95c0,1.21-1.85,1.25-2.3,1.25Z"/>
        <path class="cls-3" d="M399.01,57.68c-.56,0-.89-.2-2.19-1.48-1.74-1.75-3.52-3.51-9.33-5.92-2.11-.86-3.59-1.36-5.22-1.91,8.89-.31,17.92,4.13,17.92,7.91,0,.7-.44,1.4-1.18,1.4ZM397.86,36.01c-.44,0-.63-.12-2.11-1.17-3.89-2.81-7.59-4.05-11.85-5.26.78-.08,1.55-.12,2.59-.12,4.15,0,12.41,1.6,12.41,5.3,0,.55-.37,1.25-1.04,1.25ZM396.94,44.97c-.52,0-.67-.16-2.11-1.25-2.52-1.95-6.44-3.51-9.92-4.68.7-.08.93-.08,1.78-.08.52,0,11.26.12,11.26,4.79,0,.04,0,1.21-1,1.21Z"/>
        <path class="cls-3" d="M431.63,40.53c-.3,0-3.26-.51-3.7-.58-1.37-.23-2.37-.23-3.41-.23-1.96,0-3.15.08-4.04.16-.04.66-.19,5.18-1.22,9.12-.89,3.51-4,9.24-10.15,11.03l-.07-.31c6.48-4.6,8.52-11.34,9-19.64-2.22.23-7.26.97-8.74,1.91-.74.47-.82.54-1.26.54-.85,0-3.67-1.68-3.67-4.6,0-.47.04-.82.11-1.21,1.26,2.03,2.52,2.49,3.78,2.49.59,0,.78,0,2.55-.19,1.15-.12,6.22-.62,7.26-.74.04-1.64.11-5.73-.26-7.09-.26-1.01-1.19-1.44-2.93-1.95,1-.9,2.11-1.01,2.48-1.01,1.52,0,4.11,1.05,4.11,2.34,0,.31-.52,1.44-.63,1.68-.07.2-.26,2.77-.26,4.05,0,1.01-.04,1.33-.04,1.79.67-.04,6.41-.35,6.48-.39.41-.08,2.04-.58,2.3-.58.15,0,3.7.51,3.7,2.22,0,1.21-.93,1.21-1.41,1.21Z"/>
        <path class="cls-3" d="M446,36.63c-.07.9-.37,4.91-.44,5.73-.96,8.38-5.74,12.82-8.89,14.19l-.19-.23c6.85-6.78,6.85-15.2,6.85-18.47s-.04-3.24-2.85-4.01c.59-.43,1.41-1.01,2.44-1.01.96,0,3.48.86,3.48,1.95,0,.31-.37,1.6-.41,1.87ZM455,52.73c-1.26.94-1.37,1.09-2.33,2.18-.18.19-.52.58-.74.58-.7,0-2.37-3.2-2.37-3.7,0-.27.44-1.44.48-1.71.33-1.64.33-6.7.33-7.75,0-1.44-.04-8.65-.22-9.59-.15-.7-.89-1.21-2.67-1.83.48-.31,1.22-.82,2.07-.82,1.11,0,4,1.17,4,2.34,0,.35-.44,1.91-.52,2.22-.37,1.99-.55,12.9-.55,15.28,0,.16,0,.66.26.66.89,0,7.59-4.48,13.41-12.28l.3.23c-2.52,6.39-7.85,11.5-11.44,14.19Z"/>
        <path class="cls-3" d="M469.25,60.83v-1.68h10.74V25.37h1.55v35.46h-12.29Z"/>
        <path class="cls-3" d="M488.5,57.87c-.78,0-1.22-.58-1.22-1.44,0-.74,1.26-3.82,1.41-4.48.15-.66.11-1.21.07-1.68l.33-.04c.63,1.09,1.37,2.57,1.37,4.64,0,1.05-.3,3-1.96,3ZM502.17,46.53c-.52,6.08-1.67,9.35-2.26,10.76-.85,1.95-2.19,2.73-4,3.23-.48-2.42-2.26-3.47-3.04-3.86l.07-.27c2.07.43,3.48.43,3.59.43.74,0,1.04-.08,1.44-1.01,1.07-2.53,1.63-7.6,1.63-10.17h-8.26c.04.62-.04,1.91-1.59,1.91-.74,0-.93-.39-.93-1.05,0-.23.07-1.17.07-1.36.15-2.46.18-9.24.18-11.92,0-1.36,0-4.17-.37-6.47l2.78,1.44h6.89l.89-1.13c.26-.31.44-.51.63-.51.22,0,.41.19.74.43l1.44,1.13c.26.2.41.47.41.62,0,.27-.33.39-.59.39h-5.11v4.52h1.59l.7-.94c.3-.39.41-.55.59-.55s.41.2.74.43l1.19.94c.19.16.41.35.41.62,0,.35-.33.43-.59.43h-4.63v4.48h1.63l.89-1.09c.26-.31.41-.47.59-.47.22,0,.37.12.67.39l1.11,1.09c.22.19.33.47.33.62,0,.23-.22.39-.56.39h-4.67v4.72h2.48l.96-1.13c.22-.27.41-.47.59-.47s.41.16.74.51l1.44,1.4c.15.16.26.31.26.51,0,.47-.85.9-1.11,1.01ZM492.8,56.2c-1.22,0-1.22-1.64-1.22-2.46,0-2.42,0-3.23-.41-4.29l.22-.12c.26.31,1.59,1.71,1.78,2.07.89,1.44,1.04,2.46,1.04,3,0,1.13-.82,1.79-1.41,1.79ZM494.58,29.11h-3.26v4.52h3.26v-4.52ZM494.58,34.57h-3.26v4.48h3.26v-4.48ZM494.58,39.98h-3.26v4.72h3.26v-4.72ZM495.87,53.66c-.96,0-1.07-.66-1.37-2.88-.11-.86-.3-1.87-.7-2.85l.15-.12c1.96,1.79,3.07,2.84,3.07,4.36,0,.66-.37,1.48-1.15,1.48ZM497.95,50.78c-.74,0-.89-.62-1.3-2.18-.3-1.01-.59-1.44-.85-1.79l.22-.23c1.74.86,2.85,1.68,2.85,2.96,0,.62-.33,1.25-.93,1.25ZM522.46,57.95c-1.78.12-3.07,1.75-3.52,2.3-4.15-3.55-7.22-10.25-7.22-19.45h-3.96c-.37,9.59-2.18,15.47-7.59,19.56l-.19-.16c5.18-5.92,5.37-16.8,5.37-24.9,0-4.83-.26-6.12-.63-8.26l3.52,1.64h7.63l1.07-1.09c.22-.23.41-.35.59-.35s.33.08.63.35l1.48,1.33c.22.2.33.39.33.62,0,.27-.7.82-1.15,1.13-.04.66-.07,1.4-.07,2.46,0,1.25.22,6.7.22,7.91s-1.15,1.56-1.74,1.56c-1.19,0-1.11-.86-1.07-1.79h-3.78c.85,8.5,6.18,15.24,10.11,16.91l-.04.23ZM516.2,29.62h-8.22c-.04,1.48-.19,8.65-.19,10.25h8.41v-10.25Z"/>
        <path class="cls-3" d="M535.75,58.96c-4.81-4.06-7.3-9.89-7.3-15.7s2.5-11.65,7.3-15.7l.28.45c-5.73,6.39-5.86,12.88-5.86,15.25s.12,8.86,5.86,15.25l-.28.45Z"/>
        <path class="cls-3" d="M553.04,33.78h-5.36c1.7,1.14,2.53,1.69,2.53,2.89,0,.68-.4,1.43-1.17,1.43-.86,0-.92-.49-1.14-1.91-.22-1.43-.55-2.14-.68-2.4h-1.36c-1.42,2.11-2.77,3.83-5.42,5.61l-.12-.16c1.91-2.34,4.59-7.07,5.36-9.31.09-.26.22-.81.18-1.75l2.84,1.56c.22.13.28.26.28.42,0,.33-.46.49-1.23.75-.4.62-1.2,1.85-1.36,2.11h3.45l.92-1.2c.15-.2.34-.42.46-.42.15,0,.34.16.59.36l1.39,1.2c.15.13.31.33.31.49,0,.29-.28.36-.46.36ZM565.4,48.38c-.86,4.25-1.29,6.52-5.58,7.04-.06-1.23-1.11-2.5-2.34-3.44l.03-.2c1.23.26,2.62.55,3.48.55.96,0,1.82-.29,2.31-4.74h-8.97c.03,1.14.09,6.68.12,7.95,0,.16.06,1.1.06,1.33,0,.94-.8,1.36-1.51,1.36-.4,0-.83-.13-.83-.97,0-1.59.15-6.97.19-8.66-3.05,3.86-7,6.81-11.53,8.47l-.06-.26c2.07-1.17,6.6-5,9.77-9.21h-6.1c-.37,1.49-.52,2.08-1.57,2.08-.71,0-1.08-.26-1.08-.78,0-.1.34-1.1.55-1.69,1.14-3.37,1.2-4.28,1.29-6.13l2.5,1.49h6.29c0-.29-.03-2.69-.03-3.21h-4.65c-.25,0-2.19,0-3.64.32l-.62-1.3c1.51.13,3.24.19,4.75.19h12.48l.83-.84c.09-.1.22-.2.34-.2.15,0,.31.1.43.2l1.45,1.17c.09.1.25.19.25.39,0,.29-.34.55-.99,1.01,0,.49.12,2.72.12,3.05,0,1.1-1.23,1.23-1.45,1.23-.8,0-.77-.71-.74-1.23h-6.63v3.47h8.75l1.08-1.17c.12-.13.28-.32.4-.32s.34.19.46.32l1.42,1.36c.12.1.22.26.22.39,0,.42-.49.58-1.26.97ZM552.42,43.35h-6.9c-.31,1-.34,1.26-.86,3.47h7.77v-3.47ZM566.57,34.11h-8.97c2.31.94,3.21,1.33,3.21,2.69,0,.88-.65,1.2-1.11,1.2-.77,0-.89-.49-1.39-1.91-.18-.58-.71-1.43-1.2-1.98h-1.17c-.99,1.46-2.16,2.92-3.61,4.02l-.15-.13c1.94-3.44,3.73-6.88,3.64-9.7l2.99,1.43c.19.1.28.23.28.39,0,.32-.43.55-1.33.84-.31.62-.58,1.17-1.33,2.37h6.5l1.02-1.52c.12-.2.28-.39.46-.39.22,0,.43.19.58.32l1.73,1.53c.15.13.31.29.31.49,0,.29-.25.36-.46.36ZM560.99,39.36h-6.66v3.21h6.66v-3.21Z"/>
        <path class="cls-3" d="M571.31,54.54h1.7c1.6,0,2.16-.65,2.16-1.98v-17.55c0-1-.89-1.17-1.48-1.17h-2.34v-1h.55c2.37,0,4.65-1.14,5.02-1.36.22-.13.31-.19.43-.19.28,0,.34.19.34.45v20.83c0,1.39.65,1.98,2.16,1.98h1.7v1.04h-10.23v-1.04Z"/>
        <path class="cls-3" d="M604.08,37.16c-.62.26-.83.45-1.85,2.56-4.75,9.7-9.52,14.14-16.3,16.16l-.09-.23c4.13-2.5,7.83-5.74,10.6-9.76-.31-.03-.65-.33-1.2-.97-2.13-2.56-2.44-2.92-4.1-3.89-1.67,1.91-3.36,3.31-5.15,4.22l-.09-.19c3.88-3.96,7.58-10.64,7.58-11.91,0-1.07-1.2-1.56-1.82-1.82.4-.19.83-.39,1.54-.39,1.76,0,3.42,1.59,3.42,2.27,0,.36-.06.42-.77,1.07-.25.26-.62.88-.83,1.2.22,0,.52.03,1.11.03,1.51,0,4.62-.52,5.05-.75.22-.13,1.08-.78,1.29-.78.37,0,2.4,2.08,2.4,2.53,0,.33-.12.36-.8.65ZM596,37.06c-.25,0-.59,0-1.6-.62-1.6,2.5-2.8,3.99-2.96,4.18,1.73.23,5.67,1.04,5.86,3.96.8-1.27,2.28-3.63,3.92-8.27-.83.1-4.5.75-5.21.75Z"/>
        <path class="cls-3" d="M630.89,44.36c-.28,0-1.02-.06-1.08-.06-1.11-.1-1.42-.13-3.48-.13-9.4,0-12.17.19-13.56.58-.09.03-1.08.29-1.17.29-.8,0-2.47-2.08-2.47-3.57,0-.19.03-.81.37-1.56,1.05,2.47,2,2.47,5.21,2.47,2.13,0,12.14-.03,13.56-.39.18-.03,1.08-.29,1.26-.29s3.27.36,3.27,1.62c0,1.01-1.54,1.04-1.91,1.04Z"/>
        <path class="cls-3" d="M650.25,55.26c-.46,0-.74-.16-1.82-1.23-1.45-1.46-2.93-2.92-7.77-4.93-1.76-.71-2.99-1.13-4.35-1.59,7.4-.26,14.92,3.44,14.92,6.58,0,.58-.37,1.17-.99,1.17ZM649.29,37.22c-.37,0-.52-.1-1.76-.97-3.24-2.34-6.32-3.37-9.86-4.38.65-.06,1.29-.1,2.16-.1,3.45,0,10.33,1.33,10.33,4.41,0,.45-.31,1.04-.86,1.04ZM648.52,44.68c-.43,0-.55-.13-1.76-1.04-2.1-1.62-5.36-2.92-8.26-3.89.59-.06.77-.06,1.48-.06.43,0,9.37.1,9.37,3.99,0,.03,0,1-.83,1Z"/>
        <path class="cls-3" d="M677.4,40.98c-.25,0-2.71-.42-3.08-.49-1.14-.19-1.97-.19-2.83-.19-1.63,0-2.62.06-3.36.13-.03.55-.15,4.31-1.02,7.59-.74,2.92-3.33,7.69-8.45,9.18l-.06-.26c5.39-3.83,7.09-9.44,7.49-16.35-1.85.19-6.04.81-7.27,1.59-.62.39-.68.45-1.05.45-.71,0-3.05-1.4-3.05-3.83,0-.39.03-.68.09-1.01,1.05,1.69,2.1,2.08,3.14,2.08.49,0,.65,0,2.13-.16.96-.1,5.18-.52,6.04-.62.03-1.36.09-4.77-.22-5.9-.22-.84-.99-1.2-2.44-1.62.83-.75,1.76-.84,2.07-.84,1.26,0,3.42.88,3.42,1.95,0,.26-.43,1.2-.52,1.39-.06.16-.22,2.3-.22,3.37,0,.84-.03,1.1-.03,1.49.56-.03,5.33-.29,5.39-.32.34-.07,1.7-.49,1.91-.49.12,0,3.08.42,3.08,1.85,0,1.01-.77,1.01-1.17,1.01Z"/>
        <path class="cls-3" d="M689.36,37.74c-.06.75-.31,4.09-.37,4.77-.8,6.97-4.78,10.67-7.4,11.81l-.15-.19c5.7-5.64,5.7-12.65,5.7-15.38s-.03-2.69-2.37-3.34c.49-.36,1.17-.84,2.03-.84.8,0,2.9.71,2.9,1.62,0,.26-.31,1.33-.34,1.56ZM696.85,51.14c-1.05.78-1.14.91-1.94,1.82-.15.16-.43.49-.62.49-.59,0-1.97-2.66-1.97-3.08,0-.23.37-1.2.4-1.43.28-1.36.28-5.58.28-6.46,0-1.2-.03-7.2-.18-7.98-.12-.58-.74-1.01-2.22-1.52.4-.26,1.02-.68,1.73-.68.92,0,3.33.97,3.33,1.95,0,.29-.37,1.59-.43,1.85-.31,1.65-.46,10.74-.46,12.72,0,.13,0,.55.22.55.74,0,6.32-3.73,11.16-10.22l.25.19c-2.1,5.32-6.53,9.57-9.52,11.81Z"/>
        <path class="cls-3" d="M732.26,35.05c.03,1.65-.03,9.12.03,10.41.03,1.07.28,6.42.28,7.92,0,.78,0,2.17-1.66,2.17-.28,0-.92-.07-.92-.81,0-.19.06-1.39.06-1.65h-17.35c.03,1.46.03,1.98-.09,2.24-.25.62-1.08.88-1.67.88-.83,0-.86-.52-.86-.88,0-.32.09-1.75.09-2.04.15-4.25.28-9.99.28-14.99,0-4.25-.12-5.19-.49-7.14l3.3,1.95h16.37l.96-1.04c.28-.29.37-.45.52-.45s.37.16.55.33l1.7,1.39c.18.16.37.36.37.55,0,.29-.68.71-1.45,1.17ZM730.04,33.88h-17.35v18.43h17.35v-18.43Z"/>
        <path class="cls-3" d="M738.05,58.96l-.28-.45c5.73-6.39,5.86-12.88,5.86-15.25s-.12-8.86-5.86-15.25l.28-.45c4.81,4.05,7.31,9.89,7.31,15.7s-2.5,11.65-7.31,15.7Z"/>
      </g>
    </g>
    <g>
      <path class="cls-1" d="M814.35,61.01c0,5.9-4.79,10.7-10.7,10.7s-10.7-4.77-10.7-10.7,4.84-10.7,10.7-10.7,10.7,4.75,10.7,10.7ZM793.82,61.01c0,5.45,4.43,9.83,9.83,9.83s9.83-4.41,9.83-9.83-4.43-9.83-9.83-9.83-9.83,4.34-9.83,9.83ZM811.07,61.01c0,4.1-3.33,7.42-7.42,7.42s-7.42-3.33-7.42-7.42,3.35-7.42,7.42-7.42,7.42,3.28,7.42,7.42ZM797.1,61.01c0,3.61,2.94,6.55,6.55,6.55s6.55-2.94,6.55-6.55-2.96-6.55-6.55-6.55-6.55,2.89-6.55,6.55Z"/>
      <path class="cls-1" d="M830.95,53.97c-.05,1.35-.05,2.14-.05,3.52,0,4.24.12,10.07.22,11.52,0,.14.05.77.05.92,0,.89-.94,1.16-1.37,1.16-.48,0-.63-.27-.63-.72,0-.02,0-.36.05-.96h-8.92c.02.7.05,1.76-1.32,1.76-.51,0-.65-.29-.65-.65,0-.17.07-1.4.12-2.1.1-1.86.17-8.63.17-10.31,0-5.13-.12-5.71-.39-6.77l2.43,1.25h8.22l.75-.72c.19-.19.31-.29.48-.29.14,0,.29.12.46.27l1.04.94c.17.17.29.31.29.46,0,.29-.31.46-.94.75ZM829.24,53.15h-8.96v7.3h8.96v-7.3ZM829.24,61.03h-8.96v7.78h8.96v-7.78Z"/>
      <path class="cls-1" d="M854.15,56.72c-.05,2.1.07,4.94.07,5.2s.1,1.45.1,1.69c0,.65-.63,1.06-1.3,1.06-.63,0-.63-.41-.6-1.54h-6.36c0,.51,0,4.14.14,6.92,0,.24.05.67.05.7,0,.29-.02.53-.22.72-.29.31-.72.46-1.08.46-.77,0-.77-.63-.77-.89,0-.1.02-.51.02-.63.22-3.64.22-4.75.22-7.28h-6.22c0,.19.05.96.05,1.13,0,1.23-1.16,1.23-1.25,1.23-.7,0-.7-.51-.7-.8,0-.41.07-.92.07-1.18.05-1.37.1-3.47.1-5.13,0-1.08,0-2.99-.24-4.05l2.29,1.13h5.9c-.07-3.78-.14-4.12-.51-5.08l2.6.72c.19.05.39.17.39.34,0,.22-.19.41-.77.79-.05.51-.05,2.77-.07,3.23h6.1l.72-.77c.07-.07.22-.19.34-.19.17,0,.31.07.43.17l1.04.77c.14.1.31.24.31.41,0,.19-.31.46-.84.87ZM844.42,56.04h-6.24v6.51h6.24c0-.58.02-4.34.02-4.65,0-.41,0-1.28-.02-1.86ZM852.42,56.04h-6.36c0,.43-.02,1.45-.02,2.07s.02,3.73.02,4.43h6.36v-6.51Z"/>
      <path class="cls-1" d="M861.53,58.84c-.22,0-1.71,0-2.82.22l-.48-.96c1.66.14,3.49.17,3.71.17h1.28c.02-1.37,0-2.89-.02-4.29-.02-2.53-.12-3.04-.41-3.98l2.19.65c.22.07.41.19.41.39,0,.1-.02.19-.1.26-.1.1-.39.31-.53.43-.12,3.35-.12,5.08-.12,6.53h1.04l.92-.92c.14-.14.26-.29.39-.29.14,0,.31.12.46.26l1.01.89c.12.1.24.22.24.38,0,.19-.19.24-.36.24h-3.69v1.3c3.04.67,3.3,2.1,3.3,2.38,0,.55-.31.96-.89.96s-.87-.46-1.13-1.04c-.48-1.08-.75-1.49-1.28-1.98,0,4.24.05,6.72.14,8.53.03.22.1,1.52.1,1.64,0,1.13-.87,1.33-1.28,1.33-.34,0-.67-.05-.67-.72,0-.63.22-5.37.26-6.38.02-.96.02-1.35.02-3.18-.99,1.66-3.33,4.53-5.59,6.02l-.14-.19c1.88-1.9,4.43-6.12,5.47-8.67h-1.42ZM859.14,52.69c.84.36,3.11,1.42,3.11,2.79,0,.26-.1,1.13-.96,1.13-.63,0-.77-.46-.96-1.16-.48-1.88-.89-2.24-1.28-2.65l.1-.12ZM868.85,52.69c.14.07.29.24.29.41,0,.34-.6.46-.82.51-1.37,1.66-1.49,1.81-2.94,3.37l-.17-.05c.72-1.45,1.64-3.71,1.64-5.23l2,.99ZM877.36,62.72l.72-1.37c.07-.14.17-.36.34-.36.14,0,.31.07.43.17l1.3.89c.14.1.31.22.31.38s-.12.22-.31.27l-4.41.92c.02.84.1,4.99.12,5.28.02.6.07,1.64.07,1.83,0,1.16-.96,1.28-1.23,1.28-.68,0-.7-.46-.7-.82,0-.26.1-2.1.1-2.51,0-.75.02-4.05.05-4.72l-5.13,1.08c-.7.14-1.78.39-2.72.77l-.67-.82c1.47-.19,2.99-.46,3.66-.6l4.87-.99c.05-11.35-.12-11.88-.51-13.18l2.51.7c.17.05.38.17.38.36,0,.17-.1.24-.24.36-.14.12-.39.29-.55.41-.05.65-.07,1.28-.07,3.83,0,2.05.02,4.55.07,7.18l1.62-.34ZM869.45,57.9c1.64.39,3.06,1.49,3.06,2.6,0,.67-.46.99-.89.99-.75,0-.94-.65-1.04-1.06-.24-.92-.58-1.78-1.2-2.46l.07-.07ZM869.6,52.33c.96.26,3.16,1.13,3.16,2.53,0,.7-.53.99-.96.99-.63,0-.75-.46-.89-.94-.05-.14-.53-1.59-1.37-2.51l.07-.07Z"/>
      <path class="cls-1" d="M902.34,59.83c-5.11-1.95-7.95-5.98-9.13-8.29-2.77,4.26-6.36,8.05-11.13,9.83l-.1-.19c3.06-2.12,5.69-4.82,7.85-7.83.72-1.01,1.81-2.63,1.93-3.64l2.02.94c.17.07.34.22.34.41,0,.34-.29.39-.46.43,2.53,3.4,6.87,5.93,11.01,6.17l.02.22c-1.4.55-1.93,1.13-2.36,1.95ZM902.97,70.59h-16.99c-.6,0-1.76.02-2.84.22l-.48-.96c1.66.14,3.37.17,3.71.17h5.59v-6.67h-4.34c-.24,0-1.74,0-2.84.22l-.48-.96c1.69.14,3.52.17,3.71.17h3.95v-3.47h-.87c-.6,0-1.76.02-2.84.22l-.48-.94c1.66.12,3.35.14,3.71.14h3.18l.94-.92c.19-.17.31-.31.41-.31s.29.17.43.26l1.23.92c.12.1.24.22.24.38,0,.22-.19.24-.36.24h-3.9v3.47h4.5l1.04-1.08c.17-.17.31-.31.41-.31.12,0,.29.14.43.26l1.35,1.08c.14.12.24.22.24.36,0,.24-.19.27-.36.27h-7.61v6.67h5.9l1.18-1.25c.19-.19.29-.29.39-.29.14,0,.31.12.46.24l1.52,1.25c.14.12.24.24.24.38,0,.22-.22.24-.36.24ZM888.97,69.08c-.75,0-.96-.67-1.11-1.28-.29-1.35-.46-2.02-1.23-3.23l.12-.14c1.06.58,3.18,1.76,3.18,3.54,0,.63-.36,1.11-.96,1.11ZM898.37,66.28c-1.86,2.26-3.04,3.16-3.57,3.54l-.19-.12c.77-1.28,1.54-2.96,1.93-3.93.31-.72.34-1.01.36-1.64l2.14,1.3c.22.12.26.22.26.31,0,.36-.41.43-.94.53Z"/>
      <path class="cls-1" d="M912.37,56.26c0,.77-.65,1.4-1.4,1.4s-1.4-.63-1.4-1.4.6-1.4,1.4-1.4,1.4.6,1.4,1.4ZM912.37,65.75c0,.79-.65,1.4-1.4,1.4s-1.4-.6-1.4-1.4c0-.75.6-1.4,1.4-1.4s1.4.63,1.4,1.4Z"/>
      <path class="cls-1" d="M927.79,54.6c.19.1.31.24.31.43,0,.22-.26.36-1.01.51-.31.39-.99,1.18-2.02,2.46-.92,1.11-1.71,2-2.36,2.67.12,0,2.14-.1,3.42-.26-.1-.17-.38-.72-.99-1.37l.12-.14c1.88.72,3.32,1.81,3.32,2.92,0,.46-.26.99-.92.99-.58,0-.82-.29-1.04-1.11-.02-.07-.12-.41-.26-.77l-2.19.48c0,1.04.07,5.98.07,6.43.02.48.1,2.65.1,3.08,0,.63-.55,1.04-1.16,1.04-.51,0-.65-.31-.65-.72,0-.39.1-1.98.1-2.31.03-.77.05-3.13.07-7.2-1.52.34-2.72.6-3.04.67-.14.24-.38.7-.6.7-.24,0-.39-.29-.43-.43l-.53-2.05c.41.1,1.11.17,1.71.17.75,0,1.86-.02,2.24-.05,1.64-2.22,3.11-5.28,3.45-6.24.1-.24.14-.67.14-.96l2.14,1.08ZM918.27,70.45c1.04-2.34,1.74-5.4,1.69-7.04l1.98.72c.17.07.34.22.34.34,0,.17-.14.29-.77.53-.77,2.24-1.47,3.59-3.11,5.52l-.12-.07ZM919.18,54.62c.68.17,1.47.38,2.07.67.67-1.35,1.74-3.97,1.59-5.4l2.29,1.13c.19.1.29.24.29.36,0,.36-.36.43-.92.53-1.13,1.45-1.3,1.66-2.94,3.54.7.43,1.42,1.08,1.42,1.9,0,.55-.36,1.16-.99,1.16-.55,0-.7-.29-1.23-1.47-.55-1.25-1.11-1.78-1.61-2.29l.02-.14ZM924.87,63.8c.99.43,3.4,1.52,3.4,3.16,0,.77-.55,1.18-1.06,1.18-.65,0-.77-.48-1.08-1.59-.34-1.25-.79-1.95-1.33-2.65l.07-.1ZM936.39,56.02l.72-.67c.12-.12.27-.27.34-.27.1,0,.27.14.34.22l1.16.99c.12.1.22.24.22.36,0,.17-.46.51-.89.82-.15,6.67-.19,9.66-1.47,12.12-.89,1.71-2.41,2.34-3.73,2.36-.19-1.13-.94-1.88-2.19-2.72l.02-.14c1.11.22,2.58.48,3.2.48,2.43,0,2.55-7.95,2.55-10.43,0-.41-.02-2.12-.02-2.53h-6.5c-1.18,2.24-2,3.06-2.36,3.45l-.14-.1c1.78-3.54,2.6-7.61,2.6-8.87,0-.24-.07-.7-.12-.92l2.6,1.11c.12.05.26.17.26.34,0,.24-.36.41-.94.67-.26.77-.7,1.98-1.59,3.74h5.95ZM929.81,60.62c2.29.94,3.42,1.71,3.42,3.01,0,.58-.29,1.13-.96,1.13-.63,0-.82-.26-1.35-1.93-.19-.63-.65-1.45-1.21-2.07l.1-.14Z"/>
      <path class="cls-1" d="M945.72,42.48l-.38,10.72c1.83-1.62,3.44-2.93,6.59-2.93,6.12,0,9.06,5.06,9.06,9.74,0,6.17-4.89,10.97-10.5,10.97-4.85,0-8.04-3.61-8.04-6.25,0-1.62,1.02-2.64,2.47-2.64,1.28,0,2.21.85,2.21,2.21,0,.42-.04.59-.21,1.28-.08.34-.13.94-.13,1.19,0,1.83,1.91,2.76,3.62,2.76,3.44,0,6.68-3.27,6.68-8.97,0-5.4-2.85-8.38-5.95-8.38-1.7,0-4.29.94-6.63,3.7l-.64-.34.64-16.42h14.8l-.85,3.36h-12.72Z"/>
      <path class="cls-1" d="M964.05,74.46c1.15-.85,2-1.96,2-2.81,0-.17-.04-.6-.38-.72-1.11-.51-1.83-1.11-1.83-2.42s1.11-2.47,2.42-2.47c1.4,0,2.51,1.11,2.51,2.42,0,3.15-2.98,5.74-4.04,6.63l-.68-.64Z"/>
      <path class="cls-1" d="M990.46,61.61c0,4.93-3.87,9.36-10.04,9.36-4.85,0-9.19-2.81-9.19-7.65,0-4.59,3.66-6.76,7.57-9.06-2.25-1.32-6.34-3.7-6.34-8.33,0-4.21,3.32-7.61,8.5-7.61,5.83,0,7.78,4.34,7.78,6.72,0,3.61-3.49,6.25-5.32,7.61,4,2.47,7.02,4.59,7.02,8.97ZM974.8,63.19c0,3.74,2.81,6.34,6.12,6.34,3.7,0,6.46-3.27,6.46-6.42,0-4.04-4.21-6.42-7.31-8.17-1.91,1.45-5.27,4.04-5.27,8.25ZM985.65,45.5c0-3.23-2.17-5.74-5.27-5.74s-5.02,2.3-5.02,5.06c0,2.98,2.42,4.46,6.85,7.1,1.23-1.06,3.44-2.89,3.44-6.42Z"/>
      <path class="cls-1" d="M1002.1,70.97c-2.93,0-5.4-2.04-6.97-4.59-1.79-2.93-2.59-8.17-2.59-12.12,0-9.06,3.87-15.95,9.57-15.95,4.38,0,9.57,4.72,9.57,16.33,0,10.42-4.38,16.33-9.57,16.33ZM997.34,45.41c-.59,2.13-.98,5.7-.98,9.23,0,9.48,2.25,14.88,5.74,14.88,2.93,0,4.25-3.91,4.72-5.53.6-2.17,1.02-5.78,1.02-9.36,0-9.7-2.34-14.88-5.74-14.88-3.02,0-4.34,4.17-4.76,5.66Z"/>
      <path class="cls-1" d="M1023.36,70.97c-2.93,0-5.4-2.04-6.97-4.59-1.79-2.93-2.59-8.17-2.59-12.12,0-9.06,3.87-15.95,9.57-15.95,4.38,0,9.57,4.72,9.57,16.33,0,10.42-4.38,16.33-9.57,16.33ZM1018.6,45.41c-.59,2.13-.98,5.7-.98,9.23,0,9.48,2.25,14.88,5.74,14.88,2.93,0,4.25-3.91,4.72-5.53.6-2.17,1.02-5.78,1.02-9.36,0-9.7-2.34-14.88-5.74-14.88-3.02,0-4.34,4.17-4.76,5.66Z"/>
      <path class="cls-1" d="M1054.28,53.34c-.03.84-.05,2.41-.05,4.34,0,2.99.19,7.76.19,10.72,0,1.33,0,3.01-3.11,3.33-.07-.8-.22-1.37-2.24-2.58l.02-.17c1.25.22,2.36.22,2.58.22.72,0,.87-.22.87-1.16v-6.12h-14.12c.05,5.01.05,5.57.12,7.52,0,.05.02.63.02.82,0,.55,0,1.47-1.33,1.47-.75,0-.75-.46-.75-.77,0-.43.1-2.36.1-2.75.12-4.31.14-8.6.14-12.89,0-2.48-.05-3.76-.22-4.87l2.6,1.49h13.04l.82-.87c.17-.17.29-.24.41-.24s.22.05.43.24l1.11,1.01c.14.14.26.31.26.46,0,.22-.39.55-.92.79ZM1044.62,52.52h-6.19v8.82h6.19v-8.82ZM1052.54,52.52h-6.22v8.82h6.22v-8.82Z"/>
      <path class="cls-1" d="M1087.99,61.01c0,5.9-4.79,10.7-10.7,10.7s-10.7-4.77-10.7-10.7,4.84-10.7,10.7-10.7,10.7,4.75,10.7,10.7ZM1067.46,61.01c0,5.45,4.43,9.83,9.83,9.83s9.83-4.41,9.83-9.83-4.43-9.83-9.83-9.83-9.83,4.34-9.83,9.83ZM1084.71,61.01c0,4.1-3.33,7.42-7.42,7.42s-7.42-3.33-7.42-7.42,3.35-7.42,7.42-7.42,7.42,3.28,7.42,7.42ZM1070.74,61.01c0,3.61,2.94,6.55,6.55,6.55s6.55-2.94,6.55-6.55-2.96-6.55-6.55-6.55-6.55,2.89-6.55,6.55Z"/>
      <path class="cls-1" d="M1090.16,56.24c2.19-.19,3.78.84,3.78,2.19,0,.72-.51,1.08-1.01,1.08-.58,0-.77-.39-1.08-1.04-.19-.41-.96-1.73-1.71-2.12l.02-.12ZM1096.3,56.57c-.17.63-.92,3.57-1.04,3.98-.12.48-1.47,4.63-1.59,5.18-.05.29-.07.6-.07.84,0,.39.1.67.31,1.4.34,1.11.41,1.54.41,1.98,0,1.08-.43,1.59-1.16,1.59-.87,0-1.06-.89-1.06-1.57,0-.34.19-1.81.19-2.19,0-1.18-.05-2.1-1.47-2.72v-.1c.67-.02,1.4-.1,2.19-1.71,1.04-2.1,2.87-5.95,3.16-6.75l.12.07ZM1092.23,50.57c3.37.31,3.76,1.93,3.76,2.43,0,.55-.34,1.08-.96,1.08s-.89-.51-1.23-1.25c-.34-.79-.92-1.64-1.54-2.17l-.02-.1ZM1099,63.27c-.89,0-1.98.07-2.84.24l-.48-.96c1.23.1,2.48.14,3.71.14h2.89c-.05-1.95-.12-2.51-.38-3.45l2.17.6c.19.05.46.19.46.39s-.17.34-.75.63v1.83h4.79l.82-1.35c.1-.14.24-.31.39-.31.19,0,.43.27.46.27l1.28,1.37c.19.19.24.24.24.36,0,.22-.22.24-.36.24h-7.16c1.52,2.02,4.58,4.36,8.38,4.92v.1c-.92.31-1.88.96-2.34,1.85-1.42-.79-4.63-2.7-6.41-6.87h-.1c0,1.01.02,2.05.05,2.99.02.77.19,4.14.19,4.84,0,.77-.72.99-1.25.99-.6,0-.63-.43-.63-.72,0-1.11.14-5.95.14-6.94-1.57,2.63-4.75,5.4-7.04,6.12v-.1c2.67-2.22,5.16-5.52,5.93-7.18h-2.17ZM1107.62,52.4l.89-.55c.19-.12.31-.19.39-.19.14,0,.36.14.46.24l1.11.92c.22.17.34.39.34.55,0,.38-.14.46-1.16.51-.41.02-.48.07-1.25.41-.22.1-1.16.51-1.35.6l-.07-.1c.14-.34.65-1.61.7-1.81h-2.17c-.02,1.06-.02,3.57,0,4,.02.51.39.58,1.78.58,1.21,0,1.69-.07,1.88-.34.24-.31.77-1.66,1.04-2.38h.14c.07.94.17,1.93.53,2.19.46.31.55.43.55.65,0,1.35-2.89,1.4-4.46,1.4-2.92,0-3.04-.46-3.04-3.28,0-.46.03-2.31,0-2.82h-2.75l1.3.67c.19.1.43.24.43.41,0,.14-.22.27-.46.36-.34,1.54-1.08,4.65-5.33,5.83v-.12c2.99-2.19,3.78-4.63,3.88-7.16h-2c.12,1.13-.12,3.2-1.49,3.2-.7,0-.96-.58-.96-.92,0-.43.24-.7,1.04-1.69.34-.43.77-1.25.87-2.22h.12c.17.34.26.6.36,1.04h8.67Z"/>
      <path class="cls-1" d="M1120.83,59.61c.07.02.39.12.39.36,0,.17-.07.24-.19.31-.17.12-.26.22-.36.29-.07.75-.07,1.37-.07,2.7,0,1.18.12,6.41.12,7.47,0,.99-.84,1.18-1.18,1.18-.72,0-.77-.53-.77-.79,0-.48.14-2.53.17-2.94.05-1.42.07-2.02.1-7.42-1.4,1.86-3.08,3.47-5.13,4.6l-.05-.17c2.12-2.27,4.84-6.02,6.31-9.2.36-.75.36-1.21.36-1.64l2.12,1.13c.14.07.26.19.26.36,0,.24-.1.26-.94.53-1.04,1.71-1.54,2.43-1.95,3.01l.82.22ZM1132.95,53.58l.94-1.13c.14-.19.26-.31.39-.31s.26.12.43.24l1.49,1.18c.14.12.22.24.22.36,0,.22-.19.24-.36.24h-17.85c-.43,0-1.66,0-2.84.22l-.48-.94c1.49.1,2.99.14,3.71.14h6.14c0-2.34-.24-3.06-.65-3.86l2.7.58c.19.05.39.07.39.31,0,.1-.07.24-.17.34-.1.1-.48.36-.58.43,0,.34.03,1.88.03,2.19h6.5ZM1121.09,71.1c1.45-.82,3.42-1.93,5.76-4.75-1.2-1.54-2.12-3.3-2.46-5.2-1.35,1.54-2.53,2.41-3.37,3.04l-.07-.1c1.86-2.17,5.3-7.52,5.2-9.66l2.02,1.11c.14.07.29.22.29.34,0,.29-.22.36-.96.65-.41.7-.65,1.11-.99,1.64h4.46l.92-.84c.19-.17.29-.26.43-.26.12,0,.24.05.46.22l1.33.99c.14.1.24.26.24.36s-.05.24-.24.39c-.17.12-1.13.39-1.35.46-.41,1.06-1.71,4.22-4.14,7.13,2.29,1.83,5.13,2.72,8.07,2.94v.17c-.75.22-1.49.84-1.95,2.07-1.45-.46-4.24-1.47-6.94-4.31-1.28,1.28-3.59,3.2-6.63,3.76l-.07-.12ZM1126.13,58.74c-.65,1.01-1.2,1.73-1.47,2.05.92,2.75,2.31,4.24,2.82,4.77,2.53-3.28,3.16-5.37,3.57-6.82h-4.92ZM1126.11,59.66c1.35.22,2.75.92,2.75,2.07,0,.65-.48,1.16-.99,1.16-.63,0-.72-.46-1.04-1.57-.24-.92-.53-1.2-.79-1.47l.07-.19Z"/>
      <path class="cls-1" d="M1142.3,58.84c-.22,0-1.71,0-2.82.22l-.48-.96c1.66.14,3.49.17,3.71.17h1.28c.02-1.37,0-2.89-.02-4.29-.02-2.53-.12-3.04-.41-3.98l2.19.65c.22.07.41.19.41.39,0,.1-.02.19-.1.26-.1.1-.39.31-.53.43-.12,3.35-.12,5.08-.12,6.53h1.04l.92-.92c.14-.14.26-.29.38-.29.14,0,.31.12.46.26l1.01.89c.12.1.24.22.24.38,0,.19-.19.24-.36.24h-3.69v1.3c3.04.67,3.3,2.1,3.3,2.38,0,.55-.31.96-.89.96s-.87-.46-1.13-1.04c-.48-1.08-.75-1.49-1.28-1.98,0,4.24.05,6.72.14,8.53.02.22.1,1.52.1,1.64,0,1.13-.87,1.33-1.28,1.33-.34,0-.67-.05-.67-.72,0-.63.22-5.37.26-6.38.02-.96.02-1.35.02-3.18-.99,1.66-3.33,4.53-5.59,6.02l-.14-.19c1.88-1.9,4.43-6.12,5.47-8.67h-1.42ZM1139.91,52.69c.84.36,3.11,1.42,3.11,2.79,0,.26-.1,1.13-.96,1.13-.63,0-.77-.46-.96-1.16-.48-1.88-.89-2.24-1.28-2.65l.1-.12ZM1149.62,52.69c.14.07.29.24.29.41,0,.34-.6.46-.82.51-1.37,1.66-1.49,1.81-2.94,3.37l-.17-.05c.72-1.45,1.64-3.71,1.64-5.23l2,.99ZM1158.13,62.72l.72-1.37c.07-.14.17-.36.34-.36.14,0,.31.07.43.17l1.3.89c.14.1.31.22.31.38s-.12.22-.31.27l-4.41.92c.02.84.1,4.99.12,5.28.02.6.07,1.64.07,1.83,0,1.16-.96,1.28-1.23,1.28-.67,0-.7-.46-.7-.82,0-.26.1-2.1.1-2.51,0-.75.02-4.05.05-4.72l-5.13,1.08c-.7.14-1.78.39-2.72.77l-.67-.82c1.47-.19,2.99-.46,3.66-.6l4.87-.99c.05-11.35-.12-11.88-.51-13.18l2.51.7c.17.05.39.17.39.36,0,.17-.1.24-.24.36-.14.12-.38.29-.55.41-.05.65-.07,1.28-.07,3.83,0,2.05.02,4.55.07,7.18l1.61-.34ZM1150.22,57.9c1.64.39,3.06,1.49,3.06,2.6,0,.67-.46.99-.89.99-.75,0-.94-.65-1.04-1.06-.24-.92-.58-1.78-1.2-2.46l.07-.07ZM1150.37,52.33c.96.26,3.16,1.13,3.16,2.53,0,.7-.53.99-.96.99-.63,0-.75-.46-.89-.94-.05-.14-.53-1.59-1.37-2.51l.07-.07Z"/>
      <path class="cls-1" d="M1183.11,59.83c-5.11-1.95-7.95-5.98-9.13-8.29-2.77,4.26-6.36,8.05-11.13,9.83l-.1-.19c3.06-2.12,5.69-4.82,7.85-7.83.72-1.01,1.81-2.63,1.93-3.64l2.02.94c.17.07.34.22.34.41,0,.34-.29.39-.46.43,2.53,3.4,6.87,5.93,11.01,6.17l.02.22c-1.4.55-1.93,1.13-2.36,1.95ZM1183.74,70.59h-16.99c-.6,0-1.76.02-2.84.22l-.48-.96c1.66.14,3.37.17,3.71.17h5.59v-6.67h-4.34c-.24,0-1.74,0-2.84.22l-.48-.96c1.69.14,3.52.17,3.71.17h3.95v-3.47h-.87c-.6,0-1.76.02-2.84.22l-.48-.94c1.66.12,3.35.14,3.71.14h3.18l.94-.92c.19-.17.31-.31.41-.31s.29.17.43.26l1.23.92c.12.1.24.22.24.38,0,.22-.19.24-.36.24h-3.9v3.47h4.5l1.04-1.08c.17-.17.31-.31.41-.31.12,0,.29.14.43.26l1.35,1.08c.14.12.24.22.24.36,0,.24-.19.27-.36.27h-7.61v6.67h5.9l1.18-1.25c.19-.19.29-.29.39-.29.14,0,.31.12.46.24l1.52,1.25c.14.12.24.24.24.38,0,.22-.22.24-.36.24ZM1169.74,69.08c-.75,0-.96-.67-1.11-1.28-.29-1.35-.46-2.02-1.23-3.23l.12-.14c1.06.58,3.18,1.76,3.18,3.54,0,.63-.36,1.11-.96,1.11ZM1179.14,66.28c-1.86,2.26-3.04,3.16-3.57,3.54l-.19-.12c.77-1.28,1.54-2.96,1.93-3.93.31-.72.34-1.01.36-1.64l2.14,1.3c.22.12.26.22.26.31,0,.36-.41.43-.94.53Z"/>
      <path class="cls-1" d="M1193.14,56.26c0,.77-.65,1.4-1.4,1.4s-1.4-.63-1.4-1.4.6-1.4,1.4-1.4,1.4.6,1.4,1.4ZM1193.14,65.75c0,.79-.65,1.4-1.4,1.4s-1.4-.6-1.4-1.4c0-.75.6-1.4,1.4-1.4s1.4.63,1.4,1.4Z"/>
      <path class="cls-1" d="M1208.56,54.6c.19.1.31.24.31.43,0,.22-.26.36-1.01.51-.31.39-.99,1.18-2.02,2.46-.92,1.11-1.71,2-2.36,2.67.12,0,2.14-.1,3.42-.26-.1-.17-.39-.72-.99-1.37l.12-.14c1.88.72,3.33,1.81,3.33,2.92,0,.46-.27.99-.92.99-.58,0-.82-.29-1.04-1.11-.02-.07-.12-.41-.26-.77l-2.19.48c0,1.04.07,5.98.07,6.43.03.48.1,2.65.1,3.08,0,.63-.55,1.04-1.16,1.04-.51,0-.65-.31-.65-.72,0-.39.1-1.98.1-2.31.02-.77.05-3.13.07-7.2-1.52.34-2.72.6-3.04.67-.14.24-.39.7-.6.7-.24,0-.38-.29-.43-.43l-.53-2.05c.41.1,1.11.17,1.71.17.75,0,1.86-.02,2.24-.05,1.64-2.22,3.11-5.28,3.45-6.24.1-.24.14-.67.14-.96l2.14,1.08ZM1199.04,70.45c1.04-2.34,1.73-5.4,1.69-7.04l1.98.72c.17.07.34.22.34.34,0,.17-.14.29-.77.53-.77,2.24-1.47,3.59-3.11,5.52l-.12-.07ZM1199.96,54.62c.67.17,1.47.38,2.07.67.67-1.35,1.73-3.97,1.59-5.4l2.29,1.13c.19.1.29.24.29.36,0,.36-.36.43-.92.53-1.13,1.45-1.3,1.66-2.94,3.54.7.43,1.42,1.08,1.42,1.9,0,.55-.36,1.16-.99,1.16-.55,0-.7-.29-1.23-1.47-.55-1.25-1.11-1.78-1.61-2.29l.02-.14ZM1205.64,63.8c.99.43,3.4,1.52,3.4,3.16,0,.77-.55,1.18-1.06,1.18-.65,0-.77-.48-1.08-1.59-.34-1.25-.79-1.95-1.33-2.65l.07-.1ZM1217.16,56.02l.72-.67c.12-.12.26-.27.34-.27.1,0,.26.14.34.22l1.16.99c.12.1.22.24.22.36,0,.17-.46.51-.89.82-.14,6.67-.19,9.66-1.47,12.12-.89,1.71-2.41,2.34-3.74,2.36-.19-1.13-.94-1.88-2.19-2.72l.02-.14c1.11.22,2.58.48,3.21.48,2.43,0,2.55-7.95,2.55-10.43,0-.41-.02-2.12-.02-2.53h-6.51c-1.18,2.24-2,3.06-2.36,3.45l-.14-.1c1.78-3.54,2.6-7.61,2.6-8.87,0-.24-.07-.7-.12-.92l2.6,1.11c.12.05.27.17.27.34,0,.24-.36.41-.94.67-.27.77-.7,1.98-1.59,3.74h5.95ZM1210.58,60.62c2.29.94,3.42,1.71,3.42,3.01,0,.58-.29,1.13-.96,1.13-.63,0-.82-.26-1.35-1.93-.19-.63-.65-1.45-1.21-2.07l.1-.14Z"/>
      <path class="cls-1" d="M1226.82,59.58c.51-.31,1.25-.63,2.1-.63,2.39,0,4.31,2.41,4.31,5.32,0,3.35-2.38,6.34-5.16,6.34s-5.54-3.11-5.54-8.31c0-5.57,3.13-10.19,6.82-10.19,1.62,0,2.75.96,2.75,2.12,0,.87-.67,1.25-1.23,1.25-.48,0-1.28-.31-1.33-1.69-.02-.53-.07-.87-.72-.87s-1.3.36-1.76.87c-2.14,2.36-2.26,5.9-2.36,8.07.46-.75.96-1.59,2.12-2.29ZM1226.03,68.5c.41.65,1.04,1.3,1.95,1.3,1.28,0,3.08-1.33,3.08-5.3,0-1.08-.26-4.46-2.75-4.46-.92,0-2.46.67-3.59,3.28.1,1.33.29,3.64,1.3,5.18Z"/>
      <path class="cls-1" d="M1234.87,72.59c.65-.48,1.13-1.11,1.13-1.59,0-.1-.02-.34-.22-.41-.63-.29-1.04-.63-1.04-1.37s.63-1.4,1.37-1.4c.79,0,1.42.63,1.42,1.37,0,1.78-1.69,3.25-2.29,3.76l-.39-.36Z"/>
      <path class="cls-1" d="M1245.45,63.17c-.51.31-1.25.63-2.1.63-2.39,0-4.31-2.41-4.31-5.35,0-3.32,2.38-6.34,5.16-6.34s5.54,3.13,5.54,8.31c0,5.57-3.13,10.19-6.82,10.19-1.62,0-2.75-.96-2.75-2.1,0-.87.67-1.25,1.23-1.25.48,0,1.28.31,1.33,1.66.02.53.07.87.72.87s1.3-.31,1.76-.84c2.14-2.36,2.26-5.93,2.36-8.07-.46.75-.96,1.57-2.12,2.29ZM1246.24,54.24c-.41-.65-1.04-1.3-1.95-1.3-1.28,0-3.08,1.35-3.08,5.3,0,1.11.26,4.48,2.75,4.48.92,0,2.46-.67,3.59-3.28-.1-1.33-.29-3.64-1.3-5.2Z"/>
      <path class="cls-1" d="M1256.43,70.62c-1.66,0-3.06-1.16-3.95-2.6-1.01-1.66-1.47-4.63-1.47-6.87,0-5.13,2.19-9.04,5.42-9.04,2.48,0,5.42,2.67,5.42,9.25,0,5.9-2.48,9.25-5.42,9.25ZM1253.74,56.14c-.34,1.21-.55,3.23-.55,5.23,0,5.37,1.28,8.43,3.25,8.43,1.66,0,2.41-2.22,2.67-3.13.34-1.23.58-3.28.58-5.3,0-5.49-1.33-8.43-3.25-8.43-1.71,0-2.46,2.36-2.7,3.2Z"/>
      <path class="cls-1" d="M1268.48,70.62c-1.66,0-3.06-1.16-3.95-2.6-1.01-1.66-1.47-4.63-1.47-6.87,0-5.13,2.19-9.04,5.42-9.04,2.48,0,5.42,2.67,5.42,9.25,0,5.9-2.48,9.25-5.42,9.25ZM1265.78,56.14c-.34,1.21-.55,3.23-.55,5.23,0,5.37,1.28,8.43,3.25,8.43,1.66,0,2.41-2.22,2.67-3.13.34-1.23.58-3.28.58-5.3,0-5.49-1.33-8.43-3.25-8.43-1.71,0-2.46,2.36-2.7,3.2Z"/>
      <path class="cls-1" d="M1294.79,53.34c-.02.84-.05,2.41-.05,4.34,0,2.99.19,7.76.19,10.72,0,1.33,0,3.01-3.11,3.33-.07-.8-.22-1.37-2.24-2.58l.03-.17c1.25.22,2.36.22,2.58.22.72,0,.87-.22.87-1.16v-6.12h-14.12c.05,5.01.05,5.57.12,7.52,0,.05.02.63.02.82,0,.55,0,1.47-1.33,1.47-.75,0-.75-.46-.75-.77,0-.43.1-2.36.1-2.75.12-4.31.14-8.6.14-12.89,0-2.48-.05-3.76-.22-4.87l2.6,1.49h13.03l.82-.87c.17-.17.29-.24.41-.24s.22.05.43.24l1.11,1.01c.14.14.27.31.27.46,0,.22-.39.55-.92.79ZM1285.13,52.52h-6.19v8.82h6.19v-8.82ZM1293.06,52.52h-6.22v8.82h6.22v-8.82Z"/>
    </g>
  </g>
</svg>