<svg id="info07-tit-sp" xmlns="http://www.w3.org/2000/svg" width="300.5" height="21.34" viewBox="0 0 300.5 21.34">
  <path id="パス_89" data-name="パス 89" d="M10.56,2.91h-.39c-.2-.72-.37-1.43-1.13-1.75A6.443,6.443,0,0,0,6.55.86C5.21.86,5.26.74,5.22,1.8V5.56c2.3.1,2.64-.82,2.74-2.03h.39c-.02.76-.03,1.53-.07,2.29.03.69.05,1.39.07,2.08H7.96C7.73,6.14,6.84,6.1,5.22,6.1V8.22a9.522,9.522,0,0,0,.17,2.22c.25.67,1.08.54,1.66.57v.39c-.86-.02-1.73-.05-2.59-.07-.86.02-1.7.05-2.59.07v-.39c.54,0,1.23,0,1.44-.57a9.523,9.523,0,0,0,.17-2.23V3.46a9.481,9.481,0,0,0-.17-2.23C3.09.66,2.4.66,1.87.66V.27C2.89.29,3.89.32,4.88.34,6.68.32,8.48.29,10.27.27l.27,2.64Z" fill="#11374c"/>
  <path id="パス_90" data-name="パス 90" d="M13.23,3.46a9.481,9.481,0,0,0-.17-2.23c-.22-.57-.91-.57-1.44-.57V.27c.81.02,1.61.05,2.42.07.86-.02,1.7-.05,2.54-.07V.66c-.54,0-1.23,0-1.45.57a9.523,9.523,0,0,0-.17,2.23V8.2a9.481,9.481,0,0,0,.17,2.23c.22.57.91.57,1.45.57v.39c-.79-.02-1.61-.05-2.42-.07-.84.02-1.7.05-2.54.07V11c.54,0,1.23,0,1.44-.57a9.523,9.523,0,0,0,.17-2.23V3.46Z" fill="#11374c"/>
  <path id="パス_91" data-name="パス 91" d="M19.73,1.66A1.932,1.932,0,0,0,17.9.65V.26c.54.02,1.06.05,1.6.07.44-.02.89-.05,1.33-.07l7.09,8.65h.03V4.24a14.838,14.838,0,0,0-.15-2.59C27.6.71,27.14.78,26.3.64V.25c.62.02,1.23.05,1.85.07C28.74.3,29.31.27,29.93.25V.64c-.62.07-1.06.02-1.28.74a16.241,16.241,0,0,0-.2,2.94v7.24h-.5c-.37-.45-.74-.92-1.11-1.39L20.27,2.21h-.03V7.86a8.013,8.013,0,0,0,.25,2.45c.29.66.84.62,1.46.69v.39c-.64-.02-1.29-.05-1.93-.07-.62.02-1.24.05-1.86.07V11c.65-.07,1.28-.1,1.44-.82a13.6,13.6,0,0,0,.13-2.32Z" fill="#11374c"/>
  <path id="パス_92" data-name="パス 92" d="M33.37,7.74a9.743,9.743,0,0,0-.81,2.54c0,.72.86.67,1.36.72v.39c-.62-.02-1.23-.05-1.85-.07-.59.02-1.16.05-1.75.07V11a1.619,1.619,0,0,0,1.61-1.19c.47-1.08.92-2.13,1.39-3.21L35.89,0h.57l3.39,8.53a12.485,12.485,0,0,0,.87,1.85,1.856,1.856,0,0,0,1.45.62v.39c-.79-.02-1.6-.05-2.39-.07-.81.02-1.63.05-2.44.07V11c.47-.02,1.29.02,1.29-.64a3.79,3.79,0,0,0-.34-1.31l-.66-1.73H33.48l-.15.42Zm4.08-.96L35.6,2.04,33.74,6.78Z" fill="#11374c"/>
  <path id="パス_93" data-name="パス 93" d="M44.43,1.66A1.932,1.932,0,0,0,42.6.65V.26c.54.02,1.06.05,1.6.07.44-.02.89-.05,1.33-.07l7.09,8.65h.03V4.24a14.838,14.838,0,0,0-.15-2.59C52.3.71,51.84.78,51,.64V.25c.62.02,1.23.05,1.85.07C53.44.3,54.01.27,54.63.25V.64c-.62.07-1.06.02-1.28.74a16.241,16.241,0,0,0-.2,2.94v7.24h-.5c-.37-.45-.74-.92-1.11-1.39L44.97,2.21h-.03V7.86a8.013,8.013,0,0,0,.25,2.45c.29.66.84.62,1.46.69v.39c-.64-.02-1.29-.05-1.93-.07-.62.02-1.24.05-1.86.07V11c.65-.07,1.28-.1,1.44-.82a13.6,13.6,0,0,0,.13-2.32V1.66Z" fill="#11374c"/>
  <path id="パス_94" data-name="パス 94" d="M65.76.32h.25l.13,3.31h-.39A3.494,3.494,0,0,0,62.21.45C59.2.45,58.3,3.42,58.3,5.94s.97,5.24,3.95,5.24c2.35,0,3.21-1.68,3.71-3.7h.3v3.68h-.22l-.4-.86a5.607,5.607,0,0,1-3.71,1.26A5.354,5.354,0,0,1,56.2,5.93,5.656,5.656,0,0,1,62.08.07a5.768,5.768,0,0,1,3.41,1.04Z" fill="#11374c"/>
  <path id="パス_95" data-name="パス 95" d="M69.43,3.46a9.481,9.481,0,0,0-.17-2.23c-.22-.57-.91-.57-1.44-.57V.27c.81.02,1.61.05,2.42.07.86-.02,1.7-.05,2.54-.07V.66c-.54,0-1.23,0-1.45.57a9.524,9.524,0,0,0-.17,2.23V8.2a9.481,9.481,0,0,0,.17,2.23c.22.57.91.57,1.45.57v.39c-.79-.02-1.61-.05-2.42-.07-.84.02-1.7.05-2.54.07V11c.54,0,1.23,0,1.44-.57a9.524,9.524,0,0,0,.17-2.23Z" fill="#11374c"/>
  <path id="パス_96" data-name="パス 96" d="M76.38,7.74a9.743,9.743,0,0,0-.81,2.54c0,.72.86.67,1.36.72v.39c-.62-.02-1.23-.05-1.85-.07-.59.02-1.16.05-1.75.07V11a1.619,1.619,0,0,0,1.61-1.19c.47-1.08.92-2.13,1.39-3.21L78.9,0h.57l3.39,8.53a12.485,12.485,0,0,0,.87,1.85,1.856,1.856,0,0,0,1.45.62v.39c-.79-.02-1.6-.05-2.39-.07-.81.02-1.63.05-2.44.07V11c.47-.02,1.29.02,1.29-.64a3.79,3.79,0,0,0-.34-1.31l-.66-1.73H76.49l-.15.42Zm4.08-.96L78.61,2.04,76.75,6.78Z" fill="#11374c"/>
  <path id="パス_97" data-name="パス 97" d="M87.28,3.46a9.481,9.481,0,0,0-.17-2.23C86.89.66,86.2.66,85.66.66V.27c.81.02,1.6.05,2.4.07.86-.02,1.7-.05,2.55-.07V.66c-.54,0-1.23,0-1.44.57A9.524,9.524,0,0,0,89,3.46V8.43c0,2.15.34,2.5,2.47,2.5a4.3,4.3,0,0,0,2.38-.42c.84-.52.94-1.16,1.09-2.1h.42l-.15,2.97c-.29-.02-.59-.03-.87-.07-2.89.05-5.8.05-8.69.07v-.39c.54,0,1.23,0,1.45-.57a9.524,9.524,0,0,0,.17-2.23V3.46Z" fill="#11374c"/>
  <path id="パス_98" data-name="パス 98" d="M134.2,3.3c0,.05.05.12.13.23a5.533,5.533,0,0,0,2.95,1.97,3.332,3.332,0,0,1,.38.1c0,.02-.02.03-.25.12-.1.04-.37.18-.43.32-.05.12-.07.15-.12.15a4.245,4.245,0,0,1-.8-.46,5.974,5.974,0,0,1-1.89-2.07c-.15-.26-.17-.28-.22-.28s-.08.03-.13.08c-.39.41-.82.86-.94.97a7.681,7.681,0,0,1-2.91,1.83c-.02,0-.06,0-.06-.03a1.484,1.484,0,0,1,.25-.18,9.524,9.524,0,0,0,3.12-3.17c.07-.17.08-.2.13-.2.03,0,.8.33.82.46,0,.02-.04.13-.04.16Zm1.37,6.33c.26,0,.32,0,.42-.07.07-.07.35-.48.44-.48a3.635,3.635,0,0,1,.54.39c.26.19.29.22.29.28,0,.1-.17.11-.5.11h-5.09c-.19,0-.76,0-1.05.02-.03,0-.16.03-.18.03s-.04-.03-.07-.06l-.17-.19a.219.219,0,0,1-.03-.05c0-.02,0-.03.02-.03.06,0,.32.03.37.03.38.02.75.03,1.14.03h1.45c.07,0,.19,0,.24-.1.02-.06.02-1,.02-1.16,0-.12,0-1.21-.02-1.27a.214.214,0,0,0-.22-.1h-.46c-.19,0-.76,0-1.05.02-.02,0-.15.03-.17.03s-.04-.03-.07-.06l-.16-.19a.219.219,0,0,1-.03-.05c0-.02,0-.03.02-.03.06,0,.32.03.37.03q.555.03,1.14.03h.41c.25,0,.25-.1.25-.45q0-.75-.25-.75s-.44,0-.59.02c-.02,0-.12.02-.14.02s-.04-.02-.06-.05l-.13-.19a.163.163,0,0,1-.03-.06c0-.02,0-.02.02-.02.04,0,.22.02.25.02.27.02.71.03.98.03h.39c.32,0,.33-.02.37-.06.06-.07.27-.39.34-.39.04,0,.63.45.63.55,0,.12-.14.12-.37.12h-.56c-.26,0-.26.11-.26.47,0,.7,0,.73.25.73h.34c.42,0,.51,0,.66-.19.17-.21.18-.23.25-.23a1.883,1.883,0,0,1,.64.54c0,.11-.18.11-.45.11h-1.44c-.18,0-.25.05-.25.26V9.43c0,.15.05.22.25.22h1.29Zm-2.79-.85c0,.37-.23.51-.4.51-.21,0-.22-.07-.36-.65a3.537,3.537,0,0,0-.35-.88.993.993,0,0,1-.11-.2c0-.04.04-.04.07-.04.1.02,1.15.51,1.15,1.25Zm3.34-.86c0,.07-.02.08-.27.17-.17.07-.23.12-.6.55a6.288,6.288,0,0,1-.85.79c-.02,0-.04-.03-.04-.05a1.572,1.572,0,0,1,.18-.31,5.768,5.768,0,0,0,.63-1.49c.02-.08.03-.18.09-.18a.278.278,0,0,1,.13.03c.1.05.73.38.73.48Z" fill="#11374c"/>
  <path id="パス_99" data-name="パス 99" d="M141.66,6.52c.18,0,.23-.06.24-.07.08-.12.12-.17.19-.17s.55.21.55.35c0,.05-.07.1-.18.17-.02.02-.07.04-.07.28,0,.36.08,2.17.08,2.27,0,.83-.49.92-.61.92-.05,0-.09,0-.12-.05a1.791,1.791,0,0,0-.26-.33c-.06-.06-.39-.31-.39-.31,0-.03.02-.03.03-.03s.49.05.58.05c.22,0,.22-.05.22-.46V7c0-.17-.06-.24-.24-.24h-.34c-.25,0-.25.05-.25.54,0,.09,0,.28.14.28a.308.308,0,0,0,.28-.21.933.933,0,0,0,.07-.15c.02,0,.02.06.02.09a.808.808,0,0,0,.05.27c.02.03.16.16.16.2,0,.1-.18.27-.56.27-.56,0-.56-.29-.56-.62V6.97c0-.2-.07-.2-.2-.2h-.3c-.11,0-.12,0-.12.02s.03.05.07.06c.32.07.35.07.35.16,0,.04-.02.05-.07.07-.09.04-.09.08-.1.15-.07.78-.84,1.29-.84,1.17,0-.03.1-.13.12-.17a2.015,2.015,0,0,0,.32-1.21c0-.25-.12-.25-.21-.25-.17,0-.23,0-.27.06s-.04.09-.04.46c0,.62.02,1.02.03,1.39,0,.12.06,1.15.06,1.23a.364.364,0,0,1-.36.41c-.11,0-.17-.07-.19-.22V9.08c0-.49,0-1.9-.05-2.27,0-.07-.07-.37-.07-.44,0-.03,0-.1.08-.1a.8.8,0,0,1,.35.16.514.514,0,0,0,.39.12h1.99Zm-.56-3.24a1.216,1.216,0,0,0,.41-.03c.09-.04.37-.46.46-.46s.66.48.66.6-.09.11-.32.11h-1.92a10.118,10.118,0,0,0-1.05.03c-.02,0-.15.02-.17.02s-.04-.02-.07-.05l-.16-.19a.163.163,0,0,1-.03-.06.02.02,0,0,1,.02-.02c.06,0,.32.02.37.02.41.02.76.03,1.15.03h.68Zm.06.97c.07,0,.17,0,.22-.07.13-.17.15-.19.2-.19.11,0,.53.31.53.42,0,.06-.04.08-.18.19-.02.02-.07.05-.07.27,0,.11.04.63.04.75,0,.26-.12.37-.38.37-.15,0-.17-.07-.19-.23s-.16-.15-.23-.15h-.78c-.15,0-.18.03-.21.22a.386.386,0,0,1-.42.35c-.15,0-.16-.23-.17-.33V5.29a8.71,8.71,0,0,0-.04-.88c0-.06-.07-.36-.07-.4s.02-.06.07-.06a.894.894,0,0,1,.31.11c.29.17.32.18.44.18h.91Zm-1.51,4.27a.163.163,0,0,1-.03-.06.02.02,0,0,1,.02-.02c.07,0,.81.06.96.06.4,0,.44,0,.56-.14.07-.08.12-.14.18-.14a.811.811,0,0,1,.44.39c0,.11-.15.11-.44.11h-.23c-.14,0-.26,0-.26.27,0,.05.05.75.05.77,0,.28-.33.32-.4.32s-.15-.02-.15-.29c0-.06.02-.37.02-.4V8.94c0-.07,0-.22-.17-.22-.05,0-.28.03-.32.03-.02,0-.04-.02-.07-.05l-.16-.19ZM141.1,5.4c.2,0,.26-.02.26-.66,0-.27-.12-.27-.24-.27h-.85c-.2,0-.24.08-.24.27,0,.63.06.66.27.66h.81Zm3.72,1.74a.21.21,0,0,0-.23.23V8.82s0,.24.21.24c.03,0,.43-.05.54-.07.09-.02.21-.03.21-.17a1.486,1.486,0,0,0-.06-.25c-.02-.09-.22-.56-.22-.57,0-.03,0-.05.03-.05a2.056,2.056,0,0,1,1,1.44.494.494,0,0,1-.43.51c-.2,0-.21-.09-.23-.5,0-.11-.02-.21-.14-.21a20.146,20.146,0,0,0-2.1.6,1.11,1.11,0,0,1-.27.17c-.16,0-.36-.6-.36-.7,0-.07.03-.1.13-.1.06,0,.36.03.42.03.23,0,.75,0,.76-.19V7.37c0-.25-.12-.25-.22-.25h-.2c-.22,0-.22.16-.22.31,0,.17,0,.52-.36.52-.22,0-.23-.11-.23-.27,0-.06.02-.36.02-.44,0-.22.04-.58.04-1.29a9.8,9.8,0,0,0-.07-1.57c0-.03-.04-.21-.04-.22,0-.04.06-.04.07-.04a1.427,1.427,0,0,1,.37.16c.21.12.22.12.36.12h.27c.22,0,.22-.11.22-.35,0-.07,0-.75-.02-.97,0-.04-.03-.25-.03-.3,0-.08.02-.09.1-.09.06,0,.69.12.69.3,0,.04-.17.2-.18.24a4.543,4.543,0,0,0-.06.92c0,.14.02.25.22.25h.27a.265.265,0,0,0,.23-.09c.12-.12.12-.13.17-.13s.51.22.51.41c0,.05-.15.23-.17.28a3.179,3.179,0,0,0-.04.73c0,.24.02,1.41.02,1.68a.386.386,0,0,1-.42.44c-.17,0-.17-.05-.17-.41,0-.2-.16-.2-.24-.2h-.16Zm-.94-.22c.21,0,.22-.16.22-.27V4.97c0-.15,0-.31-.22-.31h-.24c-.21,0-.22.16-.22.27V6.61c0,.15,0,.31.22.31Zm1.15,0c.15,0,.25-.02.25-.27V5.19c0-.48,0-.53-.25-.53h-.19c-.15,0-.25,0-.25.26V6.48c0,.37,0,.44.25.44h.19Z" fill="#11374c"/>
  <path id="パス_100" data-name="パス 100" d="M149.23,4.93c-.16,0-.21.04-.21.21,0,.21,0,.23.11.3.32.19.65.4.65.71a.318.318,0,0,1-.29.32c-.18,0-.21-.16-.26-.44-.03-.21-.1-.42-.17-.42-.05,0-.05.13-.05.17,0,.37-.02,2.05-.02,2.39,0,.27.02,1.46,0,1.66-.02.3-.22.41-.34.41-.08,0-.22-.06-.22-.27,0-.24.08-1.64.1-1.94,0-.23.02-1.07.02-1.36,0-.14,0-.16-.02-.16s-.37.64-.43.75c-.15.26-.47.73-.62.73a.02.02,0,0,1-.02-.02s.3-.57.35-.68a9,9,0,0,0,.71-2.18c0-.12-.11-.16-.22-.16-.09,0-.53.03-.57.03-.02,0-.03,0-.07-.06l-.13-.17c-.05-.06-.06-.07-.06-.08s.02-.02.03-.02c.13,0,.74.04.86.04.18,0,.23-.04.23-.19,0-.12,0-1.15-.02-1.23,0-.07-.02-.36-.02-.41,0-.07.02-.09.08-.09a3.392,3.392,0,0,1,.43.11c.14.03.22.08.22.15s-.17.26-.18.31-.07,1.22-.07,1.27c0,.09.02.11.13.11.05,0,.06-.03.17-.19.04-.07.07-.11.12-.11.03,0,.45.31.45.42,0,.03-.02.09-.16.09h-.5Zm2.48,2.26s.24,0,.24-.22c0-.08-.03-.41-.04-.47-.06-.85-.07-1.1-.07-2.22a7.066,7.066,0,0,0-.04-1.25c0-.02-.03-.15-.03-.17,0-.06.02-.09.08-.09.12,0,.77.1.77.21,0,.05-.18.21-.2.25a8.051,8.051,0,0,0-.15,1.73,10.462,10.462,0,0,0,.17,2.11.21.21,0,0,0,.22.13h.32s.12,0,.12-.09c0-.12-.22-.53-.33-.53-.07,0-.08,0-.1-.03-.02-.05-.12-.48-.12-.5s.02-.04.05-.04.22.03.25.03c.19,0,.2,0,.82-1.09a4.61,4.61,0,0,0,.27-.57c.04-.13.07-.16.11-.16a1.51,1.51,0,0,1,.51.39c0,.06-.23.2-.27.23a2.513,2.513,0,0,0-.41.51c0,.06.07.1.19.19.14.1.61.44.61.76a.387.387,0,0,1-.34.37c-.17,0-.22-.22-.23-.3s-.02-.14-.12-.14a3.5,3.5,0,0,0-1.05.3c0,.02.12.07.15.08.32.12.47.3.47.43,0,.02-.02.11-.02.12,0,.06.06.06.09.06h.25c.07,0,.14,0,.23-.14s.12-.19.2-.19.6.33.6.43c0,.12-.16.12-.24.12h-1.93c-.06,0-.17,0-.17.15,0,.09.02.13.19.55.07.15.07.17.12.17.13,0,.43-.69.52-.69.04,0,.53.35.53.49,0,.07-.1.08-.17.1-.21.04-.56.52-.56.62,0,.21.63.78.79.78s.27-.17.6-.7c.15-.23.17-.26.19-.26s.02.02.02.03c0,.03-.23.8-.23.95,0,.07.12.42.12.48,0,.14-.13.17-.22.17-.63,0-1.28-.71-1.47-.94-.17-.19-.19-.22-.22-.22s-.41.27-.49.32a5.505,5.505,0,0,1-1.54.7c-.02,0-.06,0-.06-.04s.04-.07.08-.09a4.008,4.008,0,0,0,1.77-1.3c0-.02-.21-.44-.27-.6-.04-.1-.18-.51-.22-.57a.269.269,0,0,0-.26-.11h-.89c-.23,0-.25.07-.27.35a3.1,3.1,0,0,1-1.18,2.31c-.02,0-.04,0-.04-.05s.31-.61.36-.72a3.705,3.705,0,0,0,.34-1.62c0-.08,0-.26-.22-.26-.07,0-.36.03-.41.03-.02,0-.03,0-.08-.06l-.14-.17a.423.423,0,0,1-.05-.07c0-.02.02-.02.03-.02.06,0,.32.02.37.02.52.03.85.03,1.13.03h.97ZM150.7,4.53a.5.5,0,0,1,.05.18.216.216,0,0,1-.21.23c-.16,0-.25-.09-.41-.35a1.561,1.561,0,0,0-.37-.42c-.04-.03-.09-.08-.09-.11s.02-.04.06-.04c.08,0,.56.19.64.19.06,0,.09,0,.32-.66a2.961,2.961,0,0,0,.11-.43c0-.03,0-.07.05-.07.02,0,.61.33.61.44,0,.06-.27.14-.3.17a8.584,8.584,0,0,0-.53.7c0,.02.07.13.08.16Zm.32,1.19s.02-.03.04-.03c.08,0,.62.32.62.74,0,.17-.14.33-.25.33-.13,0-.17-.18-.2-.31-.02-.07-.02-.11-.1-.11-.29.06-.89.21-.95.33-.02.05-.04.08-.09.08s-.07-.04-.09-.12c-.02-.17-.08-.48-.08-.52s.02-.06.05-.06.19.03.23.03c.1,0,.15,0,.73-1.2.02-.04.14-.33.16-.37.03-.08.05-.11.07-.11,0,0,.49.26.49.42,0,.08-.06.1-.13.11-.17.03-.54.56-.71.81a2.339,2.339,0,0,0-.21.32c0,.07.09.07.11.07a2.4,2.4,0,0,0,.46-.05c.08-.12-.15-.25-.15-.36Zm.51,3.39c-.16,0-.19-.08-.32-.41a2.6,2.6,0,0,0-.38-.71c-.05-.07-.06-.08-.06-.1s.03-.02.04-.02c.09,0,1,.28,1,.91a.31.31,0,0,1-.28.33Zm1.92-5.87s-.02-.09-.02-.11,0-.03.03-.03c.06,0,.63.25.63.37,0,.05-.02.06-.15.12a4.5,4.5,0,0,0-.61.78c0,.03,0,.04.08.13a.49.49,0,0,1,.13.32.211.211,0,0,1-.2.22c-.13,0-.16-.03-.35-.38a1.366,1.366,0,0,0-.41-.42c-.02-.02-.07-.05-.07-.08s.07-.06.12-.06a1.021,1.021,0,0,1,.37.08c.02,0,.07.03.1.02a2.23,2.23,0,0,0,.34-.96Zm.32,2.24s-.49.52-.49.53c0,.04.08.04.12.04a3.6,3.6,0,0,0,.56-.05c.05-.02.07-.03.07-.09-.02-.12-.17-.43-.27-.43Z" fill="#11374c"/>
  <path id="パス_101" data-name="パス 101" d="M158.7,3.3a.294.294,0,0,0,.25-.08c.12-.12.16-.16.24-.16.13,0,.49.28.49.42,0,.05-.17.23-.18.29a8.6,8.6,0,0,0-.02,1.18c0,.18,0,.47-.37.47-.14,0-.16-.05-.22-.2-.04-.1-.07-.1-.25-.1h-1.17c-.12,0-.23,0-.26.15V6.53c0,.71,0,2.48.02,2.87,0,.07.02.31.02.37a.463.463,0,0,1-.42.5c-.22,0-.22-.22-.22-.32,0-.16.03-.93.03-1.1.02-.79.02-1.5.02-3.32V3.91c0-.1-.03-.59-.03-.71,0-.04,0-.1.04-.1a3.375,3.375,0,0,1,.38.13.664.664,0,0,0,.31.07h1.37Zm-1.25.22c-.24,0-.24.03-.24.26,0,.3,0,.32.24.32h1.25c.23,0,.23-.03.23-.26,0-.29,0-.31-.23-.31h-1.25Zm0,.8c-.23,0-.23.03-.23.29s0,.3.23.3h1.25c.12,0,.23,0,.23-.15,0-.4,0-.44-.23-.44Zm.52,2.31a.219.219,0,0,1-.03-.05c0-.02,0-.03.02-.03.06,0,.32.03.37.03.4.02.75.03,1.14.03h.47c.26,0,.32-.07.79-.72a1.393,1.393,0,0,0,.17-.44c0-.04.02-.06.05-.06a1.814,1.814,0,0,1,.54.46c0,.08-.02.09-.24.15a3.521,3.521,0,0,0-.76.59c0,.03.03.03.09.03h.14c.4,0,.44,0,.53-.12.17-.24.18-.27.26-.27.11,0,.58.37.58.5s-.17.12-.44.12h-1.2c-.16,0-.27,0-.28.2,0,.08-.04.43-.04.51,0,.1.07.1.18.1h.67a1.252,1.252,0,0,0,.41-.03c.08-.03.33-.38.42-.38a1.209,1.209,0,0,1,.55.52c0,.12-.17.12-.44.12H160.3c-.17,0-.22,0-.22.08a4.646,4.646,0,0,0,1.58.93,5.379,5.379,0,0,0,.54.13.056.056,0,0,1,.06.05c0,.02-.02.03-.12.06a.853.853,0,0,0-.58.4c0,.03-.04.1-.07.1a4.119,4.119,0,0,1-1.22-1.16c-.2-.25-.22-.28-.26-.28s-.04.02-.13.19a3.135,3.135,0,0,1-1.93,1.37.076.076,0,0,1-.07-.04c0-.02.02-.04.19-.14a3,3,0,0,0,1.3-1.29.944.944,0,0,0,.11-.3c0-.09-.08-.09-.17-.09-.36,0-.76,0-1.09.02-.03,0-.2.03-.25.03-.02,0-.05-.03-.07-.06l-.16-.19a.219.219,0,0,1-.03-.05c0-.02,0-.03.02-.03.05,0,.26.03.3.03.09,0,.78.03,1.06.03.39,0,.43,0,.46-.05a2.247,2.247,0,0,0,.04-.56c0-.2-.08-.2-.4-.2-.16,0-.61,0-.81.02-.03,0-.16.03-.18.03s-.04-.03-.07-.06l-.17-.19Zm1.47-.46c0,.22-.12.35-.23.35s-.12-.03-.34-.35c-.1-.14-.26-.37-.42-.59a.133.133,0,0,1-.03-.08c0-.02,0-.05.05-.05a1.561,1.561,0,0,1,.45.15c.43.2.53.37.53.56Zm1.79-1.02c-.17,0-.22,0-.27.12a.391.391,0,0,1-.38.27c-.17,0-.21-.12-.21-.23V4.06c0-.12-.04-.72-.04-.86,0-.04.02-.13.09-.13a1.15,1.15,0,0,1,.41.15.586.586,0,0,0,.26.07h1.35a.283.283,0,0,0,.18-.04c.03-.02.21-.21.26-.21s.58.26.58.45c0,.06-.03.1-.14.2-.15.14-.15.21-.15.78,0,.66.1,3.88.1,4.62,0,.51-.06.8-.36,1.02a1.3,1.3,0,0,1-.41.18c-.07,0-.08-.03-.22-.27-.05-.09-.54-.36-.54-.39s.02-.03.11-.03a2.735,2.735,0,0,0,.7-.08c.08-.08.12-.1.12-1.2V5.39c0-.22-.09-.22-.27-.22h-1.18Zm1.22-1.05c.12,0,.22,0,.22-.15,0-.4,0-.45-.22-.45h-1.29c-.12,0-.23,0-.23.16,0,.4,0,.44.23.44Zm-1.3.22c-.22,0-.22.02-.22.34,0,.22,0,.27.22.27h1.3a.308.308,0,0,0,.18-.03c.04-.04.04-.08.04-.44,0-.13-.14-.13-.22-.13h-1.3Z" fill="#11374c"/>
  <line id="線_19" data-name="線 19" x2="300.5" transform="translate(0 18.63)" fill="none" stroke="#11374c" stroke-miterlimit="10" stroke-width="0.5"/>
  <rect id="長方形_7" data-name="長方形 7" width="96.19" height="5.42" transform="translate(0 15.92)" fill="#11374c"/>
  <line id="線_20" data-name="線 20" x1="9.5" transform="translate(115.02 6.93)" fill="none" stroke="#11374c" stroke-miterlimit="10" stroke-width="0.3"/>
  <line id="線_21" data-name="線 21" x2="9.5" transform="translate(169.16 6.93)" fill="none" stroke="#11374c" stroke-miterlimit="10" stroke-width="0.3"/>
</svg>
