<svg id="info07-01" xmlns="http://www.w3.org/2000/svg" width="679.74" height="12.64" viewBox="0 0 679.74 12.64">
  <path id="パス_936" data-name="パス 936" d="M150.44,4.96s-.14.18-.16.21c-.14.19-.68,1.05-.82,1.21-.06.07-.22.26-.29.26-.02,0-.03,0-.03-.03,0,0,.24-.58.28-.7a5.3,5.3,0,0,0,.3-1.04c0-.23,0-.26.07-.26a1.861,1.861,0,0,1,.31.1c.11.05.34.15.34.24Zm1.69-.93c-.02-.07-.03-.12-.11-.12s-.45.08-.54.09c-.22.03-.22.1-.22.4V6.89a.409.409,0,0,1-.41.44.164.164,0,0,1-.18-.19c0-.1.04-.59.04-.7.02-.58.04-1.57.04-2.14,0-.1-.02-.19-.16-.19a5.627,5.627,0,0,0-.94.12,1.008,1.008,0,0,1-.23.12c-.14,0-.19-.64-.19-.68s0-.12.07-.12c0,0,.2.06.22.06a2.541,2.541,0,0,0,.8.11c.26,0,.29-.02.36-.14a9.3,9.3,0,0,0,.97-2.24c.04-.19.04-.21.1-.21.04,0,.78.3.78.46,0,.07-.06.1-.12.1a.494.494,0,0,0-.29.17,19.934,19.934,0,0,0-1.24,1.82c0,.02.02.03.02.04h.56c.12,0,.38-.02.46-.02a.063.063,0,0,0,.07-.07,4.289,4.289,0,0,0-.22-.57c0-.03.02-.03.03-.03.13,0,.88.43.88,1.01,0,.18-.1.32-.25.32-.18,0-.28-.06-.33-.33Zm-1.74-1.05c-.11,0-.18-.05-.26-.26a3.5,3.5,0,0,0-.54-.86c-.08-.1-.09-.1-.09-.13s.02-.05.06-.05c.1,0,.52.2.58.2a5.159,5.159,0,0,0,.49-1.63c.02-.13.04-.13.07-.13.06,0,.72.27.72.37,0,.05-.2.18-.23.21a8.685,8.685,0,0,0-.8,1.31.2.2,0,0,0,.07.15.8.8,0,0,1,.2.46c0,.16-.09.34-.27.34Zm2.31,2.96a.4.4,0,0,1-.33.41c-.16,0-.18-.06-.3-.62a2.166,2.166,0,0,0-.26-.69.476.476,0,0,1-.05-.14.037.037,0,0,1,.04-.04,1.364,1.364,0,0,1,.46.32,1.318,1.318,0,0,1,.43.77Zm.79-3.82c-.18,0-.23.02-.3.12-.18.29-.63.98-.78.98a.053.053,0,0,1-.06-.06c0-.02.3-.58.34-.7a7.579,7.579,0,0,0,.69-2.24V.11c0-.02,0-.05.03-.05s.87.26.87.42c0,.08-.1.13-.22.18a6.889,6.889,0,0,0-.63,1.18c0,.05.06.05.14.05h1.46c.22,0,.22,0,.31-.07.14-.14.16-.15.22-.15.1,0,.63.3.63.46,0,.06-.02.06-.2.21a1.56,1.56,0,0,0-.06.6,9.4,9.4,0,0,1-.68,3.91,1.193,1.193,0,0,1-.86.5c-.1,0-.13-.06-.2-.26a1.117,1.117,0,0,0-.44-.5c-.11-.07-.13-.08-.13-.12s.02-.03.03-.03.22.07.26.08a2.458,2.458,0,0,0,.5.12c.34,0,.52-.34.62-.72a11.373,11.373,0,0,0,.36-2.96c0-.13,0-.7-.02-.74-.05-.1-.15-.1-.24-.1h-1.64Zm.87,2.58a.462.462,0,0,1-.38.51c-.19,0-.22-.1-.32-.62a3.616,3.616,0,0,0-.24-.79c-.06-.12-.06-.14-.06-.17s0-.05.02-.05a1.817,1.817,0,0,1,.63.43.985.985,0,0,1,.35.68Z" fill="#3e3a39"/>
  <path id="パス_937" data-name="パス 937" d="M157.52,6.76c-.18,0-.18-.1-.18-.13,0-.13.12-.13.41-.13.43,0,.64-.02.74-.25a17.073,17.073,0,0,0,.06-1.82c0-.38-.02-2.25-.02-2.67,0-.38-.11-.38-.78-.38-.19,0-.27,0-.27-.1s.08-.11.33-.13a3.453,3.453,0,0,0,.9-.2,3.389,3.389,0,0,1,.39-.18c.09,0,.09.02.09.38,0,.22-.02,1.25-.02,1.49,0,.37,0,3.44.03,3.53.06.23.17.33.76.33.07,0,.19,0,.19.14,0,.11-.13.11-.2.11h-2.42Z" fill="#3e3a39"/>
  <path id="パス_938" data-name="パス 938" d="M161.21,6.76s-.23,0-.23-.12a2.594,2.594,0,0,1,.7-1.25c1.89-2.25,2.05-2.46,2.05-3.21a1.071,1.071,0,0,0-1.06-1.13c-.48,0-.9.33-.9.67a.412.412,0,0,0,.08.24.674.674,0,0,1,.17.38.433.433,0,0,1-.43.43.493.493,0,0,1-.46-.54A1.64,1.64,0,0,1,162.85.78a1.5,1.5,0,0,1,1.6,1.5c0,.82-.5,1.28-1.18,1.85a4.927,4.927,0,0,0-1.64,1.9c0,.12.26.12.29.12h.82c.81,0,1.27-.22,1.5-.75.13-.3.13-.3.18-.3.08,0,.08.1.08.11,0,.06-.26,1.09-.3,1.26a.423.423,0,0,1-.48.29h-2.5Z" fill="#3e3a39"/>
  <path id="パス_939" data-name="パス 939" d="M166.74,6.92c-1.26,0-1.8-1.59-1.8-3.06s.54-3.07,1.8-3.07c1.29,0,1.8,1.66,1.8,3.07S168.03,6.92,166.74,6.92Zm0-5.87c-1.06,0-1.08,2.4-1.08,2.81,0,.33,0,2.81,1.08,2.8,1.06,0,1.08-2.38,1.08-2.8,0-.34,0-2.81-1.08-2.81Z" fill="#3e3a39"/>
  <path id="パス_940" data-name="パス 940" d="M173.83,6.76c-.14,0-.15-.1-.15-.13,0-.12.1-.13.22-.13.42-.02.42-.23.42-1.31a5.919,5.919,0,0,0-.08-1.48.646.646,0,0,0-.63-.54,1.369,1.369,0,0,0-1.08.67,14.061,14.061,0,0,0-.05,1.5c0,.78,0,.86.08.98a.386.386,0,0,0,.33.18c.23,0,.3,0,.3.13s-.11.13-.18.13H171.4c-.07,0-.19,0-.19-.13,0-.05.02-.1.06-.11a1.83,1.83,0,0,1,.34-.02c.32-.06.32-.23.32-1.34a4.537,4.537,0,0,0-.1-1.55.628.628,0,0,0-.6-.42,1.446,1.446,0,0,0-.89.4c-.19.19-.21.21-.21,1.58,0,1.11,0,1.34.42,1.35.12,0,.24,0,.24.13s-.11.13-.18.13H169.1s-.16,0-.16-.13.1-.13.24-.13a.371.371,0,0,0,.35-.23,13.4,13.4,0,0,0,.06-1.6,9.4,9.4,0,0,0-.05-1.23.3.3,0,0,0-.3-.2c-.03,0-.2.02-.24.02-.02,0-.08,0-.08-.06s.02-.07.39-.18c.18-.05.69-.18.75-.2.08,0,.08.04.08.23,0,.21,0,.26.08.26a1.789,1.789,0,0,0,.24-.15,1.755,1.755,0,0,1,1-.34.868.868,0,0,1,.9.52c.02.03.06.11.1.11s.06-.02.18-.13a1.792,1.792,0,0,1,1.21-.5.816.816,0,0,1,.91.62,6.093,6.093,0,0,1,.1,1.83c0,.96,0,1.22.45,1.22.06,0,.18,0,.18.14,0,.08-.07.12-.15.12h-1.5Z" fill="#3e3a39"/>
  <path id="パス_941" data-name="パス 941" d="M183.22.31c-.36.34-6.25,6.24-6.79,6.79a1.992,1.992,0,0,1-.22.2.086.086,0,0,1-.09-.08.1.1,0,0,1,.04-.08c.33-.31,6.26-6.25,6.8-6.79a1.373,1.373,0,0,1,.22-.2.088.088,0,0,1,.09.09.087.087,0,0,1-.05.07Z" fill="#3e3a39"/>
  <path id="パス_942" data-name="パス 942" d="M184.96,3.64s0-.1-.06-.1c-.02,0-.97.66-1.03.66a.02.02,0,0,1-.02-.02s.32-.34.36-.39a12.212,12.212,0,0,0,1.47-1.88c.05-.1.1-.21.13-.21s.67.4.67.6c0,.04-.02.05-.22.11a4.094,4.094,0,0,0-.79.67.058.058,0,0,0,.06.06c.14.03.18.05.18.14a.073.073,0,0,1-.02.06c-.02.03-.14.15-.15.18a9.969,9.969,0,0,0-.05,1.14c0,.3.03,1.8.03,2.13a.46.46,0,0,1-.42.52c-.23,0-.23-.21-.23-.28s.03-.47.04-.54c.04-.6.04-.91.04-1.78V3.62ZM186.51.65c0,.06-.03.07-.26.12a.956.956,0,0,0-.41.2,7.686,7.686,0,0,1-1.58.98,1.019,1.019,0,0,1-.11.05.02.02,0,0,1-.02-.02c0-.02.47-.44.54-.5A6.123,6.123,0,0,0,185.75.2c.06-.1.08-.14.13-.14.1,0,.63.47.63.6Zm1.2,2.39c-.18,0-.73,0-1.01.02-.03,0-.14.02-.18.02-.02,0-.04-.02-.06-.05l-.16-.18a.163.163,0,0,1-.03-.06c0-.02,0-.02.03-.02.06,0,.3.02.35.02.37.02.72.03,1.1.03h.41c.22,0,.24-.04.24-.88,0-.42-.04-.42-.38-.42-.18,0-.73,0-1.01.02-.03,0-.14.02-.17.02s-.05-.02-.07-.05l-.16-.18a.163.163,0,0,1-.03-.06s0-.02.03-.02.42.03.5.03c.58.02.6.02,1.02.02a.2.2,0,0,0,.23-.22c0-.18-.02-.53-.03-.62,0-.05-.06-.25-.06-.29,0-.07.05-.09.1-.09,0,0,.76.11.76.28,0,.04,0,.05-.15.17-.05.04-.06.1-.06.36s0,.4.26.4h.34c.37,0,.42,0,.53-.18.16-.23.18-.26.25-.26.1,0,.63.38.63.52,0,.12-.15.12-.43.12h-1.32c-.22,0-.26.06-.26.32,0,.1.02.53.02.62,0,.26,0,.37.26.37h.63c.37,0,.41,0,.5-.16.13-.22.18-.28.26-.28.13,0,.66.39.66.53,0,.12-.14.12-.42.12h-1.87s-.07,0-.07.03.02.04.07.06c.03.02.1.06.1.11a.847.847,0,0,1-.1.19,1.194,1.194,0,0,0-.04.39c0,.7,0,.71.24.71h.62c.37,0,.41,0,.53-.18.15-.23.17-.26.24-.26.1,0,.63.38.63.53,0,.11-.14.11-.43.11h-1.58c-.23,0-.25.1-.25.26V6.01c0,.3.07.39.51.39a6.912,6.912,0,0,0,1.76-.22,3.093,3.093,0,0,0,.3-.08.02.02,0,0,1,.02.02,1,1,0,0,1-.14.16c-.27.3-.29.41-.29.49s0,.14-.09.18a6.872,6.872,0,0,1-.98.07,2.807,2.807,0,0,1-2.75-1.23c-.03-.04-.11-.15-.17-.15s-.09.05-.15.18a3.857,3.857,0,0,1-.76,1.09,2.376,2.376,0,0,1-.4.31V7.2c0-.02.18-.29.21-.34a5.325,5.325,0,0,0,.82-2.81c0-.39,0-.42.09-.42,0,0,.29.07.38.1.26.08.29.09.29.16,0,.05-.13.21-.14.24-.03.1-.09.53-.1.62-.02.06-.11.47-.11.5,0,.3.68.9.98.9.05,0,.14,0,.16-.15,0-.07.03-1.41.03-1.51a7.855,7.855,0,0,0-.07-1.32c-.06-.18-.15-.18-.28-.18h-.32Z" fill="#3e3a39"/>
  <path id="パス_943" data-name="パス 943" d="M194.7,4.25c0,.06-.03.1-.17.12a.631.631,0,0,0-.33.2,5.765,5.765,0,0,1-1.67,1.17c-.06.02-.31.12-.34.12s-.03,0-.03-.02c0-.04.62-.49.69-.56.74-.78.9-.98,1.06-1.49,0-.02.04-.1.09-.1a1.417,1.417,0,0,1,.37.22c.31.22.34.26.34.33Zm.5-1.05c.22,0,.24-.09.24-.26V1.57a5.481,5.481,0,0,0-.05-1.03c0-.06-.1-.34-.1-.38,0-.07.1-.08.14-.08.26,0,.73.17.73.29,0,.03-.14.15-.16.18a2.711,2.711,0,0,0-.03.77c0,.14,0,.28.25.28h.83c.3,0,.36-.02.41-.07s.26-.45.34-.45c.11,0,.67.5.67.63,0,.1-.05.1-.43.1h-1.82c-.25,0-.25.13-.25.25v.86c0,.26.09.26.26.26h1.46a1.845,1.845,0,0,0,.42-.03c.09-.05.38-.5.49-.5a2.006,2.006,0,0,1,.67.62c0,.11-.14.11-.42.11h-2.93s-.06,0-.06.04c0,.02.02.02.18.1.13.06.19.1.21.18,0,.04,0,.06-.11.14-.14.1-.14.48-.14.66,0,.05.02.81.02.9a.737.737,0,0,1-.37.73,1.039,1.039,0,0,1-.47.14.234.234,0,0,1-.11-.02c-.05-.02-.17-.27-.21-.31-.06-.06-.4-.3-.4-.3,0-.02.03-.03.05-.03s.38.02.45.02c.46,0,.49-.09.5-.35v-.8c0-1.02-.03-1.09-.29-1.09h-1.53c-.14,0-.74,0-1.01.02-.02,0-.14.02-.18.02-.02,0-.04-.02-.06-.05l-.16-.18a.163.163,0,0,1-.03-.06c0-.02.02-.02.03-.02.16,0,.94.06,1.13.06s.21-.1.21-.26V1.78a7.312,7.312,0,0,0-.03-.82c0-.03-.06-.22-.06-.26s.02-.05.06-.05c0,0,.82.12.82.26V.97c-.02.02-.15.13-.17.16a7.4,7.4,0,0,0-.05,1.75c0,.24.03.3.24.3h.86Zm2.82,2.29c0,.1-.03.1-.22.14-.14.02-.18.06-.62.41a6.154,6.154,0,0,1-3.98,1.23c-.09,0-.58,0-.58-.06a.949.949,0,0,1,.31-.06,6.792,6.792,0,0,0,3.91-1.52,1.527,1.527,0,0,0,.4-.64c.03-.1.04-.11.1-.11s.08.03.37.26c.26.21.33.27.33.36Zm1.01-.27a.266.266,0,0,1-.3.27c-.22,0-.29-.1-.46-.38a6.351,6.351,0,0,0-1.08-1.13c-.12-.1-.14-.1-.14-.14s.06-.03.08-.03a2.285,2.285,0,0,1,.65.18c.8.34,1.24.89,1.24,1.23Z" fill="#3e3a39"/>
  <path id="パス_944" data-name="パス 944" d="M200.17,6.76s-.23,0-.23-.12a2.594,2.594,0,0,1,.7-1.25c1.89-2.25,2.05-2.46,2.05-3.21a1.071,1.071,0,0,0-1.06-1.13c-.48,0-.9.33-.9.67a.412.412,0,0,0,.08.24.674.674,0,0,1,.17.38.433.433,0,0,1-.43.43.493.493,0,0,1-.46-.54A1.64,1.64,0,0,1,201.81.78a1.5,1.5,0,0,1,1.6,1.5c0,.82-.5,1.28-1.18,1.85a4.927,4.927,0,0,0-1.64,1.9c0,.12.26.12.29.12h.82c.81,0,1.27-.22,1.5-.75.13-.3.13-.3.18-.3.08,0,.08.1.08.11,0,.06-.26,1.09-.3,1.26a.423.423,0,0,1-.48.29h-2.5Z" fill="#3e3a39"/>
  <path id="パス_945" data-name="パス 945" d="M207.04,1.14c0,.08-.06.1-.22.14-.08.02-.22.26-.4.54a5.176,5.176,0,0,1-2.37,2.21.047.047,0,0,1-.05-.05c0-.05.02-.06.17-.18a6.887,6.887,0,0,0,1.8-2.41c.06-.12.26-.8.27-.8.06-.02.81.41.81.54Zm.78,2.33c-.21,0-.21.02-.26.44a3.343,3.343,0,0,1-1.62,2.86,5.187,5.187,0,0,1-1.53.52c-.02,0-.1,0-.1-.06,0-.04.04-.06.18-.1a4.71,4.71,0,0,0,1.58-.97,3.889,3.889,0,0,0,.9-2.52c0-.18-.08-.18-.2-.18h-.24c-.3,0-.68,0-.82.02-.03,0-.14.02-.17.02s-.05-.02-.07-.06l-.16-.18a.219.219,0,0,1-.03-.05c0-.02,0-.02.03-.02.06,0,.3.03.35.03.39.02.72.02,1.1.02h1.75c.36,0,.4-.02.53-.15s.19-.18.25-.18c.13,0,.59.37.59.54,0,.04-.13.18-.14.22-.04.08-.09.99-.1,1.17a5.175,5.175,0,0,1-.38,1.98,1.237,1.237,0,0,1-.82.48c-.09,0-.09-.02-.15-.25-.05-.18-.32-.29-.74-.41-.18-.05-.26-.08-.26-.13s.07-.05.09-.05a2.438,2.438,0,0,1,.31.06,3.437,3.437,0,0,0,.57.06c.38,0,.6-.07.71-.9.08-.62.16-1.54.16-1.95,0-.22-.02-.29-.24-.29h-1.08Zm.4-2.58c-.2,0-.47,0-.64.02-.02,0-.14.02-.16.02s-.03,0-.06-.05L207.21.7a.2.2,0,0,1-.02-.06.02.02,0,0,1,.02-.02c.05,0,.28.03.33.03.09,0,.42.02.48.02a.433.433,0,0,0,.34-.21c.16-.22.18-.25.24-.25.1,0,.7.4.7.58,0,.08-.02.09-.24.14a.179.179,0,0,0-.16.17,2.978,2.978,0,0,0,2.41,1.82c.02,0,.12.02.12.06s-.21.09-.24.1a1.652,1.652,0,0,0-.49.37c-.02.02-.1.12-.13.12a4,4,0,0,1-1.91-2.31c-.09-.34-.1-.38-.29-.38h-.14Z" fill="#3e3a39"/>
  <line id="線_47" data-name="線 47" x2="211.7" transform="translate(0 12.49)" fill="none" stroke="#231815" stroke-miterlimit="10" stroke-width="0.3"/>
  <path id="パス_946" data-name="パス 946" d="M1.05,2.91c-.19,0-.23.06-.23.24V6.62c0,.2,0,.67-.37.67-.26,0-.26-.26-.26-.36a2.822,2.822,0,0,1,.02-.39c0-.06.04-1.97.04-2.18C.26,3.47.26,1.55.19.8.19.74.13.46.13.41S.19.35.23.35A1.429,1.429,0,0,1,.7.5a.813.813,0,0,0,.39.09h.96A.455.455,0,0,0,2.36.51c.03-.03.2-.23.26-.23.04,0,.63.41.63.51,0,.06-.02.07-.2.2a.3.3,0,0,0-.1.28c0,.22.02,1.32.02,1.57,0,.19,0,.47-.36.47-.19,0-.2-.07-.22-.24-.02-.13-.14-.15-.24-.15H1.04ZM1.03.8C.79.8.79.91.79,1.28c0,.18,0,.31.24.31H2.15c.24,0,.24-.14.24-.31,0-.37,0-.48-.25-.48H1.03ZM2.17,2.7c.24,0,.24-.11.24-.47,0-.31,0-.42-.24-.42H1.04c-.24,0-.24.14-.24.3,0,.54,0,.6.25.6H2.17Zm2.56.18c-.1,0-.21,0-.23.17a.411.411,0,0,1-.41.32.187.187,0,0,1-.2-.2c0-.09.03-.53.03-.62,0-.34-.03-1.25-.03-1.31,0-.12-.05-.66-.05-.73s.02-.18.12-.18a1.486,1.486,0,0,1,.42.18,1.105,1.105,0,0,0,.5.09H5.8A.521.521,0,0,0,6.1.53c.03-.02.19-.2.25-.2a2.953,2.953,0,0,1,.32.19c.24.17.26.18.26.27,0,.06-.02.08-.17.2-.08.06-.08.23-.08.29,0,.72.04,4.25.04,5.05a.838.838,0,0,1-.27.74,1.063,1.063,0,0,1-.54.25.173.173,0,0,1-.15-.1,1.446,1.446,0,0,0-.36-.46c-.03-.02-.24-.11-.24-.16,0-.02.05-.05.14-.05.07,0,.41.02.48.02.14,0,.34-.02.37-.19.02-.09.02-1,.02-1.16,0-.18,0-2.05-.02-2.18-.03-.15-.17-.15-.25-.15H4.72ZM4.71.81c-.26,0-.26.11-.26.38,0,.29,0,.39.26.39H5.88c.25,0,.25-.11.25-.38,0-.29,0-.39-.25-.39ZM5.89,2.67c.25,0,.25-.07.25-.47,0-.32,0-.4-.25-.4H4.71c-.23,0-.25.1-.25.27,0,.54,0,.6.26.6H5.89Z" fill="#3e3a39"/>
  <path id="パス_947" data-name="パス 947" d="M11.06,6.2c0,.06-.31.11-.36.14-.78.36-1,.46-1.21.54a6.722,6.722,0,0,1-1.7.41c-.02,0-.06,0-.06-.02s.15-.09.29-.14a6.274,6.274,0,0,0,2.24-1.3c.14-.17.15-.18.21-.18a.222.222,0,0,1,.11.05c.11.09.47.39.47.51Zm2.62-.92c.34,0,.42,0,.51-.14.18-.28.21-.31.3-.31.12,0,.63.38.63.55,0,.1-.17.1-.43.1H9.24c-.45,0-.77,0-1.02.02-.02,0-.14.02-.17.02s-.04-.02-.07-.05l-.15-.18a.163.163,0,0,1-.03-.06c0-.02,0-.02.02-.02.06,0,.3.02.35.02.39.02.72.03,1.1.03h4.41ZM10.94,1.81c.24,0,.24-.1.24-.44a.2.2,0,0,0-.23-.22H9.8c-.7,0-.94.02-1.02.02-.02,0-.14.02-.17.02s-.04-.02-.07-.05L8.39.96A.163.163,0,0,1,8.36.9c0-.02,0-.02.02-.02.06,0,.3.02.35.02.39.02.73.03,1.1.03h1.1c.08,0,.24,0,.24-.2a1.584,1.584,0,0,0-.05-.38c0-.04-.1-.21-.1-.25s.07-.03.12-.03c.02,0,.67.11.7.12a.12.12,0,0,1,.1.12c0,.06,0,.06-.12.18a.567.567,0,0,0-.09.26.193.193,0,0,0,.21.18h1.04c.34,0,.42,0,.51-.14.22-.33.24-.36.33-.36.11,0,.74.44.74.59,0,.11-.17.11-.42.11H11.95c-.16,0-.24.05-.24.21,0,.38,0,.46.26.46h.66a.39.39,0,0,0,.34-.15c.08-.1.1-.13.15-.13.09,0,.62.29.62.41,0,.06-.18.22-.2.26a.538.538,0,0,0-.06.3c0,.32.06,1.73.06,2.01,0,.1,0,.5-.42.5-.21,0-.22-.09-.25-.25a.2.2,0,0,0-.21-.12H10.25a.268.268,0,0,0-.29.18.478.478,0,0,1-.38.23c-.18,0-.23-.12-.23-.25a1.679,1.679,0,0,1,.02-.29c.03-.34.04-.74.04-1.1a13.218,13.218,0,0,0-.06-1.56c0-.05-.06-.24-.06-.28s.06-.06.08-.06c.1,0,.16.03.4.17a1.064,1.064,0,0,0,.57.13h.59Zm-.74.21c-.07,0-.25,0-.25.21,0,.38,0,.47.25.47h2.48c.08,0,.25,0,.25-.21,0-.38,0-.47-.25-.47Zm0,.9c-.08,0-.25,0-.25.21,0,.34,0,.43.25.43h2.47c.08,0,.25,0,.25-.21,0-.34,0-.43-.25-.43Zm-.02.86a.2.2,0,0,0-.22.2c0,.36,0,.46.22.46H12.7c.22,0,.22-.15.22-.34s0-.33-.22-.33H10.18Zm2.41,2.06c1.33.53,1.84.74,1.84,1.25a.274.274,0,0,1-.27.31c-.13,0-.2-.06-.8-.64-.19-.18-1.48-1.07-1.45-1.14a3.63,3.63,0,0,1,.68.21Z" fill="#3e3a39"/>
  <path id="パス_948" data-name="パス 948" d="M18.88,4.09c.09,0,.25,0,.25-.22V2.5a.2.2,0,0,0-.23-.21H17.24c-.7,0-.94.02-1.01.02-.03,0-.14.02-.18.02-.02,0-.04-.02-.06-.05l-.16-.18a.163.163,0,0,1-.03-.06c0-.02,0-.02.03-.02.05,0,.3.02.35.02.39.02.72.03,1.1.03h1.61c.14,0,.24-.03.24-.22A9.745,9.745,0,0,0,19.09.33c0-.04-.08-.22-.08-.26A.071.071,0,0,1,19.09,0c.05,0,.65.13.8.18.06.02.1.05.1.1s-.16.19-.18.23a3.452,3.452,0,0,0-.07.88c0,.65,0,.68.25.68h1.54c.34,0,.38,0,.46-.07s.27-.46.35-.46a5.641,5.641,0,0,1,.65.48c.02,0,.13.09.13.14,0,.11-.16.11-.43.11H20c-.25,0-.25,0-.25.83,0,.11,0,.8.02.85a.21.21,0,0,0,.23.13h.94a.473.473,0,0,0,.41-.17c.06-.08.09-.12.14-.12s.71.41.71.51c0,.04-.18.17-.21.2a.423.423,0,0,0-.07.26c0,.32.06,1.82.06,2.01a.412.412,0,0,1-.4.45c-.26,0-.26-.12-.27-.28s-.08-.2-.25-.2H17.85c-.14,0-.24.05-.25.19a.383.383,0,0,1-.42.4c-.24,0-.26-.17-.26-.37,0-.1.02-.58.03-.68.02-.37.02-.52.02-.78V4.12c0-.04-.02-.22-.02-.26,0-.02,0-.06.05-.06a3.549,3.549,0,0,1,.54.21,1.312,1.312,0,0,0,.45.07h.94Zm-1.1.21c-.07,0-.24,0-.24.22,0,.18,0,1.87.02,1.9a.2.2,0,0,0,.22.13h3.29c.07,0,.24,0,.24-.22,0-.18,0-1.86-.02-1.9a.211.211,0,0,0-.22-.13Z" fill="#3e3a39"/>
  <path id="パス_949" data-name="パス 949" d="M25.49.66s-.12.19-.14.23a9.369,9.369,0,0,0-.06,1.82c-.02,1.7-.02,3.1-.95,4.04a2.986,2.986,0,0,1-.58.47c-.02,0-.02-.02-.02-.03,0-.05.02-.06.14-.22.83-.98.83-2.01.83-5.26a4.375,4.375,0,0,0-.04-.98c-.02-.09-.06-.22-.06-.26,0-.08.09-.09.14-.09s.74.14.74.28Zm1.53,5.61a7.233,7.233,0,0,1,.06-.76c.03-.34.03-.88.03-1.02V1.59c0-.08-.06-.62-.06-.65,0-.13.06-.14.13-.14a2.229,2.229,0,0,1,.57.15c.05.02.1.06.1.1s-.13.2-.14.23a1.586,1.586,0,0,0-.04.34v4.5c0,.15,0,.24-.08.3a.68.68,0,0,1-.38.16c-.04,0-.12,0-.14-.05a.533.533,0,0,1-.04-.28Zm2.56.67a2.477,2.477,0,0,1,.03-.27c.02-.18.02-.44.02-.51,0-4.96,0-5.49-.09-5.87V.23c0-.03.04-.03.06-.03,0,0,.84.14.84.3,0,.06-.18.27-.2.32a11.1,11.1,0,0,0-.06,1.74c0,2.3,0,2.73.02,3.23,0,.15.06.82.06.96a.4.4,0,0,1-.42.45c-.03,0-.16,0-.19-.03a.349.349,0,0,1-.06-.22Z" fill="#3e3a39"/>
  <path id="パス_950" data-name="パス 950" d="M37.32,1.63c.35,0,.42,0,.51-.14.18-.25.19-.28.27-.28.06,0,.11.05.55.38.13.1.14.1.14.14,0,.11-.15.11-.42.11h-1.2s-.07,0-.07.04a3.324,3.324,0,0,0,1.57,1.11c.18.05.3.08.3.13,0,.02-.06.04-.08.05a.966.966,0,0,0-.41.16c-.02.02-.13.14-.16.14-.14,0-.64-.5-.7-.5a.293.293,0,0,0-.22.19v.67c0,.14-.17.27-.37.27-.13,0-.14-.04-.21-.18-.03-.06-.06-.06-.21-.06h-.79c-.09,0-.14,0-.2.08a.39.39,0,0,1-.34.19c-.19,0-.19-.16-.19-.22,0-.14.02-.83.02-.99,0-.02,0-.04-.02-.04a.1.1,0,0,0-.07.06,3.279,3.279,0,0,1-.58.47c-.08.05-.26.15-.27.21-.04.14-.08.26-.22.26-.16,0-.2-.14-.27-.45a.913.913,0,0,0-.38-.6c-.07,0-.07.07-.07.13,0,.03-.02.21-.02.24V4.22c0,.38.03,2.2.03,2.61a.344.344,0,0,1-.1.3.494.494,0,0,1-.34.14c-.1,0-.18-.04-.18-.13,0-.07.05-.44.06-.53,0-.14.09-2.61.09-2.77,0,0,0-.06-.02-.06s-.02.02-.08.14a4.8,4.8,0,0,1-1,1.55c-.03,0-.03-.02-.03-.03s.44-.98.5-1.17a11.31,11.31,0,0,0,.57-2.06c0-.22-.14-.22-.23-.22-.03,0-.36,0-.52.02-.02,0-.14.02-.16.02s-.05-.02-.07-.05l-.15-.18a.163.163,0,0,1-.03-.06.02.02,0,0,1,.02-.02c.14,0,.85.05,1.01.05.22,0,.22-.15.22-.27,0-.28,0-.6-.02-.87,0-.08-.04-.43-.04-.5,0-.03,0-.04.02-.04s.72.11.72.23a1.245,1.245,0,0,1-.16.22c-.02.03-.02.06-.02.22,0,.12-.02.73-.02.82,0,.13.02.18.1.18.05,0,.09,0,.14-.11.1-.22.14-.25.18-.25s.58.38.58.46c0,.11-.16.11-.42.11h-.42c-.18,0-.18.05-.18.44,0,.14,0,.17.18.26a1.716,1.716,0,0,1,.67.52c.03.06.07.13.11.13a3.018,3.018,0,0,0,.54-.51,3.544,3.544,0,0,0,.58-.9c0-.1-.11-.1-.26-.1-.08,0-.47.03-.56.03-.03,0-.04-.02-.07-.05l-.15-.18s-.04-.04-.04-.06.02-.02.03-.02c.04,0,.24.02.29.02.18,0,.58.02.75.02.11,0,.15,0,.18-.05a1.1,1.1,0,0,0,.14-.42c0-.11-.03-.11-.3-.11-.06,0-.35.02-.42.02-.34,0-.38,0-.38-.05s.25-.08.33-.1A7.334,7.334,0,0,0,37.17.21.871.871,0,0,1,37.35.1c.03,0,.62.41.62.52,0,.06-.07.06-.2.06-.18,0-1.34.21-1.4.22-.12.04-.28.53-.28.54,0,.12.13.12.19.12h1.08ZM35.03,4.78a.234.234,0,0,0-.24.11c-.02.05-.02.76-.02.86,0,.19.04,1.14.04,1.18,0,.3-.35.38-.43.38s-.15-.02-.15-.13c0-.04.03-.26.04-.3.02-.34.02-1.64.02-2.09,0-.06-.02-.38-.02-.45s0-.1.02-.1.5.27.54.29a.764.764,0,0,0,.25.04h2.46c.12,0,.17,0,.22-.06.03-.02.18-.22.23-.22a1.735,1.735,0,0,1,.55.4c0,.05-.08.13-.1.14-.07.08-.1.1-.12.18S38.3,6.3,38.3,6.53c0,.32,0,.4-.1.5a.885.885,0,0,1-.52.24c-.02,0-.06,0-.07-.03a1.748,1.748,0,0,0-.23-.34c-.03-.03-.22-.14-.22-.19,0-.02.02-.02.05-.02.05,0,.3.03.35.03.14,0,.24,0,.26-.17,0-.15.02-1.25.02-1.42,0-.22,0-.34-.24-.34H35.03Zm.98,1.6c-.07,0-.16.02-.18.1-.05.15-.08.26-.35.26-.18,0-.19-.1-.18-.22V5.5c0-.04-.02-.25-.02-.3,0-.03,0-.08.04-.08a3.529,3.529,0,0,1,.42.18.631.631,0,0,0,.34.07h.3c.22,0,.24,0,.33-.1s.14-.14.17-.14.55.3.55.38c0,.04-.17.18-.18.23-.04.08-.04.13-.04.54a.355.355,0,0,1-.35.38.16.16,0,0,1-.15-.14c-.03-.14-.04-.18-.18-.18h-.54Zm.52-3.69c.22,0,.29,0,.36-.06a.623.623,0,0,0,.12-.09c.06,0,.3.14.34.14.02,0,.02,0,.02-.02l-.4-.67c-.06-.12-.08-.15-.22-.15h-.76c-.12,0-.14.02-.25.22-.05.08-.35.5-.35.51,0,.05.14.12.38.12h.77Zm-.7.21c-.24,0-.24.13-.24.31,0,.37,0,.46.24.46h.85c.25,0,.25-.11.25-.49,0-.14,0-.28-.24-.28h-.86Zm.13,2.7c-.21,0-.21.06-.21.38,0,.18.13.18.21.18h.61c.21,0,.22-.09.22-.3,0-.18,0-.27-.21-.27h-.62Z" fill="#3e3a39"/>
  <path id="パス_951" data-name="パス 951" d="M41.02,5.29c-.41,0-.74.02-.86.02-.03,0-.14.02-.17.02s-.05-.02-.07-.05l-.16-.18a.163.163,0,0,1-.03-.06c0-.02.02-.02.03-.02.09,0,.47.03.55.03.17,0,.17-.09.17-.2V3.96a.144.144,0,0,0-.16-.14c-.07,0-.43.03-.5.03-.02,0-.04-.02-.07-.06l-.15-.18a.219.219,0,0,1-.03-.05c0-.02,0-.02.02-.02.09,0,.63.05.74.05.15,0,.15-.08.15-.3,0-.25,0-.9-.02-.94a.123.123,0,0,0-.12-.07c-.04,0-.22.02-.22.02-.03,0-.05-.02-.07-.06l-.15-.18A.311.311,0,0,1,39.86,2c0-.02.02-.02.03-.02.05,0,.25.02.29.02.13,0,.8.03.95.03.28,0,.31,0,.36-.05a1.236,1.236,0,0,0,.03-.36c0-.08,0-.64-.02-.68s-.08-.06-.13-.06-1.14.09-1.35.09c-.18,0-.19,0-.19-.02,0-.06.09-.07.22-.1A15.73,15.73,0,0,0,42.44.23c.06-.02.26-.17.32-.17a2.46,2.46,0,0,1,.77.53c0,.1-.19.1-.4.13-.12,0-1.06.1-1.08.11-.06.03-.06.09-.06.14v.8c0,.21.02.26.19.26h.32A1.008,1.008,0,0,0,42.88,2c.08-.04.3-.36.38-.36s.57.37.57.48-.14.12-.43.12h-.18c-.18,0-.18.1-.18.21v.97c0,.05,0,.14.1.14.06,0,.12-.06.16-.1.1-.12.15-.17.21-.17.11,0,.39.29.39.39,0,.12-.15.12-.42.12h-.26c-.07,0-.18,0-.18.18v.98a.057.057,0,0,0,.06.06c.06,0,.12-.08.13-.1.07-.11.11-.18.18-.18.1,0,.44.28.44.4s-.14.12-.42.12H42.25c-.26,0-.26.06-.26.64,0,.32,0,.41.18.41.07,0,1.54-.2,1.73-.2.02,0,.05,0,.05.02a7.478,7.478,0,0,1-1.73.55c-.51.11-1.46.31-1.53.34s-.3.22-.36.22-.08-.03-.16-.16c-.33-.52-.38-.58-.38-.67,0-.02,0-.06.06-.06a1.828,1.828,0,0,1,.25.08,1.8,1.8,0,0,0,.27.02c.14,0,.97-.02,1.06-.05.12-.04.12-.17.12-.24a4.189,4.189,0,0,0-.02-.8.216.216,0,0,0-.22-.1h-.26Zm.31-1.68a.184.184,0,0,0,.16-.05c.02-.03.02-.71.02-.8,0-.44,0-.49-.18-.49h-.21c-.07,0-.12,0-.16.05a6.784,6.784,0,0,0-.03.8c0,.44,0,.49.19.49Zm0,1.47A.174.174,0,0,0,41.51,5V3.9c-.02-.07-.12-.07-.18-.07h-.22c-.06,0-.14,0-.17.07-.02.05-.02.82-.02.95,0,.17,0,.23.18.23h.22Zm.83-2.81a.185.185,0,0,0-.18.07,5.625,5.625,0,0,0-.02.6,5.527,5.527,0,0,0,.02.59c.03.07.12.07.18.07h.22a.185.185,0,0,0,.18-.07c0-.03.02-.52.02-.59a5.816,5.816,0,0,0-.02-.6c-.02-.07-.12-.07-.18-.07h-.22Zm0,1.55s-.14,0-.18.07a4.875,4.875,0,0,0-.02.55,4.878,4.878,0,0,0,.02.56c.03.07.13.07.18.07h.22s.15,0,.18-.07a5.057,5.057,0,0,0,.02-.56,4.787,4.787,0,0,0-.02-.55c-.03-.07-.13-.07-.18-.07h-.22ZM45.87.57a.194.194,0,0,0,.16-.05c.02-.02.11-.16.14-.16.14,0,.66.35.66.45,0,.07-.09.13-.24.22-.02.02-.5.74-.59.88s-.72,1.08-.72,1.12.02.05.21.18c.38.28,1.36,1.01,1.36,1.99a1.376,1.376,0,0,1-1.11,1.42c-.06,0-.12,0-.15-.06a1.664,1.664,0,0,0-.38-.52c-.03-.03-.22-.16-.22-.19s.09-.02.1-.02c.06,0,.34.06.41.06a1.151,1.151,0,0,0,.46-.08.958.958,0,0,0,.29-.74,2.3,2.3,0,0,0-.91-1.7c-.25-.21-.28-.22-.28-.28a3.689,3.689,0,0,1,.26-.53A12.2,12.2,0,0,0,45.94.9c0-.12-.09-.12-.14-.12h-.88c-.26,0-.27,0-.27,1.19,0,.04,0,3.78.02,4.13,0,.11.05.68.05.81a.388.388,0,0,1-.1.32.574.574,0,0,1-.32.13c-.19,0-.19-.34-.19-.42s.02-.41.03-.5c.04-.48.04-1.66.04-2.21,0-.8-.02-2.72-.05-3.45,0-.05-.06-.3-.06-.36s.02-.06.07-.06a1.625,1.625,0,0,1,.44.17.706.706,0,0,0,.32.06h.97Z" fill="#3e3a39"/>
  <path id="パス_952" data-name="パス 952" d="M49.03,2.58c-.05.15-.06,1.91-.06,2.22,0,.35.02,1.89.02,2.21,0,.24-.17.33-.38.33-.18,0-.21-.1-.21-.23,0-.08.04-.46.04-.54.03-.55.05-1.34.05-1.88,0-.42,0-1.33-.02-1.79,0-.05,0-.16-.05-.16-.02,0-.09.09-.12.13a3.911,3.911,0,0,1-.72.74c-.03,0-.05-.02-.05-.06,0-.02.33-.53.38-.63A9.531,9.531,0,0,0,49.03.21c.02-.15.02-.17.07-.17.03,0,.77.28.77.46,0,.09-.09.13-.17.16a.257.257,0,0,0-.18.17,9.982,9.982,0,0,1-.62,1.1.507.507,0,0,0-.07.15c0,.06.04.07.1.1a.53.53,0,0,1,.25.16c0,.05-.14.2-.15.24ZM52.7,4.37c-.22,0-.23.11-.24.25a3.947,3.947,0,0,1-.14,1.02,3.043,3.043,0,0,0-.14.39c0,.09.03.1.36.22a6.242,6.242,0,0,0,2.1.37c.04,0,.24-.02.29-.02.02,0,.05,0,.05.02,0,.04-.1.09-.16.11a.824.824,0,0,0-.36.32c-.09.18-.11.22-.24.22a6.053,6.053,0,0,1-2.05-.7c-.2-.12-.22-.14-.27-.14a.967.967,0,0,0-.3.19,3.38,3.38,0,0,1-1.93.72c-.03,0-.12,0-.12-.06,0-.04.03-.05.2-.08.65-.13,1.77-.86,1.77-1.11,0-.06-.02-.07-.16-.24a4.316,4.316,0,0,1-.64-1.14.063.063,0,0,1,.07-.07c.04,0,.08.06.16.2.2.32.62.92.76.92s.25-.84.25-1.14c0-.14,0-.27-.22-.27h-.85c-.13,0-.18.02-.21.07a.444.444,0,0,1-.39.26c-.18,0-.18-.19-.18-.29,0-.14.02-.86.02-1.02,0-.41,0-.82-.05-1.38,0-.06-.03-.33-.03-.39,0-.08.03-.08.06-.08a1.472,1.472,0,0,1,.43.15.765.765,0,0,0,.45.12h.74c.24,0,.24-.09.24-.5,0-.32,0-.45-.22-.45h-.42c-.22,0-.62,0-.94.02-.02,0-.22.02-.23.02s-.04-.02-.07-.05L49.94.65a.163.163,0,0,1-.03-.06.02.02,0,0,1,.02-.02c.06,0,.3.02.35.02.23.02.65.03,1.1.03h1.93c.41,0,.43,0,.57-.22.18-.3.2-.32.27-.32a1.491,1.491,0,0,1,.66.63c0,.11-.15.11-.43.11H52.75c-.25,0-.25.1-.25.43,0,.41,0,.52.24.52h.73a.333.333,0,0,0,.24-.08c.14-.15.14-.16.18-.16.06,0,.6.31.6.42,0,.06-.05.09-.13.13a.16.16,0,0,0-.11.18c0,.26,0,.58.02.85,0,.18.05,1.02.05,1.21,0,.3-.34.37-.42.37s-.14-.04-.17-.19-.18-.16-.24-.16h-.77Zm-.96-1.39c.23,0,.23-.06.23-.59,0-.26,0-.38-.23-.38h-.86c-.24,0-.24.06-.24.59,0,.26,0,.38.24.38Zm0,1.18c.22,0,.22-.11.22-.37,0-.54,0-.61-.22-.61h-.87c-.22,0-.22.1-.22.34,0,.57,0,.63.23.63h.86Zm.98-2.15c-.25,0-.25.1-.25.36,0,.45,0,.5.06.55a.221.221,0,0,0,.19.06h.74c.25,0,.25-.1.25-.36,0-.42,0-.5-.06-.55a.221.221,0,0,0-.19-.06h-.74Zm0,1.18c-.26,0-.26.13-.26.34,0,.58,0,.64.26.64h.74c.26,0,.26-.13.26-.34,0-.58,0-.64-.26-.64Z" fill="#3e3a39"/>
  <path id="パス_953" data-name="パス 953" d="M60.89.65a.447.447,0,0,0,.33-.17c.02-.02.13-.13.16-.13.1,0,.58.32.58.41,0,.05-.02.06-.14.16-.1.08-.11.14-.11.39,0,.15.06.78.06.91a.429.429,0,0,1-.43.4c-.17,0-.18-.09-.19-.21,0-.1-.1-.1-.17-.1H57.29c-.25,0-.29,0-.29.73,0,.26.14.26.27.26h4.09a.42.42,0,0,0,.26-.05c.06-.04.34-.3.42-.3.16,0,.54.4.54.5,0,.06-.22.28-.24.34-.03.08-.14,2.17-.22,2.57-.19.94-.86,1.02-1.02,1.02-.14,0-.14,0-.22-.25-.06-.16-.09-.21-.38-.38-.13-.08-.16-.1-.16-.14s.03-.05.08-.05c.08,0,.58.08.69.08.41,0,.44-.31.54-1.2.05-.45.1-1.26.1-1.71,0-.22-.14-.22-.25-.22H57.23c-.12,0-.25,0-.26.18a5.909,5.909,0,0,1-.71,2.81c-.31.5-.54.65-.59.65-.02,0-.03-.02-.03-.04,0,0,.26-.51.3-.61a9.037,9.037,0,0,0,.53-3.83c0-.5-.02-1.56-.05-1.77,0-.06-.09-.35-.09-.42,0-.03.04-.06.09-.06.02,0,.73.21.87.21h3.62Zm.03,1.46c.25,0,.25-.08.25-.51,0-.68,0-.74-.26-.74H57.27c-.08,0-.22,0-.25.17v.83c0,.15.02.26.25.26h3.65ZM59.67,4.29a.246.246,0,0,0,.22-.1c.11-.13.14-.14.19-.14a1.172,1.172,0,0,1,.6.41c0,.04-.06.11-.09.15-.1.12-.11.12-.11.42,0,.17.03.92.03,1.07,0,.2-.02.42-.35.42-.18,0-.18-.06-.22-.32-.02-.15-.16-.16-.26-.16h-.95c-.19,0-.22.1-.22.23a.4.4,0,0,1-.44.44c-.15,0-.2-.06-.2-.21,0-.06.02-.32.03-.42.02-.13.02-.53.02-.74,0-.54-.02-.8-.02-.93,0-.06-.05-.34-.05-.4a.056.056,0,0,1,.06-.05,4.021,4.021,0,0,1,.62.25.717.717,0,0,0,.29.06h.86Zm-.94.21c-.24,0-.25.04-.25.78,0,.52.02.58.26.58h.98c.25,0,.25-.11.25-.4a5.706,5.706,0,0,0-.04-.86.221.221,0,0,0-.2-.1h-1Z" fill="#3e3a39"/>
  <path id="パス_954" data-name="パス 954" d="M384.46,4.96s-.14.18-.16.21c-.14.19-.68,1.05-.82,1.21-.06.07-.22.26-.29.26-.02,0-.03,0-.03-.03,0,0,.24-.58.28-.7a5.293,5.293,0,0,0,.3-1.04c0-.23,0-.26.07-.26a1.861,1.861,0,0,1,.31.1c.11.05.34.15.34.24Zm1.69-.93c-.02-.07-.03-.12-.11-.12s-.45.08-.54.09c-.22.03-.22.1-.22.4V6.89a.4.4,0,0,1-.41.44.164.164,0,0,1-.18-.19c0-.1.04-.59.04-.7.02-.58.04-1.57.04-2.14,0-.1-.02-.19-.16-.19a5.626,5.626,0,0,0-.94.12,1.007,1.007,0,0,1-.23.12c-.14,0-.19-.64-.19-.68s0-.12.07-.12c0,0,.2.06.22.06a2.541,2.541,0,0,0,.8.11c.26,0,.29-.02.36-.14a9.3,9.3,0,0,0,.97-2.24c.04-.19.04-.21.1-.21.04,0,.78.3.78.46,0,.07-.06.1-.12.1a.494.494,0,0,0-.29.17,19.934,19.934,0,0,0-1.24,1.82c0,.02.02.03.02.04h.56c.12,0,.37-.02.46-.02a.063.063,0,0,0,.07-.07,4.289,4.289,0,0,0-.22-.57c0-.03.02-.03.03-.03.13,0,.88.43.88,1.01,0,.18-.1.32-.25.32-.18,0-.28-.06-.33-.33Zm-1.74-1.05c-.11,0-.18-.05-.26-.26a3.5,3.5,0,0,0-.54-.86c-.08-.1-.09-.1-.09-.13s.02-.05.06-.05c.1,0,.52.2.58.2a5.159,5.159,0,0,0,.49-1.63c.02-.13.04-.13.07-.13.06,0,.72.27.72.37,0,.05-.2.18-.23.21a8.685,8.685,0,0,0-.8,1.31.2.2,0,0,0,.07.15.8.8,0,0,1,.2.46c0,.16-.09.34-.27.34Zm2.31,2.96a.4.4,0,0,1-.33.41c-.16,0-.18-.06-.29-.62a2.166,2.166,0,0,0-.26-.69.476.476,0,0,1-.05-.14.037.037,0,0,1,.04-.04,1.364,1.364,0,0,1,.46.32,1.318,1.318,0,0,1,.43.77Zm.79-3.82c-.18,0-.23.02-.29.12-.18.29-.63.98-.78.98a.053.053,0,0,1-.06-.06c0-.02.3-.58.34-.7a7.579,7.579,0,0,0,.69-2.24V.11c0-.02,0-.05.03-.05s.87.26.87.42c0,.08-.1.13-.22.18a6.889,6.889,0,0,0-.63,1.18c0,.05.06.05.13.05h1.46c.22,0,.22,0,.31-.07.14-.14.16-.15.22-.15.1,0,.63.3.63.46,0,.06-.02.06-.2.21a1.56,1.56,0,0,0-.06.6,9.4,9.4,0,0,1-.68,3.91,1.193,1.193,0,0,1-.86.5c-.1,0-.13-.06-.2-.26a1.117,1.117,0,0,0-.44-.5c-.11-.07-.13-.08-.13-.12s.02-.03.03-.03.22.07.26.08a2.458,2.458,0,0,0,.5.12c.34,0,.52-.34.62-.72a11.373,11.373,0,0,0,.36-2.96c0-.13,0-.7-.02-.74-.05-.1-.15-.1-.24-.1h-1.64Zm.87,2.58a.462.462,0,0,1-.38.51c-.19,0-.22-.1-.32-.62a3.619,3.619,0,0,0-.24-.79c-.06-.12-.06-.14-.06-.17s0-.05.02-.05a1.817,1.817,0,0,1,.63.43.985.985,0,0,1,.35.68Z" fill="#3e3a39"/>
  <path id="パス_955" data-name="パス 955" d="M394.35,2.13a1.54,1.54,0,0,1-.71,1.22c-.06.04-.42.23-.42.28,0,.07.38.2.44.24a1.567,1.567,0,0,1,.81,1.36,1.763,1.763,0,0,1-1.89,1.69c-.8,0-1.57-.45-1.57-1.09a.441.441,0,0,1,.46-.48.38.38,0,0,1,.39.38c0,.06-.07.36-.07.42,0,.3.34.51.72.51a1.38,1.38,0,0,0,1.24-1.42,1.384,1.384,0,0,0-1.25-1.46c-.04,0-.26.03-.31.03a.158.158,0,0,1-.18-.16.171.171,0,0,1,.18-.17c.05,0,.29.04.34.04a1.192,1.192,0,0,0,1.1-1.26,1.1,1.1,0,0,0-1.01-1.21.578.578,0,0,0-.64.51c0,.04.04.25.04.3a.405.405,0,1,1-.81,0c0-.38.47-1.07,1.56-1.07a1.486,1.486,0,0,1,1.58,1.35Z" fill="#3e3a39"/>
  <path id="パス_956" data-name="パス 956" d="M395.92,1.54c-.27,0-.27.07-.28.32,0,.12-.06,1.47-.06,1.48,0,.06.02.12.07.12s.07-.02.31-.17a1.507,1.507,0,0,1,.84-.23,1.736,1.736,0,0,1,1.72,1.82,2.04,2.04,0,0,1-2,2.04,1.417,1.417,0,0,1-1.49-1.14.444.444,0,0,1,.47-.46.378.378,0,0,1,.41.39c0,.06-.06.38-.06.45,0,.34.38.5.66.5.58,0,1.27-.57,1.27-1.69s-.62-1.57-1.13-1.57a1.785,1.785,0,0,0-1.04.46c-.04.03-.19.22-.25.22s-.07-.06-.07-.13c0-.32.1-2.3.11-2.73,0-.1.02-.3.26-.3h2.29c.16,0,.23,0,.23.08a1.958,1.958,0,0,1-.11.41c-.05.12-.13.12-.23.12h-1.91Z" fill="#3e3a39"/>
  <path id="パス_957" data-name="パス 957" d="M400.76,6.92c-1.26,0-1.8-1.59-1.8-3.06s.54-3.07,1.8-3.07c1.29,0,1.8,1.66,1.8,3.07S402.05,6.92,400.76,6.92Zm0-5.87c-1.06,0-1.08,2.4-1.08,2.81,0,.33,0,2.81,1.08,2.8,1.06,0,1.08-2.38,1.08-2.8,0-.34,0-2.81-1.08-2.81Z" fill="#3e3a39"/>
  <path id="パス_958" data-name="パス 958" d="M407.85,6.76c-.14,0-.15-.1-.15-.13,0-.12.1-.13.22-.13.42-.02.42-.23.42-1.31a5.92,5.92,0,0,0-.08-1.48.646.646,0,0,0-.63-.54,1.369,1.369,0,0,0-1.08.67,14.065,14.065,0,0,0-.05,1.5c0,.78,0,.86.08.98a.386.386,0,0,0,.33.18c.23,0,.3,0,.3.13s-.11.13-.18.13h-1.61c-.07,0-.19,0-.19-.13,0-.05.02-.1.06-.11a1.83,1.83,0,0,1,.34-.02c.32-.06.32-.23.32-1.34a4.537,4.537,0,0,0-.1-1.55.628.628,0,0,0-.6-.42,1.446,1.446,0,0,0-.89.4c-.19.19-.21.21-.21,1.58,0,1.11,0,1.34.42,1.35.12,0,.24,0,.24.13s-.11.13-.18.13h-1.51s-.16,0-.16-.13.1-.13.24-.13a.371.371,0,0,0,.35-.23c.05-.17.05-1.33.05-1.6a9.407,9.407,0,0,0-.05-1.23.3.3,0,0,0-.3-.2c-.03,0-.2.02-.24.02-.02,0-.08,0-.08-.06s.02-.07.39-.18c.18-.05.69-.18.75-.2.08,0,.08.04.08.23,0,.21,0,.26.08.26a1.788,1.788,0,0,0,.24-.15,1.755,1.755,0,0,1,1-.34.868.868,0,0,1,.9.52c.02.03.06.11.1.11s.06-.02.18-.13a1.792,1.792,0,0,1,1.21-.5.816.816,0,0,1,.91.62,6.093,6.093,0,0,1,.1,1.83c0,.96,0,1.22.45,1.22.06,0,.18,0,.18.14,0,.08-.07.12-.15.12h-1.5Z" fill="#3e3a39"/>
  <path id="パス_959" data-name="パス 959" d="M417.24.31c-.36.34-6.25,6.24-6.79,6.79a1.992,1.992,0,0,1-.22.2.086.086,0,0,1-.09-.08.1.1,0,0,1,.04-.08c.33-.31,6.26-6.25,6.8-6.79a1.372,1.372,0,0,1,.22-.2.088.088,0,0,1,.09.09.087.087,0,0,1-.05.07Z" fill="#3e3a39"/>
  <path id="パス_960" data-name="パス 960" d="M418.98,3.64s0-.1-.06-.1c-.02,0-.97.66-1.03.66a.02.02,0,0,1-.02-.02s.32-.34.36-.39a12.866,12.866,0,0,0,1.47-1.88c.05-.1.1-.21.13-.21s.67.4.67.6c0,.04-.02.05-.22.11a4.094,4.094,0,0,0-.79.67.058.058,0,0,0,.06.06c.13.03.18.05.18.14a.073.073,0,0,1-.02.06c-.02.03-.14.15-.15.18a9.965,9.965,0,0,0-.05,1.14c0,.3.03,1.8.03,2.13a.46.46,0,0,1-.42.52c-.23,0-.23-.21-.23-.28s.03-.47.04-.54c.04-.6.04-.91.04-1.78V3.62ZM420.53.65c0,.06-.03.07-.26.12a.956.956,0,0,0-.41.2,7.686,7.686,0,0,1-1.58.98,1.022,1.022,0,0,1-.11.05.02.02,0,0,1-.02-.02c0-.02.47-.44.54-.5A6.122,6.122,0,0,0,419.77.2c.06-.1.08-.14.13-.14.1,0,.63.47.63.6Zm1.2,2.39c-.18,0-.73,0-1.01.02-.03,0-.14.02-.18.02-.02,0-.04-.02-.06-.05l-.16-.18a.163.163,0,0,1-.03-.06c0-.02,0-.02.03-.02.06,0,.3.02.35.02.37.02.72.03,1.09.03h.41c.22,0,.24-.04.24-.88,0-.42-.04-.42-.37-.42-.18,0-.73,0-1.01.02-.03,0-.14.02-.17.02s-.05-.02-.07-.05l-.16-.18a.163.163,0,0,1-.03-.06s0-.02.03-.02.42.03.5.03c.58.02.6.02,1.02.02a.2.2,0,0,0,.23-.22c0-.18-.02-.53-.03-.62,0-.05-.06-.25-.06-.29,0-.07.05-.09.1-.09,0,0,.76.11.76.28,0,.04,0,.05-.15.17-.05.04-.06.1-.06.36s0,.4.26.4h.34c.37,0,.41,0,.53-.18.16-.23.18-.26.25-.26.1,0,.63.38.63.52,0,.12-.15.12-.43.12H423.2c-.22,0-.26.06-.26.32,0,.1.02.53.02.62,0,.26,0,.37.26.37h.63c.37,0,.41,0,.5-.16.13-.22.18-.28.26-.28.13,0,.66.39.66.53,0,.12-.14.12-.42.12h-1.87s-.07,0-.07.03.02.04.07.06c.03.02.1.06.1.11a.847.847,0,0,1-.1.19,1.2,1.2,0,0,0-.04.39c0,.7,0,.71.24.71h.62c.37,0,.41,0,.53-.18.15-.23.17-.26.24-.26.1,0,.63.38.63.53,0,.11-.14.11-.43.11h-1.58c-.23,0-.25.1-.25.26V6.01c0,.3.07.39.51.39a6.912,6.912,0,0,0,1.76-.22,3.092,3.092,0,0,0,.3-.08.02.02,0,0,1,.02.02,1,1,0,0,1-.14.16c-.27.3-.29.41-.29.49s0,.14-.09.18a6.872,6.872,0,0,1-.98.07,2.807,2.807,0,0,1-2.75-1.23c-.03-.04-.11-.15-.17-.15s-.09.05-.15.18a3.857,3.857,0,0,1-.76,1.09,2.019,2.019,0,0,1-.4.31V7.2c0-.02.18-.29.21-.34a5.417,5.417,0,0,0,.82-2.81c0-.39,0-.42.09-.42,0,0,.29.07.38.1.26.08.29.09.29.16,0,.05-.13.21-.13.24-.03.1-.09.53-.1.62-.02.06-.11.47-.11.5,0,.3.68.9.98.9.05,0,.13,0,.16-.15,0-.07.03-1.41.03-1.51a7.855,7.855,0,0,0-.07-1.32c-.06-.18-.15-.18-.28-.18h-.32Z" fill="#3e3a39"/>
  <path id="パス_961" data-name="パス 961" d="M428.72,4.25c0,.06-.03.1-.17.12a.631.631,0,0,0-.33.2,5.764,5.764,0,0,1-1.67,1.17c-.06.02-.31.12-.34.12s-.03,0-.03-.02c0-.04.62-.49.69-.56.74-.78.9-.98,1.06-1.49,0-.02.04-.1.09-.1a1.418,1.418,0,0,1,.37.22c.31.22.34.26.34.33Zm.5-1.05c.22,0,.24-.09.24-.26V1.57a5.483,5.483,0,0,0-.05-1.03c0-.06-.1-.34-.1-.38,0-.07.1-.08.14-.08.26,0,.73.17.73.29,0,.03-.14.15-.16.18a2.711,2.711,0,0,0-.03.77c0,.14,0,.28.25.28h.83c.3,0,.36-.02.41-.07s.26-.45.34-.45c.11,0,.67.5.67.63,0,.1-.05.1-.43.1h-1.82c-.25,0-.25.13-.25.25v.86c0,.26.09.26.26.26h1.46a1.845,1.845,0,0,0,.42-.03c.09-.05.38-.5.49-.5a2.006,2.006,0,0,1,.67.62c0,.11-.14.11-.42.11h-2.93s-.06,0-.06.04c0,.02.02.02.18.1.13.06.19.1.21.18,0,.04,0,.06-.11.14-.14.1-.14.48-.14.66,0,.05.02.81.02.9a.737.737,0,0,1-.37.73,1.039,1.039,0,0,1-.47.14.234.234,0,0,1-.11-.02c-.05-.02-.17-.27-.21-.31-.06-.06-.4-.3-.4-.3,0-.02.03-.03.05-.03s.38.02.45.02c.45,0,.49-.09.5-.35v-.8c0-1.02-.03-1.09-.29-1.09h-1.53c-.14,0-.74,0-1.01.02-.02,0-.14.02-.18.02-.02,0-.04-.02-.06-.05l-.16-.18a.163.163,0,0,1-.03-.06c0-.02.02-.02.03-.02.16,0,.94.06,1.13.06s.21-.1.21-.26V1.78a7.312,7.312,0,0,0-.03-.82c0-.03-.06-.22-.06-.26s.02-.05.06-.05c0,0,.82.12.82.26V.97c-.02.02-.15.13-.17.16a7.4,7.4,0,0,0-.05,1.75c0,.24.03.3.24.3h.86Zm2.82,2.29c0,.1-.03.1-.22.14-.14.02-.18.06-.62.41a6.154,6.154,0,0,1-3.98,1.23c-.09,0-.58,0-.58-.06a.949.949,0,0,1,.31-.06,6.792,6.792,0,0,0,3.91-1.52,1.527,1.527,0,0,0,.4-.64c.03-.1.04-.11.1-.11s.08.03.37.26c.26.21.33.27.33.36Zm1.01-.27a.266.266,0,0,1-.3.27c-.22,0-.29-.1-.46-.38a6.351,6.351,0,0,0-1.08-1.13c-.12-.1-.14-.1-.14-.14s.06-.03.08-.03a2.285,2.285,0,0,1,.65.18c.8.34,1.24.89,1.24,1.23Z" fill="#3e3a39"/>
  <path id="パス_962" data-name="パス 962" d="M434.89,1.54c-.27,0-.27.07-.28.32,0,.12-.06,1.47-.06,1.48,0,.06.02.12.07.12s.07-.02.31-.17a1.507,1.507,0,0,1,.84-.23,1.736,1.736,0,0,1,1.72,1.82,2.04,2.04,0,0,1-2,2.04,1.429,1.429,0,0,1-1.5-1.14.444.444,0,0,1,.47-.46.378.378,0,0,1,.41.39c0,.06-.06.38-.06.45,0,.34.38.5.66.5.58,0,1.27-.57,1.27-1.69s-.62-1.57-1.13-1.57a1.785,1.785,0,0,0-1.04.46c-.04.03-.19.22-.25.22s-.07-.06-.07-.13c0-.32.1-2.3.11-2.73,0-.1.02-.3.26-.3h2.29c.16,0,.23,0,.23.08a1.958,1.958,0,0,1-.11.41c-.05.12-.13.12-.23.12h-1.91Z" fill="#3e3a39"/>
  <path id="パス_963" data-name="パス 963" d="M441.06,1.14c0,.08-.06.1-.22.14-.08.02-.22.26-.4.54a5.176,5.176,0,0,1-2.37,2.21.047.047,0,0,1-.05-.05c0-.05.02-.06.17-.18a6.887,6.887,0,0,0,1.8-2.41c.06-.12.26-.8.27-.8.06-.02.81.41.81.54Zm.78,2.33c-.21,0-.21.02-.26.44a3.343,3.343,0,0,1-1.62,2.86,5.1,5.1,0,0,1-1.53.52c-.02,0-.1,0-.1-.06,0-.04.04-.06.18-.1a4.71,4.71,0,0,0,1.58-.97,3.889,3.889,0,0,0,.9-2.52c0-.18-.08-.18-.2-.18h-.24c-.3,0-.68,0-.82.02-.03,0-.14.02-.17.02s-.05-.02-.07-.06l-.16-.18a.219.219,0,0,1-.03-.05c0-.02,0-.02.03-.02.06,0,.3.03.35.03.39.02.72.02,1.1.02h1.75c.36,0,.4-.02.53-.15s.19-.18.25-.18c.13,0,.59.37.59.54,0,.04-.13.18-.14.22-.04.08-.09.99-.1,1.17a5.175,5.175,0,0,1-.38,1.98,1.22,1.22,0,0,1-.81.48c-.09,0-.09-.02-.15-.25-.05-.18-.32-.29-.74-.41-.18-.05-.26-.08-.26-.13s.07-.05.09-.05a2.439,2.439,0,0,1,.31.06,3.437,3.437,0,0,0,.57.06c.38,0,.6-.07.71-.9.08-.62.16-1.54.16-1.95,0-.22-.02-.29-.24-.29h-1.08Zm.4-2.58c-.2,0-.47,0-.64.02-.02,0-.14.02-.16.02s-.03,0-.06-.05L441.23.7a.2.2,0,0,1-.02-.06.02.02,0,0,1,.02-.02c.05,0,.28.03.33.03.09,0,.42.02.48.02a.433.433,0,0,0,.34-.21c.16-.22.18-.25.24-.25.1,0,.7.4.7.58,0,.08-.02.09-.24.14a.179.179,0,0,0-.16.17,2.961,2.961,0,0,0,2.41,1.82c.02,0,.12.02.12.06s-.21.09-.24.1a1.652,1.652,0,0,0-.49.37c-.02.02-.1.12-.13.12a4,4,0,0,1-1.91-2.31c-.09-.34-.1-.38-.29-.38h-.14Z" fill="#3e3a39"/>
  <line id="線_48" data-name="線 48" x2="211.7" transform="translate(234.02 12.49)" fill="none" stroke="#231815" stroke-miterlimit="10" stroke-width="0.3"/>
  <path id="パス_964" data-name="パス 964" d="M239.38,6.64c.38,0,.44-.02.5-.07.07-.07.36-.49.46-.49a2.6,2.6,0,0,1,.8.67c0,.1-.15.1-.42.1h-5.51c-.18,0-.73,0-1.02.02-.02,0-.14.02-.17.02s-.04-.02-.07-.06l-.15-.18a.219.219,0,0,1-.03-.05c0-.02,0-.02.02-.02.06,0,.3.02.36.03.36.02.72.02,1.1.02h4.13Zm-.7-5.86c.38,0,.42,0,.5-.07s.36-.46.46-.46a2.377,2.377,0,0,1,.79.65c0,.11-.15.1-.41.1H235.9c-.18,0-.73,0-1.01.02-.02,0-.14.02-.17.02s-.05-.02-.07-.06L234.5.8s-.04-.04-.04-.06.02-.02.03-.02c.06,0,.3.02.35.03.37.02.73.02,1.1.02h2.74Zm-.44,2.88c.35,0,.38,0,.46-.06.06-.06.33-.42.42-.42.06,0,.77.46.77.6,0,.1-.04.1-.4.1h-3c-.18,0-.73,0-1.01.02-.03,0-.14.02-.17.02s-.05-.02-.07-.05l-.16-.18a.163.163,0,0,1-.03-.06s0-.02.03-.02c.06,0,.3.02.35.02.37.02.72.03,1.1.03h1.72Z" fill="#3e3a39"/>
  <path id="パス_965" data-name="パス 965" d="M244.4,3.37s-.04,0-.04.03.15.12.2.14.21.11.21.2-.11.14-.24.14a.172.172,0,0,0-.15.07,4.32,4.32,0,0,1-2.08,1.34c-.04,0-.25.06-.32.06-.04,0,.02-.03.06-.06a5.868,5.868,0,0,0,1.04-.66,2.594,2.594,0,0,0,.92-1.2c0-.08-.09-.08-.13-.08h-.54c-.7,0-.93.02-1.01.02-.03,0-.14.02-.17.02s-.05-.02-.07-.06l-.16-.18a.333.333,0,0,1-.03-.06c0-.02.02-.02.03-.02.06,0,.3.02.35.02.39.02.72.03,1.1.03h1.55c.22,0,.24-.1.24-.31,0-.26-.02-.34-.23-.34h-.74c-.7,0-.93.02-1.01.02-.02,0-.14.02-.17.02s-.05-.02-.07-.05l-.15-.18s-.04-.04-.04-.06c0,0,.02-.02.03-.02.06,0,.3.02.35.02.39.02.72.03,1.1.03h.7c.19,0,.24-.09.24-.26a.783.783,0,0,0-.05-.34.811.811,0,0,1-.1-.18c0-.04.02-.09.1-.09s.7.16.78.18a.153.153,0,0,1,.11.12c0,.04-.02.08-.11.14a.268.268,0,0,0-.14.23c0,.18.14.18.23.18h.6c.39,0,.44,0,.54-.07.06-.04.26-.33.32-.33s.61.36.61.5c0,.1-.17.1-.43.1h-1.64c-.22,0-.24.11-.24.37,0,.19.04.28.24.28h1.47c.39,0,.44,0,.67-.23.03-.03.21-.21.25-.21s.72.43.72.54-.16.11-.42.11h-2c-.1,0-.25,0-.25.21,0,.43.05.47.17.53a6.053,6.053,0,0,0,.88.05c.49,0,.69,0,.84-.38.02-.06.04-.34.09-.34.03,0,.03.02.05.24a.823.823,0,0,0,.13.43c.12.12.14.13.14.2,0,.4-.64.4-1.1.4-1.68,0-1.68-.13-1.7-.85-.02-.43-.02-.49-.24-.49h-1.26Zm1.9,1.73a.442.442,0,0,0,.33-.1c.09-.09.1-.1.15-.1a4.163,4.163,0,0,1,.4.22c.22.12.25.14.25.22a.122.122,0,0,1-.06.1,1.349,1.349,0,0,0-.18.03,6.423,6.423,0,0,0-.63.51c-.14.12-.22.18-.22.23,0,.07.09.1.12.1a7.252,7.252,0,0,0,2.12.27c.06,0,.38-.02.39-.02s.04,0,.04.02-.13.06-.15.08a1.762,1.762,0,0,0-.49.52c-.06.13-.06.14-.14.14A8.214,8.214,0,0,1,246,6.65a.552.552,0,0,0-.24-.09,8.5,8.5,0,0,0-.82.34,7.837,7.837,0,0,1-2.55.38s-.05,0-.05-.02.02-.02.1-.04.5-.1.58-.12a4.871,4.871,0,0,0,2.25-.9c0-.06-.05-.1-.09-.15a2.805,2.805,0,0,1-.42-.58c-.04-.07-.07-.12-.13-.12-.03,0-.07.02-.18.1a4.659,4.659,0,0,1-1.17.68,6.151,6.151,0,0,1-1.39.39.02.02,0,0,1-.02-.02c0-.02.12-.06.13-.06a5.231,5.231,0,0,0,2.64-2.06c.05-.13.06-.15.1-.15a4.923,4.923,0,0,1,.62.23c.1.04.12.07.12.11,0,.08-.03.09-.26.19a1.063,1.063,0,0,0-.26.3c0,.05.04.05.15.05h1.17ZM247.37.91c.36,0,.41,0,.46-.06.07-.06.39-.44.46-.44.05,0,.67.49.67.59s-.15.11-.42.11h-1.48c-.11,0-.27,0-.27.24,0,.05.02.24.02.28,0,.27-.28.3-.38.3-.16,0-.22-.07-.22-.28,0-.05.02-.26.02-.3,0-.23-.17-.23-.26-.23h-1.02c-.23,0-.29.08-.29.28,0,.04.02.24.02.28a.312.312,0,0,1-.32.3c-.2,0-.24-.11-.24-.32,0-.49,0-.54-.23-.54h-.5c-.7,0-.93.02-1.01.02-.03,0-.14.02-.17.02s-.05-.02-.07-.05l-.15-.18s-.04-.04-.04-.06c0,0,.02-.02.03-.02.06,0,.3.02.35.02.39.02.72.03,1.1.03h.46c.09,0,.24,0,.24-.22,0-.09-.09-.53-.09-.54,0-.09.1-.09.14-.09.06,0,.71.12.71.26,0,.05-.17.2-.19.24a.237.237,0,0,0-.03.12c0,.2.12.22.27.22h1.03c.1,0,.26,0,.26-.22a.974.974,0,0,0-.05-.33.518.518,0,0,1-.06-.21c0-.05.02-.07.1-.07.04,0,.78.1.78.27,0,.06-.02.07-.16.18a.2.2,0,0,0-.06.16c0,.22.17.22.28.22h.31Zm-2.23,4.4c-.09,0-.14,0-.14.06a.643.643,0,0,0,1.28.02c0-.07-.1-.07-.15-.08Z" fill="#3e3a39"/>
  <path id="パス_966" data-name="パス 966" d="M255.11.94c.1,0,.22,0,.22.14s-.11.13-.25.13c-.57,0-.61.46-.62.7V4.74a2.19,2.19,0,0,1-.51,1.68,2.056,2.056,0,0,1-3.38-1.27V2.04c0-.62-.04-.84-.74-.84-.05,0-.18,0-.18-.13s.12-.14.24-.14h1.96c.1,0,.22,0,.22.14s-.1.13-.26.13a.52.52,0,0,0-.58.36c-.04.12-.04,1.64-.04,1.92,0,1.76,0,1.89.14,2.27a1.405,1.405,0,0,0,1.37.86,1.434,1.434,0,0,0,1.25-.62c.27-.4.27-.74.27-2.59s-.02-1.81-.11-1.96a.618.618,0,0,0-.57-.24c-.09,0-.16-.04-.16-.13,0-.14.12-.14.19-.14h1.54Z" fill="#3e3a39"/>
  <path id="パス_967" data-name="パス 967" d="M258.49,3.61c.55,0,.78-.2.78-.77,0-.14,0-.24.13-.24a.129.129,0,0,1,.13.15V4.83c0,.06,0,.18-.13.18s-.13-.12-.13-.2c0-.41,0-.94-.78-.94h-.95a.2.2,0,0,0-.18.11c-.03.06-.03,1.3-.03,1.48,0,.76,0,1.05.66,1.05.22,0,.3,0,.3.13s-.11.13-.22.13h-2.06c-.13,0-.25,0-.25-.13s.13-.13.21-.13c.29,0,.63,0,.71-.42.02-.13.02-.14.02-2.26,0-.38,0-2.08-.02-2.22a.54.54,0,0,0-.62-.41c-.22,0-.3,0-.3-.13s.11-.14.25-.14h3.85c.45,0,.53.02.68.46.04.11.3.86.3.91a.141.141,0,0,1-.14.14c-.05,0-.06,0-.25-.29a1.945,1.945,0,0,0-1.65-.96h-.89c-.58,0-.58.36-.58,1.02V3.43a.2.2,0,0,0,.21.18h.95Z" fill="#3e3a39"/>
  <path id="パス_968" data-name="パス 968" d="M264.04.94c.08,0,.2,0,.2.14s-.11.13-.24.13c-.1,0-.53,0-.59.42-.02.14-.02,2.58-.02,3.03,0,.2.02,1.18.02,1.4a2.051,2.051,0,0,1-.49,1.59,1.506,1.506,0,0,1-1.07.44c-.43,0-.78-.19-.78-.58a.429.429,0,0,1,.47-.46c.3,0,.34.13.46.43a.272.272,0,0,0,.29.19c.37,0,.42-.29.46-.48.03-.24.03-4.13.03-4.74,0-1.13,0-1.24-.84-1.24-.03,0-.16,0-.16-.13s.12-.14.2-.14h2.07Z" fill="#3e3a39"/>
  <path id="パス_969" data-name="パス 969" d="M265.21,3.64a.219.219,0,0,1-.03-.05c0-.02,0-.02.02-.02.18,0,.92.06,1.07.06.22,0,.22-.14.22-.39,0-.3,0-.43-.18-.43-.05,0-.29.02-.33.02-.02,0-.13-.11-.15-.11-.06,0-.12.08-.18.16-.11.15-.73.94-.87.94-.02,0-.02-.03-.02-.04,0-.05.58-1.03.69-1.23A7.592,7.592,0,0,0,266.3.31c0-.24,0-.26.09-.26.16,0,.74.3.74.43,0,.03-.14.14-.14.17,0,.05.03.06.25.11.3.08.98.25.98.72a.341.341,0,0,1-.27.34c-.12,0-.26-.19-.3-.23-.07-.1-.54-.73-.74-.73-.07,0-.11.07-.14.13a12.652,12.652,0,0,1-.7,1.27.58.58,0,0,0-.09.21c0,.1.18.09.38.1.06,0,.59.02.7.02.17,0,.21-.03.26-.13.11-.19.13-.21.19-.21a1.516,1.516,0,0,1,.54.43c0,.11-.17.11-.43.11h-.34c-.24,0-.25.08-.25.5,0,.27.02.34.24.34.27,0,.31-.03.41-.16.16-.21.18-.23.22-.23.07,0,.46.38.46.49s-.17.11-.43.11h-.63c-.09,0-.23,0-.26.14-.02.1-.02,1.09-.02,1.31,0,.94.02.94.19.94.07,0,.96-.14,1.08-.14,0,0,.06,0,.06.02,0,.06-.2.13-.35.18-.53.19-1.15.42-2.06.7a1,1,0,0,0-.34.15,1.574,1.574,0,0,1-.19.12c-.06,0-.08-.04-.24-.38a3.9,3.9,0,0,1-.16-.38c0-.05.02-.1.08-.1s.26.04.3.04a7.512,7.512,0,0,0,1.05-.12.227.227,0,0,0,.1-.21V4.74a5.368,5.368,0,0,0-.04-.84.226.226,0,0,0-.21-.08c-.16,0-.58,0-.7.02-.02,0-.1.02-.12.02s-.04-.02-.07-.06l-.15-.18Zm.58,2.25c-.18,0-.19-.06-.25-.49a2.216,2.216,0,0,0-.3-.86s-.1-.19-.1-.2,0-.02.02-.02c.09,0,.98.51.98,1.14,0,.18-.12.43-.36.43Zm2.51-1.37a.256.256,0,0,1,.06.12c0,.06-.05.09-.1.11-.16.08-.21.13-.57.54a3.7,3.7,0,0,1-.59.54.02.02,0,0,1-.02-.02c0-.02.39-.78.45-.93a2.778,2.778,0,0,0,.14-.55c.02-.17.02-.21.09-.21s.23.14.31.21c.03.03.2.17.23.19ZM270.46.51c.17,0,.23,0,.32-.07s.17-.18.22-.18.26.18.3.2c.23.14.33.22.33.3,0,.05-.17.21-.2.24-.06.09-.06.18-.06.45s.06,1.51.06,1.7,0,.5-.4.5c-.18,0-.19-.06-.22-.19-.03-.15-.16-.15-.23-.15h-.36c-.1,0-.24,0-.24.18,0,.27.46,1.4.67,1.4s.58-.58.64-.73c.02-.06.1-.34.15-.34a3.421,3.421,0,0,1,.31.21c.34.22.38.25.38.34s-.06.12-.35.2c-.06.02-.5.26-.74.41-.2.12-.22.13-.22.22,0,.22.75.91,1.37,1.13.17.06.24.09.24.13,0,.06-.32.14-.37.17a.684.684,0,0,0-.29.26c-.02.04-.06.1-.09.1a3.508,3.508,0,0,1-.89-.85c-.12-.16-.17-.22-.26-.22-.14,0-1.88,1.02-2.22,1.2-.06.03-.12.06-.13.11-.03.14-.04.18-.12.18-.19,0-.56-.66-.56-.72s.1-.07.3-.09a1.918,1.918,0,0,0,.64-.15c.1-.05.12-.14.12-.49,0-1.26-.02-3.93-.06-5,0-.09-.06-.5-.06-.58s.04-.12.1-.12c.04,0,.33.14.43.18a.844.844,0,0,0,.42.08h1.08Zm.14,1.26c.25,0,.25-.07.25-.38,0-.65,0-.68-.26-.68h-1.3c-.25,0-.25.08-.25.38,0,.51,0,.58.06.62a.262.262,0,0,0,.19.05h1.31Zm-1.31.22c-.25,0-.25.07-.25.38,0,.54,0,.59.06.65a.241.241,0,0,0,.19.06h1.31c.11,0,.2,0,.23-.1a6.124,6.124,0,0,0,.02-.63c0-.27,0-.35-.25-.35h-1.32Zm0,1.3c-.25,0-.25.13-.25.29V5.85c0,.23,0,.35.15.35.04,0,.63-.18.7-.21.48-.16.56-.18.56-.29a.652.652,0,0,0-.08-.22,4.8,4.8,0,0,1-.59-1.84c-.03-.32-.03-.35-.22-.35h-.27Z" fill="#3e3a39"/>
  <path id="パス_970" data-name="パス 970" d="M275.42,2.43a2.111,2.111,0,0,0-.53.65c0,.03.02.06.1.11.06.04.09.07.09.11s-.09.14-.1.17a.715.715,0,0,0-.02.21c0,.31-.03,1.71-.03,2V6.82c0,.09,0,.5-.42.5-.12,0-.25-.03-.25-.19,0-.06.05-.5.06-.58.02-.3.08-2.01.08-2.4s0-.43-.06-.43a1.167,1.167,0,0,0-.24.21,7.566,7.566,0,0,1-1.18,1c-.02,0-.05,0-.05-.03a1.935,1.935,0,0,1,.27-.38,19.888,19.888,0,0,0,1.61-2.21,2.971,2.971,0,0,0,.23-.46c.02-.04.04-.09.1-.09.04,0,.66.35.62.5-.02.06-.04.07-.27.16Zm0-1.87c0,.08-.09.1-.15.11-.14.02-.17.06-.46.34a7.889,7.889,0,0,1-1.63,1.23c-.05,0-.06-.03-.06-.05a5.47,5.47,0,0,1,.54-.58,7.916,7.916,0,0,0,.98-1.33c.1-.18.1-.19.17-.19a.172.172,0,0,1,.1.03c.12.08.53.35.53.45Zm1.66,2.34c-.7,0-.94.02-1.02.02-.02,0-.14.02-.17.02s-.04-.02-.07-.05l-.15-.18a.163.163,0,0,1-.03-.06c0-.02,0-.02.02-.02.06,0,.3.02.35.02.44.02.74.03,1.14.03h1.7a.293.293,0,0,0,.3-.14c.22-.29.24-.32.33-.32a1.87,1.87,0,0,1,.7.56c0,.09-.12.1-.3.1h-1.02c-.24,0-.25.14-.25.27V5.88c0,.7,0,1.14-.36,1.3a1.3,1.3,0,0,1-.49.13c-.1,0-.11-.05-.13-.13-.06-.35-.58-.5-.74-.54-.06-.02-.11-.06-.11-.09s.05-.03.06-.03a1.9,1.9,0,0,1,.25.03c.15.02.49.03.54.03.23,0,.31-.06.35-.26.02-.13.05-1.71.05-1.77,0-.22-.02-1.29-.02-1.37,0-.19-.02-.32-.24-.32h-.7ZM278.16.73a.287.287,0,0,0,.3-.14c.22-.26.25-.3.32-.3.09,0,.7.42.7.54,0,.08-.13.1-.26.1h-1.64c-.7,0-.93.02-1.01.02-.02,0-.14.02-.17.02s-.05-.02-.07-.05l-.15-.18s-.04-.04-.04-.06.02-.02.03-.02c.06,0,.3.02.35.02.39.02.85.03,1.1.03h.54Z" fill="#3e3a39"/>
  <path id="パス_971" data-name="パス 971" d="M282.17,2.91c-.19,0-.23.06-.23.24V6.62c0,.2,0,.67-.37.67-.26,0-.26-.26-.26-.36a2.823,2.823,0,0,1,.02-.39c0-.06.04-1.97.04-2.18,0-.89,0-2.81-.07-3.56,0-.06-.06-.34-.06-.39s.06-.06.1-.06a1.429,1.429,0,0,1,.47.15.813.813,0,0,0,.39.09h.96a.455.455,0,0,0,.31-.08c.03-.03.2-.23.26-.23.04,0,.63.41.63.51,0,.06-.02.07-.2.2a.3.3,0,0,0-.1.28c0,.22.02,1.32.02,1.57,0,.19,0,.47-.36.47-.19,0-.2-.07-.22-.24-.02-.13-.14-.15-.24-.15h-1.11ZM282.15.8c-.24,0-.24.11-.24.48,0,.18,0,.31.24.31h1.12c.24,0,.24-.14.24-.31,0-.37,0-.48-.25-.48Zm1.14,1.9c.24,0,.24-.11.24-.47,0-.31,0-.42-.24-.42h-1.13c-.24,0-.24.14-.24.3,0,.54,0,.6.25.6h1.12Zm2.56.18c-.1,0-.21,0-.23.17a.411.411,0,0,1-.41.32.187.187,0,0,1-.2-.2c0-.09.03-.53.03-.62,0-.34-.03-1.25-.03-1.31,0-.12-.05-.66-.05-.73s.02-.18.12-.18a1.487,1.487,0,0,1,.42.18,1.084,1.084,0,0,0,.5.09h.92a.521.521,0,0,0,.3-.07c.03-.02.19-.2.25-.2a2.954,2.954,0,0,1,.32.19c.24.17.26.18.26.27,0,.06-.02.08-.17.2-.08.06-.08.23-.08.29,0,.72.04,4.25.04,5.05a.838.838,0,0,1-.27.74,1.063,1.063,0,0,1-.54.25.173.173,0,0,1-.15-.1,1.447,1.447,0,0,0-.36-.46c-.03-.02-.24-.11-.24-.16,0-.02.05-.05.14-.05.07,0,.41.02.48.02.14,0,.34-.02.37-.19.02-.09.02-1,.02-1.16,0-.18,0-2.05-.02-2.18-.03-.15-.17-.15-.25-.15h-1.18ZM285.83.81c-.26,0-.26.11-.26.38,0,.29,0,.39.26.39H287c.25,0,.25-.11.25-.38,0-.29,0-.39-.25-.39Zm1.18,1.86c.25,0,.25-.07.25-.47,0-.32,0-.4-.25-.4h-1.17c-.23,0-.25.1-.25.27,0,.54,0,.6.26.6h1.17Z" fill="#3e3a39"/>
  <path id="パス_972" data-name="パス 972" d="M292.19,6.2c0,.06-.31.11-.36.14-.78.36-1,.46-1.21.54a6.722,6.722,0,0,1-1.7.41c-.02,0-.06,0-.06-.02s.15-.09.29-.14a6.273,6.273,0,0,0,2.24-1.3c.14-.17.15-.18.21-.18a.222.222,0,0,1,.11.05c.11.09.47.39.47.51Zm2.62-.92c.34,0,.42,0,.51-.14.18-.28.21-.31.3-.31.12,0,.63.38.63.55,0,.1-.17.1-.43.1h-5.45c-.45,0-.77,0-1.02.02-.02,0-.14.02-.17.02s-.04-.02-.07-.05l-.15-.18a.163.163,0,0,1-.03-.06c0-.02,0-.02.02-.02.06,0,.3.02.35.02.39.02.72.03,1.1.03h4.41Zm-2.74-3.47c.24,0,.24-.1.24-.44a.2.2,0,0,0-.23-.22h-1.15c-.7,0-.94.02-1.01.02-.02,0-.14.02-.17.02s-.04-.02-.07-.05l-.15-.18A.163.163,0,0,1,289.5.9c0-.02,0-.02.02-.02.06,0,.3.02.35.02.39.02.73.03,1.1.03h1.1c.08,0,.24,0,.24-.2a1.584,1.584,0,0,0-.05-.38c0-.04-.1-.21-.1-.25s.07-.03.12-.03c.02,0,.67.11.7.12a.12.12,0,0,1,.1.12c0,.06,0,.06-.12.18a.567.567,0,0,0-.09.26.193.193,0,0,0,.21.18h1.04c.34,0,.42,0,.51-.14.22-.33.24-.36.33-.36.11,0,.74.44.74.59,0,.11-.17.11-.42.11h-2.19c-.16,0-.24.05-.24.21,0,.38,0,.46.26.46h.66a.39.39,0,0,0,.34-.15c.08-.1.1-.13.15-.13.09,0,.62.29.62.41,0,.06-.18.22-.2.26a.539.539,0,0,0-.06.3c0,.32.06,1.73.06,2.01,0,.1,0,.5-.42.5-.21,0-.22-.09-.25-.25a.2.2,0,0,0-.21-.12h-2.41a.268.268,0,0,0-.29.18.478.478,0,0,1-.38.23c-.18,0-.23-.12-.23-.25a1.68,1.68,0,0,1,.02-.29c.03-.34.04-.74.04-1.1a13.219,13.219,0,0,0-.06-1.56c0-.05-.06-.24-.06-.28s.06-.06.08-.06c.1,0,.16.03.4.17a1.064,1.064,0,0,0,.57.13h.59Zm-.74.21c-.07,0-.25,0-.25.21,0,.38,0,.47.25.47h2.48c.08,0,.25,0,.25-.21,0-.38,0-.47-.25-.47Zm0,.9c-.08,0-.25,0-.25.21,0,.34,0,.43.25.43h2.47c.08,0,.25,0,.25-.21,0-.34,0-.43-.25-.43Zm-.02.86a.2.2,0,0,0-.22.2c0,.36,0,.46.22.46h2.52c.22,0,.22-.15.22-.34s0-.33-.22-.33h-2.52Zm2.42,2.06c1.33.53,1.84.74,1.84,1.25a.274.274,0,0,1-.27.31c-.13,0-.2-.06-.8-.64-.19-.18-1.48-1.07-1.45-1.14a3.63,3.63,0,0,1,.68.21Z" fill="#3e3a39"/>
  <path id="パス_973" data-name="パス 973" d="M297.69,3.24a.163.163,0,0,1-.03-.06c0-.02,0-.02.02-.02.04,0,.21.02.25.02.72.03.8.04,1.07.04h1.01c.08,0,.18,0,.22-.09.03-.05.03-.97.03-1.13,0-.19-.03-.26-.23-.26h-1.61c-.7,0-.94.02-1.01.02-.03,0-.14.02-.17.02s-.05-.02-.07-.06l-.16-.18a.219.219,0,0,1-.03-.05c0-.02,0-.02.03-.02.06,0,.3.02.35.02.39.02.72.02,1.1.02h1.55c.11,0,.23,0,.23-.19s-.04-.88-.06-1.06V.17c0-.02.02-.05.04-.05a7.12,7.12,0,0,1,.75.18.106.106,0,0,1,.1.12c0,.04-.06.1-.11.15-.08.08-.13.25-.13.75,0,.19.13.19.25.19h1.48c.36,0,.4,0,.51-.13.22-.27.25-.3.32-.3s.75.42.75.53-.09.11-.41.11h-2.68c-.11,0-.18,0-.22.08a5.706,5.706,0,0,0-.03.74c0,.63.03.66.24.66h.68a.532.532,0,0,0,.43-.17c.19-.22.21-.24.26-.24a3.1,3.1,0,0,1,.7.48.176.176,0,0,1,.07.12c0,.07-.03.08-.31.14-.14.03-.16.06-.45.4a12.364,12.364,0,0,1-1.18,1.3c-.1.09-.21.19-.21.24,0,.12.18.21.5.37a6.917,6.917,0,0,0,2.24.65c.26,0,.29,0,.29.03,0,.06-.44.24-.51.31-.04.04-.22.26-.26.3a.149.149,0,0,1-.09.04,9.383,9.383,0,0,1-2.34-1.11.89.89,0,0,0-.35-.18c-.08,0-.11.02-.41.21a8.06,8.06,0,0,1-2.89,1.15c-.09,0-.11-.05-.11-.06s.06-.03.16-.06a10.215,10.215,0,0,0,2.44-1.3c.22-.16.35-.26.35-.37,0-.06-.03-.1-.28-.42a5.48,5.48,0,0,1-.72-1.38c-.09-.24-.22-.24-.42-.24-.11,0-.62.04-.73.04-.02,0-.04-.02-.07-.05l-.15-.18Zm1.72.19c-.07,0-.2,0-.2.14,0,.24.96,1.55,1.29,1.55.28,0,1.39-1.38,1.39-1.57,0-.12-.08-.12-.29-.12h-2.2Z" fill="#3e3a39"/>
  <path id="パス_974" data-name="パス 974" d="M308.14,1.24c.09,0,.25,0,.25-.21,0-.03-.02-.29-.05-.5,0-.06-.09-.3-.09-.34s.05-.07.1-.07c.1,0,.78.04.78.2,0,.03-.11.15-.13.18-.04.06-.04.14-.04.32,0,.32,0,.41.24.41h1.39c.38,0,.42,0,.51-.14.19-.26.22-.3.29-.3a1.773,1.773,0,0,1,.7.54c0,.11-.04.11-.42.11h-5.18c-.25,0-.25.13-.25.45,0,.23.02,1.25.02,1.46a5.435,5.435,0,0,1-.81,3.09c-.08.12-.37.57-.46.57-.02,0-.02-.03-.02-.05s.34-.86.38-.98a8.341,8.341,0,0,0,.35-2.81,16.735,16.735,0,0,0-.11-1.85c0-.05-.07-.26-.07-.3a.066.066,0,0,1,.06-.07c.04,0,.5.18.6.22a1.149,1.149,0,0,0,.41.06h1.55Zm0,3.45c.24,0,.24-.14.24-.37,0-.17.02-.92.02-1.07a10.533,10.533,0,0,0-.06-1.21c0-.03-.04-.18-.04-.22a.089.089,0,0,1,.09-.09c.02,0,.76.12.76.26,0,.04-.14.18-.15.22a1.944,1.944,0,0,0-.06.6c0,.1,0,.26.23.26h.96c.34,0,.38,0,.49-.15.21-.3.22-.33.31-.33.14,0,.7.41.7.54s-.17.14-.42.14h-2.03a.208.208,0,0,0-.22.12,4.745,4.745,0,0,0-.02,1.02c0,.16,0,.29.24.29h1.06a.388.388,0,0,0,.24-.06c.04-.03.22-.21.26-.21.1,0,.62.3.62.42,0,.06-.19.21-.22.24-.05.05-.05.07-.05.25,0,.23.06,1.41.06,1.48,0,.15,0,.44-.41.44-.21,0-.21-.08-.22-.27,0-.16-.12-.19-.22-.19h-2.77c-.1,0-.19.02-.22.15a.435.435,0,0,1-.45.39c-.21,0-.22-.11-.22-.22,0-.24.04-1.3.04-1.53,0-.37-.02-.64-.02-.81,0-.06-.05-.34-.05-.39,0-.02.03-.04.06-.04.09,0,.16.03.58.26a.787.787,0,0,0,.37.1h.54Zm-.66.22c-.12,0-.21.03-.23.15V6.2c0,.26.02.38.26.38h2.79c.1,0,.21-.04.22-.16V5.26c0-.23,0-.35-.23-.35h-2.8Z" fill="#3e3a39"/>
  <path id="パス_975" data-name="パス 975" d="M313.64,3.73a.527.527,0,0,1,.53-.53.521.521,0,0,1,.53.53.53.53,0,1,1-1.06,0Z" fill="#3e3a39"/>
  <path id="パス_976" data-name="パス 976" d="M317.6,2.85c-.7,0-.93.02-1.01.02-.03,0-.14.02-.17.02s-.05-.02-.07-.05l-.15-.18s-.04-.04-.04-.06.02-.02.03-.02c.06,0,.3.02.35.02.39.02.72.03,1.1.03h1.38c.25,0,.27,0,.27-1.13a10.564,10.564,0,0,0-.05-1.1c0-.05-.03-.23-.03-.27s0-.06.05-.06a6.742,6.742,0,0,1,.83.18c.1.02.18.06.18.14,0,.06-.04.11-.13.18-.15.13-.15.17-.17.54,0,.21-.06,1.13-.06,1.33s.14.18.27.18h1.38c.37,0,.41,0,.51-.14.26-.33.29-.36.38-.36a2.022,2.022,0,0,1,.82.59c0,.11-.16.11-.42.11H320.3c-.18,0-.23,0-.23.13a5.694,5.694,0,0,0,3.3,3.75q.22.09.22.12c0,.06-.04.06-.16.07a2.109,2.109,0,0,0-.72.15,1.653,1.653,0,0,1-.26.14,4.177,4.177,0,0,1-1.28-1.25,8.06,8.06,0,0,1-1.25-2.71c0-.05-.04-.16-.06-.16s-.02.02-.06.19a4.764,4.764,0,0,1-2.52,3.71,3.349,3.349,0,0,1-1.19.43c-.02,0-.05,0-.05-.03s.18-.12.26-.16a5.234,5.234,0,0,0,2.78-3.41,5.551,5.551,0,0,0,.13-.81c0-.18-.09-.18-.22-.18h-1.4Z" fill="#3e3a39"/>
  <path id="パス_977" data-name="パス 977" d="M326.65,2.61c-.28,0-.28.06-.28.54,0,.21.06.25.14.26.29.07,1.23.3,1.23.93,0,.18-.11.46-.31.46-.12,0-.14-.04-.29-.42a1.447,1.447,0,0,0-.7-.79c-.09,0-.09.02-.09.44s.05,2.37.05,2.78c0,.11,0,.53-.43.53-.16,0-.16-.11-.16-.23,0-.1.02-.63.02-.74.02-.63.04-1.84.04-2.43,0-.03,0-.14-.08-.14-.04,0-.06.04-.26.34a5.94,5.94,0,0,1-1.4,1.52c-.02,0-.03-.02-.03-.04s.45-.61.5-.69a7.963,7.963,0,0,0,1.07-2.18c0-.12-.04-.13-.38-.13-.07,0-.54,0-.76.02-.02,0-.14.02-.17.02s-.04-.02-.07-.06l-.15-.18a.163.163,0,0,1-.03-.06.02.02,0,0,1,.02-.02c.06,0,.3.02.36.03.3,0,.66.02.96.02h.18c.08,0,.22,0,.25-.14V1.52c0-.25-.03-.37-.25-.37-.03,0-.79.07-.94.07-.06,0-.26,0-.26-.04s.06-.05.09-.06a6.8,6.8,0,0,0,1.96-.69,4.333,4.333,0,0,1,.44-.3,2.739,2.739,0,0,1,.7.6c0,.05-.04.07-.1.07-.04,0-.18-.02-.22-.02a4.139,4.139,0,0,0-.82.24c-.12.09-.12.44-.12.69,0,.6,0,.66.24.66a.655.655,0,0,0,.54-.25c.11-.14.18-.22.22-.22s.69.44.69.58c0,.1-.17.1-.43.1h-.99Zm3.5-1.58a.286.286,0,0,0,.26-.1c.14-.18.16-.19.2-.19a3.508,3.508,0,0,1,.52.36.193.193,0,0,1,.06.12c0,.06-.06.1-.11.12-.18.09-.18.14-.18.62,0,1.51,0,1.73.06,3.65,0,.08.02.46.02.55a.322.322,0,0,1-.12.3.837.837,0,0,1-.37.14c-.14,0-.14-.14-.14-.26,0-.17-.1-.17-.22-.17h-1.07c-.23,0-.24.07-.24.3a.424.424,0,0,1-.45.39c-.19,0-.19-.16-.19-.22s.03-.42.03-.5c.02-.38.03-2.35.03-2.58,0-.46,0-1.42-.06-2.46,0-.04-.04-.25-.04-.29,0-.06.04-.07.1-.07a1.114,1.114,0,0,1,.35.14.765.765,0,0,0,.5.14h1.08Zm-.03,4.93c.23,0,.23-.13.23-.3V1.42c0-.16-.13-.19-.23-.19h-1.09a.2.2,0,0,0-.22.12c-.02.06-.02,2.37-.02,2.73,0,.84.02,1.68.02,1.72.02.15.16.15.23.15h1.08Z" fill="#3e3a39"/>
  <path id="パス_978" data-name="パス 978" d="M333.53,6.41c-.1,0-.2,0-.21.18,0,.21-.02.56-.42.56-.23,0-.25-.19-.25-.38,0-.11.03-.63.04-.75.04-.93.06-2.19.06-3.19,0-.42,0-1.58-.05-1.89,0-.06-.08-.31-.08-.38,0-.02,0-.06.05-.06a2.453,2.453,0,0,1,.63.19.82.82,0,0,0,.4.07h3.99c.36,0,.4,0,.49-.1.14-.17.18-.22.26-.22.13,0,.57.29.57.46a1.231,1.231,0,0,1-.17.25.79.79,0,0,0-.08.46c0,.03.02.96.02,1.14V4.34c0,.2,0,1.06.02,1.52,0,.08.04.47.04.56a.39.39,0,0,1-.42.42c-.22,0-.22-.12-.22-.27s-.1-.14-.18-.14h-4.49Zm1.71-3.08c.24,0,.23-.14.23-.32V1.23c0-.18-.02-.27-.25-.27h-1.65c-.26,0-.26.09-.26.37,0,.26-.02,1.48-.02,1.76,0,.12.02.24.24.24h1.7Zm-1.7.21c-.24,0-.24.02-.24.77V5.97c.02.22.13.22.22.22h1.67c.14,0,.26,0,.26-.25V3.69c-.02-.14-.17-.15-.22-.15h-1.7Zm2.73,0a.191.191,0,0,0-.22.14c-.02.05-.04,2.12-.04,2.24,0,.27.1.28.28.28h1.69c.22,0,.23-.02.23-.9,0-.2,0-1.59-.02-1.65a.2.2,0,0,0-.2-.1h-1.71Zm1.7-.21c.21,0,.22-.13.22-.26,0-.2-.02-1.81-.02-1.85,0-.13,0-.26-.24-.26h-1.62c-.18,0-.23.06-.24.21-.02.42-.02,1.46-.02,1.93,0,.18.08.23.23.23h1.7Z" fill="#3e3a39"/>
  <path id="パス_979" data-name="パス 979" d="M340.88,3.24a.163.163,0,0,1-.03-.06c0-.02,0-.02.02-.02.04,0,.21.02.25.02.72.03.8.04,1.07.04h1.01c.08,0,.18,0,.22-.09.03-.05.03-.97.03-1.13,0-.19-.03-.26-.23-.26h-1.61c-.7,0-.94.02-1.01.02-.03,0-.14.02-.17.02s-.05-.02-.07-.06l-.16-.18a.219.219,0,0,1-.03-.05c0-.02,0-.02.03-.02.06,0,.3.02.35.02.39.02.72.02,1.1.02h1.55c.11,0,.23,0,.23-.19s-.04-.88-.06-1.06V.17c0-.02.02-.05.04-.05a7.12,7.12,0,0,1,.75.18.106.106,0,0,1,.1.12c0,.04-.06.1-.11.15-.08.08-.13.25-.13.75,0,.19.13.19.25.19h1.48c.36,0,.4,0,.51-.13.22-.27.25-.3.32-.3s.75.42.75.53-.09.11-.41.11h-2.68c-.11,0-.18,0-.22.08a5.706,5.706,0,0,0-.03.74c0,.63.03.66.24.66h.68a.532.532,0,0,0,.43-.17c.19-.22.21-.24.26-.24a3.1,3.1,0,0,1,.7.48.176.176,0,0,1,.07.12c0,.07-.03.08-.31.14-.14.03-.16.06-.45.4a12.364,12.364,0,0,1-1.18,1.3c-.1.09-.21.19-.21.24,0,.12.18.21.5.37a6.917,6.917,0,0,0,2.24.65c.26,0,.29,0,.29.03,0,.06-.44.24-.51.31-.04.04-.22.26-.26.3a.149.149,0,0,1-.09.04,9.383,9.383,0,0,1-2.34-1.11.89.89,0,0,0-.35-.18c-.08,0-.11.02-.41.21a8.06,8.06,0,0,1-2.89,1.15c-.09,0-.11-.05-.11-.06s.06-.03.16-.06a10.215,10.215,0,0,0,2.44-1.3c.22-.16.35-.26.35-.37,0-.06-.03-.1-.28-.42a5.48,5.48,0,0,1-.72-1.38c-.09-.24-.22-.24-.42-.24-.11,0-.62.04-.73.04-.02,0-.04-.02-.07-.05l-.15-.18Zm1.72.19c-.07,0-.2,0-.2.14,0,.24.96,1.55,1.29,1.55.28,0,1.39-1.38,1.39-1.57,0-.12-.08-.12-.29-.12h-2.2Z" fill="#3e3a39"/>
  <path id="パス_980" data-name="パス 980" d="M351.32,1.24c.09,0,.25,0,.25-.21,0-.03-.02-.29-.05-.5,0-.06-.09-.3-.09-.34s.05-.07.1-.07c.1,0,.78.04.78.2,0,.03-.11.15-.13.18-.04.06-.04.14-.04.32,0,.32,0,.41.24.41h1.39c.38,0,.42,0,.51-.14.19-.26.22-.3.29-.3a1.773,1.773,0,0,1,.7.54c0,.11-.04.11-.42.11h-5.18c-.25,0-.25.13-.25.45,0,.23.02,1.25.02,1.46a5.435,5.435,0,0,1-.81,3.09c-.08.12-.37.57-.46.57-.02,0-.02-.03-.02-.05s.34-.86.38-.98a8.341,8.341,0,0,0,.35-2.81,16.735,16.735,0,0,0-.11-1.85c0-.05-.07-.26-.07-.3a.066.066,0,0,1,.06-.07c.04,0,.5.18.6.22a1.149,1.149,0,0,0,.41.06h1.55Zm0,3.45c.24,0,.24-.14.24-.37,0-.17.02-.92.02-1.07a10.533,10.533,0,0,0-.06-1.21c0-.03-.04-.18-.04-.22a.089.089,0,0,1,.09-.09c.02,0,.76.12.76.26,0,.04-.14.18-.15.22a1.944,1.944,0,0,0-.06.6c0,.1,0,.26.23.26h.96c.34,0,.38,0,.49-.15.21-.3.22-.33.31-.33.14,0,.7.41.7.54s-.17.14-.42.14h-2.03a.208.208,0,0,0-.22.12,4.745,4.745,0,0,0-.02,1.02c0,.16,0,.29.24.29h1.06a.388.388,0,0,0,.24-.06c.04-.03.22-.21.26-.21.1,0,.62.3.62.42,0,.06-.19.21-.22.24-.05.05-.05.07-.05.25,0,.23.06,1.41.06,1.48,0,.15,0,.44-.41.44-.21,0-.21-.08-.22-.27,0-.16-.12-.19-.22-.19h-2.77c-.1,0-.19.02-.22.15a.435.435,0,0,1-.45.39c-.21,0-.22-.11-.22-.22,0-.24.04-1.3.04-1.53,0-.37-.02-.64-.02-.81,0-.06-.05-.34-.05-.39,0-.02.03-.04.06-.04.09,0,.16.03.58.26a.787.787,0,0,0,.37.1h.54Zm-.66.22c-.12,0-.21.03-.23.15V6.2c0,.26.02.38.26.38h2.79c.1,0,.21-.04.22-.16V5.26c0-.23,0-.35-.23-.35h-2.8Z" fill="#3e3a39"/>
  <path id="パス_981" data-name="パス 981" d="M618.48,4.96s-.14.18-.16.21c-.14.19-.68,1.05-.82,1.21-.05.07-.22.26-.29.26-.02,0-.03,0-.03-.03,0,0,.24-.58.28-.7a4.542,4.542,0,0,0,.29-1.04c0-.23,0-.26.07-.26a1.861,1.861,0,0,1,.31.1c.11.05.34.15.34.24Zm1.69-.93c-.02-.07-.03-.12-.11-.12s-.45.08-.54.09c-.22.03-.22.1-.22.4V6.89a.4.4,0,0,1-.41.44.164.164,0,0,1-.18-.19c0-.1.04-.59.04-.7.02-.58.04-1.57.04-2.14,0-.1-.02-.19-.16-.19a5.627,5.627,0,0,0-.94.12,1.009,1.009,0,0,1-.23.12c-.14,0-.19-.64-.19-.68s0-.12.07-.12c0,0,.2.06.21.06a2.541,2.541,0,0,0,.8.11c.26,0,.29-.02.36-.14a9.294,9.294,0,0,0,.97-2.24c.04-.19.04-.21.1-.21.04,0,.78.3.78.46,0,.07-.06.1-.12.1a.494.494,0,0,0-.29.17,19.94,19.94,0,0,0-1.24,1.82c0,.02.02.03.02.04h.56c.12,0,.38-.02.46-.02a.063.063,0,0,0,.07-.07,4.289,4.289,0,0,0-.22-.57c0-.03.02-.03.03-.03.13,0,.88.43.88,1.01,0,.18-.1.32-.25.32-.18,0-.28-.06-.33-.33Zm-1.74-1.05c-.11,0-.18-.05-.26-.26a3.5,3.5,0,0,0-.54-.86c-.08-.1-.09-.1-.09-.13s.02-.05.06-.05c.1,0,.52.2.58.2a5.16,5.16,0,0,0,.49-1.63c.02-.13.04-.13.07-.13.06,0,.72.27.72.37,0,.05-.2.18-.23.21a8.688,8.688,0,0,0-.8,1.31.2.2,0,0,0,.07.15.8.8,0,0,1,.2.46c0,.16-.09.34-.27.34Zm2.31,2.96a.4.4,0,0,1-.33.41c-.16,0-.18-.06-.3-.62a2.165,2.165,0,0,0-.26-.69.475.475,0,0,1-.05-.14.042.042,0,0,1,.04-.04,1.257,1.257,0,0,1,.45.32,1.318,1.318,0,0,1,.43.77Zm.79-3.82c-.18,0-.23.02-.3.12-.18.29-.63.98-.78.98a.053.053,0,0,1-.06-.06c0-.02.3-.58.34-.7a7.578,7.578,0,0,0,.69-2.24V.11c0-.02,0-.05.03-.05s.87.26.87.42c0,.08-.1.13-.22.18a6.889,6.889,0,0,0-.63,1.18c0,.05.06.05.14.05h1.46c.21,0,.22,0,.31-.07.14-.14.16-.15.22-.15.1,0,.63.3.63.46,0,.06-.02.06-.2.21a1.56,1.56,0,0,0-.06.6,9.4,9.4,0,0,1-.68,3.91,1.193,1.193,0,0,1-.86.5c-.1,0-.13-.06-.2-.26a1.117,1.117,0,0,0-.44-.5c-.11-.07-.13-.08-.13-.12s.02-.03.03-.03.22.07.26.08a2.458,2.458,0,0,0,.5.12c.34,0,.52-.34.62-.72a11.373,11.373,0,0,0,.36-2.96c0-.13,0-.7-.02-.74-.05-.1-.15-.1-.24-.1h-1.64Zm.87,2.58a.462.462,0,0,1-.38.51c-.19,0-.22-.1-.32-.62a3.619,3.619,0,0,0-.24-.79c-.06-.12-.06-.14-.06-.17s0-.05.02-.05a1.817,1.817,0,0,1,.63.43.985.985,0,0,1,.35.68Z" fill="#3e3a39"/>
  <path id="パス_982" data-name="パス 982" d="M628.55,4.97s.19,0,.19.13-.12.14-.19.14H628c-.23,0-.23.13-.23.47,0,.49,0,.76.42.79.26.02.33.02.33.14s-.14.12-.22.12h-1.8c-.06,0-.19,0-.19-.12,0-.14.1-.14.27-.14.54,0,.54-.29.54-.79,0-.33,0-.48-.21-.48h-1.8c-.1,0-.19,0-.19-.14,0-.08.02-.1.16-.34.18-.3,2.06-3.45,2.11-3.53.24-.39.26-.44.39-.44a.177.177,0,0,1,.15.08,8.556,8.556,0,0,1,.05,1.17c0,.3-.02,1.8-.02,2.13,0,.72,0,.8.22.8h.57Zm-1.64,0a.2.2,0,0,0,.21-.18V3.37c0-.11-.02-1.17-.02-1.18s-.02-.11-.06-.11-.17.2-.21.28c-.17.29-1.5,2.47-1.5,2.53s.05.08.16.08h1.42Z" fill="#3e3a39"/>
  <path id="パス_983" data-name="パス 983" d="M630.78,6.92c-1.26,0-1.8-1.59-1.8-3.06s.54-3.07,1.8-3.07c1.29,0,1.8,1.66,1.8,3.07S632.07,6.92,630.78,6.92Zm0-5.87c-1.06,0-1.08,2.4-1.08,2.81,0,.33,0,2.81,1.08,2.8,1.06,0,1.08-2.38,1.08-2.8,0-.34,0-2.81-1.08-2.81Z" fill="#3e3a39"/>
  <path id="パス_984" data-name="パス 984" d="M634.78,6.92c-1.26,0-1.8-1.59-1.8-3.06s.54-3.07,1.8-3.07c1.29,0,1.8,1.66,1.8,3.07S636.07,6.92,634.78,6.92Zm0-5.87c-1.06,0-1.08,2.4-1.08,2.81,0,.33,0,2.81,1.08,2.8,1.06,0,1.08-2.38,1.08-2.8,0-.34,0-2.81-1.08-2.81Z" fill="#3e3a39"/>
  <path id="パス_985" data-name="パス 985" d="M641.87,6.76c-.14,0-.15-.1-.15-.13,0-.12.1-.13.21-.13.42-.02.42-.23.42-1.31a5.919,5.919,0,0,0-.08-1.48.646.646,0,0,0-.63-.54,1.369,1.369,0,0,0-1.08.67,14.065,14.065,0,0,0-.05,1.5c0,.78,0,.86.08.98a.386.386,0,0,0,.33.18c.23,0,.3,0,.3.13s-.11.13-.18.13h-1.61c-.07,0-.19,0-.19-.13,0-.05.02-.1.06-.11a1.83,1.83,0,0,1,.34-.02c.32-.06.32-.23.32-1.34a4.539,4.539,0,0,0-.1-1.55.628.628,0,0,0-.6-.42,1.446,1.446,0,0,0-.89.4c-.19.19-.21.21-.21,1.58,0,1.11,0,1.34.42,1.35.12,0,.24,0,.24.13s-.11.13-.18.13h-1.51s-.16,0-.16-.13.1-.13.24-.13a.37.37,0,0,0,.35-.23,13.4,13.4,0,0,0,.06-1.6,9.407,9.407,0,0,0-.05-1.23.3.3,0,0,0-.3-.2c-.03,0-.2.02-.24.02-.02,0-.08,0-.08-.06s.02-.07.39-.18c.18-.05.69-.18.75-.2.08,0,.08.04.08.23,0,.21,0,.26.08.26a1.786,1.786,0,0,0,.24-.15,1.755,1.755,0,0,1,1-.34.851.851,0,0,1,.89.52c.02.03.06.11.1.11s.06-.02.18-.13a1.792,1.792,0,0,1,1.21-.5.816.816,0,0,1,.91.62,6.1,6.1,0,0,1,.1,1.83c0,.96,0,1.22.45,1.22.05,0,.18,0,.18.14,0,.08-.07.12-.15.12h-1.5Z" fill="#3e3a39"/>
  <path id="パス_986" data-name="パス 986" d="M651.26.31c-.36.34-6.25,6.24-6.79,6.79a2,2,0,0,1-.22.2.086.086,0,0,1-.09-.08.1.1,0,0,1,.04-.08c.33-.31,6.26-6.25,6.79-6.79.03-.02.19-.2.22-.2a.088.088,0,0,1,.09.09.087.087,0,0,1-.05.07Z" fill="#3e3a39"/>
  <path id="パス_987" data-name="パス 987" d="M653,3.64s0-.1-.06-.1c-.02,0-.97.66-1.03.66a.02.02,0,0,1-.02-.02s.32-.34.36-.39a12.214,12.214,0,0,0,1.47-1.88c.05-.1.1-.21.13-.21s.67.4.67.6c0,.04-.02.05-.22.11a4.1,4.1,0,0,0-.79.67.058.058,0,0,0,.06.06c.14.03.18.05.18.14a.073.073,0,0,1-.02.06c-.02.03-.14.15-.15.18a9.972,9.972,0,0,0-.05,1.14c0,.3.03,1.8.03,2.13a.46.46,0,0,1-.42.52c-.23,0-.23-.21-.23-.28s.03-.47.04-.54c.04-.6.04-.91.04-1.78V3.62ZM654.55.65c0,.06-.03.07-.26.12a.956.956,0,0,0-.41.2,7.687,7.687,0,0,1-1.58.98,1.022,1.022,0,0,1-.11.05.02.02,0,0,1-.02-.02c0-.02.47-.44.54-.5A6.124,6.124,0,0,0,653.79.2c.06-.1.08-.14.13-.14.1,0,.63.47.63.6Zm1.2,2.39c-.18,0-.73,0-1.01.02-.03,0-.14.02-.18.02-.02,0-.04-.02-.06-.05l-.16-.18a.163.163,0,0,1-.03-.06c0-.02,0-.02.03-.02.06,0,.3.02.35.02.37.02.72.03,1.1.03h.41c.22,0,.24-.04.24-.88,0-.42-.04-.42-.37-.42-.18,0-.73,0-1.01.02-.03,0-.14.02-.17.02s-.05-.02-.07-.05l-.16-.18a.163.163,0,0,1-.03-.06s0-.02.03-.02.42.03.5.03c.58.02.6.02,1.02.02a.2.2,0,0,0,.23-.22c0-.18-.02-.53-.03-.62,0-.05-.06-.25-.06-.29,0-.07.05-.09.1-.09,0,0,.76.11.76.28,0,.04,0,.05-.15.17-.05.04-.06.1-.06.36s0,.4.26.4h.34c.37,0,.41,0,.53-.18.16-.23.18-.26.25-.26.1,0,.63.38.63.52,0,.12-.15.12-.43.12h-1.32c-.22,0-.26.06-.26.32,0,.1.02.53.02.62,0,.26,0,.37.26.37h.63c.37,0,.41,0,.5-.16.13-.22.18-.28.26-.28.13,0,.66.39.66.53,0,.12-.14.12-.42.12h-1.87s-.07,0-.07.03.02.04.07.06c.03.02.1.06.1.11a.85.85,0,0,1-.1.19,1.194,1.194,0,0,0-.04.39c0,.7,0,.71.24.71h.62c.37,0,.41,0,.53-.18.15-.23.17-.26.24-.26.1,0,.63.38.63.53,0,.11-.14.11-.43.11h-1.58c-.23,0-.25.1-.25.26V6.01c0,.3.07.39.51.39a6.912,6.912,0,0,0,1.76-.22,3.094,3.094,0,0,0,.3-.08.02.02,0,0,1,.02.02,1,1,0,0,1-.14.16c-.27.3-.29.41-.29.49s0,.14-.09.18a6.871,6.871,0,0,1-.98.07,2.807,2.807,0,0,1-2.75-1.23c-.03-.04-.11-.15-.17-.15s-.09.05-.15.18a3.857,3.857,0,0,1-.76,1.09,2.373,2.373,0,0,1-.4.31V7.2c0-.02.18-.29.21-.34a5.325,5.325,0,0,0,.82-2.81c0-.39,0-.42.09-.42,0,0,.29.07.37.1.26.08.29.09.29.16,0,.05-.13.21-.14.24-.03.1-.09.53-.1.62-.02.06-.11.47-.11.5,0,.3.68.9.98.9.05,0,.14,0,.16-.15,0-.07.03-1.41.03-1.51a7.855,7.855,0,0,0-.07-1.32c-.06-.18-.15-.18-.28-.18h-.32Z" fill="#3e3a39"/>
  <path id="パス_988" data-name="パス 988" d="M662.74,4.25c0,.06-.03.1-.17.12a.631.631,0,0,0-.33.2,5.765,5.765,0,0,1-1.67,1.17c-.06.02-.31.12-.34.12s-.03,0-.03-.02c0-.04.62-.49.69-.56.74-.78.9-.98,1.05-1.49,0-.02.04-.1.09-.1a1.416,1.416,0,0,1,.37.22c.31.22.34.26.34.33Zm.5-1.05c.22,0,.24-.09.24-.26V1.57a5.483,5.483,0,0,0-.05-1.03c0-.06-.1-.34-.1-.38,0-.07.1-.08.14-.08.26,0,.73.17.73.29,0,.03-.14.15-.16.18a2.709,2.709,0,0,0-.03.77c0,.14,0,.28.25.28h.83c.3,0,.36-.02.41-.07s.26-.45.34-.45c.11,0,.67.5.67.63,0,.1-.05.1-.43.1h-1.82c-.25,0-.25.13-.25.25v.86c0,.26.09.26.26.26h1.46a1.845,1.845,0,0,0,.42-.03c.09-.05.38-.5.49-.5a2.006,2.006,0,0,1,.67.62c0,.11-.14.11-.42.11h-2.93s-.06,0-.06.04c0,.02.02.02.18.1.13.06.19.1.21.18,0,.04,0,.06-.11.14-.14.1-.14.48-.14.66,0,.05.02.81.02.9a.737.737,0,0,1-.37.73,1.039,1.039,0,0,1-.47.14.234.234,0,0,1-.11-.02c-.05-.02-.17-.27-.21-.31-.06-.06-.4-.3-.4-.3,0-.02.03-.03.05-.03s.37.02.45.02c.46,0,.49-.09.5-.35v-.8c0-1.02-.03-1.09-.29-1.09h-1.53c-.14,0-.74,0-1.01.02-.02,0-.14.02-.18.02-.02,0-.04-.02-.06-.05l-.16-.18a.163.163,0,0,1-.03-.06c0-.02.02-.02.03-.02.16,0,.94.06,1.13.06s.21-.1.21-.26V1.78a7.3,7.3,0,0,0-.03-.82c0-.03-.06-.22-.06-.26s.02-.05.06-.05c0,0,.82.12.82.26V.97c-.02.02-.15.13-.17.16a7.4,7.4,0,0,0-.05,1.75c0,.24.03.3.24.3h.86Zm2.82,2.29c0,.1-.03.1-.22.14-.14.02-.18.06-.62.41a6.154,6.154,0,0,1-3.98,1.23c-.09,0-.58,0-.58-.06a.949.949,0,0,1,.31-.06,6.791,6.791,0,0,0,3.91-1.52,1.527,1.527,0,0,0,.4-.64c.03-.1.04-.11.1-.11s.08.03.37.26c.26.21.33.27.33.36Zm1.01-.27a.262.262,0,0,1-.29.27c-.22,0-.29-.1-.46-.38a6.351,6.351,0,0,0-1.08-1.13c-.12-.1-.14-.1-.14-.14s.06-.03.08-.03a2.286,2.286,0,0,1,.65.18c.8.34,1.24.89,1.24,1.23Z" fill="#3e3a39"/>
  <path id="パス_989" data-name="パス 989" d="M668.91,1.54c-.27,0-.27.07-.28.32,0,.12-.06,1.47-.06,1.48,0,.06.02.12.07.12s.07-.02.31-.17a1.507,1.507,0,0,1,.84-.23,1.736,1.736,0,0,1,1.72,1.82,2.04,2.04,0,0,1-2,2.04,1.429,1.429,0,0,1-1.5-1.14.444.444,0,0,1,.47-.46.378.378,0,0,1,.41.39c0,.06-.06.38-.06.45,0,.34.38.5.66.5.58,0,1.27-.57,1.27-1.69s-.62-1.57-1.13-1.57a1.785,1.785,0,0,0-1.04.46c-.04.03-.19.22-.25.22s-.07-.06-.07-.13c0-.32.1-2.3.11-2.73,0-.1.02-.3.26-.3h2.29c.16,0,.23,0,.23.08a1.958,1.958,0,0,1-.11.41c-.05.12-.13.12-.23.12h-1.91Z" fill="#3e3a39"/>
  <path id="パス_990" data-name="パス 990" d="M675.08,1.14c0,.08-.06.1-.22.14-.08.02-.22.26-.4.54a5.176,5.176,0,0,1-2.37,2.21.047.047,0,0,1-.05-.05c0-.05.02-.06.17-.18a6.886,6.886,0,0,0,1.8-2.41c.06-.12.26-.8.27-.8.06-.02.81.41.81.54Zm.78,2.33c-.21,0-.21.02-.26.44a3.343,3.343,0,0,1-1.62,2.86,5.186,5.186,0,0,1-1.53.52c-.02,0-.1,0-.1-.06,0-.04.04-.06.18-.1a4.569,4.569,0,0,0,1.57-.97,3.889,3.889,0,0,0,.9-2.52c0-.18-.08-.18-.2-.18h-.24c-.3,0-.68,0-.82.02-.03,0-.14.02-.17.02s-.05-.02-.07-.06l-.16-.18a.219.219,0,0,1-.03-.05c0-.02,0-.02.03-.02.06,0,.3.03.35.03.39.02.72.02,1.09.02h1.75c.36,0,.4-.02.53-.15s.19-.18.25-.18c.13,0,.59.37.59.54,0,.04-.13.18-.14.22-.04.08-.09.99-.1,1.17a5.176,5.176,0,0,1-.38,1.98,1.237,1.237,0,0,1-.82.48c-.09,0-.09-.02-.15-.25-.05-.18-.32-.29-.74-.41-.18-.05-.26-.08-.26-.13s.07-.05.09-.05a2.438,2.438,0,0,1,.31.06,3.436,3.436,0,0,0,.57.06c.38,0,.6-.07.71-.9.08-.62.16-1.54.16-1.95,0-.22-.02-.29-.24-.29h-1.08Zm.4-2.58c-.2,0-.47,0-.64.02-.02,0-.14.02-.16.02s-.03,0-.06-.05L675.25.7a.2.2,0,0,1-.02-.06.02.02,0,0,1,.02-.02c.05,0,.28.03.33.03.09,0,.42.02.48.02a.433.433,0,0,0,.34-.21c.16-.22.18-.25.24-.25.1,0,.7.4.7.58,0,.08-.02.09-.24.14a.179.179,0,0,0-.16.17,2.961,2.961,0,0,0,2.41,1.82c.02,0,.12.02.12.06s-.21.09-.24.1a1.651,1.651,0,0,0-.49.37c-.02.02-.1.12-.13.12a4,4,0,0,1-1.91-2.31c-.09-.34-.1-.38-.29-.38h-.14Z" fill="#3e3a39"/>
  <line id="線_49" data-name="線 49" x2="211.7" transform="translate(468.04 12.49)" fill="none" stroke="#231815" stroke-miterlimit="10" stroke-width="0.3"/>
  <path id="パス_991" data-name="パス 991" d="M473.4,6.64c.38,0,.44-.02.5-.07.07-.07.36-.49.46-.49a2.6,2.6,0,0,1,.8.67c0,.1-.15.1-.42.1h-5.51c-.18,0-.73,0-1.01.02-.02,0-.14.02-.17.02s-.04-.02-.07-.06l-.15-.18a.219.219,0,0,1-.03-.05c0-.02,0-.02.02-.02.06,0,.3.02.36.03.36.02.72.02,1.1.02h4.13ZM472.7.78c.38,0,.42,0,.5-.07s.36-.46.46-.46a2.377,2.377,0,0,1,.79.65c0,.11-.15.1-.41.1h-4.12c-.18,0-.73,0-1.01.02-.02,0-.14.02-.17.02s-.05-.02-.07-.06L468.52.8s-.04-.04-.04-.06.02-.02.03-.02c.06,0,.3.02.35.03.37.02.73.02,1.1.02h2.74Zm-.44,2.88c.35,0,.38,0,.46-.06.06-.06.33-.42.42-.42.06,0,.77.46.77.6,0,.1-.04.1-.4.1h-3c-.18,0-.73,0-1.01.02-.03,0-.14.02-.17.02s-.05-.02-.07-.05l-.16-.18a.163.163,0,0,1-.03-.06s0-.02.03-.02c.06,0,.3.02.35.02.37.02.72.03,1.1.03h1.72Z" fill="#3e3a39"/>
  <path id="パス_992" data-name="パス 992" d="M478.82,4.2c-.27,0-.28.1-.3.37a2.716,2.716,0,0,1-1.7,2.5,3.614,3.614,0,0,1-.47.16.032.032,0,0,1-.03-.03c0-.02.12-.1.15-.12a3.758,3.758,0,0,0,1.05-1.05,3.264,3.264,0,0,0,.46-1.61c0-.21-.14-.22-.25-.22h-.45c-.7,0-.94.02-1.02.02-.02,0-.14.02-.17.02s-.04-.02-.07-.05l-.15-.18a.163.163,0,0,1-.03-.06c0-.02,0-.02.03-.02.05,0,.3.02.35.02.39.02.73.03,1.1.03h.43c.21,0,.26-.08.26-.31V2.36c0-.19-.09-.22-.22-.22h-.16c-.19,0-.74,0-1.02.02-.03,0-.14.02-.17.02s-.05-.02-.07-.05l-.16-.18a.163.163,0,0,1-.03-.06s0-.02.03-.02.42.03.5.03c.55.02.62.02,1.06.02.08,0,.22,0,.22-.19A8.866,8.866,0,0,0,477.9.46c0-.05-.09-.25-.09-.3s.05-.07.1-.07c.02,0,.49.13.52.14.22.06.24.06.24.15a2.061,2.061,0,0,1-.12.26,4.455,4.455,0,0,0-.03.53c0,.7,0,.76.28.76h1.27c.23,0,.23-.06.23-.54a2.908,2.908,0,0,0-.08-1.05c0-.03-.09-.17-.09-.19s.02-.06.07-.06.42.09.46.1c.34.08.38.09.38.2,0,.06-.14.24-.14.28a2.152,2.152,0,0,0-.04.5v.61c.02.15.14.15.37.15.34,0,.37,0,.43-.06s.34-.4.43-.4a2.056,2.056,0,0,1,.63.54c0,.12-.15.12-.43.12h-1.18c-.18,0-.26.03-.26.29,0,.33,0,1.05.02,1.34,0,.14.04.21.26.21h.54c.28,0,.34,0,.46-.1.06-.06.33-.36.4-.36a1.517,1.517,0,0,1,.58.54c0,.12-.14.12-.42.12h-1.54c-.27,0-.27.1-.27.5,0,.37,0,.9.05,1.62,0,.1.05.54.05.62a.394.394,0,0,1-.42.41c-.19,0-.26-.14-.26-.32,0-.06.03-.37.03-.43,0-.14.02-.28.02-.65V4.37c0-.21-.14-.21-.22-.21h-1.31Zm1.3-.21c.21,0,.23-.1.23-.27s0-1.32-.03-1.41c-.03-.16-.13-.16-.23-.16h-1.27c-.08,0-.2,0-.23.11-.02.06-.02.54-.02.82,0,.12,0,.74.02.8a.23.23,0,0,0,.23.11h1.3Z" fill="#3e3a39"/>
  <path id="パス_993" data-name="パス 993" d="M485.52,2.46c-.05.11-.05,1.48-.05,1.76,0,1.03,0,1.41.02,2.11,0,.07.02.54.02.57a.369.369,0,0,1-.41.42c-.21,0-.25-.1-.25-.22,0-.1.05-.76.06-.86,0-.2.05-2.65.05-2.93v-.7c0-.14,0-.14-.03-.14s-1.02,1.19-1.19,1.19c-.02,0-.02,0-.02-.02,0-.08,1.87-2.75,1.87-3.35,0-.18,0-.2.05-.2s.79.43.79.54c0,.05-.02.05-.14.09s-.17.12-.37.42a6.384,6.384,0,0,0-.58.83c0,.06.02.08.21.18.06.03.15.08.12.14s-.11.11-.14.18Zm4.18,4.13c.37,0,.42,0,.51-.13.24-.32.26-.36.34-.36.12,0,.58.52.58.59,0,.11-.17.11-.43.11h-3.52c-.7,0-.93.02-1.01.02-.03,0-.14.02-.17.02s-.05-.02-.07-.06l-.15-.18s-.04-.04-.04-.05.02-.02.03-.02c.06,0,.3.02.35.03.39.02.72.02,1.1.02h.64c.23,0,.23-.12.23-.32,0-.18,0-1.91-.02-1.97-.03-.14-.16-.14-.23-.14h-.24c-.7,0-.94.02-1.01.02-.03,0-.14.02-.17.02s-.04-.02-.07-.05l-.15-.18a.163.163,0,0,1-.03-.06.02.02,0,0,1,.02-.02c.06,0,.3.02.35.02.39.02.73.03,1.1.03h.2c.24,0,.25-.11.25-.26V2.12c0-.21-.08-.24-.26-.24h-.41c-.7,0-.93.02-1.01.02-.02,0-.14.02-.17.02s-.04-.02-.07-.06l-.15-.18a.219.219,0,0,1-.03-.05c0-.02,0-.02.02-.02.06,0,.3.02.35.02.39.02.72.02,1.1.02h2.02c.32,0,.44,0,.51-.13.14-.26.16-.3.26-.3s.7.42.7.53-.16.11-.42.11h-1.61c-.27,0-.27,0-.27.74,0,.14,0,1.15.02,1.22.03.1.15.1.23.1h.29c.36,0,.4,0,.51-.14.22-.26.25-.3.33-.3a1.954,1.954,0,0,1,.6.53c0,.11-.16.11-.42.11H488.9c-.24,0-.26.1-.26.3,0,.18,0,1.92.02,2,.02.14.14.14.26.14h.79Zm-.87-5.43a.321.321,0,0,1-.29.35c-.2,0-.27-.2-.32-.35a3.743,3.743,0,0,0-.52-.94c-.06-.07-.1-.13-.09-.14.02-.03,1.21.33,1.21,1.07Z" fill="#3e3a39"/>
  <path id="パス_994" data-name="パス 994" d="M496.81,3.11a.656.656,0,0,0,.38-.08c.03-.02.18-.18.22-.18.06,0,.66.34.66.51a.117.117,0,0,1-.06.1c-.04.02-.24.11-.28.14a10.489,10.489,0,0,0-.74,1.19,3.586,3.586,0,0,0-.38.58c0,.05.02.1.25.26a6.259,6.259,0,0,0,2.13.98c.14.04.22.06.22.09s-.1.05-.16.06a1.558,1.558,0,0,0-.62.3c-.03.03-.18.21-.23.21a4.781,4.781,0,0,1-1.7-1.25c-.14-.15-.21-.18-.27-.18-.08,0-.21.12-.29.19a4.832,4.832,0,0,1-2.53,1.3s-.03,0-.03-.02.06-.05.11-.08a7.628,7.628,0,0,0,1.48-.96c.82-.75.88-.82.88-.95,0-.07-.02-.1-.18-.35a6.518,6.518,0,0,1-.64-1.51c-.02-.1-.05-.14-.14-.14-.26,0-.34,0-.43.21a6.945,6.945,0,0,1-2.49,3.37c-.02,0-.16.1-.16.06,0-.02.2-.23.23-.27a9.23,9.23,0,0,0,2.21-4.62c0-.22-.14-.22-.26-.22h-.63c-.19,0-.73,0-1.01.02-.02,0-.14.02-.17.02s-.05-.02-.07-.05l-.15-.18s-.04-.04-.04-.06.02-.02.03-.02c.05,0,.29.02.35.02.22,0,.64.03,1.1.03h.6c.24,0,.48,0,.48-1.02a2.532,2.532,0,0,0-.02-.34c0-.02-.03-.12-.03-.14,0-.05.07-.06.11-.06.06,0,.46.08.56.1.13.02.34.06.34.19,0,.05-.18.19-.21.23a2.9,2.9,0,0,0-.18.77c0,.26.14.26.36.26h1.87c.38,0,.43,0,.55-.18.22-.32.25-.36.35-.36.12,0,.93.5.93.65,0,.07-.02.1-.43.1H495.3c-.15,0-.29,0-.38.14a6.154,6.154,0,0,0-.27.96c0,.16.1.16.22.16h1.92Zm-1.63.22q-.09,0-.09.06c0,.15.85,1.58,1.06,1.58.1,0,.14-.06.41-.52a2.869,2.869,0,0,0,.48-1.01c0-.11-.16-.11-.24-.11h-1.62Z" fill="#3e3a39"/>
  <path id="パス_995" data-name="パス 995" d="M500.12,3.64a.219.219,0,0,1-.03-.05c0-.02,0-.02.02-.02.18,0,.92.06,1.07.06.22,0,.22-.14.22-.39,0-.3,0-.43-.18-.43-.05,0-.29.02-.33.02-.02,0-.13-.11-.15-.11-.06,0-.12.08-.18.16-.11.15-.73.94-.87.94-.02,0-.02-.03-.02-.04,0-.05.58-1.03.69-1.23a7.592,7.592,0,0,0,.85-2.24c0-.24,0-.26.09-.26.16,0,.74.3.74.43,0,.03-.14.14-.14.17,0,.05.03.06.25.11.3.08.98.25.98.72a.341.341,0,0,1-.27.34c-.12,0-.26-.19-.3-.23-.07-.1-.54-.73-.74-.73-.07,0-.11.07-.13.13a12.652,12.652,0,0,1-.7,1.27.58.58,0,0,0-.09.21c0,.1.18.09.38.1.06,0,.59.02.7.02.17,0,.21-.03.26-.13.11-.19.13-.21.19-.21a1.516,1.516,0,0,1,.54.43c0,.11-.17.11-.43.11h-.34c-.24,0-.25.08-.25.5,0,.27.02.34.24.34.27,0,.31-.03.41-.16.16-.21.18-.23.22-.23.07,0,.46.38.46.49s-.17.11-.43.11h-.63c-.09,0-.23,0-.26.14-.02.1-.02,1.09-.02,1.31,0,.94.02.94.19.94.07,0,.96-.14,1.08-.14,0,0,.06,0,.06.02,0,.06-.2.13-.35.18-.53.19-1.15.42-2.06.7a1,1,0,0,0-.34.15,1.574,1.574,0,0,1-.19.12c-.06,0-.08-.04-.24-.38a3.9,3.9,0,0,1-.16-.38c0-.05.02-.1.08-.1s.26.04.29.04a7.35,7.35,0,0,0,1.05-.12.227.227,0,0,0,.1-.21V4.74a5.368,5.368,0,0,0-.04-.84.226.226,0,0,0-.21-.08c-.16,0-.58,0-.7.02-.02,0-.1.02-.12.02s-.04-.02-.07-.06l-.15-.18Zm.58,2.25c-.18,0-.19-.06-.25-.49a2.216,2.216,0,0,0-.3-.86s-.1-.19-.1-.2,0-.02.02-.02c.09,0,.98.51.98,1.14,0,.18-.12.43-.36.43Zm2.51-1.37a.256.256,0,0,1,.06.12c0,.06-.05.09-.1.11-.16.08-.21.13-.57.54a3.7,3.7,0,0,1-.59.54.02.02,0,0,1-.02-.02c0-.02.39-.78.45-.93a2.778,2.778,0,0,0,.14-.55c.02-.17.02-.21.09-.21s.23.14.31.21c.03.03.2.17.23.19ZM505.37.51c.17,0,.23,0,.32-.07s.17-.18.22-.18.26.18.3.2c.23.14.33.22.33.3,0,.05-.17.21-.2.24-.06.09-.06.18-.06.45s.06,1.51.06,1.7,0,.5-.4.5c-.18,0-.19-.06-.22-.19-.03-.15-.16-.15-.23-.15h-.36c-.1,0-.24,0-.24.18,0,.27.46,1.4.67,1.4s.58-.58.64-.73c.02-.06.1-.34.15-.34a3.421,3.421,0,0,1,.31.21c.34.22.38.25.38.34s-.06.12-.35.2c-.06.02-.5.26-.74.41-.2.12-.22.13-.22.22,0,.22.75.91,1.37,1.13.17.06.24.09.24.13,0,.06-.32.14-.37.17a.684.684,0,0,0-.29.26c-.02.04-.06.1-.09.1a3.508,3.508,0,0,1-.89-.85c-.12-.16-.17-.22-.26-.22-.14,0-1.88,1.02-2.22,1.2-.06.03-.12.06-.13.11-.03.14-.04.18-.12.18-.19,0-.56-.66-.56-.72s.1-.07.3-.09a1.918,1.918,0,0,0,.64-.15c.1-.05.12-.14.12-.49,0-1.26-.02-3.93-.06-5,0-.09-.06-.5-.06-.58s.04-.12.1-.12c.04,0,.33.14.43.18a.827.827,0,0,0,.41.08h1.08Zm.14,1.26c.25,0,.25-.07.25-.38,0-.65,0-.68-.26-.68h-1.3c-.25,0-.25.08-.25.38,0,.51,0,.58.06.62a.262.262,0,0,0,.19.05h1.31Zm-1.31.22c-.25,0-.25.07-.25.38,0,.54,0,.59.06.65a.241.241,0,0,0,.19.06h1.31c.11,0,.2,0,.23-.1a6.124,6.124,0,0,0,.02-.63c0-.27,0-.35-.25-.35h-1.32Zm0,1.3c-.25,0-.25.13-.25.29V5.85c0,.23,0,.35.15.35.04,0,.63-.18.7-.21.48-.16.56-.18.56-.29a.652.652,0,0,0-.08-.22,4.8,4.8,0,0,1-.59-1.84c-.03-.32-.03-.35-.22-.35h-.27Z" fill="#3e3a39"/>
  <path id="パス_996" data-name="パス 996" d="M510.34,2.43a2.111,2.111,0,0,0-.53.65c0,.03.02.06.1.11.06.04.09.07.09.11s-.09.14-.1.17a.715.715,0,0,0-.02.21c0,.31-.03,1.71-.03,2V6.82c0,.09,0,.5-.42.5-.12,0-.25-.03-.25-.19,0-.06.05-.5.06-.58.02-.3.08-2.01.08-2.4s0-.43-.06-.43a1.167,1.167,0,0,0-.24.21,7.566,7.566,0,0,1-1.18,1c-.02,0-.05,0-.05-.03a1.935,1.935,0,0,1,.27-.38,19.888,19.888,0,0,0,1.61-2.21,2.971,2.971,0,0,0,.23-.46c.02-.04.04-.09.1-.09.04,0,.66.35.62.5-.02.06-.04.07-.27.16Zm0-1.87c0,.08-.09.1-.15.11-.14.02-.17.06-.46.34a7.889,7.889,0,0,1-1.63,1.23c-.05,0-.05-.03-.05-.05a5.47,5.47,0,0,1,.54-.58,7.916,7.916,0,0,0,.98-1.33c.1-.18.1-.19.17-.19a.172.172,0,0,1,.1.03c.12.08.53.35.53.45ZM512,2.9c-.7,0-.94.02-1.02.02-.02,0-.14.02-.17.02s-.04-.02-.07-.05l-.15-.18a.163.163,0,0,1-.03-.06c0-.02,0-.02.03-.02.05,0,.3.02.35.02.44.02.73.03,1.14.03h1.7a.293.293,0,0,0,.3-.14c.21-.29.24-.32.33-.32a1.87,1.87,0,0,1,.7.56c0,.09-.12.1-.3.1h-1.02c-.24,0-.25.14-.25.27V5.88c0,.7,0,1.14-.36,1.3a1.3,1.3,0,0,1-.49.13c-.1,0-.11-.05-.13-.13-.06-.35-.58-.5-.74-.54-.06-.02-.11-.06-.11-.09s.05-.03.06-.03a2.13,2.13,0,0,1,.25.03c.15.02.49.03.54.03.23,0,.31-.06.35-.26.02-.13.05-1.71.05-1.77,0-.22-.02-1.29-.02-1.37,0-.19-.02-.32-.24-.32H512ZM513.08.73a.287.287,0,0,0,.3-.14c.22-.26.25-.3.32-.3.09,0,.7.42.7.54,0,.08-.13.1-.26.1H512.5c-.7,0-.93.02-1.01.02-.02,0-.14.02-.17.02s-.05-.02-.07-.05L511.1.74s-.04-.04-.04-.06.02-.02.03-.02c.05,0,.3.02.35.02.39.02.85.03,1.09.03h.54Z" fill="#3e3a39"/>
  <path id="パス_997" data-name="パス 997" d="M517.09,2.91c-.19,0-.23.06-.23.24V6.62c0,.2,0,.67-.37.67-.26,0-.26-.26-.26-.36a2.819,2.819,0,0,1,.02-.39c0-.06.04-1.97.04-2.18,0-.89,0-2.81-.07-3.56,0-.06-.06-.34-.06-.39s.06-.06.1-.06a1.428,1.428,0,0,1,.47.15.813.813,0,0,0,.39.09h.96a.455.455,0,0,0,.31-.08c.03-.03.2-.23.26-.23.04,0,.63.41.63.51,0,.06-.02.07-.2.2a.3.3,0,0,0-.1.28c0,.22.02,1.32.02,1.57,0,.19,0,.47-.36.47-.19,0-.2-.07-.21-.24-.02-.13-.14-.15-.24-.15h-1.11ZM517.07.8c-.24,0-.24.11-.24.48,0,.18,0,.31.24.31h1.12c.24,0,.24-.14.24-.31,0-.37,0-.48-.25-.48Zm1.13,1.9c.24,0,.24-.11.24-.47,0-.31,0-.42-.24-.42h-1.13c-.24,0-.24.14-.24.3,0,.54,0,.6.25.6h1.12Zm2.56.18c-.1,0-.21,0-.23.17a.411.411,0,0,1-.41.32.183.183,0,0,1-.2-.2c0-.09.03-.53.03-.62,0-.34-.03-1.25-.03-1.31,0-.12-.05-.66-.05-.73s.02-.18.12-.18a1.485,1.485,0,0,1,.42.18,1.105,1.105,0,0,0,.5.09h.92a.521.521,0,0,0,.3-.07c.03-.02.19-.2.25-.2a2.949,2.949,0,0,1,.32.19c.24.17.26.18.26.27,0,.06-.02.08-.17.2-.08.06-.08.23-.08.29,0,.72.04,4.25.04,5.05a.838.838,0,0,1-.27.74,1.063,1.063,0,0,1-.54.25.173.173,0,0,1-.15-.1,1.447,1.447,0,0,0-.36-.46c-.03-.02-.24-.11-.24-.16,0-.02.05-.05.14-.05.07,0,.41.02.48.02.14,0,.34-.02.37-.19.02-.09.02-1,.02-1.16,0-.18,0-2.05-.02-2.18-.03-.15-.17-.15-.25-.15h-1.18ZM520.74.81c-.26,0-.26.11-.26.38,0,.29,0,.39.26.39h1.17c.25,0,.25-.11.25-.38,0-.29,0-.39-.25-.39Zm1.18,1.86c.25,0,.25-.07.25-.47,0-.32,0-.4-.25-.4h-1.18c-.23,0-.25.1-.25.27,0,.54,0,.6.26.6Z" fill="#3e3a39"/>
  <path id="パス_998" data-name="パス 998" d="M527.1,6.2c0,.06-.31.11-.36.14-.78.36-1,.46-1.21.54a6.722,6.722,0,0,1-1.7.41c-.02,0-.05,0-.05-.02s.15-.09.29-.14a6.273,6.273,0,0,0,2.24-1.3c.14-.17.15-.18.21-.18a.222.222,0,0,1,.11.05c.11.09.47.39.47.51Zm2.62-.92c.34,0,.42,0,.51-.14.18-.28.21-.31.3-.31.12,0,.63.38.63.55,0,.1-.17.1-.43.1h-5.45c-.45,0-.77,0-1.02.02-.02,0-.14.02-.17.02s-.04-.02-.07-.05l-.15-.18a.163.163,0,0,1-.03-.06c0-.02,0-.02.03-.02.05,0,.3.02.35.02.39.02.72.03,1.1.03h4.41Zm-2.74-3.47c.24,0,.24-.1.24-.44a.2.2,0,0,0-.23-.22h-1.15c-.7,0-.94.02-1.02.02-.02,0-.14.02-.17.02s-.04-.02-.07-.05l-.15-.18A.163.163,0,0,1,524.4.9c0-.02,0-.02.02-.02.06,0,.3.02.35.02.39.02.73.03,1.1.03h1.1c.08,0,.24,0,.24-.2a1.584,1.584,0,0,0-.05-.38c0-.04-.1-.21-.1-.25s.07-.03.12-.03c.02,0,.67.11.7.12a.12.12,0,0,1,.1.12c0,.06,0,.06-.12.18a.567.567,0,0,0-.09.26.193.193,0,0,0,.21.18h1.04c.34,0,.42,0,.51-.14.22-.33.24-.36.33-.36.11,0,.74.44.74.59,0,.11-.17.11-.42.11h-2.19c-.16,0-.24.05-.24.21,0,.38,0,.46.26.46h.66a.39.39,0,0,0,.34-.15c.08-.1.1-.13.15-.13.09,0,.62.29.62.41,0,.06-.18.22-.2.26a.538.538,0,0,0-.06.3c0,.32.06,1.73.06,2.01,0,.1,0,.5-.42.5-.21,0-.22-.09-.25-.25a.2.2,0,0,0-.21-.12h-2.41a.268.268,0,0,0-.29.18.478.478,0,0,1-.38.23c-.18,0-.23-.12-.23-.25a1.678,1.678,0,0,1,.02-.29c.03-.34.04-.74.04-1.1s0-1.24-.05-1.56c0-.05-.06-.24-.06-.28s.06-.06.08-.06c.1,0,.16.03.4.17a1.064,1.064,0,0,0,.57.13h.59Zm-.74.21c-.07,0-.25,0-.25.21,0,.38,0,.47.25.47h2.48c.08,0,.25,0,.25-.21,0-.38,0-.47-.25-.47Zm0,.9c-.08,0-.25,0-.25.21,0,.34,0,.43.25.43h2.47c.08,0,.25,0,.25-.21,0-.34,0-.43-.25-.43Zm-.02.86a.2.2,0,0,0-.22.2c0,.36,0,.46.22.46h2.52c.22,0,.22-.15.22-.34s0-.33-.22-.33h-2.52Zm2.42,2.06c1.33.53,1.84.74,1.84,1.25a.274.274,0,0,1-.27.31c-.13,0-.2-.06-.8-.64-.19-.18-1.48-1.07-1.45-1.14a3.629,3.629,0,0,1,.68.21Z" fill="#3e3a39"/>
  <path id="パス_999" data-name="パス 999" d="M532.61,3.24a.163.163,0,0,1-.03-.06c0-.02,0-.02.02-.02.04,0,.21.02.25.02.72.03.8.04,1.07.04h1.01c.08,0,.18,0,.22-.09.03-.05.03-.97.03-1.13,0-.19-.03-.26-.23-.26h-1.61c-.7,0-.94.02-1.01.02-.03,0-.14.02-.17.02s-.05-.02-.07-.06l-.16-.18a.219.219,0,0,1-.03-.05c0-.02,0-.02.03-.02.06,0,.3.02.35.02.39.02.72.02,1.09.02h1.55c.11,0,.23,0,.23-.19s-.04-.88-.05-1.06V.17c0-.02.02-.05.04-.05a7.118,7.118,0,0,1,.75.18.106.106,0,0,1,.1.12c0,.04-.06.1-.11.15-.08.08-.13.25-.13.75,0,.19.13.19.25.19h1.48c.36,0,.4,0,.51-.13.22-.27.25-.3.32-.3s.75.42.75.53-.09.11-.41.11h-2.68c-.11,0-.18,0-.22.08a5.7,5.7,0,0,0-.03.74c0,.63.03.66.24.66h.68a.532.532,0,0,0,.43-.17c.19-.22.21-.24.26-.24a3.1,3.1,0,0,1,.7.48.176.176,0,0,1,.07.12c0,.07-.03.08-.31.14-.14.03-.16.06-.45.4a12.364,12.364,0,0,1-1.18,1.3c-.1.09-.21.19-.21.24,0,.12.18.21.5.37a6.917,6.917,0,0,0,2.24.65c.26,0,.29,0,.29.03,0,.06-.44.24-.51.31-.04.04-.22.26-.26.3a.149.149,0,0,1-.09.04,9.215,9.215,0,0,1-2.33-1.11.961.961,0,0,0-.35-.18c-.08,0-.11.02-.41.21a8.129,8.129,0,0,1-2.89,1.15c-.09,0-.11-.05-.11-.06s.06-.03.16-.06a10.215,10.215,0,0,0,2.44-1.3c.22-.16.35-.26.35-.37,0-.06-.03-.1-.28-.42a5.48,5.48,0,0,1-.72-1.38c-.09-.24-.22-.24-.42-.24-.11,0-.62.04-.73.04-.02,0-.04-.02-.07-.05l-.15-.18Zm1.72.19c-.07,0-.2,0-.2.14,0,.24.96,1.55,1.29,1.55.28,0,1.39-1.38,1.39-1.57,0-.12-.08-.12-.29-.12h-2.2Z" fill="#3e3a39"/>
  <path id="パス_1000" data-name="パス 1000" d="M543.06,1.24c.09,0,.25,0,.25-.21,0-.03-.02-.29-.05-.5,0-.06-.09-.3-.09-.34s.05-.07.1-.07c.1,0,.78.04.78.2,0,.03-.11.15-.13.18-.04.06-.04.14-.04.32,0,.32,0,.41.24.41h1.39c.37,0,.42,0,.51-.14.19-.26.21-.3.29-.3a1.773,1.773,0,0,1,.7.54c0,.11-.04.11-.42.11h-5.18c-.25,0-.25.13-.25.45,0,.23.02,1.25.02,1.46a5.435,5.435,0,0,1-.81,3.09c-.08.12-.38.57-.46.57-.02,0-.02-.03-.02-.05s.34-.86.38-.98a8.342,8.342,0,0,0,.35-2.81,16.727,16.727,0,0,0-.11-1.85c0-.05-.07-.26-.07-.3a.066.066,0,0,1,.06-.07c.04,0,.5.18.6.22a1.149,1.149,0,0,0,.41.06h1.55Zm0,3.45c.24,0,.24-.14.24-.37,0-.17.02-.92.02-1.07a10.525,10.525,0,0,0-.06-1.21c0-.03-.04-.18-.04-.22a.089.089,0,0,1,.09-.09c.02,0,.76.12.76.26,0,.04-.14.18-.15.22a1.944,1.944,0,0,0-.06.6c0,.1,0,.26.23.26h.96c.34,0,.38,0,.49-.15.21-.3.22-.33.31-.33.14,0,.7.41.7.54s-.17.14-.42.14H544.1c-.09,0-.18.02-.21.12-.02.03-.03.05-.03,1.02,0,.16,0,.29.24.29h1.06a.388.388,0,0,0,.24-.06c.04-.03.22-.21.26-.21.1,0,.62.3.62.42,0,.06-.19.21-.22.24-.05.05-.05.07-.05.25,0,.23.06,1.41.06,1.48,0,.15,0,.44-.41.44-.21,0-.21-.08-.22-.27,0-.16-.12-.19-.22-.19h-2.77c-.1,0-.19.02-.22.15a.435.435,0,0,1-.45.39c-.21,0-.22-.11-.22-.22,0-.24.04-1.3.04-1.53,0-.37-.02-.64-.03-.81,0-.06-.05-.34-.05-.39,0-.02.03-.04.06-.04.09,0,.16.03.58.26a.787.787,0,0,0,.37.1h.54Zm-.66.22c-.12,0-.21.03-.23.15V6.2c0,.26.02.38.26.38h2.79c.1,0,.21-.04.22-.16V5.26c0-.23,0-.35-.23-.35h-2.8Z" fill="#3e3a39"/>
</svg>
