<svg id="info06-tit-sp" xmlns="http://www.w3.org/2000/svg" width="300" height="21.34" viewBox="0 0 300 21.34">
  <path id="パス_67" data-name="パス 67" d="M5.35,8.2a9.481,9.481,0,0,0,.17,2.23c.24.66,1.02.54,1.61.57v.39c-.87-.02-1.75-.05-2.62-.07-.82.02-1.63.05-2.47.07V11c.54,0,1.24,0,1.43-.57A10.764,10.764,0,0,0,3.62,8.2V3.48a10.863,10.863,0,0,0-.15-2.25C3.27.64,2.58.66,2.04.66V.27c.86.02,1.7.05,2.54.07C5.39.32,6.18.29,6.98.27c1.81.07,3.86.77,3.86,2.91,0,2.45-2.37,3.04-4.37,3.04-.3,0-1.06-.05-1.12-.05V8.2Zm0-2.49c.32.02.66.07.97.07,1.73,0,2.59-.74,2.59-2.55A2.147,2.147,0,0,0,6.51.76C5.28.79,5.35.73,5.35,1.55V5.72Z" fill="#11374c"/>
  <path id="パス_68" data-name="パス 68" d="M22.34,6.94c0,3.06-1.19,4.64-4.38,4.64-3.01,0-4.47-1.06-4.47-4.1V3.46a9.481,9.481,0,0,0-.17-2.23C13.1.66,12.41.66,11.88.66V.27c.79.02,1.6.05,2.39.07.86-.02,1.7-.05,2.55-.07V.66c-.54,0-1.24-.02-1.44.57a10.764,10.764,0,0,0-.15,2.23V7.59c0,2.15.84,3.38,3.14,3.38s3.48-1.21,3.48-3.46V3.83a11.086,11.086,0,0,0-.17-2.4c-.24-.71-.91-.77-1.56-.77V.27c.66.02,1.29.05,1.95.07.62-.02,1.24-.05,1.88-.07V.66c-.54.02-1.13,0-1.36.6a9.092,9.092,0,0,0-.24,2.57V6.94Z" fill="#11374c"/>
  <path id="パス_69" data-name="パス 69" d="M26.64,3.46a10.716,10.716,0,0,0-.15-2.23C26.31.64,25.6.66,25.06.66V.27c.81.02,1.6.05,2.4.07.67-.02,1.33-.05,2-.07,1.76-.05,4.13.4,4.13,2.64,0,1.53-1.24,2.18-2.52,2.57v.03a5.035,5.035,0,0,1,2.45.69,2.767,2.767,0,0,1,1.29,2.32,2.783,2.783,0,0,1-1.63,2.44,6.943,6.943,0,0,1-3.09.44c-.74-.02-1.46-.05-2.2-.07-.94.02-1.9.05-2.84.07v-.39c.54,0,1.24.02,1.43-.57a10.764,10.764,0,0,0,.15-2.23V3.46Zm1.73,1.86h.54a3.613,3.613,0,0,0,2-.35,2.113,2.113,0,0,0,.86-1.98A2.015,2.015,0,0,0,29.47.76a2.825,2.825,0,0,0-.99.08c-.12.1-.1.57-.1.71V5.33Zm0,2.79a7.419,7.419,0,0,0,.2,2.12c.29.72,1.13.71,1.76.71,1.65,0,2.39-.97,2.39-2.57a2.336,2.336,0,0,0-1.21-2.23,5.779,5.779,0,0,0-2.62-.35h-.52V8.12Z" fill="#11374c"/>
  <path id="パス_70" data-name="パス 70" d="M37.47,3.46a9.481,9.481,0,0,0-.17-2.23c-.22-.57-.91-.57-1.45-.57V.27c.81.02,1.6.05,2.4.07.86-.02,1.7-.05,2.55-.07V.66c-.54,0-1.23,0-1.44.57a9.524,9.524,0,0,0-.17,2.23V8.43c0,2.15.34,2.5,2.47,2.5a4.3,4.3,0,0,0,2.38-.42c.84-.52.94-1.16,1.09-2.1h.42l-.15,2.97c-.29-.02-.59-.03-.87-.07-2.89.05-5.8.05-8.69.07v-.39c.54,0,1.23,0,1.45-.57a9.524,9.524,0,0,0,.17-2.23V3.46Z" fill="#11374c"/>
  <path id="パス_71" data-name="パス 71" d="M48.09,3.46a9.481,9.481,0,0,0-.17-2.23C47.7.66,47.01.66,46.48.66V.27c.81.02,1.61.05,2.42.07.86-.02,1.7-.05,2.54-.07V.66c-.54,0-1.23,0-1.45.57a9.524,9.524,0,0,0-.17,2.23V8.2a9.481,9.481,0,0,0,.17,2.23c.22.57.91.57,1.45.57v.39c-.79-.02-1.61-.05-2.42-.07-.84.02-1.7.05-2.54.07V11c.54,0,1.23,0,1.44-.57a9.524,9.524,0,0,0,.17-2.23Z" fill="#11374c"/>
  <path id="パス_72" data-name="パス 72" d="M62.4.32h.25l.13,3.31h-.39A3.494,3.494,0,0,0,58.85.45c-3.01,0-3.91,2.97-3.91,5.49s.97,5.24,3.95,5.24c2.35,0,3.21-1.68,3.71-3.7h.3v3.68h-.22l-.4-.86a5.607,5.607,0,0,1-3.71,1.26,5.354,5.354,0,0,1-5.73-5.63A5.659,5.659,0,0,1,58.73.07a5.768,5.768,0,0,1,3.41,1.04l.27-.79Z" fill="#11374c"/>
  <path id="パス_73" data-name="パス 73" d="M75.42,8.35l.87-1.46c.5-.94,1.13-2.2,2.35-2.2a1.179,1.179,0,0,1,1.21,1.13.922.922,0,0,1-.87.92.743.743,0,0,1-.76-.81c0-.15.07-.5-.17-.5-.47,0-1.09,1.18-1.26,1.51L75.9,8.47l-.15.24c.64.64,1.8,1.93,2.74,1.93a1.884,1.884,0,0,0,1.38-.82l.29.27a3.133,3.133,0,0,1-2.54,1.44A4.2,4.2,0,0,1,74.7,9.95a4.6,4.6,0,0,1-3.48,1.63,2.272,2.272,0,0,1-2.44-2.05c0-1.71,1.45-2.69,2.77-3.46a5.672,5.672,0,0,1-1.18-3.23A2.653,2.653,0,0,1,72.97.07a2.135,2.135,0,0,1,2.29,2.2c0,1.34-1.19,2.5-2.25,3.23l2.4,2.86ZM71.77,6.42c-.76.69-1.48,1.19-1.48,2.34a1.937,1.937,0,0,0,1.88,2.05,3.206,3.206,0,0,0,2.2-1.18l-.08-.08L71.77,6.43Zm2.42-4c0-.86-.35-1.9-1.39-1.9A1.411,1.411,0,0,0,71.39,2.1a5.594,5.594,0,0,0,1.36,3.04A3.258,3.258,0,0,0,74.2,2.42Z" fill="#11374c"/>
  <path id="パス_74" data-name="パス 74" d="M95.33.32h.25l.13,3.31h-.39A3.494,3.494,0,0,0,91.78.45c-3.01,0-3.91,2.97-3.91,5.49s.97,5.24,3.95,5.24c2.35,0,3.21-1.68,3.71-3.7h.3v3.68h-.22l-.4-.86a5.607,5.607,0,0,1-3.71,1.26,5.354,5.354,0,0,1-5.73-5.63A5.656,5.656,0,0,1,91.65.07a5.768,5.768,0,0,1,3.41,1.04Z" fill="#11374c"/>
  <path id="パス_75" data-name="パス 75" d="M107.43,6.94c0,3.06-1.19,4.64-4.38,4.64-3.01,0-4.47-1.06-4.47-4.1V3.46a9.481,9.481,0,0,0-.17-2.23C98.19.66,97.5.66,96.97.66V.27c.79.02,1.6.05,2.39.07.86-.02,1.7-.05,2.55-.07V.66c-.54,0-1.24-.02-1.44.57a10.764,10.764,0,0,0-.15,2.23V7.59c0,2.15.84,3.38,3.14,3.38s3.48-1.21,3.48-3.46V3.83a11.086,11.086,0,0,0-.17-2.4c-.24-.71-.91-.77-1.56-.77V.27c.66.02,1.29.05,1.95.07.62-.02,1.24-.05,1.88-.07V.66c-.54.02-1.13,0-1.36.6a9.092,9.092,0,0,0-.24,2.57V6.94Z" fill="#11374c"/>
  <path id="パス_76" data-name="パス 76" d="M111.73,3.46a9.481,9.481,0,0,0-.17-2.23c-.22-.57-.91-.57-1.45-.57V.27c.81.02,1.6.05,2.4.07.86-.02,1.7-.05,2.55-.07V.66c-.54,0-1.23,0-1.44.57a9.524,9.524,0,0,0-.17,2.23V8.43c0,2.15.34,2.5,2.47,2.5a4.3,4.3,0,0,0,2.38-.42c.84-.52.94-1.16,1.09-2.1h.42l-.15,2.97c-.29-.02-.59-.03-.87-.07-2.89.05-5.8.05-8.69.07v-.39c.54,0,1.23,0,1.45-.57a9.524,9.524,0,0,0,.17-2.23V3.46Z" fill="#11374c"/>
  <path id="パス_77" data-name="パス 77" d="M129.61,2.89h-.45c-.1-1.65-.74-2.08-2.32-2.08-.62,0-1.63-.08-1.63.45V9.22c0,1.24.23,1.71,1.86,1.78v.39c-.92-.02-1.86-.05-2.79-.07-.89.02-1.76.05-2.67.07V11c1.63-.07,1.87-.54,1.87-1.78V1.26c0-.5-.74-.45-1.41-.45-1.66,0-2.47.08-2.54,2.08h-.39V.27h10.32l.15,2.62Z" fill="#11374c"/>
  <path id="パス_78" data-name="パス 78" d="M140.9,6.94c0,3.06-1.19,4.64-4.38,4.64-3.01,0-4.47-1.06-4.47-4.1V3.46a9.481,9.481,0,0,0-.17-2.23c-.22-.57-.91-.57-1.44-.57V.27c.79.02,1.6.05,2.39.07.86-.02,1.7-.05,2.55-.07V.66c-.54,0-1.24-.02-1.44.57a10.764,10.764,0,0,0-.15,2.23V7.59c0,2.15.84,3.38,3.14,3.38s3.48-1.21,3.48-3.46V3.83a11.086,11.086,0,0,0-.17-2.4c-.24-.71-.91-.77-1.56-.77V.27c.66.02,1.29.05,1.95.07.62-.02,1.24-.05,1.88-.07V.66c-.54.02-1.13,0-1.36.6a9.091,9.091,0,0,0-.24,2.57V6.94Z" fill="#11374c"/>
  <path id="パス_79" data-name="パス 79" d="M153.01,10.01a2.22,2.22,0,0,0,1.65.99v.39c-.5-.02-1.01-.05-1.51-.07-.42.02-.84.05-1.26.07l-.79-.97-2.79-3.46c-.55-.64-.49-.74-1.38-.74V8.2a10.716,10.716,0,0,0,.15,2.23c.2.59.89.57,1.43.57v.39c-.77-.02-1.56-.05-2.37-.07-.84.02-1.68.05-2.52.07V11c.54,0,1.24,0,1.43-.57a10.764,10.764,0,0,0,.15-2.23V3.46a10.716,10.716,0,0,0-.15-2.23c-.18-.59-.89-.57-1.43-.57V.27c.96.02,1.93.05,2.89.07.71-.02,1.43-.05,2.13-.07,1.92,0,3.85.44,3.85,2.77,0,1.81-1.38,2.74-3.04,2.89l3.56,4.08Zm-6.08-4.25c2.1,0,3.63-.05,3.63-2.49A2.269,2.269,0,0,0,148.21.75a5.594,5.594,0,0,0-1.09.02c-.22.1-.18.42-.18.6V5.75Z" fill="#11374c"/>
  <path id="パス_80" data-name="パス 80" d="M156.97,7.74a9.743,9.743,0,0,0-.81,2.54c0,.72.86.67,1.36.72v.39c-.62-.02-1.23-.05-1.85-.07-.59.02-1.16.05-1.75.07V11a1.619,1.619,0,0,0,1.61-1.19c.47-1.08.92-2.13,1.39-3.21L159.49,0h.57l3.39,8.53a12.486,12.486,0,0,0,.87,1.85,1.856,1.856,0,0,0,1.45.62v.39c-.79-.02-1.6-.05-2.39-.07-.81.02-1.63.05-2.44.07V11c.47-.02,1.29.02,1.29-.64a3.79,3.79,0,0,0-.34-1.31l-.66-1.73h-4.15l-.15.42Zm4.08-.96L159.2,2.04l-1.86,4.74Z" fill="#11374c"/>
  <path id="パス_81" data-name="パス 81" d="M167.54,3.46a9.481,9.481,0,0,0-.17-2.23c-.22-.57-.91-.57-1.45-.57V.27c.81.02,1.6.05,2.4.07.86-.02,1.7-.05,2.55-.07V.66c-.54,0-1.23,0-1.44.57a9.524,9.524,0,0,0-.17,2.23V8.43c0,2.15.34,2.5,2.47,2.5a4.3,4.3,0,0,0,2.38-.42c.84-.52.94-1.16,1.09-2.1h.42l-.15,2.97c-.29-.02-.59-.03-.87-.07-2.89.05-5.8.05-8.69.07v-.39c.54,0,1.23,0,1.45-.57a9.524,9.524,0,0,0,.17-2.23V3.46Z" fill="#11374c"/>
  <path id="パス_82" data-name="パス 82" d="M213.89,3.64c0,.08-.02.08-.28.12-.06,0-.08.04-.28.37a8.667,8.667,0,0,1-2.03,2.43,1.588,1.588,0,0,1-.55.31s-.05,0-.05-.03a5.2,5.2,0,0,1,.41-.42,8.834,8.834,0,0,0,1.85-3.2c.05-.23.09-.23.12-.23a.261.261,0,0,1,.08.03c.02.02.73.47.73.63Zm2.78,6.19c-.02-.07-.2-.54-.24-.63s-.08-.13-.16-.13c-.1,0-1.73.37-2.05.42-.37.07-2.17.4-2.3.45a1.429,1.429,0,0,1-.26.19c-.07,0-.11-.07-.18-.25-.09-.21-.25-.59-.25-.62,0-.05.04-.06.1-.06a4.025,4.025,0,0,0,1.43-.14,16.044,16.044,0,0,0,.86-2.52,2.59,2.59,0,0,0,.1-.61c0-.08.02-.14.09-.14.09,0,.87.35.87.51,0,.1-.07.12-.22.15s-.17.03-.76,1.29c-.09.21-.61,1.2-.61,1.26,0,.09.1.11.16.11.28,0,2.27-.17,2.38-.17.51-.05.57-.05.57-.13,0-.17-.77-1.13-.77-1.23l.02-.03c.27,0,1.91,1.47,1.91,2.19a.524.524,0,0,1-.37.53c-.19.02-.24-.1-.35-.44Zm-2.42-6.57a.2.2,0,0,1-.02-.06.02.02,0,0,1,.02-.02c.07,0,.54.07.64.07.17,0,.2-.04.32-.18.23-.27.27-.3.32-.3.1,0,.61.46.61.58,0,.1-.07.1-.31.1-.07,0-.19,0-.19.13a4.5,4.5,0,0,0,2.4,2.8c.19.1.21.12.21.15,0,.06-.08.06-.14.06a1.049,1.049,0,0,0-.56.12c-.04.03-.17.22-.21.22a5.834,5.834,0,0,1-1.94-3.17c-.03-.26-.04-.31-.2-.31a3.6,3.6,0,0,0-.57.02c-.02,0-.16.02-.19.02-.02-.02-.03-.04-.04-.05l-.14-.19Z" fill="#11374c"/>
  <path id="パス_83" data-name="パス 83" d="M223.92,4.9a.205.205,0,0,0,.21-.16V3.98c0-.09-.02-.71-.02-.87,0-.03-.02-.21-.02-.26,0-.02,0-.08.06-.08a3.291,3.291,0,0,1,.62.16c.09.02.2.06.2.17,0,.05-.16.26-.17.31-.02.08-.05,1.14-.05,1.29,0,.21.09.21.3.21.15,0,.27,0,.46-.26.16-.22.22-.25.27-.25a2.746,2.746,0,0,1,.79.61c0,.12-.17.12-.45.12h-1.17c-.21,0-.21.17-.21.24V7.18c0,.1,0,.26.22.26h.37a.587.587,0,0,0,.62-.32c.15-.2.21-.23.27-.23a2.555,2.555,0,0,1,.83.66c0,.12-.17.12-.45.12h-5.73c-.2,0-.76,0-1.05.02-.02,0-.15.02-.17.02s-.04-.02-.07-.05l-.16-.19a.163.163,0,0,1-.03-.06.02.02,0,0,1,.02-.02c.05,0,.31.02.37.02.24,0,.84.03,1.14.03h.62a.188.188,0,0,0,.21-.19V5.41c0-.12,0-.27-.22-.27h-.25c-.55,0-.83,0-.98.02-.02,0-.15.02-.17.02s-.04-.02-.07-.05l-.16-.19s-.04-.04-.04-.06.02-.02.03-.02c.05,0,.32.02.37.02.34.02.83.03,1.06.03h.21c.21,0,.21-.15.21-.27,0-.23-.02-1.24-.04-1.4,0-.06-.05-.37-.05-.4,0-.05.02-.06.06-.06.06,0,.85.12.85.27,0,.06-.16.28-.17.34-.02.08-.02,1.1-.02,1.25,0,.12,0,.27.21.27h1.38Zm-1.18,3.84c0,.1-.12.12-.23.16a1,1,0,0,0-.4.21,6.978,6.978,0,0,1-2.44,1.23c-.02,0-.03,0-.03-.02,0-.07.04-.09.43-.32a5.766,5.766,0,0,0,1.55-1.45c.04-.06.16-.25.24-.37.02-.03.05-.08.09-.09C222.02,8.09,222.74,8.61,222.74,8.74Zm1.17-1.32c.21,0,.21-.15.21-.32,0-.24.02-1.44.02-1.71,0-.12,0-.27-.22-.27h-1.38c-.21,0-.21.16-.21.26,0,.29.02,1.71.02,1.81,0,.08,0,.24.21.24h1.34Zm2.71,2.44a.352.352,0,0,1-.32.38c-.15,0-.19-.04-.56-.48a6.577,6.577,0,0,0-1.4-1.27c-.17-.12-.19-.14-.19-.19s.02-.06.07-.06a2.092,2.092,0,0,1,.34.08c.52.17,2.07.84,2.07,1.54Z" fill="#11374c"/>
  <path id="パス_84" data-name="パス 84" d="M228.86,6.52a.548.548,0,0,1,.55-.55.542.542,0,0,1,.55.55.55.55,0,0,1-1.1,0Z" fill="#11374c"/>
  <path id="パス_85" data-name="パス 85" d="M234.41,4.48s-.11.02-.11.08a10.751,10.751,0,0,0,.32,1.06c.61,1.71,1.05,1.82,1.07,1.82.27,0,1-1.94,1-2.8,0-.04,0-.11.07-.11.02,0,.81.28.81.41,0,.04-.04.07-.13.13a.719.719,0,0,0-.17.3,14.252,14.252,0,0,1-.86,2.09,1.708,1.708,0,0,0-.2.42c0,.2.51.64,1.4,1.06a4.816,4.816,0,0,0,1.82.5c.02,0,.07,0,.07.03,0,.06-.02.07-.23.12a2.273,2.273,0,0,0-.59.24c-.05.03-.27.26-.34.26a6.3,6.3,0,0,1-1.93-1.15,3.6,3.6,0,0,0-.64-.47c-.06,0-.09.03-.41.29a5.678,5.678,0,0,1-3.29,1.44c-.06,0-.09-.02-.09-.04a2.963,2.963,0,0,1,.51-.18,5.276,5.276,0,0,0,2.81-2.03c0-.07-.03-.13-.31-.63a7.605,7.605,0,0,1-.88-2.65c-.02-.17-.02-.19-.18-.19h-.41c-.2,0-.76,0-1.05.02-.02,0-.15.02-.18.02s-.04-.02-.07-.05l-.17-.19a.163.163,0,0,1-.03-.06c0-.02.02-.02.03-.02.05,0,.3.02.36.02.24,0,.67.03,1.15.03h1.47c.24,0,.24-.15.24-.27,0-.41-.02-.77-.03-.89,0-.04-.03-.23-.03-.28s.02-.05.06-.05a6.378,6.378,0,0,1,.64.12c.05,0,.24.05.24.18,0,.05-.19.21-.21.26a1.813,1.813,0,0,0-.05.39c0,.44,0,.54.25.54h1.62a1.285,1.285,0,0,0,.4-.03c.08-.03.37-.41.46-.41.05,0,.77.44.77.56s-.17.11-.44.11h-4.53Z" fill="#11374c"/>
  <path id="パス_86" data-name="パス 86" d="M242.73,5.61c-.06.17-.09,2.83-.09,3.46,0,.12.02.64,0,.75a.562.562,0,0,1-.46.45c-.18,0-.18-.21-.18-.29,0-.16.05-.86.06-1.01,0-.22.08-2.05.08-2.59,0-.62-.02-.64-.08-.64-.04,0-.07.05-.23.26-.24.32-.92,1.2-1.07,1.2a.054.054,0,0,1-.05-.05c0-.03.77-1.29.9-1.54a15.61,15.61,0,0,0,1.17-2.64q.06-.26.11-.26s.84.35.84.48c0,.06-.24.21-.27.24a4.89,4.89,0,0,0-.64,1.01,2.349,2.349,0,0,0-.27.56c0,.09.06.14.14.18.12.06.17.1.17.19a1.709,1.709,0,0,1-.13.23Zm4.96-.8a.78.78,0,0,0-.5.21,11.462,11.462,0,0,1-1.59,1.11c-.22.13-.57.33-.63.49-.03.11-.04,1.55-.04,1.82,0,1.14,0,1.16,1.15,1.16,1.04,0,1.15-.06,1.25-.21a2.361,2.361,0,0,0,.15-.85c.02-.27.02-.3.09-.3.05,0,.05,0,.08.3a2.423,2.423,0,0,0,.22.79c.02.05.2.28.2.35,0,.47-1.06.47-1.53.47-2.17,0-2.17-.22-2.17-1.12,0-.78.05-4.21.05-4.92a6.551,6.551,0,0,0-.03-.97c0-.04-.04-.26-.04-.31,0-.07.02-.1.06-.1a3.677,3.677,0,0,1,.47.16c.3.11.33.12.33.19a.212.212,0,0,1-.03.07c-.12.11-.12.12-.14.2-.03.14-.07,2.12-.07,2.51,0,.08,0,.25.1.25a8.423,8.423,0,0,0,2.02-1.98c.02-.04.14-.19.17-.19s.73.61.65.79c-.03.07-.16.08-.22.08Z" fill="#11374c"/>
  <path id="パス_87" data-name="パス 87" d="M250.98,4.52s-.06,0-.06.03.08.07.13.09.13.08.13.12-.13.17-.14.2c-.02.09-.06.68-.06.73,0,.09.02.22.23.22h.29a.282.282,0,0,0,.27-.12c.06-.07.16-.19.19-.19.06,0,.56.38.56.49,0,.05-.12.16-.18.21s-.07.09-.07.31a9.3,9.3,0,0,1-.42,2.75,1.622,1.622,0,0,1-.51.75.91.91,0,0,1-.39.17c-.04,0-.04-.03-.06-.13a.99.99,0,0,0-.42-.64s-.08-.06-.08-.08c0,0,.02-.02.03-.02s.41.1.49.1c.25,0,.42,0,.61-.91a16.133,16.133,0,0,0,.24-2.23c0-.11-.03-.22-.24-.22h-.35c-.23,0-.24.09-.27.33-.33,2.58-1.43,3.48-1.57,3.48a.02.02,0,0,1-.02-.02s.37-.61.41-.71a10.647,10.647,0,0,0,.74-3.97c0-.67,0-.72-.23-.72-.1,0-.61.04-.69.04-.03,0-.05-.02-.07-.06l-.16-.19s-.04-.04-.04-.05.02-.02.03-.02c.16,0,.87.05,1.01.05.17,0,.26-.03.26-.22a5.377,5.377,0,0,0-.06-.98c0-.05-.11-.29-.11-.31s.02-.03.04-.03c0,0,.94.19.94.32,0,.05-.18.22-.21.26a1.883,1.883,0,0,0-.07.66c0,.17,0,.31.22.31s.24,0,.29-.04c.07-.06.25-.46.33-.46.1,0,.64.44.64.59s-.1.14-.19.14h-1.43Zm2.42-.05c-.24,0-.27.04-.58.45-.08.12-.38.51-.45.51a.02.02,0,0,1-.02-.02c0-.03.16-.31.18-.37a7.8,7.8,0,0,0,.68-2.12c0-.03-.02-.17-.02-.19a.066.066,0,0,1,.06-.07,6.139,6.139,0,0,1,.71.37c.06.03.11.05.11.12,0,.05-.02.06-.15.16a3.683,3.683,0,0,0-.55.87c0,.08.09.08.16.08h1.8c.32,0,.33-.02.37-.06.06-.07.27-.44.35-.44.05,0,.76.51.76.63,0,.09-.24.09-.55.09H253.4Zm.74,2.05a.261.261,0,0,0,.23-.2c.02-.07.02-.82.02-.96a1.215,1.215,0,0,0-.04-.41c0-.03-.11-.16-.11-.19s.02-.05.07-.05.71.1.71.22c0,.03-.12.13-.12.17a6.359,6.359,0,0,0-.03.78c0,.17,0,.37.18.37l.12-.02.22-.07a.475.475,0,0,0,.34-.25c.14-.22.15-.25.22-.25s.53.24.53.36a.837.837,0,0,1-.16.27c-.05.08-.02,1.2-.04,1.42-.08.95-.64,1-.66,1s-.03-.02-.08-.13a.942.942,0,0,0-.32-.38c-.02-.03-.22-.09-.22-.12s.02-.03.28-.03c.45,0,.45-.14.45-.94,0-.68,0-.74-.18-.74a.274.274,0,0,0-.12.02l-.3.08c-.12.03-.25.07-.25.33s.04,1.57.04,1.69a.42.42,0,0,1-.4.43.142.142,0,0,1-.12-.07V8.33c0-.18,0-1.39-.02-1.48a.139.139,0,0,0-.13-.13.386.386,0,0,0-.11.02l-.28.08c-.22.07-.22.17-.22.44V9.04c0,.55.19.55.98.55a5.368,5.368,0,0,0,1.34-.11c.17-.04.21-.09.33-.32.07-.13.36-.89.38-.89s.03.07.03.08c0,.04-.02.25-.02.3a.879.879,0,0,0,.11.51,1.345,1.345,0,0,1,.12.24.8.8,0,0,1-.31.43c-.3.21-.77.25-2.03.25-.87,0-1.34-.05-1.39-.69,0-.07-.02-1.4-.02-2.03,0-.21,0-.3-.12-.3a3.071,3.071,0,0,0-.37.13c-.01,0-.02,0-.07-.03l-.21-.14s-.05-.03-.05-.04.51-.12.61-.16c.2-.07.2-.13.2-.72a2.09,2.09,0,0,0-.09-.73c0-.03-.07-.18-.07-.21s.02-.06.07-.06c0,0,.76.22.76.31,0,.04-.17.2-.18.24a5.53,5.53,0,0,0-.02.6c0,.22.02.36.15.36a.721.721,0,0,0,.11-.02l.26-.08Z" fill="#11374c"/>
  <path id="パス_88" data-name="パス 88" d="M260.18,4.32c.19,0,.22,0,.35-.19.05-.07.15-.19.21-.19.09,0,.56.38.56.5s-.09.11-.23.11h-2.6c-.02,0-.13.02-.16.02s-.06-.02-.09-.06l-.11-.15a.558.558,0,0,1-.05-.08c0-.02.03-.02.04-.02.03,0,.17.03.2.03a5.053,5.053,0,0,0,.56.03h1.32Zm-.21,1.13c.17,0,.22,0,.33-.13s.15-.16.19-.16c.12,0,.5.29.5.41s-.1.11-.23.11h-1.79c-.04,0-.23.02-.27.02s-.05-.02-.07-.04l-.12-.2a.257.257,0,0,1-.02-.05c0-.02.02-.02.04-.02s.15.03.17.03a5.278,5.278,0,0,0,.59.03h.66Zm-.02,1.03c.17,0,.22,0,.3-.12.12-.17.16-.18.19-.18.11,0,.52.33.52.43s-.09.09-.22.09h-1.4c-.1,0-.58.02-.61.02-.05,0-.07-.02-.07-.04l-.12-.18a.257.257,0,0,1-.02-.05c0-.03.02-.03.03-.03.04,0,.25.03.29.03.29.02.32.02.47.02h.63Zm0-3.28c.17,0,.21,0,.32-.14.05-.06.15-.18.23-.18.1,0,.51.31.51.44,0,.1-.1.1-.23.1h-1.89c-.02,0-.14.02-.17.02s-.05-.02-.07-.05l-.11-.18a.2.2,0,0,1-.02-.06.032.032,0,0,1,.03-.03,2.336,2.336,0,0,1,.26.04c.31.02.34.03.51.03h.61Zm-.52,6.33c-.24,0-.24.09-.24.36,0,.36-.4.43-.45.43-.12,0-.17-.08-.17-.22,0-.22.02-1.25.02-1.48,0-.41-.02-.62-.04-.93,0-.05-.02-.21-.02-.24,0-.05,0-.07.03-.07a5.152,5.152,0,0,1,.52.21,1,1,0,0,0,.34.05h.61a.287.287,0,0,0,.27-.13c.12-.16.13-.17.2-.17.12,0,.45.29.45.41,0,.05-.02.07-.13.22a.2.2,0,0,0-.05.14c0,.21.04,1.23.04,1.46a.369.369,0,0,1-.39.34c-.16,0-.17-.07-.18-.22-.02-.1-.11-.14-.22-.14h-.61Zm-.05-1.68c-.17,0-.25.07-.25.22,0,.07.02,1.07.04,1.13.04.11.17.11.23.11h.62c.26,0,.26-.08.26-.41V8.02c0-.12-.12-.17-.23-.17h-.66Zm4.47-1.48a.664.664,0,0,0,.33-.06,1.868,1.868,0,0,1,.32-.2c.11,0,.46.43.46.55,0,.07-.02.08-.23.14-.14.04-.17.11-.44.66a4.948,4.948,0,0,1-.63.95c-.13.16-.15.17-.15.2a2.558,2.558,0,0,0,1.52.89c.1.03.52.11.61.13,0,0,.05.02.05.03a3.564,3.564,0,0,1-.55.21.794.794,0,0,0-.32.27c-.02.02-.04.05-.07.05a4.908,4.908,0,0,1-1.45-.96c-.15-.16-.17-.17-.21-.17s-.32.26-.39.31a4.825,4.825,0,0,1-1.73.9c-.02,0-.05,0-.05-.03s.16-.12.17-.13a6.265,6.265,0,0,0,1.57-1.26.447.447,0,0,0,.14-.21.913.913,0,0,0-.07-.14,5.44,5.44,0,0,1-.57-1.71c-.03-.17-.12-.17-.19-.17-.04,0-.28.02-.29.02-.05,0-.06-.02-.08-.05l-.17-.19a.163.163,0,0,1-.03-.06c0-.02.02-.02.04-.02s.28.03.33.03c.3.02.87.03,1.16.03h.92Zm-1.08-3.06c-.23,0-.23.12-.23.28,0,1.28-.35,1.66-.56,1.88a1.8,1.8,0,0,1-.74.51s-.03,0-.03-.02a1.57,1.57,0,0,1,.24-.29A2.376,2.376,0,0,0,262,3.92c0-.17,0-.43-.02-.71,0-.05-.05-.27-.05-.32,0,0,0-.04.02-.04.05,0,.43.16.5.18a.646.646,0,0,0,.32.06h.48a.288.288,0,0,0,.22-.07c.05-.04.28-.28.36-.28.12,0,.44.39.44.49,0,.04-.02.07-.07.1a.916.916,0,0,0-.14.07,2.174,2.174,0,0,0-.07.76c0,.91,0,1.02.47,1.02.4,0,.42-.07.51-.34a3.456,3.456,0,0,1,.17-.58,6.929,6.929,0,0,1,.16.7c.02.05.17.24.17.29a.5.5,0,0,1-.24.34,1.484,1.484,0,0,1-.77.13c-.71,0-1-.08-1-.79V3.52c0-.21-.17-.21-.24-.21h-.45Zm-.11,3.28c-.24,0-.32.02-.32.13,0,.46.58,1.5.8,1.5s.9-1.26.9-1.49c0-.11-.09-.15-.2-.15h-1.17Z" fill="#11374c"/>
  <path id="パス_102" data-name="パス 102" d="M0,0H300" transform="translate(0 18.63)" fill="none" stroke="#11374c" stroke-width="0.5"/>
  <rect id="長方形_6" data-name="長方形 6" width="176.68" height="5.42" transform="translate(0 15.92)" fill="#11374c"/>
  <line id="線_17" data-name="線 17" x1="9.51" transform="translate(195.5 6.93)" fill="none" stroke="#11374c" stroke-miterlimit="10" stroke-width="0.3"/>
  <line id="線_18" data-name="線 18" x2="9.51" transform="translate(271.26 6.93)" fill="none" stroke="#11374c" stroke-miterlimit="10" stroke-width="0.3"/>
</svg>
