<svg id="info02-tit-sp" xmlns="http://www.w3.org/2000/svg" width="300.5" height="21.34" viewBox="0 0 300.5 21.34">
  <path id="パス_13" data-name="パス 13" d="M5.35,8.2a9.481,9.481,0,0,0,.17,2.23c.24.66,1.02.54,1.61.57v.39c-.87-.02-1.75-.05-2.62-.07-.82.02-1.63.05-2.47.07V11c.54,0,1.24,0,1.43-.57A10.764,10.764,0,0,0,3.62,8.2V3.48a10.863,10.863,0,0,0-.15-2.25C3.27.64,2.58.66,2.04.66V.27c.86.02,1.7.05,2.54.07C5.39.32,6.18.29,6.98.27c1.81.07,3.86.77,3.86,2.91,0,2.45-2.37,3.04-4.37,3.04-.3,0-1.06-.05-1.13-.05V8.2Zm0-2.49c.32.02.66.07.97.07,1.73,0,2.59-.74,2.59-2.55A2.147,2.147,0,0,0,6.51.76C5.28.79,5.35.73,5.35,1.55V5.72Z" fill="#11374c"/>
  <path id="パス_14" data-name="パス 14" d="M13.84,7.74a9.743,9.743,0,0,0-.81,2.54c0,.72.86.67,1.36.72v.39c-.62-.02-1.23-.05-1.85-.07-.59.02-1.16.05-1.75.07V11A1.619,1.619,0,0,0,12.4,9.81c.47-1.08.92-2.13,1.39-3.21L16.36,0h.57l3.39,8.53a12.485,12.485,0,0,0,.87,1.85,1.85,1.85,0,0,0,1.44.62v.39c-.79-.02-1.6-.05-2.39-.07-.81.02-1.63.05-2.44.07V11c.47-.02,1.29.02,1.29-.64a3.79,3.79,0,0,0-.34-1.31l-.66-1.73H13.94l-.15.42Zm4.08-.96L16.07,2.04,14.21,6.78Z" fill="#11374c"/>
  <path id="パス_15" data-name="パス 15" d="M32.97,10.01a2.22,2.22,0,0,0,1.65.99v.39c-.5-.02-1.01-.05-1.51-.07-.42.02-.84.05-1.26.07l-.79-.97L28.27,6.96c-.55-.64-.49-.74-1.38-.74V8.2a10.716,10.716,0,0,0,.15,2.23c.2.59.89.57,1.43.57v.39c-.77-.02-1.56-.05-2.37-.07-.84.02-1.68.05-2.52.07V11c.54,0,1.24,0,1.43-.57a10.764,10.764,0,0,0,.15-2.23V3.46a10.716,10.716,0,0,0-.15-2.23c-.19-.59-.89-.57-1.43-.57V.27c.96.02,1.93.05,2.89.07C27.18.32,27.9.29,28.6.27c1.91,0,3.85.44,3.85,2.77,0,1.81-1.38,2.74-3.04,2.89l3.56,4.08ZM26.89,5.76c2.1,0,3.63-.05,3.63-2.49A2.269,2.269,0,0,0,28.17.75a5.594,5.594,0,0,0-1.09.02c-.22.1-.19.42-.19.6V5.75Z" fill="#11374c"/>
  <path id="パス_16" data-name="パス 16" d="M38.82,7.21V9.19c0,1.6.05,1.68,1.66,1.81v.39c-.82-.02-1.63-.05-2.45-.07-.86.02-1.7.05-2.55.07V11c.54,0,1.23,0,1.44-.57a9.524,9.524,0,0,0,.17-2.23V3.46a9.481,9.481,0,0,0-.17-2.23C36.7.66,36.01.66,35.48.66V.27c.81.02,1.6.05,2.4.07.87-.02,1.73-.05,2.6-.07V.66c-1.61.13-1.66.23-1.66,1.81v4.1c.81-.84,4.05-4.27,4.05-5.24,0-.71-.76-.62-1.26-.67V.27c.67.02,1.33.05,2,.07C44.2.32,44.77.29,45.36.27V.66a1.763,1.763,0,0,0-1.7.94L40.97,4.93l2.34,2.69a24.848,24.848,0,0,0,2.76,3.14,1.567,1.567,0,0,0,.99.25v.39c-.89-.02-1.78-.05-2.67-.07-.86.02-1.7.05-2.55.07v-.39c.3,0,1.41.05,1.41-.5a7.639,7.639,0,0,0-1.33-1.92L39.87,6.12,38.83,7.21Z" fill="#11374c"/>
  <line id="線_4" data-name="線 4" x2="300.5" transform="translate(0 18.63)" fill="none" stroke="#11374c" stroke-miterlimit="10" stroke-width="0.5"/>
  <rect id="長方形_2" data-name="長方形 2" width="48.59" height="5.42" transform="translate(0 15.92)" fill="#11374c"/>
  <path id="パス_17" data-name="パス 17" d="M88.07,3.64c0,.08-.02.08-.28.12-.06,0-.08.04-.28.37a8.667,8.667,0,0,1-2.03,2.43,1.588,1.588,0,0,1-.55.31s-.05,0-.05-.03a5.194,5.194,0,0,1,.41-.42,8.834,8.834,0,0,0,1.85-3.2c.05-.23.09-.23.12-.23a.261.261,0,0,1,.08.03c.02.02.73.47.73.63Zm2.78,6.19c-.02-.07-.2-.54-.24-.63s-.08-.13-.16-.13c-.1,0-1.73.37-2.05.42-.37.07-2.17.4-2.3.45a1.429,1.429,0,0,1-.26.19c-.07,0-.11-.07-.18-.25-.09-.21-.25-.59-.25-.62,0-.05.04-.06.1-.06a4.025,4.025,0,0,0,1.43-.14,16.045,16.045,0,0,0,.86-2.52,2.59,2.59,0,0,0,.1-.61c0-.08.02-.14.09-.14.09,0,.87.35.87.51,0,.1-.07.12-.22.15s-.17.03-.76,1.3c-.09.21-.61,1.2-.61,1.26,0,.09.1.11.16.11.28,0,2.27-.17,2.38-.17.51-.05.57-.05.57-.13,0-.17-.77-1.13-.77-1.23l.02-.03c.27,0,1.91,1.47,1.91,2.19a.524.524,0,0,1-.37.53c-.19.02-.24-.1-.35-.44ZM88.43,3.26a.2.2,0,0,1-.02-.06.02.02,0,0,1,.02-.02c.07,0,.54.07.64.07.17,0,.2-.04.32-.18.23-.27.27-.3.32-.3.1,0,.61.46.61.58,0,.1-.07.1-.31.1-.07,0-.19,0-.19.13a4.5,4.5,0,0,0,2.4,2.8c.19.1.21.12.21.15,0,.06-.08.06-.14.06a1.049,1.049,0,0,0-.56.12c-.04.03-.17.22-.21.22a5.834,5.834,0,0,1-1.94-3.17c-.03-.26-.04-.31-.2-.31a3.6,3.6,0,0,0-.57.02c-.02,0-.16.02-.19.02-.02-.02-.03-.04-.04-.05l-.14-.19Z" fill="#11374c"/>
  <path id="パス_18" data-name="パス 18" d="M100.17,3.22a.311.311,0,0,0,.22-.08c.04-.02.17-.23.22-.23.02,0,.53.33.61.39,0,0,.06.06.06.1,0,.06-.02.07-.15.13-.06.03-.06.08-.07.16V5.54c0,.68.06,3.66.06,4.27a.405.405,0,0,1-.46.42c-.12,0-.17-.09-.17-.2,0-.22,0-.35-.26-.35H95.34c-.16,0-.25.05-.26.2a.357.357,0,0,1-.4.36c-.22,0-.23-.09-.23-.26,0-.32.07-1.76.07-2.05.02-1.1.02-2.5.02-3.64a6.417,6.417,0,0,0-.07-1.07c0-.05-.08-.27-.08-.32,0-.02.03-.02.05-.02.06,0,.11.02.52.21a1.034,1.034,0,0,0,.48.12h4.71Zm-4.86.21c-.24,0-.24.15-.24.24V9.22c0,.09,0,.23.25.23h4.96c.24,0,.24-.14.24-.23,0-1.14.02-4.11.02-4.3,0-.21-.02-1.3-.02-1.34s-.04-.16-.24-.16H95.32Zm1.49,3.5a.215.215,0,0,0-.21.17c-.03.15-.25.21-.36.21-.14,0-.14-.04-.14-.43,0-.15.02-.79.02-.92,0-.03-.02-.18-.02-.21,0-.06.02-.07.06-.07s.27.09.34.11a1.09,1.09,0,0,0,.26.03h1.88a.352.352,0,0,0,.22-.08c.02-.02.08-.13.11-.13s.51.27.51.35c0,.06-.03.08-.12.14a.129.129,0,0,0-.05.12v.77c0,.16-.19.23-.32.23-.17,0-.17-.07-.18-.16,0-.12-.12-.14-.19-.14h-.42c-.27,0-.27.12-.27.28,0,.27.04.32.09.37a1.69,1.69,0,0,0,.53.22c.16,0,.38-.28.42-.33.12-.15.13-.17.17-.17.07,0,.56.17.56.27s-.14.11-.3.12a1.141,1.141,0,0,0-.55.2c0,.03,0,.03.1.07.66.24.88.43.88.7a.243.243,0,0,1-.21.27c-.16,0-.24-.08-.46-.31a5.78,5.78,0,0,0-1.11-.81c-.02,0-.11,0-.11.12,0,.17.05.9.05,1.05,0,.22-.33.27-.38.27-.17,0-.19-.12-.19-.25,0-.2.02-1.09.02-1.27,0-.1,0-.19-.1-.19-.03,0-.07,0-.15.08a4.55,4.55,0,0,1-1.66,1.1c-.02,0-.02,0-.02-.02s.06-.07.11-.1A6.36,6.36,0,0,0,97.1,6.98c0-.07-.04-.07-.07-.07h-.22Zm1.69-2.68c.21,0,.22,0,.27-.02.07-.02.34-.32.37-.32s.52.33.52.44-.04.12-.43.12h-.93c-.24,0-.27.12-.27.31,0,.3,0,.4.27.4h.59c.23,0,.27,0,.32-.04.07-.05.31-.41.35-.41s.57.41.57.54-.05.12-.51.12H97.09c-.19,0-.76,0-1.05.03-.03,0-.15.02-.17.02s-.05-.02-.07-.05l-.17-.19a.163.163,0,0,1-.03-.06s0-.02.03-.02.44.03.52.03c.61.02.62.02,1.13.02.22,0,.22-.11.22-.46,0-.08,0-.24-.24-.24a8.442,8.442,0,0,0-.91.03c-.02,0-.09.02-.12.02s-.05-.02-.07-.05l-.17-.19a.163.163,0,0,1-.03-.06c0-.02,0-.02.03-.02s.29.03.33.03c.27,0,.76.03,1,.03.07,0,.18,0,.18-.18a1,1,0,0,0-.04-.31c0-.02-.06-.11-.06-.13s.05-.03.07-.03c.05,0,.76.05.76.17,0,.03-.09.11-.15.16-.03.02-.04.07-.04.15,0,.12.02.18.17.18h.29ZM96.83,6.04c-.19,0-.25.07-.25.28,0,.27,0,.38.25.38h1.74c.2,0,.26-.08.26-.28,0-.25,0-.38-.26-.38Z" fill="#11374c"/>
  <path id="パス_19" data-name="パス 19" d="M104.82,4.52s-.06,0-.06.03.08.07.13.09.13.08.13.12-.13.17-.14.2c-.02.09-.06.68-.06.73,0,.09.02.22.23.22h.29a.282.282,0,0,0,.27-.12c.06-.07.16-.19.19-.19.06,0,.56.38.56.49,0,.05-.12.16-.18.21s-.07.09-.07.31a9.3,9.3,0,0,1-.42,2.75,1.622,1.622,0,0,1-.51.75.91.91,0,0,1-.39.17c-.04,0-.04-.03-.06-.13a.991.991,0,0,0-.42-.64s-.08-.06-.08-.08c0,0,.02-.02.03-.02s.42.1.49.1c.25,0,.42,0,.61-.91a16.133,16.133,0,0,0,.24-2.23c0-.11-.03-.22-.24-.22h-.35c-.23,0-.24.09-.27.33-.33,2.58-1.43,3.48-1.57,3.48a.02.02,0,0,1-.02-.02s.37-.61.42-.71a10.647,10.647,0,0,0,.74-3.97c0-.67,0-.72-.23-.72-.1,0-.61.04-.69.04-.03,0-.05-.02-.07-.06l-.16-.19s-.04-.04-.04-.05.02-.02.03-.02c.16,0,.87.05,1.01.05.17,0,.26-.03.26-.22a5.377,5.377,0,0,0-.06-.98c0-.05-.11-.29-.11-.31s.02-.03.04-.03c0,0,.94.19.94.32,0,.05-.18.22-.21.26a1.884,1.884,0,0,0-.07.66c0,.17,0,.31.22.31s.24,0,.29-.04c.07-.06.25-.46.33-.46.1,0,.64.44.64.59s-.1.14-.19.14h-1.43Zm2.42-.05c-.24,0-.27.04-.58.45-.08.12-.38.51-.45.51a.02.02,0,0,1-.02-.02c0-.03.16-.31.18-.37a7.8,7.8,0,0,0,.68-2.12c0-.03-.02-.17-.02-.19a.066.066,0,0,1,.06-.07,6.139,6.139,0,0,1,.71.37c.06.03.11.05.11.12,0,.05-.02.06-.15.16a3.683,3.683,0,0,0-.55.87c0,.08.09.08.16.08h1.8c.32,0,.33-.02.37-.06.06-.07.27-.44.35-.44.05,0,.76.51.76.63,0,.09-.24.09-.55.09h-2.86Zm.74,2.05a.261.261,0,0,0,.23-.2c.02-.07.02-.82.02-.96a1.214,1.214,0,0,0-.04-.41c0-.03-.11-.16-.11-.19s.02-.05.07-.05.71.1.71.22c0,.03-.12.13-.12.17a6.359,6.359,0,0,0-.03.78c0,.17,0,.37.18.37l.12-.02.22-.07a.475.475,0,0,0,.34-.25c.14-.22.15-.25.22-.25s.53.24.53.36a.837.837,0,0,1-.16.27c-.05.08-.02,1.2-.04,1.42-.08.95-.64,1-.66,1s-.03-.02-.08-.13a.942.942,0,0,0-.32-.38c-.02-.03-.22-.09-.22-.12s.02-.03.28-.03c.45,0,.45-.14.45-.94,0-.68,0-.74-.18-.74a.274.274,0,0,0-.12.02l-.3.08c-.12.03-.25.07-.25.33s.04,1.57.04,1.69a.42.42,0,0,1-.4.43.142.142,0,0,1-.12-.07V8.33c0-.18,0-1.39-.02-1.48a.139.139,0,0,0-.13-.13.386.386,0,0,0-.11.02l-.28.08c-.22.07-.22.17-.22.44V9.04c0,.55.19.55.98.55a5.368,5.368,0,0,0,1.34-.11c.17-.04.21-.09.33-.32.07-.13.36-.89.38-.89s.03.07.03.08c0,.04-.02.25-.02.3a.879.879,0,0,0,.11.51,1.344,1.344,0,0,1,.12.24.8.8,0,0,1-.31.43c-.3.21-.77.25-2.03.25-.87,0-1.34-.05-1.39-.69,0-.07-.02-1.4-.02-2.03,0-.21,0-.3-.12-.3a3.071,3.071,0,0,0-.37.13c-.01,0-.02,0-.07-.03l-.21-.14s-.05-.03-.05-.04.51-.12.61-.16c.2-.07.2-.13.2-.72a2.09,2.09,0,0,0-.09-.73c0-.03-.07-.18-.07-.21s.02-.06.07-.06c0,0,.76.22.76.31,0,.04-.17.2-.18.24s-.02.51-.02.6c0,.22.02.36.15.36a.721.721,0,0,0,.11-.02l.26-.08Z" fill="#11374c"/>
  <path id="パス_20" data-name="パス 20" d="M114.44,4.32c.19,0,.22,0,.35-.19.05-.07.15-.19.21-.19.09,0,.56.38.56.5s-.09.11-.23.11h-2.6c-.02,0-.13.02-.16.02s-.06-.02-.09-.06l-.11-.15a.558.558,0,0,1-.05-.08c0-.02.03-.02.04-.02.03,0,.17.03.2.03a5.053,5.053,0,0,0,.56.03h1.32Zm-.21,1.13c.17,0,.22,0,.33-.13s.15-.16.19-.16c.12,0,.5.29.5.41s-.1.11-.23.11h-1.79c-.04,0-.23.02-.27.02s-.05-.02-.07-.04l-.12-.2a.257.257,0,0,1-.02-.05c0-.02.02-.02.04-.02s.15.03.17.03a5.278,5.278,0,0,0,.59.03h.66Zm-.02,1.03c.17,0,.22,0,.3-.12.12-.17.16-.18.19-.18.11,0,.52.33.52.43s-.09.09-.22.09h-1.4c-.1,0-.58.02-.61.02-.05,0-.07-.02-.07-.04l-.12-.18a.257.257,0,0,1-.02-.05c0-.03.02-.03.03-.03.04,0,.25.03.29.03.29.02.32.02.47.02h.63Zm0-3.28c.17,0,.21,0,.32-.14.05-.06.15-.18.23-.18.1,0,.51.31.51.44,0,.1-.1.1-.23.1h-1.89c-.02,0-.14.02-.17.02s-.05-.02-.07-.05l-.11-.18a.2.2,0,0,1-.02-.06.032.032,0,0,1,.03-.03,2.336,2.336,0,0,1,.26.04c.31.02.34.03.51.03h.61Zm-.52,6.33c-.24,0-.24.09-.24.36,0,.36-.4.43-.45.43-.12,0-.17-.08-.17-.22,0-.22.02-1.25.02-1.48,0-.41-.02-.62-.04-.93,0-.05-.02-.21-.02-.24,0-.05,0-.07.03-.07a5.152,5.152,0,0,1,.52.21,1,1,0,0,0,.34.05h.61a.287.287,0,0,0,.27-.13c.12-.16.13-.17.2-.17.12,0,.45.29.45.41,0,.05-.02.07-.13.22a.2.2,0,0,0-.05.14c0,.21.04,1.23.04,1.46a.369.369,0,0,1-.39.34c-.16,0-.17-.07-.18-.22-.02-.1-.11-.14-.22-.14h-.61Zm-.05-1.68c-.17,0-.25.07-.25.22,0,.07.02,1.07.04,1.13.04.11.17.11.23.11h.62c.26,0,.26-.08.26-.41V8.02c0-.12-.12-.17-.23-.17h-.66Zm4.47-1.48a.665.665,0,0,0,.33-.06,1.869,1.869,0,0,1,.32-.2c.11,0,.46.43.46.55,0,.07-.02.08-.23.14-.14.04-.17.11-.44.66a4.948,4.948,0,0,1-.63.95c-.13.16-.15.17-.15.2a2.558,2.558,0,0,0,1.52.89c.1.03.52.11.61.13,0,0,.05.02.05.03a3.564,3.564,0,0,1-.55.21.794.794,0,0,0-.32.27c-.02.02-.04.05-.07.05a4.908,4.908,0,0,1-1.45-.96c-.15-.16-.17-.17-.21-.17s-.32.26-.39.31a4.825,4.825,0,0,1-1.73.9c-.02,0-.05,0-.05-.03s.16-.12.17-.13a6.265,6.265,0,0,0,1.57-1.26.447.447,0,0,0,.14-.21.914.914,0,0,0-.07-.14,5.439,5.439,0,0,1-.57-1.71c-.03-.17-.12-.17-.19-.17-.04,0-.28.02-.29.02-.05,0-.06-.02-.08-.05l-.17-.19a.163.163,0,0,1-.03-.06c0-.02.02-.02.04-.02s.28.03.33.03c.3.02.87.03,1.16.03h.92Zm-1.08-3.06c-.23,0-.23.12-.23.28,0,1.28-.35,1.66-.56,1.88a1.8,1.8,0,0,1-.74.51s-.03,0-.03-.02a1.57,1.57,0,0,1,.24-.29,2.376,2.376,0,0,0,.55-1.75c0-.17,0-.43-.02-.71,0-.05-.05-.27-.05-.32,0,0,0-.04.02-.04.05,0,.43.16.5.18a.646.646,0,0,0,.32.06h.48a.288.288,0,0,0,.22-.07c.05-.04.28-.28.36-.28.12,0,.44.39.44.49,0,.04-.02.07-.07.1a.914.914,0,0,0-.14.07,2.174,2.174,0,0,0-.07.76c0,.91,0,1.02.47,1.02.4,0,.42-.07.51-.34a3.457,3.457,0,0,1,.17-.58,6.929,6.929,0,0,1,.16.7c.02.05.17.24.17.29a.5.5,0,0,1-.24.34,1.484,1.484,0,0,1-.77.13c-.71,0-1-.08-1-.79V3.52c0-.21-.17-.21-.24-.21h-.45Zm-.11,3.28c-.24,0-.32.02-.32.13,0,.46.58,1.5.8,1.5s.9-1.26.9-1.49c0-.11-.09-.15-.2-.15h-1.17Z" fill="#11374c"/>
  <line id="線_5" data-name="線 5" x1="9.5" transform="translate(69.91 6.93)" fill="none" stroke="#11374c" stroke-miterlimit="10" stroke-width="0.3"/>
  <line id="線_6" data-name="線 6" x2="9.51" transform="translate(125.3 6.93)" fill="none" stroke="#11374c" stroke-miterlimit="10" stroke-width="0.3"/>
</svg>
