<svg id="info03-tit-sp" xmlns="http://www.w3.org/2000/svg" width="300.5" height="21.28" viewBox="0 0 300.5 21.28">
  <path id="パス_21" data-name="パス 21" d="M162.89,4.81c-.06,0-1.8.41-1.84.42a3.765,3.765,0,0,1-.37.16,1.755,1.755,0,0,1-.56-.3,1.636,1.636,0,0,1-.2-.48c0-.04,0-.07.05-.07,0,0,.19.05.22.06a1.3,1.3,0,0,0,.44.08,11.065,11.065,0,0,0,2.27-.31,3,3,0,0,1,.46-.26c.2,0,.71.42.71.63,0,.07-.31.3-.36.36-.17.2-.82,1.17-.95,1.36a.294.294,0,0,0-.07.17c0,.08.02.09.37.28.37.22,1.86,1.05,1.86,1.81a.364.364,0,0,1-.34.37c-.19,0-.22-.06-.51-.57a3.746,3.746,0,0,0-1.49-1.63c-.08,0-.11.03-.29.23a8.3,8.3,0,0,1-2.22,1.78,1.96,1.96,0,0,1-.51.19c-.02,0-.06,0-.06-.05a3.349,3.349,0,0,1,.38-.31,9.093,9.093,0,0,0,3.13-3.85.093.093,0,0,0-.1-.07Z" fill="#11374c"/>
  <path id="パス_22" data-name="パス 22" d="M166.11,8.14c0-.16.07-.24.32-.39a6.62,6.62,0,0,0,.81-.64c.04-.04.13-.12.17-.12s.04.08.04.1c0,.39-.39,1.39-.94,1.39a.569.569,0,0,1-.16-.03.327.327,0,0,1-.24-.31Zm3.25.55c0,.12,0,.67-.44.67-.18,0-.2-.05-.37-.53a2.234,2.234,0,0,0-.31-.59c-.03-.06-.05-.07-.05-.1s.02-.03.03-.03c.06,0,.33.11.39.11.11,0,.15-.09.17-.22.04-.39.04-1.22.04-1.67,0-.4-.02-.55-.24-.55a14.913,14.913,0,0,0-1.54.27,2.025,2.025,0,0,1-.33.09c-.18,0-.6-.56-.6-.73,0-.04,0-.08.06-.08.03,0,.05,0,.16.05a2.529,2.529,0,0,0,.74.08c.19,0,1.09-.05,1.34-.06.32-.02.4-.08.4-.35a3.14,3.14,0,0,0-.17-1.06c-.02-.04-.16-.17-.16-.22,0-.02.09-.08.28-.08a.762.762,0,0,1,.78.43,1.428,1.428,0,0,1-.15.27,2.223,2.223,0,0,0-.07.64c0,.26.11.3.32.3.27,0,.66-.07.81-.08.11-.02.55-.12.64-.12a1.749,1.749,0,0,1,.81.28c.09.06.21.12.21.27s-.18.17-.22.17c-.12,0-.66-.09-.78-.11-.32-.03-.92-.04-.99-.04-.71,0-.79,0-.79.47,0,.4.04,2.17.04,2.52Zm2-.6a2.968,2.968,0,0,0-.67-1.02,2.271,2.271,0,0,1-.33-.35c0-.04.04-.04.06-.04.44,0,1.78.8,1.78,1.5,0,.19-.1.46-.37.46-.23,0-.31-.19-.46-.55Zm1.08-4.14a.8.8,0,1,1-1.6.01.8.8,0,0,1,.81-.8A.768.768,0,0,1,172.44,3.95Zm-1.33.02a.52.52,0,0,0,.54.51.507.507,0,0,0,.51-.51.56.56,0,0,0-.53-.53.541.541,0,0,0-.52.53Z" fill="#11374c"/>
  <path id="パス_23" data-name="パス 23" d="M179.36,6.08h.18c.51,0,.58.31.58.37,0,.23-.34.26-.69.26-.19,0-1.02-.02-1.19-.02-1.15,0-3.05.11-3.25.15-.1.02-.55.15-.65.15-.36,0-.74-.51-.74-.8,0-.05.02-.1.07-.1a2.307,2.307,0,0,1,.28.1,4.706,4.706,0,0,0,1.01.07c.27,0,3.17-.11,4.38-.17Z" fill="#11374c"/>
  <path id="パス_24" data-name="パス 24" d="M182.83,6.26a.342.342,0,0,1-.32.36c-.21,0-.27-.21-.35-.43a3.915,3.915,0,0,0-.6-1.05c-.06-.07-.07-.09-.07-.11,0-.04.05-.07.1-.07a1.564,1.564,0,0,1,1.24,1.3Zm4.25-1.39s-.02.07-.19.16a6.3,6.3,0,0,0-.54.9,8.715,8.715,0,0,1-4.14,3.61.042.042,0,0,1-.04-.04,1.88,1.88,0,0,1,.25-.2,15.58,15.58,0,0,0,1.76-1.49c.6-.6,1.95-2.2,1.95-3.25a1.261,1.261,0,0,0-.07-.41c0-.02-.02-.07-.02-.08,0-.03.02-.05.06-.05,0,0,1,.42,1,.86Zm-2.69.27c0,.28-.15.49-.32.49-.2,0-.25-.24-.28-.42a3.664,3.664,0,0,0-.38-.96,1.5,1.5,0,0,1-.11-.22c0-.02.05-.02.07-.02a1.278,1.278,0,0,1,1.02,1.14Z" fill="#11374c"/>
  <path id="パス_25" data-name="パス 25" d="M193.96,6.08c.07,0,.2,0,.2.13s-.12.13-.24.13a.666.666,0,0,0-.78.6,4.008,4.008,0,0,1-.39,1.27,3.5,3.5,0,0,0-.35.62c0,.15.4.47.82.47a1.345,1.345,0,0,0,.84-.37c.02-.03.18-.18.22-.18a.1.1,0,0,1,.09.1c0,.07-.02.1-.25.34a1.619,1.619,0,0,1-1.19.56,1.466,1.466,0,0,1-.78-.24c-.2-.12-.24-.15-.34-.15a5.15,5.15,0,0,0-.71.27,2.783,2.783,0,0,1-.82.12c-1.17,0-2-.66-2-1.59,0-.34.09-.92,1.09-1.57.43-.28.48-.32.48-.43a.935.935,0,0,0-.09-.31,2.924,2.924,0,0,1-.32-1.2,1.323,1.323,0,0,1,1.44-1.27,1.2,1.2,0,0,1,1.32,1.14c0,.6-.55,1.06-1.1,1.39-.27.17-.38.24-.38.36a7.038,7.038,0,0,0,1.41,2.27,2.083,2.083,0,0,0,.71-1.62c0-.59-.3-.59-.76-.59-.16,0-.16-.12-.16-.13,0-.13.12-.13.2-.13h1.83ZM191.34,8.7a12.1,12.1,0,0,1-.98-1.59c-.23-.45-.26-.49-.36-.49a1.65,1.65,0,0,0-1,1.32,1.519,1.519,0,0,0,1.59,1.46c.45,0,.95-.19.95-.33a.819.819,0,0,0-.22-.37Zm-1.08-3.49c.07.21.2.61.32.61.07,0,1.11-.42,1.11-1.27a.783.783,0,0,0-.76-.88.842.842,0,0,0-.84.86,2.99,2.99,0,0,0,.17.69Z" fill="#11374c"/>
  <path id="パス_26" data-name="パス 26" d="M196.6,5.46a8.394,8.394,0,0,0-.07,1.56c0,.24,0,.44.27.44a10.917,10.917,0,0,0,3.94-2.17c.12-.1.13-.12.19-.12a.068.068,0,0,1,.07.07,10.473,10.473,0,0,1-3.26,2.49c-.96.5-1.03.55-1.2.76-.04.06-.06.07-.09.07-.07,0-.56-.41-.56-.63,0-.04.07-.37.07-.39A6.573,6.573,0,0,0,196,6.47c0-1.1,0-1.32-.22-1.71a1.722,1.722,0,0,1-.18-.32c0-.03.05-.04.08-.04.09,0,1.05.17,1.05.51,0,.07-.12.46-.13.56Z" fill="#11374c"/>
  <path id="パス_27" data-name="パス 27" d="M203.53,6.35c0,.17-.12.42-.32.42-.12,0-.17-.05-.29-.26a2.017,2.017,0,0,0-.76-.68c-.02-.02-.08-.05-.08-.08,0-.12.53-.12.58-.12.36,0,.86.32.86.73Zm-.98,2.55c-.02-.05-.16-.22-.17-.27a.37.37,0,0,1-.04-.15.063.063,0,0,1,.07-.07c.02,0,.4.13.48.13a12.554,12.554,0,0,0,4.17-2.58c.09-.09.57-.58.6-.58a.054.054,0,0,1,.05.05c0,.02-.41,1.3-3.67,3.35-.51.32-.54.34-.61.39-.31.24-.34.27-.43.27-.17,0-.27-.19-.44-.55Zm1.98-4.21c0,.22-.14.39-.27.39-.09,0-.12-.04-.42-.38a1.487,1.487,0,0,0-.72-.45c-.12-.04-.12-.04-.12-.08,0-.09.38-.17.63-.17a1.225,1.225,0,0,1,.42.08A.72.72,0,0,1,204.53,4.69Zm2.78-.38c0,.1-.11.32-.27.32-.12,0-.2-.09-.41-.42a2.824,2.824,0,0,0-.53-.56c-.03-.03-.11-.1-.11-.13,0-.05.1-.06.15-.06.48,0,1.16.41,1.16.85Zm.87-.56a.248.248,0,0,1-.22.27c-.17,0-.29-.17-.41-.37a1.982,1.982,0,0,0-.67-.54c-.07-.04-.09-.08-.09-.1,0-.07.17-.07.32-.07.22,0,1.08.24,1.08.81Z" fill="#11374c"/>
  <path id="パス_28" data-name="パス 28" d="M214.12,6.23c0,.13-.12.17-.27.22a1.844,1.844,0,0,0-.59.37,3.672,3.672,0,0,1-.76.45.042.042,0,0,1-.04-.04c0-.09.72-.86.72-1.07,0-.06-.06-.07-.09-.07s-1.04.24-1.15.27c-.3.07-.33.08-.33.22a19.286,19.286,0,0,0,.71,2.22,2.277,2.277,0,0,1,.23.76c0,.17-.08.35-.17.35a.878.878,0,0,1-.5-.46c-.04-.13-.49-2.07-.61-2.45-.1-.33-.12-.37-.23-.37a4.944,4.944,0,0,0-.94.27c-.34.14-.37.16-.42.16-.08,0-.12-.02-.49-.27a.329.329,0,0,1-.17-.3c0-.05,0-.21.07-.21a1.893,1.893,0,0,1,.18.06,1.264,1.264,0,0,0,.44.07,6.072,6.072,0,0,0,1.16-.15c.05-.02.12-.06.12-.13a1.576,1.576,0,0,0-.41-.93c-.03-.02-.17-.11-.19-.12a.07.07,0,0,1-.02-.04c0-.13.34-.13.41-.13.34,0,.61.07.61.33,0,.41,0,.86.19.86a7.943,7.943,0,0,0,1.23-.26,5.156,5.156,0,0,1,.49-.21c.24,0,.79.43.79.65Z" fill="#11374c"/>
  <path id="パス_29" data-name="パス 29" d="M221.25,6.08h.18c.51,0,.58.31.58.37,0,.23-.34.26-.69.26-.19,0-1.02-.02-1.19-.02-1.15,0-3.05.11-3.25.15-.1.02-.55.15-.65.15-.36,0-.74-.51-.74-.8,0-.05.02-.1.07-.1a2.307,2.307,0,0,1,.28.1,4.706,4.706,0,0,0,1.01.07c.27,0,3.17-.11,4.38-.17Z" fill="#11374c"/>
  <path id="パス_30" data-name="パス 30" d="M225.07,4.46s-.06,0-.06.03.08.07.13.09.13.08.13.12-.13.17-.14.2c-.02.09-.06.68-.06.73,0,.09.02.22.23.22h.29a.282.282,0,0,0,.27-.12c.06-.07.16-.19.19-.19.06,0,.56.38.56.49,0,.05-.12.16-.18.21s-.07.09-.07.31a9.3,9.3,0,0,1-.42,2.75,1.622,1.622,0,0,1-.51.75.91.91,0,0,1-.39.17c-.04,0-.04-.03-.06-.13a.99.99,0,0,0-.42-.64s-.08-.06-.08-.08c0,0,.02-.02.03-.02s.42.1.49.1c.25,0,.42,0,.61-.91a16.133,16.133,0,0,0,.24-2.23c0-.11-.03-.22-.24-.22h-.35c-.23,0-.24.09-.27.33-.33,2.58-1.43,3.48-1.57,3.48a.02.02,0,0,1-.02-.02s.37-.61.42-.71a10.647,10.647,0,0,0,.74-3.97c0-.67,0-.72-.23-.72-.1,0-.61.04-.69.04-.03,0-.05-.02-.07-.06l-.16-.19s-.04-.04-.04-.05.02-.02.03-.02c.16,0,.87.05,1.01.05.17,0,.26-.03.26-.22a5.377,5.377,0,0,0-.06-.98c0-.05-.11-.29-.11-.31s.02-.03.04-.03c0,0,.94.19.94.32,0,.05-.18.22-.21.26a1.883,1.883,0,0,0-.07.66c0,.17,0,.31.22.31s.24,0,.29-.04c.07-.06.25-.46.33-.46.1,0,.64.44.64.59s-.1.14-.19.14h-1.43Zm2.42-.05c-.24,0-.27.04-.58.45-.08.12-.38.51-.45.51a.02.02,0,0,1-.02-.02c0-.03.16-.31.18-.37a7.8,7.8,0,0,0,.68-2.12c0-.03-.02-.17-.02-.19a.066.066,0,0,1,.06-.07,6.139,6.139,0,0,1,.71.37c.06.03.11.05.11.12,0,.05-.02.06-.15.16a3.683,3.683,0,0,0-.55.87c0,.08.09.08.16.08h1.8c.32,0,.33-.02.37-.06.06-.07.27-.44.35-.44.05,0,.76.51.76.63,0,.09-.24.09-.55.09h-2.86Zm.74,2.05a.261.261,0,0,0,.23-.2c.02-.07.02-.82.02-.96a1.215,1.215,0,0,0-.04-.41c0-.03-.11-.16-.11-.19s.02-.05.07-.05.71.1.71.22c0,.03-.12.13-.12.17a6.359,6.359,0,0,0-.03.78c0,.17,0,.37.18.37l.12-.02.22-.07a.475.475,0,0,0,.34-.25c.14-.22.15-.25.22-.25s.53.24.53.36a.837.837,0,0,1-.16.27c-.05.08-.02,1.2-.04,1.42-.08.95-.64,1-.66,1s-.03-.02-.08-.13a.942.942,0,0,0-.32-.38c-.02-.03-.22-.09-.22-.12s.02-.03.28-.03c.45,0,.45-.14.45-.94,0-.68,0-.74-.18-.74a.274.274,0,0,0-.12.02l-.3.08c-.12.03-.25.07-.25.33s.04,1.57.04,1.69a.42.42,0,0,1-.4.43.142.142,0,0,1-.12-.07V8.27c0-.18,0-1.39-.02-1.48a.139.139,0,0,0-.13-.13.386.386,0,0,0-.11.02l-.28.08c-.22.07-.22.17-.22.44V8.98c0,.55.19.55.98.55a5.368,5.368,0,0,0,1.34-.11c.17-.04.21-.09.33-.32.07-.13.36-.89.38-.89s.03.07.03.08c0,.04-.02.25-.02.3a.879.879,0,0,0,.11.51,1.344,1.344,0,0,1,.12.24.8.8,0,0,1-.31.43c-.3.21-.77.25-2.03.25-.87,0-1.34-.05-1.39-.69,0-.07-.02-1.4-.02-2.03,0-.21,0-.3-.12-.3a3.071,3.071,0,0,0-.37.13c-.01,0-.02,0-.07-.03l-.21-.14s-.05-.03-.05-.04.51-.12.61-.16c.2-.07.2-.13.2-.72a2.09,2.09,0,0,0-.09-.73c0-.03-.07-.18-.07-.21s.02-.06.07-.06c0,0,.76.22.76.31,0,.04-.17.2-.18.24s-.02.51-.02.6c0,.22.02.36.15.36a.721.721,0,0,0,.11-.02l.26-.08Z" fill="#11374c"/>
  <path id="パス_31" data-name="パス 31" d="M234.27,4.25c.19,0,.22,0,.35-.19.05-.07.15-.19.21-.19.09,0,.56.38.56.5s-.09.11-.23.11h-2.6c-.02,0-.13.02-.16.02s-.06-.02-.09-.06l-.11-.15a.558.558,0,0,1-.05-.08c0-.02.03-.02.04-.02.03,0,.17.03.2.03a5.053,5.053,0,0,0,.56.03h1.32Zm-.21,1.13c.17,0,.22,0,.33-.13s.15-.16.19-.16c.12,0,.5.29.5.41s-.1.11-.23.11h-1.79c-.04,0-.23.02-.27.02s-.05-.02-.07-.04l-.12-.2a.257.257,0,0,1-.02-.05c0-.02.02-.02.04-.02s.15.03.17.03a5.278,5.278,0,0,0,.59.03h.66Zm-.02,1.03c.17,0,.22,0,.3-.12.12-.17.16-.18.19-.18.11,0,.52.33.52.43s-.09.09-.22.09h-1.4c-.1,0-.58.02-.61.02-.05,0-.07-.02-.07-.04l-.12-.18a.257.257,0,0,1-.02-.05c0-.03.02-.03.03-.03.04,0,.25.03.29.03.29.02.32.02.47.02h.63Zm0-3.28c.17,0,.21,0,.32-.14.05-.06.15-.18.23-.18.1,0,.51.31.51.44,0,.1-.1.1-.23.1h-1.89c-.02,0-.14.02-.17.02s-.05-.02-.07-.05l-.11-.18a.2.2,0,0,1-.02-.06.032.032,0,0,1,.03-.03,2.336,2.336,0,0,1,.26.04c.31.02.34.03.51.03h.61Zm-.52,6.33c-.24,0-.24.09-.24.36,0,.36-.4.43-.45.43-.12,0-.17-.08-.17-.22,0-.22.02-1.25.02-1.48,0-.41-.02-.62-.04-.93,0-.05-.02-.21-.02-.24,0-.05,0-.07.03-.07a5.153,5.153,0,0,1,.52.21,1,1,0,0,0,.34.05h.61a.287.287,0,0,0,.27-.13c.12-.16.13-.17.2-.17.12,0,.45.29.45.41,0,.05-.02.07-.13.22a.2.2,0,0,0-.05.14c0,.21.04,1.23.04,1.46a.369.369,0,0,1-.39.34c-.16,0-.17-.07-.18-.22-.02-.1-.11-.14-.22-.14h-.61Zm-.05-1.68c-.17,0-.25.07-.25.22,0,.07.02,1.07.04,1.13.04.11.17.11.23.11h.62c.26,0,.26-.08.26-.41V7.95c0-.12-.12-.17-.23-.17h-.66Zm4.47-1.48a.664.664,0,0,0,.33-.06,1.869,1.869,0,0,1,.32-.2c.11,0,.46.43.46.55,0,.07-.02.08-.23.14-.14.04-.17.11-.44.66a4.948,4.948,0,0,1-.63.95c-.13.16-.15.17-.15.2a2.558,2.558,0,0,0,1.52.89c.1.03.52.11.62.13,0,0,.05.02.05.03a3.564,3.564,0,0,1-.55.21.794.794,0,0,0-.32.27c-.02.02-.04.05-.07.05a4.782,4.782,0,0,1-1.45-.96c-.15-.16-.17-.17-.21-.17s-.32.26-.39.31a4.825,4.825,0,0,1-1.73.9c-.02,0-.05,0-.05-.03s.16-.12.17-.13a6.265,6.265,0,0,0,1.57-1.26.447.447,0,0,0,.14-.21.913.913,0,0,0-.07-.14,5.439,5.439,0,0,1-.57-1.71c-.03-.17-.12-.17-.19-.17-.04,0-.28.02-.29.02-.05,0-.06-.02-.08-.05l-.17-.19a.163.163,0,0,1-.03-.06c0-.02.02-.02.04-.02s.28.03.33.03c.3.02.87.03,1.16.03h.92Zm-1.08-3.06c-.23,0-.23.12-.23.28,0,1.28-.35,1.66-.56,1.88a1.8,1.8,0,0,1-.74.51s-.03,0-.03-.02a1.569,1.569,0,0,1,.24-.29,2.376,2.376,0,0,0,.55-1.75c0-.17,0-.43-.02-.71,0-.05-.05-.27-.05-.32,0,0,0-.04.02-.04.05,0,.43.16.5.18a.646.646,0,0,0,.32.06h.48a.288.288,0,0,0,.22-.07c.05-.04.28-.28.36-.28.12,0,.44.39.44.49,0,.04-.03.07-.07.1a.914.914,0,0,0-.14.07c-.08.05-.08.52-.08.76,0,.91,0,1.02.47,1.02.4,0,.42-.07.51-.34a3.458,3.458,0,0,1,.17-.58,6.933,6.933,0,0,1,.16.7c.02.05.17.24.17.29a.5.5,0,0,1-.24.34,1.484,1.484,0,0,1-.77.13c-.71,0-1-.08-1-.79V3.45c0-.21-.17-.21-.24-.21h-.45Zm-.11,3.28c-.24,0-.32.02-.32.13,0,.46.58,1.5.8,1.5s.9-1.26.9-1.49c0-.11-.09-.15-.2-.15h-1.17Z" fill="#11374c"/>
  <path id="パス_32" data-name="パス 32" d="M2.33,7.93h.39c.34,1.7,1.24,3.12,3.17,3.12a2.15,2.15,0,0,0,2.4-2.1c0-1.53-1.33-2.13-2.55-2.62C4.21,5.74,2.58,4.94,2.58,3.02A3.037,3.037,0,0,1,5.91,0,4.365,4.365,0,0,1,8.45.86L8.84.2h.18L9.1,3.11H8.71C8.32,1.72,7.53.46,5.9.46A1.82,1.82,0,0,0,3.93,2.24c0,1.33,1.19,1.78,2.23,2.22,1.75.72,3.7,1.6,3.7,3.8s-2.05,3.26-4.02,3.26A4.68,4.68,0,0,1,2.9,10.51l-.4.71H2.32V7.94Z" fill="#11374c"/>
  <path id="パス_33" data-name="パス 33" d="M14.51,8.13a9.481,9.481,0,0,0,.17,2.23c.24.66,1.02.54,1.61.57v.39c-.87-.02-1.75-.05-2.62-.07-.82.02-1.63.05-2.47.07v-.39c.54,0,1.24,0,1.43-.57a10.764,10.764,0,0,0,.15-2.23V3.41a10.863,10.863,0,0,0-.15-2.25c-.2-.59-.89-.57-1.43-.57V.2c.86.02,1.7.05,2.54.07.81-.02,1.6-.05,2.4-.07C17.95.27,20,.97,20,3.11c0,2.45-2.37,3.04-4.37,3.04-.3,0-1.06-.05-1.13-.05V8.13Zm0-2.49c.32.02.66.07.97.07,1.73,0,2.59-.74,2.59-2.55A2.147,2.147,0,0,0,15.67.69c-1.23.03-1.16-.03-1.16.79V5.65Z" fill="#11374c"/>
  <path id="パス_34" data-name="パス 34" d="M21.68,5.8A6,6,0,0,1,27.85,0a5.789,5.789,0,0,1,6.03,5.68,5.881,5.881,0,0,1-6.1,5.83C24.38,11.51,21.68,9.17,21.68,5.8Zm2.1,0c0,2.64,1.04,5.26,4.1,5.26s3.9-2.81,3.9-5.31-1.04-5.3-4-5.3-4,2.86-4,5.34Z" fill="#11374c"/>
  <path id="パス_35" data-name="パス 35" d="M44.95,9.95a2.22,2.22,0,0,0,1.65.99v.39c-.5-.02-1.01-.05-1.51-.07-.42.02-.84.05-1.26.07l-.79-.97L40.25,6.9c-.55-.64-.49-.74-1.38-.74V8.14a10.716,10.716,0,0,0,.15,2.23c.2.59.89.57,1.43.57v.39c-.77-.02-1.56-.05-2.37-.07-.84.02-1.68.05-2.52.07v-.39c.54,0,1.24,0,1.43-.57a10.764,10.764,0,0,0,.15-2.23V3.39a10.716,10.716,0,0,0-.15-2.23C36.8.57,36.1.59,35.56.59V.2c.96.02,1.93.05,2.89.07C39.16.25,39.88.22,40.58.2c1.91,0,3.85.44,3.85,2.77,0,1.81-1.38,2.74-3.04,2.89l3.56,4.08ZM38.87,5.7c2.1,0,3.63-.05,3.63-2.49A2.269,2.269,0,0,0,40.15.69a5.594,5.594,0,0,0-1.09.02c-.22.1-.19.42-.19.6V5.69Z" fill="#11374c"/>
  <path id="パス_36" data-name="パス 36" d="M56.74,2.82h-.45c-.1-1.65-.74-2.08-2.32-2.08-.62,0-1.63-.08-1.63.45V9.15c0,1.24.23,1.71,1.86,1.78v.39c-.92-.02-1.86-.05-2.79-.07-.89.02-1.76.05-2.67.07v-.39c1.63-.07,1.87-.54,1.87-1.78V1.19c0-.5-.74-.45-1.41-.45-1.66,0-2.47.08-2.54,2.08h-.39V.2H56.59l.15,2.62Z" fill="#11374c"/>
  <path id="パス_37" data-name="パス 37" d="M58.19,7.93h.39c.34,1.7,1.24,3.12,3.17,3.12a2.15,2.15,0,0,0,2.4-2.1c0-1.53-1.33-2.13-2.55-2.62-1.53-.59-3.16-1.39-3.16-3.31A3.037,3.037,0,0,1,61.77,0a4.365,4.365,0,0,1,2.54.86L64.7.2h.18l.08,2.91h-.39C64.18,1.72,63.39.46,61.76.46A1.811,1.811,0,0,0,59.8,2.24c0,1.33,1.19,1.78,2.23,2.22,1.75.72,3.7,1.6,3.7,3.8s-2.05,3.26-4.01,3.26a4.68,4.68,0,0,1-2.94-1.01l-.4.71H58.2V7.94Z" fill="#11374c"/>
  <path id="パス_38" data-name="パス 38" d="M78.79,8.28l.87-1.46c.5-.94,1.13-2.2,2.35-2.2a1.179,1.179,0,0,1,1.21,1.13.922.922,0,0,1-.87.92.743.743,0,0,1-.76-.81c0-.15.07-.5-.17-.5-.47,0-1.09,1.18-1.26,1.51L79.27,8.4l-.15.24c.64.64,1.8,1.93,2.74,1.93a1.884,1.884,0,0,0,1.38-.82l.29.27a3.133,3.133,0,0,1-2.54,1.44,4.2,4.2,0,0,1-2.92-1.58,4.6,4.6,0,0,1-3.48,1.63,2.272,2.272,0,0,1-2.44-2.05c0-1.71,1.45-2.69,2.77-3.46a5.672,5.672,0,0,1-1.18-3.23A2.653,2.653,0,0,1,76.34,0a2.135,2.135,0,0,1,2.29,2.2c0,1.34-1.19,2.5-2.25,3.23l2.4,2.86ZM75.14,6.35c-.76.69-1.48,1.19-1.48,2.34a1.937,1.937,0,0,0,1.88,2.05,3.206,3.206,0,0,0,2.2-1.18l-.08-.08L75.14,6.36Zm2.42-4c0-.86-.35-1.9-1.39-1.9a1.411,1.411,0,0,0-1.41,1.58,5.594,5.594,0,0,0,1.36,3.04,3.258,3.258,0,0,0,1.45-2.72Z" fill="#11374c"/>
  <path id="パス_39" data-name="パス 39" d="M91.07,3.39a9.481,9.481,0,0,0-.17-2.23c-.22-.57-.91-.57-1.45-.57V.2c.81.02,1.6.05,2.4.07C92.71.25,93.55.22,94.4.2V.59c-.54,0-1.23,0-1.44.57a9.524,9.524,0,0,0-.17,2.23V8.36c0,2.15.34,2.5,2.47,2.5a4.3,4.3,0,0,0,2.38-.42c.84-.52.94-1.16,1.09-2.1h.42L99,11.31c-.29-.02-.59-.03-.87-.07-2.89.05-5.8.05-8.69.07v-.39c.54,0,1.23,0,1.45-.57a9.524,9.524,0,0,0,.17-2.23V3.39Z" fill="#11374c"/>
  <path id="パス_40" data-name="パス 40" d="M101.9,3.46a9.481,9.481,0,0,0-.17-2.23c-.22-.57-.91-.57-1.45-.57V.2h8.35V2.74h-.39C107.92.77,107.05.66,105.27.66h-1.21c-.52,0-.44-.05-.44.69V5.33c2.3.1,2.64-.86,2.74-2.07h.39c-.02.76-.03,1.53-.07,2.29.03.69.05,1.39.07,2.08h-.39c-.24-1.76-1.13-1.85-2.74-1.85V8.54a3.251,3.251,0,0,0,.3,1.7c.44.59,1.48.62,2.15.61,1.75-.03,2.89-.25,3.11-2.25h.39l-.15,2.71h-9.14v-.39c.54,0,1.23,0,1.45-.57a9.524,9.524,0,0,0,.17-2.23Z" fill="#11374c"/>
  <path id="パス_41" data-name="パス 41" d="M112.86,3.39a9.481,9.481,0,0,0-.17-2.23c-.22-.57-.91-.57-1.44-.57V.2c.81.02,1.61.05,2.42.07.86-.02,1.7-.05,2.54-.07V.59c-.54,0-1.23,0-1.45.57a9.524,9.524,0,0,0-.17,2.23V8.13a9.481,9.481,0,0,0,.17,2.23c.22.57.91.57,1.45.57v.39c-.79-.02-1.61-.05-2.42-.07-.84.02-1.7.05-2.54.07v-.39c.54,0,1.23,0,1.44-.57a9.524,9.524,0,0,0,.17-2.23Z" fill="#11374c"/>
  <path id="パス_42" data-name="パス 42" d="M117.91,7.93h.39c.34,1.7,1.24,3.12,3.17,3.12a2.15,2.15,0,0,0,2.4-2.1c0-1.53-1.33-2.13-2.55-2.62-1.53-.59-3.16-1.39-3.16-3.31A3.037,3.037,0,0,1,121.49,0a4.365,4.365,0,0,1,2.54.86l.39-.66h.18l.08,2.91h-.39c-.39-1.39-1.18-2.65-2.81-2.65a1.811,1.811,0,0,0-1.96,1.78c0,1.33,1.19,1.78,2.23,2.22,1.75.72,3.7,1.6,3.7,3.8s-2.05,3.26-4.01,3.26a4.68,4.68,0,0,1-2.94-1.01l-.4.71h-.18V7.94Z" fill="#11374c"/>
  <line id="線_7" data-name="線 7" x2="300.5" transform="translate(0 18.56)" fill="none" stroke="#11374c" stroke-miterlimit="10" stroke-width="0.5"/>
  <rect id="長方形_3" data-name="長方形 3" width="126.3" height="5.42" transform="translate(0 15.86)" fill="#11374c"/>
  <line id="線_8" data-name="線 8" x1="9.51" transform="translate(145.12 6.86)" fill="none" stroke="#11374c" stroke-miterlimit="10" stroke-width="0.3"/>
  <line id="線_9" data-name="線 9" x2="9.5" transform="translate(244.68 6.86)" fill="none" stroke="#11374c" stroke-miterlimit="10" stroke-width="0.3"/>
</svg>
