<svg id="shops02-04" xmlns="http://www.w3.org/2000/svg" width="458.996" height="289.942" viewBox="0 0 458.996 289.942">
  <rect id="長方形_9" data-name="長方形 9" width="458.996" height="289.942" fill="#fee67d" opacity="0.3"/>
  <path id="パス_243" data-name="パス 243" d="M30.2,51.689a3.17,3.17,0,0,0-3.223-3.249c-2.532,0-3.758,2.584-3.758,5.272,0,3.471,1.788,5.024,3.745,5.024.887,0,3-.339,3.262-3.432h1.592c-.157.966-.731,4.789-4.776,4.789-3.784,0-5.376-3.119-5.376-6.381s1.579-6.642,5.272-6.642c.522,0,4.189,0,4.8,4.619H30.217Z" transform="translate(6.608 14.353)" fill="#3e3a39"/>
  <path id="パス_244" data-name="パス 244" d="M42.161,53.582c0,3.745-2.205,6.512-5.572,6.512s-5.559-2.74-5.559-6.512c0-3.536,2.023-6.512,5.559-6.512s5.572,3.04,5.572,6.512Zm-9.565,0c0,3.562,1.944,5.154,3.993,5.154,1.892,0,4.006-1.4,4.006-5.154s-1.957-5.154-4.006-5.154S32.6,49.9,32.6,53.582Z" transform="translate(9.462 14.353)" fill="#3e3a39"/>
  <path id="パス_245" data-name="パス 245" d="M47.282,47.33l4.554,12.332H50.219l-1-2.78H43.433l-.992,2.78H40.81L45.364,47.33h1.892Zm-.94,1.462L43.9,55.629h4.88l-2.44-6.838Z" transform="translate(12.444 14.432)" fill="#3e3a39"/>
  <path id="パス_246" data-name="パス 246" d="M59.1,51.689a3.17,3.17,0,0,0-3.223-3.249c-2.532,0-3.758,2.584-3.758,5.272,0,3.471,1.788,5.024,3.745,5.024.887,0,3-.339,3.249-3.432h1.592c-.157.966-.731,4.789-4.776,4.789-3.784,0-5.389-3.119-5.389-6.381s1.579-6.642,5.272-6.642c.522,0,4.189,0,4.8,4.619h-1.54Z" transform="translate(15.411 14.353)" fill="#3e3a39"/>
  <path id="パス_247" data-name="パス 247" d="M61.85,47.33v5.181H68.9V47.33h1.553V59.662H68.9v-5.82H61.85v5.82H60.31V47.33h1.54Z" transform="translate(18.39 14.432)" fill="#3e3a39"/>
  <path id="パス_248" data-name="パス 248" d="M23.537,66.33v7.921a3.243,3.243,0,0,0,3.536,3.393,3.255,3.255,0,0,0,3.51-3.393V66.33h1.553v7.751c0,2.349-1.148,4.933-5.089,4.933-3.484,0-5.037-2.114-5.037-4.933V66.33Z" transform="translate(6.711 20.226)" fill="#3e3a39"/>
  <path id="パス_249" data-name="パス 249" d="M42.593,72.595v6.146H41.406l-.091-2.062a4.732,4.732,0,0,1-4.1,2.414c-2.427,0-5.507-1.775-5.507-6.512s3.249-6.512,5.624-6.512A5.149,5.149,0,0,1,42.541,70.4H40.91a3.619,3.619,0,0,0-3.667-2.975c-1.736,0-3.98,1.227-3.98,5.168,0,4.215,2.519,5.128,3.85,5.128,1.723,0,3.471-1.3,3.928-3.876H37.347V72.595Z" transform="translate(9.669 20.147)" fill="#3e3a39"/>
  <path id="パス_250" data-name="パス 250" d="M52.673,72.595v6.146H51.486l-.091-2.062a4.732,4.732,0,0,1-4.1,2.414c-2.427,0-5.507-1.775-5.507-6.512s3.249-6.512,5.624-6.512A5.149,5.149,0,0,1,52.621,70.4H50.99a3.619,3.619,0,0,0-3.667-2.975c-1.736,0-3.98,1.227-3.98,5.168,0,4.215,2.519,5.128,3.85,5.128,1.723,0,3.471-1.3,3.928-3.876H47.427V72.595Z" transform="translate(12.743 20.147)" fill="#3e3a39"/>
  <path id="パス_251" data-name="パス 251" d="M25.929,92.42a18.526,18.526,0,0,1-3.484,4.411,10.92,10.92,0,0,0-1.174-.848,12.49,12.49,0,0,0,3.667-4.646l1.2.679a.3.3,0,0,1,.183.248C26.32,92.433,26.15,92.42,25.929,92.42ZM29.2,89.915v6.407c0,1.266,0,2.205-2.427,2.205a10.437,10.437,0,0,1-1.07-.065,5.689,5.689,0,0,0-.391-1.4,8.783,8.783,0,0,0,1.644.157c.861,0,.861-.3.861-1.331V89.915H22.2v-1.24h5.624v-3.51l1.3.078c.235.013.365.026.365.17s-.17.222-.287.248v3h5.52V89.9H29.2Zm5.168,6.72a21.7,21.7,0,0,0-3.445-4.554l1-.8a22.9,22.9,0,0,1,3.484,4.45,4.718,4.718,0,0,0-1.044.913Zm-.639-9.187a1.409,1.409,0,1,1,1.409-1.409A1.412,1.412,0,0,1,33.732,87.449Zm0-2.205a.783.783,0,0,0-.8.8.8.8,0,0,0,1.592,0A.8.8,0,0,0,33.732,85.243Z" transform="translate(6.486 25.806)" fill="#3e3a39"/>
  <path id="パス_252" data-name="パス 252" d="M35.719,96.216v.835H34.31V86.39H45.3V97.051H43.888v-.835H35.719Zm8.169-1.266V87.656H35.719V94.95Z" transform="translate(10.462 26.343)" fill="#3e3a39"/>
  <path id="パス_253" data-name="パス 253" d="M59.982,89.271a4.451,4.451,0,0,0,1.318-.157l.887.639c-.209.339-.94,1.905-1.1,2.218-1.67,3.354-3.328,5.207-7.83,6.746A11.978,11.978,0,0,0,52.3,97.6c3.8-1.031,6.381-2.819,7.908-7.073H49.53V89.271Zm.378-3.771v1.253H51.383V85.5Z" transform="translate(15.103 26.071)" fill="#3e3a39"/>
  <path id="パス_254" data-name="パス 254" d="M65.684,86.271v3.85a7.694,7.694,0,0,1-3.915,7.321,3.786,3.786,0,0,0-1.109-.992c3.445-1.918,3.6-4.241,3.6-6.2V85.67l1.383.091c.157.013.365.026.365.209,0,.144-.157.235-.313.3ZM69.755,96.88a4.237,4.237,0,0,0-.874.7l-1-.7c.013-.313.052-.783.052-1.227V85.54l1.4.065c.17,0,.313.013.313.17s-.144.209-.313.287v9.369a16.436,16.436,0,0,0,5.285-4.92,5.525,5.525,0,0,0,.757,1.187,21.941,21.941,0,0,1-5.6,5.168Z" transform="translate(18.497 26.084)" fill="#3e3a39"/>
  <path id="パス_255" data-name="パス 255" d="M85.119,87.361c-1.723,4.789-3.328,8.1-9.343,10.961a4.122,4.122,0,0,0-1.018-1.083c4.646-1.944,7.1-4.4,8.978-10.257H73.27V85.717H83.461a2.522,2.522,0,0,0,1.1-.157l1,.887a4.5,4.5,0,0,0-.444.913Z" transform="translate(22.342 26.09)" fill="#3e3a39"/>
  <path id="パス_256" data-name="パス 256" d="M90.829,96.216v.835H89.42V86.39h10.988V97.051H99v-.835H90.829ZM99,94.95V87.656H90.829V94.95Z" transform="translate(27.267 26.343)" fill="#3e3a39"/>
  <path id="パス_257" data-name="パス 257" d="M100.38,91.083V89.7h13.31v1.383Z" transform="translate(30.609 27.352)" fill="#3e3a39"/>
  <path id="パス_258" data-name="パス 258" d="M117.053,96.78c-.47.235-2.584,1.227-2.988,1.462l-1-1.031a5.435,5.435,0,0,0,.078-.926V85.31l1.409.065c.222.013.326.026.326.157,0,.209-.222.3-.326.339V96.363a21.125,21.125,0,0,0,9.2-6.5,8.787,8.787,0,0,0,.7,1.409,24.117,24.117,0,0,1-7.4,5.507Z" transform="translate(34.475 26.014)" fill="#3e3a39"/>
  <path id="パス_259" data-name="パス 259" d="M127.6,89.46a17.7,17.7,0,0,0-4.45-2.988l.809-1.161a21.31,21.31,0,0,1,4.476,2.962,8.862,8.862,0,0,0-.848,1.187Zm-3.054,8.456c-.013.261-.052.365-.222.365a.33.33,0,0,1-.248-.183l-.848-1.409A18.5,18.5,0,0,0,135.181,88.1a9.578,9.578,0,0,0,.861,1.227c-3.51,5.663-8.952,7.7-11.509,8.613Z" transform="translate(37.552 26.014)" fill="#3e3a39"/>
  <path id="パス_260" data-name="パス 260" d="M27.713,104.33c2.427,0,3.536,1.488,3.536,3.158a2.729,2.729,0,0,1-1.8,2.662,3.009,3.009,0,0,1,2.258,3.04c0,1.109-.522,3.471-3.8,3.471H22.05V104.33h5.663ZM23.6,105.674v4.058h3.784c1.879,0,2.3-1.2,2.3-2.036,0-.548-.183-2.023-2.3-2.023Zm0,5.246v4.4h4.006a2.231,2.231,0,0,0,2.532-2.205c0-.887-.47-2.192-2.584-2.192H23.59Z" transform="translate(6.724 31.813)" fill="#3e3a39"/>
  <path id="パス_261" data-name="パス 261" d="M42.161,110.582c0,3.745-2.205,6.512-5.572,6.512s-5.559-2.74-5.559-6.512c0-3.536,2.023-6.512,5.559-6.512S42.161,107.11,42.161,110.582Zm-9.565,0c0,3.562,1.944,5.154,3.993,5.154,1.892,0,4.006-1.4,4.006-5.154s-1.957-5.154-4.006-5.154S32.6,106.9,32.6,110.582Z" transform="translate(9.462 31.734)" fill="#3e3a39"/>
  <path id="パス_262" data-name="パス 262" d="M48.348,107.9c-.091-1.749-1.018-2.453-2.688-2.453-.313,0-2.636,0-2.636,1.918,0,1.279.861,1.618,3.3,2.519,2.505.94,3.928,1.462,3.928,3.549,0,1.566-1.122,3.667-4.385,3.667-2.218,0-4.711-1.031-4.789-4.058h1.644c.013,1.775,1.227,2.688,3.04,2.688s2.923-.992,2.923-2.166c0-1.279-1.031-1.67-3-2.362-2.7-.953-4.228-1.5-4.228-3.667s1.749-3.471,4.176-3.471c2.036,0,4.006.8,4.306,3.823H48.348Z" transform="translate(12.526 31.731)" fill="#3e3a39"/>
  <path id="パス_263" data-name="パス 263" d="M56.868,107.9c-.091-1.749-1.018-2.453-2.688-2.453-.313,0-2.636,0-2.636,1.918,0,1.279.861,1.618,3.3,2.519,2.505.94,3.928,1.462,3.928,3.549,0,1.566-1.122,3.667-4.385,3.667-2.218,0-4.711-1.031-4.789-4.058h1.644c.013,1.775,1.227,2.688,3.04,2.688s2.923-.992,2.923-2.166c0-1.279-1.031-1.67-3-2.362-2.7-.953-4.228-1.5-4.228-3.667s1.749-3.471,4.176-3.471c2.036,0,4.006.8,4.306,3.823H56.868Z" transform="translate(15.124 31.731)" fill="#3e3a39"/>
  <path id="パス_264" data-name="パス 264" d="M27.713,123.33c2.427,0,3.536,1.488,3.536,3.158a2.729,2.729,0,0,1-1.8,2.662,3.009,3.009,0,0,1,2.258,3.04c0,1.109-.522,3.471-3.8,3.471H22.05V123.33ZM23.6,124.674v4.058h3.784c1.879,0,2.3-1.2,2.3-2.036,0-.548-.183-2.023-2.3-2.023Zm0,5.246v4.4h4.006a2.231,2.231,0,0,0,2.532-2.205c0-.887-.47-2.192-2.584-2.192H23.59Z" transform="translate(6.724 37.607)" fill="#3e3a39"/>
  <path id="パス_265" data-name="パス 265" d="M40,123.33v1.344H32.93v3.98h6.211V130H32.93v4.319h7.216v1.344H31.39V123.33H40Z" transform="translate(9.572 37.607)" fill="#3e3a39"/>
  <path id="パス_266" data-name="パス 266" d="M45.719,123.33l4.554,12.332H48.655l-1-2.78H41.883l-.992,2.78H39.26l4.554-12.332h1.892Zm-.94,1.462-2.44,6.838h4.88l-2.44-6.838Z" transform="translate(11.972 37.607)" fill="#3e3a39"/>
  <path id="パス_267" data-name="パス 267" d="M51.459,123.33l3.393,10.492,3.393-10.492H60.4v12.332h-1.54V125.144l-3.406,10.518H54.226l-3.393-10.518v10.518H49.28V123.33h2.166Z" transform="translate(15.027 37.607)" fill="#3e3a39"/>
  <path id="パス_268" data-name="パス 268" d="M66.935,126.9c-.091-1.749-1.018-2.453-2.688-2.453-.313,0-2.623,0-2.623,1.918,0,1.279.861,1.618,3.3,2.519,2.505.94,3.928,1.462,3.928,3.549,0,1.566-1.122,3.667-4.385,3.667-2.218,0-4.711-1.031-4.789-4.058h1.644c.013,1.775,1.227,2.688,3.04,2.688s2.923-.992,2.923-2.166c0-1.279-1.031-1.67-3-2.362-2.714-.953-4.228-1.5-4.228-3.667s1.749-3.471,4.176-3.471c2.036,0,4.006.8,4.306,3.823H66.948Z" transform="translate(18.198 37.525)" fill="#3e3a39"/>
  <path id="パス_269" data-name="パス 269" d="M23.3,144.966l.026,1.318a3.309,3.309,0,0,1,2.845-1.644,3.171,3.171,0,0,1,3.223,3.367v5.964H27.981V148.1a2.151,2.151,0,0,0-2.205-2.271,2.526,2.526,0,0,0-2.453,2.584v5.559H21.9v-9Z" transform="translate(6.678 44.105)" fill="#3e3a39"/>
  <path id="パス_270" data-name="パス 270" d="M29.939,147.563c.065-2.036,1.827-2.923,3.758-2.923,1.253,0,3.68.457,3.68,2.975v4.841a2.067,2.067,0,0,0,.391,1.318v.209h-1.54a2.3,2.3,0,0,1-.261-1.109,4.461,4.461,0,0,1-3.3,1.462c-1.422,0-3.236-.7-3.236-2.766s1.853-2.427,4.854-2.91c1.109-.17,1.709-.261,1.709-1.161,0-.365-.222-1.644-2.284-1.644-1.3,0-2.271.5-2.349,1.736H29.952Zm6.029,1.736a4.358,4.358,0,0,1-1.8.457c-2.623.391-3.262.718-3.262,1.749,0,.652.457,1.592,1.97,1.592,1.827,0,3.08-1.331,3.08-2.14V149.3Z" transform="translate(8.974 44.105)" fill="#3e3a39"/>
  <path id="パス_271" data-name="パス 271" d="M39.016,144.966l.026,1.318a3.309,3.309,0,0,1,2.845-1.644,3.178,3.178,0,0,1,3.223,3.367v5.964H43.7V148.1a2.151,2.151,0,0,0-2.205-2.271,2.526,2.526,0,0,0-2.453,2.584v5.559H37.62v-9Z" transform="translate(11.471 44.105)" fill="#3e3a39"/>
  <path id="パス_272" data-name="パス 272" d="M53.534,149.471c0,3.628-2.258,4.841-4.189,4.841-2.284,0-4.215-1.553-4.215-4.763,0-4.254,2.819-4.92,4.215-4.92,1.931,0,4.189,1.174,4.189,4.841Zm-6.916,0c0,1.5.7,3.628,2.727,3.628s2.714-2.166,2.714-3.628-.692-3.641-2.714-3.641S46.618,147.971,46.618,149.471Z" transform="translate(13.761 44.102)" fill="#3e3a39"/>
  <path id="パス_273" data-name="パス 273" d="M56.854,147.5a1.142,1.142,0,1,1-1.135-1.135A1.131,1.131,0,0,1,56.854,147.5Z" transform="translate(16.64 44.629)" fill="#3e3a39"/>
  <path id="パス_274" data-name="パス 274" d="M61.065,144.89v5.872a2.148,2.148,0,0,0,2.192,2.271,2.537,2.537,0,0,0,2.466-2.584V144.89h1.409v9h-1.4v-1.318a3.416,3.416,0,0,1-2.884,1.657,3.19,3.19,0,0,1-3.223-3.38V144.89h1.422Z" transform="translate(18.183 44.181)" fill="#3e3a39"/>
  <path id="パス_275" data-name="パス 275" d="M68.9,144.966l.026,1.318a3.309,3.309,0,0,1,2.845-1.644,3.171,3.171,0,0,1,3.223,3.367v5.964H73.581V148.1a2.151,2.151,0,0,0-2.205-2.271,2.526,2.526,0,0,0-2.453,2.584v5.559H67.5v-9Z" transform="translate(20.583 44.105)" fill="#3e3a39"/>
  <path id="パス_276" data-name="パス 276" d="M77.024,144.089H75.38V142.34h1.644Zm-.1,10.583H75.5v-9H76.92Z" transform="translate(22.986 43.404)" fill="#3e3a39"/>
  <path id="パス_277" data-name="パス 277" d="M79.762,144.89l2.949,7.542,2.936-7.542h1.592l-3.719,9H81.889l-3.719-9h1.592Z" transform="translate(23.836 44.181)" fill="#3e3a39"/>
  <path id="パス_278" data-name="パス 278" d="M94.566,151.178a3.666,3.666,0,0,1-3.993,3.132c-3.9,0-4.293-3.536-4.293-4.854,0-2.662,1.331-4.815,4.163-4.815s4.228,2.166,4.241,5.168H87.755c.091,1.957.809,3.3,2.806,3.3a2.294,2.294,0,0,0,2.505-1.931h1.5Zm-1.357-2.505c-.261-1.788-1.122-2.845-2.727-2.845s-2.453,1.07-2.688,2.845h5.415Z" transform="translate(26.309 44.105)" fill="#3e3a39"/>
  <path id="パス_279" data-name="パス 279" d="M95.909,144.966v1.24c.287-.457.926-1.566,3.236-1.566h.639v1.422h-.7a4.161,4.161,0,0,0-1.957.4,2.6,2.6,0,0,0-1.2,2.166v5.337H94.5v-9h1.409Z" transform="translate(28.816 44.105)" fill="#3e3a39"/>
  <path id="パス_280" data-name="パス 280" d="M101.2,151.256a1.97,1.97,0,0,0,2.179,1.853c.3,0,2.271,0,2.271-1.475,0-.953-.535-1.122-2.414-1.683-2.192-.652-3.3-.992-3.3-2.714,0-2.036,2.062-2.6,3.432-2.6,3.236,0,3.484,2.01,3.6,2.832h-1.475c-.052-1.592-1.657-1.644-2.062-1.644-1.318,0-2.01.548-2.01,1.266,0,.77.222,1,2.584,1.723,2.023.626,3.132,1.1,3.132,2.662,0,2.036-1.814,2.832-3.6,2.832-3.367,0-3.706-2.192-3.823-3.054Z" transform="translate(30.405 44.105)" fill="#3e3a39"/>
  <path id="パス_281" data-name="パス 281" d="M115.016,151.178a3.666,3.666,0,0,1-3.993,3.132c-3.9,0-4.293-3.536-4.293-4.854,0-2.662,1.331-4.815,4.163-4.815s4.228,2.166,4.241,5.168H108.2c.091,1.957.809,3.3,2.806,3.3a2.294,2.294,0,0,0,2.505-1.931h1.5Zm-1.357-2.505c-.261-1.788-1.122-2.845-2.727-2.845s-2.453,1.07-2.688,2.845h5.415Z" transform="translate(32.545 44.105)" fill="#3e3a39"/>
  <path id="パス_282" data-name="パス 282" d="M31.182,161.33v1.344h-4.15v10.988H25.48V162.674H21.33V161.33h9.839Z" transform="translate(6.504 49.194)" fill="#3e3a39"/>
  <path id="パス_283" data-name="パス 283" d="M41.271,167.582c0,3.745-2.205,6.512-5.572,6.512s-5.559-2.74-5.559-6.512c0-3.536,2.023-6.512,5.559-6.512S41.271,164.11,41.271,167.582Zm-9.565,0c0,3.562,1.944,5.154,3.993,5.154,1.892,0,4.006-1.4,4.006-5.154s-1.957-5.154-4.006-5.154S31.706,163.9,31.706,167.582Z" transform="translate(9.191 49.115)" fill="#3e3a39"/>
  <path id="パス_284" data-name="パス 284" d="M42.729,161.33l3.393,10.492,3.393-10.492h2.153v12.332h-1.54V163.144l-3.406,10.518H45.5L42.1,163.144v10.518H40.55V161.33h2.166Z" transform="translate(12.365 49.194)" fill="#3e3a39"/>
  <path id="パス_285" data-name="パス 285" d="M53.466,161.33l3.393,10.492,3.393-10.492h2.166v12.332h-1.54V163.144l-3.406,10.518H56.246l-3.393-10.518v10.518H51.3V161.33Z" transform="translate(15.643 49.194)" fill="#3e3a39"/>
  <path id="パス_286" data-name="パス 286" d="M63.247,161.33l3.68,6.016,3.667-6.016h1.827l-4.724,7.5v4.841H66.144v-4.841l-4.724-7.5h1.827Z" transform="translate(18.729 49.194)" fill="#3e3a39"/>
  <path id="パス_287" data-name="パス 287" d="M77.327,161.33v5.181h7.047V161.33h1.553v12.332H84.373v-5.82H77.327v5.82H75.8V161.33Z" transform="translate(23.114 49.194)" fill="#3e3a39"/>
  <path id="パス_288" data-name="パス 288" d="M87.373,173.662H85.82V161.33h1.553Z" transform="translate(26.169 49.194)" fill="#3e3a39"/>
  <path id="パス_289" data-name="パス 289" d="M90.843,161.33v10.988h6.225v1.344H89.29V161.33Z" transform="translate(27.227 49.194)" fill="#3e3a39"/>
  <path id="パス_290" data-name="パス 290" d="M104.927,161.333v1.344H98.7v4.189h5.35v1.344H98.7v5.442H97.15V161.32h7.777Z" transform="translate(29.624 49.191)" fill="#3e3a39"/>
  <path id="パス_291" data-name="パス 291" d="M106.5,173.662H104.95V161.33H106.5Z" transform="translate(32.002 49.194)" fill="#3e3a39"/>
  <path id="パス_292" data-name="パス 292" d="M118.913,167.595v6.146h-1.187l-.091-2.062a4.732,4.732,0,0,1-4.1,2.414c-2.427,0-5.507-1.775-5.507-6.512s3.262-6.512,5.624-6.512a5.158,5.158,0,0,1,5.207,4.332H117.23a3.61,3.61,0,0,0-3.667-2.975c-1.749,0-3.98,1.227-3.98,5.168,0,4.215,2.519,5.128,3.85,5.128,1.723,0,3.471-1.3,3.928-3.876h-3.693v-1.253h5.246Z" transform="translate(32.942 49.115)" fill="#3e3a39"/>
  <path id="パス_293" data-name="パス 293" d="M127.069,161.33v1.344H120v3.98h6.211V168H120v4.319h7.216v1.344H118.47V161.33h8.613Z" transform="translate(36.125 49.194)" fill="#3e3a39"/>
  <path id="パス_294" data-name="パス 294" d="M132.86,161.33c3.223,0,3.837,2.023,3.837,3.275a3.1,3.1,0,0,1-2.375,3.21,2.473,2.473,0,0,1,2.1,2.649v.913c0,1.579.365,1.879.626,2.114v.183h-1.788a3.529,3.529,0,0,1-.378-2.023v-1.044c0-1.1-.548-2.179-2.505-2.179h-3.784v5.246H127.04V161.343h5.82Zm-4.267,1.344v4.4h4.137a2.234,2.234,0,0,0,2.414-2.284c0-1.122-.652-2.114-2.518-2.114h-4.019Z" transform="translate(38.738 49.194)" fill="#3e3a39"/>
  <path id="パス_295" data-name="パス 295" d="M34.695,182.649a21.039,21.039,0,0,1-4.828,5,5.112,5.112,0,0,0-.966-.992,12.533,12.533,0,0,0,4.241-4.163H21.75v-1.279H33.442a2.772,2.772,0,0,0,.861-.144l.94.861a5.921,5.921,0,0,0-.535.718Zm-5.9,1.709c-.091,2.453-.287,6.472-4.933,9.108a10.236,10.236,0,0,0-1.187-.913c3.523-1.827,4.867-4.254,4.646-8.782l1.475.13c.157.013.313.078.313.17,0,.157-.17.222-.313.287Z" transform="translate(6.632 55.214)" fill="#3e3a39"/>
  <path id="パス_296" data-name="パス 296" d="M41.179,186.277a7.163,7.163,0,0,1-5.363,7.477,4.916,4.916,0,0,0-1-1.109c4.424-1.24,5.011-3.9,5.011-6.368H33.61v-1.253H46.738v1.253H41.179Zm-5.507-4.215v-1.253H44.48v1.253Zm10.583,1.07a8.245,8.245,0,0,0-1.618-1.631l.652-.692a14.677,14.677,0,0,1,1.67,1.579,4.762,4.762,0,0,0-.718.731Zm1.031-1.109a8.823,8.823,0,0,0-1.631-1.631l.652-.692a11.919,11.919,0,0,1,1.67,1.579,3.754,3.754,0,0,0-.7.731Z" transform="translate(10.249 54.796)" fill="#3e3a39"/>
  <path id="パス_297" data-name="パス 297" d="M55.015,182.881a22.536,22.536,0,0,1-3.21,2.91v7.177h-1.24v-6.316a23.56,23.56,0,0,1-4.411,2.127,4.309,4.309,0,0,0-.874-1.018,17.268,17.268,0,0,0,8.978-6.042l1.031.77a.358.358,0,0,1,.17.248c0,.17-.157.17-.457.144Z" transform="translate(13.807 55.412)" fill="#3e3a39"/>
  <path id="パス_298" data-name="パス 298" d="M65.908,183.735c-1.174,2.962-1.435,3.562-2.31,4.8a14.621,14.621,0,0,1,1.97,2.01,9.606,9.606,0,0,0-.94,1.135,14.682,14.682,0,0,0-1.866-2.075,16.146,16.146,0,0,1-6.512,4.345,10.627,10.627,0,0,0-.913-1.227,13.93,13.93,0,0,0,6.394-4.006,25.883,25.883,0,0,0-3.3-2.258l.835-.953a39.106,39.106,0,0,1,3.275,2.179,14.171,14.171,0,0,0,1.736-3.836H59.435a17.251,17.251,0,0,1-3.771,4.032,4.839,4.839,0,0,0-1.044-.992,13.9,13.9,0,0,0,5.272-6.968l1.409.418c.222.065.274.131.274.209,0,.183-.274.209-.365.209-.3.561-.652,1.279-1,1.866h4.306a2.831,2.831,0,0,0,1.018-.157l.692.613a4.661,4.661,0,0,0-.313.639Zm-.757-2.023a13.724,13.724,0,0,0-1.475-1.657l.8-.6a14.183,14.183,0,0,1,1.475,1.631,3.305,3.305,0,0,0-.8.626Zm2.14-.026a12.55,12.55,0,0,0-1.488-1.749l.8-.548a13.17,13.17,0,0,1,1.514,1.7,4.325,4.325,0,0,0-.835.613Z" transform="translate(16.655 54.701)" fill="#3e3a39"/>
  <path id="パス_299" data-name="パス 299" d="M78.33,192.836a20.714,20.714,0,0,0-4.92-5.089,17.429,17.429,0,0,1-6.746,5.285,3.182,3.182,0,0,0-.874-1.2,14.792,14.792,0,0,0,9.017-9.748H67.16V180.8h7.869a5.04,5.04,0,0,0,1.07-.1l.77.718a5.037,5.037,0,0,0-.574,1.031,23.643,23.643,0,0,1-2.166,4.293,27.111,27.111,0,0,1,5.311,5,7.341,7.341,0,0,0-1.1,1.109Z" transform="translate(20.061 55.101)" fill="#3e3a39"/>
  <path id="パス_300" data-name="パス 300" d="M29.656,204.017c-.091,4.606-2.179,7.112-5.6,8.743a3.741,3.741,0,0,0-1.044-1.083c5.011-1.944,5.168-5.742,5.246-7.673H21.67v-1.266h6.59V198.98l1.409.052c.157,0,.339.013.339.183s-.235.248-.339.3v3.223h5.337V204H29.669Z" transform="translate(6.608 60.675)" fill="#3e3a39"/>
  <path id="パス_301" data-name="パス 301" d="M45.65,200.051a1.628,1.628,0,0,1-.313-.026,24.942,24.942,0,0,1-3.993,3.68v9.017H39.921V204.7a28.751,28.751,0,0,1-5.663,2.753,6.141,6.141,0,0,0-1.018-1.187,21.5,21.5,0,0,0,11.235-7.542l1.3.94a.269.269,0,0,1,.13.222c0,.131-.1.183-.248.183Z" transform="translate(10.136 60.596)" fill="#3e3a39"/>
  <path id="パス_302" data-name="パス 302" d="M51.963,207.213l.757,5.272-1.344.235-.783-5.337-5.964.77-.17-1.279,5.95-.77-.444-2.923-4.372.561-.144-1.279,4.332-.548-.4-2.806,1.383-.157c.091-.013.326-.052.326.157,0,.13-.065.17-.248.313l.326,2.31,4.163-.535.144,1.266L51.363,203l.418,2.923,5.676-.718.157,1.279-5.65.718Z" transform="translate(13.557 60.663)" fill="#3e3a39"/>
  <path id="パス_303" data-name="パス 303" d="M56.22,210.368V209.1h7.686l1.331-7.516H58.5V200.32h8.43L65.368,209.1h4.215v1.266Z" transform="translate(17.143 61.083)" fill="#3e3a39"/>
  <path id="パス_304" data-name="パス 304" d="M76.176,204.017c-.091,4.606-2.179,7.112-5.6,8.743a3.741,3.741,0,0,0-1.044-1.083c5.011-1.944,5.168-5.742,5.246-7.673H68.19v-1.266h6.59V198.98l1.409.052c.157,0,.339.013.339.183s-.235.248-.339.3v3.223h5.337V204H76.189Z" transform="translate(20.793 60.675)" fill="#3e3a39"/>
  <path id="パス_305" data-name="パス 305" d="M92.18,200.051a1.628,1.628,0,0,1-.313-.026,24.943,24.943,0,0,1-3.993,3.68v9.017H86.451V204.7a28.751,28.751,0,0,1-5.663,2.753,6.141,6.141,0,0,0-1.018-1.187,21.5,21.5,0,0,0,11.235-7.542l1.3.94a.269.269,0,0,1,.13.222c0,.131-.1.183-.248.183Z" transform="translate(24.324 60.596)" fill="#3e3a39"/>
  <path id="パス_306" data-name="パス 306" d="M99.093,208.278A21.9,21.9,0,0,0,93.3,204.3v8.234H91.89V199l1.422.1c.209.013.3.065.3.183,0,.17-.209.222-.313.235v4.463l.613-.848a25.225,25.225,0,0,1,6.016,3.993,9.216,9.216,0,0,0-.835,1.135Z" transform="translate(28.02 60.681)" fill="#3e3a39"/>
  <path id="パス_307" data-name="パス 307" d="M165.7,47.33v7.921a3.526,3.526,0,0,0,7.047,0V47.33H174.3v7.751c0,2.349-1.135,4.933-5.089,4.933-3.484,0-5.037-2.114-5.037-4.933V47.33h1.54Z" transform="translate(50.06 14.432)" fill="#3e3a39"/>
  <path id="パス_308" data-name="パス 308" d="M175.78,47.33l7.047,10.022V47.33h1.553V59.662h-1.553L175.78,49.64V59.662h-1.54V47.33Z" transform="translate(53.131 14.432)" fill="#3e3a39"/>
  <path id="パス_309" data-name="パス 309" d="M185.823,59.662H184.27V47.33h1.553Z" transform="translate(56.189 14.432)" fill="#3e3a39"/>
  <path id="パス_310" data-name="パス 310" d="M196.9,47.33v1.344h-4.15V59.662H191.2V48.674h-4.15V47.33h9.839Z" transform="translate(57.037 14.432)" fill="#3e3a39"/>
  <path id="パス_311" data-name="パス 311" d="M204.829,47.33v1.344h-7.073v3.98h6.211V54h-6.211v4.319h7.216v1.344H196.23V47.33h8.613Z" transform="translate(59.836 14.432)" fill="#3e3a39"/>
  <path id="パス_312" data-name="パス 312" d="M209.038,47.33c3.067,0,5.428,2.062,5.428,6.068,0,5.1-3.236,6.264-5.428,6.264H204.81V47.33Zm-2.675,1.344v9.643h2.662c2.558,0,3.876-2.14,3.876-4.867,0-2.3-1.109-4.776-3.876-4.776Z" transform="translate(62.453 14.432)" fill="#3e3a39"/>
  <path id="パス_313" data-name="パス 313" d="M224.259,47.33l4.554,12.332H227.2l-1-2.78h-5.768l-.992,2.78H217.8l4.554-12.332h1.892Zm-.94,1.462-2.44,6.838h4.88l-2.44-6.838Z" transform="translate(66.414 14.432)" fill="#3e3a39"/>
  <path id="パス_314" data-name="パス 314" d="M233.74,47.33c3.223,0,3.836,2.023,3.836,3.275a3.1,3.1,0,0,1-2.375,3.21,2.473,2.473,0,0,1,2.1,2.649v.913c0,1.579.365,1.879.626,2.114v.183h-1.788a3.529,3.529,0,0,1-.378-2.023V56.608c0-1.1-.548-2.179-2.505-2.179h-3.784v5.246H227.92V47.343h5.82Zm-4.267,1.344v4.4h4.137a2.234,2.234,0,0,0,2.414-2.284c0-1.122-.652-2.114-2.519-2.114h-4.019Z" transform="translate(69.5 14.432)" fill="#3e3a39"/>
  <path id="パス_315" data-name="パス 315" d="M243.15,47.33c3.223,0,3.836,2.023,3.836,3.275a3.1,3.1,0,0,1-2.375,3.21,2.473,2.473,0,0,1,2.1,2.649v.913c0,1.579.365,1.879.626,2.114v.183h-1.788a3.529,3.529,0,0,1-.378-2.023V56.608c0-1.1-.548-2.179-2.505-2.179h-3.784v5.246H237.33V47.343h5.82Zm-4.267,1.344v4.4h4.137a2.234,2.234,0,0,0,2.414-2.284c0-1.122-.652-2.114-2.518-2.114H238.9Z" transform="translate(72.369 14.432)" fill="#3e3a39"/>
  <path id="パス_316" data-name="パス 316" d="M257.441,53.582c0,3.745-2.205,6.512-5.572,6.512s-5.559-2.74-5.559-6.512c0-3.536,2.023-6.512,5.559-6.512s5.572,3.04,5.572,6.512Zm-9.565,0c0,3.562,1.944,5.154,3.993,5.154,1.892,0,4.006-1.4,4.006-5.154s-1.957-5.154-4.006-5.154S247.876,49.9,247.876,53.582Z" transform="translate(75.107 14.353)" fill="#3e3a39"/>
  <path id="パス_317" data-name="パス 317" d="M257.724,47.33l2.205,10.857,2.192-10.857h1.892l2.192,10.857,2.205-10.857h1.631l-2.806,12.332h-2.01l-2.179-10.7-2.179,10.7h-2.01L256.08,47.33h1.631Z" transform="translate(78.086 14.432)" fill="#3e3a39"/>
  <path id="パス_318" data-name="パス 318" d="M275.258,50.9c-.091-1.749-1.018-2.453-2.688-2.453-.313,0-2.636,0-2.636,1.918,0,1.279.861,1.618,3.3,2.519,2.505.94,3.928,1.462,3.928,3.549,0,1.566-1.122,3.667-4.385,3.667-2.218,0-4.711-1.031-4.789-4.058h1.644c.013,1.775,1.227,2.688,3.04,2.688s2.923-.992,2.923-2.166c0-1.279-1.031-1.67-3-2.362-2.7-.953-4.228-1.5-4.228-3.667s1.749-3.471,4.176-3.471c2.036,0,4.006.8,4.306,3.823h-1.592Z" transform="translate(81.718 14.35)" fill="#3e3a39"/>
  <path id="パス_319" data-name="パス 319" d="M282.783,47.33V58.318h6.224v1.344H281.23V47.33Z" transform="translate(85.755 14.432)" fill="#3e3a39"/>
  <path id="パス_320" data-name="パス 320" d="M298.252,47.33v1.344H294.1V59.662H292.55V48.674H288.4V47.33h9.839Z" transform="translate(87.942 14.432)" fill="#3e3a39"/>
  <path id="パス_321" data-name="パス 321" d="M301.868,47.33c3.067,0,5.428,2.062,5.428,6.068,0,5.1-3.236,6.264-5.428,6.264H297.64V47.33Zm-2.675,1.344v9.643h2.662c2.558,0,3.876-2.14,3.876-4.867,0-2.3-1.109-4.776-3.876-4.776Z" transform="translate(90.759 14.432)" fill="#3e3a39"/>
  <path id="パス_322" data-name="パス 322" d="M308.571,57.186H306.94V55.45h1.631Z" transform="translate(93.595 16.908)" fill="#3e3a39"/>
  <path id="パス_323" data-name="パス 323" d="M171.957,66.333v1.344h-6.225v4.189h5.35V73.21h-5.35v5.442H164.18V66.32h7.777Z" transform="translate(50.063 20.223)" fill="#3e3a39"/>
  <path id="パス_324" data-name="パス 324" d="M173.557,66.33v7.921a3.526,3.526,0,0,0,7.047,0V66.33h1.553v7.751c0,2.349-1.148,4.933-5.089,4.933-3.484,0-5.037-2.114-5.037-4.933V66.33h1.527Z" transform="translate(52.457 20.226)" fill="#3e3a39"/>
  <path id="パス_325" data-name="パス 325" d="M187.96,66.33c3.223,0,3.836,2.023,3.836,3.275a3.1,3.1,0,0,1-2.375,3.21,2.473,2.473,0,0,1,2.1,2.649v.913c0,1.579.365,1.879.626,2.114v.183h-1.788a3.529,3.529,0,0,1-.378-2.023V75.608c0-1.1-.548-2.179-2.505-2.179h-3.784v5.246H182.14V66.343h5.82Zm-4.267,1.344v4.4h4.137a2.234,2.234,0,0,0,2.414-2.284c0-1.122-.652-2.114-2.519-2.114h-4.019Z" transform="translate(55.54 20.226)" fill="#3e3a39"/>
  <path id="パス_326" data-name="パス 326" d="M193.073,66.33V77.318H199.3v1.344H191.52V66.33Z" transform="translate(58.4 20.226)" fill="#3e3a39"/>
  <path id="パス_327" data-name="パス 327" d="M205.149,66.33,209.7,78.662h-1.618l-1-2.779h-5.768l-.992,2.779H198.69l4.554-12.332h1.892Zm-.94,1.462-2.44,6.838h4.88l-2.44-6.838Z" transform="translate(60.586 20.226)" fill="#3e3a39"/>
  <path id="パス_328" data-name="パス 328" d="M170.437,91.68V95c0,1.422.561,1.54,2.532,1.54.378,0,2.975-.052,3.51-.065a6.379,6.379,0,0,0-.065,1.318c-4.854.013-5.115-.026-5.494-.1-1.866-.391-1.879-1.905-1.879-2.832V91.694H163.86V90.441h5.181V86.983h-3.8V85.73h10.439v1.253h-5.246v3.458h6.668v1.253h-6.668Z" transform="translate(49.966 26.142)" fill="#3e3a39"/>
  <path id="パス_329" data-name="パス 329" d="M175.79,91.083V89.7h13.323v1.383Z" transform="translate(53.604 27.352)" fill="#3e3a39"/>
  <path id="パス_330" data-name="パス 330" d="M198.878,88.735c-1.174,2.962-1.435,3.562-2.323,4.8a14.619,14.619,0,0,1,1.97,2.01,9.608,9.608,0,0,0-.94,1.135,14.681,14.681,0,0,0-1.866-2.075,16.146,16.146,0,0,1-6.512,4.345,10.627,10.627,0,0,0-.913-1.227A14.026,14.026,0,0,0,194.7,93.72a26.837,26.837,0,0,0-3.3-2.258l.822-.953a39.107,39.107,0,0,1,3.275,2.179,14.171,14.171,0,0,0,1.736-3.836h-4.828a17.251,17.251,0,0,1-3.771,4.032,4.839,4.839,0,0,0-1.044-.992,13.977,13.977,0,0,0,5.272-6.968l1.409.418c.222.065.261.13.261.209,0,.183-.261.209-.365.209-.3.561-.652,1.279-1,1.866h4.306a2.831,2.831,0,0,0,1.018-.157l.692.613a4.663,4.663,0,0,0-.313.639Zm-.757-2.023a13.721,13.721,0,0,0-1.475-1.657l.8-.6a14.185,14.185,0,0,1,1.475,1.631,3.58,3.58,0,0,0-.8.626Zm2.14-.026a12.549,12.549,0,0,0-1.488-1.749l.8-.548a13.17,13.17,0,0,1,1.514,1.7,4.326,4.326,0,0,0-.835.613Z" transform="translate(57.202 25.733)" fill="#3e3a39"/>
  <path id="パス_331" data-name="パス 331" d="M200.661,91.711a1.189,1.189,0,0,1-1.2-1.2,1.2,1.2,0,1,1,1.2,1.2Z" transform="translate(60.821 27.233)" fill="#3e3a39"/>
  <path id="パス_332" data-name="パス 332" d="M215,88.811c-1.488,3.51-3.367,7.96-9.108,10.27a5.526,5.526,0,0,0-1.031-1.018c2.727-1.1,6.564-3.08,8.586-9.448h-5.194a21.224,21.224,0,0,1-3.993,4.489,10.632,10.632,0,0,0-1.044-.966,16.683,16.683,0,0,0,5.428-7.268l1.318.561s.222.091.222.222c0,.17-.261.222-.378.222-.392.783-.574,1.109-.8,1.488H213.7a2.4,2.4,0,0,0,1.031-.235l.783.731a5.658,5.658,0,0,0-.5.953Z" transform="translate(61.968 25.879)" fill="#3e3a39"/>
  <path id="パス_333" data-name="パス 333" d="M218.913,96.78c-.47.235-2.584,1.227-2.988,1.462l-1-1.031a5.437,5.437,0,0,0,.078-.926V85.31l1.409.065c.222.013.326.026.326.157,0,.209-.222.3-.326.339V96.363a21.125,21.125,0,0,0,9.2-6.5,8.786,8.786,0,0,0,.7,1.409,24.117,24.117,0,0,1-7.4,5.507Z" transform="translate(65.535 26.014)" fill="#3e3a39"/>
  <path id="パス_334" data-name="パス 334" d="M237.978,87.649a20.544,20.544,0,0,1-4.841,5,5.112,5.112,0,0,0-.966-.992,12.533,12.533,0,0,0,4.241-4.163H225.02V86.214h11.692a2.772,2.772,0,0,0,.861-.144l.94.861A5.925,5.925,0,0,0,237.978,87.649Zm-5.9,1.709c-.091,2.453-.274,6.472-4.933,9.108a10.234,10.234,0,0,0-1.187-.913c3.523-1.827,4.867-4.254,4.646-8.782l1.475.13c.157.013.313.078.313.17C232.393,89.228,232.223,89.293,232.08,89.358Z" transform="translate(68.615 26.245)" fill="#3e3a39"/>
  <path id="パス_335" data-name="パス 335" d="M170.437,110.68v3.315c0,1.422.561,1.54,2.532,1.54.378,0,2.975-.052,3.51-.065a6.379,6.379,0,0,0-.065,1.318c-4.854.013-5.115-.026-5.494-.1-1.866-.391-1.879-1.905-1.879-2.832v-3.158H163.86v-1.253h5.181v-3.458h-3.8V104.73h10.439v1.253h-5.246v3.458h6.668v1.253h-6.668Z" transform="translate(49.966 31.935)" fill="#3e3a39"/>
  <path id="パス_336" data-name="パス 336" d="M180.2,108.46a17.7,17.7,0,0,0-4.45-2.988l.809-1.161a21.311,21.311,0,0,1,4.476,2.962,8.86,8.86,0,0,0-.848,1.188Zm-3.054,8.456c-.013.261-.052.365-.222.365a.33.33,0,0,1-.248-.183l-.848-1.409a18.5,18.5,0,0,0,11.953-8.586,9.578,9.578,0,0,0,.861,1.227c-3.51,5.663-8.952,7.7-11.5,8.613Z" transform="translate(53.591 31.807)" fill="#3e3a39"/>
  <path id="パス_337" data-name="パス 337" d="M200.7,115.285a51.72,51.72,0,0,1-5.337-5.716c-1.618-1.983-1.788-2.205-2.349-2.205-.483,0-.861.4-1.67,1.344-.848.979-2.662,3.145-3.054,3.641.013.157.013.365-.183.365-.078,0-.144-.065-.235-.157l-.992-1.031a16.277,16.277,0,0,0,2.819-2.858c1.827-2.179,2.375-2.688,3.354-2.688,1.031,0,1.579.639,3.21,2.688a37.879,37.879,0,0,0,5.324,5.4,7.661,7.661,0,0,0-.874,1.227Zm-1.253-7.712a11.1,11.1,0,0,0-1.579-1.67l.692-.7a14.154,14.154,0,0,1,1.618,1.67,3.642,3.642,0,0,0-.718.7Zm1.2-1.344a8.69,8.69,0,0,0-1.566-1.736l.718-.613a11.058,11.058,0,0,1,1.592,1.644,3.243,3.243,0,0,0-.757.7Z" transform="translate(56.985 31.676)" fill="#3e3a39"/>
  <path id="パス_338" data-name="パス 338" d="M204.214,105.271v3.85a7.694,7.694,0,0,1-3.915,7.321,3.786,3.786,0,0,0-1.109-.992c3.445-1.918,3.6-4.241,3.6-6.2v-4.58l1.383.091c.157.013.365.026.365.209,0,.144-.157.235-.313.3Zm4.071,10.609a4.238,4.238,0,0,0-.874.7l-1-.7c.013-.313.052-.783.052-1.227V104.54l1.4.065c.17,0,.313.013.313.17s-.144.209-.313.287v9.369a16.437,16.437,0,0,0,5.285-4.92,5.524,5.524,0,0,0,.757,1.187,21.942,21.942,0,0,1-5.6,5.168Z" transform="translate(60.739 31.877)" fill="#3e3a39"/>
  <path id="パス_339" data-name="パス 339" d="M164.08,134.116v-1.3h9.67v-6.916h-9.67v-1.3h11.092v10.283H173.75v-.77h-9.67Z" transform="translate(50.033 37.991)" fill="#3e3a39"/>
  <path id="パス_340" data-name="パス 340" d="M174.9,129.083V127.7h13.323v1.383Z" transform="translate(53.332 38.939)" fill="#3e3a39"/>
  <path id="パス_341" data-name="パス 341" d="M191.684,124.271v3.85a7.694,7.694,0,0,1-3.915,7.321,3.786,3.786,0,0,0-1.109-.992c3.445-1.918,3.6-4.241,3.6-6.2v-4.58l1.37.091c.157.013.365.026.365.209C192,124.114,191.841,124.206,191.684,124.271Zm4.071,10.609a4.239,4.239,0,0,0-.874.7l-1-.7c.013-.313.052-.783.052-1.227V123.54l1.4.065c.17,0,.313.013.313.17s-.144.209-.313.287v9.369a16.437,16.437,0,0,0,5.285-4.92,5.524,5.524,0,0,0,.757,1.187,21.942,21.942,0,0,1-5.6,5.168Z" transform="translate(56.918 37.671)" fill="#3e3a39"/>
  <path id="パス_342" data-name="パス 342" d="M208.854,124.994a24.3,24.3,0,0,1-2.179,6.773,13.473,13.473,0,0,1-2.336,3.393,6.651,6.651,0,0,0-1.279-.7c2.923-3,4.032-6.981,4.45-10.257l1.383.313c.209.052.3.091.3.222,0,.091-.065.209-.326.248Zm7.621,9.891a23.69,23.69,0,0,0-4.659-10.139l1.083-.8a25.158,25.158,0,0,1,4.933,10.178,6.358,6.358,0,0,0-1.344.77Z" transform="translate(61.919 37.796)" fill="#3e3a39"/>
  <path id="パス_343" data-name="パス 343" d="M215.87,129.083V127.7h13.323v1.383Z" transform="translate(65.825 38.939)" fill="#3e3a39"/>
  <path id="パス_344" data-name="パス 344" d="M232.35,127.46a17.7,17.7,0,0,0-4.45-2.988l.809-1.161a21.311,21.311,0,0,1,4.476,2.962,8.863,8.863,0,0,0-.848,1.188Zm-3.054,8.456c-.013.261-.052.365-.222.365a.33.33,0,0,1-.248-.183l-.848-1.409a18.5,18.5,0,0,0,11.953-8.586,9.578,9.578,0,0,0,.861,1.227c-3.51,5.663-8.952,7.7-11.5,8.613Z" transform="translate(69.493 37.601)" fill="#3e3a39"/>
  <path id="パス_345" data-name="パス 345" d="M169.939,142.33l4.554,12.332h-1.605l-1-2.78H166.1l-.992,2.78H163.48l4.554-12.332h1.892Zm-.94,1.462-2.44,6.838h4.88L169,143.792Z" transform="translate(49.85 43.401)" fill="#3e3a39"/>
  <path id="パス_346" data-name="パス 346" d="M174.879,144.966v1.24c.287-.457.927-1.566,3.236-1.566h.639v1.422h-.7a4.162,4.162,0,0,0-1.957.4,2.6,2.6,0,0,0-1.2,2.166v5.337H173.47v-9h1.409Z" transform="translate(52.896 44.105)" fill="#3e3a39"/>
  <path id="パス_347" data-name="パス 347" d="M180.486,144.966l.026,1.318a3.309,3.309,0,0,1,2.845-1.644,3.178,3.178,0,0,1,3.223,3.367v5.964h-1.409V148.1a2.151,2.151,0,0,0-2.205-2.271,2.526,2.526,0,0,0-2.453,2.584v5.559H179.09v-9Z" transform="translate(54.61 44.105)" fill="#3e3a39"/>
  <path id="パス_348" data-name="パス 348" d="M195,149.471c0,3.628-2.258,4.841-4.189,4.841-2.284,0-4.215-1.553-4.215-4.763,0-4.254,2.819-4.92,4.215-4.92,1.931,0,4.189,1.174,4.189,4.841Zm-6.916,0c0,1.5.7,3.628,2.727,3.628s2.714-2.166,2.714-3.628-.692-3.641-2.714-3.641S188.088,147.971,188.088,149.471Z" transform="translate(56.9 44.102)" fill="#3e3a39"/>
  <path id="パス_349" data-name="パス 349" d="M196.342,142.33v12.332H194.92V142.33Z" transform="translate(59.437 43.401)" fill="#3e3a39"/>
  <path id="パス_350" data-name="パス 350" d="M205.817,142.33v12.332h-1.4v-1.2a3.186,3.186,0,0,1-2.832,1.553c-2.062,0-3.719-1.709-3.719-4.815,0-3.458,1.944-4.854,3.758-4.854a3.028,3.028,0,0,1,2.78,1.54v-4.541h1.409Zm-6.459,7.843c0,3.262,1.788,3.628,2.519,3.628.692,0,2.532-.326,2.532-3.628s-1.709-3.641-2.532-3.641C201.25,146.532,199.358,146.819,199.358,150.173Z" transform="translate(60.336 43.401)" fill="#3e3a39"/>
  <path id="パス_351" data-name="パス 351" d="M216.043,142.33c3.119,0,4.137,2.088,4.137,3.823,0,2.688-1.736,3.784-4.137,3.784h-3.98v4.724H210.51V142.33h5.52Zm-3.98,1.344v4.933h3.85a2.42,2.42,0,0,0,2.662-2.44,2.459,2.459,0,0,0-2.662-2.492Z" transform="translate(64.191 43.401)" fill="#3e3a39"/>
  <path id="パス_352" data-name="パス 352" d="M219.956,147.563c.065-2.036,1.827-2.923,3.758-2.923,1.253,0,3.68.457,3.68,2.975v4.841a2.067,2.067,0,0,0,.391,1.318v.209h-1.527a2.3,2.3,0,0,1-.261-1.109,4.461,4.461,0,0,1-3.3,1.462c-1.422,0-3.236-.7-3.236-2.766s1.84-2.427,4.854-2.91c1.109-.17,1.709-.261,1.709-1.161,0-.365-.222-1.644-2.284-1.644-1.3,0-2.271.5-2.349,1.736h-1.409Zm6.029,1.736a4.359,4.359,0,0,1-1.8.457c-2.623.391-3.249.718-3.249,1.749,0,.652.457,1.592,1.97,1.592,1.827,0,3.08-1.331,3.08-2.14V149.3Z" transform="translate(66.92 44.105)" fill="#3e3a39"/>
  <path id="パス_353" data-name="パス 353" d="M229.172,142.33v12.332H227.75V142.33Z" transform="translate(69.448 43.401)" fill="#3e3a39"/>
  <path id="パス_354" data-name="パス 354" d="M232.4,144.966V146a2.816,2.816,0,0,1,2.519-1.357,2.32,2.32,0,0,1,2.284,1.579,2.741,2.741,0,0,1,2.6-1.579,2.513,2.513,0,0,1,2.61,2.753v6.577h-1.422v-6.3c0-.809-.261-1.827-1.54-1.827-1.866,0-2.049,1.905-2.049,2.375v5.755h-1.409v-6.3c0-.313-.078-1.827-1.54-1.827A2.157,2.157,0,0,0,232.4,148.1v5.885H230.99v-9h1.4Z" transform="translate(70.436 44.105)" fill="#3e3a39"/>
  <path id="パス_355" data-name="パス 355" d="M249.726,151.178a3.666,3.666,0,0,1-3.993,3.132c-3.9,0-4.293-3.536-4.293-4.854,0-2.662,1.331-4.815,4.163-4.815s4.228,2.166,4.241,5.168h-6.929c.091,1.957.809,3.3,2.806,3.3a2.294,2.294,0,0,0,2.505-1.931Zm-1.357-2.505c-.261-1.788-1.122-2.845-2.727-2.845s-2.453,1.07-2.688,2.845Z" transform="translate(73.622 44.105)" fill="#3e3a39"/>
  <path id="パス_356" data-name="パス 356" d="M251.069,144.966v1.24c.287-.457.927-1.566,3.236-1.566h.639v1.422h-.7a4.117,4.117,0,0,0-1.957.4,2.6,2.6,0,0,0-1.2,2.166v5.337H249.66v-9h1.409Z" transform="translate(76.129 44.105)" fill="#3e3a39"/>
  <path id="パス_357" data-name="パス 357" d="M169.939,161.33l4.554,12.332h-1.605l-1-2.78H166.1l-.992,2.78H163.48l4.554-12.332h1.892Zm-.94,1.462-2.44,6.838h4.88L169,162.792Z" transform="translate(49.85 49.194)" fill="#3e3a39"/>
  <path id="パス_358" data-name="パス 358" d="M181.767,165.686a3.17,3.17,0,0,0-3.223-3.249c-2.532,0-3.758,2.584-3.758,5.272,0,3.471,1.788,5.024,3.745,5.024.887,0,3-.339,3.249-3.432h1.592c-.157.966-.731,4.789-4.776,4.789-3.784,0-5.376-3.119-5.376-6.381s1.579-6.629,5.272-6.629c.522,0,4.189,0,4.8,4.619h-1.527Z" transform="translate(52.82 49.118)" fill="#3e3a39"/>
  <path id="パス_359" data-name="パス 359" d="M191.559,161.33v1.344h-7.073v3.98H190.7V168h-6.211v4.319H191.7v1.344H182.96V161.33h8.613Z" transform="translate(55.79 49.194)" fill="#3e3a39"/>
  <path id="パス_360" data-name="パス 360" d="M201.493,161.33c2.427,0,3.536,1.488,3.536,3.158a2.729,2.729,0,0,1-1.8,2.662,3.009,3.009,0,0,1,2.258,3.04c0,1.109-.522,3.471-3.8,3.471H195.83V161.33Zm-4.111,1.344v4.058h3.784c1.879,0,2.3-1.2,2.3-2.036,0-.548-.183-2.023-2.3-2.023Zm0,5.246v4.4h4.006a2.231,2.231,0,0,0,2.532-2.205c0-.887-.47-2.192-2.584-2.192H197.37Z" transform="translate(59.714 49.194)" fill="#3e3a39"/>
  <path id="パス_361" data-name="パス 361" d="M210.982,161.33l4.554,12.332h-1.618l-1-2.78h-5.781l-.992,2.78H204.51l4.554-12.332h1.892Zm-.94,1.462-2.44,6.838h4.88Z" transform="translate(62.361 49.194)" fill="#3e3a39"/>
  <path id="パス_362" data-name="パス 362" d="M225.123,167.595v6.146h-1.187l-.091-2.062a4.711,4.711,0,0,1-4.1,2.414c-2.427,0-5.507-1.775-5.507-6.512s3.249-6.512,5.611-6.512a5.158,5.158,0,0,1,5.207,4.332h-1.631a3.619,3.619,0,0,0-3.667-2.975c-1.736,0-3.98,1.227-3.98,5.168,0,4.215,2.518,5.128,3.85,5.128,1.723,0,3.471-1.3,3.928-3.876h-3.693v-1.253h5.246Z" transform="translate(65.328 49.115)" fill="#3e3a39"/>
  <path id="パス_363" data-name="パス 363" d="M231.545,164.9c-.091-1.749-1.018-2.453-2.688-2.453-.313,0-2.623,0-2.623,1.918,0,1.279.861,1.618,3.3,2.519,2.505.94,3.928,1.462,3.928,3.549,0,1.566-1.122,3.667-4.385,3.667-2.218,0-4.711-1.031-4.789-4.058h1.644c.013,1.775,1.227,2.688,3.04,2.688s2.923-.992,2.923-2.166c0-1.279-1.031-1.67-3-2.362-2.714-.953-4.228-1.5-4.228-3.667s1.749-3.471,4.176-3.471c2.036,0,4.006.8,4.306,3.823h-1.592Z" transform="translate(68.393 49.112)" fill="#3e3a39"/>
  <path id="パス_364" data-name="パス 364" d="M243.923,167.8a9.505,9.505,0,0,1-1.879,3.51l2.284,2.44H242.37l-1.357-1.488a6.474,6.474,0,0,1-4.372,1.827c-2.153,0-3.771-1.227-3.771-3.458,0-2.532,1.814-3.354,3.093-3.915-1.07-1.122-1.592-1.7-1.592-2.832,0-1.775,1.475-2.819,3.328-2.819,2.519,0,3.419,1.592,3.419,2.871,0,1.879-1.5,2.623-2.988,3.158l3.04,3.315a7.492,7.492,0,0,0,1.266-2.61h1.488Zm-7.06-.222c-1.383.561-2.505,1.357-2.505,2.975a2.162,2.162,0,0,0,2.466,2.231,5.266,5.266,0,0,0,3.38-1.422l-3.354-3.784Zm2.91-3.758a1.862,1.862,0,0,0-2.023-1.7,1.89,1.89,0,0,0-2.075,1.723c0,.809,1.031,1.827,1.579,2.362C238.455,165.729,239.773,165.128,239.773,163.823Z" transform="translate(71.009 49.115)" fill="#3e3a39"/>
  <path id="パス_365" data-name="パス 365" d="M244.853,161.33v10.988h6.225v1.344H243.3V161.33Z" transform="translate(74.189 49.194)" fill="#3e3a39"/>
  <path id="パス_366" data-name="パス 366" d="M252.687,161.33v7.921a3.526,3.526,0,0,0,7.047,0V161.33h1.553v7.751c0,2.349-1.148,4.933-5.089,4.933-3.484,0-5.037-2.114-5.037-4.933V161.33h1.527Z" transform="translate(76.586 49.194)" fill="#3e3a39"/>
  <path id="パス_367" data-name="パス 367" d="M271.733,167.595v6.146h-1.187l-.091-2.062a4.732,4.732,0,0,1-4.1,2.414c-2.427,0-5.507-1.775-5.507-6.512s3.249-6.512,5.624-6.512a5.149,5.149,0,0,1,5.207,4.332H270.05a3.619,3.619,0,0,0-3.667-2.975c-1.736,0-3.98,1.227-3.98,5.168,0,4.215,2.518,5.128,3.85,5.128,1.723,0,3.471-1.3,3.928-3.876h-3.693v-1.253Z" transform="translate(79.541 49.115)" fill="#3e3a39"/>
  <path id="パス_368" data-name="パス 368" d="M281.813,167.595v6.146h-1.187l-.091-2.062a4.732,4.732,0,0,1-4.1,2.414c-2.427,0-5.507-1.775-5.507-6.512s3.249-6.512,5.624-6.512a5.149,5.149,0,0,1,5.207,4.332H280.13a3.619,3.619,0,0,0-3.667-2.975c-1.736,0-3.98,1.227-3.98,5.168,0,4.215,2.519,5.128,3.85,5.128,1.723,0,3.471-1.3,3.928-3.876h-3.693v-1.253Z" transform="translate(82.615 49.115)" fill="#3e3a39"/>
  <path id="パス_369" data-name="パス 369" d="M287.169,161.33l4.554,12.332h-1.605l-1-2.78h-5.781l-.992,2.78H280.71l4.554-12.332h1.892Zm-.94,1.462-2.44,6.838h4.88Z" transform="translate(85.597 49.194)" fill="#3e3a39"/>
  <path id="パス_370" data-name="パス 370" d="M301.3,167.595v6.146h-1.187l-.091-2.062a4.712,4.712,0,0,1-4.1,2.414c-2.427,0-5.507-1.775-5.507-6.512s3.249-6.512,5.611-6.512a5.158,5.158,0,0,1,5.207,4.332h-1.631a3.619,3.619,0,0,0-3.667-2.975c-1.736,0-3.98,1.227-3.98,5.168,0,4.215,2.519,5.128,3.85,5.128,1.723,0,3.471-1.3,3.928-3.876h-3.693v-1.253h5.246Z" transform="translate(88.558 49.115)" fill="#3e3a39"/>
  <path id="パス_371" data-name="パス 371" d="M309.46,161.33v1.344h-7.073v3.98H308.6V168h-6.211v4.319H309.6v1.344H300.86V161.33h8.613Z" transform="translate(91.741 49.194)" fill="#3e3a39"/>
  <path id="パス_372" data-name="パス 372" d="M172.36,184.686a3.17,3.17,0,0,0-3.223-3.249c-2.532,0-3.758,2.584-3.758,5.272,0,3.471,1.788,5.024,3.745,5.024.887,0,3-.339,3.249-3.432h1.592c-.157.966-.731,4.789-4.776,4.789-3.784,0-5.389-3.119-5.389-6.381s1.579-6.629,5.272-6.629c.522,0,4.189,0,4.8,4.619h-1.54Z" transform="translate(49.947 54.912)" fill="#3e3a39"/>
  <path id="パス_373" data-name="パス 373" d="M175.073,192.662H173.52V180.33h1.553Z" transform="translate(52.911 54.988)" fill="#3e3a39"/>
  <path id="パス_374" data-name="パス 374" d="M186.152,180.33v1.344H182v10.988H180.45V181.674H176.3V180.33h9.839Z" transform="translate(53.759 54.988)" fill="#3e3a39"/>
  <path id="パス_375" data-name="パス 375" d="M187,192.662H185.45V180.33H187Z" transform="translate(56.549 54.988)" fill="#3e3a39"/>
  <path id="パス_376" data-name="パス 376" d="M197.522,180.33v1.344l-7.047,9.643h7.282v1.344H188.44v-1.344l7.047-9.643h-6.681V180.33Z" transform="translate(57.461 54.988)" fill="#3e3a39"/>
  <path id="パス_377" data-name="パス 377" d="M206.009,180.33v1.344h-7.073v3.98h6.211V187h-6.211v4.319h7.216v1.344H197.41V180.33h8.613Z" transform="translate(60.196 54.988)" fill="#3e3a39"/>
  <path id="パス_378" data-name="パス 378" d="M207.48,180.33l7.047,10.022V180.33h1.553v12.332h-1.553L207.48,182.64v10.022h-1.54V180.33Z" transform="translate(62.797 54.988)" fill="#3e3a39"/>
  <path id="パス_379" data-name="パス 379" d="M168.187,199.593a20.187,20.187,0,0,1-1.579,3.158c.144.026.535.144.535.248,0,.157-.183.222-.391.287v9.761H165.5v-8.639c-.483.652-.953,1.188-1.318,1.631a3.876,3.876,0,0,0-.861-1.018,17.361,17.361,0,0,0,3.876-6.381l1.24.5a.318.318,0,0,1,.222.248c0,.157-.209.183-.47.209Zm6.994,12.945h-3.406c-2.1,0-2.414-.861-2.414-2.14v-5.4l-1.814.378-.248-1.2,2.062-.444v-3.993l1.227.1c.235.013.391.078.391.183s-.078.17-.339.3v3.132l1.957-.4v-4.332l1.253.1c.183.013.378.091.378.209s-.078.157-.391.261v3.484l2.453-.522.731.444v4.241c0,1.475,0,2.453-2.271,2.44a3.323,3.323,0,0,0-.483-1.318c.3.026.535.065.822.065.483,0,.652-.1.652-.927v-3.589l-1.918.4v5.272h-1.24v-5.011l-1.957.418v5.546c0,.861.17,1.07,1.553,1.07h3.067c1.07,0,1.566-.078,1.97-1.853a2.544,2.544,0,0,0,1.083.626c-.626,2.427-1.683,2.427-3.119,2.427Z" transform="translate(49.801 60.571)" fill="#3e3a39"/>
  <line id="線_23" data-name="線 23" x2="411.601" transform="translate(25.276 44.837)" fill="none" stroke="#f0b200" stroke-miterlimit="10" stroke-width="0.5"/>
  <path id="パス_380" data-name="パス 380" d="M28.778,21.024c-.039,1.827-.13,6.264-5.82,8.1a5.38,5.38,0,0,0-1.083-1.2c4.8-1.344,5.429-4.228,5.429-6.9H20.57V19.667H34.807v1.357Zm-5.833-4.567V15.1H32.5v1.357Z" transform="translate(6.272 4.604)" fill="#3e3a39"/>
  <path id="パス_381" data-name="パス 381" d="M42.962,19.942c-.1,4.985-2.362,7.7-6.068,9.487a4.046,4.046,0,0,0-1.135-1.174c5.429-2.1,5.6-6.225,5.689-8.312H34.31v-1.37h7.138V14.5l1.527.052c.17,0,.378.013.378.209s-.261.274-.378.326v3.5h5.781v1.37H42.975Z" transform="translate(10.462 4.421)" fill="#3e3a39"/>
  <path id="パス_382" data-name="パス 382" d="M53.025,19.339A18.978,18.978,0,0,0,48.21,16.1L49.1,14.85a22.618,22.618,0,0,1,4.854,3.21,8.319,8.319,0,0,0-.913,1.292ZM49.711,28.5c-.013.287-.052.391-.235.391a.374.374,0,0,1-.274-.209l-.913-1.527a20.049,20.049,0,0,0,12.958-9.317,8.351,8.351,0,0,0,.94,1.318c-3.8,6.146-9.709,8.352-12.475,9.33Z" transform="translate(14.701 4.528)" fill="#3e3a39"/>
  <path id="パス_383" data-name="パス 383" d="M70.223,24.571a23.849,23.849,0,0,0-6.277-4.306V29.19H62.42V14.51l1.54.117c.222.013.326.065.326.209,0,.183-.222.235-.339.261v4.841l.666-.913a27.311,27.311,0,0,1,6.512,4.319,8.873,8.873,0,0,0-.9,1.24Z" transform="translate(19.034 4.425)" fill="#3e3a39"/>
  <path id="パス_384" data-name="パス 384" d="M78.254,16.351c.1.052.261.17.261.287,0,.183-.235.17-.5.157-.326.431-1.736,2.375-2.023,2.753-.731.94-.953,1.187-1.592,1.957.77-.078,1.4-.183,2.662-.391a7.486,7.486,0,0,0-.5-1.357l1.148-.352a18.127,18.127,0,0,1,1.135,3.523,6.612,6.612,0,0,0-1.24.431,9.553,9.553,0,0,0-.261-1.174c-.209.052-1.3.248-1.422.287V29.8h-1.3V22.679c-.731.1-1.227.17-2.492.326-.065.222-.13.391-.287.391s-.261-.3-.274-.444l-.183-1.227c.4-.013,1.122-.065,1.4-.078.431-.457.757-.913,1.344-1.657a20.448,20.448,0,0,0-2.7-2.453l.809-1.083c.6.5.8.679.979.848a28.11,28.11,0,0,0,1.8-3.223l1.122.548c.157.065.261.183.261.287,0,.157-.235.157-.326.157h-.157a30.872,30.872,0,0,1-1.879,2.988c.065.052.613.6.913.887.117-.157,1.631-2.166,2.205-3.171l1.083.626Zm-4.463,7.764c.157.039.352.078.352.235s-.13.209-.431.287a20.426,20.426,0,0,1-.979,4.032,4.746,4.746,0,0,0-1.266-.339A17.085,17.085,0,0,0,72.6,23.906Zm4.084-.326a23.246,23.246,0,0,0,1.083,3.654,4.625,4.625,0,0,0-1.24.431,20.541,20.541,0,0,1-1-3.732l1.148-.339Zm8.652-6.773c.013,2.766.013,8.7-.887,11.066-.548,1.422-1.527,1.683-3.6,1.644a3.956,3.956,0,0,0-.613-1.579,8.559,8.559,0,0,0,1.435.13c1.187,0,1.683-.326,2.075-3.745a53.6,53.6,0,0,0,.209-6.225H80.681a16.253,16.253,0,0,1-1.4,2.166,4.234,4.234,0,0,0-1.2-.757,15.765,15.765,0,0,0,2.923-5.6l1.279.418c.235.091.378.209.378.287,0,.157-.13.209-.522.274-.235.6-.5,1.266-.8,1.918H86.54ZM81.373,20.5a25.276,25.276,0,0,1,1.97,3.81,7.976,7.976,0,0,0-1.24.613,25.85,25.85,0,0,0-1.918-3.9l1.188-.522Z" transform="translate(21.769 4.293)" fill="#3e3a39"/>
  <path id="パス_385" data-name="パス 385" d="M87.784,24.935a2.524,2.524,0,0,0,2.7,2.3c3.341,0,3.6-3.523,3.732-5.324a4.475,4.475,0,0,1-3.8,1.605,4.248,4.248,0,0,1-4.58-4.372c0-2.584,1.827-4.541,4.854-4.541,4.841,0,5.246,4.867,5.246,6.786,0,3.51-1.318,7.334-5.415,7.334a4.354,4.354,0,0,1-4.515-3.771H87.8Zm-.261-5.768a2.815,2.815,0,0,0,3.106,3.04c2.44,0,3.406-1.579,3.406-2.988a3.157,3.157,0,0,0-3.393-3.158,2.945,2.945,0,0,0-3.119,3.106Z" transform="translate(26.175 4.452)" fill="#3e3a39"/>
  <path id="パス_386" data-name="パス 386" d="M106.146,21.64c0,2.714-.679,7.06-5.05,7.06s-5.076-4.45-5.076-7.06.613-7.06,5.076-7.06S106.146,19.1,106.146,21.64Zm-8.43,0c0,2.218.483,5.585,3.354,5.585s3.38-3.38,3.38-5.585-.47-5.585-3.354-5.585S97.716,19.382,97.716,21.64Z" transform="translate(29.279 4.446)" fill="#3e3a39"/>
  <path id="パス_387" data-name="パス 387" d="M109.121,17.521v3.745a16.589,16.589,0,0,1-1.827,8.378,4.552,4.552,0,0,0-1.344-.692c1.749-2.662,1.762-6.525,1.762-7.8V16.281h5.663v-2.1l1.488.091c.117,0,.378.052.378.248,0,.117-.209.235-.4.287v1.475h6.9v1.24H109.121Zm6.238,3.432v2.453h4.789V29.7h-1.409v-.809h-6.8v.835h-1.37V23.406h3.341v-5.82l1.462.13c.157.013.4.052.4.222s-.209.209-.4.235V19.7h5.755v1.24h-5.755Zm3.38,3.719h-6.8V27.66h6.8V24.672Z" transform="translate(32.307 4.324)" fill="#3e3a39"/>
  <path id="パス_388" data-name="パス 388" d="M132.248,29.49h-1.253V25.876h-1.866v3.967h-1.24V19.116h3.106V17.355h-3.432a2.975,2.975,0,0,0,.391.3,4.377,4.377,0,0,0-1.018.926,12.738,12.738,0,0,1-2.545-2.884,17.268,17.268,0,0,1-2.832,3.432h2.023V17.276l1.318.065c.183.013.326.039.326.183,0,.209-.235.261-.431.3v1.292h2.153v1.1H124.8v1.475h2.6V22.77H120.7V21.687h2.884V20.212h-2.049v-1.07l-.235.209a2.882,2.882,0,0,0-1.109-.861,11.5,11.5,0,0,0,3.719-4.45l1.344.261c.078.013.3.065.3.235,0,.209-.261.274-.548.287a17.093,17.093,0,0,0,2.388,2.388V16.18h3.6V14.144l1.253.052c.3.013.444.013.444.183s-.17.222-.444.3v1.488h2.023a9.951,9.951,0,0,0-1.122-1.579l.861-.47a14.47,14.47,0,0,1,1.292,1.657l-.692.391h1.54v1.148h-3.9v1.762h3.223v9.161c0,1.018-.157,1.527-2.218,1.488a2.921,2.921,0,0,0-.522-1.422,6.31,6.31,0,0,0,.953.1c.548,0,.548-.17.548-.848V25.824h-1.97v3.615Zm-5.389-5.768V29.83h-1.227v-.9h-2.779v.9h-1.3V23.723Zm-4.006,1.148v2.9h2.779v-2.9Zm8.143-4.632h-1.866v1.683h1.866V20.238Zm0,2.806h-1.866v1.7h1.866Zm1.253-1.122h1.97V20.238h-1.97Zm0,2.819h1.97v-1.7h-1.97Z" transform="translate(36.649 4.281)" fill="#3e3a39"/>
</svg>
