<svg id="shops04-03" xmlns="http://www.w3.org/2000/svg" width="376.55" height="230.49" viewBox="0 0 376.55 230.49">
  <path id="パス_389" data-name="パス 389" d="M13.934,36.9c-1.488,3.51-3.367,7.96-9.108,10.27a5.411,5.411,0,0,0-1.031-1.018c2.727-1.1,6.564-3.08,8.586-9.448H7.187A21.224,21.224,0,0,1,3.194,41.2a10.515,10.515,0,0,0-1.044-.966,16.683,16.683,0,0,0,5.429-7.268l1.318.561c.144.065.222.1.222.222,0,.183-.235.209-.378.222-.391.783-.574,1.109-.8,1.488h4.685a2.4,2.4,0,0,0,1.031-.235l.783.731a5.656,5.656,0,0,0-.5.953Zm-1.488-2.258a9.437,9.437,0,0,0-1.383-1.54l.783-.613a13.4,13.4,0,0,1,1.409,1.566,4.391,4.391,0,0,0-.809.574Zm2.362-.091a9.4,9.4,0,0,0-1.357-1.592l.757-.613a15.6,15.6,0,0,1,1.422,1.618,3.151,3.151,0,0,0-.809.6Z" transform="translate(0.656 9.864)" fill="#3e3a39"/>
  <path id="パス_390" data-name="パス 390" d="M15.669,44.166V45H14.26V34.34H25.248V45H23.838v-.835ZM23.838,42.9V35.606H15.669V42.9Z" transform="translate(4.348 10.471)" fill="#3e3a39"/>
  <path id="パス_391" data-name="パス 391" d="M25.22,39.023V37.64H38.543v1.383H25.22Z" transform="translate(7.69 11.478)" fill="#3e3a39"/>
  <path id="パス_392" data-name="パス 392" d="M42.584,35.331A24.3,24.3,0,0,1,40.4,42.1,13.471,13.471,0,0,1,38.069,45.5a7.263,7.263,0,0,0-1.279-.7c2.923-3,4.032-6.981,4.45-10.257l1.37.313c.209.052.3.091.3.222,0,.091-.065.209-.326.248ZM50.2,45.223a23.69,23.69,0,0,0-4.659-10.139l1.083-.8a25.158,25.158,0,0,1,4.933,10.178,6.358,6.358,0,0,0-1.344.77Zm-.613-9.161a11.474,11.474,0,0,0-1.579-1.7l.757-.613A12.064,12.064,0,0,1,50.348,35.4a3.529,3.529,0,0,0-.757.652Zm1.4-1.109A7.754,7.754,0,0,0,49.435,33.2l.77-.574a10.2,10.2,0,0,1,1.618,1.644,2.818,2.818,0,0,0-.835.692Z" transform="translate(11.218 9.95)" fill="#3e3a39"/>
  <path id="パス_393" data-name="パス 393" d="M54.3,34.221v3.85a7.694,7.694,0,0,1-3.915,7.321A3.786,3.786,0,0,0,49.28,44.4c3.445-1.918,3.6-4.241,3.6-6.2V33.62l1.383.091c.157.013.365.026.365.209,0,.144-.157.235-.313.3ZM58.375,44.83a4.238,4.238,0,0,0-.874.7l-1-.7c.013-.313.052-.783.052-1.227V33.49l1.4.065c.17,0,.313.013.313.17s-.144.209-.313.287v9.369a16.436,16.436,0,0,0,5.285-4.92,5.524,5.524,0,0,0,.757,1.187,21.941,21.941,0,0,1-5.6,5.168Z" transform="translate(15.027 10.212)" fill="#3e3a39"/>
  <path id="パス_394" data-name="パス 394" d="M73.558,36.753c-.535,3.328-1.683,7.073-7.321,9.656a7.5,7.5,0,0,0-1.07-1.109c5.911-2.14,6.89-6.59,7.138-10.348H63.692v4.606H62.27V33.687h9.722a4.821,4.821,0,0,0,1.083-.157l.848.613c-.065.4-.3,2.231-.365,2.61Z" transform="translate(18.988 10.224)" fill="#3e3a39"/>
  <path id="パス_395" data-name="パス 395" d="M73.31,39.023V37.64H86.633v1.383Z" transform="translate(22.354 11.478)" fill="#3e3a39"/>
  <path id="パス_396" data-name="パス 396" d="M96.814,36.761c-1.488,3.51-3.367,7.96-9.108,10.27a5.525,5.525,0,0,0-1.031-1.018c2.727-1.1,6.564-3.08,8.586-9.448H90.067a21.224,21.224,0,0,1-3.993,4.489,10.631,10.631,0,0,0-1.044-.966,16.683,16.683,0,0,0,5.429-7.268l1.318.561s.222.091.222.222c0,.17-.261.222-.378.222-.391.783-.574,1.109-.8,1.488h4.685a2.4,2.4,0,0,0,1.031-.235l.783.731a5.655,5.655,0,0,0-.5.953Z" transform="translate(25.928 10.008)" fill="#3e3a39"/>
  <path id="パス_397" data-name="パス 397" d="M15.328,54.589a20.787,20.787,0,0,1-4.841,5,5.112,5.112,0,0,0-.966-.992,12.533,12.533,0,0,0,4.241-4.163H2.37V53.154H14.062a2.772,2.772,0,0,0,.861-.144l.94.861a5.922,5.922,0,0,0-.535.718ZM9.43,56.3c-.091,2.453-.287,6.472-4.933,9.108a10.235,10.235,0,0,0-1.187-.913c3.523-1.827,4.867-4.254,4.646-8.782l1.475.13c.157.013.313.078.313.17C9.743,56.168,9.573,56.233,9.43,56.3Z" transform="translate(0.723 16.164)" fill="#3e3a39"/>
  <path id="パス_398" data-name="パス 398" d="M24.574,53.6a25.919,25.919,0,0,1-2.388,4.88,20.784,20.784,0,0,1,2.806,3.093,5.69,5.69,0,0,0-1,1.083A21.381,21.381,0,0,0,21.416,59.6a17.9,17.9,0,0,1-6.485,5.311A5.112,5.112,0,0,0,13.9,63.884a15.92,15.92,0,0,0,6.5-5.233,30.361,30.361,0,0,0-3.641-2.766l.783-1.07a38.406,38.406,0,0,1,3.628,2.74,19.868,19.868,0,0,0,2.218-5.115l1.422.652c.144.065.222.13.222.222,0,.157-.209.248-.457.287Z" transform="translate(4.239 15.991)" fill="#3e3a39"/>
  <path id="パス_399" data-name="パス 399" d="M26.406,52.812v7.477h-1.4V52.277l1.4.091c.183.013.326.013.326.17s-.235.235-.326.261Zm7.438-.287v5.011A8.376,8.376,0,0,1,32.67,62.3a9.293,9.293,0,0,1-5.05,3.51,2.974,2.974,0,0,0-.887-1.109c5.729-1.566,5.729-5.4,5.729-7.138V51.99l1.422.091c.235.013.3.078.3.157,0,.209-.222.261-.326.3Z" transform="translate(7.626 15.853)" fill="#3e3a39"/>
  <path id="パス_400" data-name="パス 400" d="M41.934,65.381c-.3,0-.483-.013-.809-.026a4.7,4.7,0,0,0-.365-1.488,6.114,6.114,0,0,0,1.579.183,1.823,1.823,0,0,0,2.127-1.475,25.475,25.475,0,0,0,.626-6.264H41.217A11.074,11.074,0,0,1,35.123,65.5a3.11,3.11,0,0,0-.953-1.031,10.006,10.006,0,0,0,4.019-3.354,9.694,9.694,0,0,0,1.605-4.8H34.535V55.033h5.35a20.291,20.291,0,0,0-.078-3.093l1.566.157c.235.026.326.065.326.209,0,.078-.078.209-.326.261-.013,1.409-.052,2.01-.078,2.479h5.246c-.235,8.952-.757,10.348-4.619,10.348Z" transform="translate(10.419 15.838)" fill="#3e3a39"/>
  <path id="パス_401" data-name="パス 401" d="M50.25,56.41a17.7,17.7,0,0,0-4.45-2.988l.809-1.161a21.311,21.311,0,0,1,4.476,2.962,8.862,8.862,0,0,0-.848,1.187ZM47.2,64.866c-.013.261-.052.365-.222.365a.33.33,0,0,1-.248-.183l-.848-1.409a18.5,18.5,0,0,0,11.953-8.586,9.575,9.575,0,0,0,.861,1.227c-3.51,5.663-8.952,7.7-11.509,8.613Z" transform="translate(13.966 15.936)" fill="#3e3a39"/>
  <path id="パス_402" data-name="パス 402" d="M61.4,59.245a18.526,18.526,0,0,1-3.484,4.411,10.919,10.919,0,0,0-1.174-.848,12.622,12.622,0,0,0,3.667-4.646l1.2.679a.3.3,0,0,1,.183.248c0,.144-.157.17-.391.157Zm3.275-2.505v6.407c0,1.266,0,2.205-2.427,2.205a10.439,10.439,0,0,1-1.07-.065,5.689,5.689,0,0,0-.391-1.4,8.783,8.783,0,0,0,1.644.157c.861,0,.861-.3.861-1.331V56.74H57.68V55.5h5.611V51.99l1.318.078c.144.013.339.013.339.17s-.17.222-.274.248v3h5.52v1.24h-5.52Zm5.168,6.72A21.256,21.256,0,0,0,66.4,58.906l1-.8a22.9,22.9,0,0,1,3.484,4.45,4.419,4.419,0,0,0-1.044.913Z" transform="translate(17.302 15.853)" fill="#3e3a39"/>
  <path id="パス_403" data-name="パス 403" d="M71.166,52.812v7.477h-1.4V52.277l1.4.091c.183.013.326.013.326.17s-.235.235-.326.261Zm7.438-.287v5.011A8.376,8.376,0,0,1,77.43,62.3a9.293,9.293,0,0,1-5.05,3.51,2.974,2.974,0,0,0-.887-1.109c5.729-1.566,5.729-5.4,5.729-7.138V51.99l1.422.091c.235.013.3.078.3.157,0,.209-.222.261-.326.3Z" transform="translate(21.275 15.853)" fill="#3e3a39"/>
  <path id="パス_404" data-name="パス 404" d="M80.533,58.755a14.439,14.439,0,0,0-1.553-3.223l1.1-.47a14.864,14.864,0,0,1,1.566,3.2,7.021,7.021,0,0,0-1.109.5Zm9.043-3.445c-1.161,4.711-3.315,7.451-7.843,9.239a7.86,7.86,0,0,0-.783-1.018c1.905-.652,6.472-2.414,7.451-9.056l1.2.378c.209.065.287.13.287.235,0,.157-.144.209-.313.235Zm-5.7,2.623A13.463,13.463,0,0,0,82.412,54.7l1.109-.457A13.428,13.428,0,0,1,85,57.476a4.162,4.162,0,0,0-1.122.457Z" transform="translate(24.083 16.539)" fill="#3e3a39"/>
  <path id="パス_405" data-name="パス 405" d="M100.474,55.761c-1.488,3.51-3.367,7.96-9.108,10.27a5.525,5.525,0,0,0-1.031-1.018c2.727-1.1,6.564-3.08,8.586-9.448H93.727a21.224,21.224,0,0,1-3.993,4.489,10.632,10.632,0,0,0-1.044-.966,16.683,16.683,0,0,0,5.429-7.268l1.318.561s.222.091.222.222c0,.17-.261.222-.378.222-.391.783-.574,1.109-.8,1.488h4.685a2.4,2.4,0,0,0,1.031-.235l.783.731a5.655,5.655,0,0,0-.5.953Z" transform="translate(27.044 15.801)" fill="#3e3a39"/>
  <path id="パス_406" data-name="パス 406" d="M15.328,73.589a20.787,20.787,0,0,1-4.841,5,5.112,5.112,0,0,0-.966-.992,12.533,12.533,0,0,0,4.241-4.163H2.37V72.154H14.062a2.772,2.772,0,0,0,.861-.144l.94.861A5.922,5.922,0,0,0,15.328,73.589ZM9.43,75.3c-.091,2.453-.287,6.472-4.933,9.108a10.234,10.234,0,0,0-1.187-.913c3.523-1.827,4.867-4.254,4.646-8.782l1.475.13c.157.013.313.078.313.17C9.743,75.168,9.573,75.233,9.43,75.3Z" transform="translate(0.723 21.958)" fill="#3e3a39"/>
  <path id="パス_407" data-name="パス 407" d="M26.63,84.173a20.715,20.715,0,0,0-4.92-5.089,17.429,17.429,0,0,1-6.746,5.285,3.182,3.182,0,0,0-.874-1.2,14.792,14.792,0,0,0,9.017-9.748H15.46V72.142h7.869a5.039,5.039,0,0,0,1.07-.1l.77.718a5.036,5.036,0,0,0-.574,1.031,23.644,23.644,0,0,1-2.166,4.293,27.111,27.111,0,0,1,5.311,5,7.342,7.342,0,0,0-1.1,1.109Zm.013-10.727a7.424,7.424,0,0,0-1.462-1.709l.718-.561a12.165,12.165,0,0,1,1.514,1.631,3.409,3.409,0,0,0-.783.639Zm1.161-.8a8.271,8.271,0,0,0-1.462-1.723l.718-.548A12.036,12.036,0,0,1,28.575,72a3.548,3.548,0,0,0-.783.652Z" transform="translate(4.296 21.461)" fill="#3e3a39"/>
  <path id="パス_408" data-name="パス 408" d="M26.34,77.023V75.64H39.663v1.383Z" transform="translate(8.032 23.065)" fill="#3e3a39"/>
  <path id="パス_409" data-name="パス 409" d="M43.124,72.221v3.85a7.694,7.694,0,0,1-3.915,7.321A3.786,3.786,0,0,0,38.1,82.4c3.445-1.918,3.6-4.241,3.6-6.2V71.62l1.37.091c.157.013.365.026.365.209,0,.144-.157.235-.313.3ZM47.2,82.83a4.238,4.238,0,0,0-.874.7l-1-.7c.013-.313.052-.783.052-1.227V71.49l1.4.065c.17,0,.313.013.313.17s-.144.209-.313.287v9.369a16.436,16.436,0,0,0,5.285-4.92,5.524,5.524,0,0,0,.757,1.187,21.941,21.941,0,0,1-5.6,5.168Z" transform="translate(11.618 21.799)" fill="#3e3a39"/>
  <path id="パス_410" data-name="パス 410" d="M60.294,73.331A24.3,24.3,0,0,1,58.115,80.1,13.471,13.471,0,0,1,55.779,83.5a7.263,7.263,0,0,0-1.279-.7c2.923-3,4.032-6.981,4.45-10.257l1.383.313c.209.052.3.091.3.222,0,.091-.065.209-.326.248Zm7.621,9.891a23.69,23.69,0,0,0-4.659-10.139l1.083-.8a25.158,25.158,0,0,1,4.933,10.178,6.359,6.359,0,0,0-1.344.77ZM67.3,74.062a11.474,11.474,0,0,0-1.579-1.7l.757-.613A12.064,12.064,0,0,1,68.058,73.4a3.529,3.529,0,0,0-.757.652Zm1.4-1.109A7.753,7.753,0,0,0,67.145,71.2l.77-.574a10.2,10.2,0,0,1,1.618,1.644,2.818,2.818,0,0,0-.835.692Z" transform="translate(16.619 21.537)" fill="#3e3a39"/>
  <path id="パス_411" data-name="パス 411" d="M79.32,72a1.63,1.63,0,0,1-.313-.026,24.942,24.942,0,0,1-3.993,3.68v9.017H73.591V76.647A28.749,28.749,0,0,1,67.928,79.4a6.14,6.14,0,0,0-1.018-1.187A21.5,21.5,0,0,0,78.145,70.67l1.3.94a.269.269,0,0,1,.13.222c0,.13-.1.183-.248.183Z" transform="translate(20.403 21.549)" fill="#3e3a39"/>
  <path id="パス_412" data-name="パス 412" d="M94.975,74.156A38.21,38.21,0,0,1,89.56,79.78a17.423,17.423,0,0,1,2.1,2.6A5.225,5.225,0,0,0,90.5,83.421a22.241,22.241,0,0,0-5.585-6.12l.913-.966a27.009,27.009,0,0,1,2.832,2.479,23.755,23.755,0,0,0,4.619-4.893H82.5V72.655H93.931a3,3,0,0,0,.953-.235l.861,1.031a4.613,4.613,0,0,0-.757.718Z" transform="translate(25.157 22.083)" fill="#3e3a39"/>
  <path id="パス_413" data-name="パス 413" d="M106.048,76.378c-.613,2.179-2.023,6.564-6.955,8.56a6.993,6.993,0,0,0-1.018-1.044,9.935,9.935,0,0,0,4.763-3.536,13.057,13.057,0,0,0,2.14-5.663H95.856v4.058h-1.4V73.468h5.168V70.91L101.05,71c.261.013.339.065.339.17,0,.157-.248.248-.339.287v2.01h3.667a2.666,2.666,0,0,0,1.122-.157l.835.613c-.1.378-.522,2.114-.626,2.479Z" transform="translate(28.804 21.623)" fill="#3e3a39"/>
  <path id="パス_414" data-name="パス 414" d="M109.676,78a17.74,17.74,0,0,0-4.006-2.179l.783-1.109a21.287,21.287,0,0,1,4.071,2.114A4.794,4.794,0,0,0,109.676,78ZM107.8,84.447c-.013.144-.052.378-.235.378-.13,0-.183-.091-.248-.222l-.652-1.253A22.223,22.223,0,0,0,118.184,74.5a6.2,6.2,0,0,0,.913,1.122,24.461,24.461,0,0,1-11.288,8.808Zm3.745-10.113a16.123,16.123,0,0,0-4.215-2.153l.783-1.044a19.312,19.312,0,0,1,4.254,2.049,6.1,6.1,0,0,0-.835,1.161Zm5.168-.652a13.079,13.079,0,0,0-1.723-1.514l.718-.679a19.313,19.313,0,0,1,1.723,1.475A7.3,7.3,0,0,0,116.71,73.681Zm1.279-1.122a11.8,11.8,0,0,0-1.709-1.566l.7-.613a11.939,11.939,0,0,1,1.723,1.5A3.013,3.013,0,0,0,117.989,72.559Z" transform="translate(32.222 21.461)" fill="#3e3a39"/>
  <path id="パス_415" data-name="パス 415" d="M117.45,77.023V75.64h13.323v1.383Z" transform="translate(35.814 23.065)" fill="#3e3a39"/>
  <path id="パス_416" data-name="パス 416" d="M15.328,92.589a20.787,20.787,0,0,1-4.841,5,5.112,5.112,0,0,0-.966-.992,12.533,12.533,0,0,0,4.241-4.163H2.37V91.154H14.062a2.772,2.772,0,0,0,.861-.144l.94.861A5.923,5.923,0,0,0,15.328,92.589ZM9.43,94.3c-.091,2.453-.287,6.472-4.933,9.108a10.234,10.234,0,0,0-1.187-.913c3.523-1.827,4.867-4.254,4.646-8.782l1.475.13c.157.013.313.078.313.17C9.743,94.168,9.573,94.233,9.43,94.3Z" transform="translate(0.723 27.752)" fill="#3e3a39"/>
  <path id="パス_417" data-name="パス 417" d="M18.68,94.41a17.706,17.706,0,0,0-4.45-2.988l.809-1.161a21.31,21.31,0,0,1,4.476,2.962,8.862,8.862,0,0,0-.848,1.187Zm-3.054,8.456c-.013.261-.052.365-.222.365a.33.33,0,0,1-.248-.183l-.848-1.409a18.5,18.5,0,0,0,11.953-8.586,9.576,9.576,0,0,0,.861,1.227c-3.51,5.663-8.952,7.7-11.509,8.613Z" transform="translate(4.339 27.523)" fill="#3e3a39"/>
  <path id="パス_418" data-name="パス 418" d="M33.184,103.381c-.3,0-.483-.013-.809-.026a4.7,4.7,0,0,0-.365-1.488,6.114,6.114,0,0,0,1.579.183,1.823,1.823,0,0,0,2.127-1.475,25.475,25.475,0,0,0,.626-6.264H32.467a11.074,11.074,0,0,1-6.094,9.187,3.109,3.109,0,0,0-.953-1.031,10.006,10.006,0,0,0,4.019-3.354,9.694,9.694,0,0,0,1.605-4.8H25.785V93.033h5.35a20.292,20.292,0,0,0-.078-3.093l1.566.157c.235.026.326.065.326.209,0,.078-.078.209-.326.261-.013,1.409-.052,2.01-.078,2.479h5.246c-.235,8.952-.757,10.348-4.619,10.348Z" transform="translate(7.751 27.425)" fill="#3e3a39"/>
  <path id="パス_419" data-name="パス 419" d="M37.09,96.023V94.64H50.413v1.383Z" transform="translate(11.31 28.859)" fill="#3e3a39"/>
  <path id="パス_420" data-name="パス 420" d="M60.594,93.761c-1.488,3.51-3.367,7.96-9.108,10.27a5.525,5.525,0,0,0-1.031-1.018c2.727-1.1,6.564-3.08,8.586-9.448H53.847a21.225,21.225,0,0,1-3.993,4.489,10.632,10.632,0,0,0-1.044-.966,16.683,16.683,0,0,0,5.429-7.268l1.318.561s.222.091.222.222c0,.17-.261.222-.378.222-.391.783-.574,1.109-.8,1.488h4.685a2.4,2.4,0,0,0,1.031-.235l.783.731a5.655,5.655,0,0,0-.5.953Z" transform="translate(14.884 27.389)" fill="#3e3a39"/>
  <path id="パス_421" data-name="パス 421" d="M70.322,94.221a4.451,4.451,0,0,0,1.318-.157l.887.639c-.209.339-.94,1.905-1.1,2.218-1.67,3.354-3.328,5.207-7.83,6.746a11.976,11.976,0,0,0-.966-1.122c3.8-1.031,6.381-2.819,7.908-7.073H59.87V94.221H70.322ZM70.7,90.45V91.7H61.723V90.45Z" transform="translate(18.256 27.581)" fill="#3e3a39"/>
  <path id="パス_422" data-name="パス 422" d="M83.159,92.311c-1.723,4.789-3.328,8.1-9.343,10.961a4.122,4.122,0,0,0-1.018-1.083c4.646-1.944,7.1-4.4,8.978-10.257H71.31V90.667H81.5a2.522,2.522,0,0,0,1.1-.157l1,.887a4.5,4.5,0,0,0-.444.913Z" transform="translate(21.745 27.599)" fill="#3e3a39"/>
  <path id="パス_423" data-name="パス 423" d="M90.463,99.228a21.9,21.9,0,0,0-5.794-3.98v8.234H83.26V89.95l1.422.1c.209.013.3.065.3.183,0,.17-.209.222-.313.235v4.463l.613-.848A25.225,25.225,0,0,1,91.3,98.08a9.211,9.211,0,0,0-.835,1.135Z" transform="translate(25.388 27.428)" fill="#3e3a39"/>
  <path id="パス_424" data-name="パス 424" d="M14.42,110a1.63,1.63,0,0,1-.313-.026,24.942,24.942,0,0,1-3.993,3.68v9.017H8.691v-8.025A28.749,28.749,0,0,1,3.028,117.4a6.14,6.14,0,0,0-1.018-1.187,21.5,21.5,0,0,0,11.235-7.542l1.3.94a.269.269,0,0,1,.13.222c0,.13-.1.183-.248.183Z" transform="translate(0.613 33.137)" fill="#3e3a39"/>
  <path id="パス_425" data-name="パス 425" d="M14.723,115.755a14.439,14.439,0,0,0-1.553-3.223l1.1-.47a14.864,14.864,0,0,1,1.566,3.2,7.021,7.021,0,0,0-1.109.5Zm9.043-3.445c-1.161,4.711-3.315,7.451-7.843,9.239a7.86,7.86,0,0,0-.783-1.018c1.905-.652,6.472-2.414,7.451-9.056l1.2.378c.209.065.287.13.287.235,0,.157-.144.209-.313.235Zm-5.7,2.623A13.463,13.463,0,0,0,16.6,111.7l1.109-.457a13.428,13.428,0,0,1,1.475,3.236,4.161,4.161,0,0,0-1.122.457Z" transform="translate(4.016 33.92)" fill="#3e3a39"/>
  <path id="パス_426" data-name="パス 426" d="M30.744,122.381c-.3,0-.483-.013-.809-.026a4.7,4.7,0,0,0-.365-1.488,6.2,6.2,0,0,0,1.579.183,1.828,1.828,0,0,0,2.127-1.475,25.475,25.475,0,0,0,.626-6.264H30.027a11.074,11.074,0,0,1-6.094,9.187,3.252,3.252,0,0,0-.953-1.031,9.478,9.478,0,0,0,5.637-8.156H23.358v-1.279h5.35a20.292,20.292,0,0,0-.078-3.093l1.566.157c.235.026.326.065.326.209,0,.078-.078.209-.326.261-.013,1.409-.052,2.01-.078,2.479h5.246c-.235,8.952-.757,10.348-4.619,10.348Z" transform="translate(7.007 33.219)" fill="#3e3a39"/>
  <path id="パス_427" data-name="パス 427" d="M8.419,128.28l4.554,12.332H11.355l-1-2.78H4.583l-.992,2.78H1.96L6.514,128.28H8.406Zm-.94,1.462-2.44,6.838H9.92Z" transform="translate(0.598 39.116)" fill="#3e3a39"/>
  <path id="パス_428" data-name="パス 428" d="M17.743,128.28c2.427,0,3.536,1.488,3.536,3.158a2.715,2.715,0,0,1-1.8,2.662,3.009,3.009,0,0,1,2.258,3.04c0,1.109-.522,3.471-3.8,3.471H12.08V128.28h5.663Zm-4.111,1.344v4.058h3.784c1.879,0,2.3-1.2,2.3-2.036,0-.548-.183-2.023-2.3-2.023Zm0,5.246v4.4h4.006a2.231,2.231,0,0,0,2.532-2.205c0-.887-.47-2.192-2.584-2.192Z" transform="translate(3.684 39.116)" fill="#3e3a39"/>
  <path id="パス_429" data-name="パス 429" d="M29.647,132.636a3.17,3.17,0,0,0-3.223-3.249c-2.532,0-3.758,2.584-3.758,5.272,0,3.471,1.788,5.024,3.745,5.024.887,0,3-.339,3.262-3.432h1.592c-.157.966-.731,4.789-4.776,4.789-3.784,0-5.389-3.119-5.389-6.381s1.579-6.629,5.272-6.629c.522,0,4.189,0,4.8,4.619h-1.54Z" transform="translate(6.434 39.04)" fill="#3e3a39"/>
  <path id="パス_430" data-name="パス 430" d="M43.035,131.156a38.9,38.9,0,0,1-5.415,5.624,17.422,17.422,0,0,1,2.1,2.6,5.225,5.225,0,0,0-1.161,1.044,22.241,22.241,0,0,0-5.585-6.12l.913-.966a28.412,28.412,0,0,1,2.832,2.479,23.755,23.755,0,0,0,4.619-4.893H30.56v-1.266H41.978a3,3,0,0,0,.953-.235l.861,1.031a4.613,4.613,0,0,0-.757.718Z" transform="translate(9.319 39.464)" fill="#3e3a39"/>
  <path id="パス_431" data-name="パス 431" d="M42.26,134.023V132.64H55.583v1.383Z" transform="translate(12.886 40.446)" fill="#3e3a39"/>
  <path id="パス_432" data-name="パス 432" d="M62.3,137.228a21.9,21.9,0,0,0-5.794-3.98v8.234H55.1V127.95l1.422.1c.209.013.3.065.3.183,0,.17-.209.222-.313.235v4.463l.613-.848a25.224,25.224,0,0,1,6.016,3.993,9.212,9.212,0,0,0-.835,1.135Z" transform="translate(16.802 39.016)" fill="#3e3a39"/>
  <path id="パス_433" data-name="パス 433" d="M14.258,152.555c-.613,2.179-2.023,6.564-6.942,8.56A5.009,5.009,0,0,0,6.3,160.071a9.935,9.935,0,0,0,4.763-3.536,13.057,13.057,0,0,0,2.14-5.663H4.066v4.058H2.67v-5.285H7.838v-2.558l1.422.091c.287.013.339.078.339.157,0,.17-.222.248-.339.3v2.01h3.667a2.666,2.666,0,0,0,1.122-.157l.835.613c-.1.378-.522,2.114-.626,2.479Zm-1.135-3.771a11.748,11.748,0,0,0-1.475-1.644l.77-.548a13.378,13.378,0,0,1,1.475,1.618c-.13.091-.679.5-.77.574Zm2.1-.235a8.244,8.244,0,0,0-1.475-1.723l.757-.5a12.218,12.218,0,0,1,1.54,1.631c-.261.17-.561.418-.809.6Z" transform="translate(0.814 44.62)" fill="#3e3a39"/>
  <path id="パス_434" data-name="パス 434" d="M23.345,149.831a22.537,22.537,0,0,1-3.21,2.91v7.177h-1.24V153.6a23.562,23.562,0,0,1-4.411,2.127,4.309,4.309,0,0,0-.874-1.018,17.268,17.268,0,0,0,8.978-6.042l1.031.77a.358.358,0,0,1,.17.248c0,.17-.157.17-.457.144Z" transform="translate(4.15 45.334)" fill="#3e3a39"/>
  <path id="パス_435" data-name="パス 435" d="M27.833,158.73c-.47.235-2.584,1.227-2.988,1.462l-1-1.031a5.436,5.436,0,0,0,.078-.927V147.26l1.409.065c.222.013.326.026.326.157,0,.209-.222.3-.326.339v10.492a21.125,21.125,0,0,0,9.2-6.5,8.786,8.786,0,0,0,.7,1.409,24.117,24.117,0,0,1-7.4,5.507Z" transform="translate(7.27 44.904)" fill="#3e3a39"/>
  <path id="パス_436" data-name="パス 436" d="M35.313,153.755a14.439,14.439,0,0,0-1.553-3.223l1.1-.47a14.864,14.864,0,0,1,1.566,3.2,7.021,7.021,0,0,0-1.109.5Zm9.043-3.445c-1.161,4.711-3.315,7.451-7.843,9.239a7.86,7.86,0,0,0-.783-1.018c1.905-.652,6.472-2.414,7.451-9.056l1.2.378c.209.065.287.131.287.235,0,.157-.144.209-.313.235Zm-5.7,2.623a13.463,13.463,0,0,0-1.462-3.236l1.109-.457a13.428,13.428,0,0,1,1.475,3.236A4.161,4.161,0,0,0,38.653,152.933Z" transform="translate(10.294 45.508)" fill="#3e3a39"/>
  <path id="パス_437" data-name="パス 437" d="M47.676,154a17.739,17.739,0,0,0-4.006-2.179l.783-1.109a21.287,21.287,0,0,1,4.071,2.114A4.794,4.794,0,0,0,47.676,154ZM45.8,160.447c-.013.144-.052.378-.235.378-.13,0-.183-.091-.248-.222l-.652-1.253A22.223,22.223,0,0,0,56.184,150.5a6.2,6.2,0,0,0,.913,1.122,24.461,24.461,0,0,1-11.288,8.808Zm3.745-10.113a16.122,16.122,0,0,0-4.215-2.153l.783-1.044a19.311,19.311,0,0,1,4.254,2.049,6.1,6.1,0,0,0-.835,1.161Zm5.168-.652a13.079,13.079,0,0,0-1.723-1.514l.718-.679a19.316,19.316,0,0,1,1.723,1.475A7.3,7.3,0,0,0,54.71,149.681Zm1.279-1.122a11.8,11.8,0,0,0-1.709-1.566l.7-.613a11.94,11.94,0,0,1,1.723,1.5A3.013,3.013,0,0,0,55.989,148.559Z" transform="translate(13.316 44.636)" fill="#3e3a39"/>
  <path id="パス_438" data-name="パス 438" d="M67.3,152.555c-.613,2.179-2.023,6.564-6.955,8.56a5.009,5.009,0,0,0-1.018-1.044,9.935,9.935,0,0,0,4.763-3.536,13.057,13.057,0,0,0,2.14-5.663H57.106v4.058h-1.4v-5.285h5.168v-2.558l1.422.091c.287.013.339.078.339.157,0,.17-.222.248-.339.3v2.01h3.667a2.666,2.666,0,0,0,1.122-.157l.835.613c-.1.378-.522,2.114-.626,2.479Zm-1.148-3.771a10.982,10.982,0,0,0-1.475-1.644l.77-.548a13.378,13.378,0,0,1,1.475,1.618c-.13.091-.679.5-.77.574Zm2.1-.235a8.244,8.244,0,0,0-1.475-1.723l.757-.5a13.118,13.118,0,0,1,1.54,1.631c-.261.17-.561.418-.809.6Z" transform="translate(16.988 44.62)" fill="#3e3a39"/>
  <path id="パス_439" data-name="パス 439" d="M77.767,150.766a18.691,18.691,0,0,1-3.993,4.646,6.046,6.046,0,0,0-.913-.913,13.012,13.012,0,0,0,3.354-3.693H67.04v-1.161h9.2a2.65,2.65,0,0,0,.992-.144l.874.783a2.547,2.547,0,0,0-.339.47ZM72.756,152.4c-.1,2.545-.418,5.324-4.019,7.295a4.029,4.029,0,0,0-.992-.8c2.453-1.279,3.876-2.884,3.745-7.007l1.253.1c.17.013.3.026.3.17S72.886,152.345,72.756,152.4Z" transform="translate(20.442 45.587)" fill="#3e3a39"/>
  <path id="パス_440" data-name="パス 440" d="M81.57,151.41a17.7,17.7,0,0,0-4.45-2.988l.809-1.161a21.311,21.311,0,0,1,4.476,2.962,8.864,8.864,0,0,0-.848,1.187Zm-3.054,8.456c-.013.261-.052.365-.222.365a.33.33,0,0,1-.248-.183l-.848-1.409a18.5,18.5,0,0,0,11.953-8.586,9.576,9.576,0,0,0,.861,1.227c-3.51,5.663-8.952,7.7-11.509,8.613Z" transform="translate(23.516 44.904)" fill="#3e3a39"/>
  <path id="パス_441" data-name="パス 441" d="M96.154,160.555c-.3,0-.483-.013-.809-.026a4.7,4.7,0,0,0-.365-1.488,6.2,6.2,0,0,0,1.579.183,1.828,1.828,0,0,0,2.127-1.475,25.475,25.475,0,0,0,.626-6.264H95.437a11.073,11.073,0,0,1-6.094,9.187,3.252,3.252,0,0,0-.953-1.031,9.478,9.478,0,0,0,5.637-8.156H88.768v-1.279h5.35a20.292,20.292,0,0,0-.078-3.093l1.566.157c.235.026.326.065.326.209,0,.078-.078.209-.326.261-.013,1.409-.052,2.01-.078,2.479h5.246c-.235,8.952-.757,10.348-4.619,10.348Zm3.536-11.444a11.7,11.7,0,0,0-1.579-1.723l.783-.561a13.585,13.585,0,0,1,1.579,1.644A3.655,3.655,0,0,0,99.691,149.11Zm2.1-.444a9.929,9.929,0,0,0-1.553-1.749l.809-.548a11.891,11.891,0,0,1,1.592,1.683,3.168,3.168,0,0,0-.861.613Z" transform="translate(26.953 44.632)" fill="#3e3a39"/>
  <path id="パス_442" data-name="パス 442" d="M100.43,153.023V151.64h13.323v1.383Z" transform="translate(30.624 46.239)" fill="#3e3a39"/>
  <path id="パス_443" data-name="パス 443" d="M120.453,156.228a21.9,21.9,0,0,0-5.794-3.98v8.234H113.25V146.95l1.422.1c.209.013.3.065.3.183,0,.17-.209.222-.313.235v4.463l.613-.848a25.225,25.225,0,0,1,6.016,3.993,9.214,9.214,0,0,0-.835,1.135Zm.078-5.311a8.468,8.468,0,0,0-1.644-1.631l.77-.626a13.725,13.725,0,0,1,1.7,1.5,6.008,6.008,0,0,0-.809.757Zm1.357-1.227a11.524,11.524,0,0,0-1.67-1.553l.731-.626a11.98,11.98,0,0,1,1.644,1.5A3.462,3.462,0,0,0,121.889,149.69Z" transform="translate(34.533 44.809)" fill="#3e3a39"/>
  <path id="パス_444" data-name="パス 444" d="M9.924,179.381c-.3,0-.483-.013-.809-.026a4.7,4.7,0,0,0-.365-1.488,6.2,6.2,0,0,0,1.579.183,1.828,1.828,0,0,0,2.127-1.475,25.475,25.475,0,0,0,.626-6.264H9.207A11.074,11.074,0,0,1,3.113,179.5a3.252,3.252,0,0,0-.953-1.031,9.92,9.92,0,0,0,4.019-3.354,9.827,9.827,0,0,0,1.618-4.8H2.538v-1.279h5.35a20.292,20.292,0,0,0-.078-3.093l1.566.157c.235.026.326.065.326.209,0,.078-.078.209-.326.261-.013,1.409-.052,2.01-.078,2.479h5.246c-.235,8.952-.757,10.348-4.619,10.348Z" transform="translate(0.659 50.6)" fill="#3e3a39"/>
  <path id="パス_445" data-name="パス 445" d="M18.534,167.221v3.85a7.694,7.694,0,0,1-3.915,7.321,3.786,3.786,0,0,0-1.109-.992c3.445-1.918,3.6-4.241,3.6-6.2v-4.58l1.37.091c.157.013.365.026.365.209,0,.144-.157.235-.313.3Zm4.071,10.609a4.239,4.239,0,0,0-.874.7l-1-.7c.013-.313.052-.783.052-1.227V166.49l1.4.065c.17,0,.313.013.313.17s-.144.209-.313.287v9.369a16.437,16.437,0,0,0,5.285-4.92,5.524,5.524,0,0,0,.757,1.187,21.941,21.941,0,0,1-5.6,5.168Z" transform="translate(4.12 50.768)" fill="#3e3a39"/>
  <path id="パス_446" data-name="パス 446" d="M33.659,172.217a7.163,7.163,0,0,1-5.363,7.477,4.916,4.916,0,0,0-1-1.109c4.424-1.24,5.011-3.9,5.011-6.368H26.09v-1.253H39.218v1.253H33.659ZM28.152,168v-1.253H36.96V168Zm10.583,1.07a8.245,8.245,0,0,0-1.618-1.631l.652-.692a14.677,14.677,0,0,1,1.67,1.579,4.762,4.762,0,0,0-.718.731Zm1.031-1.109a8.823,8.823,0,0,0-1.631-1.631l.652-.692a11.918,11.918,0,0,1,1.67,1.579,3.754,3.754,0,0,0-.7.731Z" transform="translate(7.956 50.509)" fill="#3e3a39"/>
  <path id="パス_447" data-name="パス 447" d="M47.495,168.831a22.536,22.536,0,0,1-3.21,2.91v7.177h-1.24V172.6a23.562,23.562,0,0,1-4.411,2.127,4.31,4.31,0,0,0-.874-1.018,17.268,17.268,0,0,0,8.978-6.042l1.031.77a.358.358,0,0,1,.17.248c0,.17-.157.17-.457.144Z" transform="translate(11.514 51.128)" fill="#3e3a39"/>
  <path id="パス_448" data-name="パス 448" d="M47.53,177.056v-1.3H57.2v-6.916H47.53v-1.3H58.622v10.283H57.2v-.77H47.53Z" transform="translate(14.493 51.085)" fill="#3e3a39"/>
  <path id="パス_449" data-name="パス 449" d="M58.35,172.023V170.64H71.66v1.383Z" transform="translate(17.793 52.033)" fill="#3e3a39"/>
  <path id="パス_450" data-name="パス 450" d="M81.773,178.84c-.926,0-4.972.091-5.794.091-3.432,0-4.959-.078-4.959-2.988V165.96l1.475.1c.144.013.3.013.3.183s-.183.235-.378.313V171.6a19.3,19.3,0,0,0,7.947-3.171l1.161.94c.078.065.13.13.13.183,0,.183-.261.183-.378.183a2.009,2.009,0,0,1-.248-.026,23.549,23.549,0,0,1-8.613,3.158v2.806c0,1.8.339,2.01,3.38,2.01a60.958,60.958,0,0,0,6.185-.261c-.078.418-.1.692-.209,1.422Z" transform="translate(21.656 50.606)" fill="#3e3a39"/>
  <path id="パス_451" data-name="パス 451" d="M81.17,172.023V170.64H94.48v1.383Z" transform="translate(24.751 52.033)" fill="#3e3a39"/>
  <path id="パス_452" data-name="パス 452" d="M105.089,168.311c-1.723,4.789-3.328,8.1-9.343,10.961a4.122,4.122,0,0,0-1.018-1.083c4.646-1.944,7.1-4.4,8.978-10.257H93.24v-1.266h10.191a2.522,2.522,0,0,0,1.1-.157l1,.887a4.5,4.5,0,0,0-.444.913Z" transform="translate(28.432 50.774)" fill="#3e3a39"/>
  <path id="パス_453" data-name="パス 453" d="M115.107,169.766a18.691,18.691,0,0,1-3.993,4.646,6.046,6.046,0,0,0-.913-.913,13.012,13.012,0,0,0,3.354-3.693H104.38v-1.161h9.2a2.65,2.65,0,0,0,.992-.144l.874.783a2.547,2.547,0,0,0-.339.47ZM110.1,171.4c-.1,2.545-.418,5.324-4.019,7.295a4.028,4.028,0,0,0-.992-.8c2.453-1.279,3.876-2.884,3.745-7.007l1.253.1c.17.013.3.026.3.17S110.226,171.345,110.1,171.4Z" transform="translate(31.829 51.381)" fill="#3e3a39"/>
  <path id="パス_454" data-name="パス 454" d="M114.5,172.023V170.64h13.323v1.383Z" transform="translate(34.914 52.033)" fill="#3e3a39"/>
  <path id="パス_455" data-name="パス 455" d="M138.943,178.6a18.412,18.412,0,0,0-1-2.192c-6.459,1.2-6.6,1.227-10.8,1.749-.065.183-.13.261-.248.261-.144,0-.183-.091-.235-.287l-.3-1.3c.418-.013.757-.026,1.67-.1a50.119,50.119,0,0,0,3.915-10.674l1.409.391c.209.065.3.1.3.222,0,.222-.235.287-.378.3-.17.47-1.3,3.823-1.475,4.306-.1.3-1.344,3.562-2.258,5.311,2.518-.3,5.037-.652,7.777-1.227a19.311,19.311,0,0,0-2.675-3.484l1.135-.731a25.039,25.039,0,0,1,4.293,6.538,6.327,6.327,0,0,0-1.148.927Z" transform="translate(38.528 50.634)" fill="#3e3a39"/>
  <path id="パス_456" data-name="パス 456" d="M168.19,45.786a20.715,20.715,0,0,0-4.92-5.089,17.429,17.429,0,0,1-6.746,5.285,3.182,3.182,0,0,0-.874-1.2,14.792,14.792,0,0,0,9.017-9.748H157.02V33.754h7.869a5.04,5.04,0,0,0,1.07-.1l.77.718a5.038,5.038,0,0,0-.574,1.031,23.645,23.645,0,0,1-2.166,4.293,27.111,27.111,0,0,1,5.311,5,7.341,7.341,0,0,0-1.1,1.109Z" transform="translate(47.462 10.261)" fill="#3e3a39"/>
  <path id="パス_457" data-name="パス 457" d="M178.641,36.557c-1.174,2.962-1.435,3.562-2.323,4.8a14.62,14.62,0,0,1,1.97,2.01,8.984,8.984,0,0,0-.94,1.148,14.684,14.684,0,0,0-1.866-2.075,16.146,16.146,0,0,1-6.512,4.345,10.623,10.623,0,0,0-.913-1.227,14.026,14.026,0,0,0,6.407-4.006,26.837,26.837,0,0,0-3.3-2.258l.822-.953a39.108,39.108,0,0,1,3.275,2.179A14.17,14.17,0,0,0,177,36.688h-4.841a17.251,17.251,0,0,1-3.771,4.032,4.839,4.839,0,0,0-1.044-.992,14.031,14.031,0,0,0,5.272-6.968l1.409.418c.183.065.261.091.261.222,0,.17-.248.183-.365.183-.3.561-.652,1.279-1,1.866h4.306a2.831,2.831,0,0,0,1.018-.157l.692.613a4.66,4.66,0,0,0-.313.639Z" transform="translate(51.027 9.989)" fill="#3e3a39"/>
  <path id="パス_458" data-name="パス 458" d="M178.1,39.023V37.64h13.323v1.383Z" transform="translate(54.308 11.478)" fill="#3e3a39"/>
  <path id="パス_459" data-name="パス 459" d="M195.454,35.331a24.3,24.3,0,0,1-2.179,6.773,13.472,13.472,0,0,1-2.336,3.393,7.264,7.264,0,0,0-1.279-.7c2.923-3,4.032-6.981,4.45-10.257l1.383.313c.209.052.3.091.3.222,0,.091-.065.209-.326.248Zm7.621,9.891a23.691,23.691,0,0,0-4.659-10.139l1.083-.8a25.159,25.159,0,0,1,4.933,10.178,6.357,6.357,0,0,0-1.344.77Zm-.613-9.161a11.473,11.473,0,0,0-1.579-1.7l.757-.613a12.063,12.063,0,0,1,1.579,1.644,3.53,3.53,0,0,0-.757.652Zm1.4-1.109A7.753,7.753,0,0,0,202.3,33.2l.77-.574a10.2,10.2,0,0,1,1.618,1.644,2.818,2.818,0,0,0-.835.692Z" transform="translate(57.833 9.95)" fill="#3e3a39"/>
  <path id="パス_460" data-name="パス 460" d="M203.813,39.755a14.439,14.439,0,0,0-1.553-3.223l1.1-.47a14.865,14.865,0,0,1,1.566,3.2,7.023,7.023,0,0,0-1.109.5Zm9.043-3.445c-1.161,4.711-3.315,7.451-7.843,9.239a7.862,7.862,0,0,0-.783-1.018c1.905-.652,6.472-2.414,7.451-9.056l1.2.378c.209.065.287.13.287.235,0,.157-.144.209-.313.235Zm-5.7,2.623a13.463,13.463,0,0,0-1.462-3.236l1.109-.457a13.427,13.427,0,0,1,1.475,3.236,4.161,4.161,0,0,0-1.122.457Z" transform="translate(61.675 10.746)" fill="#3e3a39"/>
  <path id="パス_461" data-name="パス 461" d="M223.754,36.761c-1.488,3.51-3.367,7.96-9.108,10.27a5.525,5.525,0,0,0-1.031-1.018c2.727-1.1,6.564-3.08,8.586-9.448h-5.194a21.224,21.224,0,0,1-3.993,4.489,10.628,10.628,0,0,0-1.044-.966A16.683,16.683,0,0,0,217.4,32.82l1.318.561s.222.091.222.222c0,.17-.261.222-.378.222-.391.783-.574,1.109-.8,1.488h4.685a2.4,2.4,0,0,0,1.031-.235l.783.731a5.654,5.654,0,0,0-.5.953Z" transform="translate(64.636 10.008)" fill="#3e3a39"/>
  <path id="パス_462" data-name="パス 462" d="M235.31,45.786a20.715,20.715,0,0,0-4.92-5.089,17.429,17.429,0,0,1-6.746,5.285,3.182,3.182,0,0,0-.874-1.2,14.821,14.821,0,0,0,9.017-9.748h-7.66V33.754H232a5.039,5.039,0,0,0,1.07-.1l.77.718a5.037,5.037,0,0,0-.574,1.031,24.456,24.456,0,0,1-2.153,4.293,27.11,27.11,0,0,1,5.311,5,7.343,7.343,0,0,0-1.1,1.109Z" transform="translate(67.929 10.261)" fill="#3e3a39"/>
  <path id="パス_463" data-name="パス 463" d="M234.83,44.056v-1.3h9.67V35.835h-9.67v-1.3h11.092V44.813H244.5v-.77h-9.67Z" transform="translate(71.607 10.529)" fill="#3e3a39"/>
  <path id="パス_464" data-name="パス 464" d="M245.66,39.023V37.64h13.323v1.383Z" transform="translate(74.909 11.478)" fill="#3e3a39"/>
  <path id="パス_465" data-name="パス 465" d="M269.083,45.84c-.926,0-4.972.091-5.794.091-3.432,0-4.959-.078-4.959-2.988V32.96l1.475.1c.144.013.3.013.3.183s-.183.235-.378.313V38.6a19.3,19.3,0,0,0,7.947-3.171l1.161.94c.078.065.13.13.13.183,0,.183-.261.183-.378.183a2.011,2.011,0,0,1-.248-.026,23.644,23.644,0,0,1-8.613,3.158v2.806c0,1.8.339,2.01,3.38,2.01a60.96,60.96,0,0,0,6.185-.261C269.213,44.835,269.187,45.109,269.083,45.84Z" transform="translate(78.772 10.05)" fill="#3e3a39"/>
  <path id="パス_466" data-name="パス 466" d="M268.47,39.023V37.64h13.323v1.383Z" transform="translate(81.864 11.478)" fill="#3e3a39"/>
  <path id="パス_467" data-name="パス 467" d="M162.855,53.234c-.065.235-.287,1.227-.574,2.127h1.775c.013,1.475,0,5.924-.679,7.047-.418.718-1.814.679-2.218.639a3.49,3.49,0,0,0-.418-1.279,8.637,8.637,0,0,0,.992.091c.626,0,.926-.078,1.044-1.814.065-.77.1-2.14.1-3.6H161.3l-.378-.626a24.556,24.556,0,0,0,.7-2.584h-5.9V52.06H170.1v1.174h-7.229Zm6.355,2.14V65.866h-1.266V64.835H157.883v1.031H156.6V54.813l1.318.078c.1,0,.378.065.378.248,0,.1-.144.157-.4.235v8.312h10.061V54.813l1.318.091c.157.013.339.078.339.222s-.131.17-.391.248Zm-9.891,6.172c0,.183,0,.457-.209.457-.13,0-.183-.13-.287-.3l-.561-1a17.745,17.745,0,0,0,3.615-1.644,2.644,2.644,0,0,0,.091,1.1,22.462,22.462,0,0,1-2.662,1.4Zm1.3-2.871a14.061,14.061,0,0,0-1.853-2.1l.874-.7a14.888,14.888,0,0,1,1.944,2.1A4.878,4.878,0,0,0,160.623,58.676Zm6.407,3.549a13.684,13.684,0,0,0-2.753-2.323l.613-.874a14.708,14.708,0,0,1,2.91,2.218,6.341,6.341,0,0,0-.77.966Zm.013-5.742a18.835,18.835,0,0,1-1.67,2.114,3.047,3.047,0,0,0-.94-.652,11.982,11.982,0,0,0,1.905-2.44l.94.561c.144.078.222.157.222.261C167.5,56.549,167.174,56.5,167.044,56.484Z" transform="translate(47.487 15.875)" fill="#3e3a39"/>
  <path id="パス_468" data-name="パス 468" d="M173.948,65.8c-.235-.652-.418-1.122-.718-1.775-1.383.535-2.6.94-4.541,1.566-.065.222-.144.313-.248.313-.144,0-.183-.144-.222-.248l-.326-1.109c.183-.052,1.044-.287,1.214-.326V55.761a3.87,3.87,0,0,1-.548.4,2.755,2.755,0,0,0-.809-.926,11.4,11.4,0,0,0,3.784-3.719l1.07.235c.157.026.365.091.365.248,0,.222-.391.261-.5.261a10.761,10.761,0,0,0,2.44,2.179,5.123,5.123,0,0,0-.757.913,13.479,13.479,0,0,1-2.3-2.3,15.369,15.369,0,0,1-2.688,2.675h1.944v-1.5l1.07.052c.287.013.378.078.378.209,0,.157-.131.183-.313.261v.979h2.1V61.02h-4.084V63.9c1.135-.365,1.266-.4,2.518-.848a12.145,12.145,0,0,0-.77-1.279l.979-.522a21.288,21.288,0,0,1,2.062,3.928,5.411,5.411,0,0,0-1.1.613Zm-.757-9.082h-2.962v1.148h2.962Zm0,2.049h-2.962v1.279h2.962ZM180.9,56.7V59.95H176.9v1.227h4.711v4.854h-1.2v-.679H176.9v.718H175.71V56.7h-.7V53.386h2.74V51.677l1.279.078c.209.013.339.013.339.157,0,.183-.3.248-.391.287v1.187h3.08V56.7h-1.161Zm-.052-2.258h-4.7v1.422h4.7Zm-1.109,2.44H176.9v2.036h2.845Zm.652,5.285h-3.51V64.3h3.51Z" transform="translate(51.152 15.71)" fill="#3e3a39"/>
  <path id="パス_469" data-name="パス 469" d="M187.424,54.832l.679.1c.131.013.391.078.391.222,0,.17-.222.222-.391.261v1.475h4.88V62.57c0,1.749-.313,2.218-2.884,2.205a3.923,3.923,0,0,0-.47-1.383,9.641,9.641,0,0,0,1.083.078c.8,0,.94-.17.94-1.07V58.094H188.1V66h-1.331V58.094h-3.536v6.629H181.9V56.868h4.867V54.806H180.26v-1.2h6.512V51.7l1.344.065c.183.013.378.091.378.222,0,.17-.235.222-.391.248v1.37h6.512v1.2h-7.177Z" transform="translate(54.967 15.765)" fill="#3e3a39"/>
  <path id="パス_470" data-name="パス 470" d="M197.832,60.946c-.731.3-2.727,1.122-4.45,1.723-.013.157-.026.4-.248.4-.091,0-.17-.078-.248-.339l-.326-1.187c.731-.17,1.749-.483,2.14-.613v-4.5h-2.023V55.243H194.7V51.72l1.279.091c.157.013.326.026.326.183s-.17.209-.339.287v2.962h1.984v1.187h-1.984v4.084c.274-.091,1.279-.47,1.984-.8a3.441,3.441,0,0,0-.13,1.24Zm2.9-1.788c-.209.365-.378.613-.574.953h6.3c-.026,1.357-.222,4.463-1.018,5.363-.222.248-.652.574-2.3.483a3.124,3.124,0,0,0-.444-1.344,7.612,7.612,0,0,0,1.174.13c.378,0,.757,0,.966-.966a15.963,15.963,0,0,0,.365-2.61h-.992a14.624,14.624,0,0,1-3.771,4.92,3.373,3.373,0,0,0-.992-.679,11.8,11.8,0,0,0,3.615-4.241h-1.187a12.675,12.675,0,0,1-4.45,4.372,2.31,2.31,0,0,0-.887-.77,10.834,10.834,0,0,0,4.1-3.6h-1.279a13.049,13.049,0,0,1-2.205,2.062,2.871,2.871,0,0,0-.94-.7,10.71,10.71,0,0,0,3.328-3.367h-2.023v-1h9.4v1h-6.2Zm-1.892-1.788V52.111h6.655V57.37Zm5.481-4.267h-4.254v1.148h4.254Zm0,2.088h-4.254v1.227h4.254Z" transform="translate(58.717 15.771)" fill="#3e3a39"/>
  <path id="パス_471" data-name="パス 471" d="M163.479,76.958a7.163,7.163,0,0,1-5.363,7.477,4.916,4.916,0,0,0-1-1.109c4.424-1.24,5.011-3.9,5.011-6.368H155.91V75.7h13.128v1.253h-5.559ZM158.1,72.743V71.49h8.808v1.253Z" transform="translate(47.542 21.799)" fill="#3e3a39"/>
  <path id="パス_472" data-name="パス 472" d="M175.153,79.163l.757,5.272-1.344.235-.783-5.337-5.964.77-.17-1.279,5.95-.77-.444-2.923-4.372.561-.144-1.279,4.332-.548-.4-2.806,1.383-.157c.091-.013.326-.052.326.157,0,.13-.065.17-.248.313l.326,2.31,4.163-.535.144,1.266-4.111.535.418,2.923,5.676-.718.157,1.279-5.65.718Z" transform="translate(51.121 21.617)" fill="#3e3a39"/>
  <path id="パス_473" data-name="パス 473" d="M189.645,75.627v.418c0,2.349-.065,6.512-5.494,8.626a4.249,4.249,0,0,0-1.018-1.1c5.1-1.788,5.1-5.024,5.1-7.947h-4.254v4.111h-1.4V75.627H179.44v-1.3h3.145V70.994l1.3.091c.209.013.378.052.378.183,0,.1-.1.157-.274.248v2.806h4.254V70.89l1.409.1c.144.013.313.013.313.17s-.144.183-.313.248v2.9h3.119v1.3h-3.119Z" transform="translate(54.717 21.616)" fill="#3e3a39"/>
  <path id="パス_474" data-name="パス 474" d="M203.75,83.786a20.715,20.715,0,0,0-4.92-5.089,17.429,17.429,0,0,1-6.746,5.285,3.182,3.182,0,0,0-.874-1.2,14.821,14.821,0,0,0,9.017-9.748h-7.66V71.754h7.869a5.039,5.039,0,0,0,1.07-.1l.77.718A5.035,5.035,0,0,0,201.7,73.4a24.456,24.456,0,0,1-2.153,4.293,27.109,27.109,0,0,1,5.311,5,7.343,7.343,0,0,0-1.1,1.109Z" transform="translate(58.306 21.848)" fill="#3e3a39"/>
  <path id="パス_475" data-name="パス 475" d="M210.483,79.163l.757,5.272-1.344.235-.783-5.337-5.964.77-.17-1.279,5.95-.77-.444-2.923-4.372.561-.144-1.279,4.332-.548-.4-2.806,1.383-.157c.091-.013.326-.052.326.157,0,.13-.065.17-.248.313l.326,2.31,4.163-.535.144,1.266-4.111.535.418,2.923,5.676-.718.157,1.279-5.65.718Z" transform="translate(61.895 21.617)" fill="#3e3a39"/>
  <path id="パス_476" data-name="パス 476" d="M219.17,75.41a17.7,17.7,0,0,0-4.45-2.988l.809-1.161A21.31,21.31,0,0,1,220,74.222a8.859,8.859,0,0,0-.848,1.188Zm-3.054,8.456c-.013.261-.052.365-.222.365a.33.33,0,0,1-.248-.183l-.848-1.409a18.5,18.5,0,0,0,11.953-8.586,9.575,9.575,0,0,0,.861,1.227c-3.51,5.663-8.952,7.7-11.509,8.613Z" transform="translate(65.474 21.729)" fill="#3e3a39"/>
  <path id="パス_477" data-name="パス 477" d="M237.694,74.9c-1.488,3.51-3.367,7.96-9.108,10.27a5.412,5.412,0,0,0-1.031-1.018c2.727-1.1,6.564-3.08,8.586-9.448h-5.194a21.225,21.225,0,0,1-3.993,4.489,10.515,10.515,0,0,0-1.044-.966,16.683,16.683,0,0,0,5.428-7.268l1.318.561c.144.065.222.1.222.222,0,.183-.235.209-.378.222-.391.783-.574,1.109-.8,1.488h4.685a2.4,2.4,0,0,0,1.031-.235l.783.731a5.656,5.656,0,0,0-.5.953Zm-1.488-2.258a9.438,9.438,0,0,0-1.383-1.54l.783-.613a14.685,14.685,0,0,1,1.409,1.566,4.391,4.391,0,0,0-.809.574Zm2.362-.091a9.4,9.4,0,0,0-1.357-1.592l.757-.613a15.593,15.593,0,0,1,1.422,1.618,3.151,3.151,0,0,0-.809.6Z" transform="translate(68.887 21.452)" fill="#3e3a39"/>
  <path id="パス_478" data-name="パス 478" d="M249.6,83.786a20.715,20.715,0,0,0-4.92-5.089,17.429,17.429,0,0,1-6.746,5.285,3.182,3.182,0,0,0-.874-1.2,14.792,14.792,0,0,0,9.017-9.748H238.43V71.754H246.3a5.039,5.039,0,0,0,1.07-.1l.77.718a5.038,5.038,0,0,0-.574,1.031,23.645,23.645,0,0,1-2.166,4.293,27.111,27.111,0,0,1,5.311,5,7.341,7.341,0,0,0-1.1,1.109Z" transform="translate(72.287 21.848)" fill="#3e3a39"/>
  <path id="パス_479" data-name="パス 479" d="M256.519,76.958a7.163,7.163,0,0,1-5.363,7.477,4.916,4.916,0,0,0-1-1.109c4.424-1.24,5.011-3.9,5.011-6.368H248.95V75.7h13.128v1.253h-5.559Zm-5.389-4.215V71.49h8.808v1.253Z" transform="translate(75.912 21.799)" fill="#3e3a39"/>
  <path id="パス_480" data-name="パス 480" d="M260.84,77.023V75.64h13.323v1.383Z" transform="translate(79.538 23.065)" fill="#3e3a39"/>
  <path id="パス_481" data-name="パス 481" d="M280.263,79.163l.757,5.272-1.344.235-.783-5.337-5.964.77-.17-1.279,5.951-.77-.444-2.923-4.372.561-.144-1.279,4.332-.548-.4-2.806,1.383-.157c.091-.013.326-.052.326.157,0,.13-.065.17-.248.313l.326,2.31,4.163-.535.143,1.266-4.11.535.418,2.923,5.676-.718.157,1.279-5.65.718Z" transform="translate(83.173 21.617)" fill="#3e3a39"/>
  <path id="パス_482" data-name="パス 482" d="M169.348,103.829a12.837,12.837,0,0,1-6.368-6.42,11.085,11.085,0,0,1-6.6,6.472,3.315,3.315,0,0,0-.926-1.187,10.409,10.409,0,0,0,4.58-2.832,7.184,7.184,0,0,0,1.957-3.836h-5.624v-1.24h5.794c.026-.4.065-.887.065-1.279V91.38H155.7V90.14h14.38v1.24h-6.5v2.062a13.448,13.448,0,0,1-.065,1.344h5.9v1.24h-5.742a11.207,11.207,0,0,0,6.616,6.616,3.111,3.111,0,0,0-.953,1.174Z" transform="translate(47.401 27.486)" fill="#3e3a39"/>
  <path id="パス_483" data-name="パス 483" d="M170.708,92.559c.091.026.209.078.209.183,0,.144-.183.144-.365.13a7.245,7.245,0,0,1-.378.626,6.042,6.042,0,0,0,1.044.8,2.624,2.624,0,0,0-.613.7,4.867,4.867,0,0,1-.887-.913,8.912,8.912,0,0,1-1.044,1.1,2.862,2.862,0,0,0-.953-.548,7.134,7.134,0,0,0,2.127-2.427l.861.339Zm1.827,4.528h-.679l.365.209c.078.052.183.1.183.222s-.209.157-.418.157c-.13.17-.157.222-.248.326h2.192l.47.418a9.665,9.665,0,0,1-2.036,3.367,5.735,5.735,0,0,0,3.784.874c4.137,0,4.528-.026,6.29-.157a3.519,3.519,0,0,0-.5,1.24h-5.781a6.54,6.54,0,0,1-4.567-1.253,9.478,9.478,0,0,1-2.975,1.683,2.035,2.035,0,0,0-.822-1.044,8.9,8.9,0,0,0,3.067-1.475,5.735,5.735,0,0,1-.822-1.931,10.754,10.754,0,0,1-1.344,1.044,2.329,2.329,0,0,0-.94-.809,12.217,12.217,0,0,0,3.589-3.184l.091.052V95.8a13.8,13.8,0,0,1-2.832,1.918,2.228,2.228,0,0,0-.8-.94,11.457,11.457,0,0,0,3.628-2.062V91.985h-3.132V90.954h3.132V89.61l1.227.091c.13.013.3.052.3.17,0,.157-.222.209-.4.235v.848h2.871v1.031h-2.871v2.6a9.316,9.316,0,0,0,2.74,1.788,2.954,2.954,0,0,0-.731.887,9.724,9.724,0,0,1-2.01-1.566v1.383Zm-1.683,1.892a5.5,5.5,0,0,0,.783,2.023,6.782,6.782,0,0,0,1.383-2.023Zm4.058-6.5c.091.052.209.091.209.183,0,.157-.222.157-.391.17-.065.157-.091.209-.17.365a9.267,9.267,0,0,0,1.3,1.187,2.452,2.452,0,0,0-.692.679,8.382,8.382,0,0,1-1.018-1.161,9.609,9.609,0,0,1-.692.953,1.91,1.91,0,0,0-.8-.548,7.65,7.65,0,0,0,1.422-2.205l.835.378Zm.457,4.058V95.456h2.727v-2.14h-2.323V92.233h2.323V89.649l1.227.078c.131.013.339.013.339.183s-.261.235-.378.261V92.22h2.584V93.3h-2.584v2.14H182.3v1.083h-2.975a6.947,6.947,0,0,0,3.315,4.189,3.531,3.531,0,0,0-.927,1.044,8.757,8.757,0,0,1-3-3.863,8.58,8.58,0,0,1-3.315,4.019,5.8,5.8,0,0,0-1.044-.992,6.962,6.962,0,0,0,3.68-4.411h-2.662Z" transform="translate(51.143 27.325)" fill="#3e3a39"/>
  <path id="パス_484" data-name="パス 484" d="M185.653,94.847c.078.052.222.144.222.248a.224.224,0,0,1-.209.209,1.2,1.2,0,0,1-.339-.052c-.47.561-1.24,1.488-1.422,1.683-.313.339-.822.913-1.135,1.253l2.023-.17c-.157-.378-.3-.718-.457-1.044l.861-.365a15.98,15.98,0,0,1,1,2.6,4.548,4.548,0,0,0-.966.391,5.781,5.781,0,0,0-.209-.757c-.5.078-.822.13-1.057.157v4.893h-1.109V99.114c-.809.1-1.3.144-1.749.183-.026.183-.144.326-.287.326-.17,0-.183-.144-.209-.287l-.157-1.1c.17,0,.927-.013,1.083-.013.5-.522.7-.757.887-.966a15.317,15.317,0,0,0-2.14-1.866l.679-.77a7.742,7.742,0,0,1,.7.535,14.893,14.893,0,0,0,1.266-1.905h-1.7V89.94h12.4v3.315h-10.5l.835.548s.13.13.13.209c0,.1-.1.17-.235.17a.592.592,0,0,1-.235-.052,16.583,16.583,0,0,1-1.266,1.644c.235.222.483.457.718.718a19.188,19.188,0,0,0,1.683-2.3l.913.626Zm-3.432,5.05c.1.013.287.026.287.183s-.17.209-.339.209a19.088,19.088,0,0,1-.613,2.662,6.808,6.808,0,0,0-1.161-.222,11.979,11.979,0,0,0,.783-2.988l1.044.157ZM185,90.88h-2.662v1.475H185Zm.4,8.769a12.679,12.679,0,0,0,.835,2.779,3.551,3.551,0,0,0-1.083.261,16.294,16.294,0,0,1-.77-2.806l1.018-.248Zm3.823-5.755c.078.026.209.1.209.222,0,.17-.209.183-.47.183-.209.4-.326.613-.574,1.044h1.957a10.339,10.339,0,0,0,.861-2.023l1.109.483c.1.052.287.13.287.287,0,.209-.261.222-.483.209-.339.6-.47.783-.639,1.044h3.04v.966h-3.04v1.253h2.453v.926h-2.453v1.331h2.453v.926h-2.453v1.37h3.2v.992h-6.368v.8h-1.1V97.222a9.729,9.729,0,0,1-.692.926,2.72,2.72,0,0,0-.913-.77,9.756,9.756,0,0,0,2.492-4.058l1.135.561Zm-3.08-1.527h2.6V90.893h-2.6Zm4.241,5.207V96.321h-2.1v1.253Zm0,2.258V98.5h-2.1v1.331Zm0,2.3v-1.37h-2.1v1.37Zm-.535-9.761h2.61V90.893h-2.61Z" transform="translate(54.976 27.425)" fill="#3e3a39"/>
  <path id="パス_485" data-name="パス 485" d="M202.041,103.413c-2.962,0-3-1.2-3-2.1,0-.313.157-1.722.157-2.01s0-.783-.613-.783a1.1,1.1,0,0,0-.757.391c-1.266,1.24-3.38,3.549-4.332,4.606l-1.044-1.031c1.253-1.148,2.832-2.688,4.241-4.215.561-.6,2.962-3.354,3.458-3.876a44.789,44.789,0,0,1-6.3,1l-.274-1.409a24.217,24.217,0,0,0,8.5-1.435l.809,1.031A27.636,27.636,0,0,0,199,97.515a.764.764,0,0,1,.365-.065,1.163,1.163,0,0,1,1.253,1.109c0,.4-.261,2.166-.261,2.519,0,.874.339,1.083,1.788,1.083a10.033,10.033,0,0,0,3.328-.548,9.285,9.285,0,0,0,.078,1.462,17.888,17.888,0,0,1-3.484.339Zm-.927-11.679a26.219,26.219,0,0,1-5.246-.5L196,89.92a15.97,15.97,0,0,0,4.554.548c.326,0,.548-.013.77-.026a5.468,5.468,0,0,0-.209,1.3Z" transform="translate(58.684 27.419)" fill="#3e3a39"/>
  <path id="パス_486" data-name="パス 486" d="M217.428,97.64a20.691,20.691,0,0,1-2.832-2.806,10.622,10.622,0,0,1,.326,2.819c0,2.819-1.422,5.65-4.789,5.65a4.3,4.3,0,0,1-4.567-4.463c0-2.427,1.553-5.1,2.14-6.016a21.71,21.71,0,0,1-3.38.966l-.457-1.409a14.766,14.766,0,0,0,5.337-1.644l.809.979a11.591,11.591,0,0,0-3.158,7.151,2.992,2.992,0,0,0,3.158,3.145c3.471,0,3.667-3.863,3.667-4.763a10.992,10.992,0,0,0-1.918-5.99l1.253-.7a15.973,15.973,0,0,0,5.128,5.807c-.078.13-.548.887-.718,1.253Zm-.913-4.893a11.638,11.638,0,0,0-1.5-1.683l.718-.548a14.288,14.288,0,0,1,1.475,1.592A5.076,5.076,0,0,0,216.515,92.746Zm1.266-1.018a9.388,9.388,0,0,0-1.475-1.67L217,89.51a11.084,11.084,0,0,1,1.527,1.618,2.844,2.844,0,0,0-.757.613Z" transform="translate(62.166 27.294)" fill="#3e3a39"/>
  <path id="パス_487" data-name="パス 487" d="M227.713,100.923a8.9,8.9,0,0,1-3.745,2.127,7.227,7.227,0,0,0-.887-1.2c4.659-.979,5.154-4.241,5.154-5.507a4.518,4.518,0,0,0-4.763-4.606,22.812,22.812,0,0,1-1.709,7.216c-.861,2.036-1.605,2.871-2.466,2.871-1.161,0-2.936-1.814-2.936-4.385a7.211,7.211,0,0,1,7.112-6.929c3.354,0,6.12,2.244,6.12,5.807a6.692,6.692,0,0,1-1.866,4.619Zm-10.074-3.562c0,1.683.927,2.923,1.592,2.923s1.24-1.488,1.618-2.466a18.673,18.673,0,0,0,1.227-5.872,5.856,5.856,0,0,0-4.424,5.415Z" transform="translate(65.975 27.599)" fill="#3e3a39"/>
  <path id="パス_488" data-name="パス 488" d="M236.27,98.446a6.61,6.61,0,0,0-.574-1.331c.222.013.418.026.718.026.887,0,4.306-.091,4.306-2.375,0-.77-.457-1.957-2.271-1.957a6.415,6.415,0,0,0-1.357.17,16.057,16.057,0,0,1,1.2,2.258c-.209.091-1.122.522-1.3.613a17.4,17.4,0,0,0-1.187-2.44,20,20,0,0,0-2.74,1.279,39.27,39.27,0,0,1,3,8.391c-.365.157-.731.339-1.488.7a29.225,29.225,0,0,0-2.675-8.417,31.469,31.469,0,0,0-3.04,2.01l-.848-1.318a34.949,34.949,0,0,0,3.328-1.827,14.526,14.526,0,0,0-1.788-3l1.422-.561a1.084,1.084,0,0,1,.235-.065.192.192,0,0,1,.209.17.337.337,0,0,1-.157.261c.183.4,1.083,2.179,1.253,2.532a25.428,25.428,0,0,1,2.584-1.24,13.9,13.9,0,0,0-1.579-1.931l1.1-.574a11.437,11.437,0,0,1,1.736,2.062,6.665,6.665,0,0,1,2.023-.3c2.832,0,3.667,1.866,3.667,3.2,0,3.51-4.476,3.628-5.781,3.667Z" transform="translate(69.527 27.389)" fill="#3e3a39"/>
  <path id="パス_489" data-name="パス 489" d="M169.439,120.259a51.718,51.718,0,0,1-5.337-5.716c-1.618-1.983-1.788-2.205-2.349-2.205-.483,0-.861.4-1.67,1.344-.848.979-2.662,3.145-3.054,3.641.013.157.013.365-.183.365-.078,0-.144-.065-.235-.157l-.992-1.031a16.277,16.277,0,0,0,2.819-2.858c1.827-2.179,2.375-2.688,3.354-2.688,1.031,0,1.579.639,3.21,2.688a37.879,37.879,0,0,0,5.324,5.4,7.665,7.665,0,0,0-.874,1.227Zm-1.879-8.7a1.4,1.4,0,1,1,1.409-1.409A1.4,1.4,0,0,1,167.56,111.556Zm0-2.205a.8.8,0,1,0,.809.8A.8.8,0,0,0,167.56,109.35Z" transform="translate(47.453 33.161)" fill="#3e3a39"/>
  <path id="パス_490" data-name="パス 490" d="M169.593,115.755a14.439,14.439,0,0,0-1.553-3.223l1.1-.47a14.282,14.282,0,0,1,1.566,3.2,7.021,7.021,0,0,0-1.109.5Zm9.043-3.445c-1.161,4.711-3.315,7.451-7.843,9.239a6.852,6.852,0,0,0-.783-1.018c1.905-.652,6.486-2.414,7.451-9.056l1.2.378c.209.065.287.13.287.235,0,.157-.144.209-.313.235Zm-5.7,2.623a13.464,13.464,0,0,0-1.462-3.236l1.109-.457a13.427,13.427,0,0,1,1.475,3.236,4.161,4.161,0,0,0-1.122.457Z" transform="translate(51.24 33.92)" fill="#3e3a39"/>
  <path id="パス_491" data-name="パス 491" d="M186.063,118.228a21.9,21.9,0,0,0-5.794-3.98v8.234H178.86V108.95l1.422.1c.209.013.3.065.3.183,0,.17-.209.222-.313.235v4.463l.613-.848a25.484,25.484,0,0,1,6.016,3.993,9.213,9.213,0,0,0-.835,1.135Z" transform="translate(54.54 33.222)" fill="#3e3a39"/>
  <path id="パス_492" data-name="パス 492" d="M191.9,111.2a24.3,24.3,0,0,1-2.179,6.773,13.472,13.472,0,0,1-2.336,3.393,7.263,7.263,0,0,0-1.279-.7c2.923-3,4.032-6.981,4.45-10.257l1.37.313c.209.052.3.091.3.222,0,.091-.065.209-.326.248Zm7.621,9.891a23.691,23.691,0,0,0-4.659-10.139l1.083-.8a25.159,25.159,0,0,1,4.933,10.178,6.359,6.359,0,0,0-1.344.77Zm-.339-9.213a1.409,1.409,0,1,1,0-2.819,1.409,1.409,0,0,1,0,2.819Zm0-2.205a.8.8,0,0,0-.8.8.791.791,0,0,0,.8.8.808.808,0,0,0,.8-.8A.791.791,0,0,0,199.185,109.673Z" transform="translate(56.75 33.256)" fill="#3e3a39"/>
  <path id="パス_493" data-name="パス 493" d="M209.332,113.221a4.45,4.45,0,0,0,1.318-.157l.887.639c-.209.339-.94,1.905-1.1,2.218-1.67,3.354-3.328,5.207-7.83,6.746a11.973,11.973,0,0,0-.966-1.122c3.8-1.031,6.381-2.819,7.908-7.073H198.88v-1.253h10.452Zm.378-3.771V110.7h-8.978V109.45Z" transform="translate(60.644 33.375)" fill="#3e3a39"/>
  <path id="パス_494" data-name="パス 494" d="M221.338,112.685c-1.174,2.962-1.435,3.562-2.31,4.8A14.62,14.62,0,0,1,221,119.5a8.986,8.986,0,0,0-.94,1.148,14.68,14.68,0,0,0-1.866-2.075,16.146,16.146,0,0,1-6.512,4.345,10.63,10.63,0,0,0-.913-1.227,13.931,13.931,0,0,0,6.394-4.006,25.881,25.881,0,0,0-3.3-2.258l.835-.953a39.108,39.108,0,0,1,3.275,2.179,14.17,14.17,0,0,0,1.736-3.836h-4.841a17.251,17.251,0,0,1-3.771,4.032,4.839,4.839,0,0,0-1.044-.992,13.879,13.879,0,0,0,5.272-6.968l1.409.418c.222.065.274.13.274.209,0,.183-.274.209-.365.209-.3.561-.652,1.279-1,1.866h4.306a2.83,2.83,0,0,0,1.018-.157l.692.613a4.663,4.663,0,0,0-.313.639Zm-.757-2.023a13.724,13.724,0,0,0-1.475-1.657l.8-.6a14.183,14.183,0,0,1,1.475,1.631A3.306,3.306,0,0,0,220.581,110.663Zm2.14-.026a12.552,12.552,0,0,0-1.488-1.749l.8-.548a13.168,13.168,0,0,1,1.514,1.7,4.325,4.325,0,0,0-.835.613Z" transform="translate(64.05 33.036)" fill="#3e3a39"/>
  <path id="パス_495" data-name="パス 495" d="M233.53,110a1.63,1.63,0,0,1-.313-.026,24.941,24.941,0,0,1-3.993,3.68v9.017H227.8v-8.025a28.75,28.75,0,0,1-5.663,2.753,6.141,6.141,0,0,0-1.018-1.187,21.5,21.5,0,0,0,11.235-7.542l1.3.94a.269.269,0,0,1,.13.222c0,.13-.1.183-.248.183Z" transform="translate(67.426 33.137)" fill="#3e3a39"/>
  <path id="パス_496" data-name="パス 496" d="M244.73,121.786a20.714,20.714,0,0,0-4.92-5.089,17.429,17.429,0,0,1-6.746,5.285,3.182,3.182,0,0,0-.874-1.2,14.821,14.821,0,0,0,9.017-9.748h-7.66v-1.279h7.869a5.039,5.039,0,0,0,1.07-.1l.77.718a5.038,5.038,0,0,0-.574,1.031,24.459,24.459,0,0,1-2.153,4.293,27.111,27.111,0,0,1,5.311,5,7.341,7.341,0,0,0-1.1,1.109Z" transform="translate(70.802 33.436)" fill="#3e3a39"/>
  <path id="パス_497" data-name="パス 497" d="M168.19,140.786a20.715,20.715,0,0,0-4.92-5.089,17.429,17.429,0,0,1-6.746,5.285,3.182,3.182,0,0,0-.874-1.2,14.792,14.792,0,0,0,9.017-9.748H157.02v-1.279h7.869a5.04,5.04,0,0,0,1.07-.1l.77.718a5.038,5.038,0,0,0-.574,1.031,23.644,23.644,0,0,1-2.166,4.293,27.111,27.111,0,0,1,5.311,5,7.34,7.34,0,0,0-1.1,1.109Z" transform="translate(47.462 39.229)" fill="#3e3a39"/>
  <path id="パス_498" data-name="パス 498" d="M178.641,131.557c-1.174,2.962-1.435,3.562-2.323,4.8a14.621,14.621,0,0,1,1.97,2.01,8.984,8.984,0,0,0-.94,1.148,14.683,14.683,0,0,0-1.866-2.075,16.146,16.146,0,0,1-6.512,4.345,10.627,10.627,0,0,0-.913-1.227,14.026,14.026,0,0,0,6.407-4.006,26.834,26.834,0,0,0-3.3-2.258l.822-.953a39.1,39.1,0,0,1,3.275,2.179A14.17,14.17,0,0,0,177,131.688h-4.841a17.252,17.252,0,0,1-3.771,4.032,4.839,4.839,0,0,0-1.044-.992,14.031,14.031,0,0,0,5.272-6.968l1.409.418c.183.065.261.091.261.222,0,.17-.248.183-.365.183-.3.561-.652,1.279-1,1.866h4.306a2.831,2.831,0,0,0,1.018-.157l.692.613a4.66,4.66,0,0,0-.313.639Z" transform="translate(51.027 38.958)" fill="#3e3a39"/>
  <path id="パス_499" data-name="パス 499" d="M181.946,135a17.739,17.739,0,0,0-4.006-2.179l.783-1.109a21.288,21.288,0,0,1,4.071,2.114,4.794,4.794,0,0,0-.848,1.174Zm-1.879,6.446c-.013.144-.052.378-.235.378-.13,0-.183-.091-.248-.222l-.652-1.253a22.223,22.223,0,0,0,11.523-8.847,6.2,6.2,0,0,0,.913,1.122,24.461,24.461,0,0,1-11.288,8.808Zm3.745-10.113a16.324,16.324,0,0,0-4.215-2.153l.783-1.044a19.311,19.311,0,0,1,4.254,2.049,6.1,6.1,0,0,0-.835,1.161Zm5.168-.652a13.078,13.078,0,0,0-1.723-1.514l.718-.679a19.313,19.313,0,0,1,1.723,1.475A7.3,7.3,0,0,0,188.98,130.681Zm1.279-1.122a11.8,11.8,0,0,0-1.709-1.566l.7-.613a11.941,11.941,0,0,1,1.723,1.5A3.013,3.013,0,0,0,190.259,129.559Z" transform="translate(54.259 38.842)" fill="#3e3a39"/>
  <path id="パス_500" data-name="パス 500" d="M198.735,132.584V139.7c0,.953-.026,2.179-3.667,1.957a5.521,5.521,0,0,0-.535-1.488,9.4,9.4,0,0,0,1.723.17c1.083,0,1.083-.326,1.083-1.644V133.85a16.962,16.962,0,0,1-6.981,5.95,3.355,3.355,0,0,0-.887-1.122,15.129,15.129,0,0,0,7.19-6.094h-6.8v-1.279h7.477V127.86l1.4.1c.209.013.313.026.313.17s-.17.222-.313.287v2.884h3.745v1.279h-3.745Z" transform="translate(57.775 38.988)" fill="#3e3a39"/>
  <path id="パス_501" data-name="パス 501" d="M213.755,131.156a38.9,38.9,0,0,1-5.415,5.624,17.424,17.424,0,0,1,2.1,2.6,5.225,5.225,0,0,0-1.161,1.044,22.241,22.241,0,0,0-5.585-6.12l.913-.966a28.412,28.412,0,0,1,2.832,2.479,23.756,23.756,0,0,0,4.619-4.893H201.28v-1.266H212.7a3,3,0,0,0,.953-.235l.861,1.031a4.612,4.612,0,0,0-.757.718Z" transform="translate(61.376 39.464)" fill="#3e3a39"/>
  <path id="パス_502" data-name="パス 502" d="M215.046,128.812v7.477h-1.4v-8.012l1.4.091c.183.013.326.013.326.17s-.235.235-.326.261Zm7.438-.287v5.011a8.376,8.376,0,0,1-1.174,4.763,9.293,9.293,0,0,1-5.05,3.51,2.975,2.975,0,0,0-.887-1.109c5.729-1.566,5.729-5.4,5.729-7.138V127.99l1.422.091c.235.013.3.078.3.157,0,.209-.222.261-.326.3Z" transform="translate(65.148 39.028)" fill="#3e3a39"/>
  <path id="パス_503" data-name="パス 503" d="M232.075,132.584V139.7c0,.953-.026,2.179-3.667,1.957a5.521,5.521,0,0,0-.535-1.488,9.514,9.514,0,0,0,1.723.17c1.083,0,1.083-.326,1.083-1.644V133.85a16.962,16.962,0,0,1-6.981,5.95,3.355,3.355,0,0,0-.887-1.122,15.032,15.032,0,0,0,7.177-6.094h-6.8v-1.279h7.477V127.86l1.4.1c.209.013.313.026.313.17s-.17.222-.313.287v2.884h3.745v1.279h-3.745Z" transform="translate(67.941 38.988)" fill="#3e3a39"/>
  <path id="パス_504" data-name="パス 504" d="M167.96,148a1.63,1.63,0,0,1-.313-.026,24.942,24.942,0,0,1-3.993,3.68v9.017h-1.422v-8.025a28.75,28.75,0,0,1-5.663,2.753,6.14,6.14,0,0,0-1.018-1.187,21.5,21.5,0,0,0,11.235-7.542l1.3.94a.269.269,0,0,1,.131.222c0,.131-.1.183-.248.183Z" transform="translate(47.432 44.724)" fill="#3e3a39"/>
  <path id="パス_505" data-name="パス 505" d="M175.925,151.584V158.7c0,.953-.026,2.179-3.667,1.957a5.521,5.521,0,0,0-.535-1.488,9.514,9.514,0,0,0,1.723.17c1.083,0,1.083-.326,1.083-1.644V152.85a16.962,16.962,0,0,1-6.981,5.951,3.2,3.2,0,0,0-.887-1.122,15.129,15.129,0,0,0,7.19-6.094h-6.8v-1.279h7.477V146.86l1.4.1c.209.013.313.026.313.17s-.17.222-.313.287v2.884h3.745v1.279h-3.745Z" transform="translate(50.82 44.782)" fill="#3e3a39"/>
  <path id="パス_506" data-name="パス 506" d="M182.95,151.41a17.7,17.7,0,0,0-4.45-2.988l.809-1.161a21.311,21.311,0,0,1,4.476,2.962,8.863,8.863,0,0,0-.848,1.187Zm-3.054,8.456c-.013.261-.052.365-.222.365a.33.33,0,0,1-.248-.183l-.848-1.409a18.5,18.5,0,0,0,11.953-8.586,9.577,9.577,0,0,0,.861,1.227c-3.51,5.663-8.952,7.7-11.509,8.613Z" transform="translate(54.43 44.904)" fill="#3e3a39"/>
  <path id="パス_507" data-name="パス 507" d="M193.806,153.824a17.739,17.739,0,0,0-4.006-2.179l.783-1.109a21.287,21.287,0,0,1,4.071,2.114,4.794,4.794,0,0,0-.848,1.174Zm-1.879,6.446c-.013.157-.052.378-.248.378-.1,0-.183-.13-.248-.248l-.639-1.227a22.224,22.224,0,0,0,11.523-8.847,7.776,7.776,0,0,0,.913,1.122,24.461,24.461,0,0,1-11.288,8.808Zm3.745-10.113A16.324,16.324,0,0,0,191.457,148l.783-1.044a19.311,19.311,0,0,1,4.254,2.049,5.515,5.515,0,0,0-.822,1.161Z" transform="translate(57.876 44.812)" fill="#3e3a39"/>
  <path id="パス_508" data-name="パス 508" d="M211.792,151.816a30.978,30.978,0,0,1-3.288,3.223V160.9H207.12v-4.841a22.411,22.411,0,0,1-5.233,2.584,5.68,5.68,0,0,0-.718-1.2,17.973,17.973,0,0,0,8.952-5.794h-7.451V150.42H211a3.241,3.241,0,0,0,.94-.157l.731.809a9.622,9.622,0,0,0-.887.731ZM209.7,149.65a19.324,19.324,0,0,0-4.619-2.01l.7-1.07A23.273,23.273,0,0,1,210.4,148.5a7.24,7.24,0,0,0-.692,1.135Zm3.876,8.952a19.776,19.776,0,0,0-4.1-3.171l.874-.953a27.993,27.993,0,0,1,4.071,3.04,9.7,9.7,0,0,0-.848,1.1Z" transform="translate(61.343 44.693)" fill="#3e3a39"/>
  <path id="パス_509" data-name="パス 509" d="M225.165,150.156a38.9,38.9,0,0,1-5.415,5.624,17.424,17.424,0,0,1,2.1,2.6,5.225,5.225,0,0,0-1.161,1.044,22.241,22.241,0,0,0-5.585-6.12l.913-.966a28.414,28.414,0,0,1,2.832,2.479,23.755,23.755,0,0,0,4.619-4.893H212.69v-1.266h11.418a3,3,0,0,0,.953-.235l.861,1.031a4.613,4.613,0,0,0-.757.718Z" transform="translate(64.855 45.258)" fill="#3e3a39"/>
  <path id="パス_510" data-name="パス 510" d="M237.521,161.109a12.977,12.977,0,0,1-6.107-7.021,12.2,12.2,0,0,1-6.512,6.994,3.2,3.2,0,0,0-.953-1.122c1.188-.522,5.716-2.479,6.577-7.777h-6.3v-1.266h6.446c.026-.561.026-.835.026-1.3V146.65l1.4.065c.209.013.378.052.378.183,0,.183-.248.235-.391.261v2.518c0,.457,0,.692-.026,1.227h6.433v1.266h-6.355a11.452,11.452,0,0,0,6.446,7.882,3.587,3.587,0,0,0-1.044,1.044Z" transform="translate(68.289 44.718)" fill="#3e3a39"/>
  <path id="パス_511" data-name="パス 511" d="M246.6,160.173v-1h-7.843v1.018H237.41V147.45h10.531v12.723Zm0-11.483h-7.843v3.863H246.6Zm0,5.089h-7.843v4.137H246.6Z" transform="translate(72.393 44.962)" fill="#3e3a39"/>
  <path id="パス_512" data-name="パス 512" d="M160.2,166.543a20.189,20.189,0,0,1-1.579,3.158c.144.026.535.144.535.248,0,.157-.183.222-.391.287V180h-1.253v-8.639c-.483.652-.953,1.187-1.318,1.631a3.876,3.876,0,0,0-.861-1.018,17.36,17.36,0,0,0,3.876-6.381l1.24.5a.318.318,0,0,1,.222.248c0,.157-.209.183-.47.209Zm6.994,12.945h-3.406c-2.1,0-2.414-.861-2.414-2.14v-5.4l-1.814.378-.248-1.2,2.062-.444v-3.993l1.227.1c.235.013.391.078.391.183s-.078.17-.339.3v3.132l1.957-.4v-4.332l1.253.1c.183.013.378.091.378.209s-.078.157-.392.261v3.484l2.453-.522.731.444v4.241c0,1.475,0,2.453-2.271,2.44a3.322,3.322,0,0,0-.483-1.318c.3.026.535.065.822.065.483,0,.652-.1.652-.927v-3.589l-1.918.4v5.272H164.6v-5.011l-1.957.418v5.546c0,.861.17,1.07,1.553,1.07h3.067c1.07,0,1.566-.078,1.97-1.84a2.544,2.544,0,0,0,1.083.626c-.626,2.427-1.683,2.427-3.119,2.427Z" transform="translate(47.365 50.493)" fill="#3e3a39"/>
  <line id="線_24" data-name="線 24" x2="376.55" transform="translate(0 27.808)" fill="none" stroke="#a13c75" stroke-miterlimit="10" stroke-width="0.5"/>
  <path id="パス_513" data-name="パス 513" d="M9.408,6.974c-.039,1.827-.13,6.264-5.82,8.1a5.38,5.38,0,0,0-1.083-1.2c4.8-1.344,5.429-4.228,5.429-6.9H1.2V5.617H15.437V6.974ZM3.575,2.407V1.05h9.552V2.407Z" transform="translate(0.366 0.32)" fill="#3e3a39"/>
  <path id="パス_514" data-name="パス 514" d="M23.592,5.895c-.1,4.985-2.362,7.7-6.068,9.487a4.046,4.046,0,0,0-1.135-1.174c5.429-2.1,5.6-6.225,5.689-8.312H14.94V4.524h7.138V.44L23.6.492c.17,0,.378.013.378.209s-.261.274-.378.326v3.5h5.781v1.37H23.6Z" transform="translate(4.556 0.134)" fill="#3e3a39"/>
  <path id="パス_515" data-name="パス 515" d="M33.655,5.289A18.978,18.978,0,0,0,28.84,2.053L29.727.8a22.618,22.618,0,0,1,4.854,3.21A9.01,9.01,0,0,0,33.668,5.3ZM30.341,14.45c-.013.287-.052.391-.235.391a.374.374,0,0,1-.274-.209l-.913-1.527A20.05,20.05,0,0,0,41.876,3.788a8.352,8.352,0,0,0,.94,1.318c-3.8,6.146-9.709,8.352-12.475,9.33Z" transform="translate(8.794 0.244)" fill="#3e3a39"/>
  <path id="パス_516" data-name="パス 516" d="M50.853,10.508A23.849,23.849,0,0,0,44.577,6.2v8.926H43.05V.46l1.54.117c.222.013.326.065.326.209,0,.183-.222.235-.339.261V5.889l.666-.913a27.311,27.311,0,0,1,6.512,4.319,7.881,7.881,0,0,0-.9,1.24Z" transform="translate(13.127 0.14)" fill="#3e3a39"/>
  <path id="パス_517" data-name="パス 517" d="M58.881,2.3c.1.052.261.17.261.287,0,.183-.235.17-.5.157-.326.431-1.736,2.375-2.023,2.753-.731.94-.953,1.187-1.592,1.957.757-.078,1.4-.183,2.662-.391a7.487,7.487,0,0,0-.5-1.357l1.148-.352a18.127,18.127,0,0,1,1.135,3.523,6.613,6.613,0,0,0-1.24.431,11.334,11.334,0,0,0-.248-1.174c-.209.052-1.3.248-1.422.287v7.334h-1.3V8.629c-.731.1-1.227.17-2.492.326-.065.222-.13.391-.287.391s-.261-.3-.274-.444L52.03,7.677c.4-.013,1.122-.065,1.4-.078.431-.457.77-.913,1.344-1.657a20.449,20.449,0,0,0-2.7-2.453L52.878,2.4c.6.5.8.679.979.848A28.113,28.113,0,0,0,55.658.03L56.78.578c.157.065.261.183.261.287,0,.157-.235.157-.326.157h-.157A30.875,30.875,0,0,1,54.679,4.01c.065.052.613.6.913.887.117-.157,1.631-2.166,2.205-3.171l1.083.626Zm-4.463,7.764c.157.039.352.078.352.235s-.13.209-.431.287a20.426,20.426,0,0,1-.979,4.032A4.746,4.746,0,0,0,52.1,14.28a17.085,17.085,0,0,0,1.135-4.424l1.187.209ZM58.5,9.739a22.748,22.748,0,0,0,1.083,3.641,4.781,4.781,0,0,0-1.24.431,20.543,20.543,0,0,1-1-3.732l1.148-.339Zm8.652-6.773c.013,2.766.013,8.7-.887,11.066-.548,1.422-1.527,1.683-3.6,1.644a3.956,3.956,0,0,0-.613-1.579,8.6,8.6,0,0,0,1.448.13c1.187,0,1.683-.326,2.075-3.745a53.6,53.6,0,0,0,.209-6.225H61.321a16.252,16.252,0,0,1-1.4,2.166,4.234,4.234,0,0,0-1.2-.757,15.765,15.765,0,0,0,2.923-5.6l1.279.418c.235.091.378.209.378.287,0,.157-.13.209-.522.274-.235.587-.5,1.266-.8,1.918H67.18ZM62,6.437a25.275,25.275,0,0,1,1.97,3.81,7.976,7.976,0,0,0-1.24.613,25.851,25.851,0,0,0-1.918-3.9L62,6.437Z" transform="translate(15.865 0.009)" fill="#3e3a39"/>
  <path id="パス_518" data-name="パス 518" d="M72.381,14.179H70.723V4.6H67.97V3.335c1.422-.065,2.623-.4,3.067-2.505h1.344V14.192Z" transform="translate(20.726 0.253)" fill="#3e3a39"/>
  <path id="パス_519" data-name="パス 519" d="M84.806,4.3a2.513,2.513,0,0,0-2.7-2.284c-3.341,0-3.6,3.523-3.719,5.324A4.42,4.42,0,0,1,82.17,5.737a4.248,4.248,0,0,1,4.58,4.372c0,2.584-1.827,4.541-4.854,4.541-4.828,0-5.246-4.867-5.246-6.786,0-4.28,1.814-7.334,5.415-7.334A4.354,4.354,0,0,1,86.581,4.3H84.793ZM79.612,7.733a2.992,2.992,0,0,0-1.07,2.3,3.17,3.17,0,0,0,3.406,3.158A2.946,2.946,0,0,0,85.054,10.1a2.8,2.8,0,0,0-2.9-3.04,3.926,3.926,0,0,0-2.545.679Z" transform="translate(23.373 0.162)" fill="#3e3a39"/>
  <path id="パス_520" data-name="パス 520" d="M96.986,7.59c0,2.714-.679,7.06-5.05,7.06S86.86,10.2,86.86,7.59,87.473.53,91.936.53s5.05,4.515,5.05,7.06Zm-8.43,0c0,2.218.47,5.585,3.354,5.585s3.38-3.38,3.38-5.585S94.82,2,91.936,2,88.556,5.332,88.556,7.59Z" transform="translate(26.486 0.162)" fill="#3e3a39"/>
  <path id="パス_521" data-name="パス 521" d="M99.961,3.471V7.216a16.589,16.589,0,0,1-1.827,8.378A4.552,4.552,0,0,0,96.79,14.9c1.749-2.662,1.762-6.525,1.762-7.8V2.231h5.663V.13L105.7.221c.117,0,.378.052.378.248,0,.117-.209.235-.4.287V2.231h6.9v1.24ZM106.2,6.9V9.356h4.789v6.29h-1.409v-.809h-6.8v.835h-1.37V9.356h3.341V3.536l1.462.13c.157.013.4.052.4.222s-.209.209-.4.235V5.65h5.755V6.89h-5.755Zm3.38,3.719h-6.8V13.61h6.8Z" transform="translate(29.514 0.04)" fill="#3e3a39"/>
  <path id="パス_522" data-name="パス 522" d="M123.088,15.437h-1.253V11.823h-1.866V15.79h-1.24V5.076h3.106V3.315H118.4a4.231,4.231,0,0,0,.391.3,4.377,4.377,0,0,0-1.018.927,12.738,12.738,0,0,1-2.545-2.884A17.268,17.268,0,0,1,112.4,5.089h2.023V3.236l1.318.065c.183.013.326.039.326.183,0,.209-.235.261-.431.3V5.076h2.153v1.1h-2.153V7.647h2.6V8.73h-6.694V7.647h2.884V6.172h-2.049V5.1l-.235.209a2.787,2.787,0,0,0-1.109-.861A11.5,11.5,0,0,0,114.749,0l1.344.261c.091.013.3.065.3.235,0,.209-.261.274-.548.287a17.094,17.094,0,0,0,2.388,2.388V2.14h3.6V.117l1.253.052c.3.013.444.013.444.183s-.17.222-.444.3V2.14h2.023A9.951,9.951,0,0,0,123.988.561l.861-.47a14.466,14.466,0,0,1,1.292,1.657l-.692.391h1.54V3.288h-3.9V5.05h3.223v9.161c0,1.018-.157,1.527-2.218,1.488a2.921,2.921,0,0,0-.522-1.422,6.31,6.31,0,0,0,.953.1c.548,0,.548-.17.548-.848V11.8H123.1v3.615ZM117.7,9.67v6.107h-1.227v-.9h-2.779v.9h-1.3V9.67H117.7Zm-4.006,1.148v2.9h2.779v-2.9Zm8.143-4.632h-1.866V7.869h1.866Zm0,2.806h-1.866v1.7h1.866Zm1.253-1.122h1.97V6.185h-1.97Zm0,2.819h1.97v-1.7h-1.97Z" transform="translate(33.856)" fill="#3e3a39"/>
</svg>
