<svg id="shops01-04" xmlns="http://www.w3.org/2000/svg" width="458.996" height="265.318" viewBox="0 0 458.996 265.318">
  <rect id="長方形_8" data-name="長方形 8" width="458.996" height="265.318" fill="#a7dcf7" opacity="0.4"/>
  <path id="パス_103" data-name="パス 103" d="M27.713,47.33c2.427,0,3.536,1.488,3.536,3.158a2.729,2.729,0,0,1-1.8,2.662,3.009,3.009,0,0,1,2.258,3.04c0,1.109-.522,3.471-3.8,3.471H22.05V47.33ZM23.6,48.674v4.058h3.784c1.879,0,2.3-1.2,2.3-2.036,0-.548-.183-2.023-2.3-2.023Zm0,5.246v4.4h4.006a2.231,2.231,0,0,0,2.532-2.205c0-.887-.47-2.192-2.584-2.192Z" transform="translate(6.724 14.432)" fill="#3e3a39"/>
  <path id="パス_104" data-name="パス 104" d="M37.2,47.33l4.554,12.332H40.139l-1-2.78H33.353l-.992,2.78H30.73L35.284,47.33h1.892Zm-.94,1.462-2.44,6.838H38.7l-2.44-6.838Z" transform="translate(9.37 14.432)" fill="#3e3a39"/>
  <path id="パス_105" data-name="パス 105" d="M41.987,47.33l3.68,6.016,3.667-6.016h1.827l-4.724,7.5v4.841H44.884V54.833l-4.724-7.5h1.827Z" transform="translate(12.246 14.432)" fill="#3e3a39"/>
  <path id="パス_106" data-name="パス 106" d="M58.017,47.333v1.344H51.793v4.189h5.35V54.21h-5.35v5.442H50.24V47.32h7.777Z" transform="translate(15.32 14.429)" fill="#3e3a39"/>
  <path id="パス_107" data-name="パス 107" d="M59.653,47.33V58.318h6.225v1.344H58.1V47.33Z" transform="translate(17.716 14.432)" fill="#3e3a39"/>
  <path id="パス_108" data-name="パス 108" d="M76.7,53.582c0,3.745-2.205,6.512-5.572,6.512s-5.559-2.74-5.559-6.512c0-3.536,2.023-6.512,5.559-6.512S76.7,50.11,76.7,53.582Zm-9.565,0c0,3.562,1.944,5.154,3.993,5.154,1.892,0,4.006-1.4,4.006-5.154s-1.957-5.154-4.006-5.154S67.136,49.9,67.136,53.582Z" transform="translate(19.994 14.353)" fill="#3e3a39"/>
  <path id="パス_109" data-name="パス 109" d="M76.984,47.33,79.19,58.187,81.382,47.33h1.892l2.192,10.857L87.672,47.33H89.3L86.5,59.662h-2.01l-2.179-10.7-2.179,10.7h-2.01L75.34,47.33h1.631Z" transform="translate(22.973 14.432)" fill="#3e3a39"/>
  <path id="パス_110" data-name="パス 110" d="M30.21,70.686a3.17,3.17,0,0,0-3.223-3.249c-2.532,0-3.758,2.584-3.758,5.272,0,3.471,1.788,5.024,3.745,5.024.887,0,3-.339,3.249-3.432h1.592c-.157.966-.731,4.789-4.776,4.789-3.784,0-5.389-3.119-5.389-6.381s1.579-6.629,5.272-6.629c.522,0,4.189,0,4.8,4.619h-1.54Z" transform="translate(6.602 20.15)" fill="#3e3a39"/>
  <path id="パス_111" data-name="パス 111" d="M42.161,72.582c0,3.745-2.205,6.512-5.572,6.512s-5.559-2.74-5.559-6.512c0-3.536,2.023-6.512,5.559-6.512S42.161,69.11,42.161,72.582Zm-9.565,0c0,3.562,1.944,5.154,3.993,5.154,1.892,0,4.006-1.4,4.006-5.154s-1.957-5.154-4.006-5.154S32.6,68.9,32.6,72.582Z" transform="translate(9.462 20.147)" fill="#3e3a39"/>
  <path id="パス_112" data-name="パス 112" d="M43.063,66.33V77.318h6.225v1.344H41.51V66.33Z" transform="translate(12.658 20.226)" fill="#3e3a39"/>
  <path id="パス_113" data-name="パス 113" d="M60.1,72.582c0,3.745-2.205,6.512-5.572,6.512s-5.559-2.74-5.559-6.512c0-3.536,2.023-6.512,5.559-6.512S60.1,69.11,60.1,72.582Zm-9.565,0c0,3.562,1.944,5.154,3.993,5.154,1.892,0,4.006-1.4,4.006-5.154s-1.957-5.154-4.006-5.154S50.536,68.9,50.536,72.582Z" transform="translate(14.932 20.147)" fill="#3e3a39"/>
  <path id="パス_114" data-name="パス 114" d="M60.97,66.33l7.047,10.022V66.33h1.553V78.662H68.016L60.97,68.64V78.662H59.43V66.33Z" transform="translate(18.122 20.226)" fill="#3e3a39"/>
  <path id="パス_115" data-name="パス 115" d="M70.677,66.33l3.68,6.016,3.667-6.016h1.827l-4.724,7.5v4.841H73.574V73.833l-4.724-7.5h1.827Z" transform="translate(20.994 20.226)" fill="#3e3a39"/>
  <path id="パス_116" data-name="パス 116" d="M87.72,77.4v1.344h-9.2c.1-2.519,1.514-3.6,3.8-5.128,3.067-2.088,3.758-2.532,3.758-3.98,0-1.618-1.422-2.205-2.74-2.205-2.9,0-3.014,2.532-3.067,3.393H78.69c.078-3.04,1.814-4.763,4.685-4.763,2.44,0,4.267,1.318,4.267,3.628,0,1.592-.692,2.636-3.236,4.241-2.884,1.814-3.445,2.44-3.823,3.458H87.72Z" transform="translate(23.943 20.144)" fill="#3e3a39"/>
  <path id="パス_117" data-name="パス 117" d="M92.441,78.665H90.9V69.817H88.37V68.643A2.566,2.566,0,0,0,91.2,66.32h1.24V78.652Z" transform="translate(26.947 20.223)" fill="#3e3a39"/>
  <path id="パス_118" data-name="パス 118" d="M97.156,74.693c.065.953.261,3.04,2.936,3.04,2.271,0,3.067-1.266,3.067-2.532a2.412,2.412,0,0,0-2.7-2.414H99.231V71.6h1.07c1.723,0,2.649-.887,2.649-2.114,0-1.318-1.109-2.049-2.61-2.049A2.559,2.559,0,0,0,97.482,70.1H95.89c.078-.783.4-4.019,4.541-4.019,2.375,0,4.084,1.266,4.084,3.262a2.709,2.709,0,0,1-2.205,2.766,2.974,2.974,0,0,1,2.44,3.054c0,1.67-.926,3.941-4.5,3.941-1.462,0-4.411-.222-4.659-4.4h1.592Z" transform="translate(29.148 20.15)" fill="#3e3a39"/>
  <path id="パス_119" data-name="パス 119" d="M105.811,75.619a2.316,2.316,0,0,0,2.492,2.114c3.08,0,3.315-3.262,3.445-4.92a4.152,4.152,0,0,1-3.51,1.488,3.916,3.916,0,0,1-4.228-4.032,4.123,4.123,0,0,1,4.476-4.189c4.463,0,4.841,4.489,4.841,6.264,0,3.236-1.227,6.76-5,6.76a4.008,4.008,0,0,1-4.163-3.471h1.644Zm-.235-5.324a2.6,2.6,0,0,0,2.858,2.806c2.258,0,3.145-1.462,3.145-2.753a2.914,2.914,0,0,0-3.132-2.91,2.723,2.723,0,0,0-2.884,2.858Z" transform="translate(31.716 20.15)" fill="#3e3a39"/>
  <path id="パス_120" data-name="パス 120" d="M29.8,85.333v1.344H23.573v4.189h5.35V92.21h-5.35v5.442H22.02V85.32H29.8Z" transform="translate(6.715 26.017)" fill="#3e3a39"/>
  <path id="パス_121" data-name="パス 121" d="M40.611,91.582c0,3.745-2.205,6.512-5.572,6.512s-5.559-2.74-5.559-6.512c0-3.536,2.023-6.512,5.559-6.512S40.611,88.11,40.611,91.582Zm-9.565,0c0,3.562,1.944,5.154,3.993,5.154,1.892,0,4.006-1.4,4.006-5.154s-1.957-5.154-4.006-5.154S31.046,87.9,31.046,91.582Z" transform="translate(8.989 25.94)" fill="#3e3a39"/>
  <path id="パス_122" data-name="パス 122" d="M45.81,85.33c3.223,0,3.836,2.023,3.836,3.275a3.1,3.1,0,0,1-2.375,3.21,2.473,2.473,0,0,1,2.1,2.649v.913c0,1.579.365,1.879.626,2.114v.183H48.211a3.529,3.529,0,0,1-.378-2.023V94.608c0-1.1-.548-2.179-2.505-2.179H41.543v5.246H39.99V85.343h5.82Zm-4.267,1.344v4.4h4.137a2.234,2.234,0,0,0,2.414-2.284c0-1.122-.652-2.114-2.519-2.114H41.556Z" transform="translate(12.194 26.02)" fill="#3e3a39"/>
  <path id="パス_123" data-name="パス 123" d="M57.939,85.33v1.344H50.867v3.98h6.211V92H50.867v4.319h7.216v1.344H49.34V85.33h8.613Z" transform="translate(15.045 26.02)" fill="#3e3a39"/>
  <path id="パス_124" data-name="パス 124" d="M58.831,85.33l3.876,10.7,3.863-10.7H68.2L63.581,97.662H61.819L57.2,85.33Z" transform="translate(17.442 26.02)" fill="#3e3a39"/>
  <path id="パス_125" data-name="パス 125" d="M75.869,85.33v1.344H68.8v3.98h6.211V92H68.8v4.319h7.216v1.344H67.27V85.33h8.613Z" transform="translate(20.513 26.02)" fill="#3e3a39"/>
  <path id="パス_126" data-name="パス 126" d="M81.66,85.33c3.223,0,3.836,2.023,3.836,3.275a3.1,3.1,0,0,1-2.375,3.21,2.473,2.473,0,0,1,2.1,2.649v.913c0,1.579.365,1.879.626,2.114v.183H84.061a3.529,3.529,0,0,1-.378-2.023V94.608c0-1.1-.548-2.179-2.505-2.179H77.393v5.246H75.84V85.343h5.82Zm-4.267,1.344v4.4h4.137a2.234,2.234,0,0,0,2.414-2.284c0-1.122-.652-2.114-2.519-2.114H77.406Z" transform="translate(23.126 26.02)" fill="#3e3a39"/>
  <path id="パス_127" data-name="パス 127" d="M94.01,96.4v1.344h-9.2c.1-2.519,1.514-3.6,3.8-5.128,3.067-2.088,3.758-2.532,3.758-3.98,0-1.618-1.422-2.205-2.74-2.205-2.9,0-3.014,2.532-3.067,3.393H84.98c.078-3.04,1.814-4.763,4.685-4.763,2.44,0,4.267,1.318,4.267,3.628,0,1.592-.692,2.636-3.236,4.241-2.884,1.814-3.445,2.44-3.823,3.458H94.01Z" transform="translate(25.861 25.937)" fill="#3e3a39"/>
  <path id="パス_128" data-name="パス 128" d="M98.721,97.665h-1.54V88.817H94.65V87.643a2.566,2.566,0,0,0,2.832-2.323h1.24V97.652Z" transform="translate(28.862 26.017)" fill="#3e3a39"/>
  <path id="パス_129" data-name="パス 129" d="M23.54,104.33v5.181h7.047V104.33h1.553v12.332H30.586v-5.82H23.54v5.82H22V104.33Z" transform="translate(6.708 31.813)" fill="#3e3a39"/>
  <path id="パス_130" data-name="パス 130" d="M42.8,110.8a9.5,9.5,0,0,1-1.879,3.51l2.284,2.44H41.25l-1.357-1.488a6.474,6.474,0,0,1-4.372,1.827c-2.153,0-3.771-1.227-3.771-3.458,0-2.532,1.814-3.354,3.093-3.915-1.07-1.122-1.592-1.7-1.592-2.832,0-1.775,1.475-2.819,3.328-2.819,2.519,0,3.406,1.592,3.406,2.871,0,1.879-1.5,2.623-2.988,3.158l3.04,3.315A7.492,7.492,0,0,0,41.3,110.8H42.79Zm-7.06-.222c-1.383.561-2.505,1.357-2.505,2.975a2.167,2.167,0,0,0,2.479,2.231,5.234,5.234,0,0,0,3.38-1.422Zm2.91-3.758a1.862,1.862,0,0,0-2.023-1.7,1.9,1.9,0,0,0-2.088,1.723c0,.809,1.031,1.827,1.579,2.362,1.2-.483,2.519-1.083,2.519-2.4Z" transform="translate(9.682 31.734)" fill="#3e3a39"/>
  <path id="パス_131" data-name="パス 131" d="M44.289,104.33l3.393,10.492,3.393-10.492h2.153v12.332h-1.54V106.144l-3.406,10.518H47.056l-3.393-10.518v10.518H42.11V104.33h2.166Z" transform="translate(12.841 31.813)" fill="#3e3a39"/>
  <path id="パス_132" data-name="パス 132" d="M23.573,123.33v10.988H29.8v1.344H22.02V123.33h1.553Z" transform="translate(6.715 37.607)" fill="#3e3a39"/>
  <path id="パス_133" data-name="パス 133" d="M35.652,123.33l4.554,12.332H38.589l-1-2.78H31.8l-.992,2.78H29.18l4.554-12.332h1.892Zm-.94,1.462-2.44,6.838h4.88Z" transform="translate(8.898 37.607)" fill="#3e3a39"/>
  <path id="パス_134" data-name="パス 134" d="M40.813,123.333v5.755l6.694-5.755h2.205L44.232,128.1l5.807,7.569H48l-4.946-6.577L40.8,130.915v4.737H39.26V123.32H40.8Z" transform="translate(11.972 37.604)" fill="#3e3a39"/>
  <path id="パス_135" data-name="パス 135" d="M60.1,129.582c0,3.745-2.205,6.512-5.572,6.512s-5.559-2.74-5.559-6.512c0-3.536,2.023-6.512,5.559-6.512s5.572,3.04,5.572,6.512Zm-9.565,0c0,3.562,1.944,5.154,3.993,5.154,1.892,0,4.006-1.4,4.006-5.154s-1.957-5.154-4.006-5.154S50.536,125.9,50.536,129.582Z" transform="translate(14.932 37.528)" fill="#3e3a39"/>
  <path id="パス_136" data-name="パス 136" d="M61,123.33v10.988h6.225v1.344H59.45V123.33Z" transform="translate(18.128 37.607)" fill="#3e3a39"/>
  <path id="パス_137" data-name="パス 137" d="M75.879,123.33v1.344H68.807v3.98h6.211V130H68.807v4.319h7.216v1.344H67.28V123.33h8.613Z" transform="translate(20.516 37.607)" fill="#3e3a39"/>
  <path id="パス_138" data-name="パス 138" d="M31.182,142.33v1.344h-4.15v10.988H25.48V143.674H21.33V142.33h9.839Z" transform="translate(6.504 43.401)" fill="#3e3a39"/>
  <path id="パス_139" data-name="パス 139" d="M30.6,147.563c.065-2.036,1.827-2.923,3.758-2.923,1.253,0,3.68.457,3.68,2.975v4.841a2.067,2.067,0,0,0,.391,1.318v.209h-1.54a2.3,2.3,0,0,1-.261-1.109,4.461,4.461,0,0,1-3.3,1.462c-1.422,0-3.236-.7-3.236-2.766s1.853-2.427,4.854-2.91c1.109-.17,1.709-.261,1.709-1.161,0-.365-.222-1.644-2.284-1.644-1.3,0-2.271.5-2.349,1.736H30.612Zm6.029,1.736a4.358,4.358,0,0,1-1.8.457c-2.636.391-3.249.718-3.249,1.749,0,.652.457,1.592,1.97,1.592,1.827,0,3.08-1.331,3.08-2.14Z" transform="translate(9.175 44.105)" fill="#3e3a39"/>
  <path id="パス_140" data-name="パス 140" d="M39.629,144.966V146a2.835,2.835,0,0,1,2.519-1.357,2.32,2.32,0,0,1,2.284,1.579,2.741,2.741,0,0,1,2.6-1.579,2.513,2.513,0,0,1,2.61,2.753v6.577H48.216v-6.3c0-.809-.261-1.827-1.54-1.827-1.866,0-2.049,1.905-2.049,2.375v5.755H43.218v-6.3c0-.313-.078-1.827-1.54-1.827a2.148,2.148,0,0,0-2.049,2.258v5.885H38.22v-9h1.4Z" transform="translate(11.654 44.105)" fill="#3e3a39"/>
  <path id="パス_141" data-name="パス 141" d="M49.2,147.563c.065-2.036,1.827-2.923,3.758-2.923,1.253,0,3.68.457,3.68,2.975v4.841a2.067,2.067,0,0,0,.391,1.318v.209h-1.54a2.3,2.3,0,0,1-.261-1.109,4.461,4.461,0,0,1-3.3,1.462c-1.422,0-3.236-.7-3.236-2.766s1.853-2.427,4.854-2.91c1.109-.17,1.709-.261,1.709-1.161,0-.365-.222-1.644-2.284-1.644-1.3,0-2.271.5-2.349,1.736H49.212Zm6.029,1.736a4.358,4.358,0,0,1-1.8.457c-2.636.391-3.249.718-3.249,1.749,0,.652.457,1.592,1.97,1.592,1.827,0,3.08-1.331,3.08-2.14Z" transform="translate(14.847 44.105)" fill="#3e3a39"/>
  <path id="パス_142" data-name="パス 142" d="M57.927,144.89l2.845,6.655,2.936-6.655h1.644l-4.45,9.526a2.815,2.815,0,0,1-2.793,1.566,2.749,2.749,0,0,1-.8-.065v-1.161h.692c.561,0,1.409-.013,1.931-1.749L56.27,144.89h1.644Z" transform="translate(17.158 44.181)" fill="#3e3a39"/>
  <path id="パス_143" data-name="パス 143" d="M66.165,144.89v5.872a2.148,2.148,0,0,0,2.192,2.271,2.537,2.537,0,0,0,2.466-2.584V144.89h1.409v9h-1.4v-1.318a3.416,3.416,0,0,1-2.884,1.657,3.183,3.183,0,0,1-3.223-3.38V144.89h1.422Z" transform="translate(19.738 44.181)" fill="#3e3a39"/>
  <path id="パス_144" data-name="パス 144" d="M74.019,144.966v1.24c.287-.457.926-1.566,3.236-1.566h.639v1.422h-.7a4.117,4.117,0,0,0-1.957.4,2.6,2.6,0,0,0-1.2,2.166v5.337H72.61v-9h1.409Z" transform="translate(22.141 44.105)" fill="#3e3a39"/>
  <path id="パス_145" data-name="パス 145" d="M78.409,147.563c.065-2.036,1.827-2.923,3.758-2.923,1.253,0,3.68.457,3.68,2.975v4.841a2.067,2.067,0,0,0,.391,1.318v.209H84.7a2.3,2.3,0,0,1-.261-1.109,4.461,4.461,0,0,1-3.3,1.462c-1.422,0-3.236-.7-3.236-2.766s1.853-2.427,4.854-2.91c1.109-.17,1.709-.261,1.709-1.161,0-.365-.222-1.644-2.284-1.644-1.3,0-2.271.5-2.349,1.736H78.422Zm6.029,1.736a4.358,4.358,0,0,1-1.8.457c-2.636.391-3.249.718-3.249,1.749,0,.652.457,1.592,1.97,1.592,1.827,0,3.08-1.331,3.08-2.14V149.3Z" transform="translate(23.754 44.105)" fill="#3e3a39"/>
  <path id="パス_146" data-name="パス 146" d="M96.272,142.33l4.554,12.332H99.209l-1-2.78H92.423l-.992,2.78H89.8l4.554-12.332h1.892Zm-.94,1.462-2.44,6.838h4.88l-2.44-6.838Z" transform="translate(27.383 43.401)" fill="#3e3a39"/>
  <path id="パス_147" data-name="パス 147" d="M102.16,142.973v2.505h1.957v1.148H102.16V152.6c0,.913.7.966,1.488.966h.47V154.8c-.17.013-.365.026-.718.026-.926,0-2.662,0-2.662-2.192v-6.016H99.25v-1.148h1.488V142.96h1.422Z" transform="translate(30.264 43.593)" fill="#3e3a39"/>
  <path id="パス_148" data-name="パス 148" d="M105.952,142.33v4.646a3.309,3.309,0,0,1,2.845-1.644,3.171,3.171,0,0,1,3.223,3.367v5.964h-1.409v-5.872a2.151,2.151,0,0,0-2.205-2.271,2.526,2.526,0,0,0-2.453,2.584v5.559H104.53V142.33Z" transform="translate(31.874 43.401)" fill="#3e3a39"/>
  <path id="パス_149" data-name="パス 149" d="M113.922,142.33v12.332H112.5V142.33Z" transform="translate(34.305 43.401)" fill="#3e3a39"/>
  <path id="パス_150" data-name="パス 150" d="M123.736,151.178a3.666,3.666,0,0,1-3.993,3.132c-3.9,0-4.293-3.536-4.293-4.854,0-2.662,1.331-4.815,4.163-4.815s4.228,2.166,4.241,5.168h-6.929c.091,1.957.809,3.3,2.806,3.3a2.294,2.294,0,0,0,2.505-1.931h1.5Zm-1.357-2.505c-.261-1.788-1.122-2.845-2.727-2.845s-2.453,1.07-2.688,2.845h5.415Z" transform="translate(35.204 44.105)" fill="#3e3a39"/>
  <path id="パス_151" data-name="パス 151" d="M21.77,172.368V171.1h7.686l1.331-7.516H24.054V162.32h8.43L30.918,171.1h4.215v1.266H21.77Z" transform="translate(6.638 49.496)" fill="#3e3a39"/>
  <path id="パス_152" data-name="パス 152" d="M33.82,172.032v-1.318h13.4v1.318Zm1.931-8.117v-1.3h9.526v1.3Z" transform="translate(10.313 49.585)" fill="#3e3a39"/>
  <path id="パス_153" data-name="パス 153" d="M57.354,164.811c-1.488,3.51-3.367,7.96-9.108,10.27a5.526,5.526,0,0,0-1.031-1.018c2.727-1.1,6.564-3.08,8.586-9.448H50.607a21.224,21.224,0,0,1-3.993,4.489,10.633,10.633,0,0,0-1.044-.966A16.683,16.683,0,0,0,51,160.87l1.318.561s.222.091.222.222c0,.17-.261.222-.378.222-.391.783-.574,1.109-.8,1.488h4.685a2.4,2.4,0,0,0,1.031-.235l.783.731a5.656,5.656,0,0,0-.5.953Z" transform="translate(13.896 49.054)" fill="#3e3a39"/>
  <path id="パス_154" data-name="パス 154" d="M58.729,172.216v.835H57.32V162.39H68.308v10.661H66.9v-.835H58.729ZM66.9,170.95v-7.295H58.729v7.295Z" transform="translate(17.479 49.517)" fill="#3e3a39"/>
  <path id="パス_155" data-name="パス 155" d="M27.064,182.25a24.3,24.3,0,0,1-2.179,6.773,13.471,13.471,0,0,1-2.336,3.393,7.26,7.26,0,0,0-1.279-.7c2.923-3,4.032-6.981,4.45-10.257l1.383.313c.209.052.3.091.3.222,0,.091-.065.209-.326.248Zm7.621,9.891A23.691,23.691,0,0,0,30.026,182l1.083-.8a25.158,25.158,0,0,1,4.933,10.178,6.359,6.359,0,0,0-1.344.77Zm-.339-9.213a1.409,1.409,0,1,1,0-2.819,1.409,1.409,0,1,1,0,2.819Zm0-2.205a.8.8,0,0,0-.8.8.791.791,0,0,0,.8.8.808.808,0,0,0,.8-.8A.791.791,0,0,0,34.345,180.723Z" transform="translate(6.486 54.921)" fill="#3e3a39"/>
  <path id="パス_156" data-name="パス 156" d="M37.926,186.874a17.74,17.74,0,0,0-4.006-2.179l.783-1.109a21.287,21.287,0,0,1,4.071,2.114,4.794,4.794,0,0,0-.848,1.174Zm-1.879,6.446c-.013.157-.052.378-.248.378-.1,0-.183-.131-.248-.248l-.639-1.227a22.223,22.223,0,0,0,11.523-8.847,7.777,7.777,0,0,0,.913,1.122,24.461,24.461,0,0,1-11.288,8.808Zm3.745-10.113a16.122,16.122,0,0,0-4.215-2.153l.783-1.044a19.312,19.312,0,0,1,4.254,2.049,6.1,6.1,0,0,0-.835,1.161Z" transform="translate(10.343 54.89)" fill="#3e3a39"/>
  <path id="パス_157" data-name="パス 157" d="M54.725,184.644v7.112c0,.953-.026,2.179-3.667,1.957a5.521,5.521,0,0,0-.535-1.488,9.514,9.514,0,0,0,1.723.17c1.083,0,1.083-.326,1.083-1.644V185.91a16.962,16.962,0,0,1-6.981,5.951,3.355,3.355,0,0,0-.887-1.122,15.129,15.129,0,0,0,7.19-6.094h-6.8v-1.279h7.477V179.92l1.4.1c.209.013.313.026.313.17s-.17.222-.313.287v2.884H58.47v1.279H54.725Z" transform="translate(13.862 54.863)" fill="#3e3a39"/>
  <path id="パス_158" data-name="パス 158" d="M69.58,192.836a20.714,20.714,0,0,0-4.92-5.089,17.429,17.429,0,0,1-6.746,5.285,3.182,3.182,0,0,0-.874-1.2,14.82,14.82,0,0,0,9.017-9.748H58.41V180.8h7.869a5.04,5.04,0,0,0,1.07-.1l.77.718a5.036,5.036,0,0,0-.574,1.031,23.644,23.644,0,0,1-2.166,4.293,27.111,27.111,0,0,1,5.311,5,7.341,7.341,0,0,0-1.1,1.109Z" transform="translate(17.393 55.101)" fill="#3e3a39"/>
  <path id="パス_159" data-name="パス 159" d="M166.216,53.108H163.7V52h2.518V49.571a21.371,21.371,0,0,1-1.592,1.462,3.988,3.988,0,0,0-1.174-.692,11.5,11.5,0,0,0,3.432-3.771l1.227.444c.078.026.261.091.261.248,0,.209-.222.209-.483.222a6.839,6.839,0,0,1-.548.809h10.035v1.148H175.6v2.571h2.44v1.109H175.6v2.688h1.944v1.1H164.285v-1.1h1.944V53.121Zm1.044,4.646c.13.065.287.13.287.287,0,.209-.326.183-.457.183a15.184,15.184,0,0,1-2.218,2.988,3.468,3.468,0,0,0-1.148-.77,10.016,10.016,0,0,0,2.466-3.2l1.07.5Zm.1-5.755h1.579V49.428h-1.579Zm0,3.8h1.579V53.108h-1.579Zm1.892,1.788a18.008,18.008,0,0,1,1.018,3.275,7.864,7.864,0,0,0-1.331.3,17.971,17.971,0,0,0-.848-3.3l1.161-.261Zm.835-8.156V52h1.592V49.428Zm0,3.68V55.8h1.592V53.108Zm2.492,4.345a16.3,16.3,0,0,1,1.227,3.119,7.741,7.741,0,0,0-1.253.418,19.684,19.684,0,0,0-1.161-3.2Zm.261-8.025V52h1.579V49.428Zm0,3.68V55.8h1.579V53.108Zm2.519,4.137A15.145,15.145,0,0,1,177.9,60.4a6.59,6.59,0,0,0-1.148.731,17.083,17.083,0,0,0-2.388-3.223l1-.679Z" transform="translate(49.841 14.201)" fill="#3e3a39"/>
  <path id="パス_160" data-name="パス 160" d="M182.547,47.8a1.784,1.784,0,0,1-.378-.065,16.322,16.322,0,0,1-4.424,1.566v2.975h4.685v1.24h-4.685v3.915h4.685v1.2h-4.685V60.7h-1.3V47.844l1.253.287a11.876,11.876,0,0,0,4.071-1.631l.861.861c.131.13.157.17.157.248,0,.1-.052.183-.235.183Zm3.771,11.457a3.7,3.7,0,0,0-.483-1.5,6.048,6.048,0,0,0,1.109.1c.77,0,1.122-.078,1.122-.8V48.849h-3.38V61.154h-1.318V47.635H189.4v9.709c0,1.514-.718,2.01-3.08,1.918Z" transform="translate(53.802 14.179)" fill="#3e3a39"/>
  <path id="パス_161" data-name="パス 161" d="M191.49,54.67v4.306c1.892-.548,2.114-.613,3.915-1.227a5.235,5.235,0,0,0-.209,1.266c-1.814.7-4.619,1.488-5.833,1.8-.052.209-.091.4-.313.4-.091,0-.183-.065-.261-.326l-.378-1.174c.874-.17,1.318-.287,1.775-.4V48.537h4.228V46.71l1.383.052c.144,0,.378.013.378.235,0,.157-.078.183-.378.287V48.55h4.176v5.859l.927.679c.144.1.183.17.183.248,0,.13-.078.209-.261.209a1.339,1.339,0,0,1-.261-.026,19.09,19.09,0,0,1-2.505,2.453,11.575,11.575,0,0,0,4.385,2.023,3.839,3.839,0,0,0-.874,1.148c-3.275-1.122-6.094-2.975-7.595-6.433h-2.453Zm0-3.667h7.177v-1.4H191.49Zm7.177,1.031H191.49v1.527h7.177ZM195.3,54.657a8.764,8.764,0,0,0,1.814,2.492,17.781,17.781,0,0,0,2.388-2.492h-4.215Z" transform="translate(57.452 14.243)" fill="#3e3a39"/>
  <path id="パス_162" data-name="パス 162" d="M202.065,59.96v1h-1.3v-6.89h5.794v6.564h-1.279V59.96Zm3.21-1.122V55.249h-3.21v3.589Zm6.042-11.757v5.65h-7.79V47.08Zm-6.486,1.161V51.6H210V48.241ZM209.32,59.96v1h-1.279v-6.89h5.99v6.89h-1.266v-1Zm3.445-1.122V55.249H209.32v3.589Z" transform="translate(61.218 14.356)" fill="#3e3a39"/>
  <path id="パス_163" data-name="パス 163" d="M164.239,71.563c.065-2.036,1.827-2.923,3.758-2.923,1.253,0,3.68.457,3.68,2.975v4.841a2.067,2.067,0,0,0,.391,1.318v.209h-1.54a2.3,2.3,0,0,1-.261-1.109,4.461,4.461,0,0,1-3.3,1.462c-1.422,0-3.236-.7-3.236-2.766s1.853-2.427,4.854-2.91c1.109-.17,1.709-.261,1.709-1.161,0-.365-.222-1.644-2.284-1.644-1.3,0-2.271.5-2.349,1.736h-1.409Zm6.029,1.736a4.358,4.358,0,0,1-1.8.457c-2.636.391-3.249.718-3.249,1.749,0,.652.457,1.592,1.97,1.592,1.827,0,3.08-1.331,3.08-2.14Z" transform="translate(49.926 20.93)" fill="#3e3a39"/>
  <path id="パス_164" data-name="パス 164" d="M173.581,76.186H171.95V74.45h1.631Z" transform="translate(52.433 22.702)" fill="#3e3a39"/>
  <path id="パス_165" data-name="パス 165" d="M182.927,66.33V78.662h-1.4v-1.2a3.186,3.186,0,0,1-2.832,1.553c-2.062,0-3.719-1.709-3.719-4.815,0-3.458,1.944-4.854,3.758-4.854a3.028,3.028,0,0,1,2.78,1.54V66.343h1.409Zm-6.459,7.843c0,3.262,1.788,3.628,2.519,3.628.692,0,2.532-.326,2.532-3.628s-1.709-3.641-2.532-3.641C178.36,70.532,176.468,70.819,176.468,74.173Z" transform="translate(53.357 20.226)" fill="#3e3a39"/>
  <path id="パス_166" data-name="パス 166" d="M191.116,75.178a3.666,3.666,0,0,1-3.993,3.132c-3.9,0-4.293-3.536-4.293-4.854,0-2.662,1.331-4.815,4.163-4.815s4.228,2.166,4.241,5.168H184.3c.091,1.957.809,3.3,2.806,3.3a2.294,2.294,0,0,0,2.505-1.931h1.5Zm-1.357-2.505c-.261-1.788-1.122-2.845-2.727-2.845s-2.453,1.07-2.688,2.845Z" transform="translate(55.75 20.93)" fill="#3e3a39"/>
  <path id="パス_167" data-name="パス 167" d="M192.436,68.969l.026,1.2a3.113,3.113,0,0,1,2.806-1.54c2.088,0,3.719,1.709,3.719,4.815,0,3.445-1.931,4.854-3.758,4.854a3.034,3.034,0,0,1-2.766-1.527v3.288H191.04V68.969h1.4Zm.026,4.5c0,3.21,1.736,3.628,2.519,3.628.574,0,2.519-.235,2.519-3.628s-1.736-3.641-2.519-3.641C194.355,69.831,192.462,70.092,192.462,73.471Z" transform="translate(58.254 20.927)" fill="#3e3a39"/>
  <path id="パス_168" data-name="パス 168" d="M206.836,75.178a3.666,3.666,0,0,1-3.993,3.132c-3.9,0-4.293-3.536-4.293-4.854,0-2.662,1.331-4.815,4.163-4.815s4.228,2.166,4.241,5.168h-6.929c.091,1.957.809,3.3,2.806,3.3a2.294,2.294,0,0,0,2.505-1.931h1.5Zm-1.357-2.505c-.261-1.788-1.122-2.845-2.727-2.845s-2.453,1.07-2.688,2.845Z" transform="translate(60.544 20.93)" fill="#3e3a39"/>
  <path id="パス_169" data-name="パス 169" d="M214.824,74.643c-.157,2.753-2.218,3.667-4.1,3.667-3.21,0-4.306-2.519-4.306-4.776s1.018-4.893,4.372-4.893a3.62,3.62,0,0,1,3.954,3.6h-1.5a2.291,2.291,0,0,0-2.532-2.414c-2.284,0-2.806,1.892-2.806,3.589,0,2.205.783,3.693,2.858,3.693a2.28,2.28,0,0,0,2.505-2.453h1.553Z" transform="translate(62.944 20.93)" fill="#3e3a39"/>
  <path id="パス_170" data-name="パス 170" d="M216.052,66.33v4.646a3.309,3.309,0,0,1,2.845-1.644A3.171,3.171,0,0,1,222.12,72.7v5.964h-1.409V72.789a2.151,2.151,0,0,0-2.205-2.271,2.526,2.526,0,0,0-2.453,2.584v5.559H214.63V66.33h1.422Z" transform="translate(65.447 20.226)" fill="#3e3a39"/>
  <path id="パス_171" data-name="パス 171" d="M230.416,75.178a3.666,3.666,0,0,1-3.993,3.132c-3.9,0-4.293-3.536-4.293-4.854,0-2.662,1.331-4.815,4.163-4.815s4.228,2.166,4.241,5.168H223.6c.091,1.957.809,3.3,2.806,3.3a2.294,2.294,0,0,0,2.505-1.931h1.5Zm-1.357-2.505c-.261-1.788-1.122-2.845-2.727-2.845s-2.453,1.07-2.688,2.845Z" transform="translate(67.734 20.93)" fill="#3e3a39"/>
  <path id="パス_172" data-name="パス 172" d="M172.62,93.8c0,.757-.17,4.215-4.45,4.215-3.171,0-4.45-1.749-4.45-4.554v-.731h1.54v.613c0,1.018,0,3.315,2.727,3.315a2.738,2.738,0,0,0,3.08-2.9V85.34h1.553v8.469Z" transform="translate(49.923 26.023)" fill="#3e3a39"/>
  <path id="パス_173" data-name="パス 173" d="M174.183,97.662H172.63V85.33h1.553Z" transform="translate(52.64 26.02)" fill="#3e3a39"/>
  <path id="パス_174" data-name="パス 174" d="M177.63,85.33l7.047,10.022V85.33h1.553V97.662h-1.553L177.63,87.64V97.662h-1.54V85.33Z" transform="translate(53.695 26.02)" fill="#3e3a39"/>
  <path id="パス_175" data-name="パス 175" d="M193.025,88.9c-.091-1.749-1.018-2.453-2.688-2.453-.313,0-2.623,0-2.623,1.918,0,1.279.861,1.618,3.3,2.519,2.505.94,3.928,1.462,3.928,3.549,0,1.566-1.122,3.667-4.385,3.667-2.218,0-4.711-1.031-4.789-4.058h1.644c.013,1.775,1.227,2.688,3.04,2.688s2.923-.992,2.923-2.166c0-1.279-1.031-1.67-3-2.362-2.7-.953-4.228-1.5-4.228-3.667s1.749-3.471,4.176-3.471c2.036,0,4.006.8,4.306,3.823h-1.592Z" transform="translate(56.647 25.937)" fill="#3e3a39"/>
  <path id="パス_176" data-name="パス 176" d="M169.942,104.33l4.554,12.332h-1.618l-1-2.779h-5.781l-.992,2.779H163.47l4.554-12.332h1.892Zm-.94,1.462-2.44,6.838h4.88L169,105.792Z" transform="translate(49.847 31.813)" fill="#3e3a39"/>
  <path id="パス_177" data-name="パス 177" d="M174.524,104.33l2.205,10.857,2.192-10.857h1.892l2.192,10.857,2.205-10.857h1.631l-2.806,12.332h-2.01l-2.179-10.7-2.179,10.7h-2.01l-2.78-12.332h1.631Z" transform="translate(52.716 31.813)" fill="#3e3a39"/>
  <path id="パス_178" data-name="パス 178" d="M193.779,104.33v1.344h-7.073v3.98h6.211V111h-6.211v4.319h7.216v1.344H185.18V104.33h8.613Z" transform="translate(56.467 31.813)" fill="#3e3a39"/>
  <path id="パス_179" data-name="パス 179" d="M200.575,107.9c-.091-1.749-1.018-2.453-2.688-2.453-.313,0-2.623,0-2.623,1.918,0,1.279.861,1.618,3.3,2.519,2.505.94,3.928,1.462,3.928,3.549,0,1.566-1.122,3.667-4.385,3.667-2.218,0-4.711-1.031-4.789-4.058h1.644c.013,1.775,1.227,2.688,3.04,2.688s2.923-.992,2.923-2.166c0-1.279-1.031-1.67-3-2.362-2.7-.953-4.228-1.5-4.228-3.667s1.749-3.471,4.176-3.471c2.036,0,4.006.8,4.306,3.823h-1.592Z" transform="translate(58.949 31.731)" fill="#3e3a39"/>
  <path id="パス_180" data-name="パス 180" d="M212.981,110.582c0,3.745-2.205,6.512-5.572,6.512s-5.559-2.74-5.559-6.512c0-3.536,2.023-6.512,5.559-6.512S212.981,107.11,212.981,110.582Zm-9.565,0c0,3.562,1.944,5.154,3.993,5.154,1.892,0,4.006-1.4,4.006-5.154s-1.957-5.154-4.006-5.154S203.416,106.9,203.416,110.582Z" transform="translate(61.55 31.734)" fill="#3e3a39"/>
  <path id="パス_181" data-name="パス 181" d="M214.439,104.33l3.393,10.492,3.393-10.492h2.153v12.332h-1.54V106.144l-3.406,10.518h-1.227l-3.393-10.518v10.518H212.26V104.33h2.166Z" transform="translate(64.724 31.813)" fill="#3e3a39"/>
  <path id="パス_182" data-name="パス 182" d="M231.639,104.33v1.344h-7.073v3.98h6.211V111h-6.211v4.319h7.216v1.344H223.04V104.33h8.613Z" transform="translate(68.011 31.813)" fill="#3e3a39"/>
  <path id="パス_183" data-name="パス 183" d="M242.725,107.9c-.091-1.749-1.018-2.453-2.688-2.453-.313,0-2.623,0-2.623,1.918,0,1.279.861,1.618,3.3,2.519,2.505.94,3.928,1.462,3.928,3.549,0,1.566-1.122,3.667-4.385,3.667-2.218,0-4.711-1.031-4.789-4.058h1.644c.013,1.775,1.227,2.688,3.04,2.688s2.923-.992,2.923-2.166c0-1.279-1.031-1.67-3-2.362-2.7-.953-4.228-1.5-4.228-3.667s1.749-3.471,4.176-3.471c2.036,0,4.006.8,4.306,3.823h-1.592Z" transform="translate(71.802 31.731)" fill="#3e3a39"/>
  <path id="パス_184" data-name="パス 184" d="M253.572,104.33v1.344h-4.15v10.988H247.87V105.674h-4.15V104.33h9.839Z" transform="translate(74.317 31.813)" fill="#3e3a39"/>
  <path id="パス_185" data-name="パス 185" d="M263.661,110.582c0,3.745-2.205,6.512-5.572,6.512s-5.559-2.74-5.559-6.512c0-3.536,2.023-6.512,5.559-6.512S263.661,107.11,263.661,110.582Zm-9.565,0c0,3.562,1.944,5.154,3.993,5.154,1.892,0,4.006-1.4,4.006-5.154s-1.957-5.154-4.006-5.154S254.1,106.9,254.1,110.582Z" transform="translate(77.004 31.734)" fill="#3e3a39"/>
  <path id="パス_186" data-name="パス 186" d="M268.85,104.33c3.223,0,3.836,2.023,3.836,3.275a3.1,3.1,0,0,1-2.375,3.21,2.473,2.473,0,0,1,2.1,2.649v.913c0,1.579.365,1.879.626,2.114v.183h-1.788a3.529,3.529,0,0,1-.378-2.023v-1.044c0-1.1-.548-2.179-2.505-2.179h-3.784v5.246H263.03V104.343h5.82Zm-4.267,1.344v4.4h4.137a2.234,2.234,0,0,0,2.414-2.284c0-1.122-.652-2.114-2.518-2.114H264.6Z" transform="translate(80.206 31.813)" fill="#3e3a39"/>
  <path id="パス_187" data-name="パス 187" d="M280.979,104.33v1.344h-7.073v3.98h6.211V111h-6.211v4.319h7.216v1.344H272.38V104.33h8.613Z" transform="translate(83.057 31.813)" fill="#3e3a39"/>
  <path id="パス_188" data-name="パス 188" d="M172.114,131.643c-.157,2.753-2.218,3.667-4.1,3.667-3.21,0-4.306-2.519-4.306-4.776s1.018-4.893,4.372-4.893a3.62,3.62,0,0,1,3.954,3.6h-1.5A2.291,2.291,0,0,0,168,126.827c-2.284,0-2.806,1.892-2.806,3.589,0,2.205.783,3.693,2.858,3.693a2.28,2.28,0,0,0,2.505-2.453h1.553Z" transform="translate(49.92 38.311)" fill="#3e3a39"/>
  <path id="パス_189" data-name="パス 189" d="M179.974,130.471c0,3.628-2.258,4.841-4.189,4.841-2.284,0-4.215-1.553-4.215-4.763,0-4.254,2.819-4.92,4.215-4.92,1.918,0,4.189,1.174,4.189,4.841Zm-6.916,0c0,1.5.7,3.628,2.727,3.628s2.714-2.166,2.714-3.628-.692-3.641-2.714-3.641S173.058,128.971,173.058,130.471Z" transform="translate(52.317 38.308)" fill="#3e3a39"/>
  <path id="パス_190" data-name="パス 190" d="M180.858,132.256a1.97,1.97,0,0,0,2.179,1.853c.3,0,2.271,0,2.271-1.475,0-.953-.535-1.122-2.414-1.683-2.192-.652-3.3-.992-3.3-2.714,0-2.036,2.062-2.6,3.432-2.6,3.236,0,3.484,2.01,3.6,2.832h-1.475c-.052-1.592-1.657-1.644-2.062-1.644-1.318,0-2.01.548-2.01,1.266,0,.77.222,1,2.584,1.723,2.023.626,3.132,1.1,3.132,2.662,0,2.036-1.814,2.832-3.6,2.832-3.367,0-3.706-2.192-3.823-3.054Z" transform="translate(54.695 38.311)" fill="#3e3a39"/>
  <path id="パス_191" data-name="パス 191" d="M188.1,125.966V127a2.835,2.835,0,0,1,2.519-1.357,2.32,2.32,0,0,1,2.284,1.579,2.741,2.741,0,0,1,2.6-1.579,2.513,2.513,0,0,1,2.61,2.753v6.577h-1.422v-6.3c0-.809-.261-1.827-1.54-1.827-1.866,0-2.049,1.905-2.049,2.375v5.755h-1.409v-6.3c0-.313-.078-1.827-1.54-1.827A2.148,2.148,0,0,0,188.1,129.1v5.885H186.69v-9h1.4Z" transform="translate(56.927 38.311)" fill="#3e3a39"/>
  <path id="パス_192" data-name="パス 192" d="M205.426,132.178a3.666,3.666,0,0,1-3.993,3.132c-3.9,0-4.293-3.536-4.293-4.854,0-2.662,1.331-4.815,4.163-4.815s4.228,2.166,4.241,5.168h-6.929c.091,1.957.809,3.3,2.806,3.3a2.294,2.294,0,0,0,2.505-1.931Zm-1.357-2.505c-.261-1.788-1.122-2.845-2.727-2.845s-2.453,1.07-2.688,2.845Z" transform="translate(60.114 38.311)" fill="#3e3a39"/>
  <path id="パス_193" data-name="パス 193" d="M207.72,123.973v2.505h1.957v1.148H207.72V133.6c0,.913.7.966,1.488.966h.47V135.8c-.17.013-.365.026-.718.026-.927,0-2.662,0-2.662-2.192v-6.016H204.81v-1.148H206.3V123.96h1.422Z" transform="translate(62.453 37.799)" fill="#3e3a39"/>
  <path id="パス_194" data-name="パス 194" d="M218.016,132.178a3.666,3.666,0,0,1-3.993,3.132c-3.9,0-4.293-3.536-4.293-4.854,0-2.662,1.331-4.815,4.163-4.815s4.228,2.166,4.241,5.168H211.2c.091,1.957.809,3.3,2.806,3.3a2.294,2.294,0,0,0,2.505-1.931Zm-1.357-2.505c-.261-1.788-1.122-2.845-2.727-2.845s-2.453,1.07-2.688,2.845Z" transform="translate(63.953 38.311)" fill="#3e3a39"/>
  <path id="パス_195" data-name="パス 195" d="M219.369,125.966v1.24c.287-.457.927-1.566,3.236-1.566h.639v1.422h-.7a4.117,4.117,0,0,0-1.957.4,2.6,2.6,0,0,0-1.2,2.166v5.337H217.96v-9h1.409Z" transform="translate(66.462 38.311)" fill="#3e3a39"/>
  <path id="パス_196" data-name="パス 196" d="M225.244,125.089H223.6V123.34h1.644Zm-.1,10.583h-1.422v-9h1.422Z" transform="translate(68.182 37.61)" fill="#3e3a39"/>
  <path id="パス_197" data-name="パス 197" d="M227.159,128.563c.065-2.036,1.827-2.923,3.758-2.923,1.253,0,3.68.457,3.68,2.975v4.841a2.067,2.067,0,0,0,.391,1.318v.209h-1.54a2.3,2.3,0,0,1-.261-1.109,4.461,4.461,0,0,1-3.3,1.462c-1.422,0-3.236-.7-3.236-2.766s1.853-2.427,4.854-2.91c1.109-.17,1.709-.261,1.709-1.161,0-.365-.222-1.644-2.284-1.644-1.3,0-2.271.5-2.349,1.736h-1.409Zm6.029,1.736a4.358,4.358,0,0,1-1.8.457c-2.636.391-3.249.718-3.249,1.749,0,.652.457,1.592,1.97,1.592,1.827,0,3.08-1.331,3.08-2.14V130.3Z" transform="translate(69.112 38.311)" fill="#3e3a39"/>
  <path id="パス_198" data-name="パス 198" d="M172.37,146.686a3.17,3.17,0,0,0-3.223-3.249c-2.532,0-3.758,2.584-3.758,5.272,0,3.471,1.788,5.024,3.745,5.024.887,0,3-.339,3.249-3.432h1.592c-.157.966-.731,4.789-4.776,4.789-3.784,0-5.389-3.119-5.389-6.381s1.579-6.629,5.272-6.629c.522,0,4.189,0,4.8,4.619h-1.54Z" transform="translate(49.95 43.324)" fill="#3e3a39"/>
  <path id="パス_199" data-name="パス 199" d="M184.321,148.582c0,3.745-2.205,6.512-5.572,6.512s-5.559-2.74-5.559-6.512c0-3.536,2.023-6.512,5.559-6.512S184.321,145.11,184.321,148.582Zm-9.565,0c0,3.562,1.944,5.154,3.993,5.154,1.892,0,4.006-1.4,4.006-5.154s-1.957-5.154-4.006-5.154S174.756,144.9,174.756,148.582Z" transform="translate(52.811 43.321)" fill="#3e3a39"/>
  <path id="パス_200" data-name="パス 200" d="M185.213,142.33v10.988h6.225v1.344H183.66V142.33Z" transform="translate(56.003 43.401)" fill="#3e3a39"/>
  <path id="パス_201" data-name="パス 201" d="M202.261,148.582c0,3.745-2.205,6.512-5.572,6.512s-5.559-2.74-5.559-6.512c0-3.536,2.023-6.512,5.559-6.512S202.261,145.11,202.261,148.582Zm-9.565,0c0,3.562,1.944,5.154,3.993,5.154,1.892,0,4.006-1.4,4.006-5.154s-1.957-5.154-4.006-5.154S192.7,144.9,192.7,148.582Z" transform="translate(58.281 43.321)" fill="#3e3a39"/>
  <path id="パス_202" data-name="パス 202" d="M208.445,145.9c-.091-1.749-1.018-2.453-2.688-2.453-.313,0-2.623,0-2.623,1.918,0,1.279.861,1.618,3.3,2.518,2.505.94,3.928,1.462,3.928,3.549,0,1.566-1.122,3.667-4.385,3.667-2.218,0-4.711-1.031-4.789-4.058h1.644c.013,1.775,1.227,2.688,3.04,2.688s2.923-.992,2.923-2.166c0-1.279-1.031-1.67-3-2.362-2.714-.953-4.228-1.5-4.228-3.667s1.749-3.471,4.176-3.471c2.036,0,4.006.8,4.306,3.823h-1.592Z" transform="translate(61.349 43.318)" fill="#3e3a39"/>
  <path id="パス_203" data-name="パス 203" d="M216.965,145.9c-.091-1.749-1.018-2.453-2.688-2.453-.313,0-2.623,0-2.623,1.918,0,1.279.861,1.618,3.3,2.518,2.505.94,3.928,1.462,3.928,3.549,0,1.566-1.122,3.667-4.385,3.667-2.218,0-4.711-1.031-4.789-4.058h1.644c.013,1.775,1.227,2.688,3.04,2.688s2.923-.992,2.923-2.166c0-1.279-1.031-1.67-3-2.362-2.714-.953-4.228-1.5-4.228-3.667s1.749-3.471,4.176-3.471c2.036,0,4.006.8,4.306,3.823h-1.592Z" transform="translate(63.947 43.318)" fill="#3e3a39"/>
  <path id="パス_204" data-name="パス 204" d="M227.209,142.33v1.344h-7.073v3.98h6.211V149h-6.211v4.319h7.216v1.344H218.61V142.33h8.613Z" transform="translate(66.661 43.401)" fill="#3e3a39"/>
  <path id="パス_205" data-name="パス 205" d="M237.891,148.582c0,3.745-2.205,6.512-5.572,6.512s-5.559-2.74-5.559-6.512c0-3.536,2.023-6.512,5.559-6.512S237.891,145.11,237.891,148.582Zm-9.565,0c0,3.562,1.944,5.154,3.993,5.154,1.892,0,4.006-1.4,4.006-5.154s-1.957-5.154-4.006-5.154S228.326,144.9,228.326,148.582Z" transform="translate(69.146 43.321)" fill="#3e3a39"/>
  <path id="パス_206" data-name="パス 206" d="M247.093,142.33c3.119,0,4.137,2.088,4.137,3.823,0,2.688-1.736,3.784-4.137,3.784h-3.98v4.724H241.56V142.33h5.52Zm-3.98,1.344v4.933h3.85a2.42,2.42,0,0,0,2.662-2.44,2.459,2.459,0,0,0-2.662-2.492Z" transform="translate(73.659 43.401)" fill="#3e3a39"/>
  <path id="パス_207" data-name="パス 207" d="M252.494,144.089H250.85V142.34h1.644Zm-.1,10.583h-1.422v-9h1.422Z" transform="translate(76.492 43.404)" fill="#3e3a39"/>
  <path id="パス_208" data-name="パス 208" d="M261.191,144.89v1.148l-5.572,6.733h5.742v1.122H253.74v-1.122l5.572-6.733h-5.285V144.89Z" transform="translate(77.373 44.181)" fill="#3e3a39"/>
  <path id="パス_209" data-name="パス 209" d="M268.161,144.89v1.148l-5.572,6.733h5.742v1.122H260.71v-1.122l5.572-6.733H261V144.89Z" transform="translate(79.498 44.181)" fill="#3e3a39"/>
  <path id="パス_210" data-name="パス 210" d="M268.359,147.563c.065-2.036,1.827-2.923,3.758-2.923,1.253,0,3.68.457,3.68,2.975v4.841a2.067,2.067,0,0,0,.391,1.318v.209h-1.54a2.3,2.3,0,0,1-.261-1.109,4.461,4.461,0,0,1-3.3,1.462c-1.422,0-3.236-.7-3.236-2.766s1.853-2.427,4.854-2.91c1.109-.17,1.709-.261,1.709-1.161,0-.365-.222-1.644-2.284-1.644-1.3,0-2.271.5-2.349,1.736h-1.409Zm6.029,1.736a4.358,4.358,0,0,1-1.8.457c-2.636.391-3.249.718-3.249,1.749,0,.652.457,1.592,1.97,1.592,1.827,0,3.08-1.331,3.08-2.14Z" transform="translate(81.675 44.105)" fill="#3e3a39"/>
  <path id="パス_211" data-name="パス 211" d="M288.266,151.178a3.666,3.666,0,0,1-3.993,3.132c-3.9,0-4.293-3.536-4.293-4.854,0-2.662,1.331-4.815,4.163-4.815s4.228,2.166,4.241,5.168h-6.929c.091,1.957.809,3.3,2.806,3.3a2.294,2.294,0,0,0,2.505-1.931Zm-1.357-2.505c-.261-1.788-1.122-2.845-2.727-2.845s-2.453,1.07-2.688,2.845Z" transform="translate(85.374 44.105)" fill="#3e3a39"/>
  <path id="パス_212" data-name="パス 212" d="M298.163,142.33c3.119,0,4.137,2.088,4.137,3.823,0,2.688-1.736,3.784-4.137,3.784h-3.98v4.724H292.63V142.33h5.52Zm-3.98,1.344v4.933h3.85a2.42,2.42,0,0,0,2.662-2.44,2.459,2.459,0,0,0-2.662-2.492Z" transform="translate(89.231 43.401)" fill="#3e3a39"/>
  <path id="パス_213" data-name="パス 213" d="M302.079,147.563c.065-2.036,1.827-2.923,3.758-2.923,1.253,0,3.68.457,3.68,2.975v4.841a2.067,2.067,0,0,0,.391,1.318v.209h-1.54a2.3,2.3,0,0,1-.261-1.109,4.461,4.461,0,0,1-3.3,1.462c-1.422,0-3.236-.7-3.236-2.766s1.84-2.427,4.854-2.91c1.109-.17,1.709-.261,1.709-1.161,0-.365-.222-1.644-2.284-1.644-1.3,0-2.271.5-2.349,1.736h-1.409Zm6.029,1.736a4.358,4.358,0,0,1-1.8.457c-2.623.391-3.262.718-3.262,1.749,0,.652.457,1.592,1.97,1.592,1.827,0,3.08-1.331,3.08-2.14V149.3Z" transform="translate(91.958 44.105)" fill="#3e3a39"/>
  <path id="パス_214" data-name="パス 214" d="M310.838,151.256a1.97,1.97,0,0,0,2.179,1.853c.3,0,2.271,0,2.271-1.475,0-.953-.535-1.122-2.414-1.683-2.192-.652-3.3-.992-3.3-2.714,0-2.036,2.062-2.6,3.432-2.6,3.236,0,3.5,2.01,3.6,2.832h-1.475c-.052-1.592-1.657-1.644-2.062-1.644-1.318,0-2.01.548-2.01,1.266,0,.77.222,1,2.584,1.723,2.023.626,3.132,1.1,3.132,2.662,0,2.036-1.814,2.832-3.6,2.832-3.367,0-3.706-2.192-3.823-3.054h1.488Z" transform="translate(94.33 44.105)" fill="#3e3a39"/>
  <path id="パス_215" data-name="パス 215" d="M319.1,142.973v2.505h1.957v1.148H319.1V152.6c0,.913.7.966,1.488.966h.47V154.8c-.17.013-.365.026-.718.026-.927,0-2.662,0-2.662-2.192v-6.016H316.19v-1.148h1.488V142.96H319.1Z" transform="translate(96.416 43.593)" fill="#3e3a39"/>
  <path id="パス_216" data-name="パス 216" d="M321.646,147.563c.065-2.036,1.827-2.923,3.758-2.923,1.253,0,3.68.457,3.68,2.975v4.841a2.067,2.067,0,0,0,.391,1.318v.209h-1.527a2.3,2.3,0,0,1-.261-1.109,4.461,4.461,0,0,1-3.3,1.462c-1.422,0-3.236-.7-3.236-2.766s1.84-2.427,4.854-2.91c1.109-.17,1.709-.261,1.709-1.161,0-.365-.222-1.644-2.284-1.644-1.3,0-2.271.5-2.349,1.736h-1.409Zm6.029,1.736a4.359,4.359,0,0,1-1.8.457c-2.623.391-3.249.718-3.249,1.749,0,.652.457,1.592,1.97,1.592,1.827,0,3.08-1.331,3.08-2.14Z" transform="translate(97.928 44.105)" fill="#3e3a39"/>
  <path id="パス_217" data-name="パス 217" d="M172.425,164.914a1.432,1.432,0,0,0-1.488.3,2.191,2.191,0,0,1,.209.913c0,1.527-1.331,2.466-3.367,2.466a9.9,9.9,0,0,1-1.553-.17c-.183.065-.7.3-.7.652,0,.418.457.548,2.349.718s2.832.287,3.471.77a2.148,2.148,0,0,1,.913,1.8c0,2.727-3.85,2.727-4.4,2.727-1.892,0-4.228-.444-4.228-2.532a2.182,2.182,0,0,1,1.488-2.127c-.418-.183-1.018-.47-1.018-1.122,0-.378.183-.809,1.227-1.24a2.144,2.144,0,0,1-1.1-1.957c0-1.514,1.318-2.44,3.458-2.44a3.97,3.97,0,0,1,2.662.731,1.936,1.936,0,0,1,1.631-.835,1.106,1.106,0,0,1,.457.078v1.266Zm-7.36,7.451c0,1,.835,1.592,2.9,1.592,1.07,0,2.766-.183,2.766-1.527a1.227,1.227,0,0,0-.887-1.227c-.522-.157-2.584-.339-3.249-.4-.7.222-1.514.483-1.514,1.566Zm.652-6.251c0,1.37,1.709,1.409,1.957,1.422.209,0,1.97-.013,1.97-1.422,0-.874-.718-1.409-1.957-1.409C166.357,164.705,165.718,165.279,165.718,166.115Z" transform="translate(49.896 49.877)" fill="#3e3a39"/>
  <path id="パス_218" data-name="パス 218" d="M179.846,170.178a3.666,3.666,0,0,1-3.993,3.132c-3.9,0-4.293-3.536-4.293-4.854,0-2.662,1.331-4.815,4.163-4.815s4.228,2.166,4.241,5.168h-6.929c.091,1.957.809,3.3,2.806,3.3a2.294,2.294,0,0,0,2.505-1.931Zm-1.357-2.505c-.261-1.788-1.122-2.845-2.727-2.845s-2.453,1.07-2.688,2.845Z" transform="translate(52.314 49.899)" fill="#3e3a39"/>
  <path id="パス_219" data-name="パス 219" d="M181.312,161.33v12.332H179.89V161.33Z" transform="translate(54.854 49.194)" fill="#3e3a39"/>
  <path id="パス_220" data-name="パス 220" d="M183.359,166.563c.065-2.036,1.827-2.923,3.758-2.923,1.253,0,3.68.457,3.68,2.975v4.841a2.067,2.067,0,0,0,.391,1.318v.209h-1.54a2.3,2.3,0,0,1-.261-1.109,4.461,4.461,0,0,1-3.3,1.461c-1.422,0-3.236-.7-3.236-2.766s1.853-2.427,4.854-2.91c1.109-.17,1.709-.261,1.709-1.161,0-.365-.222-1.644-2.284-1.644-1.3,0-2.271.5-2.349,1.736h-1.409Zm6.029,1.736a4.358,4.358,0,0,1-1.8.457c-2.636.391-3.249.718-3.249,1.749,0,.652.457,1.592,1.97,1.592,1.827,0,3.08-1.331,3.08-2.14V168.3Z" transform="translate(55.756 49.899)" fill="#3e3a39"/>
  <path id="パス_221" data-name="パス 221" d="M193.42,161.973v2.505h1.957v1.148H193.42V171.6c0,.913.7.966,1.488.966h.47V173.8c-.17.013-.365.026-.718.026-.926,0-2.662,0-2.662-2.192v-6.016H190.51v-1.148H192V161.96h1.422Z" transform="translate(58.092 49.386)" fill="#3e3a39"/>
  <path id="パス_222" data-name="パス 222" d="M203.844,168.471c0,3.628-2.258,4.841-4.189,4.841-2.284,0-4.215-1.553-4.215-4.763,0-4.254,2.819-4.92,4.215-4.92,1.931,0,4.189,1.174,4.189,4.841Zm-6.916,0c0,1.5.7,3.628,2.727,3.628s2.714-2.166,2.714-3.628-.692-3.641-2.714-3.641S196.928,166.971,196.928,168.471Z" transform="translate(59.595 49.896)" fill="#3e3a39"/>
  <path id="パス_223" data-name="パス 223" d="M209.336,163.969l.026,1.2a3.113,3.113,0,0,1,2.806-1.54c2.088,0,3.719,1.709,3.719,4.815,0,3.445-1.931,4.854-3.758,4.854a3.034,3.034,0,0,1-2.766-1.527v3.288H207.94V163.969h1.4Zm.026,4.5c0,3.21,1.736,3.628,2.519,3.628.574,0,2.518-.235,2.518-3.628s-1.736-3.641-2.518-3.641C211.255,164.831,209.362,165.092,209.362,168.471Z" transform="translate(63.407 49.896)" fill="#3e3a39"/>
  <path id="パス_224" data-name="パス 224" d="M217.464,163.089H215.82V161.34h1.644Zm-.1,10.583h-1.422v-9h1.422Z" transform="translate(65.81 49.197)" fill="#3e3a39"/>
  <path id="パス_225" data-name="パス 225" d="M226.807,175.061H225.4v-3.288a3.131,3.131,0,0,1-2.779,1.527c-1.775,0-3.758-1.409-3.758-4.854,0-3.119,1.657-4.815,3.719-4.815a3.112,3.112,0,0,1,2.819,1.54v-1.2h1.409v11.092Zm-6.459-6.59c0,3.288,1.814,3.628,2.518,3.628.639,0,2.532-.287,2.532-3.628,0-3.158-1.67-3.641-2.532-3.641C222.305,164.831,220.348,165.065,220.348,168.471Z" transform="translate(66.737 49.896)" fill="#3e3a39"/>
  <path id="パス_226" data-name="パス 226" d="M228.5,163.89v5.872a2.148,2.148,0,0,0,2.192,2.271,2.537,2.537,0,0,0,2.466-2.584V163.89h1.409v9h-1.4v-1.318a3.416,3.416,0,0,1-2.884,1.657,3.183,3.183,0,0,1-3.223-3.38V163.89h1.422Z" transform="translate(69.237 49.975)" fill="#3e3a39"/>
  <path id="パス_227" data-name="パス 227" d="M242.866,170.178a3.666,3.666,0,0,1-3.993,3.132c-3.9,0-4.293-3.536-4.293-4.854,0-2.662,1.331-4.815,4.163-4.815s4.228,2.166,4.241,5.168h-6.929c.091,1.957.809,3.3,2.806,3.3a2.294,2.294,0,0,0,2.505-1.931Zm-1.357-2.505c-.261-1.788-1.122-2.845-2.727-2.845s-2.453,1.07-2.688,2.845Z" transform="translate(71.53 49.899)" fill="#3e3a39"/>
  <path id="パス_228" data-name="パス 228" d="M255.144,169.643c-.157,2.753-2.218,3.667-4.1,3.667-3.21,0-4.306-2.519-4.306-4.776s1.018-4.893,4.372-4.893a3.62,3.62,0,0,1,3.954,3.6h-1.5a2.291,2.291,0,0,0-2.532-2.414c-2.284,0-2.806,1.892-2.806,3.589,0,2.205.783,3.693,2.858,3.693a2.28,2.28,0,0,0,2.505-2.453h1.553Z" transform="translate(75.238 49.899)" fill="#3e3a39"/>
  <path id="パス_229" data-name="パス 229" d="M255.129,166.563c.065-2.036,1.827-2.923,3.758-2.923,1.253,0,3.68.457,3.68,2.975v4.841a2.067,2.067,0,0,0,.391,1.318v.209h-1.54a2.3,2.3,0,0,1-.261-1.109,4.461,4.461,0,0,1-3.3,1.461c-1.422,0-3.236-.7-3.236-2.766s1.853-2.427,4.854-2.91c1.109-.17,1.709-.261,1.709-1.161,0-.365-.222-1.644-2.284-1.644-1.3,0-2.271.5-2.349,1.736h-1.409Zm6.029,1.736a4.358,4.358,0,0,1-1.8.457c-2.636.391-3.249.718-3.249,1.749,0,.652.457,1.592,1.97,1.592,1.827,0,3.08-1.331,3.08-2.14V168.3Z" transform="translate(77.641 49.899)" fill="#3e3a39"/>
  <path id="パス_230" data-name="パス 230" d="M263.774,164.75v-1.266a2.135,2.135,0,0,1,2.44-2.414h.94v1.2h-.835c-.94,0-1.122.483-1.122,1.187v1.279h1.957v1.148H265.2v7.856h-1.422v-7.856H262.26v-1.148h1.514Z" transform="translate(79.971 49.115)" fill="#3e3a39"/>
  <path id="パス_231" data-name="パス 231" d="M275.476,170.178a3.666,3.666,0,0,1-3.993,3.132c-3.9,0-4.293-3.536-4.293-4.854,0-2.662,1.331-4.815,4.163-4.815s4.228,2.166,4.241,5.168h-6.929c.091,1.957.809,3.3,2.806,3.3a2.294,2.294,0,0,0,2.505-1.931Zm-1.357-2.505c-.261-1.788-1.122-2.845-2.727-2.845s-2.453,1.07-2.688,2.845Z" transform="translate(81.474 49.899)" fill="#3e3a39"/>
  <path id="パス_232" data-name="パス 232" d="M168.2,180.593a21.456,21.456,0,0,1-1.579,3.158c.144.026.535.144.535.248,0,.157-.183.222-.391.287v9.761h-1.253v-8.639c-.483.652-.953,1.187-1.318,1.631a3.876,3.876,0,0,0-.861-1.018,17.36,17.36,0,0,0,3.876-6.381l1.24.5a.318.318,0,0,1,.222.248c0,.157-.209.183-.47.209Zm6.994,12.945h-3.406c-2.1,0-2.414-.861-2.414-2.14v-5.4l-1.814.378-.248-1.2,2.062-.444v-3.993l1.227.1c.235.013.391.078.391.183s-.078.17-.339.3v3.132l1.957-.4v-4.332l1.253.1c.183.013.378.091.378.209s-.078.157-.391.261v3.484l2.453-.522.731.444v4.241c0,1.475,0,2.453-2.271,2.44a3.323,3.323,0,0,0-.483-1.318c.3.026.535.065.835.065.483,0,.652-.1.652-.926v-3.589l-1.931.4v5.272H172.6v-5.011l-1.957.418v5.546c0,.861.17,1.07,1.553,1.07h3.067c1.07,0,1.566-.078,1.97-1.84a2.544,2.544,0,0,0,1.083.626c-.626,2.427-1.7,2.427-3.119,2.427Z" transform="translate(49.804 54.778)" fill="#3e3a39"/>
  <line id="線_22" data-name="線 22" x2="411.601" transform="translate(25.276 44.837)" fill="none" stroke="#0084c8" stroke-miterlimit="10" stroke-width="0.5"/>
  <path id="パス_233" data-name="パス 233" d="M28.778,21.024c-.039,1.827-.13,6.264-5.82,8.1a5.38,5.38,0,0,0-1.083-1.2c4.8-1.344,5.429-4.228,5.429-6.9H20.57V19.667H34.807v1.357Zm-5.833-4.567V15.1H32.5v1.357Z" transform="translate(6.272 4.604)" fill="#3e3a39"/>
  <path id="パス_234" data-name="パス 234" d="M42.962,19.942c-.1,4.985-2.362,7.7-6.068,9.487a4.046,4.046,0,0,0-1.135-1.174c5.429-2.1,5.6-6.225,5.689-8.312H34.31v-1.37h7.138V14.5l1.527.052c.17,0,.378.013.378.209s-.261.274-.378.326v3.5h5.781v1.37H42.975Z" transform="translate(10.462 4.421)" fill="#3e3a39"/>
  <path id="パス_235" data-name="パス 235" d="M53.025,19.339A18.978,18.978,0,0,0,48.21,16.1L49.1,14.85a22.3,22.3,0,0,1,4.854,3.21,9.01,9.01,0,0,0-.913,1.292ZM49.711,28.5c-.013.287-.052.391-.235.391a.374.374,0,0,1-.274-.209l-.913-1.527a20.049,20.049,0,0,0,12.958-9.317,8.351,8.351,0,0,0,.94,1.318c-3.8,6.146-9.709,8.352-12.475,9.33Z" transform="translate(14.701 4.528)" fill="#3e3a39"/>
  <path id="パス_236" data-name="パス 236" d="M70.223,24.571a23.849,23.849,0,0,0-6.277-4.306V29.19H62.42V14.51l1.54.117c.222.013.326.065.326.209,0,.183-.222.235-.339.261v4.828l.666-.913a27.311,27.311,0,0,1,6.512,4.319A7.881,7.881,0,0,0,70.223,24.571Z" transform="translate(19.034 4.425)" fill="#3e3a39"/>
  <path id="パス_237" data-name="パス 237" d="M78.251,16.351c.1.052.261.17.261.287,0,.183-.235.17-.5.157-.326.431-1.736,2.375-2.023,2.753-.731.94-.953,1.187-1.592,1.957.77-.078,1.4-.183,2.662-.391a7.486,7.486,0,0,0-.5-1.357l1.148-.352a18.127,18.127,0,0,1,1.135,3.523,6.612,6.612,0,0,0-1.24.431,11.332,11.332,0,0,0-.248-1.174c-.209.052-1.3.248-1.422.287V29.8h-1.3V22.679c-.731.1-1.227.17-2.492.326-.065.222-.13.391-.287.391s-.261-.3-.274-.444L71.4,21.727c.4-.013,1.122-.065,1.4-.078.431-.457.757-.913,1.344-1.657a20.449,20.449,0,0,0-2.7-2.453l.809-1.083c.6.5.8.679.979.848a28.113,28.113,0,0,0,1.8-3.223l1.122.548a.354.354,0,0,1,.248.287c0,.157-.235.157-.326.157h-.157a30.872,30.872,0,0,1-1.879,2.988c.065.052.613.6.913.887.117-.157,1.631-2.166,2.205-3.171l1.083.626Zm-4.463,7.764c.157.039.352.078.352.235s-.13.209-.418.287a20.427,20.427,0,0,1-.979,4.032,4.711,4.711,0,0,0-1.279-.339A17.085,17.085,0,0,0,72.6,23.906Zm4.084-.326a22.748,22.748,0,0,0,1.083,3.641,4.625,4.625,0,0,0-1.24.431,20.542,20.542,0,0,1-1-3.732l1.148-.339Zm8.652-6.773c.013,2.766.013,8.7-.887,11.066-.548,1.422-1.527,1.683-3.6,1.644a3.956,3.956,0,0,0-.613-1.579,8.559,8.559,0,0,0,1.435.13c1.187,0,1.683-.326,2.075-3.745a53.606,53.606,0,0,0,.209-6.225H80.678a16.253,16.253,0,0,1-1.4,2.166,4.234,4.234,0,0,0-1.2-.757A15.765,15.765,0,0,0,81,14.119l1.279.418c.235.091.378.209.378.287,0,.157-.13.209-.522.274-.235.6-.5,1.266-.8,1.918h5.194ZM81.37,20.5a25.277,25.277,0,0,1,1.97,3.81,7.976,7.976,0,0,0-1.24.613,25.851,25.851,0,0,0-1.918-3.9L81.37,20.5Z" transform="translate(21.772 4.293)" fill="#3e3a39"/>
  <path id="パス_238" data-name="パス 238" d="M91.751,28.242H90.093V18.651H87.34V17.385c1.422-.065,2.623-.4,3.067-2.505h1.344Z" transform="translate(26.633 4.537)" fill="#3e3a39"/>
  <path id="パス_239" data-name="パス 239" d="M105.346,16.335H99.278l-.8,4.319a4.078,4.078,0,0,1,3.04-1.174,4.367,4.367,0,0,1,4.528,4.5,4.5,4.5,0,0,1-4.815,4.632,5.718,5.718,0,0,1-3.915-1.4,4.029,4.029,0,0,1-1.2-2.7h1.788a2.872,2.872,0,0,0,3.171,2.61,3.057,3.057,0,0,0,3.288-3.21,2.938,2.938,0,0,0-3.158-3.106A3.5,3.5,0,0,0,98.391,22.1H96.538l1.318-7.242h7.5v1.462Z" transform="translate(29.31 4.531)" fill="#3e3a39"/>
  <path id="パス_240" data-name="パス 240" d="M116.356,21.64c0,2.714-.679,7.06-5.05,7.06s-5.076-4.45-5.076-7.06.613-7.06,5.076-7.06S116.356,19.1,116.356,21.64Zm-8.43,0c0,2.218.47,5.585,3.354,5.585s3.38-3.38,3.38-5.585-.47-5.585-3.354-5.585S107.926,19.382,107.926,21.64Z" transform="translate(32.393 4.446)" fill="#3e3a39"/>
  <path id="パス_241" data-name="パス 241" d="M119.331,17.521v3.745a16.589,16.589,0,0,1-1.827,8.378,4.552,4.552,0,0,0-1.344-.692c1.749-2.662,1.762-6.525,1.762-7.8V16.281h5.663v-2.1l1.488.091c.117,0,.378.052.378.248,0,.117-.209.235-.4.287v1.475h6.9v1.24H119.331Zm6.238,3.432v2.453h4.789V29.7h-1.409v-.809h-6.8v.835h-1.37V23.406h3.341v-5.82l1.462.13c.157.013.4.052.4.222s-.209.209-.4.235V19.7h5.755v1.24h-5.755Zm3.38,3.719h-6.8V27.66h6.8V24.672Z" transform="translate(35.421 4.324)" fill="#3e3a39"/>
  <path id="パス_242" data-name="パス 242" d="M142.461,29.49h-1.253V25.876h-1.866v3.967H138.1V19.116h3.106V17.355h-3.432a4.231,4.231,0,0,0,.391.3,4.377,4.377,0,0,0-1.018.926A12.74,12.74,0,0,1,134.6,15.7a17.268,17.268,0,0,1-2.832,3.432H133.8V17.276l1.318.065c.183.013.326.039.326.183,0,.209-.235.261-.431.3v1.292h2.153v1.1h-2.153v1.475h2.6V22.77H130.9V21.687h2.884V20.212h-2.049v-1.07l-.235.209a2.882,2.882,0,0,0-1.109-.861,11.5,11.5,0,0,0,3.719-4.45l1.344.261c.091.013.3.065.3.235,0,.209-.261.274-.548.287a17.094,17.094,0,0,0,2.388,2.388V16.18h3.6V14.144l1.253.052c.3.013.444.013.444.183s-.17.222-.444.3v1.488h2.023a9.952,9.952,0,0,0-1.122-1.579l.861-.47a14.472,14.472,0,0,1,1.292,1.657l-.692.391h1.54v1.148h-3.9v1.762h3.223v9.161c0,1.018-.157,1.527-2.218,1.488a2.921,2.921,0,0,0-.522-1.422,6.31,6.31,0,0,0,.953.1c.548,0,.548-.17.548-.848V25.824h-1.97v3.615Zm-5.389-5.768V29.83h-1.227v-.9h-2.78v.9h-1.3V23.723Zm-4.006,1.148v2.9h2.78v-2.9Zm8.143-4.632h-1.866v1.683h1.866V20.238Zm0,2.806h-1.866v1.7h1.866Zm1.253-1.122h1.97V20.238h-1.97Zm0,2.819h1.97v-1.7h-1.97Z" transform="translate(39.76 4.281)" fill="#3e3a39"/>
</svg>
