<?xml version="1.0" encoding="UTF-8"?><svg id="_レイヤー_2" xmlns="http://www.w3.org/2000/svg" xmlns:xlink="http://www.w3.org/1999/xlink" viewBox="0 0 900 48.67"><defs><style>.cls-1{fill:#bfaf86;}.cls-2{fill:url(#_名称未設定グラデーション_15);}</style><linearGradient id="_名称未設定グラデーション_15" x1="0" y1="46.33" x2="900" y2="46.33" gradientUnits="userSpaceOnUse"><stop offset="0" stop-color="#bfaf86" stop-opacity="0"/><stop offset=".49" stop-color="#bfaf86"/><stop offset="1" stop-color="#bfaf86" stop-opacity="0"/></linearGradient></defs><g id="_レイヤー_1-2"><rect class="cls-2" y="43.99" width="900" height="4.68"/><path class="cls-1" d="M53.43,13.39c0,1.15.13,1.15,1.4,1.15h2.89c1.74,0,3.1-.08,3.61-.25.47-.17.81-.38,1.06-1.49l.38-1.7c.21-.26.94-.26,1.11,0,0,1.02-.17,2.72-.17,4.29s.17,3.15.17,4.12c-.17.25-.81.25-1.11,0l-.43-1.66c-.21-.77-.55-1.36-1.36-1.62-.6-.17-1.66-.21-3.27-.21h-2.89c-1.28,0-1.4.04-1.4,1.15v5.91c0,4.46.08,5.1,2.59,5.32l1.45.13c.25.17.17.94-.09,1.06-2.51-.08-3.95-.13-5.66-.13-1.87,0-3.32.04-5.32.13-.25-.13-.34-.81-.08-1.06l1.06-.13c2.47-.3,2.55-.85,2.55-5.32V7.78c0-4.46-.08-5.06-2.55-5.36l-.68-.08c-.26-.17-.17-.94.08-1.06,1.79.09,3.23.13,4.93.13h7.82c2.72,0,5.19,0,5.74-.13,0,1.96.04,4,.13,5.61-.13.25-.72.38-1.02.13-.34-1.91-.85-3.49-2.98-4.04-.94-.25-2.34-.25-4.12-.25h-2.59c-1.28,0-1.28.08-1.28,1.7v8.97Z"/><path class="cls-1" d="M77.07,7.86c0-4.51-.08-5.23-2.59-5.44l-1.06-.08c-.26-.17-.17-.94.08-1.06,2.13.09,3.57.13,5.36.13s3.15-.04,5.27-.13c.25.13.34.89.08,1.06l-1.06.08c-2.51.21-2.59.94-2.59,5.44v15.14c0,4.51.08,5.1,2.59,5.4l1.06.13c.25.17.17.94-.08,1.06-2.13-.08-3.57-.13-5.27-.13-1.79,0-3.23.04-5.36.13-.25-.13-.34-.81-.08-1.06l1.06-.13c2.51-.3,2.59-.89,2.59-5.4V7.86Z"/><path class="cls-1" d="M105.9,23.09c0,4.46.09,5.1,2.55,5.32l1.36.13c.26.17.17.94-.08,1.06-2.42-.08-3.87-.13-5.57-.13s-3.19.04-5.91.13c-.26-.13-.34-.85,0-1.06l1.53-.13c2.42-.21,2.64-.85,2.64-5.32V4.08c0-1.32,0-1.36-1.28-1.36h-2.34c-1.83,0-4.17.08-5.23,1.06-1.02.94-1.45,1.87-1.91,2.93-.34.26-.94.04-1.11-.3.68-1.91,1.32-4.64,1.62-6.34.13-.08.68-.13.81,0,.26,1.36,1.66,1.32,3.61,1.32h17.22c2.3,0,2.68-.08,3.32-1.19.21-.08.68-.04.77.13-.47,1.74-.77,5.19-.64,6.46-.17.34-.89.34-1.11.08-.13-1.06-.43-2.64-1.06-3.1-.98-.72-2.59-1.06-4.93-1.06h-3.02c-1.28,0-1.23.04-1.23,1.45v18.92Z"/><path class="cls-1" d="M150.89,22.24c0,1.28,0,6.34.13,7.44-.08.25-.34.47-.81.47-.51-.72-1.74-2.21-5.44-6.42l-9.87-11.23c-1.15-1.32-4.04-4.81-4.93-5.74h-.08c-.17.51-.21,1.49-.21,2.76v9.27c0,2,.04,7.53.77,8.8.26.47,1.11.72,2.17.81l1.32.13c.26.34.21.85-.08,1.06-1.91-.08-3.4-.13-4.98-.13-1.79,0-2.93.04-4.42.13-.3-.21-.34-.81-.08-1.06l1.15-.13c.98-.13,1.66-.38,1.87-.85.6-1.53.55-6.72.55-8.76V6.5c0-1.19-.04-2.08-.94-3.06-.6-.59-1.62-.89-2.64-1.02l-.72-.08c-.25-.25-.25-.89.09-1.06,1.79.13,4.04.13,4.81.13.68,0,1.4-.04,1.96-.13.85,2.17,5.87,7.78,7.27,9.36l4.13,4.63c2.93,3.27,5.02,5.66,7.02,7.7h.08c.17-.21.17-.89.17-1.79v-9.1c0-2-.04-7.53-.85-8.8-.26-.38-.94-.64-2.64-.85l-.72-.08c-.3-.25-.25-.94.09-1.06,1.96.09,3.4.13,5.02.13,1.83,0,2.93-.04,4.38-.13.34.21.34.81.08,1.06l-.6.08c-1.36.21-2.21.55-2.38.89-.72,1.53-.64,6.8-.64,8.76v10.16Z"/><path class="cls-1" d="M165.56,7.78c0-4.42-.08-5.06-2.59-5.36l-.68-.08c-.26-.17-.17-.94.08-1.06,1.83.09,3.27.13,5.02.13h8c2.72,0,5.23,0,5.74-.13.26.72.51,3.79.68,5.66-.17.25-.85.34-1.06.08-.64-2-1.02-3.49-3.23-4.04-.89-.21-2.25-.25-4.12-.25h-3.06c-1.28,0-1.28.08-1.28,1.7v8.5c0,1.19.13,1.19,1.4,1.19h2.47c1.79,0,3.1-.09,3.61-.26s.81-.42,1.02-1.49l.34-1.74c.21-.26.94-.26,1.11.04,0,1.02-.17,2.68-.17,4.3,0,1.53.17,3.15.17,4.08-.17.3-.89.3-1.11.04l-.38-1.66c-.17-.77-.47-1.4-1.32-1.62-.6-.17-1.62-.21-3.27-.21h-2.47c-1.28,0-1.4.04-1.4,1.15v6c0,2.25.13,3.7.81,4.42.51.51,1.4.98,5.15.98,3.27,0,4.51-.17,5.44-.64.77-.43,1.91-1.91,3.02-4.12.3-.21.89-.08,1.06.3-.3,1.49-1.36,4.76-1.91,5.91-3.83-.08-7.61-.13-11.4-.13h-3.83c-1.83,0-3.27.04-5.78.13-.25-.13-.34-.81-.08-1.06l1.4-.13c2.42-.21,2.64-.85,2.64-5.32V7.78Z"/><path class="cls-1" d="M198.72,30.15c-3.57,0-5.83-1.11-6.63-1.57-.51-.94-1.06-3.96-1.15-5.95.21-.3.85-.38,1.02-.13.64,2.17,2.38,6.34,7.31,6.34,3.57,0,5.32-2.34,5.32-4.89,0-1.87-.38-3.96-3.49-5.95l-4.04-2.64c-2.13-1.4-4.59-3.83-4.59-7.31,0-4.04,3.15-7.31,8.68-7.31,1.32,0,2.85.26,3.96.55.55.17,1.15.26,1.49.26.38,1.02.77,3.4.77,5.19-.17.26-.85.38-1.06.13-.55-2.04-1.7-4.81-5.78-4.81s-5.06,2.76-5.06,4.72c0,2.47,2.04,4.25,3.61,5.23l3.4,2.13c2.68,1.66,5.32,4.12,5.32,8.17,0,4.68-3.53,7.87-9.06,7.87Z"/><path class="cls-1" d="M223.77,30.15c-3.57,0-5.83-1.11-6.63-1.57-.51-.94-1.06-3.96-1.15-5.95.21-.3.85-.38,1.02-.13.64,2.17,2.38,6.34,7.31,6.34,3.57,0,5.32-2.34,5.32-4.89,0-1.87-.38-3.96-3.49-5.95l-4.04-2.64c-2.13-1.4-4.59-3.83-4.59-7.31,0-4.04,3.15-7.31,8.68-7.31,1.32,0,2.85.26,3.96.55.55.17,1.15.26,1.49.26.38,1.02.77,3.4.77,5.19-.17.26-.85.38-1.06.13-.55-2.04-1.7-4.81-5.78-4.81s-5.06,2.76-5.06,4.72c0,2.47,2.04,4.25,3.61,5.23l3.4,2.13c2.68,1.66,5.32,4.12,5.32,8.17,0,4.68-3.53,7.87-9.06,7.87Z"/><path class="cls-1" d="M254.3,13.31c0,2.42-1.96,4.38-4.38,4.38s-4.38-1.96-4.38-4.38,1.96-4.38,4.38-4.38,4.38,2.04,4.38,4.38Z"/><path class="cls-1" d="M280.45,23.09c0,4.46.09,5.1,2.55,5.32l1.36.13c.26.17.17.94-.08,1.06-2.42-.08-3.87-.13-5.57-.13s-3.19.04-5.91.13c-.26-.13-.34-.85,0-1.06l1.53-.13c2.42-.21,2.64-.85,2.64-5.32V4.08c0-1.32,0-1.36-1.28-1.36h-2.34c-1.83,0-4.17.08-5.23,1.06-1.02.94-1.45,1.87-1.91,2.93-.34.26-.94.04-1.11-.3.68-1.91,1.32-4.64,1.62-6.34.13-.08.68-.13.81,0,.26,1.36,1.66,1.32,3.61,1.32h17.22c2.3,0,2.68-.08,3.32-1.19.21-.08.68-.04.77.13-.47,1.74-.77,5.19-.64,6.46-.17.34-.89.34-1.11.08-.13-1.06-.43-2.64-1.06-3.1-.98-.72-2.59-1.06-4.93-1.06h-3.02c-1.28,0-1.23.04-1.23,1.45v18.92Z"/><path class="cls-1" d="M302.55,7.78c0-4.42-.08-5.06-2.59-5.36l-.68-.08c-.26-.17-.17-.94.08-1.06,1.83.09,3.27.13,5.02.13h8c2.72,0,5.23,0,5.74-.13.26.72.51,3.79.68,5.66-.17.25-.85.34-1.06.08-.64-2-1.02-3.49-3.23-4.04-.89-.21-2.25-.25-4.12-.25h-3.06c-1.28,0-1.28.08-1.28,1.7v8.5c0,1.19.13,1.19,1.4,1.19h2.47c1.79,0,3.1-.09,3.61-.26s.81-.42,1.02-1.49l.34-1.74c.21-.26.94-.26,1.11.04,0,1.02-.17,2.68-.17,4.3,0,1.53.17,3.15.17,4.08-.17.3-.89.3-1.11.04l-.38-1.66c-.17-.77-.47-1.4-1.32-1.62-.6-.17-1.62-.21-3.27-.21h-2.47c-1.28,0-1.4.04-1.4,1.15v6c0,2.25.13,3.7.81,4.42.51.51,1.4.98,5.15.98,3.27,0,4.51-.17,5.44-.64.77-.43,1.91-1.91,3.02-4.12.3-.21.89-.08,1.06.3-.3,1.49-1.36,4.76-1.91,5.91-3.83-.08-7.61-.13-11.4-.13h-3.83c-1.83,0-3.27.04-5.78.13-.25-.13-.34-.81-.08-1.06l1.4-.13c2.42-.21,2.64-.85,2.64-5.32V7.78Z"/><path class="cls-1" d="M331.64,7.78c0-4.46-.08-5.15-2.76-5.36l-1.06-.08c-.26-.17-.17-.94.08-1.06,2.38.09,3.83.13,5.53.13s3.1-.04,5.23-.13c.26.13.34.89.09,1.06l-1.02.08c-2.51.21-2.59.89-2.59,5.36v14.8c0,2.68.13,3.79.89,4.59.47.47,1.28.98,4.64.98,3.61,0,4.51-.17,5.19-.55.85-.51,1.96-2.04,2.81-4.21.26-.21,1.06-.04,1.06.25,0,.47-1.19,4.81-1.79,5.95-2.17-.08-6.21-.13-10.59-.13h-3.91c-1.79,0-3.15.04-5.53.13-.26-.13-.34-.81-.08-1.06l1.28-.13c2.47-.25,2.55-.85,2.55-5.32V7.78Z"/><path class="cls-1" d="M359.4,7.78c0-4.42-.08-5.06-2.59-5.36l-.68-.08c-.26-.17-.17-.94.08-1.06,1.83.09,3.27.13,5.02.13h8c2.72,0,5.23,0,5.74-.13.26.72.51,3.79.68,5.66-.17.25-.85.34-1.06.08-.64-2-1.02-3.49-3.23-4.04-.89-.21-2.25-.25-4.12-.25h-3.06c-1.28,0-1.28.08-1.28,1.7v8.5c0,1.19.13,1.19,1.4,1.19h2.47c1.79,0,3.1-.09,3.61-.26s.81-.42,1.02-1.49l.34-1.74c.21-.26.94-.26,1.11.04,0,1.02-.17,2.68-.17,4.3,0,1.53.17,3.15.17,4.08-.17.3-.89.3-1.11.04l-.38-1.66c-.17-.77-.47-1.4-1.32-1.62-.6-.17-1.62-.21-3.27-.21h-2.47c-1.28,0-1.4.04-1.4,1.15v6c0,2.25.13,3.7.81,4.42.51.51,1.4.98,5.15.98,3.27,0,4.51-.17,5.44-.64.77-.43,1.91-1.91,3.02-4.12.3-.21.89-.08,1.06.3-.3,1.49-1.36,4.76-1.91,5.91-3.83-.08-7.61-.13-11.4-.13h-3.83c-1.83,0-3.27.04-5.78.13-.25-.13-.34-.81-.08-1.06l1.4-.13c2.42-.21,2.64-.85,2.64-5.32V7.78Z"/><path class="cls-1" d="M382.41,2.29c-.26-.26-.21-.85.13-1.02,1.15.09,3.06.13,4.38.13,1.19,0,3.36-.04,4.85-.13.38.13.34.72.09,1.02l-.98.08c-.89.08-1.4.34-1.4.72,0,.51.89,2.68,2.21,5.7,2.38,5.32,4.89,10.63,7.36,15.86,1.02-2.13,2.17-4.51,3.27-6.89.38-.81.68-1.53.68-1.74s-.13-.59-.34-1.11c-1.49-3.4-3.06-6.8-4.68-10.21-.64-1.32-1.28-2.21-2.72-2.34l-1.02-.08c-.3-.34-.26-.85.08-1.02,1.23.09,2.85.13,4.55.13,2.13,0,3.7-.04,4.68-.13.3.13.34.68.09,1.02l-1.11.08c-1.66.13-1.7.42-.89,2.34.89,2.08,2.08,4.76,3.27,7.4.81-1.66,1.57-3.27,2.51-5.57,1.53-3.61,1.32-4.08-.04-4.17l-1.28-.08c-.3-.43-.21-.89.08-1.02,1.15.09,2.42.13,4,.13,1.4,0,3.1-.04,4.08-.13.3.13.34.68.08,1.02l-1.23.08c-1.79.13-2.55,2.04-3.49,3.78-.89,1.57-2.68,5.27-3.32,6.76-.21.43-.38.85-.38,1.02s.08.51.3,1.02c1.45,3.27,2.93,6.46,4.34,9.7,1.32-2.98,2.59-5.95,3.83-8.97.85-2.04,3.1-7.7,3.4-8.46.55-1.53,1.28-3.36,1.28-3.87,0-.59-.51-.94-1.4-.98l-1.23-.08c-.34-.38-.3-.85.04-1.02,1.62.09,2.76.13,4.08.13,1.62,0,2.85-.04,3.96-.13.34.13.38.68.08,1.02l-.81.08c-2.13.21-2.51,1.49-5.06,7.4l-3.1,7.19c-1.87,4.34-3.57,8.51-5.32,13.06-.13.08-.3.13-.51.13s-.43-.04-.6-.13c-1.36-3.79-3.83-9.1-5.15-12.08-1.53,3.1-4.08,8.55-5.32,12.08-.13.08-.3.13-.51.13s-.43-.04-.64-.13c-.72-1.79-2.38-5.61-2.93-6.85-2.72-5.91-5.36-11.82-8.12-17.73-.81-1.74-1.32-2.89-3.1-3.06l-1.02-.08Z"/><path class="cls-1" d="M428.79,15.73c0-8.5,6.38-15.01,15.14-15.01,9.82,0,14.76,7.1,14.76,14.59,0,8.59-6.55,14.84-14.76,14.84-9.44,0-15.14-6.76-15.14-14.42ZM454.44,16.62c0-7.02-3.1-14.59-11.23-14.59-4.42,0-10.16,3.02-10.16,12.33,0,6.29,3.06,14.46,11.44,14.46,5.1,0,9.95-3.83,9.95-12.21Z"/><path class="cls-1" d="M470.34,7.82c0-4.04-.13-4.76-1.87-4.98l-1.36-.17c-.3-.21-.3-.89.04-1.06,2.38-.21,5.32-.34,9.48-.34,2.64,0,5.14.21,7.1,1.28,2.04,1.06,3.53,2.98,3.53,5.95,0,4.04-3.19,6.25-5.32,7.1-.21.25,0,.68.21,1.02,3.4,5.49,5.66,8.89,8.55,11.31.72.64,1.79,1.11,2.93,1.19.21.08.26.42.04.59-.38.13-1.06.21-1.87.21-3.62,0-5.78-1.06-8.8-5.36-1.11-1.57-2.85-4.51-4.17-6.42-.64-.94-1.32-1.36-3.02-1.36-1.91,0-2,.04-2,.94v5.36c0,4.46.08,4.98,2.55,5.32l.89.13c.26.21.17.94-.08,1.06-1.91-.08-3.36-.13-5.06-.13-1.79,0-3.32.04-5.32.13-.25-.13-.34-.77-.08-1.06l1.06-.13c2.47-.3,2.55-.85,2.55-5.32V7.82ZM473.82,13.9c0,.77,0,1.23.13,1.4.13.13.77.21,2.93.21,1.53,0,3.15-.17,4.38-1.11,1.15-.89,2.13-2.38,2.13-5.27,0-3.36-2.08-6.55-6.8-6.55-2.64,0-2.76.17-2.76,1.36v9.95Z"/><path class="cls-1" d="M502.01,7.78c0-4.46-.09-5.15-2.55-5.36l-1.06-.08c-.26-.17-.17-.94.08-1.06,2.08.09,3.44.13,5.36.13,1.66,0,3.1-.04,4.93-.13.25.13.34.89.08,1.06l-.81.08c-2.47.25-2.55.89-2.55,5.36v4.89c0,.81.09,1.62.55,1.62.38,0,.89-.26,1.19-.47.6-.51,1.7-1.62,2.17-2.04l4.59-4.55c.81-.77,2.89-2.93,3.32-3.53.21-.3.3-.51.3-.68s-.17-.3-.72-.43l-1.15-.25c-.3-.3-.25-.85.08-1.06,1.49.09,3.19.13,4.68.13s2.93-.04,4.21-.13c.3.21.34.81.08,1.06-1.11.08-2.76.51-3.95,1.19-1.19.68-3.57,2.68-5.95,4.93l-3.83,3.61c-.59.6-.98.98-.98,1.32,0,.3.25.64.81,1.32,4.04,4.64,7.31,8.46,10.63,11.95,1.02,1.02,1.96,1.57,3.4,1.74l1.15.13c.3.21.21.94-.08,1.06-1.11-.08-2.76-.13-4.76-.13-1.74,0-3.23.04-5.19.13-.3-.08-.43-.81-.17-1.06l.98-.17c.59-.08,1.02-.21,1.02-.43,0-.25-.3-.59-.59-.98-.81-1.02-1.91-2.17-3.53-4l-3.4-3.83c-2.42-2.72-3.1-3.57-4.12-3.57-.64,0-.72.55-.72,2.04v5.49c0,4.46.09,5.06,2.47,5.32l1.15.13c.25.17.17.94-.09,1.06-2.08-.08-3.53-.13-5.19-.13-1.74,0-3.19.04-4.93.13-.25-.13-.34-.77-.08-1.06l.85-.13c2.25-.34,2.34-.85,2.34-5.32V7.78Z"/><path class="cls-1" d="M544.54,13.31c0,2.42-1.96,4.38-4.38,4.38s-4.38-1.96-4.38-4.38,1.96-4.38,4.38-4.38,4.38,2.04,4.38,4.38Z"/><path class="cls-1" d="M564.56,30.15c-3.57,0-5.83-1.11-6.63-1.57-.51-.94-1.06-3.96-1.15-5.95.21-.3.85-.38,1.02-.13.64,2.17,2.38,6.34,7.31,6.34,3.57,0,5.32-2.34,5.32-4.89,0-1.87-.38-3.96-3.49-5.95l-4.04-2.64c-2.12-1.4-4.59-3.83-4.59-7.31,0-4.04,3.15-7.31,8.67-7.31,1.32,0,2.85.26,3.96.55.55.17,1.15.26,1.49.26.38,1.02.77,3.4.77,5.19-.17.26-.85.38-1.06.13-.55-2.04-1.7-4.81-5.78-4.81s-5.06,2.76-5.06,4.72c0,2.47,2.04,4.25,3.62,5.23l3.4,2.13c2.68,1.66,5.32,4.12,5.32,8.17,0,4.68-3.53,7.87-9.06,7.87Z"/><path class="cls-1" d="M585.52,7.78c0-4.46-.09-5.15-2.55-5.36l-1.06-.08c-.26-.17-.17-.94.08-1.06,2.08.09,3.44.13,5.36.13,1.66,0,3.1-.04,4.93-.13.25.13.34.89.08,1.06l-.81.08c-2.47.25-2.55.89-2.55,5.36v4.89c0,.81.09,1.62.55,1.62.38,0,.89-.26,1.19-.47.6-.51,1.7-1.62,2.17-2.04l4.59-4.55c.81-.77,2.89-2.93,3.32-3.53.21-.3.3-.51.3-.68s-.17-.3-.72-.43l-1.15-.25c-.3-.3-.25-.85.08-1.06,1.49.09,3.19.13,4.68.13s2.93-.04,4.21-.13c.3.21.34.81.08,1.06-1.11.08-2.76.51-3.95,1.19-1.19.68-3.57,2.68-5.95,4.93l-3.83,3.61c-.59.6-.98.98-.98,1.32,0,.3.25.64.81,1.32,4.04,4.64,7.31,8.46,10.63,11.95,1.02,1.02,1.96,1.57,3.4,1.74l1.15.13c.3.21.21.94-.08,1.06-1.11-.08-2.76-.13-4.76-.13-1.74,0-3.23.04-5.19.13-.3-.08-.43-.81-.17-1.06l.98-.17c.59-.08,1.02-.21,1.02-.43,0-.25-.3-.59-.59-.98-.81-1.02-1.91-2.17-3.53-4l-3.4-3.83c-2.42-2.72-3.1-3.57-4.12-3.57-.64,0-.72.55-.72,2.04v5.49c0,4.46.09,5.06,2.47,5.32l1.15.13c.25.17.17.94-.09,1.06-2.08-.08-3.53-.13-5.19-.13-1.74,0-3.19.04-4.93.13-.25-.13-.34-.77-.08-1.06l.85-.13c2.25-.34,2.34-.85,2.34-5.32V7.78Z"/><path class="cls-1" d="M627.32,23c0,4.55.26,5.23,2.55,5.4l1.62.13c.25.25.17.94-.08,1.06-2.64-.08-4.08-.13-5.78-.13-1.79,0-3.32.04-5.57.13-.26-.13-.34-.81-.09-1.06l1.32-.13c2.47-.25,2.55-.85,2.55-5.4v-2.17c0-2.34-.13-2.89-1.36-5.27l-5.02-9.78c-1.45-2.81-2.08-3.02-3.36-3.23l-1.19-.21c-.26-.3-.21-.89.08-1.06,1.36.09,2.89.13,4.93.13s3.49-.04,4.55-.13c.38.13.38.81.13,1.06l-.55.08c-1.49.21-1.79.43-1.79.77,0,.43,1.11,2.85,1.32,3.27,1.57,3.15,3.15,6.51,4.8,9.44,1.32-2.25,2.72-4.72,4-7.19,1.19-2.21,2.76-5.1,2.76-5.61,0-.25-.77-.55-1.79-.68l-.76-.08c-.3-.3-.26-.89.08-1.06,1.53.09,2.76.13,4.08.13s2.51-.04,3.96-.13c.34.21.38.81.08,1.06l-1.19.21c-2.21.38-3.49,3.06-5.61,6.72l-2.68,4.64c-1.87,3.23-2,3.61-2,6.89v2.21Z"/><path class="cls-1" d="M662.01,7.78c0-4.46-.08-5.15-2.76-5.36l-1.06-.08c-.26-.17-.17-.94.08-1.06,2.38.09,3.83.13,5.53.13s3.1-.04,5.23-.13c.26.13.34.89.09,1.06l-1.02.08c-2.51.21-2.59.89-2.59,5.36v14.8c0,2.68.13,3.79.89,4.59.47.47,1.28.98,4.64.98,3.61,0,4.51-.17,5.19-.55.85-.51,1.96-2.04,2.81-4.21.25-.21,1.06-.04,1.06.25,0,.47-1.19,4.81-1.79,5.95-2.17-.08-6.21-.13-10.59-.13h-3.91c-1.79,0-3.15.04-5.53.13-.25-.13-.34-.81-.08-1.06l1.28-.13c2.47-.25,2.55-.85,2.55-5.32V7.78Z"/><path class="cls-1" d="M685.78,15.73c0-8.5,6.38-15.01,15.14-15.01,9.82,0,14.76,7.1,14.76,14.59,0,8.59-6.55,14.84-14.76,14.84-9.44,0-15.14-6.76-15.14-14.42ZM711.42,16.62c0-7.02-3.1-14.59-11.23-14.59-4.42,0-10.16,3.02-10.16,12.33,0,6.29,3.06,14.46,11.44,14.46,5.1,0,9.95-3.83,9.95-12.21Z"/><path class="cls-1" d="M747.61,12.07c0-2.64-.08-7.53-.81-8.8-.3-.51-1.06-.81-2.13-.89l-1.06-.08c-.25-.3-.17-.85.09-1.02,1.62.09,3.19.13,4.85.13,1.79,0,2.93-.04,4.46-.13.34.21.3.77.08,1.02l-1.02.08c-1.06.08-1.87.47-2.13,1.02-.6,1.4-.6,6.29-.6,8.67v4.81c0,3.7-.59,7.61-2.98,10.16-1.83,2-4.98,3.1-8.12,3.1-2.93,0-5.87-.55-7.95-2.34-2.25-1.87-3.32-4.98-3.32-10.04V7.74c0-4.42-.08-5.15-2.55-5.36l-1.06-.08c-.25-.17-.17-.89.08-1.02,2.13.09,3.57.13,5.27.13s3.15-.04,5.23-.13c.26.13.34.85.08,1.02l-1.02.08c-2.47.21-2.55.94-2.55,5.36v9.19c0,6.85,2.13,11.35,8.63,11.35,6.17,0,8.51-4.85,8.51-11.31v-4.89Z"/><path class="cls-1" d="M786.17,22.24c0,1.28,0,6.34.13,7.44-.08.25-.34.47-.81.47-.51-.72-1.74-2.21-5.44-6.42l-9.87-11.23c-1.15-1.32-4.04-4.81-4.93-5.74h-.08c-.17.51-.21,1.49-.21,2.76v9.27c0,2,.04,7.53.77,8.8.25.47,1.11.72,2.17.81l1.32.13c.25.34.21.85-.08,1.06-1.91-.08-3.4-.13-4.98-.13-1.79,0-2.93.04-4.42.13-.3-.21-.34-.81-.08-1.06l1.15-.13c.98-.13,1.66-.38,1.87-.85.59-1.53.55-6.72.55-8.76V6.5c0-1.19-.04-2.08-.94-3.06-.6-.59-1.62-.89-2.64-1.02l-.72-.08c-.26-.25-.26-.89.08-1.06,1.79.13,4.04.13,4.81.13.68,0,1.4-.04,1.96-.13.85,2.17,5.87,7.78,7.27,9.36l4.12,4.63c2.93,3.27,5.02,5.66,7.02,7.7h.08c.17-.21.17-.89.17-1.79v-9.1c0-2-.04-7.53-.85-8.8-.25-.38-.94-.64-2.64-.85l-.72-.08c-.3-.25-.26-.94.08-1.06,1.96.09,3.4.13,5.02.13,1.83,0,2.93-.04,4.38-.13.34.21.34.81.08,1.06l-.6.08c-1.36.21-2.21.55-2.38.89-.72,1.53-.64,6.8-.64,8.76v10.16Z"/><path class="cls-1" d="M822.95,25.13c0,1.7.26,2.72,1.02,3.02.13.13.13.38-.04.51-.51,0-1.28.17-2.08.38-2.25.59-5.32,1.11-7.61,1.11-5.06,0-9.7-1.4-12.97-4.72-2.55-2.55-3.91-5.91-3.91-9.65s1.19-7.27,3.83-10.08c2.85-2.98,7.06-4.98,13.48-4.98,2.42,0,4.68.47,5.4.64.81.17,2.13.47,2.64.38,0,1.4.25,3.62.64,6.17-.13.34-.89.38-1.15.13-1.19-4.59-4.38-6.04-8.72-6.04-8.25,0-11.86,5.87-11.86,12.25,0,8.17,4.21,14.59,12.76,14.59,2.64,0,4.21-.55,4.68-1.28.21-.3.43-1.06.43-2.42v-1.7c0-3.57-.13-3.83-2.76-4.12l-1.87-.21c-.34-.17-.3-.94,0-1.06,1.23.08,3.57.13,6.08.13,1.66,0,3.1-.04,4.51-.13.3.17.34.81.04,1.06l-.68.08c-1.79.21-1.83,1.4-1.83,3.57v2.38Z"/><path class="cls-1" d="M836.85,7.78c0-4.42-.08-5.06-2.59-5.36l-.68-.08c-.25-.17-.17-.94.08-1.06,1.83.09,3.27.13,5.02.13h7.99c2.72,0,5.23,0,5.74-.13.25.72.51,3.79.68,5.66-.17.25-.85.34-1.06.08-.64-2-1.02-3.49-3.23-4.04-.89-.21-2.25-.25-4.12-.25h-3.06c-1.28,0-1.28.08-1.28,1.7v8.5c0,1.19.13,1.19,1.4,1.19h2.47c1.79,0,3.1-.09,3.61-.26.51-.17.81-.42,1.02-1.49l.34-1.74c.21-.26.94-.26,1.11.04,0,1.02-.17,2.68-.17,4.3,0,1.53.17,3.15.17,4.08-.17.3-.89.3-1.11.04l-.38-1.66c-.17-.77-.47-1.4-1.32-1.62-.6-.17-1.62-.21-3.27-.21h-2.47c-1.28,0-1.4.04-1.4,1.15v6c0,2.25.13,3.7.81,4.42.51.51,1.4.98,5.15.98,3.28,0,4.51-.17,5.44-.64.77-.43,1.91-1.91,3.02-4.12.3-.21.89-.08,1.06.3-.3,1.49-1.36,4.76-1.91,5.91-3.83-.08-7.61-.13-11.4-.13h-3.83c-1.83,0-3.28.04-5.78.13-.25-.13-.34-.81-.08-1.06l1.4-.13c2.42-.21,2.64-.85,2.64-5.32V7.78Z"/></g></svg>