<svg id="info01-tit" xmlns="http://www.w3.org/2000/svg" width="679.74" height="21.27" viewBox="0 0 679.74 21.27">
  <path id="パス_1" data-name="パス 1" d="M2.33,7.93h.39c.34,1.7,1.24,3.12,3.17,3.12a2.15,2.15,0,0,0,2.4-2.1c0-1.53-1.33-2.13-2.55-2.62C4.21,5.74,2.58,4.94,2.58,3.02A3.037,3.037,0,0,1,5.91,0,4.365,4.365,0,0,1,8.45.86L8.84.2h.18L9.1,3.11H8.71C8.32,1.72,7.53.46,5.9.46A1.82,1.82,0,0,0,3.93,2.24c0,1.33,1.19,1.78,2.23,2.22,1.75.72,3.7,1.6,3.7,3.8s-2.05,3.26-4.02,3.26A4.68,4.68,0,0,1,2.9,10.51l-.4.71H2.32V7.94Z" fill="#11374c"/>
  <path id="パス_2" data-name="パス 2" d="M15.04,8.13a9.481,9.481,0,0,0,.17,2.23c.22.57.91.57,1.44.57v.39c-.81-.02-1.63-.05-2.44-.07-.84.02-1.7.05-2.52.07v-.39c.54,0,1.23,0,1.44-.57a9.523,9.523,0,0,0,.17-2.23V3.39a9.481,9.481,0,0,0-.17-2.23c-.22-.57-.91-.57-1.44-.57V.2c.79.02,1.6.05,2.4.07.86-.02,1.7-.05,2.55-.07V.59c-.54,0-1.23,0-1.44.57a9.523,9.523,0,0,0-.17,2.23V5.34h6V3.39a9.481,9.481,0,0,0-.17-2.23c-.22-.57-.91-.57-1.44-.57V.2c.82.02,1.63.05,2.45.07.84-.02,1.66-.05,2.5-.07V.59c-.54,0-1.23,0-1.44.57a9.523,9.523,0,0,0-.17,2.23V8.13a9.481,9.481,0,0,0,.17,2.23c.22.57.91.57,1.44.57v.39c-.81-.02-1.63-.05-2.44-.07-.84.02-1.68.05-2.52.07v-.39c.54,0,1.23,0,1.44-.57a9.523,9.523,0,0,0,.17-2.23V5.88h-6V8.13Z" fill="#11374c"/>
  <path id="パス_3" data-name="パス 3" d="M26.55,5.8A6,6,0,0,1,32.72,0a5.789,5.789,0,0,1,6.03,5.68,5.881,5.881,0,0,1-6.1,5.83c-3.4,0-6.1-2.34-6.1-5.71Zm2.1,0c0,2.64,1.04,5.26,4.1,5.26s3.9-2.81,3.9-5.31S35.61.46,32.65.46s-4,2.86-4,5.34Z" fill="#11374c"/>
  <path id="パス_4" data-name="パス 4" d="M44.16,8.13a9.481,9.481,0,0,0,.17,2.23c.24.66,1.02.54,1.61.57v.39c-.87-.02-1.75-.05-2.62-.07-.82.02-1.63.05-2.47.07v-.39c.54,0,1.24,0,1.43-.57a10.764,10.764,0,0,0,.15-2.23V3.41a10.863,10.863,0,0,0-.15-2.25c-.2-.59-.89-.57-1.43-.57V.2c.86.02,1.7.05,2.54.07.81-.02,1.6-.05,2.4-.07,1.81.07,3.86.77,3.86,2.91,0,2.45-2.37,3.04-4.37,3.04-.3,0-1.06-.05-1.13-.05V8.13Zm0-2.49c.32.02.66.07.97.07,1.73,0,2.59-.74,2.59-2.55A2.147,2.147,0,0,0,45.32.69c-1.23.03-1.16-.03-1.16.79V5.65Z" fill="#11374c"/>
  <path id="パス_5" data-name="パス 5" d="M54.74,8.13a9.481,9.481,0,0,0,.17,2.23c.24.66,1.02.54,1.61.57v.39c-.87-.02-1.75-.05-2.62-.07-.82.02-1.63.05-2.47.07v-.39c.54,0,1.24,0,1.43-.57a10.764,10.764,0,0,0,.15-2.23V3.41a10.863,10.863,0,0,0-.15-2.25c-.2-.59-.89-.57-1.43-.57V.2c.86.02,1.7.05,2.54.07.81-.02,1.6-.05,2.4-.07,1.81.07,3.86.77,3.86,2.91,0,2.45-2.37,3.04-4.37,3.04-.3,0-1.06-.05-1.13-.05V8.13Zm0-2.49c.32.02.66.07.97.07,1.73,0,2.59-.74,2.59-2.55A2.147,2.147,0,0,0,55.9.69c-1.23.03-1.16-.03-1.16.79V5.65Z" fill="#11374c"/>
  <path id="パス_6" data-name="パス 6" d="M63.71,3.39a9.481,9.481,0,0,0-.17-2.23C63.32.59,62.63.59,62.1.59V.2c.81.02,1.61.05,2.42.07.86-.02,1.7-.05,2.54-.07V.59c-.54,0-1.23,0-1.44.57a9.524,9.524,0,0,0-.17,2.23V8.13a9.481,9.481,0,0,0,.17,2.23c.22.57.91.57,1.44.57v.39c-.79-.02-1.61-.05-2.42-.07-.84.02-1.7.05-2.54.07v-.39c.54,0,1.23,0,1.44-.57a9.524,9.524,0,0,0,.17-2.23V3.39Z" fill="#11374c"/>
  <path id="パス_7" data-name="パス 7" d="M70.64,1.6A1.932,1.932,0,0,0,68.81.59V.2c.54.02,1.06.05,1.6.07.44-.02.89-.05,1.33-.07l7.09,8.65h.03V4.18a14.838,14.838,0,0,0-.15-2.59c-.2-.94-.66-.87-1.5-1.01V.2c.62.02,1.23.05,1.85.07C79.65.25,80.22.22,80.84.2V.59c-.62.07-1.06.02-1.28.74a16.241,16.241,0,0,0-.2,2.94v7.24h-.5c-.37-.45-.74-.92-1.11-1.39L71.18,2.16h-.03V7.8a8.013,8.013,0,0,0,.25,2.45c.29.66.84.62,1.46.69v.39c-.64-.02-1.29-.05-1.93-.07-.62.02-1.24.05-1.86.07v-.39c.66-.07,1.28-.1,1.44-.82a13.6,13.6,0,0,0,.13-2.32Z" fill="#11374c"/>
  <path id="パス_8" data-name="パス 8" d="M92.56,3.63h-.35A3.2,3.2,0,0,0,88.92.39c-3.28,0-3.98,3.02-3.98,5.68s.97,4.99,3.83,4.99c1.68,0,2.81-.79,2.81-2.52,0-1.13-.42-1.34-1.44-1.43V6.72h4.4v.39c-.91-.02-1.04.44-1.04,1.28v1.78a3.458,3.458,0,0,0-2.37.71,5.536,5.536,0,0,1-2.64.64,5.287,5.287,0,0,1-5.64-5.48A5.8,5.8,0,0,1,88.73.01a5.714,5.714,0,0,1,3.49,1.06l.35-.76h.19l-.19,3.33Z" fill="#11374c"/>
  <line id="線_1" data-name="線 1" x2="679.74" transform="translate(0 18.56)" fill="none" stroke="#11374c" stroke-miterlimit="10" stroke-width="0.5"/>
  <rect id="長方形_1" data-name="長方形 1" width="95.74" height="5.42" transform="translate(0 15.85)" fill="#11374c"/>
  <path id="パス_9" data-name="パス 9" d="M135.98,9.11c0,.08-.03.09-.32.16-.19.05-.95.42-1.12.49a7.863,7.863,0,0,1-1.62.46c-.03,0-.08,0-.08-.05s.02-.06.2-.14a7.127,7.127,0,0,0,2.04-1.36c.07-.08.12-.12.17-.12a.6.6,0,0,1,.21.09c.48.34.53.38.53.46Zm-1.83-4.67c-.13,0-.15.04-.17.14-.04.13-.12.26-.44.26a.186.186,0,0,1-.22-.18V3.54c0-.1-.02-.69-.02-.76,0-.04,0-.07.03-.07s.51.23.53.25a.7.7,0,0,0,.37.08h4.67a.243.243,0,0,0,.23-.1c.09-.11.13-.17.19-.17.12,0,.68.33.68.45a1.584,1.584,0,0,1-.16.27,1,1,0,0,0-.07.49c0,.08.02.49.02.58,0,.33-.46.37-.46.37-.17,0-.18-.08-.22-.28-.02-.17-.12-.18-.21-.18h-4.77Zm.84-.22c.23,0,.23-.1.23-.51,0-.35,0-.47-.22-.47h-.8c-.25,0-.25.11-.25.6,0,.22,0,.38.22.38Zm3.04,1.09a.267.267,0,0,0,.23-.11c.17-.21.19-.24.27-.24s.12.03.46.27c.09.07.17.12.17.22,0,.05-.18.22-.2.27a6.192,6.192,0,0,0-.03.77c0,.06.03,1.49.03,1.62,0,.25-.02.32-.06.37a.743.743,0,0,1-.43.25c-.17,0-.18-.1-.21-.23s-.12-.15-.21-.15h-2.96c-.11,0-.19.03-.22.1-.05.15-.11.3-.46.3-.14,0-.24-.03-.24-.22,0-.32.04-1.94.04-2.31,0-.11-.02-.5-.04-.87,0-.04-.04-.22-.04-.26,0-.07.04-.09.07-.09s.46.21.56.24a.961.961,0,0,0,.36.07h2.91Zm.02.91c.22,0,.22-.08.22-.42,0-.14,0-.27-.17-.27h-3.06c-.19,0-.19.12-.19.27,0,.33,0,.42.22.42h2.99Zm0,.91c.22,0,.22-.11.22-.34,0-.26,0-.36-.22-.36h-2.98c-.22,0-.22.1-.22.34,0,.26,0,.36.2.36Zm-3,.22c-.13,0-.2.06-.2.19,0,.54,0,.6.21.6h2.99c.21,0,.21-.12.21-.23,0-.5,0-.56-.21-.56h-3Zm1.91-3.11c.24,0,.24-.1.24-.5s0-.49-.22-.49h-.94c-.22,0-.22.12-.22.51,0,.37,0,.48.23.48h.9Zm2.83,5.72c0,.19-.11.27-.22.27-.15,0-.19-.04-.6-.37a7.308,7.308,0,0,0-1.69-1.01,1.439,1.439,0,0,1-.23-.13c0-.03.03-.06.1-.06.05,0,.31.03.39.04C139.19,9,139.79,9.41,139.79,9.96Zm-.89-5.72c.23,0,.25-.09.25-.55,0-.32,0-.44-.22-.44h-.88c-.23,0-.23.12-.23.42,0,.47.02.57.24.57h.85Z" fill="#11374c"/>
  <path id="パス_10" data-name="パス 10" d="M142.77,4.86c-.18,0-.19.03-.28.3-.07.22-.47,1.29-.62,1.29-.03,0-.04-.04-.04-.07,0-.05.17-.73.22-.98a14.432,14.432,0,0,0,.2-1.83c0-.04-.03-.25-.03-.29s0-.07.06-.07c.02,0,.83.27.83.44,0,.06-.22.24-.24.28a2.468,2.468,0,0,0-.17.59c0,.11.11.11.17.11h.36c.22,0,.22-.17.22-.27,0-.43,0-1-.02-1.24,0-.07-.06-.35-.06-.41s.07-.06.09-.06c.09,0,.81.22.81.37,0,.05-.17.22-.18.26a4.017,4.017,0,0,0-.07,1.18c0,.04,0,.16.13.16a.175.175,0,0,0,.15-.06c.06-.06.29-.38.37-.38.05,0,.69.45.69.55,0,.12-.15.12-.4.12h-.7c-.25,0-.25,0-.25,1.13,0,.42,0,.46.1.46a.827.827,0,0,0,.37-.17c.27-.17.29-.19.32-.19s.04.03.04.05c0,.1-.43.42-.47.46-.3.22-.34.26-.34.48,0,.41.02,2.26.02,2.63,0,.18-.02.27-.13.34a.968.968,0,0,1-.38.16c-.12,0-.16-.1-.16-.22,0-.17.04-.86.05-1,0-.33.02-1.07.02-1.34,0-.19,0-.27-.08-.27a5.358,5.358,0,0,0-.89.53c-.12.16-.15.21-.22.21-.14,0-.45-.7-.45-.77,0-.03.15-.06.17-.07a7.875,7.875,0,0,0,1.22-.39c.19-.07.25-.12.25-.33V5.14c0-.23-.08-.28-.26-.28h-.42Zm5.26-.15c.32,0,.36,0,.47-.14.06-.07.17-.19.23-.19s.61.42.61.53c0,.07-.21.25-.23.3a1.164,1.164,0,0,0-.07.43,21.314,21.314,0,0,1-.46,3.43c-.23.99-.64,1.13-1.02,1.13-.2,0-.2-.03-.2-.08,0-.21,0-.39-.37-.61-.03-.02-.21-.1-.24-.12a.107.107,0,0,1-.06-.08c0-.04.05-.04.07-.04a2.25,2.25,0,0,1,.22.05,2.777,2.777,0,0,0,.6.09c.26,0,.4,0,.61-1.24.08-.47.29-2.49.29-3.05,0-.2-.09-.2-.22-.2-.17,0-.17.06-.29.6a6.123,6.123,0,0,1-1.93,3.77,4.518,4.518,0,0,1-1.18.71s-.05,0-.05-.04.15-.14.25-.22a5.729,5.729,0,0,0,2.26-3.94c.04-.25.1-.68.1-.73,0-.07-.02-.15-.14-.15-.24,0-.24.03-.31.33a5.708,5.708,0,0,1-1.84,3.15,2.793,2.793,0,0,1-.81.56c-.02,0-.06,0-.06-.03.05-.05.43-.43.57-.59a6.449,6.449,0,0,0,1.58-3.24c0-.18-.07-.18-.23-.18-.18,0-.22.06-.48.55a3.731,3.731,0,0,1-1.18,1.5c-.02,0-.04,0-.04-.03s.37-.6.44-.71a10.755,10.755,0,0,0,1.1-3.37c0-.17,0-.19.05-.19s.83.14.83.32c0,.07-.23.22-.27.27-.09.23-.42,1.11-.51,1.34,0,.08.09.1.15.1h1.76Z" fill="#11374c"/>
  <path id="パス_11" data-name="パス 11" d="M152.66,4.46s-.06,0-.06.03.08.07.13.09.13.08.13.12-.13.17-.14.2c-.02.09-.06.68-.06.73,0,.09.02.22.23.22h.29a.282.282,0,0,0,.27-.12c.06-.07.16-.19.19-.19.06,0,.56.38.56.49,0,.05-.12.16-.18.21s-.07.09-.07.31a9.3,9.3,0,0,1-.42,2.75,1.622,1.622,0,0,1-.51.75.91.91,0,0,1-.39.17c-.04,0-.04-.03-.06-.13a.99.99,0,0,0-.42-.64s-.08-.06-.08-.08c0,0,.02-.02.03-.02s.42.1.49.1c.25,0,.42,0,.61-.91a16.133,16.133,0,0,0,.24-2.23c0-.11-.03-.22-.24-.22h-.35c-.23,0-.24.09-.27.33-.33,2.58-1.43,3.48-1.57,3.48a.02.02,0,0,1-.02-.02s.37-.61.42-.71a10.647,10.647,0,0,0,.74-3.97c0-.67,0-.72-.23-.72-.1,0-.61.04-.69.04-.03,0-.05-.02-.07-.06L151,4.27s-.04-.04-.04-.05.02-.02.03-.02c.16,0,.87.05,1.01.05.17,0,.26-.03.26-.22a5.377,5.377,0,0,0-.06-.98c0-.05-.11-.29-.11-.31s.02-.03.04-.03c0,0,.94.19.94.32,0,.05-.18.22-.21.26a1.883,1.883,0,0,0-.07.66c0,.17,0,.31.22.31s.24,0,.29-.04c.07-.06.25-.46.33-.46.1,0,.64.44.64.59s-.1.14-.19.14h-1.43Zm2.42-.05c-.24,0-.27.04-.58.45-.08.12-.38.51-.45.51a.02.02,0,0,1-.02-.02c0-.03.16-.31.18-.37a7.8,7.8,0,0,0,.68-2.12c0-.03-.02-.17-.02-.19a.066.066,0,0,1,.06-.07,6.139,6.139,0,0,1,.71.37c.06.03.11.05.11.12,0,.05-.02.06-.15.16a3.683,3.683,0,0,0-.55.87c0,.08.09.08.16.08h1.8c.32,0,.33-.02.37-.06.06-.07.27-.44.35-.44.05,0,.76.51.76.63,0,.09-.24.09-.55.09h-2.86Zm.74,2.05a.261.261,0,0,0,.23-.2c.02-.07.02-.82.02-.96a1.215,1.215,0,0,0-.04-.41c0-.03-.11-.16-.11-.19s.02-.05.07-.05.71.1.71.22c0,.03-.12.13-.12.17a6.359,6.359,0,0,0-.03.78c0,.17,0,.37.18.37l.12-.02.22-.07a.475.475,0,0,0,.34-.25c.14-.22.15-.25.22-.25s.53.24.53.36a.837.837,0,0,1-.16.27c-.05.08-.02,1.2-.04,1.42-.08.95-.64,1-.66,1s-.03-.02-.08-.13a.942.942,0,0,0-.32-.38c-.02-.03-.22-.09-.22-.12s.02-.03.28-.03c.45,0,.45-.14.45-.94,0-.68,0-.74-.18-.74a.274.274,0,0,0-.12.02l-.3.08c-.12.03-.25.07-.25.33s.04,1.57.04,1.69a.42.42,0,0,1-.4.43.142.142,0,0,1-.12-.07V8.27c0-.18,0-1.39-.02-1.48a.139.139,0,0,0-.13-.13.386.386,0,0,0-.11.02l-.28.08c-.22.07-.22.17-.22.44V8.98c0,.55.19.55.98.55a5.368,5.368,0,0,0,1.34-.11c.17-.04.21-.09.33-.32.07-.13.36-.89.38-.89s.03.07.03.08c0,.04-.02.25-.02.3a.879.879,0,0,0,.11.51,1.344,1.344,0,0,1,.12.24.8.8,0,0,1-.31.43c-.3.21-.77.25-2.03.25-.87,0-1.34-.05-1.39-.69,0-.07-.02-1.4-.02-2.03,0-.21,0-.3-.12-.3a3.071,3.071,0,0,0-.37.13c-.01,0-.02,0-.07-.03l-.21-.14s-.05-.03-.05-.04.51-.12.61-.16c.2-.07.2-.13.2-.72a2.09,2.09,0,0,0-.09-.73c0-.03-.07-.18-.07-.21s.02-.06.07-.06c0,0,.76.22.76.31,0,.04-.17.2-.18.24a5.53,5.53,0,0,0-.02.6c0,.22.02.36.15.36a.721.721,0,0,0,.11-.02l.26-.08Z" fill="#11374c"/>
  <path id="パス_12" data-name="パス 12" d="M162.28,4.25c.19,0,.22,0,.35-.19.05-.07.15-.19.21-.19.09,0,.56.38.56.5s-.09.11-.23.11h-2.6c-.02,0-.13.02-.16.02s-.06-.02-.09-.06l-.11-.15a.558.558,0,0,1-.05-.08c0-.02.03-.02.04-.02.03,0,.17.03.2.03a5.053,5.053,0,0,0,.56.03h1.32Zm-.21,1.13c.17,0,.22,0,.33-.13s.15-.16.19-.16c.12,0,.5.29.5.41s-.1.11-.23.11h-1.79c-.04,0-.23.02-.27.02s-.05-.02-.07-.04l-.12-.2a.257.257,0,0,1-.02-.05c0-.02.02-.02.04-.02s.15.03.17.03a5.278,5.278,0,0,0,.59.03h.66Zm-.02,1.03c.17,0,.22,0,.3-.12.12-.17.16-.18.19-.18.11,0,.52.33.52.43s-.09.09-.22.09h-1.4c-.1,0-.58.02-.61.02-.05,0-.07-.02-.07-.04l-.12-.18a.257.257,0,0,1-.02-.05c0-.03.02-.03.03-.03.04,0,.25.03.29.03.29.02.32.02.47.02h.63Zm0-3.28c.17,0,.21,0,.32-.14.05-.06.15-.18.23-.18.1,0,.51.31.51.44,0,.1-.1.1-.23.1h-1.89c-.02,0-.14.02-.17.02s-.05-.02-.07-.05l-.11-.18a.2.2,0,0,1-.02-.06.032.032,0,0,1,.03-.03,2.336,2.336,0,0,1,.26.04c.31.02.34.03.51.03h.61Zm-.52,6.33c-.24,0-.24.09-.24.36,0,.36-.4.43-.45.43-.12,0-.17-.08-.17-.22,0-.22.02-1.25.02-1.48,0-.41-.02-.62-.04-.93,0-.05-.02-.21-.02-.24,0-.05,0-.07.03-.07a5.153,5.153,0,0,1,.52.21,1,1,0,0,0,.34.05h.61a.287.287,0,0,0,.27-.13c.12-.16.13-.17.2-.17.12,0,.45.29.45.41,0,.05-.02.07-.13.22a.2.2,0,0,0-.05.14c0,.21.04,1.23.04,1.46a.369.369,0,0,1-.39.34c-.16,0-.17-.07-.18-.22-.02-.1-.11-.14-.22-.14h-.61Zm-.05-1.68c-.17,0-.25.07-.25.22,0,.07.02,1.07.04,1.13.04.11.17.11.23.11h.62c.26,0,.26-.08.26-.41V7.95c0-.12-.12-.17-.23-.17h-.66Zm4.47-1.48a.664.664,0,0,0,.33-.06,1.869,1.869,0,0,1,.32-.2c.11,0,.46.43.46.55,0,.07-.02.08-.23.14-.14.04-.17.11-.44.66a4.948,4.948,0,0,1-.63.95c-.13.16-.15.17-.15.2a2.558,2.558,0,0,0,1.52.89c.1.03.52.11.61.13,0,0,.05.02.05.03a3.564,3.564,0,0,1-.55.21.794.794,0,0,0-.32.27c-.02.02-.04.05-.07.05a4.908,4.908,0,0,1-1.45-.96c-.15-.16-.17-.17-.21-.17s-.32.26-.39.31a4.825,4.825,0,0,1-1.73.9c-.02,0-.05,0-.05-.03s.16-.12.17-.13a6.265,6.265,0,0,0,1.57-1.26.447.447,0,0,0,.14-.21.913.913,0,0,0-.07-.14,5.439,5.439,0,0,1-.57-1.71c-.03-.17-.12-.17-.19-.17-.04,0-.28.02-.29.02-.05,0-.06-.02-.08-.05l-.17-.19a.163.163,0,0,1-.03-.06c0-.02.02-.02.04-.02s.28.03.33.03c.3.02.87.03,1.16.03h.92Zm-1.08-3.06c-.23,0-.23.12-.23.28,0,1.28-.35,1.66-.56,1.88a1.8,1.8,0,0,1-.74.51s-.03,0-.03-.02a1.569,1.569,0,0,1,.24-.29,2.376,2.376,0,0,0,.55-1.75c0-.17,0-.43-.02-.71,0-.05-.05-.27-.05-.32,0,0,0-.04.02-.04.05,0,.43.16.5.18a.646.646,0,0,0,.32.06h.48a.288.288,0,0,0,.22-.07c.05-.04.28-.28.36-.28.12,0,.44.39.44.49,0,.04-.02.07-.07.1a.914.914,0,0,0-.14.07,2.174,2.174,0,0,0-.07.76c0,.91,0,1.02.47,1.02.4,0,.42-.07.51-.34a3.458,3.458,0,0,1,.17-.58,6.933,6.933,0,0,1,.16.7c.02.05.17.24.17.29a.5.5,0,0,1-.24.34,1.484,1.484,0,0,1-.77.13c-.71,0-1-.08-1-.79V3.45c0-.21-.17-.21-.24-.21h-.45Zm-.11,3.28c-.24,0-.32.02-.32.13,0,.46.58,1.5.8,1.5s.9-1.26.9-1.49c0-.11-.09-.15-.2-.15h-1.17Z" fill="#11374c"/>
  <line id="線_2" data-name="線 2" x1="9.51" transform="translate(117.82 6.86)" fill="none" stroke="#11374c" stroke-miterlimit="10" stroke-width="0.3"/>
  <line id="線_3" data-name="線 3" x2="9.51" transform="translate(173.21 6.86)" fill="none" stroke="#11374c" stroke-miterlimit="10" stroke-width="0.3"/>
</svg>
