<svg id="info04-tit" xmlns="http://www.w3.org/2000/svg" width="679.74" height="21.34" viewBox="0 0 679.74 21.34">
  <path id="パス_43" data-name="パス 43" d="M141.69,6.62c-.26,0-.26,0-.5.23a5.665,5.665,0,0,1-1.41,1.01.02.02,0,0,1-.02-.02c0-.05,1.16-1.06,1.16-1.18,0-.05-.07-.05-.09-.05a3.934,3.934,0,0,0-.48.02c-.02,0-.16.02-.18.02s-.04-.02-.07-.05l-.12-.19a.163.163,0,0,1-.03-.06.02.02,0,0,1,.02-.02c.04,0,.21.02.24.02.08,0,.63.03.8.03.19,0,.22-.03.43-.3a3.412,3.412,0,0,0,.37-.52c0-.05-.06-.05-.11-.05h-.91c-.15,0-.62,0-.85.03-.02,0-.12.02-.14.02s-.04-.02-.06-.06l-.13-.19a.219.219,0,0,1-.03-.05c0-.02,0-.02.02-.02.04,0,.22.02.25.02.27.02.72.03.98.03h.22c.23,0,.25-.08.25-.28V4.44c0-.22-.14-.23-.27-.23-.04,0-.45,0-.6.02-.02,0-.08.02-.1.02s-.03-.02-.06-.06L140.14,4a.257.257,0,0,1-.02-.05c0-.02,0-.03.02-.03.07,0,.77.06.92.06.23,0,.23-.17.23-.27a5.147,5.147,0,0,0-.02-.56c0-.06-.03-.29-.03-.34s.03-.04.06-.04c.06,0,.41.07.49.08.13.03.2.05.2.13,0,.04-.15.17-.16.2a6.017,6.017,0,0,0-.02.62c0,.17.05.17.27.17.11,0,.14-.02.25-.15.15-.19.17-.22.22-.22s.22.17.27.17c.1,0,.23-.51.3-.51.12,0,.59.25.59.39,0,.07-.05.08-.13.11-.14.04-.15.07-.52.68-.12.18-.35.56-.5.8,0,.04.04.04.06.04.06,0,.14,0,.25-.14.2-.25.22-.27.28-.27.15,0,.52.46.52.53,0,.1-.16.1-.36.1h-.76c-.17,0-.2.03-.43.32a4.878,4.878,0,0,1-.35.41.152.152,0,0,0-.04.08c0,.05.05.05.14.05h.55c.16,0,.22-.03.26-.07a.941.941,0,0,1,.22-.12c.13,0,.44.41.44.49,0,.05-.03.06-.09.08a4.536,4.536,0,0,0-.92.42.436.436,0,0,0-.24.46c0,.28,0,.32.1.32.12,0,1.22-.37,1.44-.45a.9.9,0,0,1,.22-.07.046.046,0,0,1,.05.04c0,.07-.2.18-1.35.66-.41.17-.45.19-.45.38,0,.14.02.76.02.89a.909.909,0,0,1-.19.62.709.709,0,0,1-.39.22c-.05,0-.18-.18-.22-.21a1.074,1.074,0,0,0-.42-.21c-.03,0-.12-.04-.12-.09s.08-.05.12-.05.22.02.25.02c.46,0,.46-.12.46-.8,0-.37,0-.41-.11-.41a8.785,8.785,0,0,0-1.15.37c-.03.03-.18.17-.22.17-.14,0-.42-.65-.42-.66s.02-.02.07-.02a9.969,9.969,0,0,0,1.57-.22c.22-.04.26-.08.26-.3a1.993,1.993,0,0,0-.04-.46c0-.04-.08-.2-.08-.23s.02-.05.06-.05.44.09.49.09c.17,0,.47-.5.47-.54,0-.06-.05-.06-.18-.06h-.6Zm.37-2.4c-.16,0-.26.03-.26.24v.71c0,.05,0,.15.16.15.07,0,.08-.03.22-.23a4.55,4.55,0,0,0,.43-.8c0-.07-.07-.07-.19-.07h-.36Zm3.74.51c.31,0,.34,0,.43-.14.19-.27.21-.31.29-.31a1.882,1.882,0,0,1,.66.56c0,.12-.13.12-.36.12h-.53c-.07,0-.1,0-.1.02s.02.02.12.08c.15.07.17.14.17.17s-.12.14-.14.17a1.66,1.66,0,0,0-.22.61,6.661,6.661,0,0,1-.61,1.69.777.777,0,0,0-.11.3,3.535,3.535,0,0,0,1.04,1.31,3.849,3.849,0,0,0,.68.46c.04.02.13.06.13.12s-.11.07-.16.07a.918.918,0,0,0-.44.08c-.06.02-.27.2-.33.2a3.632,3.632,0,0,1-1.1-1.37c-.13-.24-.14-.27-.2-.27s-.06.02-.23.22a4.708,4.708,0,0,1-2.16,1.5c-.02,0-.07,0-.07-.03l.45-.32a6.121,6.121,0,0,0,1.56-1.54c.19-.29.22-.32.22-.42s-.17-.56-.19-.66a9.539,9.539,0,0,1-.35-2.12c0-.02,0-.07-.02-.07,0,0-.28.49-.34.58a1.9,1.9,0,0,1-.69.67c-.02,0-.03-.02-.03-.04s.18-.3.22-.36a7.869,7.869,0,0,0,.89-2.4,4.857,4.857,0,0,0,.09-.65c0-.17,0-.19.06-.19a2.726,2.726,0,0,1,.79.37c0,.05-.26.14-.28.19-.02.07-.33.96-.41,1.14-.07.16-.07.17-.07.21,0,.06.04.06.14.06h1.2Zm-1.2.22c-.12,0-.17.02-.17.13a9.339,9.339,0,0,0,.47,1.97c.07.23.11.34.21.34.07,0,.19-.32.24-.45a6.47,6.47,0,0,0,.39-1.72c0-.25-.08-.27-.24-.27h-.9Z" fill="#11374c"/>
  <path id="パス_44" data-name="パス 44" d="M149.88,4.03a10.118,10.118,0,0,0-1.05.03c-.03,0-.15.02-.17.02s-.05-.02-.07-.05l-.17-.19a.163.163,0,0,1-.03-.06s0-.02.03-.02c.06,0,.31.02.37.02.41.02.75.03,1.14.03h1.68c.23,0,.23-.15.23-.24a4.519,4.519,0,0,0-.02-.52c0-.04-.11-.21-.11-.25s.02-.07.12-.07c.06,0,.85.13.85.32,0,.04-.04.07-.15.13-.05.02-.07.04-.07.41,0,.12.03.22.23.22h1.39c.36,0,.39,0,.47-.08s.31-.49.4-.49c.07,0,.89.53.89.66s-.16.12-.44.12h-3.98c-.07,0-.08,0-.08.03a.972.972,0,0,0,.25.12c.22.1.25.13.25.18,0,.08-.03.09-.28.12a8.114,8.114,0,0,0-.79.47c-.03.03-.19.11-.19.13,0,.05.06.05.07.05,1.29,0,2.7-.08,3.35-.12.37-.02.4-.02.4-.1,0-.11-.46-.61-.46-.68,0-.02,0-.03.02-.03.13,0,1.63.77,1.63,1.5a.336.336,0,0,1-.32.32c-.17,0-.21-.06-.51-.61-.14-.27-.22-.27-.31-.27-.22,0-.56.07-.78.09-.69.08-3.9.34-4.33.46a3.371,3.371,0,0,1-.32.17c-.12,0-.39-.83-.39-.84s0-.05.02-.05a2.454,2.454,0,0,1,.29.08,5.961,5.961,0,0,0,.89.06c.36,0,.38,0,.6-.23a3.545,3.545,0,0,0,.62-.81c0-.08-.07-.08-.13-.08h-1Zm.92,4.23c-.13,0-.22.02-.25.17V9.79c0,.22,0,.51-.38.51-.26,0-.26-.18-.26-.28,0-.08.02-.49.02-.57.02-.63.02-2.33.02-3.03V6.16s-.06-.23-.06-.27c0-.02,0-.06.04-.06a4.851,4.851,0,0,1,.56.2,1.135,1.135,0,0,0,.45.08h2.48a.268.268,0,0,0,.22-.07c.03-.03.17-.24.22-.24s.69.38.69.5c0,.05-.02.06-.16.13a.191.191,0,0,0-.11.2v2.7c0,.41-.09.57-.32.72a.975.975,0,0,1-.43.19.172.172,0,0,1-.14-.08,1.3,1.3,0,0,0-.41-.4c-.06-.03-.37-.17-.37-.18,0-.03.07-.03.11-.03a3.035,3.035,0,0,0,.94-.11c.02-.03.02-.82.02-.89,0-.25-.07-.29-.27-.29h-2.64Zm2.62-.22c.27,0,.27-.08.27-.43,0-.18,0-.31-.27-.31h-2.6c-.28,0-.28.1-.28.44,0,.19,0,.3.27.3Zm-2.6-1.71c-.26,0-.26.09-.26.45,0,.18,0,.31.26.31h2.61c.26,0,.26-.05.26-.57,0-.18-.19-.18-.26-.18h-2.61Z" fill="#11374c"/>
  <path id="パス_45" data-name="パス 45" d="M158.75,4.52s-.06,0-.06.03.08.07.13.09.13.08.13.12-.13.17-.14.2c-.02.09-.06.68-.06.73,0,.09.02.22.23.22h.29a.282.282,0,0,0,.27-.12c.06-.07.16-.19.19-.19.06,0,.56.38.56.49,0,.05-.12.16-.18.21s-.07.09-.07.31a9.3,9.3,0,0,1-.42,2.75,1.622,1.622,0,0,1-.51.75.91.91,0,0,1-.39.17c-.04,0-.04-.03-.06-.13a.99.99,0,0,0-.42-.64s-.08-.06-.08-.08c0,0,.02-.02.03-.02s.42.1.49.1c.25,0,.42,0,.61-.91a16.133,16.133,0,0,0,.24-2.23c0-.11-.03-.22-.24-.22h-.35c-.23,0-.24.09-.27.33-.33,2.58-1.43,3.48-1.57,3.48a.02.02,0,0,1-.02-.02s.37-.61.41-.71a10.647,10.647,0,0,0,.74-3.97c0-.67,0-.72-.23-.72-.1,0-.61.04-.69.04-.03,0-.05-.02-.07-.06l-.16-.19s-.04-.04-.04-.05.02-.02.03-.02c.16,0,.87.05,1.01.05.17,0,.26-.03.26-.22a5.377,5.377,0,0,0-.06-.98c0-.05-.11-.29-.11-.31s.02-.03.04-.03c0,0,.94.19.94.32,0,.05-.18.22-.21.26a1.883,1.883,0,0,0-.07.66c0,.17,0,.31.22.31s.24,0,.29-.04c.07-.06.25-.46.33-.46.1,0,.64.44.64.59s-.1.14-.19.14h-1.43Zm2.42-.05c-.24,0-.27.04-.58.45-.08.12-.38.51-.45.51a.02.02,0,0,1-.02-.02c0-.03.16-.31.18-.37a7.8,7.8,0,0,0,.68-2.12c0-.03-.02-.17-.02-.19a.066.066,0,0,1,.06-.07,6.139,6.139,0,0,1,.71.37c.06.03.11.05.11.12,0,.05-.02.06-.15.16a3.683,3.683,0,0,0-.55.87c0,.08.09.08.16.08h1.8c.32,0,.33-.02.37-.06.06-.07.27-.44.35-.44.05,0,.76.51.76.63,0,.09-.24.09-.55.09h-2.86Zm.74,2.05a.261.261,0,0,0,.23-.2c.02-.07.02-.82.02-.96a1.215,1.215,0,0,0-.04-.41c0-.03-.11-.16-.11-.19s.02-.05.07-.05.71.1.71.22c0,.03-.12.13-.12.17a6.359,6.359,0,0,0-.03.78c0,.17,0,.37.18.37l.12-.02.22-.07a.475.475,0,0,0,.34-.25c.14-.22.15-.25.22-.25s.53.24.53.36a.837.837,0,0,1-.16.27c-.05.08-.02,1.2-.04,1.42-.08.95-.64,1-.66,1s-.03-.02-.08-.13a.942.942,0,0,0-.32-.38c-.02-.03-.22-.09-.22-.12s.02-.03.28-.03c.45,0,.45-.14.45-.94,0-.68,0-.74-.18-.74a.274.274,0,0,0-.12.02l-.3.08c-.12.03-.25.07-.25.33s.04,1.57.04,1.69a.42.42,0,0,1-.4.43.142.142,0,0,1-.12-.07V8.33c0-.18,0-1.39-.02-1.48a.139.139,0,0,0-.13-.13.386.386,0,0,0-.11.02l-.28.08c-.22.07-.22.17-.22.44V9.04c0,.55.19.55.98.55a5.368,5.368,0,0,0,1.34-.11c.17-.04.21-.09.33-.32.07-.13.36-.89.38-.89s.03.07.03.08c0,.04-.02.25-.02.3a.879.879,0,0,0,.11.51,1.344,1.344,0,0,1,.12.24.8.8,0,0,1-.31.43c-.3.21-.77.25-2.03.25-.87,0-1.34-.05-1.39-.69,0-.07-.02-1.4-.02-2.03,0-.21,0-.3-.12-.3a3.071,3.071,0,0,0-.37.13c-.01,0-.02,0-.07-.03l-.21-.14s-.05-.03-.05-.04.51-.12.61-.16c.2-.07.2-.13.2-.72a2.09,2.09,0,0,0-.09-.73c0-.03-.07-.18-.07-.21s.02-.06.07-.06c0,0,.76.22.76.31,0,.04-.17.2-.18.24s-.02.51-.02.6c0,.22.02.36.15.36a.721.721,0,0,0,.11-.02l.26-.08Z" fill="#11374c"/>
  <path id="パス_46" data-name="パス 46" d="M167.96,4.32c.19,0,.22,0,.35-.19.05-.07.15-.19.21-.19.09,0,.56.38.56.5s-.09.11-.23.11h-2.6c-.02,0-.13.02-.16.02s-.06-.02-.09-.06l-.11-.15a.558.558,0,0,1-.05-.08c0-.02.03-.02.04-.02.03,0,.17.03.2.03a5.053,5.053,0,0,0,.56.03h1.32Zm-.21,1.13c.17,0,.22,0,.33-.13s.15-.16.19-.16c.12,0,.5.29.5.41s-.1.11-.23.11h-1.79c-.04,0-.23.02-.27.02s-.05-.02-.07-.04l-.12-.2a.257.257,0,0,1-.02-.05c0-.02.02-.02.04-.02s.15.03.17.03a5.278,5.278,0,0,0,.59.03h.66Zm-.02,1.03c.17,0,.22,0,.3-.12.12-.17.16-.18.19-.18.11,0,.52.33.52.43s-.09.09-.22.09h-1.4c-.1,0-.58.02-.61.02-.05,0-.07-.02-.07-.04l-.12-.18a.257.257,0,0,1-.02-.05c0-.03.02-.03.03-.03.04,0,.25.03.29.03.29.02.32.02.47.02h.63Zm0-3.28c.17,0,.21,0,.32-.14.05-.06.15-.18.23-.18.1,0,.51.31.51.44,0,.1-.1.1-.23.1h-1.89c-.02,0-.14.02-.17.02s-.05-.02-.07-.05l-.11-.18a.2.2,0,0,1-.02-.06.032.032,0,0,1,.03-.03,2.336,2.336,0,0,1,.26.04c.31.02.34.03.51.03h.61Zm-.52,6.33c-.24,0-.24.09-.24.36,0,.36-.4.43-.45.43-.12,0-.17-.08-.17-.22,0-.22.02-1.25.02-1.48,0-.41-.02-.62-.04-.93,0-.05-.02-.21-.02-.24,0-.05,0-.07.03-.07a5.153,5.153,0,0,1,.52.21,1,1,0,0,0,.34.05h.61a.287.287,0,0,0,.27-.13c.12-.16.13-.17.2-.17.12,0,.45.29.45.41,0,.05-.02.07-.13.22a.2.2,0,0,0-.05.14c0,.21.04,1.23.04,1.46a.369.369,0,0,1-.39.34c-.16,0-.17-.07-.18-.22-.02-.1-.11-.14-.22-.14h-.61Zm-.05-1.68c-.17,0-.25.07-.25.22,0,.07.02,1.07.04,1.13.04.11.17.11.23.11h.62c.26,0,.26-.08.26-.41V8.02c0-.12-.12-.17-.23-.17h-.66Zm4.47-1.48a.664.664,0,0,0,.33-.06,1.869,1.869,0,0,1,.32-.2c.11,0,.46.43.46.55,0,.07-.02.08-.23.14-.14.04-.17.11-.44.66a4.948,4.948,0,0,1-.63.95c-.13.16-.15.17-.15.2a2.558,2.558,0,0,0,1.52.89c.1.03.52.11.61.13,0,0,.05.02.05.03a3.564,3.564,0,0,1-.55.21.794.794,0,0,0-.32.27c-.02.02-.04.05-.07.05a4.908,4.908,0,0,1-1.45-.96c-.15-.16-.17-.17-.21-.17s-.32.26-.39.31a4.825,4.825,0,0,1-1.73.9c-.02,0-.05,0-.05-.03s.16-.12.17-.13a6.265,6.265,0,0,0,1.57-1.26.447.447,0,0,0,.14-.21.913.913,0,0,0-.07-.14,5.439,5.439,0,0,1-.57-1.71c-.03-.17-.12-.17-.19-.17-.04,0-.28.02-.29.02-.05,0-.06-.02-.08-.05l-.17-.19a.163.163,0,0,1-.03-.06c0-.02.02-.02.04-.02s.28.03.33.03c.3.02.87.03,1.16.03h.92Zm-1.08-3.06c-.23,0-.23.12-.23.28,0,1.28-.35,1.66-.56,1.88a1.8,1.8,0,0,1-.74.51s-.03,0-.03-.02a1.569,1.569,0,0,1,.24-.29,2.376,2.376,0,0,0,.55-1.75c0-.17,0-.43-.02-.71,0-.05-.05-.27-.05-.32,0,0,0-.04.02-.04.05,0,.43.16.5.18a.646.646,0,0,0,.32.06h.48a.288.288,0,0,0,.22-.07c.05-.04.28-.28.36-.28.12,0,.44.39.44.49,0,.04-.02.07-.07.1a.914.914,0,0,0-.14.07,2.174,2.174,0,0,0-.07.76c0,.91,0,1.02.47,1.02.4,0,.42-.07.51-.34a3.458,3.458,0,0,1,.17-.58,6.933,6.933,0,0,1,.16.7c.02.05.17.24.17.29a.5.5,0,0,1-.24.34,1.484,1.484,0,0,1-.77.13c-.71,0-1-.08-1-.79V3.52c0-.21-.17-.21-.24-.21h-.45Zm-.11,3.28c-.24,0-.32.02-.32.13,0,.46.58,1.5.8,1.5s.9-1.26.9-1.49c0-.11-.09-.15-.2-.15h-1.17Z" fill="#11374c"/>
  <line id="線_10" data-name="線 10" x2="679.74" transform="translate(0 18.63)" fill="none" stroke="#11374c" stroke-miterlimit="10" stroke-width="0.5"/>
  <rect id="長方形_4" data-name="長方形 4" width="105.85" height="5.42" transform="translate(0 15.92)" fill="#11374c"/>
  <line id="線_11" data-name="線 11" x1="9.51" transform="translate(124.67 6.93)" fill="none" stroke="#11374c" stroke-miterlimit="10" stroke-width="0.3"/>
  <line id="線_12" data-name="線 12" x2="9.51" transform="translate(178.81 6.93)" fill="none" stroke="#11374c" stroke-miterlimit="10" stroke-width="0.3"/>
  <path id="パス_47" data-name="パス 47" d="M3.62,3.53A9.481,9.481,0,0,0,3.45,1.3C3.23.73,2.54.73,2,.73V.28h8.35V2.82H9.96C9.64.85,8.77.74,6.99.74H5.78c-.52,0-.44-.05-.44.69V5.41c2.3.1,2.64-.86,2.74-2.07h.39c-.02.76-.03,1.53-.07,2.29.03.69.05,1.39.07,2.08H8.08C7.84,5.95,6.95,5.86,5.34,5.86V8.62a3.251,3.251,0,0,0,.3,1.7c.44.59,1.48.62,2.15.61,1.75-.03,2.89-.25,3.11-2.25h.39l-.15,2.71H2.01V11c.54,0,1.23,0,1.45-.57A9.523,9.523,0,0,0,3.63,8.2V3.53Z" fill="#11374c"/>
  <path id="パス_48" data-name="パス 48" d="M14.46,3.49a10.716,10.716,0,0,0-.15-2.23c-.18-.59-.89-.57-1.43-.57V.27c.69.02,1.41.05,2.12.07.91-.02,1.81-.05,2.72-.07,3.54-.07,6.23,2.15,6.23,5.8s-2.34,5.41-5.8,5.33c-.99-.02-2-.05-2.99-.07-.77.02-1.53.05-2.28.07v-.39c.54,0,1.24,0,1.43-.57a10.764,10.764,0,0,0,.15-2.23V3.49Zm1.73,4.94a3.435,3.435,0,0,0,.27,1.86,2.235,2.235,0,0,0,1.88.64c2.94,0,3.51-2.12,3.51-4.6C21.85,3,20.89.72,17.3.72c-.2,0-.86-.03-1.01.12-.1.1-.1.39-.1.52V8.43Z" fill="#11374c"/>
  <path id="パス_49" data-name="パス 49" d="M36.2,6.94c0,3.06-1.19,4.64-4.38,4.64-3.01,0-4.47-1.06-4.47-4.1V3.46a9.481,9.481,0,0,0-.17-2.23c-.22-.57-.91-.57-1.44-.57V.27c.79.02,1.6.05,2.39.07.86-.02,1.7-.05,2.55-.07V.66c-.54,0-1.24-.02-1.44.57a10.764,10.764,0,0,0-.15,2.23V7.59c0,2.15.84,3.38,3.14,3.38s3.48-1.21,3.48-3.46V3.83a11.086,11.086,0,0,0-.17-2.4C35.3.72,34.63.66,33.98.66V.27c.66.02,1.29.05,1.95.07.62-.02,1.24-.05,1.88-.07V.66c-.54.02-1.13,0-1.36.6a9.092,9.092,0,0,0-.24,2.57V6.94Z" fill="#11374c"/>
  <path id="パス_50" data-name="パス 50" d="M49.13.32h.25l.13,3.31h-.39A3.494,3.494,0,0,0,45.58.45c-3.01,0-3.91,2.97-3.91,5.49s.97,5.24,3.95,5.24c2.35,0,3.21-1.68,3.71-3.7h.3v3.68h-.22l-.4-.86a5.607,5.607,0,0,1-3.71,1.26,5.354,5.354,0,0,1-5.73-5.63A5.656,5.656,0,0,1,45.45.07a5.768,5.768,0,0,1,3.41,1.04Z" fill="#11374c"/>
  <path id="パス_51" data-name="パス 51" d="M53.28,7.74a9.743,9.743,0,0,0-.81,2.54c0,.72.86.67,1.36.72v.39c-.62-.02-1.23-.05-1.85-.07-.59.02-1.16.05-1.75.07V11a1.619,1.619,0,0,0,1.61-1.19c.47-1.08.92-2.13,1.39-3.21L55.8,0h.57l3.39,8.53a12.485,12.485,0,0,0,.87,1.85,1.856,1.856,0,0,0,1.45.62v.39c-.79-.02-1.6-.05-2.39-.07-.81.02-1.63.05-2.44.07V11c.47-.02,1.29.02,1.29-.64a3.79,3.79,0,0,0-.34-1.31l-.66-1.73H53.39l-.15.42Zm4.08-.96L55.51,2.04,53.65,6.78Z" fill="#11374c"/>
  <path id="パス_52" data-name="パス 52" d="M72.06,2.89h-.45c-.1-1.65-.74-2.08-2.32-2.08-.62,0-1.63-.08-1.63.45V9.22c0,1.24.23,1.71,1.86,1.78v.39c-.92-.02-1.86-.05-2.79-.07-.89.02-1.76.05-2.67.07V11c1.63-.07,1.87-.54,1.87-1.78V1.26c0-.5-.74-.45-1.41-.45-1.66,0-2.47.08-2.54,2.08h-.39V.27H71.91l.15,2.62Z" fill="#11374c"/>
  <path id="パス_53" data-name="パス 53" d="M74.92,3.46a9.481,9.481,0,0,0-.17-2.23c-.22-.57-.91-.57-1.44-.57V.27c.81.02,1.61.05,2.42.07.86-.02,1.7-.05,2.54-.07V.66c-.54,0-1.23,0-1.45.57a9.524,9.524,0,0,0-.17,2.23V8.2a9.481,9.481,0,0,0,.17,2.23c.22.57.91.57,1.45.57v.39c-.79-.02-1.61-.05-2.42-.07-.84.02-1.7.05-2.54.07V11c.54,0,1.23,0,1.44-.57a9.524,9.524,0,0,0,.17-2.23Z" fill="#11374c"/>
  <path id="パス_54" data-name="パス 54" d="M80.01,5.86A6,6,0,0,1,86.17.06,5.8,5.8,0,0,1,92.2,5.74a5.881,5.881,0,0,1-6.1,5.83c-3.4,0-6.1-2.34-6.1-5.71Zm2.1,0c0,2.64,1.04,5.26,4.1,5.26s3.9-2.81,3.9-5.31S89.07.52,86.11.52s-4,2.86-4,5.34Z" fill="#11374c"/>
  <path id="パス_55" data-name="パス 55" d="M95.62,1.66A1.932,1.932,0,0,0,93.79.65V.26c.54.02,1.06.05,1.6.07.44-.02.89-.05,1.33-.07l7.09,8.65h.03V4.24a14.838,14.838,0,0,0-.15-2.59c-.2-.94-.66-.87-1.5-1.01V.25c.62.02,1.23.05,1.85.07.59-.02,1.16-.05,1.78-.07V.64c-.62.07-1.06.02-1.28.74a16.241,16.241,0,0,0-.2,2.94v7.24h-.5c-.37-.45-.74-.92-1.11-1.39L96.16,2.21h-.03V7.86a8.013,8.013,0,0,0,.25,2.45c.29.66.84.62,1.46.69v.39c-.64-.02-1.29-.05-1.93-.07-.62.02-1.24.05-1.86.07V11c.65-.07,1.28-.1,1.44-.82a13.6,13.6,0,0,0,.13-2.32V1.66Z" fill="#11374c"/>
</svg>
