<svg id="info05-tit-sp" xmlns="http://www.w3.org/2000/svg" width="300" height="21.34" viewBox="0 0 300 21.34">
  <path id="パス_56" data-name="パス 56" d="M14.22,9.19c0,1.6.05,1.68,1.66,1.81v.39c-.87-.02-1.7-.05-2.52-.07-.84.02-1.7.05-2.54.07V11c1.61-.13,1.66-.22,1.66-1.81V1.86h-.03L10.53,6.55c-.71,1.61-1.39,3.23-2.1,4.84H8.26L4.19,1.86H4.16V8.93c0,1.31.25,2,1.61,2.07v.39c-.62-.02-1.24-.05-1.87-.07-.59.02-1.18.05-1.76.07V11c1.28,0,1.51-.77,1.51-1.53V2.32A3.642,3.642,0,0,0,3.5,1.23C3.28.66,2.59.66,2.06.66V.27c.57.03,1.13.05,1.7.07C4.28.32,4.79.31,5.31.27l3.7,8.6L12.59.27c.52.03,1.06.05,1.58.07.54-.02,1.08-.03,1.66-.07v.4c-.54,0-1.19.02-1.44.57a6.038,6.038,0,0,0-.17,1.86V9.18Z" fill="#11374c"/>
  <path id="パス_57" data-name="パス 57" d="M18.83,3.53a9.481,9.481,0,0,0-.17-2.23c-.22-.57-.91-.57-1.45-.57V.28h8.35V2.82h-.39C24.85.85,23.98.74,22.2.74H20.99c-.52,0-.44-.05-.44.69V5.41c2.3.1,2.64-.86,2.74-2.07h.39c-.02.76-.03,1.53-.07,2.29.03.69.05,1.39.07,2.08h-.39c-.24-1.76-1.13-1.85-2.74-1.85V8.62a3.251,3.251,0,0,0,.3,1.7c.44.59,1.48.62,2.15.61,1.75-.03,2.89-.25,3.11-2.25h.39l-.15,2.71H17.21V11c.54,0,1.23,0,1.45-.57a9.523,9.523,0,0,0,.17-2.23Z" fill="#11374c"/>
  <path id="パス_58" data-name="パス 58" d="M29.66,3.49a10.716,10.716,0,0,0-.15-2.23c-.18-.59-.89-.57-1.43-.57V.27c.69.02,1.41.05,2.12.07.91-.02,1.81-.05,2.72-.07,3.54-.07,6.23,2.15,6.23,5.8s-2.34,5.41-5.8,5.33c-.99-.02-2-.05-2.99-.07-.77.02-1.53.05-2.28.07v-.39c.54,0,1.24,0,1.43-.57a10.764,10.764,0,0,0,.15-2.23V3.49Zm1.73,4.94a3.435,3.435,0,0,0,.27,1.86,2.235,2.235,0,0,0,1.88.64c2.94,0,3.51-2.12,3.51-4.6C37.05,3,36.09.72,32.5.72c-.2,0-.86-.03-1.01.12-.1.1-.1.39-.1.52Z" fill="#11374c"/>
  <path id="パス_59" data-name="パス 59" d="M42.63,3.46a9.481,9.481,0,0,0-.17-2.23c-.22-.57-.91-.57-1.44-.57V.27c.81.02,1.61.05,2.42.07.86-.02,1.7-.05,2.54-.07V.66c-.54,0-1.23,0-1.45.57a9.524,9.524,0,0,0-.17,2.23V8.2a9.481,9.481,0,0,0,.17,2.23c.22.57.91.57,1.45.57v.39c-.79-.02-1.61-.05-2.42-.07-.84.02-1.7.05-2.54.07V11c.54,0,1.23,0,1.44-.57a9.524,9.524,0,0,0,.17-2.23Z" fill="#11374c"/>
  <path id="パス_60" data-name="パス 60" d="M57.28.32h.25l.13,3.31h-.39A3.494,3.494,0,0,0,53.73.45c-3.01,0-3.91,2.97-3.91,5.49s.97,5.24,3.95,5.24c2.35,0,3.21-1.68,3.71-3.7h.3v3.68h-.22l-.4-.86a5.607,5.607,0,0,1-3.71,1.26,5.354,5.354,0,0,1-5.73-5.63A5.656,5.656,0,0,1,53.6.07a5.768,5.768,0,0,1,3.41,1.04Z" fill="#11374c"/>
  <path id="パス_61" data-name="パス 61" d="M61.43,7.74a9.743,9.743,0,0,0-.81,2.54c0,.72.86.67,1.36.72v.39c-.62-.02-1.23-.05-1.85-.07-.59.02-1.16.05-1.75.07V11a1.619,1.619,0,0,0,1.61-1.19c.47-1.08.92-2.13,1.39-3.21L63.95,0h.57l3.39,8.53a12.485,12.485,0,0,0,.87,1.85,1.856,1.856,0,0,0,1.45.62v.39c-.79-.02-1.6-.05-2.39-.07-.81.02-1.63.05-2.44.07V11c.47-.02,1.29.02,1.29-.64a3.79,3.79,0,0,0-.34-1.31l-.66-1.73H61.54l-.15.42Zm4.08-.96L63.66,2.04,61.8,6.78Z" fill="#11374c"/>
  <path id="パス_62" data-name="パス 62" d="M72.33,3.46a9.481,9.481,0,0,0-.17-2.23c-.22-.57-.91-.57-1.45-.57V.27c.81.02,1.6.05,2.4.07.86-.02,1.7-.05,2.55-.07V.66c-.54,0-1.23,0-1.44.57a9.524,9.524,0,0,0-.17,2.23V8.43c0,2.15.34,2.5,2.47,2.5a4.3,4.3,0,0,0,2.38-.42c.84-.52.94-1.16,1.09-2.1h.42l-.15,2.97c-.29-.02-.59-.03-.87-.07-2.89.05-5.8.05-8.69.07v-.39c.54,0,1.23,0,1.45-.57a9.524,9.524,0,0,0,.17-2.23V3.46Z" fill="#11374c"/>
  <path id="パス_63" data-name="パス 63" d="M116.21,9.77s-.21,0-.23.16-.06.36-.38.36c-.1,0-.29,0-.29-.31,0-.16.02-.41.02-.46.04-.63.04-2.98.04-3.66a20.911,20.911,0,0,0-.1-2.56c0-.05-.07-.31-.07-.37a.058.058,0,0,1,.06-.06c.02,0,.54.25.6.28a.874.874,0,0,0,.46.11h4.02c.32,0,.37-.02.42-.08s.27-.49.37-.49c.12,0,.76.53.76.67,0,.12-.2.12-.51.12h-5.19c-.27,0-.27.09-.27.48,0,.57-.03,3.4-.03,4.03a10.937,10.937,0,0,0,.06,1.44c.03.14.17.14.26.14h4.47c.37,0,.42,0,.51-.19.15-.29.19-.32.27-.32.12,0,.71.43.71.6,0,.13-.27.13-.67.13h-5.28Zm3.87-5.07c.36,0,.42,0,.51-.2.05-.12.17-.35.25-.35.12,0,.68.44.68.61s-.27.16-.62.16h-1.14c-.11,0-.25,0-.27.21a8.22,8.22,0,0,1-.12,1.1V6.3c0,.15.12.15.26.15h.71c.32,0,.37-.02.43-.07.07-.08.31-.48.39-.48.06,0,.81.53.81.66s-.16.12-.44.12H119.7s-.1,0-.1.06a3.954,3.954,0,0,0,2.56,1.68c.11.02.12.02.12.02a2.2,2.2,0,0,1-.32.12,1.717,1.717,0,0,0-.49.4.091.091,0,0,1-.07.03,4.189,4.189,0,0,1-1.95-2.05c-.09-.2-.11-.22-.14-.22s-.05.02-.12.23a3.568,3.568,0,0,1-2.77,2.31c-.02,0-.04,0-.04-.03s.12-.08.16-.1a3.689,3.689,0,0,0,2.13-2.31c0-.14-.1-.14-.17-.14h-.58c-.73,0-.97.02-1.05.02-.02,0-.15.02-.17.02s-.04-.02-.07-.05l-.16-.19a.163.163,0,0,1-.03-.06.02.02,0,0,1,.02-.02c.06,0,.32.03.37.03.41.03.76.03,1.14.03h.6a.207.207,0,0,0,.22-.11,6.269,6.269,0,0,0,.09-1.16c0-.26-.13-.27-.26-.27h-.58a.416.416,0,0,0-.44.22,3.455,3.455,0,0,1-.91.85c-.02,0-.02,0-.02-.02s.24-.37.28-.45a5.1,5.1,0,0,0,.71-1.88c0-.05.02-.05.05-.05a4.557,4.557,0,0,1,.6.18c.06.02.15.06.15.15,0,.07-.02.07-.16.15a1.524,1.524,0,0,0-.32.55c0,.07.08.07.19.07h1.91Z" fill="#11374c"/>
  <path id="パス_64" data-name="パス 64" d="M126.79,3.73c.25,0,.25-.11.25-.4a1.416,1.416,0,0,0-.02-.29.88.88,0,0,1-.06-.17c0-.05.06-.07.11-.07.11,0,.81.17.81.33,0,.04-.06.08-.17.17a.288.288,0,0,0-.07.2c0,.22.14.22.27.22h1.5c.38,0,.4,0,.61-.25.18-.22.21-.24.27-.24a2.158,2.158,0,0,1,.71.59c0,.12-.04.12-.44.12h-5.09c-.28,0-.32.08-.32.36,0,2.81,0,3.38-.37,4.31a2.967,2.967,0,0,1-1.09,1.46c-.02,0-.04,0-.04-.03s.34-.55.4-.66a5.536,5.536,0,0,0,.57-2.6c0-.04,0-.17-.05-.17a2.348,2.348,0,0,0-.47.87c-.1.32-.12.35-.18.35-.12,0-.41-.66-.47-.82a.047.047,0,0,1,.05-.05h.12c.15,0,.32-.16.61-.43.36-.34.4-.37.4-.64a11.864,11.864,0,0,0-.1-2.11c0-.06-.07-.29-.07-.34a.071.071,0,0,1,.07-.08,1.388,1.388,0,0,1,.45.2c.27.17.32.16.47.16h1.34Zm-2.71,1.92c-.22,0-.24-.12-.28-.48a3.4,3.4,0,0,0-.15-.61c0-.03-.1-.18-.1-.22,0-.02,0-.04.05-.04a.972.972,0,0,1,.34.19,1.241,1.241,0,0,1,.42.8c0,.24-.1.36-.28.36Zm2.79,3.22c0,.07-.05.07-.21.1-.2.14-.48.32-.61.41a7.644,7.644,0,0,1-1.8.82c-.02,0-.03,0-.03-.02a1.5,1.5,0,0,1,.24-.18,5.907,5.907,0,0,0,1.64-1.49c.02-.03.04-.07.08-.07a1.807,1.807,0,0,1,.33.14C126.75,8.7,126.87,8.76,126.87,8.87Zm-.03-.76a.228.228,0,0,0-.2.07.331.331,0,0,1-.31.14c-.23,0-.23-.17-.23-.25,0-.14.06-1.17.06-1.39,0-.07-.03-.08-.05-.08-.07,0-.6.49-.72.49l-.02-.02c0-.12.62-.7.62-.8a2.957,2.957,0,0,0-.27-.49c-.04-.06-.31-.36-.31-.37,0-.03.03-.04.11-.04a1.548,1.548,0,0,1,.75.25c.02.03.12.16.16.16a2.292,2.292,0,0,0,.51-.68c0-.08-.07-.08-.12-.08-.6,0-.85.02-.9.02-.03,0-.15.02-.17.02s-.05-.02-.07-.06l-.17-.19a.219.219,0,0,1-.03-.05c0-.02,0-.02.03-.02.05,0,.3.02.35.03.17,0,.74.02,1.1.02.16,0,.27-.03.4-.49a2.048,2.048,0,0,1,.05-.24.075.075,0,0,1,.08-.05c.04,0,.48.12.57.13.05,0,.16.03.16.12s-.04.1-.21.18a.414.414,0,0,0-.2.28c0,.07.06.07.1.07h1.44c.34,0,.38,0,.45-.06s.33-.38.41-.38a1.86,1.86,0,0,1,.63.55c0,.12-.17.12-.44.12h-1.71s-.1,0-.1.05a1.879,1.879,0,0,0,.66.71c.09,0,.11-.02.25-.25.04-.07.22-.42.27-.42.02,0,.62.33.62.47,0,.04,0,.08-.26.12-.09.02-.65.16-.65.26a2.8,2.8,0,0,0,1.21.66,1.786,1.786,0,0,1,.37.12c0,.02-.42.21-.49.25-.04.02-.21.18-.26.18-.1,0-.72-.52-.78-.52s-.07.03-.07.32a6.11,6.11,0,0,1-.03,1.19.408.408,0,0,1-.39.27c-.19,0-.22-.1-.24-.21s-.11-.12-.21-.12h-.32c-.12,0-.22,0-.22.19,0,.07.03.9.03.99,0,1-.74,1-.76,1-.17,0-.18-.09-.2-.26s-.07-.32-.23-.34c-.1-.02-.16-.03-.16-.07s.04-.04.12-.04a3.007,3.007,0,0,0,.54-.02c.11-.03.13-.32.13-.76,0-.63,0-.7-.23-.7h-.46Zm1.78-.22c.2,0,.26,0,.26-.5,0-.18-.11-.2-.24-.2h-1.71c-.24,0-.24.08-.24.33,0,.31,0,.37.24.37h1.69Zm.05-.91c.22,0,.22-.11.22-.29,0-.24,0-.34-.22-.34h-1.75c-.22,0-.22.11-.22.29,0,.24,0,.34.22.34Zm.12-.85c.06,0,.17,0,.17-.07,0-.02-.3-.46-.35-.54a3.649,3.649,0,0,0-.26-.44.254.254,0,0,0-.17-.04h-.39c-.17,0-.2.03-.34.23-.1.13-.71.79-.71.82s.05.04.08.04Zm1.6,4.08c-.25,0-.4-.2-.68-.56a11.1,11.1,0,0,0-.81-.86c-.15-.12-.18-.17-.18-.19s.03-.03.06-.03a3.721,3.721,0,0,1,1.05.37,1.98,1.98,0,0,1,.83.73.522.522,0,0,1,.07.21.356.356,0,0,1-.32.35Z" fill="#11374c"/>
  <path id="パス_65" data-name="パス 65" d="M134.05,4.93c-.16,0-.21.04-.21.21,0,.21,0,.23.11.3.32.19.65.4.65.71a.318.318,0,0,1-.29.32c-.18,0-.21-.16-.26-.44-.03-.21-.1-.42-.17-.42-.05,0-.05.13-.05.17,0,.37-.02,2.05-.02,2.39,0,.27.02,1.46,0,1.66-.02.3-.22.41-.34.41-.08,0-.22-.06-.22-.27,0-.24.08-1.64.1-1.94,0-.23.02-1.07.02-1.36,0-.14,0-.16-.02-.16s-.37.64-.43.75c-.15.26-.47.73-.62.73a.02.02,0,0,1-.02-.02s.3-.57.35-.68a9,9,0,0,0,.71-2.18c0-.12-.11-.16-.22-.16-.09,0-.53.03-.57.03-.02,0-.03,0-.07-.06l-.13-.17c-.05-.06-.06-.07-.06-.08s.02-.02.03-.02c.13,0,.74.04.86.04.18,0,.23-.04.23-.19,0-.12,0-1.15-.02-1.23,0-.07-.02-.36-.02-.41,0-.07.02-.09.08-.09a3.392,3.392,0,0,1,.43.11c.14.03.22.08.22.15s-.17.26-.18.31-.07,1.22-.07,1.27c0,.09.02.11.13.11.05,0,.06-.03.17-.19.04-.07.07-.11.12-.11.03,0,.45.31.45.42,0,.03-.02.09-.16.09h-.5Zm2.48,2.26s.24,0,.24-.22c0-.08-.03-.41-.04-.47-.06-.85-.07-1.1-.07-2.22a7.066,7.066,0,0,0-.04-1.25c0-.02-.03-.15-.03-.17,0-.06.02-.09.08-.09.12,0,.77.1.77.21,0,.05-.18.21-.2.25a8.051,8.051,0,0,0-.15,1.73,10.462,10.462,0,0,0,.17,2.11.21.21,0,0,0,.22.13h.32s.12,0,.12-.09c0-.12-.22-.53-.33-.53-.07,0-.08,0-.1-.03-.02-.05-.12-.48-.12-.5s.02-.04.05-.04.22.03.25.03c.19,0,.2,0,.82-1.09a4.61,4.61,0,0,0,.27-.57c.04-.13.07-.16.11-.16a1.51,1.51,0,0,1,.51.39c0,.06-.23.2-.27.23a2.513,2.513,0,0,0-.41.51c0,.06.07.1.19.19.14.1.61.44.61.76a.387.387,0,0,1-.34.37c-.17,0-.22-.22-.23-.3s-.02-.14-.12-.14a3.5,3.5,0,0,0-1.05.3c0,.02.12.07.15.08.32.12.47.3.47.43,0,.02-.02.11-.02.12,0,.06.06.06.09.06h.25c.07,0,.14,0,.23-.14s.12-.19.2-.19.6.33.6.43c0,.12-.16.12-.24.12h-1.93c-.06,0-.17,0-.17.15,0,.09.02.13.19.55.07.15.07.17.12.17.13,0,.43-.69.52-.69.04,0,.53.35.53.49,0,.07-.1.08-.17.1-.21.04-.56.52-.56.62,0,.21.63.78.79.78s.27-.17.6-.7c.15-.23.17-.26.19-.26s.02.02.02.03c0,.03-.23.8-.23.95,0,.07.12.42.12.48,0,.14-.13.17-.22.17-.63,0-1.28-.71-1.47-.94-.17-.19-.19-.22-.22-.22s-.41.27-.49.32a5.505,5.505,0,0,1-1.54.7c-.02,0-.06,0-.06-.04s.04-.07.08-.09a4.008,4.008,0,0,0,1.77-1.3c0-.02-.21-.44-.27-.6-.04-.1-.18-.51-.22-.57a.269.269,0,0,0-.26-.11h-.89c-.23,0-.25.07-.27.35a3.1,3.1,0,0,1-1.18,2.31c-.02,0-.04,0-.04-.05s.31-.61.36-.72a3.705,3.705,0,0,0,.34-1.62c0-.08,0-.26-.22-.26-.07,0-.36.03-.42.03-.02,0-.03,0-.08-.06l-.14-.17a.423.423,0,0,1-.05-.07c0-.02.02-.02.03-.02.06,0,.32.02.37.02.52.03.85.03,1.13.03h.97Zm-1.01-2.66a.5.5,0,0,1,.05.18.216.216,0,0,1-.21.23c-.16,0-.25-.09-.41-.35a1.561,1.561,0,0,0-.37-.42c-.04-.03-.09-.08-.09-.11s.02-.04.06-.04c.08,0,.56.19.64.19.06,0,.09,0,.32-.66a2.961,2.961,0,0,0,.11-.43c0-.03,0-.07.05-.07.02,0,.61.33.61.44,0,.06-.27.14-.3.17a8.584,8.584,0,0,0-.53.7c0,.02.07.13.08.16Zm.32,1.19s.02-.03.04-.03c.08,0,.62.32.62.74,0,.17-.14.33-.25.33-.13,0-.17-.18-.2-.31-.02-.07-.02-.11-.1-.11-.29.06-.89.21-.95.33-.02.05-.04.08-.09.08s-.07-.04-.09-.12c-.02-.17-.08-.48-.08-.52s.02-.06.05-.06.19.03.23.03c.1,0,.15,0,.73-1.2.02-.04.14-.33.16-.37.03-.08.05-.11.07-.11,0,0,.49.26.49.42,0,.08-.06.1-.13.11-.17.03-.54.56-.71.81a2.339,2.339,0,0,0-.21.32c0,.07.09.07.11.07a2.4,2.4,0,0,0,.46-.05c.08-.12-.15-.25-.15-.36Zm.51,3.39c-.16,0-.19-.08-.32-.41a2.6,2.6,0,0,0-.38-.71c-.05-.07-.06-.08-.06-.1s.03-.02.04-.02c.09,0,1,.28,1,.91a.31.31,0,0,1-.28.33Zm1.92-5.87s-.02-.09-.02-.11,0-.03.03-.03c.06,0,.63.25.63.37,0,.05-.02.06-.15.12a4.5,4.5,0,0,0-.61.78c0,.03,0,.04.08.13a.49.49,0,0,1,.13.32.211.211,0,0,1-.2.22c-.13,0-.16-.03-.35-.38a1.366,1.366,0,0,0-.41-.42c-.02-.02-.07-.05-.07-.08s.07-.06.12-.06a1.021,1.021,0,0,1,.37.08c.02,0,.07.03.1.02a2.23,2.23,0,0,0,.34-.96Zm.32,2.24s-.49.52-.49.53c0,.04.08.04.12.04a3.6,3.6,0,0,0,.56-.05c.05-.02.07-.03.07-.09-.02-.12-.17-.43-.27-.43Z" fill="#11374c"/>
  <path id="パス_66" data-name="パス 66" d="M143.52,3.3a.294.294,0,0,0,.25-.08c.12-.12.16-.16.24-.16.13,0,.49.28.49.42,0,.05-.17.23-.18.29a8.6,8.6,0,0,0-.02,1.18c0,.18,0,.47-.37.47-.14,0-.16-.05-.22-.2-.04-.1-.07-.1-.25-.1h-1.17c-.12,0-.23,0-.26.15V6.53c0,.71,0,2.48.02,2.87,0,.07.02.31.02.37a.463.463,0,0,1-.42.5c-.22,0-.22-.22-.22-.32,0-.16.03-.93.03-1.1.02-.79.02-1.5.02-3.32V3.91c0-.1-.03-.59-.03-.71,0-.04,0-.1.04-.1a3.375,3.375,0,0,1,.38.13.664.664,0,0,0,.31.07h1.37Zm-1.25.22c-.24,0-.24.03-.24.26,0,.3,0,.32.24.32h1.25c.23,0,.23-.03.23-.26,0-.29,0-.31-.23-.31h-1.25Zm0,.8c-.23,0-.23.03-.23.29s0,.3.23.3h1.25c.12,0,.23,0,.23-.15,0-.4,0-.44-.23-.44Zm.52,2.31a.219.219,0,0,1-.03-.05c0-.02,0-.03.02-.03.06,0,.32.03.37.03.4.02.75.03,1.14.03h.47c.26,0,.32-.07.79-.72a1.393,1.393,0,0,0,.17-.44c0-.04.02-.06.05-.06a1.814,1.814,0,0,1,.54.46c0,.08-.02.09-.24.15a3.521,3.521,0,0,0-.76.59c0,.03.03.03.09.03h.14c.4,0,.44,0,.53-.12.17-.24.18-.27.26-.27.11,0,.58.37.58.5s-.17.12-.44.12h-1.2c-.16,0-.27,0-.28.2,0,.08-.04.43-.04.51,0,.1.07.1.18.1h.67a1.252,1.252,0,0,0,.41-.03c.08-.03.33-.38.41-.38a1.209,1.209,0,0,1,.55.52c0,.12-.17.12-.44.12h-1.62c-.17,0-.22,0-.22.08a4.646,4.646,0,0,0,1.58.93,5.379,5.379,0,0,0,.54.13.056.056,0,0,1,.06.05c0,.02-.02.03-.12.06a.853.853,0,0,0-.58.4c0,.03-.04.1-.07.1a4.119,4.119,0,0,1-1.22-1.16c-.2-.25-.22-.28-.26-.28s-.04.02-.13.19a3.135,3.135,0,0,1-1.93,1.37.076.076,0,0,1-.07-.04c0-.02.02-.04.19-.14a3,3,0,0,0,1.3-1.29.944.944,0,0,0,.11-.3c0-.09-.08-.09-.17-.09-.36,0-.76,0-1.09.02-.03,0-.2.03-.25.03-.02,0-.05-.03-.07-.06l-.16-.19a.219.219,0,0,1-.03-.05c0-.02,0-.03.02-.03.05,0,.26.03.3.03.09,0,.78.03,1.06.03.39,0,.43,0,.46-.05a2.247,2.247,0,0,0,.04-.56c0-.2-.08-.2-.4-.2-.16,0-.61,0-.81.02-.03,0-.16.03-.18.03s-.04-.03-.07-.06l-.17-.19Zm1.47-.46c0,.22-.12.35-.23.35s-.12-.03-.34-.35c-.1-.14-.26-.37-.42-.59a.133.133,0,0,1-.03-.08c0-.02,0-.05.05-.05a1.561,1.561,0,0,1,.45.15c.43.2.53.37.53.56Zm1.79-1.02c-.17,0-.22,0-.27.12a.391.391,0,0,1-.38.27c-.17,0-.21-.12-.21-.23V4.06c0-.12-.04-.72-.04-.86,0-.04.02-.13.09-.13a1.15,1.15,0,0,1,.41.15.586.586,0,0,0,.26.07h1.35a.283.283,0,0,0,.18-.04c.03-.02.21-.21.26-.21s.58.26.58.45c0,.06-.03.1-.14.2-.15.14-.15.21-.15.78,0,.66.1,3.88.1,4.62,0,.51-.06.8-.36,1.02a1.3,1.3,0,0,1-.41.18c-.07,0-.08-.03-.22-.27-.05-.09-.54-.36-.54-.39s.02-.03.11-.03a2.735,2.735,0,0,0,.7-.08c.08-.08.12-.1.12-1.2V5.39c0-.22-.09-.22-.27-.22h-1.18Zm1.22-1.05c.12,0,.22,0,.22-.15,0-.4,0-.45-.22-.45h-1.29c-.12,0-.23,0-.23.16,0,.4,0,.44.23.44Zm-1.3.22c-.22,0-.22.02-.22.34,0,.22,0,.27.22.27h1.3a.308.308,0,0,0,.18-.03c.04-.04.04-.08.04-.44,0-.13-.14-.13-.22-.13h-1.3Z" fill="#11374c"/>
  <line id="線_13" data-name="線 13" x2="300" transform="translate(0 18.63)" fill="none" stroke="#11374c" stroke-miterlimit="10" stroke-width="0.5"/>
  <rect id="長方形_5" data-name="長方形 5" width="81.01" height="5.42" transform="translate(0 15.92)" fill="#11374c"/>
  <line id="線_14" data-name="線 14" x1="9.5" transform="translate(99.84 6.93)" fill="none" stroke="#11374c" stroke-miterlimit="10" stroke-width="0.3"/>
  <line id="線_15" data-name="線 15" x2="9.5" transform="translate(153.98 6.93)" fill="none" stroke="#11374c" stroke-miterlimit="10" stroke-width="0.3"/>
</svg>
