<?xml version="1.0" encoding="UTF-8"?><svg id="_レイヤー_2" xmlns="http://www.w3.org/2000/svg" viewBox="0 0 173.92 108.94"><defs><style>.cls-1,.cls-2,.cls-3,.cls-4,.cls-5{fill:none;}.cls-1,.cls-2,.cls-3,.cls-4,.cls-5,.cls-6,.cls-7{stroke:#5eb031;}.cls-1,.cls-6{stroke-miterlimit:10;stroke-width:.25px;}.cls-8{fill:#fff;}.cls-2,.cls-3,.cls-4,.cls-7{stroke-linecap:round;stroke-linejoin:round;}.cls-2,.cls-7{stroke-width:1.01px;}.cls-3{stroke-width:.55px;}.cls-4{stroke-width:.39px;}.cls-5{stroke-width:.25px;}.cls-9,.cls-6,.cls-7{fill:#5eb031;}.cls-10{fill:#e1efd8;}</style></defs><g id="_レイヤー_1-2"><path class="cls-9" d="M173.42,97.42c0,5.66-4.46,10.3-9.92,10.3H10.42c-5.46,0-9.92-4.63-9.92-10.3V10.3C.51,4.63,4.97,0,10.42,0h153.08c5.46,0,9.92,4.63,9.92,10.3v87.12Z"/><path class="cls-7" d="M173.42,98.14c0,5.67-4.46,10.3-9.92,10.3H10.42c-5.46,0-9.92-4.63-9.92-10.3V11.02C.51,5.36,4.97.72,10.42.72h153.08c5.46,0,9.92,4.63,9.92,10.3v87.12Z"/><path class="cls-8" d="M173.42,97.42c0,5.66-4.46,10.3-9.92,10.3H10.42c-5.46,0-9.92-4.63-9.92-10.3V27.29c0-5.66,4.46-10.3,9.92-10.3h153.08c5.46,0,9.92,4.63,9.92,10.3v70.12Z"/><path class="cls-2" d="M173.42,97.42c0,5.66-4.46,10.3-9.92,10.3H10.42c-5.46,0-9.92-4.63-9.92-10.3V27.29c0-5.66,4.46-10.3,9.92-10.3h153.08c5.46,0,9.92,4.63,9.92,10.3v70.12Z"/><path class="cls-9" d="M17.33,69.06c.06,2.6.56,5.12,1.14,7.64.31,1.36.44,3.77,1.37,4.91.33.41.92.24,1.25-.09.03-.03.05-.05.08-.08.49-.5.97-1.25.76-1.98-.19-.67-.96-.56-1.37-.15-.03.03-.05.05-.08.08.42-.03.83-.06,1.25-.09-.64-.79-.73-2.7-.96-3.63-.61-2.59-1.19-5.16-1.25-7.84-.04-1.82-2.24.06-2.21,1.23"/><path class="cls-9" d="M18.15,61.84c-1.09.96-1.92,1.98-2.61,3.26-.19.35-.22,1.19.41.86.98-.51,1.88-1.03,2.95-1.36,0-.41-.01-.82-.02-1.22-1.05.94-2.31,1.52-3.33,2.49-.21.2-.72,1.49.02,1.22,1.53-.54,2.87-1.12,4.55-1,0-.37-.01-.73-.02-1.1-1.24,1.31-3.66,1.74-5.33,2.27-.52.16-1.03,1.58-.26,1.38,2.38-.61,4.73-1.09,7.2-.79,0-.37-.01-.73-.02-1.1-1.38,1.49-3.73,1.8-5.62,2.23-.59.13-1.14.27-1.45.83-.15.27-.26.67.01.89,1.09.92,4.83.07,6.18.07.55,0,1.3-.28.27.06-1.48.48-3.22.38-4.78.54-.97.1-1.32.46-1.83,1.2-.14.2-.31.93.13.93,2.26.02,4.81-1,6.92.11.08-.4.16-.8.23-1.2-2.48,1.8-5.89,1.56-8.32,3.54-.37.3-.64,1.56.16,1.17,4.94-2.41,9.94-1.62,15.14-2.5.57-.1,1.04-1.51.26-1.38-5.34.9-10.35.14-15.43,2.61.05.39.11.78.16,1.17,2.39-1.95,5.82-1.73,8.32-3.54.26-.19.66-.97.23-1.2-2.2-1.16-4.82-.16-7.16-.18.05.31.09.62.13.93.69-1,5.32-.62,6.74-1.3.42-.2,1.56-1.44,1.01-1.99-1.69-1.7-5.93,1.06-7.62-.36,0,.3.01.6.02.89-.03.05,3.35-.66,3.87-.83,1.16-.39,2.14-1,2.97-1.89.21-.22.5-1.04-.02-1.1-2.56-.31-5,.18-7.47.82-.09.46-.17.92-.26,1.38,2.08-.66,4.61-1.22,6.15-2.85.2-.21.51-1.06-.02-1.1-1.74-.13-3.19.45-4.82,1.02,0,.41.01.82.02,1.22,1.02-.97,2.29-1.55,3.33-2.49.23-.21.73-1.46-.02-1.22-1.15.36-2.16.91-3.23,1.47.14.29.27.58.41.86.49-1.06,1.19-1.95,2.12-2.66.49-.43.45-1.73-.3-1.07"/><path class="cls-9" d="M22.49,42.92h24.45c1.18,0,2.26-.5,2.2.8-.58,11.57-1.17,23.15-1.75,34.72-.03.57-.06,1.14-.09,1.71,0,.16.84-.42-.38-.42h-8.34c-1.6,0-13.15.83-13.28-.6-.97-10.61-1.93-21.22-2.9-31.83-.1-1.05-1.34.03-1.28.71.98,10.81,1.97,21.63,2.95,32.44.19,2.12,13.22.9,14.86.9,1.79,0,9.47,1.49,9.64-1.75.62-12.2,1.23-24.4,1.85-36.6.16-3.27-7.09-1.71-9.12-1.71h-18.2c-.69,0-1.37,1.62-.61,1.62"/><rect class="cls-8" x="15.13" y="80.28" width="40.19" height="4.94"/><path class="cls-9" d="M35.14,35.79c-2.04-4.54,4.91-7.99,4.36-1.83-.08.91.98-.05,1.09-.44,3.43-12.13,19.21-1.49,9.79,5.65-.39.3-.62,1.56.16,1.17.79-.45,1.63-.76,2.52-.91,2.88-.64,3.19.93.93,4.71-.58-.06-1.21,1.19-.53,1.41,2.55.66,2.86,2.04.91,4.14-.53.25-.8,1.66.02,1.27,3.45-1.65,3.38-5.63-.41-6.81-.18.47-.35.94-.53,1.41,3.08.31,4.74-2.15,4.67-5-.09-3.83-5.72-2.44-7.62-1.48.05.39.11.78.16,1.17,3.97-3,5.3-9.06,1.04-12.47-5.12-4.09-10.87,1.28-12.21,6.03l1.09-.44c.28-3.16-2.38-5.01-5.32-3.67-2.41,1.11-2.05,5.16-1.21,7.03.33.73,1.3-.39,1.06-.91"/><path class="cls-9" d="M18.91,34.8c.75-.96,2.12-1.12,3.06-.34.94.78,1.09,2.19.33,3.15-.75.96-2.12,1.12-3.06.34-.93-.77-1.08-2.19-.33-3.15"/><path class="cls-9" d="M19.61,35.04h-.06c-.22-.06-.92-.04-.84-.83l.04-.1c-.62-.38,4.14-2.06,4.64,1.92-.02,4-4.82,2.96-4.25,2.59-.12.21-1.55-1.58-.95-2.86,1.04-1.81.81-.68.69.15-.3.04.72,2.04,1.02,1.67-.32.23,2.27.67,2.23-1.53-.36-2.18-2.85-1.21-2.52-1.02"/><path class="cls-9" d="M24.18,35.31h-.05c-.22-.08-.59-.39-.53-1.02l.02-.07c.06.02,5.33-3.1,5.31-3.12,0,0,.91-.41,1.59-.63,1.08-.44.93,0,.35.58.08-.01-1.37,1.15-1.38,1.14,0,.03-5.17,3.1-5.31,3.12"/><path class="cls-9" d="M23.46,38.53l-.02-.05c-.04-.26.29-.51.76-.86l.04-.04c-.43.07,3.2.58,3.17.48,0,0,.55.15.95.33.65.22.49.5,0,.68.05.03-1.06.22-1.06.2-.03.03-3.49-.23-3.84-.75"/><path class="cls-9" d="M17.36,36.78l.05.03c.19.16.23.58-.02,1.14l-.03.05c.15-.23-4.77,1.45-4.72,1.49,0,0-.82.18-1.43.22-1,.13-.77-.26-.23-.64-.07,0,1.29-.75,1.3-.75.01-.04,4.69-1.72,5.09-1.55"/><path class="cls-9" d="M17.34,33.3v.04c-.03.21-.27.58-.8.82l-.06.02c.11-.04-3.19-2.35-3.2-2.29,0,0-.47-.44-.77-.82-.53-.52-.27-.71.33-.59-.03-.06,1.15.4,1.14.41.05-.03,3.3,2.23,3.37,2.42"/><path class="cls-9" d="M21.34,32.29l-.04.03c-.21.09-.62-.02-1.08-.37l-.04-.04c.15.22.01-3.69-.05-3.66,0,0,.07-.62.2-1.08.15-.75.45-.55.67-.07.03-.06.35,1.1.35,1.1.04.02.26,3.79,0,4.09"/><path class="cls-9" d="M19.29,40.16l.04-.03c.21-.08.69-.14,1.1.31l.03.06c-.04.11-1.74,5.53-1.67,5.52-.03,0-.28.86-.58,1.46-.44,1.04-.64.6-.67-.12-.03.08.03-1.72.08-1.7-.06-.05,1.64-5.46,1.66-5.5"/><path class="cls-8" d="M14.54,80.72s20.36-2.2,42.65-.2"/><path class="cls-9" d="M15.08,81.54c14.12-1.49,28.53-1.39,42.65-.2-.34-.03-.62-1.61-1.07-1.65-14.12-1.19-28.54-1.29-42.65.2.23-.02.72,1.69,1.07,1.65"/><path class="cls-8" d="M30.74,50.93c0,.14-.11.26-.25.26h-4.57c-.14,0-.25-.12-.25-.26v-4.2c0-.14.11-.26.25-.26h4.57c.14,0,.25.12.25.26v4.2Z"/><path class="cls-4" d="M30.98,50.93c0,.14-.11.26-.25.26h-4.57c-.14,0-.25-.12-.25-.26v-4.2c0-.14.11-.26.25-.26h4.57c.14,0,.25.12.25.26v4.2Z"/><line class="cls-4" x1="28.44" y1="50.04" x2="28.44" y2="46.49"/><path class="cls-9" d="M31.59,51.31c0,.14-.11.26-.25.26h-6.27c-.14,0-.25-.12-.25-.26v-2.03h6.77v2.03Z"/><line class="cls-5" x1="25.72" y1="48.33" x2="27.38" y2="47.42"/><line class="cls-5" x1="25.72" y1="49.08" x2="26.57" y2="48.59"/><path class="cls-8" d="M38.35,50.93c0,.14-.11.26-.25.26h-4.57c-.14,0-.25-.12-.25-.26v-4.2c0-.14.11-.26.25-.26h4.57c.14,0,.25.12.25.26v4.2Z"/><path class="cls-4" d="M38.59,50.93c0,.14-.11.26-.25.26h-4.57c-.14,0-.25-.12-.25-.26v-4.2c0-.14.11-.26.25-.26h4.57c.14,0,.25.12.25.26v4.2Z"/><line class="cls-4" x1="36.05" y1="50.04" x2="36.05" y2="46.49"/><path class="cls-9" d="M39.2,51.31c0,.14-.11.26-.25.26h-6.27c-.14,0-.25-.12-.25-.26v-2.03h6.78v2.03Z"/><line class="cls-5" x1="33.33" y1="48.33" x2="34.99" y2="47.42"/><line class="cls-5" x1="33.33" y1="49.08" x2="34.18" y2="48.59"/><path class="cls-8" d="M45.96,50.93c0,.14-.11.26-.25.26h-4.57c-.14,0-.25-.12-.25-.26v-4.2c0-.14.11-.26.25-.26h4.57c.14,0,.25.12.25.26v4.2Z"/><path class="cls-4" d="M46.2,50.93c0,.14-.11.26-.25.26h-4.57c-.14,0-.25-.12-.25-.26v-4.2c0-.14.11-.26.25-.26h4.57c.14,0,.25.12.25.26v4.2Z"/><line class="cls-4" x1="43.66" y1="50.04" x2="43.66" y2="46.49"/><path class="cls-9" d="M46.81,51.31c0,.14-.11.26-.25.26h-6.27c-.14,0-.25-.12-.25-.26v-2.03h6.77v2.03Z"/><line class="cls-5" x1="40.94" y1="48.33" x2="42.6" y2="47.42"/><line class="cls-5" x1="40.94" y1="49.08" x2="41.79" y2="48.59"/><path class="cls-8" d="M30.74,59.01c0,.14-.11.26-.25.26h-4.57c-.14,0-.25-.12-.25-.26v-4.2c0-.14.11-.26.25-.26h4.57c.14,0,.25.12.25.26v4.2Z"/><path class="cls-4" d="M30.98,59.01c0,.14-.11.26-.25.26h-4.57c-.14,0-.25-.12-.25-.26v-4.2c0-.14.11-.26.25-.26h4.57c.14,0,.25.12.25.26v4.2Z"/><line class="cls-4" x1="28.44" y1="58.13" x2="28.44" y2="54.58"/><path class="cls-9" d="M31.59,59.39c0,.14-.11.26-.25.26h-6.27c-.14,0-.25-.12-.25-.26v-2.03h6.77v2.03Z"/><line class="cls-5" x1="25.72" y1="56.42" x2="27.38" y2="55.51"/><line class="cls-5" x1="25.72" y1="57.17" x2="26.57" y2="56.68"/><path class="cls-8" d="M38.35,59.01c0,.14-.11.26-.25.26h-4.57c-.14,0-.25-.12-.25-.26v-4.2c0-.14.11-.26.25-.26h4.57c.14,0,.25.12.25.26v4.2Z"/><path class="cls-4" d="M38.59,59.01c0,.14-.11.26-.25.26h-4.57c-.14,0-.25-.12-.25-.26v-4.2c0-.14.11-.26.25-.26h4.57c.14,0,.25.12.25.26v4.2Z"/><line class="cls-4" x1="36.05" y1="58.13" x2="36.05" y2="54.58"/><path class="cls-9" d="M39.2,59.39c0,.14-.11.26-.25.26h-6.27c-.14,0-.25-.12-.25-.26v-2.03h6.78v2.03Z"/><line class="cls-5" x1="33.33" y1="56.42" x2="34.99" y2="55.51"/><line class="cls-5" x1="33.33" y1="57.17" x2="34.18" y2="56.68"/><path class="cls-8" d="M45.96,59.01c0,.14-.11.26-.25.26h-4.57c-.14,0-.25-.12-.25-.26v-4.2c0-.14.11-.26.25-.26h4.57c.14,0,.25.12.25.26v4.2Z"/><path class="cls-4" d="M46.2,59.01c0,.14-.11.26-.25.26h-4.57c-.14,0-.25-.12-.25-.26v-4.2c0-.14.11-.26.25-.26h4.57c.14,0,.25.12.25.26v4.2Z"/><line class="cls-4" x1="43.66" y1="58.13" x2="43.66" y2="54.58"/><path class="cls-9" d="M46.81,59.39c0,.14-.11.26-.25.26h-6.27c-.14,0-.25-.12-.25-.26v-2.03h6.77v2.03Z"/><line class="cls-5" x1="40.94" y1="56.42" x2="42.6" y2="55.51"/><line class="cls-5" x1="40.94" y1="57.17" x2="41.79" y2="56.68"/><path class="cls-8" d="M30.74,67.1c0,.14-.11.26-.25.26h-4.57c-.14,0-.25-.12-.25-.26v-4.2c0-.14.11-.26.25-.26h4.57c.14,0,.25.12.25.26v4.2Z"/><path class="cls-4" d="M30.98,67.1c0,.14-.11.26-.25.26h-4.57c-.14,0-.25-.12-.25-.26v-4.2c0-.14.11-.26.25-.26h4.57c.14,0,.25.12.25.26v4.2Z"/><line class="cls-4" x1="28.44" y1="66.22" x2="28.44" y2="62.67"/><path class="cls-9" d="M31.59,67.48c0,.14-.11.26-.25.26h-6.27c-.14,0-.25-.12-.25-.26v-2.03h6.77v2.03Z"/><line class="cls-5" x1="25.72" y1="64.51" x2="27.38" y2="63.59"/><line class="cls-5" x1="25.72" y1="65.26" x2="26.57" y2="64.76"/><path class="cls-8" d="M38.35,67.1c0,.14-.11.26-.25.26h-4.57c-.14,0-.25-.12-.25-.26v-4.2c0-.14.11-.26.25-.26h4.57c.14,0,.25.12.25.26v4.2Z"/><path class="cls-4" d="M38.59,67.1c0,.14-.11.26-.25.26h-4.57c-.14,0-.25-.12-.25-.26v-4.2c0-.14.11-.26.25-.26h4.57c.14,0,.25.12.25.26v4.2Z"/><line class="cls-4" x1="36.05" y1="66.22" x2="36.05" y2="62.67"/><path class="cls-9" d="M39.2,67.48c0,.14-.11.26-.25.26h-6.27c-.14,0-.25-.12-.25-.26v-2.03h6.78v2.03Z"/><line class="cls-5" x1="33.33" y1="64.51" x2="34.99" y2="63.59"/><line class="cls-5" x1="33.33" y1="65.26" x2="34.18" y2="64.76"/><rect class="cls-8" x="40.88" y="62.64" width="5.08" height="4.72" rx=".25" ry=".25"/><path class="cls-4" d="M46.2,67.1c0,.14-.11.26-.25.26h-4.57c-.14,0-.25-.12-.25-.26v-4.2c0-.14.11-.26.25-.26h4.57c.14,0,.25.12.25.26v4.2Z"/><line class="cls-4" x1="43.66" y1="66.22" x2="43.66" y2="62.67"/><path class="cls-9" d="M46.81,67.48c0,.14-.11.26-.25.26h-6.27c-.14,0-.25-.12-.25-.26v-2.03h6.77v2.03Z"/><line class="cls-5" x1="40.94" y1="64.51" x2="42.6" y2="63.59"/><line class="cls-5" x1="40.94" y1="65.26" x2="41.79" y2="64.76"/><path class="cls-8" d="M38.35,75.19c0,.14-.11.26-.25.26h-4.57c-.14,0-.25-.12-.25-.26v-4.2c0-.14.11-.26.25-.26h4.57c.14,0,.25.12.25.26v4.2Z"/><path class="cls-4" d="M38.59,75.19c0,.14-.11.26-.25.26h-4.57c-.14,0-.25-.12-.25-.26v-4.2c0-.14.11-.26.25-.26h4.57c.14,0,.25.12.25.26v4.2Z"/><line class="cls-4" x1="36.05" y1="74.3" x2="36.05" y2="70.75"/><path class="cls-9" d="M39.2,75.57c0,.14-.11.26-.25.26h-6.27c-.14,0-.25-.12-.25-.26v-2.03h6.78v2.03Z"/><line class="cls-5" x1="33.33" y1="72.59" x2="34.99" y2="71.68"/><line class="cls-5" x1="33.33" y1="73.35" x2="34.18" y2="72.85"/><path class="cls-8" d="M45.96,75.19c0,.14-.11.26-.25.26h-4.57c-.14,0-.25-.12-.25-.26v-4.2c0-.14.11-.26.25-.26h4.57c.14,0,.25.12.25.26v4.2Z"/><path class="cls-4" d="M46.2,75.19c0,.14-.11.26-.25.26h-4.57c-.14,0-.25-.12-.25-.26v-4.2c0-.14.11-.26.25-.26h4.57c.14,0,.25.12.25.26v4.2Z"/><line class="cls-4" x1="43.66" y1="74.3" x2="43.66" y2="70.75"/><path class="cls-9" d="M46.81,75.57c0,.14-.11.26-.25.26h-6.27c-.14,0-.25-.12-.25-.26v-2.03h6.77v2.03Z"/><line class="cls-5" x1="40.94" y1="72.59" x2="42.6" y2="71.68"/><line class="cls-5" x1="40.94" y1="73.35" x2="41.79" y2="72.85"/><path class="cls-10" d="M135.42,84.99h-62.49c-1.73,0-3.14-1.54-3.14-3.42V24.87c0-1.88,1.41-3.42,3.14-3.42h62.49v63.53Z"/><line class="cls-3" x1="69.8" y1="34.31" x2="165.39" y2="34.31"/><line class="cls-3" x1="69.8" y1="47.01" x2="165.39" y2="47.01"/><line class="cls-3" x1="69.8" y1="59.72" x2="165.39" y2="59.72"/><line class="cls-3" x1="69.8" y1="72.43" x2="165.39" y2="72.43"/><path class="cls-3" d="M165.81,81.63c0,1.88-1.36,3.42-3.01,3.42h-90c-1.66,0-3.01-1.54-3.01-3.42V24.93c0-1.88,1.36-3.42,3.01-3.42h90c1.66,0,3.01,1.54,3.01,3.42v56.7Z"/><line class="cls-3" x1="135.47" y1="21.65" x2="135.47" y2="84.64"/><rect class="cls-9" x="118.03" y="95.7" width="48.03" height="9"/><path class="cls-6" d="M142.46,26.84h2.53l-2.02,1.56.79,2.63-2.15-1.59-2.15,1.59.79-2.63-2.02-1.56h2.53l.85-2.6.85,2.6Z"/><path class="cls-6" d="M151.66,26.84h2.53l-2.02,1.56.79,2.63-2.15-1.59-2.15,1.59.79-2.63-2.02-1.56h2.53l.85-2.6.85,2.6Z"/><path class="cls-6" d="M160.63,26.84h2.54l-2.03,1.56.79,2.63-2.15-1.59-2.15,1.59.79-2.63-2.03-1.56h2.54l.85-2.6.85,2.6Z"/><path class="cls-6" d="M142.46,39.75h2.53l-2.02,1.56.79,2.63-2.15-1.59-2.15,1.59.79-2.63-2.02-1.56h2.53l.85-2.6.85,2.6Z"/><path class="cls-6" d="M151.66,39.75h2.53l-2.02,1.56.79,2.63-2.15-1.59-2.15,1.59.79-2.63-2.02-1.56h2.53l.85-2.6.85,2.6Z"/><path class="cls-6" d="M160.87,39.75h2.54l-2.03,1.56.79,2.63-2.15-1.59-2.15,1.59.79-2.63-2.03-1.56h2.54l.85-2.6.85,2.6Z"/><path class="cls-6" d="M142.46,52.65h2.53l-2.02,1.56.79,2.63-2.15-1.59-2.15,1.59.79-2.63-2.02-1.56h2.53l.85-2.6.85,2.6Z"/><path class="cls-6" d="M151.43,52.65h2.53l-2.02,1.56.79,2.63-2.15-1.59-2.15,1.59.79-2.63-2.02-1.56h2.53l.85-2.6.85,2.6Z"/><path class="cls-1" d="M160.63,52.65h2.54l-2.03,1.56.79,2.63-2.15-1.59-2.15,1.59.79-2.63-2.03-1.56h2.54l.85-2.6.85,2.6Z"/><path class="cls-6" d="M142.46,65.56h2.53l-2.02,1.56.79,2.63-2.15-1.59-2.15,1.59.79-2.63-2.02-1.56h2.53l.85-2.6.85,2.6Z"/><path class="cls-6" d="M151.66,65.56h2.53l-2.02,1.56.79,2.63-2.15-1.59-2.15,1.59.79-2.63-2.02-1.56h2.53l.85-2.6.85,2.6Z"/><path class="cls-6" d="M160.63,65.56h2.54l-2.03,1.56.79,2.63-2.15-1.59-2.15,1.59.79-2.63-2.03-1.56h2.54l.85-2.6.85,2.6Z"/><path class="cls-6" d="M142.46,78.46h2.53l-2.02,1.56.79,2.63-2.15-1.59-2.15,1.59.79-2.63-2.02-1.56h2.53l.85-2.6.85,2.6Z"/><path class="cls-6" d="M151.43,78.46h2.53l-2.02,1.56.79,2.63-2.15-1.59-2.15,1.59.79-2.63-2.02-1.56h2.53l.85-2.6.85,2.6Z"/><path class="cls-1" d="M160.63,78.46h2.54l-2.03,1.56.79,2.63-2.15-1.59-2.15,1.59.79-2.63-2.03-1.56h2.54l.85-2.6.85,2.6Z"/><path class="cls-8" d="M27.86,11.32h-2.71c.93.98,2.43,1.9,3.75,2.34-.16.14-.36.4-.47.58-1.35-.53-2.88-1.56-3.87-2.69v2.84h-.69v-2.8c-.98,1.1-2.48,2.1-3.79,2.63-.11-.17-.31-.43-.47-.56,1.29-.46,2.75-1.36,3.68-2.34h-2.55v-3.69h3.13v-.91h-4.02v-.64h4.02v-.97l.89.05c0,.07-.06.12-.2.14v.78h4.13v.64h-4.13v.91h3.3v3.69ZM21.4,8.18v1.03h2.47v-1.03h-2.47ZM21.4,9.73v1.05h2.47v-1.05h-2.47ZM27.18,8.18h-2.62v1.03h2.62v-1.03ZM27.18,10.78v-1.05h-2.62v1.05h2.62Z"/><path class="cls-8" d="M32.38,11.78c-.04.08-.13.1-.22.09-.41.67-1.21,1.57-1.95,2.14-.13-.13-.39-.32-.54-.4.75-.54,1.51-1.38,1.88-2.1l.83.27ZM38.7,6.31v.65h-8.89v-.65h4.06v-1.22l.9.05c-.01.08-.06.13-.2.14v1.03h4.13ZM37.48,10.89h-2.91v2.69c0,.8-.35.81-2.24.81-.04-.19-.14-.45-.24-.64.43,0,.82.02,1.12.02.61,0,.66,0,.66-.2v-2.68h-2.77v-2.96h6.38v2.96ZM31.77,8.53v1.76h5.01v-1.76h-5.01ZM38.07,14.05c-.38-.58-1.21-1.55-1.9-2.24l.6-.29c.68.66,1.54,1.59,1.95,2.18l-.65.35Z"/><path class="cls-8" d="M42.33,8.23h.47c.63-.79,1.17-1.68,1.59-2.65l.76.26c-.03.07-.12.11-.24.1-.37.82-.82,1.59-1.34,2.29h1.3v.6h-1.78c-.33.4-.69.77-1.07,1.11h2.34v4.3h-.64v-.4h-2.38v.58h-.63v-3.46c-.27.18-.55.34-.84.5-.09-.13-.27-.38-.39-.51.43-.22.84-.47,1.23-.75v-.26h.36c.42-.33.83-.71,1.21-1.11h-2.66v-.6h2.07v-1.35h-1.61v-.6h1.61v-1.18l.83.05c0,.07-.06.12-.19.14v.99h1.3v.6h-1.3v1.35ZM43.72,11.61v-1.1h-2.38v1.1h2.38ZM41.34,13.26h2.38v-1.11h-2.38v1.11ZM45.26,5.68h3.03c.11-.03.12-.03.14-.03.05.03.1.07.44.22-.01.04-.05.08-.09.1-.37.86-.89,1.95-1.42,3.02,1.05,1.03,1.49,1.8,1.49,2.53,0,1.59-1.05,1.59-1.71,1.59-.16,0-.31,0-.46-.01,0-.19-.1-.48-.23-.67.27.02.54.03.76.03.44,0,.97,0,.97-.96,0-.66-.47-1.37-1.54-2.39.47-1.01.9-1.97,1.23-2.79h-1.95v8.07h-.66V5.68Z"/><path class="cls-8" d="M58.52,7.02c-.03.05-.08.08-.15.1-.93,1.42-2.5,2.91-4.04,4.02.77.62,1.54,1.39,2.05,1.95l-.61.53c-1.05-1.23-3.02-2.88-4.71-3.87l.48-.51c.71.4,1.51.93,2.23,1.48,1.35-.96,2.72-2.25,3.51-3.41h-7.34v-.68h7.87l.12-.06.59.45Z"/><path class="cls-8" d="M60.29,6.19c1.04.33,2.24.85,2.98,1.36l-.38.63c-.72-.51-1.9-1.04-2.92-1.39l.32-.6ZM60.25,13.11c3.55-1.1,5.91-3.09,7.11-5.86.21.17.44.3.65.41-1.25,2.74-3.69,4.87-7.08,6,0,.09-.07.19-.14.23l-.54-.78Z"/><path class="cls-8" d="M69.41,8.25c.9.2,2.02.58,2.69.9l-.3.63c-.66-.32-1.81-.72-2.69-.92l.3-.61ZM70.01,13.13c3.25-1.09,5.47-2.82,6.8-5.82.15.13.46.34.61.44-1.34,2.97-3.67,4.82-6.73,5.91.02.09-.03.21-.12.25l-.56-.78ZM70.51,5.77c.9.24,2,.64,2.68.98l-.33.61c-.71-.36-1.75-.76-2.65-1.01l.3-.58Z"/><path class="cls-8" d="M83.85,7.99v6.08h-.6v-.44h-4.49v-.56h4.49v-2.03h-4.09v-.56h4.09v-1.94h-4.24v-.55h4.84Z"/><path class="cls-8" d="M86.49,6.19c1.04.33,2.24.85,2.98,1.36l-.38.63c-.72-.51-1.9-1.04-2.92-1.39l.32-.6ZM86.45,13.11c3.55-1.1,5.91-3.09,7.11-5.86.21.17.44.3.65.41-1.25,2.74-3.69,4.87-7.08,6,0,.09-.07.19-.14.23l-.54-.78Z"/><path class="cls-8" d="M98.33,11.44l.07.58c-1.1.29-2.26.59-2.99.77-.01.08-.06.14-.13.16l-.26-.75c.39-.08.87-.19,1.4-.31v-2.54h-1.16v-.61h1.16v-2.32h-1.28v-.61h3.19v.61h-1.29v2.32h1.1v.61h-1.1v2.39l1.29-.3ZM101.57,11.42c.17.37.39.72.66,1.04.47-.26,1.07-.65,1.42-.92l.58.44s-.07.05-.12.05c-.03,0-.05,0-.08,0-.38.24-1,.56-1.48.78.51.48,1.13.86,1.84,1.07-.15.13-.34.37-.44.53-1.26-.44-2.25-1.43-2.81-2.66-.07.07-.14.13-.22.2v2.45h-.64v-1.95c-.77.56-1.65,1.02-2.42,1.32-.09-.15-.27-.36-.41-.49,1.11-.36,2.41-1.07,3.27-1.85h-1.8v-2.14h4.68v2.14h-2.03ZM98.19,8.11h6.25v.57h-6.25v-.57ZM103.89,5.45v2.07h-5.24v-2.07h5.24ZM100.22,7.01v-1.05h-1v1.05h1ZM99.53,9.83v1.04h3.44v-1.04h-3.44ZM101.75,7.01v-1.05h-1.03v1.05h1.03ZM103.3,7.01v-1.05h-1.05v1.05h1.05Z"/><path class="cls-8" d="M107.06,11.33l1.2-.43c.03.13.06.27.12.59-1.06.43-2.17.87-2.88,1.14,0,.08-.06.14-.12.16l-.34-.76c.38-.12.86-.29,1.38-.47v-3.34h-1.21v-.64h1.21v-2.39l.84.06c0,.07-.07.11-.2.13v2.2h1.08v.19h1.76c-.07-.32-.24-.77-.44-1.12l.57-.14c.23.34.42.83.48,1.15-.22.05-.35.09-.43.11h2.18l-.26-.09c.18-.33.4-.83.52-1.18h-4.02v-.56h2.43v-.85l.86.05c0,.07-.06.12-.2.14v.66h2.59v.56h-1.51l.64.19c-.02.06-.09.09-.2.09-.14.28-.35.69-.53.99h1.84v.58h-6.28v-.13h-1.08v3.11ZM110.74,12.03c-.02.06-.08.11-.19.13-.28,1.05-.85,1.83-2.67,2.26-.07-.16-.25-.44-.39-.57,1.67-.32,2.22-.93,2.43-1.91l.82.09ZM112.42,13.47c0,.21.05.25.3.25h.87c.24,0,.29-.12.32-1.05.13.11.39.21.57.25-.07,1.12-.24,1.39-.81,1.39h-1.03c-.69,0-.86-.18-.86-.83v-1.62h-2.91v-2.97h4.9v2.97h-1.35v1.61ZM109.51,9.38v.77h3.6v-.77h-3.6ZM109.51,10.61v.79h3.6v-.79h-3.6Z"/><path class="cls-8" d="M116.15,7.13c0,.88-.16,1.98-.54,2.63l-.53-.27c.34-.58.5-1.6.52-2.44l.55.08ZM116.58,5.09l.86.06c0,.07-.07.12-.2.13v9.08h-.66V5.09ZM117.86,6.67c.33.49.68,1.13.83,1.53l-.49.33c-.15-.42-.5-1.1-.81-1.6l.47-.26ZM121.7,13.36h2.69v.65h-6.23v-.65h2.87v-2.43h-2.13v-.62h2.13v-2.21h-1.56c-.2.62-.43,1.18-.69,1.61-.13-.1-.38-.24-.54-.31.53-.88.93-2.39,1.17-3.85l.83.19c-.02.07-.09.11-.21.11-.1.53-.22,1.08-.37,1.61h1.37v-2.38l.87.06c0,.07-.06.12-.2.14v2.18h2.39v.64h-2.39v2.21h2.08v.62h-2.08v2.43Z"/><path class="cls-8" d="M127.67,5.32c-.03.07-.1.1-.22.11-.24.59-.59,1.37-.93,2,.71-.02,1.5-.05,2.3-.08-.23-.38-.49-.77-.75-1.11l.55-.23c.56.69,1.14,1.62,1.38,2.24l-.58.27c-.07-.18-.16-.39-.28-.61-1.4.1-2.84.17-3.76.21,0,.08-.08.12-.15.14l-.22-.79.82-.02c.37-.68.79-1.65,1.02-2.35l.82.22ZM129.29,8.92v4.69c0,.75-.4.78-1.67.78-.04-.18-.14-.45-.24-.63.3.01.57.02.77.02.43,0,.48,0,.48-.18v-1.1h-2.28v1.92h-.63v-5.5h3.57ZM128.63,9.5h-2.28v.93h2.28v-.93ZM126.35,11.96h2.28v-.99h-2.28v.99ZM133.2,8.91c.41,0,.48-.17.52-1.2.15.12.42.22.62.27-.09,1.22-.29,1.55-1.08,1.55h-1.81c-.93,0-1.18-.21-1.18-.99v-3.43l.86.05c0,.07-.06.12-.19.14v1.56c.9-.3,1.85-.67,2.44-.98l.51.55s-.06.03-.1.03c-.03,0-.06,0-.09,0-.68.31-1.77.67-2.76.96v1.12c0,.32.08.38.56.38h1.7ZM130.93,13.28c0,.34.1.4.6.4h1.76c.45,0,.52-.2.56-1.36.16.11.43.21.61.26-.08,1.35-.28,1.7-1.12,1.7h-1.87c-.94,0-1.2-.2-1.2-.99v-3.47l.86.05c0,.07-.06.12-.2.14v1.46c.96-.29,1.99-.7,2.59-1.08l.5.56s-.06.03-.11.03c-.02,0-.05,0-.08,0-.67.38-1.85.78-2.9,1.07v1.24Z"/><path class="cls-8" d="M140.34,9.8c.21.66.5,1.26.86,1.78.69-.41,1.53-.99,2.04-1.43l.64.47s-.12.07-.22.05c-.55.42-1.4.96-2.13,1.35.73.86,1.69,1.48,2.92,1.81-.15.13-.34.4-.44.59-2.21-.68-3.56-2.22-4.28-4.48-.48.44-1.08.86-1.73,1.23l.19.03c0,.06-.06.11-.19.13v2.07l2.88-.44.03.57c-1.57.28-3.24.56-4.29.72,0,.08-.07.13-.13.15l-.32-.75c.33-.04.73-.1,1.16-.16v-1.96c-.62.31-1.25.56-1.83.75-.1-.16-.3-.41-.44-.55,1.32-.36,2.87-1.11,3.9-1.93h-3.76v-.59h4.18v-1.01h-3.05v-.57h3.05v-.96h-3.63v-.59h3.63v-.99l.87.06c0,.07-.06.12-.19.14v.79h3.75v.59h-3.75v.96h3.17v.57h-3.17v1.01h4.23v.59h-3.95Z"/><path class="cls-8" d="M147.71,10.35c-.03.07-.1.1-.22.1-.47,1.14-1.23,2.32-2.01,3.06-.13-.12-.39-.3-.56-.4.76-.68,1.51-1.85,1.94-3.03l.85.27ZM154.21,9.03h-4.13v4.48c0,.45-.11.65-.44.76-.34.1-.92.11-1.81.11-.04-.19-.14-.48-.25-.67.42,0,.82.02,1.12.02.65,0,.69,0,.69-.22v-4.48h-4.1v-.66h8.92v.66ZM153.32,5.84v.66h-7.12v-.66h7.12ZM153.71,13.46c-.28-.85-1.06-2.17-1.82-3.14l.62-.27c.76.95,1.57,2.24,1.88,3.1l-.68.31Z"/><path class="cls-9" d="M16.64,90.34h.28c.38-.47.7-1.01.95-1.59l.46.16s-.07.07-.14.06c-.22.49-.49.95-.8,1.37h.78v.36h-1.07c-.2.24-.41.46-.64.67h1.4v2.58h-.38v-.24h-1.43v.35h-.38v-2.08c-.16.11-.33.2-.5.3-.05-.08-.16-.23-.23-.31.26-.13.5-.28.74-.45v-.16h.22c.25-.2.5-.43.73-.67h-1.6v-.36h1.24v-.81h-.96v-.36h.96v-.71l.5.03s-.04.07-.11.08v.59h.78v.36h-.78v.81ZM17.47,92.37v-.66h-1.43v.66h1.43ZM16.04,93.36h1.43v-.67h-1.43v.67ZM18.39,88.81h1.82c.07-.02.07-.02.08-.02.03.02.06.04.26.13,0,.02-.03.05-.05.06-.22.52-.53,1.17-.85,1.81.63.62.89,1.08.89,1.52,0,.95-.63.95-1.03.95-.1,0-.19,0-.28,0,0-.12-.06-.29-.14-.4.16.01.32.02.46.02.26,0,.58,0,.58-.58,0-.4-.28-.82-.92-1.43.28-.61.54-1.18.74-1.67h-1.17v4.84h-.4v-5.22Z"/><path class="cls-9" d="M26.47,91.83h-2.03c.32,1.01.91,1.82,1.51,1.81.19,0,.26-.25.29-.91.1.08.24.16.35.2-.07.88-.25,1.12-.67,1.12-.85,0-1.56-.97-1.91-2.22h-1.89v1.57c.61-.08,1.3-.19,1.97-.29l.02.37c-1.03.17-2.12.35-2.79.46-.01.05-.05.08-.09.08l-.16-.49c.19-.02.4-.05.64-.08v-4.67h4.3v1.79h-1.79c.01.29.05.59.11.87h2.13v.38ZM25.61,89.16h-3.48v1.03h3.48v-1.03ZM22.13,91.44h1.79c-.06-.28-.1-.58-.13-.87h-1.67v.87Z"/><path class="cls-9" d="M30.13,89.55c-.02.05-.07.1-.15.1-.22,1.87-.84,3.49-1.83,3.49-.5,0-.96-.5-.96-1.45,0-1.44,1.12-2.64,2.7-2.64,1.73,0,2.48,1.1,2.48,2.27,0,1.43-.83,2.12-2.28,2.45-.05-.1-.16-.26-.25-.37,1.38-.26,2.09-.94,2.09-2.07,0-.99-.64-1.89-2.04-1.89-.06,0-.13,0-.18.01l.43.1ZM29.55,89.47c-1.21.15-1.96,1.15-1.96,2.2,0,.64.28,1.04.56,1.04.73,0,1.25-1.6,1.4-3.24Z"/><path class="cls-9" d="M34.56,88.64s-.07.07-.13.06c-.12.4-.26.8-.43,1.19l.14.04s-.04.07-.12.07v4.04h-.37v-3.39c-.18.35-.37.67-.58.94-.04-.1-.13-.3-.19-.4.47-.62.92-1.66,1.2-2.69l.47.14ZM35.45,90.67l.2.05s-.02.05-.03.07c-.08.84-.24,1.52-.48,2.06.41.54,1.01.68,1.81.69.17,0,1.44,0,1.67,0-.06.09-.12.26-.14.37h-1.56c-.88,0-1.52-.16-1.97-.7-.19.32-.41.58-.67.78-.05-.08-.16-.22-.24-.29.26-.19.49-.47.68-.82-.18-.32-.32-.73-.43-1.26l.31-.1c.08.39.17.71.3.97.16-.41.27-.91.34-1.48h-.56l-.12.26-.34-.08c.28-.58.61-1.37.82-1.9h-.67v-.34h.86l.07-.02.23.1s-.02.05-.04.08c-.16.38-.41.99-.67,1.57h.61ZM36.76,89.82v-.5h-.92v-.32h.92v-.5l.49.04s-.04.07-.12.08v.38h1.1v.82h.39v.32h-.39v.83h-1.1v.49h1.19v.32h-1.19v.5h1.37v.32h-1.37v.73h-.37v-.73h-1.21v-.32h1.21v-.5h-1.02v-.32h1.02v-.49h-.92v-.32h.92v-.52h-1.33v-.32h1.33ZM37.87,89.32h-.74v.5h.74v-.5ZM37.87,90.66v-.52h-.74v.52h.74Z"/><path class="cls-9" d="M44.5,89.39h-4.65v1.44c0,.94-.08,2.31-.58,3.23-.07-.07-.24-.19-.33-.22.48-.88.53-2.11.53-3v-1.8h2.27v-.56l.53.04s-.04.07-.12.08v.44h2.34v.37ZM39.86,93.46c.42-.14,1.04-.37,1.66-.59.02.07.04.13.07.31-.53.22-1.08.44-1.44.58,0,.04-.02.08-.06.1l-.23-.39ZM43.96,91.83h-1.51c.11.3.27.57.47.82.34-.2.74-.48,1-.7l.36.28s-.07.04-.13.03c-.26.19-.68.43-1.03.61.35.36.8.62,1.33.77-.08.08-.2.22-.25.32-.85-.29-1.49-.87-1.89-1.66v1.24c0,.26-.07.37-.25.43-.19.05-.5.06-1.01.06-.02-.1-.08-.26-.14-.36.23,0,.46.01.62.01.35,0,.39,0,.39-.14v-1.72h-1.5v-.31h1.5v-.52h-1.89v-.31h1.89v-.49h-1.46v-.3h1.46v-.46l.5.03s-.04.08-.11.08v.34h1.65v.79h.61v.31h-.61v.82ZM41.1,92.81c-.2-.19-.58-.48-.9-.67l.23-.22c.32.17.71.45.91.64l-.25.25ZM42.3,90.21v.49h1.27v-.49h-1.27ZM42.3,91v.52h1.27v-.52h-1.27Z"/><path class="cls-9" d="M49.2,90.59s-.03,0-.05,0c-.04,0-.09-.01-.13-.04-1.78.52-3.39,1.31-3.39,2.11,0,.58.64.77,1.61.77s1.7-.07,2.12-.14l.04.44c-.55.07-1.45.11-2.15.11-1.19,0-2.05-.28-2.06-1.16,0-.64.64-1.21,1.58-1.69-.2-.37-.28-1.06-.28-2.42l.66.05c0,.08-.07.13-.19.14,0,1.05.03,1.7.2,2.03.56-.26,1.21-.5,1.87-.72l.16.5Z"/><path class="cls-9" d="M55.54,91.27h-1.09s-.05.02-.09.02c-.19.66-.5,1.17-.93,1.56.71.27,1.37.57,1.82.83l-.28.35c-.45-.28-1.13-.6-1.88-.89-.64.46-1.49.73-2.54.89-.04-.1-.15-.26-.23-.35.94-.13,1.72-.34,2.32-.71-.41-.15-.83-.29-1.22-.41-.05.09-.09.18-.13.26l-.41-.11c.21-.38.46-.9.7-1.44h-1.46v-.39h1.64c.17-.38.33-.76.46-1.09l.52.1s-.05.07-.13.07c-.11.28-.25.59-.4.92h3.35v.39ZM50.71,89.58v.91h-.41v-1.29h2.3v-.74l.54.04s-.04.07-.12.08v.62h2.32v1.29h-.42v-.91h-4.21ZM52.02,91.27c-.15.33-.31.67-.45.98.46.12.95.28,1.45.46.43-.35.73-.82.91-1.43h-1.91Z"/><path class="cls-9" d="M59.17,88.47s-.06.08-.12.09c.58.79,1.66,1.7,2.59,2.18-.1.1-.2.23-.27.35-.94-.55-2.01-1.46-2.57-2.24-.49.74-1.48,1.67-2.52,2.28-.05-.09-.17-.23-.25-.32,1.05-.59,2.09-1.58,2.55-2.38l.59.03ZM59.01,92.44v1.05h2.42v.37h-5.19v-.37h2.35v-1.05h-1.85v-.37h1.85v-1h-1.58v-.37h3.65v.37h-1.65v1h1.87v.37h-1.87Z"/><path class="cls-9" d="M67.2,91.03s-.02.01-.04.01c-.04,0-.07-.02-.09-.04-.46.15-1.12.4-1.62.61.01.14.02.29.02.47,0,.19,0,.41-.02.64l-.44.02c.02-.22.03-.49.03-.73,0-.09,0-.17,0-.24-.68.33-1.23.73-1.23,1.09s.41.52,1.24.52c.58,0,1.12-.01,1.5-.06v.4c-.35.04-.89.05-1.5.05-1.15,0-1.66-.28-1.66-.89,0-.53.7-1.04,1.59-1.49-.04-.38-.2-.56-.44-.56-.44,0-.89.25-1.43.85-.17.19-.4.42-.66.65l-.29-.29c.6-.53,1.16-1.03,1.51-2.21h-.34s-1,0-1,0v-.39c.37,0,.79,0,1.04,0h.41c.07-.28.12-.54.16-.86l.59.07c-.01.06-.06.1-.15.11-.04.24-.1.45-.15.67.41,0,1.28-.1,2.06-.35l.07.4c-.75.23-1.66.32-2.25.34-.14.45-.29.81-.43,1.01h0c.26-.23.66-.39.96-.39.41,0,.67.29.74.78.5-.23,1.14-.47,1.62-.66l.19.46Z"/><path class="cls-9" d="M70.04,89.21h-1.07c-.08.5-.19.99-.32,1.45h1.18v2.61h-1.18v.49h-.35v-2.12c-.11.25-.24.47-.38.66-.04-.09-.15-.28-.21-.36.43-.61.71-1.64.86-2.73h-.73v-.37h2.2v.37ZM69.47,92.91v-1.89h-.83v1.89h.83ZM73.38,93.43v.35h-2.48v.29h-.38v-2.67c-.14.16-.29.31-.45.44-.05-.09-.16-.26-.22-.34.55-.44.98-1.15,1.3-1.97h-.73v.74h-.35v-1.1h1.21c.08-.23.14-.48.2-.73l.5.11s-.06.07-.14.07c-.05.19-.1.37-.16.55h1.6v1.1h-.37v-.74h-1.35c-.14.38-.3.73-.49,1.06h.71c.11-.25.24-.58.31-.81l.46.14s-.05.05-.12.05c-.07.17-.17.41-.27.61h1.06v.35h-1.11v.61h.97v.32h-.97v.61h.97v.32h-.97v.61h1.27ZM71.73,91.56v-.61h-.83v.61h.83ZM71.73,92.49v-.61h-.83v.61h.83ZM70.9,92.82v.61h.83v-.61h-.83Z"/><path class="cls-9" d="M74.61,90.58c-.23.38-.48.71-.73,1-.04-.1-.14-.28-.21-.38.58-.62,1.15-1.66,1.5-2.7l.48.16s-.07.06-.14.05c-.16.42-.34.84-.55,1.24l.16.04s-.04.07-.12.07v3.98h-.39v-3.47ZM79.33,91.84h-1.48c.4.66,1.04,1.29,1.64,1.62-.1.08-.22.22-.29.32-.58-.37-1.2-1.03-1.61-1.73v1.98h-.4v-1.95c-.43.7-1.08,1.34-1.69,1.69-.07-.1-.19-.25-.28-.32.64-.31,1.31-.95,1.72-1.61h-1.56v-.38h1.81v-.7h-1.35v-2.01h3.15v2.01h-1.4v.7h1.73v.38ZM76.23,89.12v1.28h2.37v-1.28h-2.37Z"/><path class="cls-9" d="M82.76,89.45c0-.13-.02-.79-.04-.94l.62.02s-.05.11-.16.13c0,.07,0,.14.01.77.74-.02,1.51-.04,1.96-.05v.41c-.51-.01-1.24,0-1.95.02.01.47.02.9.04,1.23.06.2.07.38.07.63,0,.19-.02.41-.06.58-.16.7-.67,1.32-1.73,1.74-.08-.1-.21-.25-.31-.34.92-.33,1.41-.83,1.56-1.4h0c-.13.18-.35.32-.62.32-.53,0-1.01-.44-1.01-1.05,0-.64.51-1.12,1.08-1.12.22,0,.44.08.56.19,0-.1-.01-.5-.02-.76-.62.01-2.52.08-2.76.09v-.4s1.36-.04,1.36-.04l1.4-.05ZM82.87,91.56c0-.23,0-.78-.61-.78-.41,0-.71.32-.71.76,0,.42.32.7.67.7.43,0,.66-.33.66-.68Z"/><path class="cls-9" d="M87.3,91.09c.4-.2,1.01-.35,1.49-.35.95,0,1.55.56,1.55,1.44,0,1.09-.95,1.69-2.16,1.69-.78,0-1.31-.31-1.31-.84,0-.44.44-.8.98-.8.68,0,1.13.54,1.22,1.08.48-.18.83-.56.83-1.12,0-.65-.48-1.06-1.24-1.06-.9,0-1.78.4-2.18.79-.18.17-.41.42-.58.61l-.31-.31c.54-.56,2.25-2.2,3.07-2.96-.35.05-1.55.1-2.23.12-.02.04-.08.08-.13.09l-.05-.51c.81,0,2.36-.07,2.79-.13l.09-.04.32.39s-.08.05-.14.05c-.43.35-1.57,1.42-2.03,1.87h0ZM88.12,93.49c.18,0,.39-.02.55-.06-.07-.46-.41-.85-.85-.85-.31,0-.59.17-.59.44,0,.37.5.47.89.47Z"/><path class="cls-9" d="M92.96,92.26l.04.35c-.66.17-1.35.35-1.79.46,0,.05-.04.08-.08.1l-.16-.45c.23-.05.52-.11.84-.19v-1.52h-.7v-.37h.7v-1.39h-.77v-.37h1.91v.37h-.77v1.39h.66v.37h-.66v1.43l.77-.18ZM94.9,92.25c.1.22.23.43.4.62.28-.16.64-.39.85-.55l.35.26s-.04.03-.07.03c-.02,0-.03,0-.05,0-.23.14-.6.34-.89.47.31.29.68.52,1.1.64-.09.08-.2.22-.26.32-.76-.26-1.35-.86-1.69-1.6-.04.04-.08.08-.13.12v1.47h-.38v-1.17c-.46.34-.99.61-1.45.79-.05-.09-.16-.21-.25-.29.67-.22,1.45-.64,1.96-1.11h-1.08v-1.28h2.81v1.28h-1.22ZM92.87,90.27h3.75v.34h-3.75v-.34ZM96.29,88.67v1.24h-3.14v-1.24h3.14ZM94.09,89.61v-.63h-.6v.63h.6ZM93.68,91.3v.62h2.06v-.62h-2.06ZM95.01,89.61v-.63h-.62v.63h.62ZM95.94,89.61v-.63h-.63v.63h.63Z"/><path class="cls-9" d="M98.19,92.2l.72-.26c.02.08.04.16.07.35-.64.26-1.3.52-1.73.68,0,.05-.04.08-.07.1l-.2-.46c.23-.07.52-.17.83-.28v-2h-.73v-.38h.73v-1.43l.5.04s-.04.07-.12.08v1.32h.65v.11h1.06c-.04-.19-.14-.46-.26-.67l.34-.08c.14.21.25.5.29.69-.13.03-.21.05-.26.07h1.31l-.16-.05c.11-.2.24-.5.31-.71h-2.41v-.34h1.46v-.51l.52.03s-.04.07-.12.08v.39h1.55v.34h-.91l.38.11s-.05.05-.12.05c-.08.17-.21.41-.32.59h1.1v.35h-3.77v-.08h-.65v1.87ZM100.4,92.62s-.05.07-.11.08c-.17.63-.51,1.1-1.6,1.36-.04-.1-.15-.26-.23-.34,1-.19,1.33-.56,1.46-1.15l.49.05ZM101.41,93.49c0,.13.03.15.18.15h.52c.14,0,.17-.07.19-.63.08.07.23.12.34.15-.04.67-.14.83-.49.83h-.62c-.41,0-.52-.11-.52-.5v-.97h-1.75v-1.78h2.94v1.78h-.81v.96ZM99.66,91.03v.46h2.16v-.46h-2.16ZM99.66,91.77v.47h2.16v-.47h-2.16Z"/><path class="cls-9" d="M104.38,88.91c-.02.07-.08.1-.2.1-.21.98-.32,2.05-.32,2.7,0,.45.02.91.08,1.19.11-.29.37-.92.46-1.13l.25.26c-.25.61-.43.95-.51,1.22-.03.1-.05.2-.05.28,0,.07.01.12.03.19l-.43.08c-.19-.57-.26-1.27-.26-2.06s.13-1.88.32-2.92l.63.11ZM108.2,93.29c-.22.01-.44.02-.66.02-.43,0-.83-.02-1.12-.07-.74-.11-1.08-.52-1.08-1,0-.41.23-.76.56-1.16l.39.17c-.3.31-.51.6-.51.94,0,.7,1.02.7,1.64.7.25,0,.52-.01.77-.03v.43ZM105.42,89.62c.77-.02,1.82-.09,2.62-.23l.04.42c-.74.13-1.95.21-2.64.22v-.41Z"/><path class="cls-9" d="M111.45,90.69h-1.8v3.35h-.4v-5.31h2.19v1.96ZM111.06,89.04h-1.42v.51h1.42v-.51ZM109.65,90.37h1.42v-.54h-1.42v.54ZM114.26,88.73v4.8c0,.47-.22.5-1,.5-.01-.1-.07-.27-.11-.38-.02.02-.03.05-.04.07-.62-.17-1.07-.51-1.34-1-.16.37-.55.74-1.43,1.01-.05-.08-.16-.2-.24-.27.9-.25,1.23-.61,1.35-.94h-1.3v-.32h1.36v-.51h-1.26v-.31h.69c-.06-.16-.17-.37-.29-.52l.32-.1c.15.19.29.44.34.61h-.02s.82,0,.82,0c.11-.18.26-.46.33-.65l.43.17s-.07.05-.12.04c-.07.12-.18.29-.28.44h.77v.31h-1.36v.51h1.47v.32h-1.33c.24.45.7.76,1.31.89-.06.05-.13.13-.18.21.16,0,.31.01.43.01.26,0,.29,0,.29-.12v-2.84h-1.85v-1.97h2.25ZM113.86,89.04h-1.46v.51h1.46v-.51ZM112.4,90.38h1.46v-.55h-1.46v.55Z"/><path class="cls-9" d="M117.92,89.45c0-.13-.02-.79-.04-.94l.62.02s-.05.11-.16.13c0,.07,0,.14.01.77.74-.02,1.51-.04,1.96-.05v.41c-.51-.01-1.24,0-1.95.02.01.47.02.9.04,1.23.06.2.07.38.07.63,0,.19-.02.41-.06.58-.16.7-.67,1.32-1.73,1.74-.08-.1-.21-.25-.31-.34.92-.33,1.41-.83,1.56-1.4h0c-.13.18-.35.32-.62.32-.53,0-1.01-.44-1.01-1.05,0-.64.51-1.12,1.08-1.12.22,0,.44.08.56.19,0-.1-.01-.5-.02-.76-.62.01-2.52.08-2.76.09v-.4s1.36-.04,1.36-.04l1.4-.05ZM118.03,91.56c0-.23,0-.78-.61-.78-.41,0-.71.32-.71.76,0,.42.32.7.67.7.43,0,.66-.33.66-.68Z"/><path class="cls-9" d="M122.46,91.09c.4-.2,1.01-.35,1.49-.35.95,0,1.55.56,1.55,1.44,0,1.09-.95,1.69-2.16,1.69-.78,0-1.31-.31-1.31-.84,0-.44.44-.8.98-.8.68,0,1.13.54,1.22,1.08.48-.18.83-.56.83-1.12,0-.65-.48-1.06-1.24-1.06-.9,0-1.78.4-2.18.79-.18.17-.41.42-.58.61l-.31-.31c.54-.56,2.25-2.2,3.07-2.96-.35.05-1.55.1-2.23.12-.02.04-.08.08-.13.09l-.05-.51c.81,0,2.36-.07,2.79-.13l.09-.04.32.39s-.08.05-.14.05c-.43.35-1.57,1.42-2.03,1.87h0ZM123.28,93.49c.18,0,.39-.02.55-.06-.07-.46-.41-.85-.85-.85-.31,0-.59.17-.59.44,0,.37.5.47.89.47Z"/><path class="cls-9" d="M131.66,92.2h-2.12c.53.59,1.41,1.1,2.23,1.35-.1.08-.22.24-.28.34-.85-.3-1.77-.9-2.34-1.59v1.73h-.41v-1.74c-.57.7-1.49,1.31-2.32,1.63-.06-.1-.18-.25-.26-.34.79-.25,1.67-.79,2.21-1.38h-2.1v-.37h2.48v-.68l.53.03s-.04.08-.12.08v.56h2.51v.37ZM130.35,89.01l.3.17s-.05.04-.07.05c-.29.51-.71.93-1.22,1.28.67.33,1.48.55,2.36.67-.08.09-.19.25-.24.36-.92-.14-1.77-.4-2.48-.8-.76.44-1.65.73-2.52.9-.03-.11-.12-.28-.19-.37.79-.13,1.62-.38,2.34-.76-.35-.23-.66-.51-.91-.83-.29.26-.64.51-1.04.72-.07-.1-.19-.23-.29-.29.91-.45,1.54-1.1,1.86-1.66l.53.09s-.05.07-.13.07c-.08.14-.19.28-.3.42h1.94l.07-.02ZM128.03,89.38l-.04.04c.25.34.59.63,1,.88.41-.26.76-.56,1.01-.91h-1.97Z"/><path class="cls-9" d="M132.87,90.63c-.2.35-.41.68-.63.96-.04-.1-.14-.3-.2-.39.52-.62,1.01-1.67,1.32-2.7l.47.15s-.06.07-.14.07c-.13.4-.29.8-.46,1.19l.14.04s-.04.07-.11.08v4.02h-.39v-3.41ZM136.04,88.78v.37h-1.27c-.05.28-.1.59-.19.9h.94s.06-.01.07-.01c.05.02.11.04.25.09,0,.03-.03.05-.05.07-.25,1.9-.91,3.19-1.85,3.86-.05-.1-.19-.25-.27-.32.52-.35.95-.89,1.26-1.64-.17-.19-.49-.46-.76-.64l.17-.31c.25.17.56.4.73.58.13-.4.24-.83.31-1.32h-.89c-.19.61-.44,1.2-.82,1.64-.05-.08-.17-.22-.25-.28.55-.66.82-1.73.95-2.62h-.59v-.37h2.25ZM136.39,92.65h-.37v-3.5l.49.03s-.04.07-.11.08v3.39ZM137.14,88.55l.5.03s-.04.07-.11.08v4.84c0,.5-.23.53-1.18.53-.02-.11-.08-.29-.13-.4.19,0,.36.01.5.01.4,0,.43,0,.43-.14v-4.96Z"/><path class="cls-9" d="M139.54,88.91c-.02.07-.08.1-.2.1-.21.98-.32,2.05-.32,2.7,0,.45.02.91.08,1.19.11-.29.37-.92.46-1.13l.25.26c-.25.61-.43.95-.51,1.22-.03.1-.05.2-.05.28,0,.07.01.12.03.19l-.43.08c-.19-.57-.26-1.27-.26-2.06s.13-1.88.32-2.92l.63.11ZM143.36,93.29c-.22.01-.44.02-.66.02-.43,0-.83-.02-1.12-.07-.74-.11-1.08-.52-1.08-1,0-.41.23-.76.56-1.16l.39.17c-.3.31-.51.6-.51.94,0,.7,1.02.7,1.64.7.25,0,.52-.01.77-.03v.43ZM140.58,89.62c.77-.02,1.82-.09,2.62-.23l.04.42c-.74.13-1.95.21-2.64.22v-.41Z"/><path class="cls-9" d="M149.65,91.76h-1.33c.35.43.88.8,1.4.98-.08.08-.2.22-.26.32-.59-.26-1.2-.75-1.56-1.3h-1.95c-.38.57-1,1.1-1.59,1.38-.06-.1-.17-.23-.26-.31.51-.21,1.05-.62,1.41-1.07h-1.35v-.35h1.27v-1.96h-1v-.35h1v-.64l.52.03s-.04.07-.12.08v.53h2.15v-.64l.53.03s-.04.08-.12.08v.53h1v.35h-1v1.96h1.27v.35ZM147.09,92.85v.68h2.12v.35h-4.6v-.35h2.07v-.68h-1.28v-.34h1.28v-.57l.53.03s-.04.07-.12.08v.46h1.31v.34h-1.31ZM147.98,89.45h-2.15v.44h2.15v-.44ZM145.83,90.21v.44h2.15v-.44h-2.15ZM145.83,90.96v.45h2.15v-.45h-2.15Z"/><path class="cls-9" d="M150.29,90.25c.14-.03.34-.08.62-.17,1.06-.34,2.01-.58,2.67-.58,1.01,0,1.87.5,1.87,1.76,0,1.49-1.47,2.06-3.5,2.27-.02-.09-.1-.3-.16-.41,1.85-.17,3.18-.68,3.18-1.83,0-.94-.65-1.35-1.44-1.35-.86,0-2.4.5-2.94.73,0,.06-.05.12-.11.14l-.19-.55ZM154.17,88.55c.32.25.63.58.8.83l-.24.19c-.17-.26-.48-.61-.79-.83l.22-.19ZM155.04,88.3c.33.26.61.54.8.82l-.24.19c-.19-.28-.49-.59-.79-.83l.23-.18Z"/><path class="cls-9" d="M161.15,90.61c-.54.19-1.19.3-1.81.37.19.32.55.77.99.94l-.24.34c-.08-.04-.24-.11-.35-.18-.13-.05-.43-.09-.71-.09-.08,0-.17,0-.25.01l-.08-.33c.2-.01.5,0,.67.02-.16-.17-.35-.43-.47-.68-.4.04-.85.06-1.61.06-.29,0-.62,0-.89,0v-.38c.26,0,.61.01.91.01.49,0,.98,0,1.46-.04-.07-.19-.16-.53-.23-.8-.24.02-.51.04-.76.04-.32,0-.74,0-1.02-.01v-.37c.36.02.76.02,1.01.02.22,0,.46-.01.69-.03-.05-.28-.11-.61-.16-.94h.62c0,.08-.05.12-.16.14.04.26.08.53.13.77.56-.05,1.17-.17,1.61-.35l.1.37c-.44.16-1.03.28-1.63.34.08.32.16.6.23.79.64-.07,1.33-.2,1.87-.4l.08.38ZM160.09,93.78c-.33.02-.73.04-1.32.04-.97,0-1.73-.32-1.71-1,0-.35.32-.73.71-.95l.27.28c-.35.19-.55.44-.55.67,0,.43.53.61,1.29.62.45,0,.92-.02,1.33-.05v.4Z"/><path class="cls-9" d="M16.58,97.78l.23.08s-.02.05-.04.07c-.1.81-.26,1.48-.51,2.02.6.59,1.45.73,2.49.73.23,0,1.56,0,1.85,0-.07.1-.14.28-.16.4h-1.7c-1.13,0-2.01-.16-2.66-.76-.23.4-.5.71-.82.94-.06-.08-.22-.23-.3-.28.34-.23.62-.55.85-.96-.23-.31-.43-.7-.58-1.2l.32-.13c.11.38.26.7.44.96.17-.41.29-.9.37-1.47h-.77l-.13.25-.37-.1c.31-.58.68-1.34.94-1.88h-1.03v-.37h1.26l.08-.02.26.11s-.03.05-.05.08c-.19.38-.48.99-.77,1.57h.8ZM18.36,97.8v-.48h-1.7v-.34h1.7v-.47h-1.23v-.33h1.23v-.54l.51.04s-.04.07-.11.08v.43h1.32v.8h.49v.34h-.49v.81h-1.32v.5h1.42v.32h-1.42v.5h1.69v.34h-1.69v.67h-.4v-.67h-1.62v-.34h1.62v-.5h-1.36v-.32h1.36v-.5h-1.27v-.33h1.27ZM18.75,96.51v.47h.92v-.47h-.92ZM19.68,97.8v-.48h-.92v.48h.92Z"/><path class="cls-9" d="M26.5,99.75h-2.18c.57.43,1.49.8,2.3.96-.09.08-.2.24-.26.35-.82-.21-1.79-.65-2.38-1.19v1.36h-.4v-1.36c-.59.54-1.55.99-2.36,1.21-.06-.1-.17-.25-.26-.33.8-.17,1.7-.56,2.27-1h-2.14v-.34h2.5v-.53c-.16.14-.38.27-.66.38-.05-.08-.19-.23-.26-.28.84-.31,1-.73,1-1.13v-.61h2.12v1.26c0,.21,0,.23.13.23h.18c.2,0,.2-.02.22-.63.07.07.19.12.28.15-.02.61-.04.8-.49.8h-.28c-.43,0-.43-.23-.43-.58v-.94h-1.37v.32c0,.34-.09.71-.44,1.01l.5.03s-.04.07-.11.08v.42h2.52v.34ZM22.41,97.09c-.05-.17-.16-.41-.28-.62h-.29c-.17.25-.35.47-.54.64-.07-.07-.21-.16-.3-.21.34-.29.67-.79.86-1.27l.46.16s-.06.05-.13.05c-.04.1-.1.2-.15.3h1.65v.34h-1.19c.11.18.2.38.25.52l-.34.1ZM23.3,98.55c-.76.14-1.55.28-2.06.36,0,.05-.04.07-.07.08l-.15-.4c.28-.04.62-.08,1-.14v-.86h-.89v-.31h2.14v.31h-.88v.81l.89-.13v.28ZM25.12,97.1c-.07-.17-.24-.43-.41-.63h-.52c-.17.23-.37.44-.58.59-.08-.06-.23-.15-.32-.2.38-.28.74-.74.94-1.24l.47.14s-.05.05-.13.05c-.05.1-.1.2-.16.31h2.13v.34h-1.42c.14.17.27.37.34.51l-.35.12ZM24.37,97.81c.31.18.69.45.88.64l-.24.25c-.19-.19-.56-.48-.87-.67l.23-.22Z"/><path class="cls-9" d="M29.97,100.63h2.52v.4h-5.41v-.4h2.47v-1.49h-1.91v-.4h1.91v-1.38h-2.17v-.4h4.82v.4h-2.22v1.38h1.97v.4h-1.97v1.49ZM28.89,95.63c.63.22,1.45.6,1.88.89l-.3.35c-.4-.29-1.22-.7-1.86-.94l.28-.31Z"/><path class="cls-9" d="M35.32,95.95c-.01.07-.08.1-.2.11-.07.34-.17.92-.25,1.28.27-.03.52-.05.67-.05.91-.01,1.22.59,1.22,1.49,0,.45-.08.98-.2,1.34-.19.61-.57.91-1.07.91-.25,0-.57-.1-1.09-.52.07-.11.11-.24.16-.37.48.37.73.46.92.46.34,0,.55-.22.67-.6.13-.37.19-.92.19-1.23,0-.68-.23-1.09-.83-1.08-.18,0-.43.02-.73.06-.3,1.22-.65,2.27-1.23,3.24l-.4-.19c.58-.93.91-1.86,1.19-3-.31.04-.74.09-1.07.14l-.04-.42c.29-.04.79-.09,1.19-.14.09-.44.19-.98.26-1.51l.62.08ZM36.71,95.76c.29.22.63.58.8.84l-.23.17c-.17-.26-.53-.64-.79-.83l.22-.17ZM38.05,99.25c-.2-.86-.67-1.59-1.22-2.04l.35-.23c.59.5,1.11,1.25,1.31,2.12l-.43.16ZM37.62,95.53c.29.22.64.58.81.83l-.23.17c-.17-.26-.53-.64-.79-.84l.22-.17Z"/><path class="cls-9" d="M41.91,95.76s-.06.06-.13.07c-.07.19-.17.45-.26.67h2.18v4.71h-.42v-.32h-3.27v.35h-.4v-4.75h1.49c.11-.26.22-.61.27-.85l.55.11ZM43.28,96.89h-3.27v.96h3.27v-.96ZM43.28,98.23h-3.27v.95h3.27v-.95ZM40.01,100.51h3.27v-.95h-3.27v.95Z"/><path class="cls-9" d="M45.62,100.3c0,.32.14.4.82.4h2.42c.67,0,.76-.19.83-1.13.11.08.29.14.41.17-.1,1.07-.29,1.36-1.25,1.36h-2.39c-.96,0-1.26-.14-1.26-.8v-2.28h3.6v-1.59h-3.85v-.4h4.26v2.76h-.41v-.38h-3.19v1.89Z"/><path class="cls-9" d="M52.8,96.68v.34h-2.29v-.34h2.29ZM52.59,99.12v1.76h-1.45v.28h-.36v-2.04h1.81ZM50.79,97.82v-.33h1.81v.33h-1.81ZM50.79,98.64v-.33h1.81v.33h-1.81ZM52.58,95.88v.33h-1.75v-.33h1.75ZM52.23,99.46h-1.08v1.08h1.08v-1.08ZM56.1,98.75v.39h-1.48v2.09h-.4v-2.09h-1.54v-.39h1.54v-2.36h-1.27v-.38h3.02v.38h-1.36v2.36h1.48ZM53.43,98.42c-.03-.42-.17-1.07-.34-1.56l.34-.09c.17.5.32,1.14.37,1.56l-.36.09ZM55.9,96.86s-.06.06-.13.07c-.1.44-.29,1.1-.45,1.51-.07-.02-.24-.08-.32-.11.16-.42.34-1.12.43-1.6l.47.13Z"/><path class="cls-9" d="M57.21,97.83c-.2.35-.41.68-.63.96-.04-.1-.14-.3-.2-.39.52-.62,1.01-1.67,1.32-2.71l.47.15s-.06.07-.14.07c-.13.4-.29.8-.46,1.19l.14.04s-.04.07-.11.08v4.02h-.39v-3.41ZM62.09,96.55h-1.25v1.19h1.13v3.39h-.39v-.33h-3v.36h-.38v-3.42h1.1v-1.19h-1.21v-.38h3.99v.38ZM58.58,98.11v2.33h.75v-2.33h-.75ZM60.45,97.74v-1.19h-.76v1.19h.76ZM60.45,98.11h-.76v2.33h.76v-2.33ZM61.58,100.44v-2.33h-.77v2.33h.77Z"/><path class="cls-9" d="M63.88,95.92c-.01.07-.07.11-.19.13-.05.7-.11,2.28-.11,3.17s.44,1.32,1.2,1.32,1.48-.37,2.16-1.14c.06.1.2.29.27.35-.7.8-1.55,1.22-2.43,1.22-1.09,0-1.65-.63-1.65-1.76,0-.75.05-2.61.1-3.35l.65.05Z"/><path class="cls-9" d="M71.32,96.97c-.51.18-1.19.29-1.84.34-.25,1.37-.62,2.74-1.1,3.75l-.43-.16c.49-.96.85-2.21,1.08-3.57-.12,0-.92.01-1.1,0v-.41c.09,0,.22,0,.35,0,.05,0,.65,0,.81,0,.06-.38.12-.8.16-1.17l.62.06c0,.07-.09.11-.17.12-.04.26-.1.59-.15.95.59-.05,1.18-.16,1.68-.34l.1.41ZM72.91,100.97c-.18,0-.37.01-.55.01-.56,0-1.1-.04-1.42-.13-.43-.12-.67-.43-.67-.83,0-.26.12-.56.37-.87l.36.16c-.21.25-.31.48-.31.67,0,.47.46.59,1.55.59.22,0,.45,0,.67-.02v.43ZM70.57,98.08c.62-.2,1.47-.32,2.18-.3v.41c-.68-.02-1.46.08-2.07.27l-.1-.37Z"/><path class="cls-9" d="M76.96,98.95c-.38.04-.93.07-1.43.07-.02.21-.04.44-.04.56,0,.96.64,1.04,1.19,1.04.94,0,1.41-.27,1.41-.82,0-.31-.17-.7-.49-1.1.11-.04.29-.1.38-.15.37.47.55.93.55,1.32,0,1.01-1.13,1.16-1.85,1.16-.58,0-1.61-.04-1.61-1.44,0-.27.02-.47.04-.57-.5-.02-1.31-.05-1.31-.67,0-.27.16-.52.51-.77l.32.19c-.26.16-.42.36-.42.52,0,.32.48.33.94.34.04-.4.1-.88.15-1.34-.43-.05-.93-.17-1.26-.33l.11-.39c.33.16.75.27,1.2.32.05-.38.09-.76.13-1.08l.62.08c-.02.07-.08.11-.19.12-.04.25-.09.58-.14.92.17.01.36.02.55.02.23,0,.46,0,.68-.02l-.02.4c-.18.01-.38.02-.59.02-.23,0-.47,0-.68-.02-.06.45-.11.91-.16,1.32.47,0,1-.03,1.4-.08v.4Z"/><path class="cls-9" d="M82.27,96.75c-.02.05-.07.1-.15.1-.22,1.87-.84,3.49-1.83,3.49-.5,0-.96-.5-.96-1.45,0-1.44,1.12-2.64,2.7-2.64,1.73,0,2.48,1.1,2.48,2.27,0,1.43-.83,2.12-2.28,2.45-.05-.1-.16-.26-.25-.37,1.38-.26,2.09-.94,2.09-2.07,0-.99-.64-1.89-2.04-1.89-.06,0-.13,0-.18.01l.43.1ZM81.69,96.68c-1.21.15-1.96,1.15-1.96,2.2,0,.64.28,1.04.56,1.04.73,0,1.25-1.6,1.4-3.24Z"/><path class="cls-9" d="M85.23,96.47c.45-.02,4.14-.28,4.92-.29v.45c-.07,0-.14,0-.22,0-.35,0-.64.06-1.03.31-.9.54-1.77,1.5-1.77,2.28,0,.84.59,1.34,2.08,1.53l-.2.42c-1.7-.25-2.34-.88-2.34-1.95,0-.85.83-1.87,1.93-2.56-.66.05-2.43.18-3.2.25-.02.05-.08.09-.13.1l-.05-.53ZM89.12,97.65c.29.22.63.57.82.83l-.23.19c-.17-.26-.53-.63-.79-.83l.2-.18ZM89.77,97.12c.29.22.64.56.82.83l-.23.18c-.16-.24-.51-.61-.79-.83l.2-.18Z"/><path class="cls-9" d="M93.92,96.65c0-.13-.02-.79-.04-.94l.62.02s-.05.11-.16.12c0,.07,0,.14.01.77.74-.02,1.51-.04,1.96-.05v.41c-.51-.01-1.24,0-1.95.02.01.47.02.9.04,1.23.06.2.07.38.07.63,0,.19-.02.41-.06.58-.16.7-.67,1.32-1.73,1.74-.08-.1-.21-.25-.31-.34.92-.33,1.41-.83,1.56-1.4h0c-.13.18-.35.32-.62.32-.53,0-1.01-.44-1.01-1.05,0-.64.51-1.12,1.08-1.12.22,0,.44.08.56.19,0-.1-.01-.5-.02-.76-.62.01-2.52.08-2.76.09v-.4s1.36-.04,1.36-.04l1.4-.05ZM94.03,98.76c0-.23,0-.78-.61-.78-.41,0-.71.32-.71.76,0,.42.32.7.67.7.43,0,.66-.33.66-.68Z"/><path class="cls-9" d="M97.97,100.39c0,.46-.38.84-.84.84s-.84-.38-.84-.84.38-.84.84-.84.84.39.84.84ZM97.76,100.39c0-.35-.28-.62-.62-.62s-.62.28-.62.62.28.62.62.62c.36,0,.62-.29.62-.62Z"/><path class="cls-9" d="M73.87,27.03l.27.09s-.03.06-.05.08c-.11.95-.31,1.73-.6,2.36.7.69,1.7.85,2.91.85.27,0,1.82,0,2.16,0-.08.11-.16.33-.19.46h-1.98c-1.32,0-2.35-.18-3.11-.89-.27.46-.59.83-.96,1.09-.07-.1-.25-.27-.35-.33.39-.27.73-.64,1-1.12-.27-.36-.5-.82-.67-1.4l.37-.15c.13.45.3.82.51,1.12.2-.48.34-1.05.43-1.72h-.9l-.15.29-.43-.12c.36-.67.8-1.56,1.09-2.19h-1.2v-.43h1.47l.09-.02.3.13s-.04.06-.06.09c-.22.45-.56,1.16-.9,1.83h.94ZM75.94,27.06v-.56h-1.99v-.39h1.99v-.55h-1.44v-.39h1.44v-.63l.6.04s-.04.08-.13.09v.5h1.54v.94h.57v.39h-.57v.95h-1.54v.58h1.66v.38h-1.66v.58h1.97v.39h-1.97v.78h-.46v-.78h-1.9v-.39h1.9v-.58h-1.58v-.38h1.58v-.58h-1.48v-.39h1.48ZM76.4,25.56v.55h1.08v-.55h-1.08ZM77.48,27.06v-.56h-1.08v.56h1.08Z"/><path class="cls-9" d="M85.75,28.45l-.99.22v2.4h-.46v-2.3c-.39.08-.74.16-1.02.22,0,.05-.04.09-.09.1l-.18-.54c.35-.06.8-.14,1.29-.24v-1.81h-.69c-.07.42-.15.81-.26,1.1-.09-.06-.25-.15-.35-.2.2-.57.3-1.55.37-2.47l.55.12s-.06.07-.15.08c-.02.29-.06.61-.09.91h.62v-1.48l.59.04s-.04.08-.13.1v1.35h.89v.46h-.89v1.72l.95-.19.04.41ZM89.09,25.94l.25.02s0,.11-.01.16c-.13,3.28-.25,4.36-.52,4.69-.13.19-.28.27-.74.27-.15,0-.33,0-.5-.01,0-.14-.06-.34-.13-.47.31.02.59.03.72.03.12,0,.18-.02.25-.12.2-.24.34-1.26.46-4.11h-.55c-.2,1.69-.69,3.69-1.44,4.69-.1-.08-.27-.18-.41-.23.77-.92,1.24-2.8,1.45-4.45h-.6c-.27,1.44-.81,3.14-1.51,4.01-.11-.08-.28-.17-.42-.23.71-.8,1.25-2.37,1.51-3.77h-.56c-.18.6-.41,1.13-.69,1.54-.08-.08-.25-.2-.36-.27.48-.69.82-1.9,1-3.12l.58.13s-.06.08-.15.08c-.07.41-.15.81-.26,1.2h2.62Z"/><path class="cls-9" d="M97.66,25.83c-.03.06-.08.11-.17.11-.25,2.18-.98,4.08-2.14,4.08-.59,0-1.12-.59-1.12-1.69,0-1.68,1.31-3.09,3.15-3.09,2.02,0,2.9,1.28,2.9,2.65,0,1.67-.97,2.47-2.66,2.86-.06-.11-.18-.3-.29-.43,1.61-.31,2.44-1.09,2.44-2.42,0-1.16-.74-2.21-2.38-2.21-.07,0-.15,0-.21.01l.5.12ZM96.99,25.74c-1.41.18-2.29,1.34-2.29,2.57,0,.75.32,1.22.66,1.22.85,0,1.46-1.87,1.63-3.79Z"/><path class="cls-9" d="M111.5,26.94v.43h-.76v3.69h-.44v-3.69h-1.05v.3c0,1.16-.13,2.47-1,3.4-.08-.06-.27-.17-.38-.22.17-.18.32-.39.43-.6h-2.58v.55h-.42v-5.97l.55.04s-.04.08-.13.09v4.87h2.63v.34c.41-.78.47-1.7.47-2.51v-2.41c.15,0,.26.01.34.02.67-.2,1.39-.46,1.8-.71l.47.36s-.07.04-.15.02c-.48.25-1.29.52-2.02.71v1.28h2.25ZM106.93,29.67v-1.81c-.25.56-.57,1.11-.9,1.43-.04-.12-.14-.29-.21-.39.4-.39.83-1.11,1.08-1.77h-.97v-.41h1.01v-2.14l.54.03s-.04.08-.13.09v2.02h1.02v.41h-1.02v.33c.22.18.84.76.99.9l-.27.34c-.13-.18-.46-.55-.72-.82v1.79h-.41ZM106.33,25.05c.17.39.32.9.34,1.23l-.34.12c-.03-.34-.16-.85-.32-1.25l.32-.1ZM108.44,25.19s-.07.06-.14.06c-.12.34-.33.83-.5,1.16-.06-.03-.23-.1-.29-.13.16-.34.36-.9.47-1.27l.46.17Z"/><path class="cls-9" d="M117.98,26.41h-.59c-.09.53-.34.92-1.16,1.14-.04-.1-.13-.24-.22-.31.64-.15.89-.4.98-.83h-.86v-.36h1.33v-.57h-1.06v-.36h1.06v-.52l.57.03s-.05.08-.13.09v.39h1.08v.36h-1.08v.57h1.32v.36h-.88v.45c0,.1.01.13.13.13h.34c.1,0,.13-.04.14-.32.08.06.22.1.32.13-.03.41-.14.52-.4.52h-.46c-.36,0-.45-.08-.45-.45v-.46ZM121.77,28.59c0,.34,0,.36.13.36.21,0,.23,0,.27-.04.08-.1.08-.67.08-1.08.09.08.22.14.34.18-.02,1.02-.04,1.34-.52,1.34h-.27c-.12,0-.25-.03-.34-.12-.09-.09-.12-.2-.12-.68v-2.52h-.74c-.03.45-.06.86-.13,1.25.3.22.57.44.75.62l-.23.39c-.15-.16-.36-.35-.62-.55-.18.72-.5,1.3-1.07,1.74-.07-.1-.21-.25-.31-.31.06-.04.12-.09.17-.14-1.05.13-2.14.25-2.82.32,0,.06-.05.09-.09.1l-.19-.48c.38-.03.88-.08,1.41-.13v-.72h-1.13v-.36h1.13v-.55l.57.03s-.05.08-.13.09v.43h1.15v.36h-1.15v.68c.43-.04.87-.09,1.3-.13v.31c.41-.39.65-.89.79-1.51-.23-.17-.47-.33-.69-.46l.22-.34c.17.1.36.22.55.35.04-.31.07-.63.09-.98h-.82v-.43h.83c.01-.33.01-.67.02-1.04l.58.03c0,.06-.06.1-.15.1l-.02.9h1.15v3ZM117.38,29.76c-.2.47-.52.99-.89,1.31-.1-.04-.2-.08-.43-.19.36-.28.69-.77.88-1.24l.43.12ZM118.28,31c0-.3-.06-.81-.14-1.19l.43-.04c.09.38.16.88.17,1.16l-.46.06ZM120,31c-.06-.31-.23-.82-.4-1.2l.44-.08c.17.37.36.87.42,1.17l-.46.1ZM121.98,31.07c-.17-.35-.55-.9-.9-1.3l.44-.15c.34.39.74.92.92,1.28l-.47.17Z"/><path class="cls-9" d="M127.72,25.98c0,.62-.11,1.39-.38,1.84l-.37-.19c.24-.41.35-1.12.36-1.71l.38.06ZM128.02,24.55l.6.04s-.05.08-.14.09v6.37h-.46v-6.5ZM128.92,25.66c.23.34.48.79.58,1.07l-.34.23c-.1-.29-.35-.77-.57-1.12l.33-.18ZM131.61,30.35h1.88v.46h-4.36v-.46h2.01v-1.7h-1.49v-.43h1.49v-1.55h-1.09c-.14.43-.3.83-.48,1.13-.09-.07-.27-.17-.38-.22.37-.62.65-1.67.82-2.7l.58.13s-.06.08-.15.08c-.07.37-.15.76-.26,1.13h.96v-1.67l.61.04s-.04.08-.14.1v1.53h1.67v.45h-1.67v1.55h1.46v.43h-1.46v1.7Z"/><path class="cls-9" d="M74.68,38.65v.39h-2.68v-.39h2.68ZM74.43,41.5v2.06h-1.69v.33h-.42v-2.39h2.11ZM72.33,39.99v-.39h2.11v.39h-2.11ZM72.33,40.94v-.39h2.11v.39h-2.11ZM74.42,37.72v.39h-2.04v-.39h2.04ZM74.01,41.9h-1.27v1.26h1.27v-1.26ZM75.71,38.12v.43c0,.6-.15,1.35-.91,1.85-.07-.09-.25-.25-.34-.31.69-.45.81-1.04.81-1.54v-.86h2.21v1.77c0,.15.02.18.15.18h.39c.13,0,.15-.09.17-.79.09.08.28.15.4.18-.04.83-.15,1.03-.52,1.03h-.5c-.41,0-.53-.13-.53-.59v-1.34h-1.31ZM77.87,40.52l.31.13s-.04.06-.06.08c-.24.83-.67,1.51-1.21,2.02.48.37,1.04.64,1.68.81-.1.1-.24.29-.31.41-.67-.2-1.24-.5-1.73-.9-.54.42-1.16.72-1.82.91-.05-.12-.16-.31-.26-.41.62-.16,1.22-.43,1.74-.81-.44-.46-.79-.99-1.04-1.62l.42-.13c.22.56.55,1.05.97,1.46.42-.4.76-.89.99-1.48h-2.77v-.43h3.09Z"/><path class="cls-9" d="M82.03,40c-.23.41-.48.8-.74,1.12-.05-.11-.16-.35-.23-.46.6-.73,1.18-1.95,1.54-3.16l.55.18s-.07.08-.16.08c-.15.47-.34.94-.54,1.39l.16.05s-.05.08-.13.09v4.69h-.46v-3.98ZM87.73,39.43v.42h-4.09v1.11c0,.88-.1,2.14-.65,3-.07-.08-.25-.24-.35-.29.5-.8.56-1.9.56-2.72v-1.52h4.53ZM83.05,38.14h1.18v-.62l.57.04s-.04.08-.13.09v.49h1.39v-.62l.58.04s-.04.08-.13.09v.49h1.16v.42h-1.16v.61h-.45v-.61h-1.39v.61h-.44v-.61h-1.18v-.42ZM87.5,40.43v3.07c0,.46-.25.47-1.08.47-.01-.1-.07-.26-.13-.36.17,0,.32,0,.43,0,.32,0,.36,0,.36-.11v-.7h-1.11v1.13h-.4v-1.13h-1.08v1.17h-.41v-3.54h3.42ZM85.58,40.8h-1.08v.65h1.08v-.65ZM84.5,42.45h1.08v-.64h-1.08v.64ZM87.08,40.8h-1.11v.65h1.11v-.65ZM85.98,42.45h1.11v-.64h-1.11v.64Z"/><path class="cls-9" d="M94.07,38.74c-.03.06-.08.11-.17.11-.25,2.18-.98,4.08-2.14,4.08-.59,0-1.12-.59-1.12-1.69,0-1.68,1.31-3.09,3.15-3.09,2.02,0,2.9,1.28,2.9,2.65,0,1.67-.97,2.47-2.66,2.86-.06-.11-.18-.3-.29-.43,1.61-.31,2.44-1.09,2.44-2.42,0-1.16-.74-2.21-2.38-2.21-.07,0-.15,0-.21.01l.5.12ZM93.39,38.65c-1.41.18-2.29,1.34-2.29,2.57,0,.75.32,1.22.66,1.22.85,0,1.46-1.87,1.63-3.79Z"/><path class="cls-9" d="M101.03,40.78c-.38.08-.76.15-1.14.21-.05-.1-.18-.29-.27-.4,1.89-.25,3.85-.78,4.73-1.81l.53.25s-.1.06-.17.05c-.53.57-1.32.99-2.23,1.31h2.7v3.56h-.48v-.22h-3.21v.26h-.46v-3.2ZM101.82,38.07s-.08.06-.15.06c-.4.54-1.02,1.11-1.59,1.45-.08-.08-.24-.22-.34-.3.55-.32,1.17-.86,1.54-1.42l.55.21ZM104.69,41.37v-.62h-3.21v.62h3.21ZM101.48,41.73v.63h3.21v-.63h-3.21ZM101.48,43.34h3.21v-.62h-3.21v.62ZM103.22,37.49s-.04.08-.13.09v1.6c0,.25-.06.37-.26.43-.2.07-.51.08-.99.08-.03-.13-.11-.3-.18-.41.17,0,.32,0,.46,0,.5,0,.5,0,.5-.11v-1.72l.61.03ZM105.68,39.44c-.32-.39-1.01-.97-1.58-1.38l.37-.25c.57.39,1.27.96,1.6,1.35l-.39.27Z"/><path class="cls-9" d="M109.58,38.67h4.79v.48h-2.16v3.4h2.66v.48h-5.79v-.48h2.62v-3.4h-2.13v-.48Z"/><path class="cls-9" d="M123.13,39.3s-.06.06-.13.06c-.45.56-1.05,1.16-1.69,1.66l.11.03s-.06.09-.15.1v2.67h-.5v-2.43c-.71.49-1.64.99-2.5,1.33-.04-.05-.27-.34-.32-.39,1.7-.63,3.31-1.67,4.27-2.79h-3.54v-.46h4.01l.08-.05.37.27ZM121.97,38.75c-.61-.32-1.56-.64-2.3-.85l.23-.41c.75.18,1.7.52,2.33.83l-.26.43ZM122.02,41c.7.36,1.54.89,2.04,1.29l-.36.38c-.47-.39-1.34-.96-2.01-1.32l.32-.35Z"/><path class="cls-9" d="M127.72,38.89c0,.62-.11,1.39-.38,1.84l-.37-.19c.24-.41.35-1.12.36-1.71l.38.06ZM128.02,37.46l.6.04s-.05.08-.14.09v6.37h-.46v-6.5ZM128.92,38.56c.23.34.48.79.58,1.07l-.34.23c-.1-.29-.35-.77-.57-1.12l.33-.18ZM131.61,43.26h1.88v.46h-4.36v-.46h2.01v-1.7h-1.49v-.43h1.49v-1.55h-1.09c-.14.43-.3.83-.48,1.13-.09-.07-.27-.17-.38-.22.37-.62.65-1.67.82-2.7l.58.13s-.06.08-.15.08c-.07.37-.15.76-.26,1.13h.96v-1.67l.61.04s-.04.08-.14.1v1.53h1.67v.45h-1.67v1.55h1.46v.43h-1.46v1.7Z"/><path class="cls-9" d="M78.54,54.53v.44h-.9v1.13c0,.57-.25.61-1.53.61-.03-.13-.11-.33-.18-.46.2,0,.41,0,.58,0,.24,0,.42,0,.49,0,.13,0,.17-.03.17-.16v-1.13h-3.82v1.75h-.46v-1.75h-.88v-.44h.88v-2.7h2.11v-.74h-2.74v-.44h6.02v.44h-2.8v.74h2.16v2.7h.9ZM75,52.26h-1.65v.91h1.65v-.91ZM73.36,53.58v.95h1.65v-.95h-1.65ZM77.17,52.26h-1.7v.91h1.7v-.91ZM75.48,54.53h1.7v-.95h-1.7v.95Z"/><path class="cls-9" d="M81.18,51.4h4.79v.48h-2.16v3.4h2.66v.48h-5.79v-.48h2.62v-3.4h-2.13v-.48Z"/><path class="cls-9" d="M93.91,52.03s-.06.06-.13.06c-.45.56-1.05,1.16-1.69,1.66l.11.03s-.06.09-.15.1v2.67h-.5v-2.43c-.71.49-1.64.99-2.5,1.33-.04-.05-.27-.34-.32-.39,1.7-.63,3.31-1.67,4.27-2.79h-3.54v-.46h4.01l.08-.05.37.27ZM92.76,51.49c-.61-.32-1.56-.64-2.3-.85l.23-.41c.75.18,1.7.52,2.33.83l-.26.43ZM92.81,53.73c.7.36,1.54.89,2.04,1.29l-.36.38c-.47-.39-1.34-.96-2.01-1.32l.32-.35Z"/><path class="cls-9" d="M99.61,51.38v.39h-2.67v-.39h2.67ZM99.37,54.24v2.06h-1.69v.33h-.42v-2.39h2.11ZM97.27,52.72v-.39h2.11v.39h-2.11ZM97.27,53.67v-.39h2.11v.39h-2.11ZM99.36,50.45v.39h-2.04v-.39h2.04ZM98.95,54.64h-1.27v1.26h1.27v-1.26ZM100.65,50.86v.43c0,.6-.15,1.35-.91,1.85-.07-.09-.25-.25-.34-.31.69-.45.81-1.04.81-1.54v-.86h2.21v1.77c0,.15.02.18.15.18h.39c.13,0,.15-.09.17-.79.09.08.28.15.4.18-.04.83-.15,1.03-.52,1.03h-.5c-.41,0-.53-.13-.53-.59v-1.34h-1.31ZM102.8,53.26l.31.13s-.04.06-.06.08c-.24.83-.67,1.51-1.21,2.02.48.37,1.04.64,1.68.81-.1.1-.24.29-.31.41-.67-.2-1.24-.5-1.73-.9-.54.42-1.16.72-1.82.91-.05-.12-.16-.31-.26-.41.62-.16,1.22-.43,1.74-.81-.44-.46-.79-.99-1.04-1.62l.42-.13c.22.56.55,1.05.97,1.46.42-.4.76-.89.99-1.48h-2.77v-.43h3.09Z"/><path class="cls-9" d="M106.15,52.73c-.23.41-.48.8-.74,1.12-.05-.11-.16-.35-.23-.46.6-.73,1.18-1.95,1.54-3.16l.55.18s-.07.08-.16.08c-.15.47-.34.94-.54,1.39l.16.05s-.05.08-.13.09v4.69h-.46v-3.98ZM111.85,52.16v.42h-4.09v1.11c0,.88-.1,2.14-.65,3-.07-.08-.25-.24-.35-.29.5-.8.56-1.91.56-2.72v-1.52h4.53ZM107.17,50.88h1.18v-.62l.57.04s-.04.08-.13.09v.49h1.39v-.62l.58.04s-.04.08-.13.09v.49h1.16v.42h-1.16v.61h-.45v-.61h-1.39v.61h-.44v-.61h-1.18v-.42ZM111.63,53.16v3.07c0,.46-.25.47-1.08.47-.01-.1-.07-.26-.13-.36.17,0,.32,0,.43,0,.32,0,.36,0,.36-.11v-.7h-1.11v1.13h-.4v-1.13h-1.08v1.17h-.41v-3.54h3.42ZM109.7,53.54h-1.08v.65h1.08v-.65ZM108.62,55.18h1.08v-.64h-1.08v.64ZM111.2,53.54h-1.11v.65h1.11v-.65ZM110.1,55.18h1.11v-.64h-1.11v.64Z"/><path class="cls-9" d="M115.94,53.45c0,.4-.32.72-.72.72s-.72-.32-.72-.72.32-.72.72-.72.72.34.72.72Z"/><path class="cls-9" d="M121.6,53.37v-1.67h-2.3v1.02h-.43v-1.37h2.73v-.47h-2.33v-.38h5.17v.38h-2.37v.47h2.79v1.37h-.45v-1.02h-2.34v1.67h-.46ZM122.03,55.96c0,.24.09.29.55.29h1.63c.38,0,.45-.13.49-.86.1.07.28.13.41.16-.07.87-.22,1.09-.88,1.09h-1.68c-.76,0-.97-.13-.97-.68v-.25h-1.66v.37h-.46v-2.46h4.8v2.09h-2.24v.25ZM119.54,53.17v-.32h1.67v.32h-1.67ZM119.69,52.12h1.52v.32h-1.52v-.32ZM121.58,53.97h-1.66v.52h1.66v-.52ZM119.92,55.35h1.66v-.53h-1.66v.53ZM123.8,54.49v-.52h-1.77v.52h1.77ZM122.03,55.35h1.77v-.53h-1.77v.53ZM122.46,52.12h1.55v.32h-1.55v-.32ZM122.46,53.17v-.32h1.73v.32h-1.73Z"/><path class="cls-9" d="M133.26,51.37h-4.71c-.32.64-.73,1.2-1.17,1.6-.09-.08-.27-.22-.39-.29.65-.55,1.21-1.5,1.52-2.51l.59.16s-.07.08-.15.08c-.06.18-.13.36-.2.54h4.51v.41ZM128.19,53.84c.45.25.93.55,1.39.86.34-.36.63-.75.86-1.16l.55.21c-.02.06-.1.07-.17.06-.24.41-.53.8-.87,1.16.53.38,1,.78,1.31,1.11l-.38.36c-.29-.34-.75-.74-1.27-1.13-.62.59-1.36,1.08-2.12,1.44-.07-.1-.22-.27-.33-.35.75-.33,1.47-.79,2.08-1.37-.46-.32-.94-.63-1.39-.88l.34-.31ZM127.65,52.98h4.62c0,1.87.11,3.26.67,3.26.15,0,.18-.41.2-1.02.1.11.24.22.34.27-.05.9-.15,1.21-.56,1.21-.92,0-1.08-1.32-1.12-3.31h-4.14v-.41ZM132.57,52.38h-4.11v-.41h4.11v.41Z"/><path class="cls-9" d="M74.08,66.38c-.13-.24-.27-.48-.41-.69l.35-.15c.32.45.66,1.06.78,1.45l-.38.18c-.04-.12-.09-.27-.16-.42-.22.01-.44.02-.65.04v3h-.42v-2.98c-.39.02-.74.04-1.02.04,0,.06-.05.08-.1.09l-.13-.53h.49c.15-.19.32-.41.48-.64-.22-.32-.58-.74-.9-1.04l.25-.3c.07.06.15.13.22.21.24-.41.51-.97.67-1.37l.5.21s-.07.06-.15.06c-.18.39-.49.97-.76,1.36.16.17.31.34.42.5.3-.46.58-.93.78-1.33l.49.23s-.08.06-.15.06c-.36.6-.92,1.43-1.41,2.04l1.21-.02ZM72.91,67.44s-.06.07-.14.07c-.1.6-.26,1.27-.47,1.68-.1-.06-.25-.13-.35-.18.2-.39.35-1.06.44-1.7l.52.13ZM74.36,68.8c-.06-.38-.26-.96-.46-1.39l.37-.12c.21.44.41,1,.48,1.38l-.39.13ZM78.54,68.99v.43h-3.03v.36h-.43v-4.15c-.15.23-.3.46-.47.65-.07-.1-.21-.25-.3-.32.6-.71,1.11-1.82,1.36-2.7l.56.15s-.06.08-.15.08c-.13.38-.3.81-.5,1.25h.99c.22-.39.47-.96.6-1.36l.57.17s-.08.07-.15.07c-.14.32-.35.76-.55,1.12h1.37v.43h-1.38v.97h1.16v.43h-1.16v.99h1.19v.43h-1.19v1h1.52ZM76.6,66.14v-.97h-1.09v.97h1.09ZM76.6,67.56v-.99h-1.09v.99h1.09ZM75.51,67.99v1h1.09v-1h-1.09Z"/><path class="cls-9" d="M81.67,66.38l.06.41-.85.3v2.12c0,.5-.23.58-1.16.57-.02-.11-.09-.31-.15-.43.33,0,.63,0,.72,0,.09,0,.13-.04.13-.13v-1.95c-.33.11-.63.22-.87.29,0,.06-.04.1-.08.11l-.2-.55c.32-.08.71-.2,1.15-.34v-1.65h-1.06v-.44h1.06v-1.42l.6.04c0,.06-.04.08-.14.1v1.28h.81v.44h-.81v1.5l.79-.24ZM85.82,66.06h-.89s-.06.08-.14.09v.8h.93v.43h-.93v1.84c0,.54-.27.55-1.27.55-.02-.13-.09-.31-.16-.44.2,0,.38,0,.53,0h.31c.1,0,.13-.03.13-.12v-1.84h-2.55v-.43h2.55v-.89h-2.71v-.44h1.85v-1.01h-1.39v-.43h1.39v-.91l.61.04s-.05.08-.14.1v.77h1.44v.43h-1.44v1.01h1.89v.44ZM83.06,69.05c-.16-.33-.55-.84-.88-1.21l.36-.22c.33.36.72.85.9,1.16l-.37.27Z"/><path class="cls-9" d="M88.3,64.97c-.06-.2-.2-.5-.34-.75h-.34c-.2.29-.42.57-.64.77-.08-.08-.25-.19-.35-.25.39-.34.78-.92,1.01-1.5l.54.18s-.07.06-.15.06c-.05.11-.11.23-.18.35h1.93v.39h-1.36c.13.22.25.46.3.62l-.43.12ZM93.12,63.83v.39h-1.63c.17.21.32.44.4.62l-.42.15c-.09-.21-.29-.52-.5-.76h-.61c-.14.18-.29.35-.44.5l.32.02s-.04.08-.13.09v.44h2.79v1.32h-.46v-.95h-5.04v.95h-.45v-1.32h2.7v-.41c-.1-.06-.23-.14-.32-.19.44-.32.87-.86,1.1-1.44l.55.17s-.06.06-.15.06c-.06.12-.12.24-.19.36h2.49ZM88.4,67.51v.53h3.91v1.73h-.47v-.23h-3.44v.25h-.46v-3.66h3.92v1.39h-3.47ZM91.4,66.49h-3v.65h3v-.65ZM91.84,68.41h-3.44v.74h3.44v-.74Z"/><path class="cls-9" d="M95.38,66.19v1.74l.95-.28s.01.08.06.41c-.81.26-1.67.54-2.21.7,0,.05-.05.09-.09.1l-.19-.52c.29-.07.64-.17,1.03-.28v-1.87h-.87v-.44h.87v-1.58h-.94v-.45h2.31v.45h-.92v1.58h.85v.44h-.85ZM98.56,69.12h1.96v.43h-4.5v-.43h2.1v-1.09h-1.64v-.43h1.64v-.82h-1.6v-3.11h3.68v3.11h-1.64v.82h1.74v.43h-1.74v1.09ZM96.95,64.09v.94h1.17v-.94h-1.17ZM96.95,66.37h1.17v-.95h-1.17v.95ZM99.75,65.03v-.94h-1.2v.94h1.2ZM99.75,66.37v-.95h-1.2v.95h1.2Z"/><path class="cls-9" d="M103.47,66.52c0,.4-.32.72-.72.72s-.72-.32-.72-.72.32-.72.72-.72.72.34.72.72Z"/><path class="cls-9" d="M110.69,67.18h.11s.28.04.28.04c0,.04-.01.1-.03.15-.13,1.41-.25,1.97-.47,2.19-.2.2-.42.2-.8.2-.22,0-.51,0-.81-.03,0-.14-.06-.33-.15-.46.46.05.9.06,1.06.06s.24-.01.31-.08c.15-.13.27-.59.36-1.64h-2.09c-.35.99-1.06,1.79-2.85,2.21-.05-.12-.17-.31-.27-.41,1.56-.34,2.25-.97,2.59-1.79h-1.93v-.43h2.07c.07-.28.12-.58.16-.88-.87.4-1.87.69-2.88.88-.06-.11-.18-.31-.27-.41,1.86-.33,3.74-.97,4.66-2.1l.53.27s-.09.06-.17.04c-.43.5-1.03.92-1.72,1.25l.5.04c0,.06-.06.09-.15.11-.04.28-.08.55-.15.81h2.1ZM107.26,63.87s-.08.06-.15.06c-.35.59-.95,1.2-1.51,1.58-.09-.08-.26-.21-.38-.27.57-.35,1.15-.93,1.48-1.55l.56.2ZM108.67,63.3s-.04.08-.13.1v1.7c0,.5-.24.51-1.32.51-.03-.12-.1-.29-.16-.41.17,0,.34,0,.48,0q.54,0,.54-.12v-1.82l.6.04ZM111.12,65.42c-.31-.43-.99-1.09-1.57-1.55l.37-.24c.58.43,1.27,1.06,1.6,1.51l-.4.28Z"/><path class="cls-9" d="M113.46,69.78v-4.04c-.3.46-.62.87-.95,1.21-.06-.12-.18-.34-.27-.45.73-.73,1.47-1.95,1.92-3.18l.57.2c-.03.06-.09.08-.16.06-.2.5-.44,1-.71,1.48l.2.06s-.05.08-.14.09v4.57h-.48ZM115.99,68.74c0,.39.08.48.49.48h1.46c.4,0,.46-.27.51-1.31.12.09.31.18.45.21-.08,1.15-.22,1.55-.94,1.55h-1.51c-.72,0-.93-.2-.93-.95v-5.29l.61.04s-.04.08-.14.1v2.6c.83-.46,1.68-1.03,2.21-1.53l.39.45s-.08.04-.13.02c-.59.5-1.56,1.06-2.46,1.53v2.09Z"/><path class="cls-9" d="M120.35,65.65c.38.4.78.86,1.15,1.32.21-.56.36-1.19.47-1.88l.58.11c-.01.06-.06.08-.15.09-.13.78-.32,1.48-.58,2.09.34.46.62.89.81,1.24l-.38.32c-.15-.31-.38-.68-.65-1.08-.4.77-.94,1.38-1.65,1.83-.06-.11-.2-.27-.29-.36.73-.43,1.27-1.06,1.65-1.88-.4-.53-.85-1.08-1.28-1.54l.34-.27ZM123.08,64.48v.44h-3.4v-.44h1.48v-1.21l.59.04s-.04.08-.13.1v1.07h1.46ZM126.17,65.01v.45h-.86v3.66c0,.64-.36.66-1.46.66-.02-.13-.09-.35-.16-.49.23,0,.44,0,.62,0,.51,0,.53,0,.53-.17v-3.66h-1.98v-.45h1.98v-1.74l.61.04c-.01.06-.05.09-.14.1v1.61h.86ZM123.36,66.24c.34.49.69,1.15.8,1.58l-.41.21c-.11-.43-.44-1.11-.78-1.61l.39-.17Z"/><path class="cls-9" d="M130.46,66.87v.52c.55.68,1.72,1.42,3.09,1.73-.1.11-.24.29-.31.41-1.18-.32-2.17-.97-2.78-1.58v1.82h-.47v-1.81c-.7.72-1.72,1.29-2.72,1.58-.06-.12-.2-.3-.29-.39,1.17-.29,2.38-.96,3.02-1.76v-.53h-1.73v1.38h-.46v-1.8h2.19v-.53h-2.89v-.43h2.89v-.44c-.09-.07-.25-.17-.34-.24.46-.34.9-.94,1.13-1.57l.55.17s-.07.06-.14.06c-.06.15-.14.29-.22.44h2.51v.38h-1.67c.18.24.36.51.44.7l-.43.15c-.09-.23-.31-.57-.53-.85h-.56c-.16.22-.34.43-.53.61l.4.02c0,.06-.05.08-.14.1v.48h2.93v.43h-2.93v.53h2.26v1.37c0,.46-.24.46-.99.46-.03-.12-.1-.26-.15-.37.14,0,.27,0,.37,0,.28,0,.31,0,.31-.09v-.95h-1.79ZM128.61,65.1c-.05-.21-.17-.54-.3-.81h-.32c-.2.34-.43.65-.66.88-.09-.08-.25-.19-.36-.24.41-.39.81-1.04,1.04-1.69l.53.17s-.06.07-.15.06c-.06.15-.13.29-.2.44h1.94v.38h-1.35c.12.24.22.5.27.69l-.43.13Z"/><path class="cls-9" d="M77.84,78.2c-.02.08-.1.12-.2.12-.08.48-.19,1-.31,1.43.38.16.78.34,1.18.55l-.22.47c-.38-.19-.74-.37-1.1-.53-.34,1.01-.82,1.74-1.56,2.23-.1-.1-.27-.22-.4-.29.74-.48,1.19-1.14,1.51-2.14-.71-.28-1.35-.48-1.87-.52-.48,1.76-.92,2.23-1.76,2.23s-1-.67-1-1.1c0-1.09,1.13-1.59,2.38-1.6.15-.56.28-1.25.38-1.97-.33.03-1.45.11-1.98.14-.03.05-.08.08-.15.1l-.06-.57c.6-.02,1.91-.1,2.33-.15.08,0,.11-.04.15-.08l.43.26c-.04.06-.09.08-.17.11-.11.78-.28,1.58-.43,2.19.54.04,1.18.23,1.88.5.12-.42.22-.96.3-1.53l.68.15ZM74.38,79.5c-1.01.01-1.81.41-1.81,1.16,0,.39.19.66.52.66.51,0,.85-.18,1.3-1.81Z"/><path class="cls-9" d="M105.67,78.66s-.03,0-.06,0c-.05,0-.11-.01-.15-.04-2.08.61-3.96,1.53-3.96,2.47,0,.67.74.9,1.88.9s1.99-.08,2.48-.16l.04.51c-.64.08-1.69.12-2.51.12-1.39,0-2.4-.32-2.4-1.35,0-.75.74-1.41,1.84-1.97-.24-.43-.32-1.24-.32-2.82l.77.06c0,.09-.08.15-.22.17,0,1.23.04,1.99.23,2.37.66-.31,1.42-.59,2.19-.84l.18.58ZM104.77,76.48c.36.31.7.71.89,1.04l-.3.2c-.18-.32-.5-.74-.86-1.04l.27-.2ZM105.71,76.08c.36.32.68.69.88,1.04l-.29.2c-.2-.34-.51-.72-.85-1.02l.27-.21Z"/><path class="cls-9" d="M129.22,80.31c-.13-.38-.2-.92-.2-1.32,0-.66.07-1.42.24-2.31l.7.12c-.03.09-.11.11-.2.12-.14.58-.24,1.47-.24,2.04,0,.15,0,.28.02.38.14-.34.4-.82.55-1.09.06.09.2.24.27.31-.52.93-.67,1.2-.67,1.49,0,.06,0,.11.02.17l-.48.08ZM132.98,76.5c0,.08-.06.12-.18.15.05.61.12,1.62.12,2.43,0,1.35-.5,2.57-2.61,3.45-.08-.11-.25-.3-.35-.41,1.91-.73,2.42-1.88,2.42-3.03,0-.86-.08-1.88-.16-2.63l.76.04Z"/><path class="cls-8" d="M121.48,102.86h-3.1v-.36l.51-.54c1.25-1.26,1.88-2.02,1.88-2.88,0-.56-.25-1.08-1-1.08-.42,0-.8.23-1.05.43l-.2-.41c.32-.29.8-.51,1.36-.51,1.06,0,1.48.77,1.48,1.49,0,.99-.69,1.83-1.78,2.92l-.41.43h0s2.32.01,2.32.01v.48Z"/><path class="cls-8" d="M122.83,100.25c0-1.83.71-2.72,1.69-2.72s1.6.94,1.6,2.65c0,1.82-.64,2.76-1.68,2.76-.95,0-1.62-.94-1.62-2.69ZM125.54,100.21c0-1.31-.31-2.21-1.05-2.21-.62,0-1.07.83-1.07,2.21s.39,2.25,1.04,2.25c.78,0,1.07-1.01,1.07-2.25Z"/><path class="cls-8" d="M130.51,102.86h-3.1v-.36l.51-.54c1.25-1.26,1.88-2.02,1.88-2.88,0-.56-.25-1.08-1-1.08-.42,0-.8.23-1.05.43l-.2-.41c.32-.29.8-.51,1.36-.51,1.06,0,1.48.77,1.48,1.49,0,.99-.69,1.83-1.78,2.92l-.41.43h0s2.32.01,2.32.01v.48Z"/><path class="cls-8" d="M131.86,100.25c0-1.83.71-2.72,1.69-2.72s1.6.94,1.6,2.65c0,1.82-.64,2.76-1.68,2.76-.95,0-1.62-.94-1.62-2.69ZM134.57,100.21c0-1.31-.31-2.21-1.05-2.21-.62,0-1.07.83-1.07,2.21s.39,2.25,1.04,2.25c.78,0,1.07-1.01,1.07-2.25Z"/><path class="cls-8" d="M142.81,101.39v.46h-2.62v1.6h-.48v-1.6h-3.32v-.46h1.18v-1.93h2.14v-1.15h-1.81c-.34.55-.72,1.05-1.12,1.42-.08-.08-.27-.24-.38-.31.65-.56,1.27-1.53,1.63-2.5l.59.19c-.03.06-.09.08-.16.06-.09.23-.2.46-.31.68h4.31v.46h-2.28v1.15h2.13v.45h-2.13v1.48h2.62ZM138.05,101.39h1.67v-1.48h-1.67v1.48Z"/><path class="cls-8" d="M150.45,98.1h-5.43v1.62c0,1.09-.08,2.68-.7,3.75-.08-.08-.27-.22-.38-.27.58-1.02.63-2.46.63-3.49v-2.06h2.64v-.72l.62.04s-.04.08-.14.1v.58h2.76v.43ZM149.52,100.98l.32.15s-.04.06-.07.07c-.32.58-.82,1.03-1.43,1.37.64.25,1.39.41,2.19.48-.11.1-.22.29-.28.41-.88-.12-1.7-.33-2.4-.65-.76.33-1.64.53-2.54.64-.04-.12-.13-.29-.2-.4.79-.08,1.58-.24,2.28-.49-.48-.29-.88-.64-1.17-1.06l.29-.11h-1.11v-.39h4.05l.08-.02ZM149.14,100.49h-2.68v-1.16h-1.14v-.39h1.14v-.64l.59.04s-.05.08-.14.09v.51h1.77v-.64l.6.04s-.05.08-.14.09v.51h1.27v.39h-1.27v1.16ZM146.63,101.4c.29.39.71.71,1.22.97.51-.25.95-.57,1.25-.97h-2.47ZM148.68,99.33h-1.77v.79h1.77v-.79Z"/><path class="cls-8" d="M158.13,100.8h-1.55c.41.5,1.02.93,1.64,1.15-.1.09-.24.25-.31.37-.69-.3-1.4-.88-1.83-1.52h-2.28c-.44.67-1.17,1.28-1.86,1.61-.07-.11-.2-.27-.31-.36.6-.25,1.23-.72,1.65-1.25h-1.58v-.41h1.49v-2.29h-1.16v-.41h1.16v-.75l.61.04c0,.06-.05.08-.14.1v.62h2.51v-.75l.62.04c0,.06-.05.09-.14.1v.62h1.16v.41h-1.16v2.29h1.48v.41ZM155.13,102.08v.8h2.48v.41h-5.37v-.41h2.42v-.8h-1.49v-.39h1.49v-.67l.62.04s-.05.08-.14.1v.53h1.53v.39h-1.53ZM156.17,98.1h-2.51v.52h2.51v-.52ZM153.66,98.99v.52h2.51v-.52h-2.51ZM153.66,99.87v.53h2.51v-.53h-2.51Z"/><path class="cls-8" d="M159.54,98.17c.4.11.91.32,1.18.47l-.23.38c-.27-.16-.78-.39-1.17-.51l.22-.34ZM165.76,101.6v.43h-2.98v1.44h-.48v-1.44h-2.9v-.43h2.9v-.61l.62.04s-.04.08-.13.09v.48h2.98ZM159.52,100.82c.38-.35.94-.93,1.39-1.46l.25.32c-.39.5-.88,1.04-1.22,1.39,0,.02.01.05.01.06,0,.05-.02.08-.05.11l-.39-.41ZM160.09,96.99c.39.13.9.36,1.16.54l-.25.38c-.26-.18-.76-.43-1.15-.59l.24-.33ZM161.66,100.93v-2.33c-.18.2-.36.38-.54.53-.08-.08-.24-.23-.34-.3.55-.43,1.11-1.18,1.44-1.92l.55.19c-.03.06-.09.07-.15.06-.09.19-.2.38-.32.57h1.02c.15-.25.3-.56.39-.78l.58.14s-.06.07-.15.07c-.09.16-.22.38-.34.57h1.62v.39h-1.64v.55h1.45v.36h-1.45v.55h1.47v.36h-1.47v.57h1.87v.4h-3.99ZM163.34,98.68v-.55h-1.22v.55h1.22ZM163.34,99.6v-.55h-1.22v.55h1.22ZM163.34,100.54v-.57h-1.22v.57h1.22Z"/></g></svg>