<?xml version="1.0" encoding="UTF-8"?>
<svg id="_レイヤー_2" data-name="レイヤー 2" xmlns="http://www.w3.org/2000/svg" xmlns:xlink="http://www.w3.org/1999/xlink" viewBox="0 0 750 48.58">
  <defs>
    <style>
      .cls-1 {
        fill: url(#_名称未設定グラデーション_25);
      }

      .cls-1, .cls-2 {
        stroke-width: 0px;
      }

      .cls-2 {
        fill: #675952;
      }
    </style>
    <linearGradient id="_名称未設定グラデーション_25" data-name="名称未設定グラデーション 25" x1="0" y1="46.33" x2="750" y2="46.33" gradientUnits="userSpaceOnUse">
      <stop offset="0" stop-color="#675952" stop-opacity="0"/>
      <stop offset=".49" stop-color="#675952"/>
      <stop offset="1" stop-color="#675952" stop-opacity="0"/>
    </linearGradient>
  </defs>
  <g id="_レイヤー_1-2" data-name="レイヤー 1">
    <rect class="cls-1" y="44.08" width="750" height="4.5"/>
    <g>
      <path class="cls-2" d="M149.45,7.78c0-4.46-.08-5.15-2.76-5.36l-1.06-.08c-.26-.17-.17-.94.08-1.06,2.38.09,3.83.13,5.53.13s3.1-.04,5.23-.13c.26.13.34.89.09,1.06l-1.02.08c-2.51.21-2.59.89-2.59,5.36v14.8c0,2.68.13,3.79.89,4.59.47.47,1.28.98,4.64.98,3.61,0,4.51-.17,5.19-.55.85-.51,1.96-2.04,2.81-4.21.25-.21,1.06-.04,1.06.25,0,.47-1.19,4.81-1.79,5.95-2.17-.08-6.21-.13-10.59-.13h-3.91c-1.79,0-3.15.04-5.53.13-.26-.13-.34-.81-.08-1.06l1.28-.13c2.47-.25,2.55-.85,2.55-5.32V7.78Z"/>
      <path class="cls-2" d="M185.72,7.86c0-4.51-.08-5.23-2.59-5.44l-1.06-.08c-.26-.17-.17-.94.08-1.06,2.13.09,3.57.13,5.36.13s3.15-.04,5.27-.13c.25.13.34.89.08,1.06l-1.06.08c-2.51.21-2.59.94-2.59,5.44v15.14c0,4.51.08,5.1,2.59,5.4l1.06.13c.25.17.17.94-.08,1.06-2.13-.08-3.57-.13-5.27-.13-1.79,0-3.23.04-5.36.13-.25-.13-.34-.81-.08-1.06l1.06-.13c2.51-.3,2.59-.89,2.59-5.4V7.86Z"/>
      <path class="cls-2" d="M216.33,13.39c0,1.15.13,1.15,1.4,1.15h2.89c1.74,0,3.1-.08,3.61-.25.47-.17.81-.38,1.06-1.49l.38-1.7c.21-.26.94-.26,1.11,0,0,1.02-.17,2.72-.17,4.29s.17,3.15.17,4.12c-.17.25-.81.25-1.11,0l-.43-1.66c-.21-.77-.55-1.36-1.36-1.62-.6-.17-1.66-.21-3.27-.21h-2.89c-1.28,0-1.4.04-1.4,1.15v5.91c0,4.46.08,5.1,2.59,5.32l1.45.13c.25.17.17.94-.09,1.06-2.51-.08-3.95-.13-5.66-.13-1.87,0-3.32.04-5.32.13-.25-.13-.34-.81-.08-1.06l1.06-.13c2.47-.3,2.55-.85,2.55-5.32V7.78c0-4.46-.08-5.06-2.55-5.36l-.68-.08c-.26-.17-.17-.94.08-1.06,1.79.09,3.23.13,4.93.13h7.82c2.72,0,5.19,0,5.74-.13,0,1.96.04,4,.13,5.61-.13.25-.72.38-1.02.13-.34-1.91-.85-3.49-2.98-4.04-.94-.25-2.34-.25-4.12-.25h-2.59c-1.28,0-1.28.08-1.28,1.7v8.97Z"/>
      <path class="cls-2" d="M248.48,7.78c0-4.42-.08-5.06-2.59-5.36l-.68-.08c-.26-.17-.17-.94.08-1.06,1.83.09,3.27.13,5.02.13h8c2.72,0,5.23,0,5.74-.13.26.72.51,3.79.68,5.66-.17.25-.85.34-1.06.08-.64-2-1.02-3.49-3.23-4.04-.89-.21-2.25-.25-4.12-.25h-3.06c-1.28,0-1.28.08-1.28,1.7v8.5c0,1.19.13,1.19,1.4,1.19h2.47c1.79,0,3.1-.09,3.61-.26.51-.17.81-.42,1.02-1.49l.34-1.74c.21-.26.94-.26,1.11.04,0,1.02-.17,2.68-.17,4.3,0,1.53.17,3.15.17,4.08-.17.3-.89.3-1.11.04l-.38-1.66c-.17-.77-.47-1.4-1.32-1.62-.6-.17-1.62-.21-3.27-.21h-2.47c-1.28,0-1.4.04-1.4,1.15v6c0,2.25.13,3.7.81,4.42.51.51,1.4.98,5.15.98,3.27,0,4.51-.17,5.44-.64.77-.43,1.91-1.91,3.02-4.12.3-.21.89-.08,1.06.3-.3,1.49-1.36,4.76-1.91,5.91-3.83-.08-7.61-.13-11.4-.13h-3.83c-1.83,0-3.27.04-5.78.13-.25-.13-.34-.81-.08-1.06l1.4-.13c2.42-.21,2.64-.85,2.64-5.32V7.78Z"/>
      <path class="cls-2" d="M309.45,7.78c0-4.46-.08-5.15-2.76-5.36l-1.06-.08c-.26-.17-.17-.94.08-1.06,2.38.09,3.83.13,5.53.13s3.1-.04,5.23-.13c.26.13.34.89.09,1.06l-1.02.08c-2.51.21-2.59.89-2.59,5.36v14.8c0,2.68.13,3.79.89,4.59.47.47,1.28.98,4.64.98,3.61,0,4.51-.17,5.19-.55.85-.51,1.96-2.04,2.81-4.21.25-.21,1.06-.04,1.06.25,0,.47-1.19,4.81-1.79,5.95-2.17-.08-6.21-.13-10.59-.13h-3.91c-1.79,0-3.15.04-5.53.13-.26-.13-.34-.81-.08-1.06l1.28-.13c2.47-.25,2.55-.85,2.55-5.32V7.78Z"/>
      <path class="cls-2" d="M341.72,15.73c0-8.5,6.38-15.01,15.14-15.01,9.82,0,14.76,7.1,14.76,14.59,0,8.59-6.55,14.84-14.76,14.84-9.44,0-15.14-6.76-15.14-14.42ZM367.37,16.62c0-7.02-3.1-14.59-11.23-14.59-4.42,0-10.16,3.02-10.16,12.33,0,6.29,3.06,14.46,11.44,14.46,5.1,0,9.95-3.83,9.95-12.21Z"/>
      <path class="cls-2" d="M393.55,4.33c3.1-2.42,7.06-3.62,11.48-3.62,2.3,0,5.53.47,7.53,1.02.51.13.81.21,1.19.17.04.98.26,3.66.6,6.25-.21.3-.85.34-1.15.08-.64-2.89-2.55-6.21-8.72-6.21-6.51,0-12.04,4.12-12.04,12.93s5.66,13.86,12.63,13.86c5.49,0,7.91-3.57,8.89-6.08.3-.21.94-.13,1.11.17-.3,2.21-1.4,5.02-2.04,5.83-.51.08-1.02.25-1.49.42-.94.34-4,.98-6.72.98-3.83,0-7.49-.77-10.59-2.85-3.4-2.34-6.04-6.21-6.04-11.69,0-4.72,2.13-8.76,5.36-11.27Z"/>
      <path class="cls-2" d="M445.98,19.6c-.3-.94-.47-1.06-1.74-1.06h-6.42c-1.06,0-1.32.13-1.62,1.02l-1.49,4.46c-.64,1.91-.94,3.06-.94,3.53,0,.51.21.77,1.23.85l1.4.13c.3.21.3.89-.08,1.06-1.11-.08-2.42-.08-4.42-.13-1.4,0-2.93.08-4.08.13-.26-.17-.34-.85-.09-1.06l1.4-.13c1.02-.08,1.96-.55,2.55-2.08.77-1.96,1.96-4.72,3.74-9.48l4.34-11.48c.6-1.53.85-2.34.72-3.02,1.02-.3,1.74-1.06,2.21-1.62.25,0,.55.08.64.38.55,1.87,1.23,3.83,1.87,5.7l5.83,17.09c1.23,3.66,1.79,4.3,3.62,4.51l1.15.13c.3.21.21.89,0,1.06-1.74-.08-3.23-.13-5.15-.13-2.04,0-3.66.08-4.89.13-.34-.17-.38-.85-.08-1.06l1.23-.13c.89-.08,1.49-.34,1.49-.77,0-.47-.21-1.23-.55-2.25l-1.87-5.78ZM437.56,15.82c-.34.98-.3,1.02.89,1.02h5.23c1.23,0,1.32-.17.94-1.32l-2.3-6.93c-.34-1.02-.72-2.17-.98-2.68h-.09c-.13.21-.55,1.23-1.02,2.51l-2.68,7.4Z"/>
      <path class="cls-2" d="M480.59,23.09c0,4.46.08,5.1,2.55,5.32l1.36.13c.25.17.17.94-.09,1.06-2.42-.08-3.87-.13-5.57-.13s-3.19.04-5.91.13c-.25-.13-.34-.85,0-1.06l1.53-.13c2.42-.21,2.64-.85,2.64-5.32V4.08c0-1.32,0-1.36-1.28-1.36h-2.34c-1.83,0-4.17.08-5.23,1.06-1.02.94-1.45,1.87-1.91,2.93-.34.26-.94.04-1.11-.3.68-1.91,1.32-4.64,1.62-6.34.13-.08.68-.13.81,0,.25,1.36,1.66,1.32,3.61,1.32h17.22c2.3,0,2.68-.08,3.32-1.19.21-.08.68-.04.77.13-.47,1.74-.77,5.19-.64,6.46-.17.34-.89.34-1.11.08-.13-1.06-.43-2.64-1.06-3.1-.98-.72-2.59-1.06-4.93-1.06h-3.02c-1.28,0-1.23.04-1.23,1.45v18.92Z"/>
      <path class="cls-2" d="M511.21,7.86c0-4.51-.08-5.23-2.59-5.44l-1.06-.08c-.25-.17-.17-.94.08-1.06,2.13.09,3.57.13,5.36.13s3.15-.04,5.27-.13c.25.13.34.89.08,1.06l-1.06.08c-2.51.21-2.59.94-2.59,5.44v15.14c0,4.51.08,5.1,2.59,5.4l1.06.13c.25.17.17.94-.08,1.06-2.13-.08-3.57-.13-5.27-.13-1.79,0-3.23.04-5.36.13-.25-.13-.34-.81-.08-1.06l1.06-.13c2.51-.3,2.59-.89,2.59-5.4V7.86Z"/>
      <path class="cls-2" d="M534.85,15.73c0-8.5,6.38-15.01,15.14-15.01,9.82,0,14.76,7.1,14.76,14.59,0,8.59-6.55,14.84-14.76,14.84-9.44,0-15.14-6.76-15.14-14.42ZM560.49,16.62c0-7.02-3.1-14.59-11.23-14.59-4.42,0-10.16,3.02-10.16,12.33,0,6.29,3.06,14.46,11.44,14.46,5.1,0,9.95-3.83,9.95-12.21Z"/>
      <path class="cls-2" d="M607.77,22.24c0,1.28,0,6.34.13,7.44-.08.25-.34.47-.81.47-.51-.72-1.74-2.21-5.44-6.42l-9.87-11.23c-1.15-1.32-4.04-4.81-4.93-5.74h-.08c-.17.51-.21,1.49-.21,2.76v9.27c0,2,.04,7.53.76,8.8.25.47,1.11.72,2.17.81l1.32.13c.26.34.21.85-.08,1.06-1.91-.08-3.4-.13-4.98-.13-1.79,0-2.93.04-4.42.13-.3-.21-.34-.81-.08-1.06l1.15-.13c.98-.13,1.66-.38,1.87-.85.6-1.53.55-6.72.55-8.76V6.5c0-1.19-.04-2.08-.94-3.06-.6-.59-1.62-.89-2.64-1.02l-.72-.08c-.26-.25-.26-.89.08-1.06,1.79.13,4.04.13,4.81.13.68,0,1.4-.04,1.96-.13.85,2.17,5.87,7.78,7.27,9.36l4.13,4.63c2.93,3.27,5.02,5.66,7.02,7.7h.09c.17-.21.17-.89.17-1.79v-9.1c0-2-.04-7.53-.85-8.8-.25-.38-.94-.64-2.64-.85l-.72-.08c-.3-.25-.25-.94.09-1.06,1.96.09,3.4.13,5.02.13,1.83,0,2.93-.04,4.38-.13.34.21.34.81.08,1.06l-.59.08c-1.36.21-2.21.55-2.38.89-.72,1.53-.64,6.8-.64,8.76v10.16Z"/>
    </g>
  </g>
</svg>